<?xml version="1.0" encoding="UTF-8" standalone="no"?>
<!DOCTYPE svg PUBLIC "-//W3C//DTD SVG 1.1//EN"
 "http://www.w3.org/Graphics/SVG/1.1/DTD/svg11.dtd">
<!-- Generated by graphviz version 2.40.1 (20161225.0304)
 -->
<!-- Title: G Pages: 1 -->
<svg width="1663pt" height="1973pt"
 viewBox="0.00 0.00 1663.48 1973.00" xmlns="http://www.w3.org/2000/svg" xmlns:xlink="http://www.w3.org/1999/xlink">
<g id="graph0" class="graph" transform="scale(1 1) rotate(0) translate(4 1969)">
<title>G</title>
<polygon fill="#ffffff" stroke="transparent" points="-4,4 -4,-1969 1659.4811,-1969 1659.4811,4 -4,4"/>
<text text-anchor="middle" x="827.7406" y="-1943" font-family="lato, roboto, helvetica" font-size="20.00" fill="#000000">Avontuur</text>
<!-- START -->
<g id="node1" class="node">
<title>START</title>
<polygon fill="#333333" stroke="#333333" points="1240.4811,-1933 1181.7751,-1915 1240.4811,-1897 1299.1871,-1915 1240.4811,-1933"/>
<polyline fill="none" stroke="#333333" points="1193.2479,-1918.5177 1193.2479,-1911.4823 "/>
<polyline fill="none" stroke="#333333" points="1229.0083,-1900.5177 1251.9539,-1900.5177 "/>
<polyline fill="none" stroke="#333333" points="1287.7143,-1911.4823 1287.7143,-1918.5177 "/>
<polyline fill="none" stroke="#333333" points="1251.9539,-1929.4823 1229.0083,-1929.4823 "/>
<text text-anchor="middle" x="1240.4811" y="-1910.8" font-family="lato, roboto, helvetica" font-size="14.00" fill="#dddddd">START</text>
</g>
<!-- betaal_twee_geldstukken -->
<g id="node5" class="node">
<title>betaal_twee_geldstukken</title>
<path fill="#008800" stroke="#008800" d="M612.1753,-1824.5C612.1753,-1824.5 748.7869,-1824.5 748.7869,-1824.5 754.7869,-1824.5 760.7869,-1830.5 760.7869,-1836.5 760.7869,-1836.5 760.7869,-1848.5 760.7869,-1848.5 760.7869,-1854.5 754.7869,-1860.5 748.7869,-1860.5 748.7869,-1860.5 612.1753,-1860.5 612.1753,-1860.5 606.1753,-1860.5 600.1753,-1854.5 600.1753,-1848.5 600.1753,-1848.5 600.1753,-1836.5 600.1753,-1836.5 600.1753,-1830.5 606.1753,-1824.5 612.1753,-1824.5"/>
<text text-anchor="middle" x="680.4811" y="-1838.3" font-family="lato, roboto, helvetica" font-size="14.00" fill="#eeeeee">Betaal Twee Geldstukken</text>
</g>
<!-- START&#45;&gt;betaal_twee_geldstukken -->
<g id="edge3" class="edge">
<title>START&#45;&gt;betaal_twee_geldstukken</title>
<path fill="none" stroke="#999999" d="M1198.8476,-1909.6099C1108.3154,-1897.8893 891.8466,-1869.8643 769.1955,-1853.9853"/>
<polygon fill="#999999" stroke="#999999" points="769.548,-1851.2077 761.2547,-1852.9573 768.829,-1856.7614 769.548,-1851.2077"/>
</g>
<!-- praat_met_bakker -->
<g id="node21" class="node">
<title>praat_met_bakker</title>
<path fill="#008800" stroke="#008800" d="M1399.1115,-1167.5C1399.1115,-1167.5 1489.8507,-1167.5 1489.8507,-1167.5 1495.8507,-1167.5 1501.8507,-1173.5 1501.8507,-1179.5 1501.8507,-1179.5 1501.8507,-1191.5 1501.8507,-1191.5 1501.8507,-1197.5 1495.8507,-1203.5 1489.8507,-1203.5 1489.8507,-1203.5 1399.1115,-1203.5 1399.1115,-1203.5 1393.1115,-1203.5 1387.1115,-1197.5 1387.1115,-1191.5 1387.1115,-1191.5 1387.1115,-1179.5 1387.1115,-1179.5 1387.1115,-1173.5 1393.1115,-1167.5 1399.1115,-1167.5"/>
<text text-anchor="middle" x="1444.4811" y="-1181.3" font-family="lato, roboto, helvetica" font-size="14.00" fill="#eeeeee">Praat Met Bakker</text>
</g>
<!-- START&#45;&gt;praat_met_bakker -->
<g id="edge73" class="edge">
<title>START&#45;&gt;praat_met_bakker</title>
<path fill="none" stroke="#999999" d="M1290.6791,-1912.3021C1367.9746,-1907.1687 1511.2282,-1893.4618 1549.4811,-1861 1582.3294,-1833.1246 1581.4811,-1812.5819 1581.4811,-1769.5 1581.4811,-1769.5 1581.4811,-1769.5 1581.4811,-1477.5 1581.4811,-1369.2004 1503.288,-1257.8778 1465.0487,-1209.9121"/>
<polygon fill="#999999" stroke="#999999" points="1467.1341,-1208.0376 1459.9304,-1203.5713 1462.7765,-1211.5551 1467.1341,-1208.0376"/>
</g>
<!-- praat_met_dwerg -->
<g id="node25" class="node">
<title>praat_met_dwerg</title>
<path fill="#008800" stroke="#008800" d="M980.2805,-1824.5C980.2805,-1824.5 1068.6817,-1824.5 1068.6817,-1824.5 1074.6817,-1824.5 1080.6817,-1830.5 1080.6817,-1836.5 1080.6817,-1836.5 1080.6817,-1848.5 1080.6817,-1848.5 1080.6817,-1854.5 1074.6817,-1860.5 1068.6817,-1860.5 1068.6817,-1860.5 980.2805,-1860.5 980.2805,-1860.5 974.2805,-1860.5 968.2805,-1854.5 968.2805,-1848.5 968.2805,-1848.5 968.2805,-1836.5 968.2805,-1836.5 968.2805,-1830.5 974.2805,-1824.5 980.2805,-1824.5"/>
<text text-anchor="middle" x="1024.4811" y="-1838.3" font-family="lato, roboto, helvetica" font-size="14.00" fill="#eeeeee">Praat Met Dwerg</text>
</g>
<!-- START&#45;&gt;praat_met_dwerg -->
<g id="edge77" class="edge">
<title>START&#45;&gt;praat_met_dwerg</title>
<path fill="none" stroke="#999999" d="M1212.2429,-1905.5219C1180.3773,-1894.8263 1127.5808,-1877.1052 1086.0756,-1863.1741"/>
<polygon fill="#999999" stroke="#999999" points="1086.9398,-1860.5107 1078.4646,-1860.6195 1085.1578,-1865.8196 1086.9398,-1860.5107"/>
</g>
<!-- praat_met_boer -->
<g id="node33" class="node">
<title>praat_met_boer</title>
<path fill="#008800" stroke="#008800" d="M1450.7188,-1824.5C1450.7188,-1824.5 1528.2434,-1824.5 1528.2434,-1824.5 1534.2434,-1824.5 1540.2434,-1830.5 1540.2434,-1836.5 1540.2434,-1836.5 1540.2434,-1848.5 1540.2434,-1848.5 1540.2434,-1854.5 1534.2434,-1860.5 1528.2434,-1860.5 1528.2434,-1860.5 1450.7188,-1860.5 1450.7188,-1860.5 1444.7188,-1860.5 1438.7188,-1854.5 1438.7188,-1848.5 1438.7188,-1848.5 1438.7188,-1836.5 1438.7188,-1836.5 1438.7188,-1830.5 1444.7188,-1824.5 1450.7188,-1824.5"/>
<text text-anchor="middle" x="1489.4811" y="-1838.3" font-family="lato, roboto, helvetica" font-size="14.00" fill="#eeeeee">Praat Met Boer</text>
</g>
<!-- START&#45;&gt;praat_met_boer -->
<g id="edge74" class="edge">
<title>START&#45;&gt;praat_met_boer</title>
<path fill="none" stroke="#999999" d="M1271.0134,-1906.1101C1310.5827,-1894.5889 1380.4285,-1874.2523 1430.5008,-1859.673"/>
<polygon fill="#999999" stroke="#999999" points="1431.4614,-1862.3096 1438.3596,-1857.3848 1429.8958,-1856.9329 1431.4614,-1862.3096"/>
</g>
<!-- pak_touw_op_boerderij -->
<g id="node39" class="node">
<title>pak_touw_op_boerderij</title>
<path fill="#008800" stroke="#008800" d="M1454.4155,-802.5C1454.4155,-802.5 1580.5467,-802.5 1580.5467,-802.5 1586.5467,-802.5 1592.5467,-808.5 1592.5467,-814.5 1592.5467,-814.5 1592.5467,-826.5 1592.5467,-826.5 1592.5467,-832.5 1586.5467,-838.5 1580.5467,-838.5 1580.5467,-838.5 1454.4155,-838.5 1454.4155,-838.5 1448.4155,-838.5 1442.4155,-832.5 1442.4155,-826.5 1442.4155,-826.5 1442.4155,-814.5 1442.4155,-814.5 1442.4155,-808.5 1448.4155,-802.5 1454.4155,-802.5"/>
<text text-anchor="middle" x="1517.4811" y="-816.3" font-family="lato, roboto, helvetica" font-size="14.00" fill="#eeeeee">Pak Touw Op Boerderij</text>
</g>
<!-- START&#45;&gt;pak_touw_op_boerderij -->
<g id="edge68" class="edge">
<title>START&#45;&gt;pak_touw_op_boerderij</title>
<path fill="none" stroke="#999999" d="M1287.7794,-1911.4033C1368.2436,-1904.6301 1527.79,-1888.1697 1576.4811,-1861 1623.3979,-1834.8203 1655.4811,-1823.2268 1655.4811,-1769.5 1655.4811,-1769.5 1655.4811,-1769.5 1655.4811,-966.5 1655.4811,-910.4011 1601.0055,-867.1615 1560.5074,-842.7676"/>
<polygon fill="#999999" stroke="#999999" points="1561.6947,-840.2176 1553.3787,-838.5787 1558.8576,-845.0458 1561.6947,-840.2176"/>
</g>
<!-- praat_met_smidsen -->
<g id="node50" class="node">
<title>praat_met_smidsen</title>
<path fill="#008800" stroke="#008800" d="M371.2132,-1459.5C371.2132,-1459.5 469.749,-1459.5 469.749,-1459.5 475.749,-1459.5 481.749,-1465.5 481.749,-1471.5 481.749,-1471.5 481.749,-1483.5 481.749,-1483.5 481.749,-1489.5 475.749,-1495.5 469.749,-1495.5 469.749,-1495.5 371.2132,-1495.5 371.2132,-1495.5 365.2132,-1495.5 359.2132,-1489.5 359.2132,-1483.5 359.2132,-1483.5 359.2132,-1471.5 359.2132,-1471.5 359.2132,-1465.5 365.2132,-1459.5 371.2132,-1459.5"/>
<text text-anchor="middle" x="420.4811" y="-1473.3" font-family="lato, roboto, helvetica" font-size="14.00" fill="#eeeeee">Praat Met Smidsen</text>
</g>
<!-- START&#45;&gt;praat_met_smidsen -->
<g id="edge79" class="edge">
<title>START&#45;&gt;praat_met_smidsen</title>
<path fill="none" stroke="#999999" d="M1189.3868,-1912.663C1045.8146,-1905.8288 645.6825,-1884.8502 591.4811,-1861 536.6408,-1836.8687 492.4811,-1829.4148 492.4811,-1769.5 492.4811,-1769.5 492.4811,-1769.5 492.4811,-1623.5 492.4811,-1577.1241 462.8985,-1530.2143 441.6576,-1502.5095"/>
<polygon fill="#999999" stroke="#999999" points="443.6036,-1500.4539 436.4602,-1495.8917 439.1994,-1503.9128 443.6036,-1500.4539"/>
</g>
<!-- pak_hout_in_bos -->
<g id="node66" class="node">
<title>pak_hout_in_bos</title>
<path fill="#008800" stroke="#008800" d="M1162.013,-1751.5C1162.013,-1751.5 1246.9492,-1751.5 1246.9492,-1751.5 1252.9492,-1751.5 1258.9492,-1757.5 1258.9492,-1763.5 1258.9492,-1763.5 1258.9492,-1775.5 1258.9492,-1775.5 1258.9492,-1781.5 1252.9492,-1787.5 1246.9492,-1787.5 1246.9492,-1787.5 1162.013,-1787.5 1162.013,-1787.5 1156.013,-1787.5 1150.013,-1781.5 1150.013,-1775.5 1150.013,-1775.5 1150.013,-1763.5 1150.013,-1763.5 1150.013,-1757.5 1156.013,-1751.5 1162.013,-1751.5"/>
<text text-anchor="middle" x="1204.4811" y="-1765.3" font-family="lato, roboto, helvetica" font-size="14.00" fill="#eeeeee">Pak Hout In Bos</text>
</g>
<!-- START&#45;&gt;pak_hout_in_bos -->
<g id="edge64" class="edge">
<title>START&#45;&gt;pak_hout_in_bos</title>
<path fill="none" stroke="#999999" d="M1226.7465,-1900.7707C1217.9252,-1890.5955 1207.2559,-1876.082 1202.4811,-1861 1195.7439,-1839.7191 1197.0033,-1814.24 1199.5116,-1795.5789"/>
<polygon fill="#999999" stroke="#999999" points="1202.3019,-1795.8526 1200.7277,-1787.5242 1196.7647,-1795.0165 1202.3019,-1795.8526"/>
</g>
<!-- vind_onderbroek_bij_rivier -->
<g id="node68" class="node">
<title>vind_onderbroek_bij_rivier</title>
<path fill="#008800" stroke="#008800" d="M1223.7486,-1824.5C1223.7486,-1824.5 1373.2136,-1824.5 1373.2136,-1824.5 1379.2136,-1824.5 1385.2136,-1830.5 1385.2136,-1836.5 1385.2136,-1836.5 1385.2136,-1848.5 1385.2136,-1848.5 1385.2136,-1854.5 1379.2136,-1860.5 1373.2136,-1860.5 1373.2136,-1860.5 1223.7486,-1860.5 1223.7486,-1860.5 1217.7486,-1860.5 1211.7486,-1854.5 1211.7486,-1848.5 1211.7486,-1848.5 1211.7486,-1836.5 1211.7486,-1836.5 1211.7486,-1830.5 1217.7486,-1824.5 1223.7486,-1824.5"/>
<text text-anchor="middle" x="1298.4811" y="-1838.3" font-family="lato, roboto, helvetica" font-size="14.00" fill="#eeeeee">Vind Onderbroek Bij Rivier</text>
</g>
<!-- START&#45;&gt;vind_onderbroek_bij_rivier -->
<g id="edge93" class="edge">
<title>START&#45;&gt;vind_onderbroek_bij_rivier</title>
<path fill="none" stroke="#999999" d="M1252.2183,-1900.3285C1259.8553,-1890.7822 1270.0037,-1878.0968 1278.8493,-1867.0398"/>
<polygon fill="#999999" stroke="#999999" points="1281.0669,-1868.75 1283.878,-1860.7539 1276.694,-1865.2517 1281.0669,-1868.75"/>
</g>
<!-- beklim_toren -->
<g id="node2" class="node">
<title>beklim_toren</title>
<path fill="#008800" stroke="#008800" d="M1303.4057,-1021.5C1303.4057,-1021.5 1373.5565,-1021.5 1373.5565,-1021.5 1379.5565,-1021.5 1385.5565,-1027.5 1385.5565,-1033.5 1385.5565,-1033.5 1385.5565,-1045.5 1385.5565,-1045.5 1385.5565,-1051.5 1379.5565,-1057.5 1373.5565,-1057.5 1373.5565,-1057.5 1303.4057,-1057.5 1303.4057,-1057.5 1297.4057,-1057.5 1291.4057,-1051.5 1291.4057,-1045.5 1291.4057,-1045.5 1291.4057,-1033.5 1291.4057,-1033.5 1291.4057,-1027.5 1297.4057,-1021.5 1303.4057,-1021.5"/>
<text text-anchor="middle" x="1338.4811" y="-1035.3" font-family="lato, roboto, helvetica" font-size="14.00" fill="#eeeeee">Beklim Toren</text>
</g>
<!-- praat_met_dochter_van_bakker -->
<g id="node56" class="node">
<title>praat_met_dochter_van_bakker</title>
<path fill="#008800" stroke="#008800" d="M1255.4074,-948.5C1255.4074,-948.5 1421.5548,-948.5 1421.5548,-948.5 1427.5548,-948.5 1433.5548,-954.5 1433.5548,-960.5 1433.5548,-960.5 1433.5548,-972.5 1433.5548,-972.5 1433.5548,-978.5 1427.5548,-984.5 1421.5548,-984.5 1421.5548,-984.5 1255.4074,-984.5 1255.4074,-984.5 1249.4074,-984.5 1243.4074,-978.5 1243.4074,-972.5 1243.4074,-972.5 1243.4074,-960.5 1243.4074,-960.5 1243.4074,-954.5 1249.4074,-948.5 1255.4074,-948.5"/>
<text text-anchor="middle" x="1338.4811" y="-962.3" font-family="lato, roboto, helvetica" font-size="14.00" fill="#eeeeee">Praat Met Dochter Van Bakker</text>
</g>
<!-- beklim_toren&#45;&gt;praat_met_dochter_van_bakker -->
<g id="edge75" class="edge">
<title>beklim_toren&#45;&gt;praat_met_dochter_van_bakker</title>
<path fill="none" stroke="#999999" d="M1338.4811,-1021.4551C1338.4811,-1012.7686 1338.4811,-1002.1898 1338.4811,-992.642"/>
<polygon fill="#999999" stroke="#999999" points="1341.2812,-992.5903 1338.4811,-984.5904 1335.6812,-992.5904 1341.2812,-992.5903"/>
</g>
<!-- koop_zwaard_voor_99_bij_wapensmid -->
<g id="node3" class="node">
<title>koop_zwaard_voor_99_bij_wapensmid</title>
<path fill="#008800" stroke="#008800" d="M1181.426,-1094.5C1181.426,-1094.5 1391.5362,-1094.5 1391.5362,-1094.5 1397.5362,-1094.5 1403.5362,-1100.5 1403.5362,-1106.5 1403.5362,-1106.5 1403.5362,-1118.5 1403.5362,-1118.5 1403.5362,-1124.5 1397.5362,-1130.5 1391.5362,-1130.5 1391.5362,-1130.5 1181.426,-1130.5 1181.426,-1130.5 1175.426,-1130.5 1169.426,-1124.5 1169.426,-1118.5 1169.426,-1118.5 1169.426,-1106.5 1169.426,-1106.5 1169.426,-1100.5 1175.426,-1094.5 1181.426,-1094.5"/>
<text text-anchor="middle" x="1286.4811" y="-1108.3" font-family="lato, roboto, helvetica" font-size="14.00" fill="#eeeeee">Koop Zwaard Voor 99 Bij Wapensmid</text>
</g>
<!-- koop_zwaard_voor_99_bij_wapensmid&#45;&gt;beklim_toren -->
<g id="edge1" class="edge">
<title>koop_zwaard_voor_99_bij_wapensmid&#45;&gt;beklim_toren</title>
<path fill="none" stroke="#999999" d="M1299.335,-1094.4551C1305.8351,-1085.3299 1313.8228,-1074.1165 1320.884,-1064.2036"/>
<polygon fill="#999999" stroke="#999999" points="1323.2339,-1065.7308 1325.5948,-1057.5904 1318.6727,-1062.4817 1323.2339,-1065.7308"/>
</g>
<!-- genoeg_info_over_monster -->
<g id="node4" class="node">
<title>genoeg_info_over_monster</title>
<path fill="#008800" stroke="#008800" d="M1471.4842,-1094.5C1471.4842,-1094.5 1615.478,-1094.5 1615.478,-1094.5 1621.478,-1094.5 1627.478,-1100.5 1627.478,-1106.5 1627.478,-1106.5 1627.478,-1118.5 1627.478,-1118.5 1627.478,-1124.5 1621.478,-1130.5 1615.478,-1130.5 1615.478,-1130.5 1471.4842,-1130.5 1471.4842,-1130.5 1465.4842,-1130.5 1459.4842,-1124.5 1459.4842,-1118.5 1459.4842,-1118.5 1459.4842,-1106.5 1459.4842,-1106.5 1459.4842,-1100.5 1465.4842,-1094.5 1471.4842,-1094.5"/>
<text text-anchor="middle" x="1543.4811" y="-1108.3" font-family="lato, roboto, helvetica" font-size="14.00" fill="#eeeeee">Genoeg Info Over Monster</text>
</g>
<!-- genoeg_info_over_monster&#45;&gt;beklim_toren -->
<g id="edge2" class="edge">
<title>genoeg_info_over_monster&#45;&gt;beklim_toren</title>
<path fill="none" stroke="#999999" d="M1492.8069,-1094.4551C1462.639,-1083.7123 1424.3429,-1070.0752 1393.4475,-1059.0734"/>
<polygon fill="#999999" stroke="#999999" points="1394.2373,-1056.3825 1385.7616,-1056.3365 1392.3587,-1061.658 1394.2373,-1056.3825"/>
</g>
<!-- _0 -->
<g id="node7" class="node">
<title>_0</title>
<polygon fill="#888888" stroke="#888888" points="680.4811,-1787.5 650.4544,-1769.5 680.4811,-1751.5 710.5078,-1769.5 680.4811,-1787.5"/>
<polyline fill="none" stroke="#888888" points="660.4633,-1775.5 660.4633,-1763.5 "/>
<polyline fill="none" stroke="#888888" points="670.4722,-1757.5 690.49,-1757.5 "/>
<polyline fill="none" stroke="#888888" points="700.4989,-1763.5 700.4989,-1775.5 "/>
<polyline fill="none" stroke="#888888" points="690.49,-1781.5 670.4722,-1781.5 "/>
<text text-anchor="middle" x="680.4811" y="-1765.3" font-family="lato, roboto, helvetica" font-size="14.00" fill="#eeeeee">Or</text>
</g>
<!-- betaal_twee_geldstukken&#45;&gt;_0 -->
<g id="edge5" class="edge">
<title>betaal_twee_geldstukken&#45;&gt;_0</title>
<path fill="none" stroke="#999999" stroke-dasharray="5,2" d="M680.4811,-1824.4551C680.4811,-1815.7686 680.4811,-1805.1898 680.4811,-1795.642"/>
<polygon fill="#999999" stroke="#999999" points="683.2812,-1795.5903 680.4811,-1787.5904 677.6812,-1795.5904 683.2812,-1795.5903"/>
</g>
<!-- _1 -->
<g id="node41" class="node">
<title>_1</title>
<polygon fill="#888888" stroke="#888888" points="801.4811,-1130.5 771.4544,-1112.5 801.4811,-1094.5 831.5078,-1112.5 801.4811,-1130.5"/>
<polyline fill="none" stroke="#888888" points="781.4633,-1118.5 781.4633,-1106.5 "/>
<polyline fill="none" stroke="#888888" points="791.4722,-1100.5 811.49,-1100.5 "/>
<polyline fill="none" stroke="#888888" points="821.4989,-1106.5 821.4989,-1118.5 "/>
<polyline fill="none" stroke="#888888" points="811.49,-1124.5 791.4722,-1124.5 "/>
<text text-anchor="middle" x="801.4811" y="-1108.3" font-family="lato, roboto, helvetica" font-size="14.00" fill="#eeeeee">Or</text>
</g>
<!-- betaal_twee_geldstukken&#45;&gt;_1 -->
<g id="edge31" class="edge">
<title>betaal_twee_geldstukken&#45;&gt;_1</title>
<path fill="none" stroke="#999999" stroke-dasharray="5,2" d="M649.2608,-1824.4058C612.2366,-1800.3394 555.4811,-1754.06 555.4811,-1696.5 555.4811,-1696.5 555.4811,-1696.5 555.4811,-1404.5 555.4811,-1267.1933 716.5404,-1160.9121 778.0189,-1125.3446"/>
<polygon fill="#999999" stroke="#999999" points="779.7762,-1127.566 785.3404,-1121.1722 777.0034,-1122.7006 779.7762,-1127.566"/>
</g>
<!-- betaal_twee_goudstukken_aan_hoefsmid -->
<g id="node6" class="node">
<title>betaal_twee_goudstukken_aan_hoefsmid</title>
<path fill="#008800" stroke="#008800" d="M633.4635,-1678.5C633.4635,-1678.5 859.4987,-1678.5 859.4987,-1678.5 865.4987,-1678.5 871.4987,-1684.5 871.4987,-1690.5 871.4987,-1690.5 871.4987,-1702.5 871.4987,-1702.5 871.4987,-1708.5 865.4987,-1714.5 859.4987,-1714.5 859.4987,-1714.5 633.4635,-1714.5 633.4635,-1714.5 627.4635,-1714.5 621.4635,-1708.5 621.4635,-1702.5 621.4635,-1702.5 621.4635,-1690.5 621.4635,-1690.5 621.4635,-1684.5 627.4635,-1678.5 633.4635,-1678.5"/>
<text text-anchor="middle" x="746.4811" y="-1692.3" font-family="lato, roboto, helvetica" font-size="14.00" fill="#eeeeee">Betaal Twee Goudstukken Aan Hoefsmid</text>
</g>
<!-- geef_paard_nieuwe_hoefijzers -->
<g id="node29" class="node">
<title>geef_paard_nieuwe_hoefijzers</title>
<path fill="#008800" stroke="#008800" d="M1301.7815,-1605.5C1301.7815,-1605.5 1465.1807,-1605.5 1465.1807,-1605.5 1471.1807,-1605.5 1477.1807,-1611.5 1477.1807,-1617.5 1477.1807,-1617.5 1477.1807,-1629.5 1477.1807,-1629.5 1477.1807,-1635.5 1471.1807,-1641.5 1465.1807,-1641.5 1465.1807,-1641.5 1301.7815,-1641.5 1301.7815,-1641.5 1295.7815,-1641.5 1289.7815,-1635.5 1289.7815,-1629.5 1289.7815,-1629.5 1289.7815,-1617.5 1289.7815,-1617.5 1289.7815,-1611.5 1295.7815,-1605.5 1301.7815,-1605.5"/>
<text text-anchor="middle" x="1383.4811" y="-1619.3" font-family="lato, roboto, helvetica" font-size="14.00" fill="#eeeeee">Geef Paard Nieuwe Hoefijzers</text>
</g>
<!-- betaal_twee_goudstukken_aan_hoefsmid&#45;&gt;geef_paard_nieuwe_hoefijzers -->
<g id="edge19" class="edge">
<title>betaal_twee_goudstukken_aan_hoefsmid&#45;&gt;geef_paard_nieuwe_hoefijzers</title>
<path fill="none" stroke="#999999" d="M871.7753,-1684.8234C1004.2182,-1672.2816 1204.2909,-1652.7145 1280.4811,-1642 1280.8634,-1641.9462 1281.2465,-1641.8921 1281.6302,-1641.8376"/>
<polygon fill="#999999" stroke="#999999" points="1282.2721,-1644.5735 1289.7807,-1640.6414 1281.4589,-1639.0328 1282.2721,-1644.5735"/>
</g>
<!-- _0&#45;&gt;betaal_twee_goudstukken_aan_hoefsmid -->
<g id="edge4" class="edge">
<title>_0&#45;&gt;betaal_twee_goudstukken_aan_hoefsmid</title>
<path fill="none" stroke="#999999" d="M691.0851,-1757.7713C700.0218,-1747.8868 713.1073,-1733.4134 724.3167,-1721.0152"/>
<polygon fill="#999999" stroke="#999999" points="726.6873,-1722.5682 729.9755,-1714.7562 722.5333,-1718.8126 726.6873,-1722.5682"/>
</g>
<!-- krijg_geldstuk_van_smid -->
<g id="node8" class="node">
<title>krijg_geldstuk_van_smid</title>
<path fill="#008800" stroke="#008800" d="M588.7409,-729.5C588.7409,-729.5 724.2213,-729.5 724.2213,-729.5 730.2213,-729.5 736.2213,-735.5 736.2213,-741.5 736.2213,-741.5 736.2213,-753.5 736.2213,-753.5 736.2213,-759.5 730.2213,-765.5 724.2213,-765.5 724.2213,-765.5 588.7409,-765.5 588.7409,-765.5 582.7409,-765.5 576.7409,-759.5 576.7409,-753.5 576.7409,-753.5 576.7409,-741.5 576.7409,-741.5 576.7409,-735.5 582.7409,-729.5 588.7409,-729.5"/>
<text text-anchor="middle" x="656.4811" y="-743.3" font-family="lato, roboto, helvetica" font-size="14.00" fill="#eeeeee">Krijg Geldstuk Van Smid</text>
</g>
<!-- krijg_geldstuk_van_smid&#45;&gt;_0 -->
<g id="edge6" class="edge">
<title>krijg_geldstuk_van_smid&#45;&gt;_0</title>
<path fill="none" stroke="#999999" stroke-dasharray="5,2" d="M645.6653,-765.6846C630.6947,-792.6248 605.4811,-845.1715 605.4811,-893.5 605.4811,-1039.5 605.4811,-1039.5 605.4811,-1039.5 605.4811,-1136.9793 593.4811,-1161.0207 593.4811,-1258.5 593.4811,-1623.5 593.4811,-1623.5 593.4811,-1623.5 593.4811,-1665.0342 590.7735,-1679.59 612.4811,-1715 623.3536,-1732.7355 642.1637,-1747.1417 657.2482,-1756.6785"/>
<polygon fill="#999999" stroke="#999999" points="656.0115,-1759.2034 664.3029,-1760.9624 658.9181,-1754.4167 656.0115,-1759.2034"/>
</g>
<!-- bezorg_graan_bij_molenaar -->
<g id="node9" class="node">
<title>bezorg_graan_bij_molenaar</title>
<path fill="#008800" stroke="#008800" d="M1250.541,-1386.5C1250.541,-1386.5 1398.4212,-1386.5 1398.4212,-1386.5 1404.4212,-1386.5 1410.4212,-1392.5 1410.4212,-1398.5 1410.4212,-1398.5 1410.4212,-1410.5 1410.4212,-1410.5 1410.4212,-1416.5 1404.4212,-1422.5 1398.4212,-1422.5 1398.4212,-1422.5 1250.541,-1422.5 1250.541,-1422.5 1244.541,-1422.5 1238.541,-1416.5 1238.541,-1410.5 1238.541,-1410.5 1238.541,-1398.5 1238.541,-1398.5 1238.541,-1392.5 1244.541,-1386.5 1250.541,-1386.5"/>
<text text-anchor="middle" x="1324.4811" y="-1400.3" font-family="lato, roboto, helvetica" font-size="14.00" fill="#eeeeee">Bezorg Graan Bij Molenaar</text>
</g>
<!-- krijg_meel_bij_molenaar -->
<g id="node12" class="node">
<title>krijg_meel_bij_molenaar</title>
<path fill="#008800" stroke="#008800" d="M1157.696,-1313.5C1157.696,-1313.5 1289.2662,-1313.5 1289.2662,-1313.5 1295.2662,-1313.5 1301.2662,-1319.5 1301.2662,-1325.5 1301.2662,-1325.5 1301.2662,-1337.5 1301.2662,-1337.5 1301.2662,-1343.5 1295.2662,-1349.5 1289.2662,-1349.5 1289.2662,-1349.5 1157.696,-1349.5 1157.696,-1349.5 1151.696,-1349.5 1145.696,-1343.5 1145.696,-1337.5 1145.696,-1337.5 1145.696,-1325.5 1145.696,-1325.5 1145.696,-1319.5 1151.696,-1313.5 1157.696,-1313.5"/>
<text text-anchor="middle" x="1223.4811" y="-1327.3" font-family="lato, roboto, helvetica" font-size="14.00" fill="#eeeeee">Krijg Meel Bij Molenaar</text>
</g>
<!-- bezorg_graan_bij_molenaar&#45;&gt;krijg_meel_bij_molenaar -->
<g id="edge42" class="edge">
<title>bezorg_graan_bij_molenaar&#45;&gt;krijg_meel_bij_molenaar</title>
<path fill="none" stroke="#999999" d="M1299.5148,-1386.4551C1286.1613,-1376.8035 1269.5753,-1364.8156 1255.3052,-1354.5016"/>
<polygon fill="#999999" stroke="#999999" points="1256.6342,-1352.0074 1248.5102,-1349.5904 1253.3538,-1356.546 1256.6342,-1352.0074"/>
</g>
<!-- zet_graan_op_wagen -->
<g id="node10" class="node">
<title>zet_graan_op_wagen</title>
<path fill="#008800" stroke="#008800" d="M1295.4288,-1459.5C1295.4288,-1459.5 1407.5334,-1459.5 1407.5334,-1459.5 1413.5334,-1459.5 1419.5334,-1465.5 1419.5334,-1471.5 1419.5334,-1471.5 1419.5334,-1483.5 1419.5334,-1483.5 1419.5334,-1489.5 1413.5334,-1495.5 1407.5334,-1495.5 1407.5334,-1495.5 1295.4288,-1495.5 1295.4288,-1495.5 1289.4288,-1495.5 1283.4288,-1489.5 1283.4288,-1483.5 1283.4288,-1483.5 1283.4288,-1471.5 1283.4288,-1471.5 1283.4288,-1465.5 1289.4288,-1459.5 1295.4288,-1459.5"/>
<text text-anchor="middle" x="1351.4811" y="-1473.3" font-family="lato, roboto, helvetica" font-size="14.00" fill="#eeeeee">Zet Graan Op Wagen</text>
</g>
<!-- zet_graan_op_wagen&#45;&gt;bezorg_graan_bij_molenaar -->
<g id="edge7" class="edge">
<title>zet_graan_op_wagen&#45;&gt;bezorg_graan_bij_molenaar</title>
<path fill="none" stroke="#999999" d="M1344.8069,-1459.4551C1341.5617,-1450.6809 1337.6023,-1439.9759 1334.0432,-1430.353"/>
<polygon fill="#999999" stroke="#999999" points="1336.5734,-1429.1223 1331.1721,-1422.5904 1331.3212,-1431.0649 1336.5734,-1429.1223"/>
</g>
<!-- bezorg_meel_bij_bakker -->
<g id="node11" class="node">
<title>bezorg_meel_bij_bakker</title>
<path fill="#008800" stroke="#008800" d="M1158.8636,-1240.5C1158.8636,-1240.5 1288.0986,-1240.5 1288.0986,-1240.5 1294.0986,-1240.5 1300.0986,-1246.5 1300.0986,-1252.5 1300.0986,-1252.5 1300.0986,-1264.5 1300.0986,-1264.5 1300.0986,-1270.5 1294.0986,-1276.5 1288.0986,-1276.5 1288.0986,-1276.5 1158.8636,-1276.5 1158.8636,-1276.5 1152.8636,-1276.5 1146.8636,-1270.5 1146.8636,-1264.5 1146.8636,-1264.5 1146.8636,-1252.5 1146.8636,-1252.5 1146.8636,-1246.5 1152.8636,-1240.5 1158.8636,-1240.5"/>
<text text-anchor="middle" x="1223.4811" y="-1254.3" font-family="lato, roboto, helvetica" font-size="14.00" fill="#eeeeee">Bezorg Meel Bij Bakker</text>
</g>
<!-- krijg_100_geld_van_meel -->
<g id="node42" class="node">
<title>krijg_100_geld_van_meel</title>
<path fill="#008800" stroke="#008800" d="M1181.5582,-1167.5C1181.5582,-1167.5 1317.404,-1167.5 1317.404,-1167.5 1323.404,-1167.5 1329.404,-1173.5 1329.404,-1179.5 1329.404,-1179.5 1329.404,-1191.5 1329.404,-1191.5 1329.404,-1197.5 1323.404,-1203.5 1317.404,-1203.5 1317.404,-1203.5 1181.5582,-1203.5 1181.5582,-1203.5 1175.5582,-1203.5 1169.5582,-1197.5 1169.5582,-1191.5 1169.5582,-1191.5 1169.5582,-1179.5 1169.5582,-1179.5 1169.5582,-1173.5 1175.5582,-1167.5 1181.5582,-1167.5"/>
<text text-anchor="middle" x="1249.4811" y="-1181.3" font-family="lato, roboto, helvetica" font-size="14.00" fill="#eeeeee">Krijg 100 Geld Van Meel</text>
</g>
<!-- bezorg_meel_bij_bakker&#45;&gt;krijg_100_geld_van_meel -->
<g id="edge35" class="edge">
<title>bezorg_meel_bij_bakker&#45;&gt;krijg_100_geld_van_meel</title>
<path fill="none" stroke="#999999" d="M1229.9081,-1240.4551C1233.0331,-1231.6809 1236.8458,-1220.9759 1240.2732,-1211.353"/>
<polygon fill="#999999" stroke="#999999" points="1242.9914,-1212.0661 1243.038,-1203.5904 1237.716,-1210.1872 1242.9914,-1212.0661"/>
</g>
<!-- zet_molensteen_op_wagen -->
<g id="node55" class="node">
<title>zet_molensteen_op_wagen</title>
<path fill="#008800" stroke="#008800" d="M1069.8699,-948.5C1069.8699,-948.5 1213.0923,-948.5 1213.0923,-948.5 1219.0923,-948.5 1225.0923,-954.5 1225.0923,-960.5 1225.0923,-960.5 1225.0923,-972.5 1225.0923,-972.5 1225.0923,-978.5 1219.0923,-984.5 1213.0923,-984.5 1213.0923,-984.5 1069.8699,-984.5 1069.8699,-984.5 1063.8699,-984.5 1057.8699,-978.5 1057.8699,-972.5 1057.8699,-972.5 1057.8699,-960.5 1057.8699,-960.5 1057.8699,-954.5 1063.8699,-948.5 1069.8699,-948.5"/>
<text text-anchor="middle" x="1141.4811" y="-962.3" font-family="lato, roboto, helvetica" font-size="14.00" fill="#eeeeee">Zet Molensteen Op Wagen</text>
</g>
<!-- bezorg_meel_bij_bakker&#45;&gt;zet_molensteen_op_wagen -->
<g id="edge101" class="edge">
<title>bezorg_meel_bij_bakker&#45;&gt;zet_molensteen_op_wagen</title>
<path fill="none" stroke="#999999" d="M1193.7084,-1240.3738C1181.2367,-1231.125 1167.929,-1218.7087 1160.4811,-1204 1125.2837,-1134.4892 1131.5954,-1038.6913 1137.3879,-992.9209"/>
<polygon fill="#999999" stroke="#999999" points="1140.2001,-993.0167 1138.4902,-984.7152 1134.65,-992.2712 1140.2001,-993.0167"/>
</g>
<!-- krijg_meel_bij_molenaar&#45;&gt;bezorg_meel_bij_bakker -->
<g id="edge8" class="edge">
<title>krijg_meel_bij_molenaar&#45;&gt;bezorg_meel_bij_bakker</title>
<path fill="none" stroke="#999999" d="M1223.4811,-1313.4551C1223.4811,-1304.7686 1223.4811,-1294.1898 1223.4811,-1284.642"/>
<polygon fill="#999999" stroke="#999999" points="1226.2812,-1284.5903 1223.4811,-1276.5904 1220.6812,-1284.5904 1226.2812,-1284.5903"/>
</g>
<!-- breng_dochter_naar_bakker -->
<g id="node13" class="node">
<title>breng_dochter_naar_bakker</title>
<path fill="#008800" stroke="#008800" d="M1154.7703,-510.5C1154.7703,-510.5 1304.1919,-510.5 1304.1919,-510.5 1310.1919,-510.5 1316.1919,-516.5 1316.1919,-522.5 1316.1919,-522.5 1316.1919,-534.5 1316.1919,-534.5 1316.1919,-540.5 1310.1919,-546.5 1304.1919,-546.5 1304.1919,-546.5 1154.7703,-546.5 1154.7703,-546.5 1148.7703,-546.5 1142.7703,-540.5 1142.7703,-534.5 1142.7703,-534.5 1142.7703,-522.5 1142.7703,-522.5 1142.7703,-516.5 1148.7703,-510.5 1154.7703,-510.5"/>
<text text-anchor="middle" x="1229.4811" y="-524.3" font-family="lato, roboto, helvetica" font-size="14.00" fill="#eeeeee">Breng Dochter Naar Bakker</text>
</g>
<!-- krijg_appeltaart_van_bakker -->
<g id="node23" class="node">
<title>krijg_appeltaart_van_bakker</title>
<path fill="#008800" stroke="#008800" d="M1151.0417,-437.5C1151.0417,-437.5 1305.9205,-437.5 1305.9205,-437.5 1311.9205,-437.5 1317.9205,-443.5 1317.9205,-449.5 1317.9205,-449.5 1317.9205,-461.5 1317.9205,-461.5 1317.9205,-467.5 1311.9205,-473.5 1305.9205,-473.5 1305.9205,-473.5 1151.0417,-473.5 1151.0417,-473.5 1145.0417,-473.5 1139.0417,-467.5 1139.0417,-461.5 1139.0417,-461.5 1139.0417,-449.5 1139.0417,-449.5 1139.0417,-443.5 1145.0417,-437.5 1151.0417,-437.5"/>
<text text-anchor="middle" x="1228.4811" y="-451.3" font-family="lato, roboto, helvetica" font-size="14.00" fill="#eeeeee">Krijg Appeltaart Van Bakker</text>
</g>
<!-- breng_dochter_naar_bakker&#45;&gt;krijg_appeltaart_van_bakker -->
<g id="edge36" class="edge">
<title>breng_dochter_naar_bakker&#45;&gt;krijg_appeltaart_van_bakker</title>
<path fill="none" stroke="#999999" d="M1229.2339,-510.4551C1229.1149,-501.7686 1228.97,-491.1898 1228.8392,-481.642"/>
<polygon fill="#999999" stroke="#999999" points="1231.6383,-481.5512 1228.7289,-473.5904 1226.0389,-481.628 1231.6383,-481.5512"/>
</g>
<!-- trek_tand_van_draak -->
<g id="node14" class="node">
<title>trek_tand_van_draak</title>
<path fill="#008800" stroke="#008800" d="M1171.8748,-583.5C1171.8748,-583.5 1287.0874,-583.5 1287.0874,-583.5 1293.0874,-583.5 1299.0874,-589.5 1299.0874,-595.5 1299.0874,-595.5 1299.0874,-607.5 1299.0874,-607.5 1299.0874,-613.5 1293.0874,-619.5 1287.0874,-619.5 1287.0874,-619.5 1171.8748,-619.5 1171.8748,-619.5 1165.8748,-619.5 1159.8748,-613.5 1159.8748,-607.5 1159.8748,-607.5 1159.8748,-595.5 1159.8748,-595.5 1159.8748,-589.5 1165.8748,-583.5 1171.8748,-583.5"/>
<text text-anchor="middle" x="1229.4811" y="-597.3" font-family="lato, roboto, helvetica" font-size="14.00" fill="#eeeeee">Trek Tand Van Draak</text>
</g>
<!-- trek_tand_van_draak&#45;&gt;breng_dochter_naar_bakker -->
<g id="edge9" class="edge">
<title>trek_tand_van_draak&#45;&gt;breng_dochter_naar_bakker</title>
<path fill="none" stroke="#999999" d="M1229.4811,-583.4551C1229.4811,-574.7686 1229.4811,-564.1898 1229.4811,-554.642"/>
<polygon fill="#999999" stroke="#999999" points="1232.2812,-554.5903 1229.4811,-546.5904 1226.6812,-554.5904 1232.2812,-554.5903"/>
</g>
<!-- pak_tand_van_draak -->
<g id="node52" class="node">
<title>pak_tand_van_draak</title>
<path fill="#008800" stroke="#008800" d="M1002.5901,-510.5C1002.5901,-510.5 1112.3721,-510.5 1112.3721,-510.5 1118.3721,-510.5 1124.3721,-516.5 1124.3721,-522.5 1124.3721,-522.5 1124.3721,-534.5 1124.3721,-534.5 1124.3721,-540.5 1118.3721,-546.5 1112.3721,-546.5 1112.3721,-546.5 1002.5901,-546.5 1002.5901,-546.5 996.5901,-546.5 990.5901,-540.5 990.5901,-534.5 990.5901,-534.5 990.5901,-522.5 990.5901,-522.5 990.5901,-516.5 996.5901,-510.5 1002.5901,-510.5"/>
<text text-anchor="middle" x="1057.4811" y="-524.3" font-family="lato, roboto, helvetica" font-size="14.00" fill="#eeeeee">Pak Tand Van Draak</text>
</g>
<!-- trek_tand_van_draak&#45;&gt;pak_tand_van_draak -->
<g id="edge66" class="edge">
<title>trek_tand_van_draak&#45;&gt;pak_tand_van_draak</title>
<path fill="none" stroke="#999999" d="M1186.9642,-583.4551C1162.9832,-573.277 1132.8805,-560.5009 1107.7367,-549.8294"/>
<polygon fill="#999999" stroke="#999999" points="1108.5631,-547.1384 1100.105,-546.5904 1106.3752,-552.2934 1108.5631,-547.1384"/>
</g>
<!-- breng_medicijnen_naar_koning -->
<g id="node15" class="node">
<title>breng_medicijnen_naar_koning</title>
<polygon fill="#333333" stroke="#333333" points="980.4811,-36 791.64,-18 980.4811,0 1169.3222,-18 980.4811,-36"/>
<polyline fill="none" stroke="#333333" points="803.5858,-19.1387 803.5858,-16.8613 "/>
<polyline fill="none" stroke="#333333" points="968.5352,-1.1387 992.427,-1.1387 "/>
<polyline fill="none" stroke="#333333" points="1157.3764,-16.8613 1157.3764,-19.1387 "/>
<polyline fill="none" stroke="#333333" points="992.427,-34.8613 968.5352,-34.8613 "/>
<text text-anchor="middle" x="980.4811" y="-13.8" font-family="lato, roboto, helvetica" font-size="14.00" fill="#dddddd">Breng Medicijnen Naar Koning</text>
</g>
<!-- zet_zadel_op_draak -->
<g id="node16" class="node">
<title>zet_zadel_op_draak</title>
<path fill="#3333aa" stroke="#3333aa" d="M862.3145,-72.5C862.3145,-72.5 966.6477,-72.5 966.6477,-72.5 972.6477,-72.5 978.6477,-78.5 978.6477,-84.5 978.6477,-84.5 978.6477,-96.5 978.6477,-96.5 978.6477,-102.5 972.6477,-108.5 966.6477,-108.5 966.6477,-108.5 862.3145,-108.5 862.3145,-108.5 856.3145,-108.5 850.3145,-102.5 850.3145,-96.5 850.3145,-96.5 850.3145,-84.5 850.3145,-84.5 850.3145,-78.5 856.3145,-72.5 862.3145,-72.5"/>
<text text-anchor="middle" x="914.4811" y="-86.3" font-family="lato, roboto, helvetica" font-size="14.00" fill="#eeeeee">Zet Zadel Op Draak</text>
</g>
<!-- zet_zadel_op_draak&#45;&gt;breng_medicijnen_naar_koning -->
<g id="edge10" class="edge">
<title>zet_zadel_op_draak&#45;&gt;breng_medicijnen_naar_koning</title>
<path fill="none" stroke="#999999" d="M931.1357,-72.2052C939.7374,-62.7563 950.3213,-51.13 959.4785,-41.071"/>
<polygon fill="#999999" stroke="#999999" points="961.6504,-42.8446 964.9653,-35.0438 957.5093,-39.0748 961.6504,-42.8446"/>
</g>
<!-- maak_medicijn -->
<g id="node17" class="node">
<title>maak_medicijn</title>
<path fill="#008800" stroke="#008800" d="M1025.5214,-72.5C1025.5214,-72.5 1103.4408,-72.5 1103.4408,-72.5 1109.4408,-72.5 1115.4408,-78.5 1115.4408,-84.5 1115.4408,-84.5 1115.4408,-96.5 1115.4408,-96.5 1115.4408,-102.5 1109.4408,-108.5 1103.4408,-108.5 1103.4408,-108.5 1025.5214,-108.5 1025.5214,-108.5 1019.5214,-108.5 1013.5214,-102.5 1013.5214,-96.5 1013.5214,-96.5 1013.5214,-84.5 1013.5214,-84.5 1013.5214,-78.5 1019.5214,-72.5 1025.5214,-72.5"/>
<text text-anchor="middle" x="1064.4811" y="-86.3" font-family="lato, roboto, helvetica" font-size="14.00" fill="#eeeeee">Maak Medicijn</text>
</g>
<!-- maak_medicijn&#45;&gt;breng_medicijnen_naar_koning -->
<g id="edge11" class="edge">
<title>maak_medicijn&#45;&gt;breng_medicijnen_naar_koning</title>
<path fill="none" stroke="#999999" d="M1043.2844,-72.2052C1031.7786,-62.2746 1017.4861,-49.9388 1005.4437,-39.5451"/>
<polygon fill="#999999" stroke="#999999" points="1007.2639,-37.4174 999.3781,-34.3099 1003.6049,-41.6567 1007.2639,-37.4174"/>
</g>
<!-- breng_paard_naar_hoefsmid -->
<g id="node18" class="node">
<title>breng_paard_naar_hoefsmid</title>
<path fill="#008800" stroke="#008800" d="M1314.987,-1678.5C1314.987,-1678.5 1465.9752,-1678.5 1465.9752,-1678.5 1471.9752,-1678.5 1477.9752,-1684.5 1477.9752,-1690.5 1477.9752,-1690.5 1477.9752,-1702.5 1477.9752,-1702.5 1477.9752,-1708.5 1471.9752,-1714.5 1465.9752,-1714.5 1465.9752,-1714.5 1314.987,-1714.5 1314.987,-1714.5 1308.987,-1714.5 1302.987,-1708.5 1302.987,-1702.5 1302.987,-1702.5 1302.987,-1690.5 1302.987,-1690.5 1302.987,-1684.5 1308.987,-1678.5 1314.987,-1678.5"/>
<text text-anchor="middle" x="1390.4811" y="-1692.3" font-family="lato, roboto, helvetica" font-size="14.00" fill="#eeeeee">Breng Paard Naar Hoefsmid</text>
</g>
<!-- breng_paard_naar_hoefsmid&#45;&gt;geef_paard_nieuwe_hoefijzers -->
<g id="edge18" class="edge">
<title>breng_paard_naar_hoefsmid&#45;&gt;geef_paard_nieuwe_hoefijzers</title>
<path fill="none" stroke="#999999" d="M1388.7508,-1678.4551C1387.9178,-1669.7686 1386.9034,-1659.1898 1385.9879,-1649.642"/>
<polygon fill="#999999" stroke="#999999" points="1388.7667,-1649.2865 1385.2158,-1641.5904 1383.1923,-1649.8211 1388.7667,-1649.2865"/>
</g>
<!-- vind_paard_bij_rivier -->
<g id="node19" class="node">
<title>vind_paard_bij_rivier</title>
<path fill="#008800" stroke="#008800" d="M1342.2409,-1751.5C1342.2409,-1751.5 1456.7213,-1751.5 1456.7213,-1751.5 1462.7213,-1751.5 1468.7213,-1757.5 1468.7213,-1763.5 1468.7213,-1763.5 1468.7213,-1775.5 1468.7213,-1775.5 1468.7213,-1781.5 1462.7213,-1787.5 1456.7213,-1787.5 1456.7213,-1787.5 1342.2409,-1787.5 1342.2409,-1787.5 1336.2409,-1787.5 1330.2409,-1781.5 1330.2409,-1775.5 1330.2409,-1775.5 1330.2409,-1763.5 1330.2409,-1763.5 1330.2409,-1757.5 1336.2409,-1751.5 1342.2409,-1751.5"/>
<text text-anchor="middle" x="1399.4811" y="-1765.3" font-family="lato, roboto, helvetica" font-size="14.00" fill="#eeeeee">Vind Paard Bij Rivier</text>
</g>
<!-- vind_paard_bij_rivier&#45;&gt;breng_paard_naar_hoefsmid -->
<g id="edge12" class="edge">
<title>vind_paard_bij_rivier&#45;&gt;breng_paard_naar_hoefsmid</title>
<path fill="none" stroke="#999999" d="M1397.2564,-1751.4551C1396.1855,-1742.7686 1394.8812,-1732.1898 1393.7041,-1722.642"/>
<polygon fill="#999999" stroke="#999999" points="1396.4694,-1722.1876 1392.7114,-1714.5904 1390.9114,-1722.8729 1396.4694,-1722.1876"/>
</g>
<!-- ga_naar_hut_in_moeras -->
<g id="node20" class="node">
<title>ga_naar_hut_in_moeras</title>
<path fill="#008800" stroke="#008800" d="M977.4039,-1021.5C977.4039,-1021.5 1101.5583,-1021.5 1101.5583,-1021.5 1107.5583,-1021.5 1113.5583,-1027.5 1113.5583,-1033.5 1113.5583,-1033.5 1113.5583,-1045.5 1113.5583,-1045.5 1113.5583,-1051.5 1107.5583,-1057.5 1101.5583,-1057.5 1101.5583,-1057.5 977.4039,-1057.5 977.4039,-1057.5 971.4039,-1057.5 965.4039,-1051.5 965.4039,-1045.5 965.4039,-1045.5 965.4039,-1033.5 965.4039,-1033.5 965.4039,-1027.5 971.4039,-1021.5 977.4039,-1021.5"/>
<text text-anchor="middle" x="1039.4811" y="-1035.3" font-family="lato, roboto, helvetica" font-size="14.00" fill="#eeeeee">Ga Naar Hut In Moeras</text>
</g>
<!-- praat_met_heks -->
<g id="node31" class="node">
<title>praat_met_heks</title>
<path fill="#008800" stroke="#008800" d="M934.9418,-875.5C934.9418,-875.5 1014.0204,-875.5 1014.0204,-875.5 1020.0204,-875.5 1026.0204,-881.5 1026.0204,-887.5 1026.0204,-887.5 1026.0204,-899.5 1026.0204,-899.5 1026.0204,-905.5 1020.0204,-911.5 1014.0204,-911.5 1014.0204,-911.5 934.9418,-911.5 934.9418,-911.5 928.9418,-911.5 922.9418,-905.5 922.9418,-899.5 922.9418,-899.5 922.9418,-887.5 922.9418,-887.5 922.9418,-881.5 928.9418,-875.5 934.9418,-875.5"/>
<text text-anchor="middle" x="974.4811" y="-889.3" font-family="lato, roboto, helvetica" font-size="14.00" fill="#eeeeee">Praat Met Heks</text>
</g>
<!-- ga_naar_hut_in_moeras&#45;&gt;praat_met_heks -->
<g id="edge78" class="edge">
<title>ga_naar_hut_in_moeras&#45;&gt;praat_met_heks</title>
<path fill="none" stroke="#999999" d="M1031.3802,-1021.3042C1019.9463,-995.6218 999.0173,-948.6122 985.9782,-919.3243"/>
<polygon fill="#999999" stroke="#999999" points="988.4958,-918.0947 982.6841,-911.9251 983.3799,-920.3724 988.4958,-918.0947"/>
</g>
<!-- praat_met_bakker&#45;&gt;koop_zwaard_voor_99_bij_wapensmid -->
<g id="edge34" class="edge">
<title>praat_met_bakker&#45;&gt;koop_zwaard_voor_99_bij_wapensmid</title>
<path fill="none" stroke="#999999" d="M1405.4249,-1167.4551C1383.4907,-1157.3209 1355.9816,-1144.611 1332.9451,-1133.9675"/>
<polygon fill="#999999" stroke="#999999" points="1334.0723,-1131.404 1325.6356,-1130.5904 1331.7235,-1136.4876 1334.0723,-1131.404"/>
</g>
<!-- praat_met_bakker&#45;&gt;genoeg_info_over_monster -->
<g id="edge22" class="edge">
<title>praat_met_bakker&#45;&gt;genoeg_info_over_monster</title>
<path fill="none" stroke="#999999" d="M1468.953,-1167.4551C1482.0421,-1157.8035 1498.2996,-1145.8156 1512.2872,-1135.5016"/>
<polygon fill="#999999" stroke="#999999" points="1514.1705,-1137.5918 1518.9476,-1130.5904 1510.847,-1133.0846 1514.1705,-1137.5918"/>
</g>
<!-- praat_met_bakker&#45;&gt;ga_naar_hut_in_moeras -->
<g id="edge13" class="edge">
<title>praat_met_bakker&#45;&gt;ga_naar_hut_in_moeras</title>
<path fill="none" stroke="#999999" d="M1443.5074,-1167.2502C1441.3391,-1146.177 1434.4209,-1112.0976 1412.4811,-1094 1390.4539,-1075.8303 1225.1045,-1057.105 1122.0853,-1047.0261"/>
<polygon fill="#999999" stroke="#999999" points="1122.0902,-1044.2135 1113.8569,-1046.2265 1121.5485,-1049.7872 1122.0902,-1044.2135"/>
</g>
<!-- geef_appeltaart_aan_draak -->
<g id="node22" class="node">
<title>geef_appeltaart_aan_draak</title>
<path fill="#008800" stroke="#008800" d="M1154.3327,-291.5C1154.3327,-291.5 1300.6295,-291.5 1300.6295,-291.5 1306.6295,-291.5 1312.6295,-297.5 1312.6295,-303.5 1312.6295,-303.5 1312.6295,-315.5 1312.6295,-315.5 1312.6295,-321.5 1306.6295,-327.5 1300.6295,-327.5 1300.6295,-327.5 1154.3327,-327.5 1154.3327,-327.5 1148.3327,-327.5 1142.3327,-321.5 1142.3327,-315.5 1142.3327,-315.5 1142.3327,-303.5 1142.3327,-303.5 1142.3327,-297.5 1148.3327,-291.5 1154.3327,-291.5"/>
<text text-anchor="middle" x="1227.4811" y="-305.3" font-family="lato, roboto, helvetica" font-size="14.00" fill="#eeeeee">Geef Appeltaart Aan Draak</text>
</g>
<!-- geef_appeltaart_aan_draak&#45;&gt;zet_zadel_op_draak -->
<g id="edge102" class="edge">
<title>geef_appeltaart_aan_draak&#45;&gt;zet_zadel_op_draak</title>
<path fill="none" stroke="#999999" d="M1231.4772,-291.3173C1237.7207,-257.5856 1245.4604,-185.1088 1207.4811,-145 1175.9802,-111.7328 1049.4792,-117.6131 1004.4811,-109 998.7723,-107.9073 992.8654,-106.7508 986.9323,-105.5709"/>
<polygon fill="#999999" stroke="#999999" points="987.2357,-102.7762 978.8417,-103.9512 986.1364,-108.2672 987.2357,-102.7762"/>
</g>
<!-- krijg_appeltaart_van_bakker&#45;&gt;geef_appeltaart_aan_draak -->
<g id="edge14" class="edge">
<title>krijg_appeltaart_van_bakker&#45;&gt;geef_appeltaart_aan_draak</title>
<path fill="none" stroke="#999999" d="M1228.3565,-437.3042C1228.1821,-411.8403 1227.8641,-365.4108 1227.6631,-336.0759"/>
<polygon fill="#999999" stroke="#999999" points="1230.4621,-335.9057 1227.6073,-327.9251 1224.8623,-335.9441 1230.4621,-335.9057"/>
</g>
<!-- geef_dwerg_eten -->
<g id="node24" class="node">
<title>geef_dwerg_eten</title>
<path fill="#008800" stroke="#008800" d="M774.5098,-948.5C774.5098,-948.5 864.4524,-948.5 864.4524,-948.5 870.4524,-948.5 876.4524,-954.5 876.4524,-960.5 876.4524,-960.5 876.4524,-972.5 876.4524,-972.5 876.4524,-978.5 870.4524,-984.5 864.4524,-984.5 864.4524,-984.5 774.5098,-984.5 774.5098,-984.5 768.5098,-984.5 762.5098,-978.5 762.5098,-972.5 762.5098,-972.5 762.5098,-960.5 762.5098,-960.5 762.5098,-954.5 768.5098,-948.5 774.5098,-948.5"/>
<text text-anchor="middle" x="819.4811" y="-962.3" font-family="lato, roboto, helvetica" font-size="14.00" fill="#eeeeee">Geef Dwerg Eten</text>
</g>
<!-- krijg_edelsteen_van_dwerg -->
<g id="node43" class="node">
<title>krijg_edelsteen_van_dwerg</title>
<path fill="#008800" stroke="#008800" d="M745.541,-875.5C745.541,-875.5 893.4212,-875.5 893.4212,-875.5 899.4212,-875.5 905.4212,-881.5 905.4212,-887.5 905.4212,-887.5 905.4212,-899.5 905.4212,-899.5 905.4212,-905.5 899.4212,-911.5 893.4212,-911.5 893.4212,-911.5 745.541,-911.5 745.541,-911.5 739.541,-911.5 733.541,-905.5 733.541,-899.5 733.541,-899.5 733.541,-887.5 733.541,-887.5 733.541,-881.5 739.541,-875.5 745.541,-875.5"/>
<text text-anchor="middle" x="819.4811" y="-889.3" font-family="lato, roboto, helvetica" font-size="14.00" fill="#eeeeee">Krijg Edelsteen Van Dwerg</text>
</g>
<!-- geef_dwerg_eten&#45;&gt;krijg_edelsteen_van_dwerg -->
<g id="edge37" class="edge">
<title>geef_dwerg_eten&#45;&gt;krijg_edelsteen_van_dwerg</title>
<path fill="none" stroke="#999999" d="M819.4811,-948.4551C819.4811,-939.7686 819.4811,-929.1898 819.4811,-919.642"/>
<polygon fill="#999999" stroke="#999999" points="822.2812,-919.5903 819.4811,-911.5904 816.6812,-919.5904 822.2812,-919.5903"/>
</g>
<!-- praat_met_dwerg&#45;&gt;geef_dwerg_eten -->
<g id="edge15" class="edge">
<title>praat_met_dwerg&#45;&gt;geef_dwerg_eten</title>
<path fill="none" stroke="#999999" d="M968.0532,-1829.831C945.4093,-1821.7488 921.4178,-1808.737 907.4811,-1788 866.6515,-1727.2479 899.4811,-1696.6975 899.4811,-1623.5 899.4811,-1623.5 899.4811,-1623.5 899.4811,-1112.5 899.4811,-1070.9658 901.2331,-1056.9784 880.4811,-1021 873.6062,-1009.0808 863.1973,-998.3769 852.9143,-989.6759"/>
<polygon fill="#999999" stroke="#999999" points="854.5381,-987.3878 846.5606,-984.5242 851.0111,-991.7376 854.5381,-987.3878"/>
</g>
<!-- krijg_kapotte_houweel_van_dwerg -->
<g id="node45" class="node">
<title>krijg_kapotte_houweel_van_dwerg</title>
<path fill="#008800" stroke="#008800" d="M928.5771,-1751.5C928.5771,-1751.5 1120.3851,-1751.5 1120.3851,-1751.5 1126.3851,-1751.5 1132.3851,-1757.5 1132.3851,-1763.5 1132.3851,-1763.5 1132.3851,-1775.5 1132.3851,-1775.5 1132.3851,-1781.5 1126.3851,-1787.5 1120.3851,-1787.5 1120.3851,-1787.5 928.5771,-1787.5 928.5771,-1787.5 922.5771,-1787.5 916.5771,-1781.5 916.5771,-1775.5 916.5771,-1775.5 916.5771,-1763.5 916.5771,-1763.5 916.5771,-1757.5 922.5771,-1751.5 928.5771,-1751.5"/>
<text text-anchor="middle" x="1024.4811" y="-1765.3" font-family="lato, roboto, helvetica" font-size="14.00" fill="#eeeeee">Krijg Kapotte Houweel Van Dwerg</text>
</g>
<!-- praat_met_dwerg&#45;&gt;krijg_kapotte_houweel_van_dwerg -->
<g id="edge41" class="edge">
<title>praat_met_dwerg&#45;&gt;krijg_kapotte_houweel_van_dwerg</title>
<path fill="none" stroke="#999999" d="M1024.4811,-1824.4551C1024.4811,-1815.7686 1024.4811,-1805.1898 1024.4811,-1795.642"/>
<polygon fill="#999999" stroke="#999999" points="1027.2812,-1795.5903 1024.4811,-1787.5904 1021.6812,-1795.5904 1027.2812,-1795.5903"/>
</g>
<!-- koop_eten_bij_bakker -->
<g id="node26" class="node">
<title>koop_eten_bij_bakker</title>
<path fill="#008800" stroke="#008800" d="M743.0768,-1021.5C743.0768,-1021.5 859.8854,-1021.5 859.8854,-1021.5 865.8854,-1021.5 871.8854,-1027.5 871.8854,-1033.5 871.8854,-1033.5 871.8854,-1045.5 871.8854,-1045.5 871.8854,-1051.5 865.8854,-1057.5 859.8854,-1057.5 859.8854,-1057.5 743.0768,-1057.5 743.0768,-1057.5 737.0768,-1057.5 731.0768,-1051.5 731.0768,-1045.5 731.0768,-1045.5 731.0768,-1033.5 731.0768,-1033.5 731.0768,-1027.5 737.0768,-1021.5 743.0768,-1021.5"/>
<text text-anchor="middle" x="801.4811" y="-1035.3" font-family="lato, roboto, helvetica" font-size="14.00" fill="#eeeeee">Koop Eten Bij Bakker</text>
</g>
<!-- koop_eten_bij_bakker&#45;&gt;geef_dwerg_eten -->
<g id="edge16" class="edge">
<title>koop_eten_bij_bakker&#45;&gt;geef_dwerg_eten</title>
<path fill="none" stroke="#999999" d="M805.9305,-1021.4551C808.0724,-1012.7686 810.6809,-1002.1898 813.0351,-992.642"/>
<polygon fill="#999999" stroke="#999999" points="815.8237,-993.0281 815.0205,-984.5904 810.3866,-991.6874 815.8237,-993.0281"/>
</g>
<!-- geef_houweel_aan_dwerg -->
<g id="node27" class="node">
<title>geef_houweel_aan_dwerg</title>
<path fill="#008800" stroke="#008800" d="M946.6616,-1532.5C946.6616,-1532.5 1088.3006,-1532.5 1088.3006,-1532.5 1094.3006,-1532.5 1100.3006,-1538.5 1100.3006,-1544.5 1100.3006,-1544.5 1100.3006,-1556.5 1100.3006,-1556.5 1100.3006,-1562.5 1094.3006,-1568.5 1088.3006,-1568.5 1088.3006,-1568.5 946.6616,-1568.5 946.6616,-1568.5 940.6616,-1568.5 934.6616,-1562.5 934.6616,-1556.5 934.6616,-1556.5 934.6616,-1544.5 934.6616,-1544.5 934.6616,-1538.5 940.6616,-1532.5 946.6616,-1532.5"/>
<text text-anchor="middle" x="1017.4811" y="-1546.3" font-family="lato, roboto, helvetica" font-size="14.00" fill="#eeeeee">Geef Houweel Aan Dwerg</text>
</g>
<!-- geef_houweel_aan_dwerg&#45;&gt;krijg_edelsteen_van_dwerg -->
<g id="edge38" class="edge">
<title>geef_houweel_aan_dwerg&#45;&gt;krijg_edelsteen_van_dwerg</title>
<path fill="none" stroke="#999999" d="M999.7265,-1532.4261C976.1579,-1506.4358 937.4811,-1455.9473 937.4811,-1404.5 937.4811,-1404.5 937.4811,-1404.5 937.4811,-1039.5 937.4811,-986.489 889.8442,-941.9012 855.1051,-916.4336"/>
<polygon fill="#999999" stroke="#999999" points="856.4826,-913.9763 848.3471,-911.5981 853.2239,-918.5305 856.4826,-913.9763"/>
</g>
<!-- repareer_houweel -->
<g id="node28" class="node">
<title>repareer_houweel</title>
<path fill="#008800" stroke="#008800" d="M976.2065,-1678.5C976.2065,-1678.5 1072.7557,-1678.5 1072.7557,-1678.5 1078.7557,-1678.5 1084.7557,-1684.5 1084.7557,-1690.5 1084.7557,-1690.5 1084.7557,-1702.5 1084.7557,-1702.5 1084.7557,-1708.5 1078.7557,-1714.5 1072.7557,-1714.5 1072.7557,-1714.5 976.2065,-1714.5 976.2065,-1714.5 970.2065,-1714.5 964.2065,-1708.5 964.2065,-1702.5 964.2065,-1702.5 964.2065,-1690.5 964.2065,-1690.5 964.2065,-1684.5 970.2065,-1678.5 976.2065,-1678.5"/>
<text text-anchor="middle" x="1024.4811" y="-1692.3" font-family="lato, roboto, helvetica" font-size="14.00" fill="#eeeeee">Repareer Houweel</text>
</g>
<!-- repareer_houweel&#45;&gt;geef_houweel_aan_dwerg -->
<g id="edge17" class="edge">
<title>repareer_houweel&#45;&gt;geef_houweel_aan_dwerg</title>
<path fill="none" stroke="#999999" d="M1023.6087,-1678.3042C1022.3878,-1652.8403 1020.1618,-1606.4108 1018.7553,-1577.0759"/>
<polygon fill="#999999" stroke="#999999" points="1021.5445,-1576.7818 1018.3645,-1568.9251 1015.9509,-1577.0501 1021.5445,-1576.7818"/>
</g>
<!-- haal_wagen_bij_molenaar_met_paard -->
<g id="node34" class="node">
<title>haal_wagen_bij_molenaar_met_paard</title>
<path fill="#008800" stroke="#008800" d="M1251.1062,-1532.5C1251.1062,-1532.5 1451.856,-1532.5 1451.856,-1532.5 1457.856,-1532.5 1463.856,-1538.5 1463.856,-1544.5 1463.856,-1544.5 1463.856,-1556.5 1463.856,-1556.5 1463.856,-1562.5 1457.856,-1568.5 1451.856,-1568.5 1451.856,-1568.5 1251.1062,-1568.5 1251.1062,-1568.5 1245.1062,-1568.5 1239.1062,-1562.5 1239.1062,-1556.5 1239.1062,-1556.5 1239.1062,-1544.5 1239.1062,-1544.5 1239.1062,-1538.5 1245.1062,-1532.5 1251.1062,-1532.5"/>
<text text-anchor="middle" x="1351.4811" y="-1546.3" font-family="lato, roboto, helvetica" font-size="14.00" fill="#eeeeee">Haal Wagen Bij Molenaar Met Paard</text>
</g>
<!-- geef_paard_nieuwe_hoefijzers&#45;&gt;haal_wagen_bij_molenaar_met_paard -->
<g id="edge24" class="edge">
<title>geef_paard_nieuwe_hoefijzers&#45;&gt;haal_wagen_bij_molenaar_met_paard</title>
<path fill="none" stroke="#999999" d="M1375.571,-1605.4551C1371.6863,-1596.5932 1366.9383,-1585.7616 1362.6875,-1576.0646"/>
<polygon fill="#999999" stroke="#999999" points="1365.1874,-1574.7932 1359.4111,-1568.5904 1360.0586,-1577.0415 1365.1874,-1574.7932"/>
</g>
<!-- geef_sieraad_aan_heks -->
<g id="node30" class="node">
<title>geef_sieraad_aan_heks</title>
<path fill="#008800" stroke="#008800" d="M834.6006,-729.5C834.6006,-729.5 958.3616,-729.5 958.3616,-729.5 964.3616,-729.5 970.3616,-735.5 970.3616,-741.5 970.3616,-741.5 970.3616,-753.5 970.3616,-753.5 970.3616,-759.5 964.3616,-765.5 958.3616,-765.5 958.3616,-765.5 834.6006,-765.5 834.6006,-765.5 828.6006,-765.5 822.6006,-759.5 822.6006,-753.5 822.6006,-753.5 822.6006,-741.5 822.6006,-741.5 822.6006,-735.5 828.6006,-729.5 834.6006,-729.5"/>
<text text-anchor="middle" x="896.4811" y="-743.3" font-family="lato, roboto, helvetica" font-size="14.00" fill="#eeeeee">Geef Sieraad Aan Heks</text>
</g>
<!-- krijg_ingredientenlijst_van_heks -->
<g id="node44" class="node">
<title>krijg_ingredientenlijst_van_heks</title>
<path fill="#008800" stroke="#008800" d="M808.5368,-583.5C808.5368,-583.5 984.4254,-583.5 984.4254,-583.5 990.4254,-583.5 996.4254,-589.5 996.4254,-595.5 996.4254,-595.5 996.4254,-607.5 996.4254,-607.5 996.4254,-613.5 990.4254,-619.5 984.4254,-619.5 984.4254,-619.5 808.5368,-619.5 808.5368,-619.5 802.5368,-619.5 796.5368,-613.5 796.5368,-607.5 796.5368,-607.5 796.5368,-595.5 796.5368,-595.5 796.5368,-589.5 802.5368,-583.5 808.5368,-583.5"/>
<text text-anchor="middle" x="896.4811" y="-597.3" font-family="lato, roboto, helvetica" font-size="14.00" fill="#eeeeee">Krijg Ingredientenlijst Van Heks</text>
</g>
<!-- geef_sieraad_aan_heks&#45;&gt;krijg_ingredientenlijst_van_heks -->
<g id="edge40" class="edge">
<title>geef_sieraad_aan_heks&#45;&gt;krijg_ingredientenlijst_van_heks</title>
<path fill="none" stroke="#999999" d="M896.4811,-729.3042C896.4811,-703.8403 896.4811,-657.4108 896.4811,-628.0759"/>
<polygon fill="#999999" stroke="#999999" points="899.2812,-627.9251 896.4811,-619.9251 893.6812,-627.9251 899.2812,-627.9251"/>
</g>
<!-- praat_met_heks&#45;&gt;geef_sieraad_aan_heks -->
<g id="edge20" class="edge">
<title>praat_met_heks&#45;&gt;geef_sieraad_aan_heks</title>
<path fill="none" stroke="#999999" d="M964.7601,-875.3042C951.0393,-849.6218 925.9246,-802.6122 910.2777,-773.3243"/>
<polygon fill="#999999" stroke="#999999" points="912.5641,-771.6618 906.3247,-765.9251 907.6248,-774.3007 912.5641,-771.6618"/>
</g>
<!-- maak_sieraad_bij_smid -->
<g id="node32" class="node">
<title>maak_sieraad_bij_smid</title>
<path fill="#008800" stroke="#008800" d="M757.9646,-802.5C757.9646,-802.5 880.9976,-802.5 880.9976,-802.5 886.9976,-802.5 892.9976,-808.5 892.9976,-814.5 892.9976,-814.5 892.9976,-826.5 892.9976,-826.5 892.9976,-832.5 886.9976,-838.5 880.9976,-838.5 880.9976,-838.5 757.9646,-838.5 757.9646,-838.5 751.9646,-838.5 745.9646,-832.5 745.9646,-826.5 745.9646,-826.5 745.9646,-814.5 745.9646,-814.5 745.9646,-808.5 751.9646,-802.5 757.9646,-802.5"/>
<text text-anchor="middle" x="819.4811" y="-816.3" font-family="lato, roboto, helvetica" font-size="14.00" fill="#eeeeee">Maak Sieraad Bij Smid</text>
</g>
<!-- praat_met_heks&#45;&gt;maak_sieraad_bij_smid -->
<g id="edge62" class="edge">
<title>praat_met_heks&#45;&gt;maak_sieraad_bij_smid</title>
<path fill="none" stroke="#999999" d="M936.1665,-875.4551C914.7419,-865.3648 887.8956,-852.721 865.3566,-842.1059"/>
<polygon fill="#999999" stroke="#999999" points="866.3227,-839.4659 857.8921,-838.5904 863.9366,-844.5322 866.3227,-839.4659"/>
</g>
<!-- maak_sieraad_bij_smid&#45;&gt;krijg_geldstuk_van_smid -->
<g id="edge39" class="edge">
<title>maak_sieraad_bij_smid&#45;&gt;krijg_geldstuk_van_smid</title>
<path fill="none" stroke="#999999" d="M779.189,-802.4551C756.5607,-792.3209 728.181,-779.611 704.4155,-768.9675"/>
<polygon fill="#999999" stroke="#999999" points="705.3204,-766.3049 696.8746,-765.5904 703.0314,-771.4157 705.3204,-766.3049"/>
</g>
<!-- maak_sieraad_bij_smid&#45;&gt;geef_sieraad_aan_heks -->
<g id="edge21" class="edge">
<title>maak_sieraad_bij_smid&#45;&gt;geef_sieraad_aan_heks</title>
<path fill="none" stroke="#999999" d="M838.5148,-802.4551C848.4176,-793.0667 860.6521,-781.4678 871.3252,-771.3491"/>
<polygon fill="#999999" stroke="#999999" points="873.5202,-773.1264 877.3995,-765.5904 869.6674,-769.0625 873.5202,-773.1264"/>
</g>
<!-- praat_met_boer&#45;&gt;genoeg_info_over_monster -->
<g id="edge23" class="edge">
<title>praat_met_boer&#45;&gt;genoeg_info_over_monster</title>
<path fill="none" stroke="#999999" d="M1500.9331,-1824.3993C1516.7843,-1797.5636 1543.4811,-1745.1457 1543.4811,-1696.5 1543.4811,-1696.5 1543.4811,-1696.5 1543.4811,-1258.5 1543.4811,-1216.7434 1543.4811,-1168.2692 1543.4811,-1139.0145"/>
<polygon fill="#999999" stroke="#999999" points="1546.2812,-1138.9379 1543.4811,-1130.938 1540.6812,-1138.938 1546.2812,-1138.9379"/>
</g>
<!-- praat_met_boer&#45;&gt;zet_graan_op_wagen -->
<g id="edge100" class="edge">
<title>praat_met_boer&#45;&gt;zet_graan_op_wagen</title>
<path fill="none" stroke="#999999" d="M1492.7963,-1824.1328C1497.4828,-1796.5273 1505.4811,-1742.6531 1505.4811,-1696.5 1505.4811,-1696.5 1505.4811,-1696.5 1505.4811,-1623.5 1505.4811,-1580.2694 1501.8496,-1563.7235 1472.4811,-1532 1459.2652,-1517.7243 1441.6037,-1506.9367 1423.8671,-1498.8894"/>
<polygon fill="#999999" stroke="#999999" points="1424.7281,-1496.2111 1416.2738,-1495.6061 1422.5055,-1501.3512 1424.7281,-1496.2111"/>
</g>
<!-- praat_met_boer&#45;&gt;vind_paard_bij_rivier -->
<g id="edge94" class="edge">
<title>praat_met_boer&#45;&gt;vind_paard_bij_rivier</title>
<path fill="none" stroke="#999999" d="M1467.2339,-1824.4551C1455.4429,-1814.8912 1440.8237,-1803.0334 1428.1865,-1792.7833"/>
<polygon fill="#999999" stroke="#999999" points="1429.7613,-1790.4553 1421.7843,-1787.5904 1426.2336,-1794.8045 1429.7613,-1790.4553"/>
</g>
<!-- haal_wagen_bij_molenaar_met_paard&#45;&gt;zet_graan_op_wagen -->
<g id="edge99" class="edge">
<title>haal_wagen_bij_molenaar_met_paard&#45;&gt;zet_graan_op_wagen</title>
<path fill="none" stroke="#999999" d="M1351.4811,-1532.4551C1351.4811,-1523.7686 1351.4811,-1513.1898 1351.4811,-1503.642"/>
<polygon fill="#999999" stroke="#999999" points="1354.2812,-1503.5903 1351.4811,-1495.5904 1348.6812,-1503.5904 1354.2812,-1503.5903"/>
</g>
<!-- repareer_molen_met_onderbroek -->
<g id="node35" class="node">
<title>repareer_molen_met_onderbroek</title>
<path fill="#008800" stroke="#008800" d="M1080.9947,-1605.5C1080.9947,-1605.5 1259.9675,-1605.5 1259.9675,-1605.5 1265.9675,-1605.5 1271.9675,-1611.5 1271.9675,-1617.5 1271.9675,-1617.5 1271.9675,-1629.5 1271.9675,-1629.5 1271.9675,-1635.5 1265.9675,-1641.5 1259.9675,-1641.5 1259.9675,-1641.5 1080.9947,-1641.5 1080.9947,-1641.5 1074.9947,-1641.5 1068.9947,-1635.5 1068.9947,-1629.5 1068.9947,-1629.5 1068.9947,-1617.5 1068.9947,-1617.5 1068.9947,-1611.5 1074.9947,-1605.5 1080.9947,-1605.5"/>
<text text-anchor="middle" x="1170.4811" y="-1619.3" font-family="lato, roboto, helvetica" font-size="14.00" fill="#eeeeee">Repareer Molen Met Onderbroek</text>
</g>
<!-- repareer_molen_met_onderbroek&#45;&gt;krijg_meel_bij_molenaar -->
<g id="edge43" class="edge">
<title>repareer_molen_met_onderbroek&#45;&gt;krijg_meel_bij_molenaar</title>
<path fill="none" stroke="#999999" d="M1173.7965,-1605.2341C1182.8684,-1555.2529 1208.1269,-1416.0932 1218.7149,-1357.759"/>
<polygon fill="#999999" stroke="#999999" points="1221.4932,-1358.1305 1220.167,-1349.759 1215.9832,-1357.1303 1221.4932,-1358.1305"/>
</g>
<!-- repareer_molen_met_onderbroek&#45;&gt;haal_wagen_bij_molenaar_met_paard -->
<g id="edge25" class="edge">
<title>repareer_molen_met_onderbroek&#45;&gt;haal_wagen_bij_molenaar_met_paard</title>
<path fill="none" stroke="#999999" d="M1215.2227,-1605.4551C1240.5674,-1595.2332 1272.4096,-1582.3907 1298.9377,-1571.6916"/>
<polygon fill="#999999" stroke="#999999" points="1300.2549,-1574.1795 1306.6269,-1568.5904 1298.1603,-1568.986 1300.2549,-1574.1795"/>
</g>
<!-- hijs_lift_met_molensteen -->
<g id="node36" class="node">
<title>hijs_lift_met_molensteen</title>
<path fill="#008800" stroke="#008800" d="M1212.1357,-802.5C1212.1357,-802.5 1346.8265,-802.5 1346.8265,-802.5 1352.8265,-802.5 1358.8265,-808.5 1358.8265,-814.5 1358.8265,-814.5 1358.8265,-826.5 1358.8265,-826.5 1358.8265,-832.5 1352.8265,-838.5 1346.8265,-838.5 1346.8265,-838.5 1212.1357,-838.5 1212.1357,-838.5 1206.1357,-838.5 1200.1357,-832.5 1200.1357,-826.5 1200.1357,-826.5 1200.1357,-814.5 1200.1357,-814.5 1200.1357,-808.5 1206.1357,-802.5 1212.1357,-802.5"/>
<text text-anchor="middle" x="1279.4811" y="-816.3" font-family="lato, roboto, helvetica" font-size="14.00" fill="#eeeeee">Hijs Lift Met Molensteen</text>
</g>
<!-- knoop_touw_aan_molensteen -->
<g id="node38" class="node">
<title>knoop_touw_aan_molensteen</title>
<path fill="#008800" stroke="#008800" d="M1250.5305,-729.5C1250.5305,-729.5 1412.4317,-729.5 1412.4317,-729.5 1418.4317,-729.5 1424.4317,-735.5 1424.4317,-741.5 1424.4317,-741.5 1424.4317,-753.5 1424.4317,-753.5 1424.4317,-759.5 1418.4317,-765.5 1412.4317,-765.5 1412.4317,-765.5 1250.5305,-765.5 1250.5305,-765.5 1244.5305,-765.5 1238.5305,-759.5 1238.5305,-753.5 1238.5305,-753.5 1238.5305,-741.5 1238.5305,-741.5 1238.5305,-735.5 1244.5305,-729.5 1250.5305,-729.5"/>
<text text-anchor="middle" x="1331.4811" y="-743.3" font-family="lato, roboto, helvetica" font-size="14.00" fill="#eeeeee">Knoop Touw Aan Molensteen</text>
</g>
<!-- hijs_lift_met_molensteen&#45;&gt;knoop_touw_aan_molensteen -->
<g id="edge28" class="edge">
<title>hijs_lift_met_molensteen&#45;&gt;knoop_touw_aan_molensteen</title>
<path fill="none" stroke="#999999" d="M1292.335,-802.4551C1298.8351,-793.3299 1306.8228,-782.1165 1313.884,-772.2036"/>
<polygon fill="#999999" stroke="#999999" points="1316.2339,-773.7308 1318.5948,-765.5904 1311.6727,-770.4817 1316.2339,-773.7308"/>
</g>
<!-- snij_touw_van_lift -->
<g id="node70" class="node">
<title>snij_touw_van_lift</title>
<path fill="#008800" stroke="#008800" d="M1220.4618,-656.5C1220.4618,-656.5 1322.5004,-656.5 1322.5004,-656.5 1328.5004,-656.5 1334.5004,-662.5 1334.5004,-668.5 1334.5004,-668.5 1334.5004,-680.5 1334.5004,-680.5 1334.5004,-686.5 1328.5004,-692.5 1322.5004,-692.5 1322.5004,-692.5 1220.4618,-692.5 1220.4618,-692.5 1214.4618,-692.5 1208.4618,-686.5 1208.4618,-680.5 1208.4618,-680.5 1208.4618,-668.5 1208.4618,-668.5 1208.4618,-662.5 1214.4618,-656.5 1220.4618,-656.5"/>
<text text-anchor="middle" x="1271.4811" y="-670.3" font-family="lato, roboto, helvetica" font-size="14.00" fill="#eeeeee">Snij Touw Van Lift</text>
</g>
<!-- hijs_lift_met_molensteen&#45;&gt;snij_touw_van_lift -->
<g id="edge87" class="edge">
<title>hijs_lift_met_molensteen&#45;&gt;snij_touw_van_lift</title>
<path fill="none" stroke="#999999" d="M1256.3484,-802.3724C1246.0294,-792.8023 1234.9769,-780.1199 1229.4811,-766 1223.5164,-750.6754 1224.179,-744.5662 1229.4811,-729 1233.1641,-718.1872 1239.9559,-707.848 1247.02,-699.1373"/>
<polygon fill="#999999" stroke="#999999" points="1249.357,-700.7127 1252.4281,-692.8127 1245.1009,-697.0732 1249.357,-700.7127"/>
</g>
<!-- leg_molensteen_op_lift -->
<g id="node37" class="node">
<title>leg_molensteen_op_lift</title>
<path fill="#008800" stroke="#008800" d="M1215.6399,-875.5C1215.6399,-875.5 1343.3223,-875.5 1343.3223,-875.5 1349.3223,-875.5 1355.3223,-881.5 1355.3223,-887.5 1355.3223,-887.5 1355.3223,-899.5 1355.3223,-899.5 1355.3223,-905.5 1349.3223,-911.5 1343.3223,-911.5 1343.3223,-911.5 1215.6399,-911.5 1215.6399,-911.5 1209.6399,-911.5 1203.6399,-905.5 1203.6399,-899.5 1203.6399,-899.5 1203.6399,-887.5 1203.6399,-887.5 1203.6399,-881.5 1209.6399,-875.5 1215.6399,-875.5"/>
<text text-anchor="middle" x="1279.4811" y="-889.3" font-family="lato, roboto, helvetica" font-size="14.00" fill="#eeeeee">Leg Molensteen Op Lift</text>
</g>
<!-- leg_molensteen_op_lift&#45;&gt;hijs_lift_met_molensteen -->
<g id="edge26" class="edge">
<title>leg_molensteen_op_lift&#45;&gt;hijs_lift_met_molensteen</title>
<path fill="none" stroke="#999999" d="M1279.4811,-875.4551C1279.4811,-866.7686 1279.4811,-856.1898 1279.4811,-846.642"/>
<polygon fill="#999999" stroke="#999999" points="1282.2812,-846.5903 1279.4811,-838.5904 1276.6812,-846.5904 1282.2812,-846.5903"/>
</g>
<!-- knoop_touw_aan_molensteen&#45;&gt;snij_touw_van_lift -->
<g id="edge85" class="edge">
<title>knoop_touw_aan_molensteen&#45;&gt;snij_touw_van_lift</title>
<path fill="none" stroke="#999999" d="M1316.6496,-729.4551C1309.0774,-720.2422 1299.7556,-708.9006 1291.5507,-698.918"/>
<polygon fill="#999999" stroke="#999999" points="1293.5928,-696.9928 1286.3499,-692.5904 1289.2665,-700.5486 1293.5928,-696.9928"/>
</g>
<!-- pak_touw_op_boerderij&#45;&gt;knoop_touw_aan_molensteen -->
<g id="edge27" class="edge">
<title>pak_touw_op_boerderij&#45;&gt;knoop_touw_aan_molensteen</title>
<path fill="none" stroke="#999999" d="M1471.5036,-802.4551C1445.347,-792.1893 1412.4559,-779.2804 1385.1253,-768.5539"/>
<polygon fill="#999999" stroke="#999999" points="1386.0443,-765.9067 1377.5743,-765.5904 1383.9984,-771.1196 1386.0443,-765.9067"/>
</g>
<!-- knoop_touw_aan_tand -->
<g id="node40" class="node">
<title>knoop_touw_aan_tand</title>
<path fill="#008800" stroke="#008800" d="M1454.804,-729.5C1454.804,-729.5 1580.1582,-729.5 1580.1582,-729.5 1586.1582,-729.5 1592.1582,-735.5 1592.1582,-741.5 1592.1582,-741.5 1592.1582,-753.5 1592.1582,-753.5 1592.1582,-759.5 1586.1582,-765.5 1580.1582,-765.5 1580.1582,-765.5 1454.804,-765.5 1454.804,-765.5 1448.804,-765.5 1442.804,-759.5 1442.804,-753.5 1442.804,-753.5 1442.804,-741.5 1442.804,-741.5 1442.804,-735.5 1448.804,-729.5 1454.804,-729.5"/>
<text text-anchor="middle" x="1517.4811" y="-743.3" font-family="lato, roboto, helvetica" font-size="14.00" fill="#eeeeee">Knoop Touw Aan Tand</text>
</g>
<!-- pak_touw_op_boerderij&#45;&gt;knoop_touw_aan_tand -->
<g id="edge29" class="edge">
<title>pak_touw_op_boerderij&#45;&gt;knoop_touw_aan_tand</title>
<path fill="none" stroke="#999999" d="M1517.4811,-802.4551C1517.4811,-793.7686 1517.4811,-783.1898 1517.4811,-773.642"/>
<polygon fill="#999999" stroke="#999999" points="1520.2812,-773.5903 1517.4811,-765.5904 1514.6812,-773.5904 1520.2812,-773.5903"/>
</g>
<!-- knoop_touw_aan_tand&#45;&gt;snij_touw_van_lift -->
<g id="edge86" class="edge">
<title>knoop_touw_aan_tand&#45;&gt;snij_touw_van_lift</title>
<path fill="none" stroke="#999999" d="M1456.6721,-729.4551C1421.3387,-718.9699 1376.7138,-705.7276 1340.123,-694.8694"/>
<polygon fill="#999999" stroke="#999999" points="1340.9092,-692.182 1332.4431,-692.5904 1339.316,-697.5506 1340.9092,-692.182"/>
</g>
<!-- _1&#45;&gt;koop_eten_bij_bakker -->
<g id="edge30" class="edge">
<title>_1&#45;&gt;koop_eten_bij_bakker</title>
<path fill="none" stroke="#999999" d="M801.4811,-1094.4551C801.4811,-1085.7686 801.4811,-1075.1898 801.4811,-1065.642"/>
<polygon fill="#999999" stroke="#999999" points="804.2812,-1065.5903 801.4811,-1057.5904 798.6812,-1065.5904 804.2812,-1065.5903"/>
</g>
<!-- krijg_100_geld_van_meel&#45;&gt;koop_zwaard_voor_99_bij_wapensmid -->
<g id="edge33" class="edge">
<title>krijg_100_geld_van_meel&#45;&gt;koop_zwaard_voor_99_bij_wapensmid</title>
<path fill="none" stroke="#999999" d="M1258.6272,-1167.4551C1263.1633,-1158.5054 1268.7176,-1147.547 1273.6695,-1137.7769"/>
<polygon fill="#999999" stroke="#999999" points="1276.1927,-1138.992 1277.312,-1130.5904 1271.1977,-1136.4602 1276.1927,-1138.992"/>
</g>
<!-- krijg_100_geld_van_meel&#45;&gt;_1 -->
<g id="edge32" class="edge">
<title>krijg_100_geld_van_meel&#45;&gt;_1</title>
<path fill="none" stroke="#999999" stroke-dasharray="5,2" d="M1169.3877,-1172.4491C1069.2619,-1156.1339 902.6127,-1128.979 833.2687,-1117.6797"/>
<polygon fill="#999999" stroke="#999999" points="833.6517,-1114.9052 825.3055,-1116.3821 832.751,-1120.4323 833.6517,-1114.9052"/>
</g>
<!-- krijg_edelsteen_van_dwerg&#45;&gt;maak_sieraad_bij_smid -->
<g id="edge60" class="edge">
<title>krijg_edelsteen_van_dwerg&#45;&gt;maak_sieraad_bij_smid</title>
<path fill="none" stroke="#999999" d="M819.4811,-875.4551C819.4811,-866.7686 819.4811,-856.1898 819.4811,-846.642"/>
<polygon fill="#999999" stroke="#999999" points="822.2812,-846.5903 819.4811,-838.5904 816.6812,-846.5904 822.2812,-846.5903"/>
</g>
<!-- krijg_ingredientenlijst_van_heks&#45;&gt;pak_tand_van_draak -->
<g id="edge67" class="edge">
<title>krijg_ingredientenlijst_van_heks&#45;&gt;pak_tand_van_draak</title>
<path fill="none" stroke="#999999" d="M936.2789,-583.4551C958.6295,-573.3209 986.6609,-560.611 1010.1349,-549.9675"/>
<polygon fill="#999999" stroke="#999999" points="1011.4534,-552.4441 1017.5832,-546.5904 1009.1409,-547.3439 1011.4534,-552.4441"/>
</g>
<!-- pluk_kruiden_in_moeras -->
<g id="node53" class="node">
<title>pluk_kruiden_in_moeras</title>
<path fill="#008800" stroke="#008800" d="M832.6385,-510.5C832.6385,-510.5 960.3237,-510.5 960.3237,-510.5 966.3237,-510.5 972.3237,-516.5 972.3237,-522.5 972.3237,-522.5 972.3237,-534.5 972.3237,-534.5 972.3237,-540.5 966.3237,-546.5 960.3237,-546.5 960.3237,-546.5 832.6385,-546.5 832.6385,-546.5 826.6385,-546.5 820.6385,-540.5 820.6385,-534.5 820.6385,-534.5 820.6385,-522.5 820.6385,-522.5 820.6385,-516.5 826.6385,-510.5 832.6385,-510.5"/>
<text text-anchor="middle" x="896.4811" y="-524.3" font-family="lato, roboto, helvetica" font-size="14.00" fill="#eeeeee">Pluk Kruiden In Moeras</text>
</g>
<!-- krijg_ingredientenlijst_van_heks&#45;&gt;pluk_kruiden_in_moeras -->
<g id="edge71" class="edge">
<title>krijg_ingredientenlijst_van_heks&#45;&gt;pluk_kruiden_in_moeras</title>
<path fill="none" stroke="#999999" d="M896.4811,-583.4551C896.4811,-574.7686 896.4811,-564.1898 896.4811,-554.642"/>
<polygon fill="#999999" stroke="#999999" points="899.2812,-554.5903 896.4811,-546.5904 893.6812,-554.5904 899.2812,-554.5903"/>
</g>
<!-- pluk_paddenstoelen_in_woud -->
<g id="node54" class="node">
<title>pluk_paddenstoelen_in_woud</title>
<path fill="#008800" stroke="#008800" d="M636.0235,-510.5C636.0235,-510.5 790.9387,-510.5 790.9387,-510.5 796.9387,-510.5 802.9387,-516.5 802.9387,-522.5 802.9387,-522.5 802.9387,-534.5 802.9387,-534.5 802.9387,-540.5 796.9387,-546.5 790.9387,-546.5 790.9387,-546.5 636.0235,-546.5 636.0235,-546.5 630.0235,-546.5 624.0235,-540.5 624.0235,-534.5 624.0235,-534.5 624.0235,-522.5 624.0235,-522.5 624.0235,-516.5 630.0235,-510.5 636.0235,-510.5"/>
<text text-anchor="middle" x="713.4811" y="-524.3" font-family="lato, roboto, helvetica" font-size="14.00" fill="#eeeeee">Pluk Paddenstoelen In Woud</text>
</g>
<!-- krijg_ingredientenlijst_van_heks&#45;&gt;pluk_paddenstoelen_in_woud -->
<g id="edge72" class="edge">
<title>krijg_ingredientenlijst_van_heks&#45;&gt;pluk_paddenstoelen_in_woud</title>
<path fill="none" stroke="#999999" d="M851.2451,-583.4551C825.6204,-573.2332 793.4264,-560.3907 766.6051,-549.6916"/>
<polygon fill="#999999" stroke="#999999" points="767.299,-546.9538 758.8309,-546.5904 765.2241,-552.1553 767.299,-546.9538"/>
</g>
<!-- krijg_kapotte_houweel_van_dwerg&#45;&gt;repareer_houweel -->
<g id="edge81" class="edge">
<title>krijg_kapotte_houweel_van_dwerg&#45;&gt;repareer_houweel</title>
<path fill="none" stroke="#999999" d="M1024.4811,-1751.4551C1024.4811,-1742.7686 1024.4811,-1732.1898 1024.4811,-1722.642"/>
<polygon fill="#999999" stroke="#999999" points="1027.2812,-1722.5903 1024.4811,-1714.5904 1021.6812,-1722.5904 1027.2812,-1722.5903"/>
</g>
<!-- krijg_plant_hint_van_bakker -->
<g id="node46" class="node">
<title>krijg_plant_hint_van_bakker</title>
<path fill="#008800" stroke="#008800" d="M12,-1094.5C12,-1094.5 164.9622,-1094.5 164.9622,-1094.5 170.9622,-1094.5 176.9622,-1100.5 176.9622,-1106.5 176.9622,-1106.5 176.9622,-1118.5 176.9622,-1118.5 176.9622,-1124.5 170.9622,-1130.5 164.9622,-1130.5 164.9622,-1130.5 12,-1130.5 12,-1130.5 6,-1130.5 0,-1124.5 0,-1118.5 0,-1118.5 0,-1106.5 0,-1106.5 0,-1100.5 6,-1094.5 12,-1094.5"/>
<text text-anchor="middle" x="88.4811" y="-1108.3" font-family="lato, roboto, helvetica" font-size="14.00" fill="#eeeeee">Krijg Plant Hint Van Bakker</text>
</g>
<!-- vind_maansteen_in_moeras -->
<g id="node73" class="node">
<title>vind_maansteen_in_moeras</title>
<path fill="#008800" stroke="#008800" d="M100.0936,-1021.5C100.0936,-1021.5 244.8686,-1021.5 244.8686,-1021.5 250.8686,-1021.5 256.8686,-1027.5 256.8686,-1033.5 256.8686,-1033.5 256.8686,-1045.5 256.8686,-1045.5 256.8686,-1051.5 250.8686,-1057.5 244.8686,-1057.5 244.8686,-1057.5 100.0936,-1057.5 100.0936,-1057.5 94.0936,-1057.5 88.0936,-1051.5 88.0936,-1045.5 88.0936,-1045.5 88.0936,-1033.5 88.0936,-1033.5 88.0936,-1027.5 94.0936,-1021.5 100.0936,-1021.5"/>
<text text-anchor="middle" x="172.4811" y="-1035.3" font-family="lato, roboto, helvetica" font-size="14.00" fill="#eeeeee">Vind Maansteen In Moeras</text>
</g>
<!-- krijg_plant_hint_van_bakker&#45;&gt;vind_maansteen_in_moeras -->
<g id="edge92" class="edge">
<title>krijg_plant_hint_van_bakker&#45;&gt;vind_maansteen_in_moeras</title>
<path fill="none" stroke="#999999" d="M109.2452,-1094.4551C120.1491,-1084.979 133.6446,-1073.2508 145.3643,-1063.0658"/>
<polygon fill="#999999" stroke="#999999" points="147.4631,-1064.9515 151.6648,-1057.5904 143.7897,-1060.7246 147.4631,-1064.9515"/>
</g>
<!-- krijg_schat_onderwerp -->
<g id="node47" class="node">
<title>krijg_schat_onderwerp</title>
<path fill="#008800" stroke="#008800" d="M244.1739,-1167.5C244.1739,-1167.5 366.7883,-1167.5 366.7883,-1167.5 372.7883,-1167.5 378.7883,-1173.5 378.7883,-1179.5 378.7883,-1179.5 378.7883,-1191.5 378.7883,-1191.5 378.7883,-1197.5 372.7883,-1203.5 366.7883,-1203.5 366.7883,-1203.5 244.1739,-1203.5 244.1739,-1203.5 238.1739,-1203.5 232.1739,-1197.5 232.1739,-1191.5 232.1739,-1191.5 232.1739,-1179.5 232.1739,-1179.5 232.1739,-1173.5 238.1739,-1167.5 244.1739,-1167.5"/>
<text text-anchor="middle" x="305.4811" y="-1181.3" font-family="lato, roboto, helvetica" font-size="14.00" fill="#eeeeee">Krijg Schat Onderwerp</text>
</g>
<!-- krijg_schat_onderwerp&#45;&gt;krijg_plant_hint_van_bakker -->
<g id="edge44" class="edge">
<title>krijg_schat_onderwerp&#45;&gt;krijg_plant_hint_van_bakker</title>
<path fill="none" stroke="#999999" d="M251.8406,-1167.4551C220.9334,-1157.0577 181.9665,-1143.949 149.8429,-1133.1424"/>
<polygon fill="#999999" stroke="#999999" points="150.7318,-1130.4873 142.2566,-1130.5904 148.9462,-1135.7951 150.7318,-1130.4873"/>
</g>
<!-- krijg_rivier_hint_van_molenaar -->
<g id="node48" class="node">
<title>krijg_rivier_hint_van_molenaar</title>
<path fill="#008800" stroke="#008800" d="M207.2861,-1094.5C207.2861,-1094.5 379.6761,-1094.5 379.6761,-1094.5 385.6761,-1094.5 391.6761,-1100.5 391.6761,-1106.5 391.6761,-1106.5 391.6761,-1118.5 391.6761,-1118.5 391.6761,-1124.5 385.6761,-1130.5 379.6761,-1130.5 379.6761,-1130.5 207.2861,-1130.5 207.2861,-1130.5 201.2861,-1130.5 195.2861,-1124.5 195.2861,-1118.5 195.2861,-1118.5 195.2861,-1106.5 195.2861,-1106.5 195.2861,-1100.5 201.2861,-1094.5 207.2861,-1094.5"/>
<text text-anchor="middle" x="293.4811" y="-1108.3" font-family="lato, roboto, helvetica" font-size="14.00" fill="#eeeeee">Krijg Rivier Hint Van Molenaar</text>
</g>
<!-- krijg_schat_onderwerp&#45;&gt;krijg_rivier_hint_van_molenaar -->
<g id="edge45" class="edge">
<title>krijg_schat_onderwerp&#45;&gt;krijg_rivier_hint_van_molenaar</title>
<path fill="none" stroke="#999999" d="M302.5148,-1167.4551C301.0869,-1158.7686 299.3479,-1148.1898 297.7784,-1138.642"/>
<polygon fill="#999999" stroke="#999999" points="300.5155,-1138.0302 296.4549,-1130.5904 294.9897,-1138.9386 300.5155,-1138.0302"/>
</g>
<!-- krijg_route_hint_van_boer -->
<g id="node49" class="node">
<title>krijg_route_hint_van_boer</title>
<path fill="#008800" stroke="#008800" d="M421.2756,-1094.5C421.2756,-1094.5 565.6866,-1094.5 565.6866,-1094.5 571.6866,-1094.5 577.6866,-1100.5 577.6866,-1106.5 577.6866,-1106.5 577.6866,-1118.5 577.6866,-1118.5 577.6866,-1124.5 571.6866,-1130.5 565.6866,-1130.5 565.6866,-1130.5 421.2756,-1130.5 421.2756,-1130.5 415.2756,-1130.5 409.2756,-1124.5 409.2756,-1118.5 409.2756,-1118.5 409.2756,-1106.5 409.2756,-1106.5 409.2756,-1100.5 415.2756,-1094.5 421.2756,-1094.5"/>
<text text-anchor="middle" x="493.4811" y="-1108.3" font-family="lato, roboto, helvetica" font-size="14.00" fill="#eeeeee">Krijg Route Hint Van Boer</text>
</g>
<!-- krijg_schat_onderwerp&#45;&gt;krijg_route_hint_van_boer -->
<g id="edge46" class="edge">
<title>krijg_schat_onderwerp&#45;&gt;krijg_route_hint_van_boer</title>
<path fill="none" stroke="#999999" d="M351.953,-1167.4551C378.3909,-1157.1893 411.6356,-1144.2804 439.2601,-1133.5539"/>
<polygon fill="#999999" stroke="#999999" points="440.4482,-1136.0963 446.8922,-1130.5904 438.4212,-1130.876 440.4482,-1136.0963"/>
</g>
<!-- schat_route_compleet -->
<g id="node69" class="node">
<title>schat_route_compleet</title>
<path fill="#008800" stroke="#008800" d="M370.4902,-1021.5C370.4902,-1021.5 488.472,-1021.5 488.472,-1021.5 494.472,-1021.5 500.472,-1027.5 500.472,-1033.5 500.472,-1033.5 500.472,-1045.5 500.472,-1045.5 500.472,-1051.5 494.472,-1057.5 488.472,-1057.5 488.472,-1057.5 370.4902,-1057.5 370.4902,-1057.5 364.4902,-1057.5 358.4902,-1051.5 358.4902,-1045.5 358.4902,-1045.5 358.4902,-1033.5 358.4902,-1033.5 358.4902,-1027.5 364.4902,-1021.5 370.4902,-1021.5"/>
<text text-anchor="middle" x="429.4811" y="-1035.3" font-family="lato, roboto, helvetica" font-size="14.00" fill="#eeeeee">Schat Route Compleet</text>
</g>
<!-- krijg_rivier_hint_van_molenaar&#45;&gt;schat_route_compleet -->
<g id="edge83" class="edge">
<title>krijg_rivier_hint_van_molenaar&#45;&gt;schat_route_compleet</title>
<path fill="none" stroke="#999999" d="M327.0991,-1094.4551C345.7339,-1084.4525 369.0436,-1071.9407 388.7123,-1061.3833"/>
<polygon fill="#999999" stroke="#999999" points="390.054,-1063.841 395.7785,-1057.5904 387.4055,-1058.9069 390.054,-1063.841"/>
</g>
<!-- krijg_route_hint_van_boer&#45;&gt;schat_route_compleet -->
<g id="edge84" class="edge">
<title>krijg_route_hint_van_boer&#45;&gt;schat_route_compleet</title>
<path fill="none" stroke="#999999" d="M477.6609,-1094.4551C469.5069,-1085.1545 459.451,-1073.6844 450.639,-1063.6332"/>
<polygon fill="#999999" stroke="#999999" points="452.7205,-1061.76 445.3411,-1057.5904 448.5096,-1065.4518 452.7205,-1061.76"/>
</g>
<!-- praat_met_smidsen&#45;&gt;krijg_schat_onderwerp -->
<g id="edge47" class="edge">
<title>praat_met_smidsen&#45;&gt;krijg_schat_onderwerp</title>
<path fill="none" stroke="#999999" d="M413.2873,-1459.2341C393.5626,-1409.1505 338.5721,-1269.5225 315.682,-1211.4014"/>
<polygon fill="#999999" stroke="#999999" points="318.209,-1210.1765 312.6721,-1203.759 312.9985,-1212.2286 318.209,-1210.1765"/>
</g>
<!-- krijg_toegang_tot_hut -->
<g id="node51" class="node">
<title>krijg_toegang_tot_hut</title>
<path fill="#008800" stroke="#008800" d="M835.7458,-437.5C835.7458,-437.5 957.2164,-437.5 957.2164,-437.5 963.2164,-437.5 969.2164,-443.5 969.2164,-449.5 969.2164,-449.5 969.2164,-461.5 969.2164,-461.5 969.2164,-467.5 963.2164,-473.5 957.2164,-473.5 957.2164,-473.5 835.7458,-473.5 835.7458,-473.5 829.7458,-473.5 823.7458,-467.5 823.7458,-461.5 823.7458,-461.5 823.7458,-449.5 823.7458,-449.5 823.7458,-443.5 829.7458,-437.5 835.7458,-437.5"/>
<text text-anchor="middle" x="896.4811" y="-451.3" font-family="lato, roboto, helvetica" font-size="14.00" fill="#eeeeee">Krijg Toegang Tot Hut</text>
</g>
<!-- maak_drank_om_heks_bij_te_brengen -->
<g id="node57" class="node">
<title>maak_drank_om_heks_bij_te_brengen</title>
<path fill="#008800" stroke="#008800" d="M978.0161,-145.5C978.0161,-145.5 1186.9461,-145.5 1186.9461,-145.5 1192.9461,-145.5 1198.9461,-151.5 1198.9461,-157.5 1198.9461,-157.5 1198.9461,-169.5 1198.9461,-169.5 1198.9461,-175.5 1192.9461,-181.5 1186.9461,-181.5 1186.9461,-181.5 978.0161,-181.5 978.0161,-181.5 972.0161,-181.5 966.0161,-175.5 966.0161,-169.5 966.0161,-169.5 966.0161,-157.5 966.0161,-157.5 966.0161,-151.5 972.0161,-145.5 978.0161,-145.5"/>
<text text-anchor="middle" x="1082.4811" y="-159.3" font-family="lato, roboto, helvetica" font-size="14.00" fill="#eeeeee">Maak Drank Om Heks Bij Te Brengen</text>
</g>
<!-- krijg_toegang_tot_hut&#45;&gt;maak_drank_om_heks_bij_te_brengen -->
<g id="edge53" class="edge">
<title>krijg_toegang_tot_hut&#45;&gt;maak_drank_om_heks_bij_te_brengen</title>
<path fill="none" stroke="#999999" d="M966.7208,-437.45C1000.3477,-427.3841 1035.6385,-414.235 1046.4811,-401 1096.9681,-339.3735 1092.153,-237.4722 1086.4573,-189.7188"/>
<polygon fill="#999999" stroke="#999999" points="1089.227,-189.3029 1085.4336,-181.7233 1083.6723,-190.0141 1089.227,-189.3029"/>
</g>
<!-- maak_drank_om_met_draak_te_praten -->
<g id="node59" class="node">
<title>maak_drank_om_met_draak_te_praten</title>
<path fill="#008800" stroke="#008800" d="M604.4165,-291.5C604.4165,-291.5 812.5457,-291.5 812.5457,-291.5 818.5457,-291.5 824.5457,-297.5 824.5457,-303.5 824.5457,-303.5 824.5457,-315.5 824.5457,-315.5 824.5457,-321.5 818.5457,-327.5 812.5457,-327.5 812.5457,-327.5 604.4165,-327.5 604.4165,-327.5 598.4165,-327.5 592.4165,-321.5 592.4165,-315.5 592.4165,-315.5 592.4165,-303.5 592.4165,-303.5 592.4165,-297.5 598.4165,-291.5 604.4165,-291.5"/>
<text text-anchor="middle" x="708.4811" y="-305.3" font-family="lato, roboto, helvetica" font-size="14.00" fill="#eeeeee">Maak Drank Om Met Draak Te Praten</text>
</g>
<!-- krijg_toegang_tot_hut&#45;&gt;maak_drank_om_met_draak_te_praten -->
<g id="edge56" class="edge">
<title>krijg_toegang_tot_hut&#45;&gt;maak_drank_om_met_draak_te_praten</title>
<path fill="none" stroke="#999999" d="M873.0509,-437.3042C839.0433,-410.8941 775.9951,-361.9311 738.5848,-332.8784"/>
<polygon fill="#999999" stroke="#999999" points="739.9464,-330.3907 731.9106,-327.6952 736.5116,-334.8136 739.9464,-330.3907"/>
</g>
<!-- pak_mos_in_bos -->
<g id="node61" class="node">
<title>pak_mos_in_bos</title>
<path fill="#008800" stroke="#008800" d="M675.567,-364.5C675.567,-364.5 757.3952,-364.5 757.3952,-364.5 763.3952,-364.5 769.3952,-370.5 769.3952,-376.5 769.3952,-376.5 769.3952,-388.5 769.3952,-388.5 769.3952,-394.5 763.3952,-400.5 757.3952,-400.5 757.3952,-400.5 675.567,-400.5 675.567,-400.5 669.567,-400.5 663.567,-394.5 663.567,-388.5 663.567,-388.5 663.567,-376.5 663.567,-376.5 663.567,-370.5 669.567,-364.5 675.567,-364.5"/>
<text text-anchor="middle" x="716.4811" y="-378.3" font-family="lato, roboto, helvetica" font-size="14.00" fill="#eeeeee">Pak Mos In Bos</text>
</g>
<!-- krijg_toegang_tot_hut&#45;&gt;pak_mos_in_bos -->
<g id="edge65" class="edge">
<title>krijg_toegang_tot_hut&#45;&gt;pak_mos_in_bos</title>
<path fill="none" stroke="#999999" d="M851.9867,-437.4551C826.7821,-427.2332 795.1158,-414.3907 768.7342,-403.6916"/>
<polygon fill="#999999" stroke="#999999" points="769.5533,-401.0023 761.0875,-400.5904 767.4487,-406.1918 769.5533,-401.0023"/>
</g>
<!-- pak_beker -->
<g id="node65" class="node">
<title>pak_beker</title>
<path fill="#008800" stroke="#008800" d="M975.5193,-364.5C975.5193,-364.5 1025.4429,-364.5 1025.4429,-364.5 1031.4429,-364.5 1037.4429,-370.5 1037.4429,-376.5 1037.4429,-376.5 1037.4429,-388.5 1037.4429,-388.5 1037.4429,-394.5 1031.4429,-400.5 1025.4429,-400.5 1025.4429,-400.5 975.5193,-400.5 975.5193,-400.5 969.5193,-400.5 963.5193,-394.5 963.5193,-388.5 963.5193,-388.5 963.5193,-376.5 963.5193,-376.5 963.5193,-370.5 969.5193,-364.5 975.5193,-364.5"/>
<text text-anchor="middle" x="1000.4811" y="-378.3" font-family="lato, roboto, helvetica" font-size="14.00" fill="#eeeeee">Pak Beker</text>
</g>
<!-- krijg_toegang_tot_hut&#45;&gt;pak_beker -->
<g id="edge63" class="edge">
<title>krijg_toegang_tot_hut&#45;&gt;pak_beker</title>
<path fill="none" stroke="#999999" d="M922.189,-437.4551C936.0641,-427.7157 953.3285,-415.5975 968.1119,-405.2207"/>
<polygon fill="#999999" stroke="#999999" points="969.7692,-407.4783 974.7085,-400.5904 966.5519,-402.8948 969.7692,-407.4783"/>
</g>
<!-- oplos_drankje -->
<g id="node71" class="node">
<title>oplos_drankje</title>
<path fill="#008800" stroke="#008800" d="M859.4667,-364.5C859.4667,-364.5 933.4955,-364.5 933.4955,-364.5 939.4955,-364.5 945.4955,-370.5 945.4955,-376.5 945.4955,-376.5 945.4955,-388.5 945.4955,-388.5 945.4955,-394.5 939.4955,-400.5 933.4955,-400.5 933.4955,-400.5 859.4667,-400.5 859.4667,-400.5 853.4667,-400.5 847.4667,-394.5 847.4667,-388.5 847.4667,-388.5 847.4667,-376.5 847.4667,-376.5 847.4667,-370.5 853.4667,-364.5 859.4667,-364.5"/>
<text text-anchor="middle" x="896.4811" y="-378.3" font-family="lato, roboto, helvetica" font-size="14.00" fill="#eeeeee">Oplos Drankje</text>
</g>
<!-- krijg_toegang_tot_hut&#45;&gt;oplos_drankje -->
<g id="edge88" class="edge">
<title>krijg_toegang_tot_hut&#45;&gt;oplos_drankje</title>
<path fill="none" stroke="#999999" d="M896.4811,-437.4551C896.4811,-428.7686 896.4811,-418.1898 896.4811,-408.642"/>
<polygon fill="#999999" stroke="#999999" points="899.2812,-408.5903 896.4811,-400.5904 893.6812,-408.5904 899.2812,-408.5903"/>
</g>
<!-- pak_tand_van_draak&#45;&gt;krijg_toegang_tot_hut -->
<g id="edge48" class="edge">
<title>pak_tand_van_draak&#45;&gt;krijg_toegang_tot_hut</title>
<path fill="none" stroke="#999999" d="M1017.6833,-510.4551C995.3327,-500.3209 967.3013,-487.611 943.8273,-476.9675"/>
<polygon fill="#999999" stroke="#999999" points="944.8213,-474.3439 936.379,-473.5904 942.5088,-479.4441 944.8213,-474.3439"/>
</g>
<!-- pluk_kruiden_in_moeras&#45;&gt;krijg_toegang_tot_hut -->
<g id="edge49" class="edge">
<title>pluk_kruiden_in_moeras&#45;&gt;krijg_toegang_tot_hut</title>
<path fill="none" stroke="#999999" d="M896.4811,-510.4551C896.4811,-501.7686 896.4811,-491.1898 896.4811,-481.642"/>
<polygon fill="#999999" stroke="#999999" points="899.2812,-481.5903 896.4811,-473.5904 893.6812,-481.5904 899.2812,-481.5903"/>
</g>
<!-- pluk_paddenstoelen_in_woud&#45;&gt;krijg_toegang_tot_hut -->
<g id="edge50" class="edge">
<title>pluk_paddenstoelen_in_woud&#45;&gt;krijg_toegang_tot_hut</title>
<path fill="none" stroke="#999999" d="M758.7171,-510.4551C784.3418,-500.2332 816.5358,-487.3907 843.3571,-476.6916"/>
<polygon fill="#999999" stroke="#999999" points="844.7381,-479.1553 851.1313,-473.5904 842.6632,-473.9538 844.7381,-479.1553"/>
</g>
<!-- zet_molensteen_op_wagen&#45;&gt;leg_molensteen_op_lift -->
<g id="edge51" class="edge">
<title>zet_molensteen_op_wagen&#45;&gt;leg_molensteen_op_lift</title>
<path fill="none" stroke="#999999" d="M1175.5935,-948.4551C1194.5024,-938.4525 1218.1548,-925.9407 1238.1128,-915.3833"/>
<polygon fill="#999999" stroke="#999999" points="1239.5206,-917.8062 1245.2829,-911.5904 1236.902,-912.8561 1239.5206,-917.8062"/>
</g>
<!-- praat_met_dochter_van_bakker&#45;&gt;leg_molensteen_op_lift -->
<g id="edge52" class="edge">
<title>praat_met_dochter_van_bakker&#45;&gt;leg_molensteen_op_lift</title>
<path fill="none" stroke="#999999" d="M1323.8968,-948.4551C1316.4508,-939.2422 1307.2843,-927.9006 1299.2162,-917.918"/>
<polygon fill="#999999" stroke="#999999" points="1301.3085,-916.0523 1294.1021,-911.5904 1296.9531,-919.5724 1301.3085,-916.0523"/>
</g>
<!-- maak_drank_om_heks_bij_te_brengen&#45;&gt;maak_medicijn -->
<g id="edge58" class="edge">
<title>maak_drank_om_heks_bij_te_brengen&#45;&gt;maak_medicijn</title>
<path fill="none" stroke="#999999" d="M1078.0317,-145.4551C1075.8898,-136.7686 1073.2813,-126.1898 1070.9271,-116.642"/>
<polygon fill="#999999" stroke="#999999" points="1073.5756,-115.6874 1068.9417,-108.5904 1068.1385,-117.0281 1073.5756,-115.6874"/>
</g>
<!-- pak_wijn_uit_kelder -->
<g id="node58" class="node">
<title>pak_wijn_uit_kelder</title>
<path fill="#008800" stroke="#008800" d="M934.7472,-218.5C934.7472,-218.5 1042.215,-218.5 1042.215,-218.5 1048.215,-218.5 1054.215,-224.5 1054.215,-230.5 1054.215,-230.5 1054.215,-242.5 1054.215,-242.5 1054.215,-248.5 1048.215,-254.5 1042.215,-254.5 1042.215,-254.5 934.7472,-254.5 934.7472,-254.5 928.7472,-254.5 922.7472,-248.5 922.7472,-242.5 922.7472,-242.5 922.7472,-230.5 922.7472,-230.5 922.7472,-224.5 928.7472,-218.5 934.7472,-218.5"/>
<text text-anchor="middle" x="988.4811" y="-232.3" font-family="lato, roboto, helvetica" font-size="14.00" fill="#eeeeee">Pak Wijn Uit Kelder</text>
</g>
<!-- pak_wijn_uit_kelder&#45;&gt;maak_drank_om_heks_bij_te_brengen -->
<g id="edge54" class="edge">
<title>pak_wijn_uit_kelder&#45;&gt;maak_drank_om_heks_bij_te_brengen</title>
<path fill="none" stroke="#999999" d="M1011.7171,-218.4551C1024.1451,-208.8035 1039.5815,-196.8156 1052.8626,-186.5016"/>
<polygon fill="#999999" stroke="#999999" points="1054.5856,-188.7087 1059.1867,-181.5904 1051.1508,-184.2858 1054.5856,-188.7087"/>
</g>
<!-- praat_met_draak -->
<g id="node63" class="node">
<title>praat_met_draak</title>
<path fill="#008800" stroke="#008800" d="M668.2265,-218.5C668.2265,-218.5 752.7357,-218.5 752.7357,-218.5 758.7357,-218.5 764.7357,-224.5 764.7357,-230.5 764.7357,-230.5 764.7357,-242.5 764.7357,-242.5 764.7357,-248.5 758.7357,-254.5 752.7357,-254.5 752.7357,-254.5 668.2265,-254.5 668.2265,-254.5 662.2265,-254.5 656.2265,-248.5 656.2265,-242.5 656.2265,-242.5 656.2265,-230.5 656.2265,-230.5 656.2265,-224.5 662.2265,-218.5 668.2265,-218.5"/>
<text text-anchor="middle" x="710.4811" y="-232.3" font-family="lato, roboto, helvetica" font-size="14.00" fill="#eeeeee">Praat Met Draak</text>
</g>
<!-- maak_drank_om_met_draak_te_praten&#45;&gt;praat_met_draak -->
<g id="edge76" class="edge">
<title>maak_drank_om_met_draak_te_praten&#45;&gt;praat_met_draak</title>
<path fill="none" stroke="#999999" d="M708.9755,-291.4551C709.2135,-282.7686 709.5033,-272.1898 709.7649,-262.642"/>
<polygon fill="#999999" stroke="#999999" points="712.5652,-262.6641 709.9855,-254.5904 706.9673,-262.5106 712.5652,-262.6641"/>
</g>
<!-- vind_runesteen_in_bos -->
<g id="node60" class="node">
<title>vind_runesteen_in_bos</title>
<path fill="#008800" stroke="#008800" d="M419.3538,-656.5C419.3538,-656.5 541.6084,-656.5 541.6084,-656.5 547.6084,-656.5 553.6084,-662.5 553.6084,-668.5 553.6084,-668.5 553.6084,-680.5 553.6084,-680.5 553.6084,-686.5 547.6084,-692.5 541.6084,-692.5 541.6084,-692.5 419.3538,-692.5 419.3538,-692.5 413.3538,-692.5 407.3538,-686.5 407.3538,-680.5 407.3538,-680.5 407.3538,-668.5 407.3538,-668.5 407.3538,-662.5 413.3538,-656.5 419.3538,-656.5"/>
<text text-anchor="middle" x="480.4811" y="-670.3" font-family="lato, roboto, helvetica" font-size="14.00" fill="#eeeeee">Vind Runesteen In Bos</text>
</g>
<!-- vind_runesteen_in_bos&#45;&gt;maak_drank_om_met_draak_te_praten -->
<g id="edge55" class="edge">
<title>vind_runesteen_in_bos&#45;&gt;maak_drank_om_met_draak_te_praten</title>
<path fill="none" stroke="#999999" d="M491.0848,-656.2884C505.7619,-629.3146 530.4811,-576.7264 530.4811,-528.5 530.4811,-528.5 530.4811,-528.5 530.4811,-455.5 530.4811,-393.4055 596.0375,-352.907 647.5815,-330.6614"/>
<polygon fill="#999999" stroke="#999999" points="648.7854,-333.1927 655.0752,-327.5113 646.6153,-328.0303 648.7854,-333.1927"/>
</g>
<!-- pak_mos_in_bos&#45;&gt;maak_drank_om_met_draak_te_praten -->
<g id="edge57" class="edge">
<title>pak_mos_in_bos&#45;&gt;maak_drank_om_met_draak_te_praten</title>
<path fill="none" stroke="#999999" d="M714.5036,-364.4551C713.5516,-355.7686 712.3923,-345.1898 711.346,-335.642"/>
<polygon fill="#999999" stroke="#999999" points="714.1185,-335.2377 710.4636,-327.5904 708.5519,-335.8478 714.1185,-335.2377"/>
</g>
<!-- pak_schilderij_uit_kelder -->
<g id="node62" class="node">
<title>pak_schilderij_uit_kelder</title>
<path fill="#008800" stroke="#008800" d="M647.5277,-145.5C647.5277,-145.5 781.4345,-145.5 781.4345,-145.5 787.4345,-145.5 793.4345,-151.5 793.4345,-157.5 793.4345,-157.5 793.4345,-169.5 793.4345,-169.5 793.4345,-175.5 787.4345,-181.5 781.4345,-181.5 781.4345,-181.5 647.5277,-181.5 647.5277,-181.5 641.5277,-181.5 635.5277,-175.5 635.5277,-169.5 635.5277,-169.5 635.5277,-157.5 635.5277,-157.5 635.5277,-151.5 641.5277,-145.5 647.5277,-145.5"/>
<text text-anchor="middle" x="714.4811" y="-159.3" font-family="lato, roboto, helvetica" font-size="14.00" fill="#eeeeee">Pak Schilderij Uit Kelder</text>
</g>
<!-- pak_schilderij_uit_kelder&#45;&gt;zet_zadel_op_draak -->
<g id="edge103" class="edge">
<title>pak_schilderij_uit_kelder&#45;&gt;zet_zadel_op_draak</title>
<path fill="none" stroke="#999999" d="M763.9193,-145.4551C792.1649,-135.1454 827.7138,-122.1701 857.1756,-111.4165"/>
<polygon fill="#999999" stroke="#999999" points="858.3635,-113.9637 864.9185,-108.5904 856.4433,-108.7031 858.3635,-113.9637"/>
</g>
<!-- praat_met_draak&#45;&gt;pak_schilderij_uit_kelder -->
<g id="edge59" class="edge">
<title>praat_met_draak&#45;&gt;pak_schilderij_uit_kelder</title>
<path fill="none" stroke="#999999" d="M711.4699,-218.4551C711.9458,-209.7686 712.5255,-199.1898 713.0487,-189.642"/>
<polygon fill="#999999" stroke="#999999" points="715.8479,-189.7316 713.4898,-181.5904 710.2562,-189.4251 715.8479,-189.7316"/>
</g>
<!-- vind_goud_in_bos -->
<g id="node64" class="node">
<title>vind_goud_in_bos</title>
<path fill="#008800" stroke="#008800" d="M469.9583,-875.5C469.9583,-875.5 565.0039,-875.5 565.0039,-875.5 571.0039,-875.5 577.0039,-881.5 577.0039,-887.5 577.0039,-887.5 577.0039,-899.5 577.0039,-899.5 577.0039,-905.5 571.0039,-911.5 565.0039,-911.5 565.0039,-911.5 469.9583,-911.5 469.9583,-911.5 463.9583,-911.5 457.9583,-905.5 457.9583,-899.5 457.9583,-899.5 457.9583,-887.5 457.9583,-887.5 457.9583,-881.5 463.9583,-875.5 469.9583,-875.5"/>
<text text-anchor="middle" x="517.4811" y="-889.3" font-family="lato, roboto, helvetica" font-size="14.00" fill="#eeeeee">Vind Goud In Bos</text>
</g>
<!-- vind_goud_in_bos&#45;&gt;maak_sieraad_bij_smid -->
<g id="edge61" class="edge">
<title>vind_goud_in_bos&#45;&gt;maak_sieraad_bij_smid</title>
<path fill="none" stroke="#999999" d="M577.1466,-879.0775C623.0787,-867.9747 687.0715,-852.5063 737.7634,-840.2529"/>
<polygon fill="#999999" stroke="#999999" points="738.662,-842.9165 745.7802,-838.3151 737.3462,-837.4732 738.662,-842.9165"/>
</g>
<!-- pak_beker&#45;&gt;pak_wijn_uit_kelder -->
<g id="edge70" class="edge">
<title>pak_beker&#45;&gt;pak_wijn_uit_kelder</title>
<path fill="none" stroke="#999999" d="M998.9856,-364.3042C996.8926,-338.8403 993.0765,-292.4108 990.6654,-263.0759"/>
<polygon fill="#999999" stroke="#999999" points="993.4415,-262.6688 989.9955,-254.9251 987.8603,-263.1276 993.4415,-262.6688"/>
</g>
<!-- pak_hout_in_bos&#45;&gt;repareer_houweel -->
<g id="edge80" class="edge">
<title>pak_hout_in_bos&#45;&gt;repareer_houweel</title>
<path fill="none" stroke="#999999" d="M1159.9867,-1751.4551C1134.7821,-1741.2332 1103.1158,-1728.3907 1076.7342,-1717.6916"/>
<polygon fill="#999999" stroke="#999999" points="1077.5533,-1715.0023 1069.0875,-1714.5904 1075.4487,-1720.1918 1077.5533,-1715.0023"/>
</g>
<!-- toegang_tot_kelder -->
<g id="node67" class="node">
<title>toegang_tot_kelder</title>
<path fill="#008800" stroke="#008800" d="M854.7251,-291.5C854.7251,-291.5 960.2371,-291.5 960.2371,-291.5 966.2371,-291.5 972.2371,-297.5 972.2371,-303.5 972.2371,-303.5 972.2371,-315.5 972.2371,-315.5 972.2371,-321.5 966.2371,-327.5 960.2371,-327.5 960.2371,-327.5 854.7251,-327.5 854.7251,-327.5 848.7251,-327.5 842.7251,-321.5 842.7251,-315.5 842.7251,-315.5 842.7251,-303.5 842.7251,-303.5 842.7251,-297.5 848.7251,-291.5 854.7251,-291.5"/>
<text text-anchor="middle" x="907.4811" y="-305.3" font-family="lato, roboto, helvetica" font-size="14.00" fill="#eeeeee">Toegang Tot Kelder</text>
</g>
<!-- toegang_tot_kelder&#45;&gt;pak_wijn_uit_kelder -->
<g id="edge69" class="edge">
<title>toegang_tot_kelder&#45;&gt;pak_wijn_uit_kelder</title>
<path fill="none" stroke="#999999" d="M927.5036,-291.4551C938.0181,-281.979 951.0316,-270.2508 962.3327,-260.0658"/>
<polygon fill="#999999" stroke="#999999" points="964.34,-262.0261 968.4082,-254.5904 960.591,-257.8662 964.34,-262.0261"/>
</g>
<!-- vind_zadel_in_kelder -->
<g id="node74" class="node">
<title>vind_zadel_in_kelder</title>
<path fill="#008800" stroke="#008800" d="M823.4225,-145.5C823.4225,-145.5 935.5397,-145.5 935.5397,-145.5 941.5397,-145.5 947.5397,-151.5 947.5397,-157.5 947.5397,-157.5 947.5397,-169.5 947.5397,-169.5 947.5397,-175.5 941.5397,-181.5 935.5397,-181.5 935.5397,-181.5 823.4225,-181.5 823.4225,-181.5 817.4225,-181.5 811.4225,-175.5 811.4225,-169.5 811.4225,-169.5 811.4225,-157.5 811.4225,-157.5 811.4225,-151.5 817.4225,-145.5 823.4225,-145.5"/>
<text text-anchor="middle" x="879.4811" y="-159.3" font-family="lato, roboto, helvetica" font-size="14.00" fill="#eeeeee">Vind Zadel In Kelder</text>
</g>
<!-- toegang_tot_kelder&#45;&gt;vind_zadel_in_kelder -->
<g id="edge96" class="edge">
<title>toegang_tot_kelder&#45;&gt;vind_zadel_in_kelder</title>
<path fill="none" stroke="#999999" d="M903.9915,-291.3042C899.108,-265.8403 890.2037,-219.4108 884.5779,-190.0759"/>
<polygon fill="#999999" stroke="#999999" points="887.2714,-189.2545 883.0147,-181.9251 881.7717,-190.3093 887.2714,-189.2545"/>
</g>
<!-- vind_onderbroek_bij_rivier&#45;&gt;repareer_molen_met_onderbroek -->
<g id="edge82" class="edge">
<title>vind_onderbroek_bij_rivier&#45;&gt;repareer_molen_met_onderbroek</title>
<path fill="none" stroke="#999999" d="M1294.1695,-1824.2545C1289.2597,-1805.2612 1280.2329,-1774.993 1267.4811,-1751 1246.7516,-1711.9968 1214.4126,-1672.3188 1192.8452,-1647.8128"/>
<polygon fill="#999999" stroke="#999999" points="1194.7455,-1645.7361 1187.3374,-1641.6179 1190.5605,-1649.4571 1194.7455,-1645.7361"/>
</g>
<!-- volg_maansteen_route -->
<g id="node72" class="node">
<title>volg_maansteen_route</title>
<path fill="#008800" stroke="#008800" d="M368.9425,-948.5C368.9425,-948.5 490.0197,-948.5 490.0197,-948.5 496.0197,-948.5 502.0197,-954.5 502.0197,-960.5 502.0197,-960.5 502.0197,-972.5 502.0197,-972.5 502.0197,-978.5 496.0197,-984.5 490.0197,-984.5 490.0197,-984.5 368.9425,-984.5 368.9425,-984.5 362.9425,-984.5 356.9425,-978.5 356.9425,-972.5 356.9425,-972.5 356.9425,-960.5 356.9425,-960.5 356.9425,-954.5 362.9425,-948.5 368.9425,-948.5"/>
<text text-anchor="middle" x="429.4811" y="-962.3" font-family="lato, roboto, helvetica" font-size="14.00" fill="#eeeeee">Volg Maansteen Route</text>
</g>
<!-- schat_route_compleet&#45;&gt;volg_maansteen_route -->
<g id="edge98" class="edge">
<title>schat_route_compleet&#45;&gt;volg_maansteen_route</title>
<path fill="none" stroke="#999999" d="M429.4811,-1021.4551C429.4811,-1012.7686 429.4811,-1002.1898 429.4811,-992.642"/>
<polygon fill="#999999" stroke="#999999" points="432.2812,-992.5903 429.4811,-984.5904 426.6812,-992.5904 432.2812,-992.5903"/>
</g>
<!-- snij_touw_van_lift&#45;&gt;trek_tand_van_draak -->
<g id="edge90" class="edge">
<title>snij_touw_van_lift&#45;&gt;trek_tand_van_draak</title>
<path fill="none" stroke="#999999" d="M1261.0991,-656.4551C1255.95,-647.5054 1249.6451,-636.547 1244.024,-626.7769"/>
<polygon fill="#999999" stroke="#999999" points="1246.3058,-625.1282 1239.8893,-619.5904 1241.4519,-627.921 1246.3058,-625.1282"/>
</g>
<!-- oplos_drankje&#45;&gt;toegang_tot_kelder -->
<g id="edge89" class="edge">
<title>oplos_drankje&#45;&gt;toegang_tot_kelder</title>
<path fill="none" stroke="#999999" d="M899.2002,-364.4551C900.5091,-355.7686 902.1032,-345.1898 903.5419,-335.642"/>
<polygon fill="#999999" stroke="#999999" points="906.3318,-335.9183 904.7552,-327.5904 900.7943,-335.0838 906.3318,-335.9183"/>
</g>
<!-- volg_maansteen_route&#45;&gt;vind_runesteen_in_bos -->
<g id="edge95" class="edge">
<title>volg_maansteen_route&#45;&gt;vind_runesteen_in_bos</title>
<path fill="none" stroke="#999999" d="M432.6714,-948.2341C441.401,-898.2529 465.7063,-759.0932 475.8948,-700.759"/>
<polygon fill="#999999" stroke="#999999" points="478.6738,-701.1215 477.292,-692.759 473.1573,-700.1579 478.6738,-701.1215"/>
</g>
<!-- volg_maansteen_route&#45;&gt;vind_goud_in_bos -->
<g id="edge91" class="edge">
<title>volg_maansteen_route&#45;&gt;vind_goud_in_bos</title>
<path fill="none" stroke="#999999" d="M451.2339,-948.4551C462.7629,-938.8912 477.0573,-927.0334 489.4136,-916.7833"/>
<polygon fill="#999999" stroke="#999999" points="491.304,-918.8531 495.6735,-911.5904 487.7286,-914.5431 491.304,-918.8531"/>
</g>
<!-- vind_maansteen_in_moeras&#45;&gt;volg_maansteen_route -->
<g id="edge97" class="edge">
<title>vind_maansteen_in_moeras&#45;&gt;volg_maansteen_route</title>
<path fill="none" stroke="#999999" d="M236.0092,-1021.4551C272.9225,-1010.9699 319.5429,-997.7276 357.7698,-986.8694"/>
<polygon fill="#999999" stroke="#999999" points="358.8626,-989.4698 365.7931,-984.5904 357.3325,-984.0829 358.8626,-989.4698"/>
</g>
<!-- vind_zadel_in_kelder&#45;&gt;zet_zadel_op_draak -->
<g id="edge104" class="edge">
<title>vind_zadel_in_kelder&#45;&gt;zet_zadel_op_draak</title>
<path fill="none" stroke="#999999" d="M888.1328,-145.4551C892.3816,-136.5932 897.5748,-125.7616 902.2241,-116.0646"/>
<polygon fill="#999999" stroke="#999999" points="904.8738,-117.0146 905.8076,-108.5904 899.8241,-114.5936 904.8738,-117.0146"/>
</g>
</g>
</svg>
