<?xml version="1.0" encoding="UTF-8" standalone="no"?>
<!DOCTYPE svg PUBLIC "-//W3C//DTD SVG 1.1//EN"
 "http://www.w3.org/Graphics/SVG/1.1/DTD/svg11.dtd">
<!-- Generated by graphviz version 2.40.1 (20161225.0304)
 -->
<!-- Title: G Pages: 1 -->
<svg width="1283pt" height="1681pt"
 viewBox="0.00 0.00 1283.32 1681.00" xmlns="http://www.w3.org/2000/svg" xmlns:xlink="http://www.w3.org/1999/xlink">
<g id="graph0" class="graph" transform="scale(1 1) rotate(0) translate(4 1677)">
<title>G</title>
<polygon fill="#ffffff" stroke="transparent" points="-4,4 -4,-1677 1279.3202,-1677 1279.3202,4 -4,4"/>
<text text-anchor="middle" x="637.6601" y="-1651" font-family="lato, roboto, helvetica" font-size="20.00" fill="#000000">Avontuur</text>
<!-- START -->
<g id="node1" class="node">
<title>START</title>
<polygon fill="#333333" stroke="#333333" points="624.9506,-1641 566.2446,-1623 624.9506,-1605 683.6566,-1623 624.9506,-1641"/>
<polyline fill="none" stroke="#333333" points="577.7174,-1626.5177 577.7174,-1619.4823 "/>
<polyline fill="none" stroke="#333333" points="613.4778,-1608.5177 636.4234,-1608.5177 "/>
<polyline fill="none" stroke="#333333" points="672.1838,-1619.4823 672.1838,-1626.5177 "/>
<polyline fill="none" stroke="#333333" points="636.4234,-1637.4823 613.4778,-1637.4823 "/>
<text text-anchor="middle" x="624.9506" y="-1618.8" font-family="lato, roboto, helvetica" font-size="14.00" fill="#dddddd">START</text>
</g>
<!-- betaal_twee_geldstukken -->
<g id="node4" class="node">
<title>betaal_twee_geldstukken</title>
<path fill="#3333aa" stroke="#3333aa" d="M656.6448,-1532.5C656.6448,-1532.5 793.2564,-1532.5 793.2564,-1532.5 799.2564,-1532.5 805.2564,-1538.5 805.2564,-1544.5 805.2564,-1544.5 805.2564,-1556.5 805.2564,-1556.5 805.2564,-1562.5 799.2564,-1568.5 793.2564,-1568.5 793.2564,-1568.5 656.6448,-1568.5 656.6448,-1568.5 650.6448,-1568.5 644.6448,-1562.5 644.6448,-1556.5 644.6448,-1556.5 644.6448,-1544.5 644.6448,-1544.5 644.6448,-1538.5 650.6448,-1532.5 656.6448,-1532.5"/>
<text text-anchor="middle" x="724.9506" y="-1546.3" font-family="lato, roboto, helvetica" font-size="14.00" fill="#eeeeee">Betaal Twee Geldstukken</text>
</g>
<!-- START&#45;&gt;betaal_twee_geldstukken -->
<g id="edge2" class="edge">
<title>START&#45;&gt;betaal_twee_geldstukken</title>
<path fill="none" stroke="#999999" d="M642.8286,-1610.0385C656.789,-1599.9171 676.5432,-1585.5954 693.1785,-1573.5348"/>
<polygon fill="#999999" stroke="#999999" points="695.2576,-1575.4859 700.091,-1568.5232 691.9705,-1570.9521 695.2576,-1575.4859"/>
</g>
<!-- vind_een_geldstuk_bij_de_rivier -->
<g id="node7" class="node">
<title>vind_een_geldstuk_bij_de_rivier</title>
<path fill="#3333aa" stroke="#3333aa" d="M436.8289,-1532.5C436.8289,-1532.5 615.0723,-1532.5 615.0723,-1532.5 621.0723,-1532.5 627.0723,-1538.5 627.0723,-1544.5 627.0723,-1544.5 627.0723,-1556.5 627.0723,-1556.5 627.0723,-1562.5 621.0723,-1568.5 615.0723,-1568.5 615.0723,-1568.5 436.8289,-1568.5 436.8289,-1568.5 430.8289,-1568.5 424.8289,-1562.5 424.8289,-1556.5 424.8289,-1556.5 424.8289,-1544.5 424.8289,-1544.5 424.8289,-1538.5 430.8289,-1532.5 436.8289,-1532.5"/>
<text text-anchor="middle" x="525.9506" y="-1546.3" font-family="lato, roboto, helvetica" font-size="14.00" fill="#eeeeee">Vind Een Geldstuk Bij De Rivier</text>
</g>
<!-- START&#45;&gt;vind_een_geldstuk_bij_de_rivier -->
<g id="edge69" class="edge">
<title>START&#45;&gt;vind_een_geldstuk_bij_de_rivier</title>
<path fill="none" stroke="#999999" d="M607.2514,-1610.0385C593.4306,-1599.9171 573.8739,-1585.5954 557.405,-1573.5348"/>
<polygon fill="#999999" stroke="#999999" points="558.6704,-1570.9909 550.5616,-1568.5232 555.3617,-1575.509 558.6704,-1570.9909"/>
</g>
<!-- praat_met_boer -->
<g id="node20" class="node">
<title>praat_met_boer</title>
<path fill="#3333aa" stroke="#3333aa" d="M304.1883,-1459.5C304.1883,-1459.5 381.7129,-1459.5 381.7129,-1459.5 387.7129,-1459.5 393.7129,-1465.5 393.7129,-1471.5 393.7129,-1471.5 393.7129,-1483.5 393.7129,-1483.5 393.7129,-1489.5 387.7129,-1495.5 381.7129,-1495.5 381.7129,-1495.5 304.1883,-1495.5 304.1883,-1495.5 298.1883,-1495.5 292.1883,-1489.5 292.1883,-1483.5 292.1883,-1483.5 292.1883,-1471.5 292.1883,-1471.5 292.1883,-1465.5 298.1883,-1459.5 304.1883,-1459.5"/>
<text text-anchor="middle" x="342.9506" y="-1473.3" font-family="lato, roboto, helvetica" font-size="14.00" fill="#eeeeee">Praat Met Boer</text>
</g>
<!-- START&#45;&gt;praat_met_boer -->
<g id="edge57" class="edge">
<title>START&#45;&gt;praat_met_boer</title>
<path fill="none" stroke="#999999" d="M577.5078,-1619.3774C532.7449,-1614.0631 465.3231,-1601.0038 415.9506,-1569 390.1715,-1552.2897 369.382,-1523.4068 356.679,-1502.5553"/>
<polygon fill="#999999" stroke="#999999" points="359.0145,-1501.0039 352.5282,-1495.5479 354.1964,-1503.858 359.0145,-1501.0039"/>
</g>
<!-- praat_met_bakker -->
<g id="node22" class="node">
<title>praat_met_bakker</title>
<path fill="#3333aa" stroke="#3333aa" d="M1172.581,-1459.5C1172.581,-1459.5 1263.3202,-1459.5 1263.3202,-1459.5 1269.3202,-1459.5 1275.3202,-1465.5 1275.3202,-1471.5 1275.3202,-1471.5 1275.3202,-1483.5 1275.3202,-1483.5 1275.3202,-1489.5 1269.3202,-1495.5 1263.3202,-1495.5 1263.3202,-1495.5 1172.581,-1495.5 1172.581,-1495.5 1166.581,-1495.5 1160.581,-1489.5 1160.581,-1483.5 1160.581,-1483.5 1160.581,-1471.5 1160.581,-1471.5 1160.581,-1465.5 1166.581,-1459.5 1172.581,-1459.5"/>
<text text-anchor="middle" x="1217.9506" y="-1473.3" font-family="lato, roboto, helvetica" font-size="14.00" fill="#eeeeee">Praat Met Bakker</text>
</g>
<!-- START&#45;&gt;praat_met_bakker -->
<g id="edge56" class="edge">
<title>START&#45;&gt;praat_met_bakker</title>
<path fill="none" stroke="#999999" d="M674.0204,-1620.0125C795.277,-1612.3301 1102.2019,-1590.9459 1142.9506,-1569 1170.7336,-1554.037 1192.1814,-1524.0794 1204.8917,-1502.5135"/>
<polygon fill="#999999" stroke="#999999" points="1207.3293,-1503.8912 1208.8638,-1495.5553 1202.466,-1501.1149 1207.3293,-1503.8912"/>
</g>
<!-- praat_met_dwerg -->
<g id="node24" class="node">
<title>praat_met_dwerg</title>
<path fill="#3333aa" stroke="#3333aa" d="M835.75,-1532.5C835.75,-1532.5 924.1512,-1532.5 924.1512,-1532.5 930.1512,-1532.5 936.1512,-1538.5 936.1512,-1544.5 936.1512,-1544.5 936.1512,-1556.5 936.1512,-1556.5 936.1512,-1562.5 930.1512,-1568.5 924.1512,-1568.5 924.1512,-1568.5 835.75,-1568.5 835.75,-1568.5 829.75,-1568.5 823.75,-1562.5 823.75,-1556.5 823.75,-1556.5 823.75,-1544.5 823.75,-1544.5 823.75,-1538.5 829.75,-1532.5 835.75,-1532.5"/>
<text text-anchor="middle" x="879.9506" y="-1546.3" font-family="lato, roboto, helvetica" font-size="14.00" fill="#eeeeee">Praat Met Dwerg</text>
</g>
<!-- START&#45;&gt;praat_met_dwerg -->
<g id="edge59" class="edge">
<title>START&#45;&gt;praat_met_dwerg</title>
<path fill="none" stroke="#999999" d="M655.4563,-1614.3268C694.8137,-1603.137 764.3055,-1583.3795 815.5793,-1568.8017"/>
<polygon fill="#999999" stroke="#999999" points="816.3958,-1571.4806 823.3251,-1566.5994 814.8643,-1566.094 816.3958,-1571.4806"/>
</g>
<!-- praat_met_molenaar -->
<g id="node35" class="node">
<title>praat_met_molenaar</title>
<path fill="#3333aa" stroke="#3333aa" d="M83.9744,-1386.5C83.9744,-1386.5 187.9268,-1386.5 187.9268,-1386.5 193.9268,-1386.5 199.9268,-1392.5 199.9268,-1398.5 199.9268,-1398.5 199.9268,-1410.5 199.9268,-1410.5 199.9268,-1416.5 193.9268,-1422.5 187.9268,-1422.5 187.9268,-1422.5 83.9744,-1422.5 83.9744,-1422.5 77.9744,-1422.5 71.9744,-1416.5 71.9744,-1410.5 71.9744,-1410.5 71.9744,-1398.5 71.9744,-1398.5 71.9744,-1392.5 77.9744,-1386.5 83.9744,-1386.5"/>
<text text-anchor="middle" x="135.9506" y="-1400.3" font-family="lato, roboto, helvetica" font-size="14.00" fill="#eeeeee">Praat Met Molenaar</text>
</g>
<!-- START&#45;&gt;praat_met_molenaar -->
<g id="edge61" class="edge">
<title>START&#45;&gt;praat_met_molenaar</title>
<path fill="none" stroke="#999999" d="M579.8046,-1618.6757C528.2662,-1612.5322 442.268,-1598.5585 373.9506,-1569 289.5434,-1532.48 204.1264,-1464.0487 162.3236,-1428.0367"/>
<polygon fill="#999999" stroke="#999999" points="164.1144,-1425.8834 156.2367,-1422.7557 160.4445,-1430.1133 164.1144,-1425.8834"/>
</g>
<!-- pak_touw_op_boerderij -->
<g id="node40" class="node">
<title>pak_touw_op_boerderij</title>
<path fill="#3333aa" stroke="#3333aa" d="M29.885,-583.5C29.885,-583.5 156.0162,-583.5 156.0162,-583.5 162.0162,-583.5 168.0162,-589.5 168.0162,-595.5 168.0162,-595.5 168.0162,-607.5 168.0162,-607.5 168.0162,-613.5 162.0162,-619.5 156.0162,-619.5 156.0162,-619.5 29.885,-619.5 29.885,-619.5 23.885,-619.5 17.885,-613.5 17.885,-607.5 17.885,-607.5 17.885,-595.5 17.885,-595.5 17.885,-589.5 23.885,-583.5 29.885,-583.5"/>
<text text-anchor="middle" x="92.9506" y="-597.3" font-family="lato, roboto, helvetica" font-size="14.00" fill="#eeeeee">Pak Touw Op Boerderij</text>
</g>
<!-- START&#45;&gt;pak_touw_op_boerderij -->
<g id="edge53" class="edge">
<title>START&#45;&gt;pak_touw_op_boerderij</title>
<path fill="none" stroke="#999999" d="M572.623,-1621.0395C429.8098,-1614.2764 43.9506,-1585.9672 43.9506,-1477.5 43.9506,-1477.5 43.9506,-1477.5 43.9506,-747.5 43.9506,-703.3218 64.3641,-655.3491 78.8394,-626.885"/>
<polygon fill="#999999" stroke="#999999" points="81.3493,-628.1272 82.559,-619.7381 76.3818,-625.5419 81.3493,-628.1272"/>
</g>
<!-- pak_hout_in_bos -->
<g id="node53" class="node">
<title>pak_hout_in_bos</title>
<path fill="#3333aa" stroke="#3333aa" d="M1037.4825,-1532.5C1037.4825,-1532.5 1122.4187,-1532.5 1122.4187,-1532.5 1128.4187,-1532.5 1134.4187,-1538.5 1134.4187,-1544.5 1134.4187,-1544.5 1134.4187,-1556.5 1134.4187,-1556.5 1134.4187,-1562.5 1128.4187,-1568.5 1122.4187,-1568.5 1122.4187,-1568.5 1037.4825,-1568.5 1037.4825,-1568.5 1031.4825,-1568.5 1025.4825,-1562.5 1025.4825,-1556.5 1025.4825,-1556.5 1025.4825,-1544.5 1025.4825,-1544.5 1025.4825,-1538.5 1031.4825,-1532.5 1037.4825,-1532.5"/>
<text text-anchor="middle" x="1079.9506" y="-1546.3" font-family="lato, roboto, helvetica" font-size="14.00" fill="#eeeeee">Pak Hout In Bos</text>
</g>
<!-- START&#45;&gt;pak_hout_in_bos -->
<g id="edge49" class="edge">
<title>START&#45;&gt;pak_hout_in_bos</title>
<path fill="none" stroke="#999999" d="M663.7436,-1616.8187C742.4686,-1604.2746 921.6003,-1575.7316 1017.1621,-1560.5048"/>
<polygon fill="#999999" stroke="#999999" points="1017.8405,-1563.2321 1025.3002,-1559.208 1016.9592,-1557.7018 1017.8405,-1563.2321"/>
</g>
<!-- beklim_toren -->
<g id="node2" class="node">
<title>beklim_toren</title>
<path fill="#3333aa" stroke="#3333aa" d="M425.8752,-729.5C425.8752,-729.5 496.026,-729.5 496.026,-729.5 502.026,-729.5 508.026,-735.5 508.026,-741.5 508.026,-741.5 508.026,-753.5 508.026,-753.5 508.026,-759.5 502.026,-765.5 496.026,-765.5 496.026,-765.5 425.8752,-765.5 425.8752,-765.5 419.8752,-765.5 413.8752,-759.5 413.8752,-753.5 413.8752,-753.5 413.8752,-741.5 413.8752,-741.5 413.8752,-735.5 419.8752,-729.5 425.8752,-729.5"/>
<text text-anchor="middle" x="460.9506" y="-743.3" font-family="lato, roboto, helvetica" font-size="14.00" fill="#eeeeee">Beklim Toren</text>
</g>
<!-- praat_met_dochter_van_bakker -->
<g id="node50" class="node">
<title>praat_met_dochter_van_bakker</title>
<path fill="#3333aa" stroke="#3333aa" d="M421.8769,-656.5C421.8769,-656.5 588.0243,-656.5 588.0243,-656.5 594.0243,-656.5 600.0243,-662.5 600.0243,-668.5 600.0243,-668.5 600.0243,-680.5 600.0243,-680.5 600.0243,-686.5 594.0243,-692.5 588.0243,-692.5 588.0243,-692.5 421.8769,-692.5 421.8769,-692.5 415.8769,-692.5 409.8769,-686.5 409.8769,-680.5 409.8769,-680.5 409.8769,-668.5 409.8769,-668.5 409.8769,-662.5 415.8769,-656.5 421.8769,-656.5"/>
<text text-anchor="middle" x="504.9506" y="-670.3" font-family="lato, roboto, helvetica" font-size="14.00" fill="#eeeeee">Praat Met Dochter Van Bakker</text>
</g>
<!-- beklim_toren&#45;&gt;praat_met_dochter_van_bakker -->
<g id="edge58" class="edge">
<title>beklim_toren&#45;&gt;praat_met_dochter_van_bakker</title>
<path fill="none" stroke="#999999" d="M471.827,-729.4551C477.2742,-720.4177 483.956,-709.3319 489.8882,-699.4899"/>
<polygon fill="#999999" stroke="#999999" points="492.3151,-700.8875 494.0468,-692.5904 487.5189,-697.9966 492.3151,-700.8875"/>
</g>
<!-- koop_zwaard_bij_wapensmid -->
<g id="node3" class="node">
<title>koop_zwaard_bij_wapensmid</title>
<path fill="#3333aa" stroke="#3333aa" d="M319.7791,-802.5C319.7791,-802.5 480.1221,-802.5 480.1221,-802.5 486.1221,-802.5 492.1221,-808.5 492.1221,-814.5 492.1221,-814.5 492.1221,-826.5 492.1221,-826.5 492.1221,-832.5 486.1221,-838.5 480.1221,-838.5 480.1221,-838.5 319.7791,-838.5 319.7791,-838.5 313.7791,-838.5 307.7791,-832.5 307.7791,-826.5 307.7791,-826.5 307.7791,-814.5 307.7791,-814.5 307.7791,-808.5 313.7791,-802.5 319.7791,-802.5"/>
<text text-anchor="middle" x="399.9506" y="-816.3" font-family="lato, roboto, helvetica" font-size="14.00" fill="#eeeeee">Koop Zwaard Bij Wapensmid</text>
</g>
<!-- koop_zwaard_bij_wapensmid&#45;&gt;beklim_toren -->
<g id="edge1" class="edge">
<title>koop_zwaard_bij_wapensmid&#45;&gt;beklim_toren</title>
<path fill="none" stroke="#999999" d="M415.0293,-802.4551C422.7277,-793.2422 432.2049,-781.9006 440.5465,-771.918"/>
<polygon fill="#999999" stroke="#999999" points="442.8528,-773.5247 445.834,-765.5904 438.5556,-769.9338 442.8528,-773.5247"/>
</g>
<!-- snij_touw_van_lift -->
<g id="node54" class="node">
<title>snij_touw_van_lift</title>
<path fill="#3333aa" stroke="#3333aa" d="M330.9313,-437.5C330.9313,-437.5 432.9699,-437.5 432.9699,-437.5 438.9699,-437.5 444.9699,-443.5 444.9699,-449.5 444.9699,-449.5 444.9699,-461.5 444.9699,-461.5 444.9699,-467.5 438.9699,-473.5 432.9699,-473.5 432.9699,-473.5 330.9313,-473.5 330.9313,-473.5 324.9313,-473.5 318.9313,-467.5 318.9313,-461.5 318.9313,-461.5 318.9313,-449.5 318.9313,-449.5 318.9313,-443.5 324.9313,-437.5 330.9313,-437.5"/>
<text text-anchor="middle" x="381.9506" y="-451.3" font-family="lato, roboto, helvetica" font-size="14.00" fill="#eeeeee">Snij Touw Van Lift</text>
</g>
<!-- koop_zwaard_bij_wapensmid&#45;&gt;snij_touw_van_lift -->
<g id="edge64" class="edge">
<title>koop_zwaard_bij_wapensmid&#45;&gt;snij_touw_van_lift</title>
<path fill="none" stroke="#999999" d="M396.221,-802.1515C390.9487,-774.5699 381.9506,-720.7258 381.9506,-674.5 381.9506,-674.5 381.9506,-674.5 381.9506,-601.5 381.9506,-559.7434 381.9506,-511.2692 381.9506,-482.0145"/>
<polygon fill="#999999" stroke="#999999" points="384.7507,-481.9379 381.9506,-473.938 379.1507,-481.938 384.7507,-481.9379"/>
</g>
<!-- _0 -->
<g id="node6" class="node">
<title>_0</title>
<polygon fill="#888888" stroke="#888888" points="573.9506,-1495.5 543.9239,-1477.5 573.9506,-1459.5 603.9773,-1477.5 573.9506,-1495.5"/>
<polyline fill="none" stroke="#888888" points="553.9328,-1483.5 553.9328,-1471.5 "/>
<polyline fill="none" stroke="#888888" points="563.9417,-1465.5 583.9595,-1465.5 "/>
<polyline fill="none" stroke="#888888" points="593.9684,-1471.5 593.9684,-1483.5 "/>
<polyline fill="none" stroke="#888888" points="583.9595,-1489.5 563.9417,-1489.5 "/>
<text text-anchor="middle" x="573.9506" y="-1473.3" font-family="lato, roboto, helvetica" font-size="14.00" fill="#eeeeee">Or</text>
</g>
<!-- betaal_twee_geldstukken&#45;&gt;_0 -->
<g id="edge4" class="edge">
<title>betaal_twee_geldstukken&#45;&gt;_0</title>
<path fill="none" stroke="#999999" stroke-dasharray="5,2" d="M687.6247,-1532.4551C659.7274,-1518.9683 622.3938,-1500.9195 598.2568,-1489.2507"/>
<polygon fill="#999999" stroke="#999999" points="599.3337,-1486.6613 590.9125,-1485.7001 596.8962,-1491.703 599.3337,-1486.6613"/>
</g>
<!-- _1 -->
<g id="node42" class="node">
<title>_1</title>
<polygon fill="#888888" stroke="#888888" points="724.9506,-1495.5 694.9239,-1477.5 724.9506,-1459.5 754.9773,-1477.5 724.9506,-1495.5"/>
<polyline fill="none" stroke="#888888" points="704.9328,-1483.5 704.9328,-1471.5 "/>
<polyline fill="none" stroke="#888888" points="714.9417,-1465.5 734.9595,-1465.5 "/>
<polyline fill="none" stroke="#888888" points="744.9684,-1471.5 744.9684,-1483.5 "/>
<polyline fill="none" stroke="#888888" points="734.9595,-1489.5 714.9417,-1489.5 "/>
<text text-anchor="middle" x="724.9506" y="-1473.3" font-family="lato, roboto, helvetica" font-size="14.00" fill="#eeeeee">Or</text>
</g>
<!-- betaal_twee_geldstukken&#45;&gt;_1 -->
<g id="edge30" class="edge">
<title>betaal_twee_geldstukken&#45;&gt;_1</title>
<path fill="none" stroke="#999999" stroke-dasharray="5,2" d="M724.9506,-1532.4551C724.9506,-1523.7686 724.9506,-1513.1898 724.9506,-1503.642"/>
<polygon fill="#999999" stroke="#999999" points="727.7507,-1503.5903 724.9506,-1495.5904 722.1507,-1503.5904 727.7507,-1503.5903"/>
</g>
<!-- betaal_twee_goudstukken_aan_hoefsmid -->
<g id="node5" class="node">
<title>betaal_twee_goudstukken_aan_hoefsmid</title>
<path fill="#3333aa" stroke="#3333aa" d="M460.933,-1386.5C460.933,-1386.5 686.9682,-1386.5 686.9682,-1386.5 692.9682,-1386.5 698.9682,-1392.5 698.9682,-1398.5 698.9682,-1398.5 698.9682,-1410.5 698.9682,-1410.5 698.9682,-1416.5 692.9682,-1422.5 686.9682,-1422.5 686.9682,-1422.5 460.933,-1422.5 460.933,-1422.5 454.933,-1422.5 448.933,-1416.5 448.933,-1410.5 448.933,-1410.5 448.933,-1398.5 448.933,-1398.5 448.933,-1392.5 454.933,-1386.5 460.933,-1386.5"/>
<text text-anchor="middle" x="573.9506" y="-1400.3" font-family="lato, roboto, helvetica" font-size="14.00" fill="#eeeeee">Betaal Twee Goudstukken Aan Hoefsmid</text>
</g>
<!-- geef_paard_nieuwe_hoefijzers -->
<g id="node33" class="node">
<title>geef_paard_nieuwe_hoefijzers</title>
<path fill="#3333aa" stroke="#3333aa" d="M306.251,-1313.5C306.251,-1313.5 469.6502,-1313.5 469.6502,-1313.5 475.6502,-1313.5 481.6502,-1319.5 481.6502,-1325.5 481.6502,-1325.5 481.6502,-1337.5 481.6502,-1337.5 481.6502,-1343.5 475.6502,-1349.5 469.6502,-1349.5 469.6502,-1349.5 306.251,-1349.5 306.251,-1349.5 300.251,-1349.5 294.251,-1343.5 294.251,-1337.5 294.251,-1337.5 294.251,-1325.5 294.251,-1325.5 294.251,-1319.5 300.251,-1313.5 306.251,-1313.5"/>
<text text-anchor="middle" x="387.9506" y="-1327.3" font-family="lato, roboto, helvetica" font-size="14.00" fill="#eeeeee">Geef Paard Nieuwe Hoefijzers</text>
</g>
<!-- betaal_twee_goudstukken_aan_hoefsmid&#45;&gt;geef_paard_nieuwe_hoefijzers -->
<g id="edge21" class="edge">
<title>betaal_twee_goudstukken_aan_hoefsmid&#45;&gt;geef_paard_nieuwe_hoefijzers</title>
<path fill="none" stroke="#999999" d="M527.9731,-1386.4551C501.8165,-1376.1893 468.9254,-1363.2804 441.5948,-1352.5539"/>
<polygon fill="#999999" stroke="#999999" points="442.5138,-1349.9067 434.0438,-1349.5904 440.4679,-1355.1196 442.5138,-1349.9067"/>
</g>
<!-- _0&#45;&gt;betaal_twee_goudstukken_aan_hoefsmid -->
<g id="edge3" class="edge">
<title>_0&#45;&gt;betaal_twee_goudstukken_aan_hoefsmid</title>
<path fill="none" stroke="#999999" d="M573.9506,-1459.4551C573.9506,-1450.7686 573.9506,-1440.1898 573.9506,-1430.642"/>
<polygon fill="#999999" stroke="#999999" points="576.7507,-1430.5903 573.9506,-1422.5904 571.1507,-1430.5904 576.7507,-1430.5903"/>
</g>
<!-- vind_een_geldstuk_bij_de_rivier&#45;&gt;_0 -->
<g id="edge5" class="edge">
<title>vind_een_geldstuk_bij_de_rivier&#45;&gt;_0</title>
<path fill="none" stroke="#999999" stroke-dasharray="5,2" d="M537.8158,-1532.4551C544.83,-1521.7875 553.7209,-1508.266 560.9282,-1497.3048"/>
<polygon fill="#999999" stroke="#999999" points="563.329,-1498.7501 565.3847,-1490.5273 558.6499,-1495.6734 563.329,-1498.7501"/>
</g>
<!-- vind_een_geldstuk_bij_de_rivier&#45;&gt;_1 -->
<g id="edge29" class="edge">
<title>vind_een_geldstuk_bij_de_rivier&#45;&gt;_1</title>
<path fill="none" stroke="#999999" stroke-dasharray="5,2" d="M575.1416,-1532.4551C614.0228,-1518.1921 666.8124,-1498.8271 698.2313,-1487.3015"/>
<polygon fill="#999999" stroke="#999999" points="699.5708,-1489.7927 706.1171,-1484.4088 697.6422,-1484.5353 699.5708,-1489.7927"/>
</g>
<!-- bezorg_graan_bij_molenaar -->
<g id="node8" class="node">
<title>bezorg_graan_bij_molenaar</title>
<path fill="#3333aa" stroke="#3333aa" d="M304.0105,-1094.5C304.0105,-1094.5 451.8907,-1094.5 451.8907,-1094.5 457.8907,-1094.5 463.8907,-1100.5 463.8907,-1106.5 463.8907,-1106.5 463.8907,-1118.5 463.8907,-1118.5 463.8907,-1124.5 457.8907,-1130.5 451.8907,-1130.5 451.8907,-1130.5 304.0105,-1130.5 304.0105,-1130.5 298.0105,-1130.5 292.0105,-1124.5 292.0105,-1118.5 292.0105,-1118.5 292.0105,-1106.5 292.0105,-1106.5 292.0105,-1100.5 298.0105,-1094.5 304.0105,-1094.5"/>
<text text-anchor="middle" x="377.9506" y="-1108.3" font-family="lato, roboto, helvetica" font-size="14.00" fill="#eeeeee">Bezorg Graan Bij Molenaar</text>
</g>
<!-- krijg_meel_bij_molenaar -->
<g id="node11" class="node">
<title>krijg_meel_bij_molenaar</title>
<path fill="#3333aa" stroke="#3333aa" d="M320.1655,-1021.5C320.1655,-1021.5 451.7357,-1021.5 451.7357,-1021.5 457.7357,-1021.5 463.7357,-1027.5 463.7357,-1033.5 463.7357,-1033.5 463.7357,-1045.5 463.7357,-1045.5 463.7357,-1051.5 457.7357,-1057.5 451.7357,-1057.5 451.7357,-1057.5 320.1655,-1057.5 320.1655,-1057.5 314.1655,-1057.5 308.1655,-1051.5 308.1655,-1045.5 308.1655,-1045.5 308.1655,-1033.5 308.1655,-1033.5 308.1655,-1027.5 314.1655,-1021.5 320.1655,-1021.5"/>
<text text-anchor="middle" x="385.9506" y="-1035.3" font-family="lato, roboto, helvetica" font-size="14.00" fill="#eeeeee">Krijg Meel Bij Molenaar</text>
</g>
<!-- bezorg_graan_bij_molenaar&#45;&gt;krijg_meel_bij_molenaar -->
<g id="edge42" class="edge">
<title>bezorg_graan_bij_molenaar&#45;&gt;krijg_meel_bij_molenaar</title>
<path fill="none" stroke="#999999" d="M379.9281,-1094.4551C380.8801,-1085.7686 382.0394,-1075.1898 383.0857,-1065.642"/>
<polygon fill="#999999" stroke="#999999" points="385.8798,-1065.8478 383.9681,-1057.5904 380.3132,-1065.2377 385.8798,-1065.8478"/>
</g>
<!-- zet_graan_op_wagen -->
<g id="node9" class="node">
<title>zet_graan_op_wagen</title>
<path fill="#3333aa" stroke="#3333aa" d="M317.8983,-1167.5C317.8983,-1167.5 430.0029,-1167.5 430.0029,-1167.5 436.0029,-1167.5 442.0029,-1173.5 442.0029,-1179.5 442.0029,-1179.5 442.0029,-1191.5 442.0029,-1191.5 442.0029,-1197.5 436.0029,-1203.5 430.0029,-1203.5 430.0029,-1203.5 317.8983,-1203.5 317.8983,-1203.5 311.8983,-1203.5 305.8983,-1197.5 305.8983,-1191.5 305.8983,-1191.5 305.8983,-1179.5 305.8983,-1179.5 305.8983,-1173.5 311.8983,-1167.5 317.8983,-1167.5"/>
<text text-anchor="middle" x="373.9506" y="-1181.3" font-family="lato, roboto, helvetica" font-size="14.00" fill="#eeeeee">Zet Graan Op Wagen</text>
</g>
<!-- zet_graan_op_wagen&#45;&gt;bezorg_graan_bij_molenaar -->
<g id="edge6" class="edge">
<title>zet_graan_op_wagen&#45;&gt;bezorg_graan_bij_molenaar</title>
<path fill="none" stroke="#999999" d="M374.9394,-1167.4551C375.4153,-1158.7686 375.995,-1148.1898 376.5182,-1138.642"/>
<polygon fill="#999999" stroke="#999999" points="379.3174,-1138.7316 376.9593,-1130.5904 373.7257,-1138.4251 379.3174,-1138.7316"/>
</g>
<!-- bezorg_meel_bij_bakker -->
<g id="node10" class="node">
<title>bezorg_meel_bij_bakker</title>
<path fill="#3333aa" stroke="#3333aa" d="M335.3331,-948.5C335.3331,-948.5 464.5681,-948.5 464.5681,-948.5 470.5681,-948.5 476.5681,-954.5 476.5681,-960.5 476.5681,-960.5 476.5681,-972.5 476.5681,-972.5 476.5681,-978.5 470.5681,-984.5 464.5681,-984.5 464.5681,-984.5 335.3331,-984.5 335.3331,-984.5 329.3331,-984.5 323.3331,-978.5 323.3331,-972.5 323.3331,-972.5 323.3331,-960.5 323.3331,-960.5 323.3331,-954.5 329.3331,-948.5 335.3331,-948.5"/>
<text text-anchor="middle" x="399.9506" y="-962.3" font-family="lato, roboto, helvetica" font-size="14.00" fill="#eeeeee">Bezorg Meel Bij Bakker</text>
</g>
<!-- zet_molensteen_op_wagen -->
<g id="node18" class="node">
<title>zet_molensteen_op_wagen</title>
<path fill="#3333aa" stroke="#3333aa" d="M532.3394,-875.5C532.3394,-875.5 675.5618,-875.5 675.5618,-875.5 681.5618,-875.5 687.5618,-881.5 687.5618,-887.5 687.5618,-887.5 687.5618,-899.5 687.5618,-899.5 687.5618,-905.5 681.5618,-911.5 675.5618,-911.5 675.5618,-911.5 532.3394,-911.5 532.3394,-911.5 526.3394,-911.5 520.3394,-905.5 520.3394,-899.5 520.3394,-899.5 520.3394,-887.5 520.3394,-887.5 520.3394,-881.5 526.3394,-875.5 532.3394,-875.5"/>
<text text-anchor="middle" x="603.9506" y="-889.3" font-family="lato, roboto, helvetica" font-size="14.00" fill="#eeeeee">Zet Molensteen Op Wagen</text>
</g>
<!-- bezorg_meel_bij_bakker&#45;&gt;zet_molensteen_op_wagen -->
<g id="edge73" class="edge">
<title>bezorg_meel_bij_bakker&#45;&gt;zet_molensteen_op_wagen</title>
<path fill="none" stroke="#999999" d="M450.3776,-948.4551C479.188,-938.1454 515.4479,-925.1701 545.499,-914.4165"/>
<polygon fill="#999999" stroke="#999999" points="546.8079,-916.9221 553.3967,-911.5904 544.921,-911.6495 546.8079,-916.9221"/>
</g>
<!-- krijg_geld_van_meel -->
<g id="node43" class="node">
<title>krijg_geld_van_meel</title>
<path fill="#3333aa" stroke="#3333aa" d="M344.2777,-875.5C344.2777,-875.5 455.6235,-875.5 455.6235,-875.5 461.6235,-875.5 467.6235,-881.5 467.6235,-887.5 467.6235,-887.5 467.6235,-899.5 467.6235,-899.5 467.6235,-905.5 461.6235,-911.5 455.6235,-911.5 455.6235,-911.5 344.2777,-911.5 344.2777,-911.5 338.2777,-911.5 332.2777,-905.5 332.2777,-899.5 332.2777,-899.5 332.2777,-887.5 332.2777,-887.5 332.2777,-881.5 338.2777,-875.5 344.2777,-875.5"/>
<text text-anchor="middle" x="399.9506" y="-889.3" font-family="lato, roboto, helvetica" font-size="14.00" fill="#eeeeee">Krijg Geld Van Meel</text>
</g>
<!-- bezorg_meel_bij_bakker&#45;&gt;krijg_geld_van_meel -->
<g id="edge34" class="edge">
<title>bezorg_meel_bij_bakker&#45;&gt;krijg_geld_van_meel</title>
<path fill="none" stroke="#999999" d="M399.9506,-948.4551C399.9506,-939.7686 399.9506,-929.1898 399.9506,-919.642"/>
<polygon fill="#999999" stroke="#999999" points="402.7507,-919.5903 399.9506,-911.5904 397.1507,-919.5904 402.7507,-919.5903"/>
</g>
<!-- krijg_meel_bij_molenaar&#45;&gt;bezorg_meel_bij_bakker -->
<g id="edge7" class="edge">
<title>krijg_meel_bij_molenaar&#45;&gt;bezorg_meel_bij_bakker</title>
<path fill="none" stroke="#999999" d="M389.4113,-1021.4551C391.0772,-1012.7686 393.106,-1002.1898 394.9371,-992.642"/>
<polygon fill="#999999" stroke="#999999" points="397.7242,-992.9746 396.4812,-984.5904 392.2245,-991.9198 397.7242,-992.9746"/>
</g>
<!-- breng_dochter_naar_bakker -->
<g id="node12" class="node">
<title>breng_dochter_naar_bakker</title>
<path fill="#3333aa" stroke="#3333aa" d="M559.2398,-291.5C559.2398,-291.5 708.6614,-291.5 708.6614,-291.5 714.6614,-291.5 720.6614,-297.5 720.6614,-303.5 720.6614,-303.5 720.6614,-315.5 720.6614,-315.5 720.6614,-321.5 714.6614,-327.5 708.6614,-327.5 708.6614,-327.5 559.2398,-327.5 559.2398,-327.5 553.2398,-327.5 547.2398,-321.5 547.2398,-315.5 547.2398,-315.5 547.2398,-303.5 547.2398,-303.5 547.2398,-297.5 553.2398,-291.5 559.2398,-291.5"/>
<text text-anchor="middle" x="633.9506" y="-305.3" font-family="lato, roboto, helvetica" font-size="14.00" fill="#eeeeee">Breng Dochter Naar Bakker</text>
</g>
<!-- krijg_taart_van_bakker -->
<g id="node49" class="node">
<title>krijg_taart_van_bakker</title>
<path fill="#3333aa" stroke="#3333aa" d="M570.2861,-218.5C570.2861,-218.5 695.6151,-218.5 695.6151,-218.5 701.6151,-218.5 707.6151,-224.5 707.6151,-230.5 707.6151,-230.5 707.6151,-242.5 707.6151,-242.5 707.6151,-248.5 701.6151,-254.5 695.6151,-254.5 695.6151,-254.5 570.2861,-254.5 570.2861,-254.5 564.2861,-254.5 558.2861,-248.5 558.2861,-242.5 558.2861,-242.5 558.2861,-230.5 558.2861,-230.5 558.2861,-224.5 564.2861,-218.5 570.2861,-218.5"/>
<text text-anchor="middle" x="632.9506" y="-232.3" font-family="lato, roboto, helvetica" font-size="14.00" fill="#eeeeee">Krijg Taart Van Bakker</text>
</g>
<!-- breng_dochter_naar_bakker&#45;&gt;krijg_taart_van_bakker -->
<g id="edge44" class="edge">
<title>breng_dochter_naar_bakker&#45;&gt;krijg_taart_van_bakker</title>
<path fill="none" stroke="#999999" d="M633.7034,-291.4551C633.5844,-282.7686 633.4395,-272.1898 633.3087,-262.642"/>
<polygon fill="#999999" stroke="#999999" points="636.1078,-262.5512 633.1984,-254.5904 630.5084,-262.628 636.1078,-262.5512"/>
</g>
<!-- trek_tand_van_draak -->
<g id="node13" class="node">
<title>trek_tand_van_draak</title>
<path fill="#3333aa" stroke="#3333aa" d="M398.3443,-364.5C398.3443,-364.5 513.5569,-364.5 513.5569,-364.5 519.5569,-364.5 525.5569,-370.5 525.5569,-376.5 525.5569,-376.5 525.5569,-388.5 525.5569,-388.5 525.5569,-394.5 519.5569,-400.5 513.5569,-400.5 513.5569,-400.5 398.3443,-400.5 398.3443,-400.5 392.3443,-400.5 386.3443,-394.5 386.3443,-388.5 386.3443,-388.5 386.3443,-376.5 386.3443,-376.5 386.3443,-370.5 392.3443,-364.5 398.3443,-364.5"/>
<text text-anchor="middle" x="455.9506" y="-378.3" font-family="lato, roboto, helvetica" font-size="14.00" fill="#eeeeee">Trek Tand Van Draak</text>
</g>
<!-- trek_tand_van_draak&#45;&gt;breng_dochter_naar_bakker -->
<g id="edge8" class="edge">
<title>trek_tand_van_draak&#45;&gt;breng_dochter_naar_bakker</title>
<path fill="none" stroke="#999999" d="M499.9506,-364.4551C524.8752,-354.2332 556.1896,-341.3907 582.278,-330.6916"/>
<polygon fill="#999999" stroke="#999999" points="583.5006,-333.2166 589.8399,-327.5904 581.3757,-328.0354 583.5006,-333.2166"/>
</g>
<!-- zet_zadel_op_draak -->
<g id="node15" class="node">
<title>zet_zadel_op_draak</title>
<path fill="#3333aa" stroke="#3333aa" d="M410.784,-72.5C410.784,-72.5 515.1172,-72.5 515.1172,-72.5 521.1172,-72.5 527.1172,-78.5 527.1172,-84.5 527.1172,-84.5 527.1172,-96.5 527.1172,-96.5 527.1172,-102.5 521.1172,-108.5 515.1172,-108.5 515.1172,-108.5 410.784,-108.5 410.784,-108.5 404.784,-108.5 398.784,-102.5 398.784,-96.5 398.784,-96.5 398.784,-84.5 398.784,-84.5 398.784,-78.5 404.784,-72.5 410.784,-72.5"/>
<text text-anchor="middle" x="462.9506" y="-86.3" font-family="lato, roboto, helvetica" font-size="14.00" fill="#eeeeee">Zet Zadel Op Draak</text>
</g>
<!-- trek_tand_van_draak&#45;&gt;zet_zadel_op_draak -->
<g id="edge75" class="edge">
<title>trek_tand_van_draak&#45;&gt;zet_zadel_op_draak</title>
<path fill="none" stroke="#999999" d="M411.9207,-364.3618C396.76,-355.7299 381.4652,-343.7771 372.9506,-328 334.3227,-256.4249 333.0221,-215.8578 372.9506,-145 380.6633,-131.3129 393.3523,-120.6709 406.8033,-112.573"/>
<polygon fill="#999999" stroke="#999999" points="408.2997,-114.9434 413.8844,-108.5675 405.5426,-110.0692 408.2997,-114.9434"/>
</g>
<!-- pak_stuk_leer_in_toren -->
<g id="node32" class="node">
<title>pak_stuk_leer_in_toren</title>
<path fill="#3333aa" stroke="#3333aa" d="M394.25,-291.5C394.25,-291.5 517.6512,-291.5 517.6512,-291.5 523.6512,-291.5 529.6512,-297.5 529.6512,-303.5 529.6512,-303.5 529.6512,-315.5 529.6512,-315.5 529.6512,-321.5 523.6512,-327.5 517.6512,-327.5 517.6512,-327.5 394.25,-327.5 394.25,-327.5 388.25,-327.5 382.25,-321.5 382.25,-315.5 382.25,-315.5 382.25,-303.5 382.25,-303.5 382.25,-297.5 388.25,-291.5 394.25,-291.5"/>
<text text-anchor="middle" x="455.9506" y="-305.3" font-family="lato, roboto, helvetica" font-size="14.00" fill="#eeeeee">Pak Stuk Leer In Toren</text>
</g>
<!-- trek_tand_van_draak&#45;&gt;pak_stuk_leer_in_toren -->
<g id="edge50" class="edge">
<title>trek_tand_van_draak&#45;&gt;pak_stuk_leer_in_toren</title>
<path fill="none" stroke="#999999" d="M455.9506,-364.4551C455.9506,-355.7686 455.9506,-345.1898 455.9506,-335.642"/>
<polygon fill="#999999" stroke="#999999" points="458.7507,-335.5903 455.9506,-327.5904 453.1507,-335.5904 458.7507,-335.5903"/>
</g>
<!-- pak_tand_van_draak -->
<g id="node46" class="node">
<title>pak_tand_van_draak</title>
<path fill="#3333aa" stroke="#3333aa" d="M738.0596,-218.5C738.0596,-218.5 847.8416,-218.5 847.8416,-218.5 853.8416,-218.5 859.8416,-224.5 859.8416,-230.5 859.8416,-230.5 859.8416,-242.5 859.8416,-242.5 859.8416,-248.5 853.8416,-254.5 847.8416,-254.5 847.8416,-254.5 738.0596,-254.5 738.0596,-254.5 732.0596,-254.5 726.0596,-248.5 726.0596,-242.5 726.0596,-242.5 726.0596,-230.5 726.0596,-230.5 726.0596,-224.5 732.0596,-218.5 738.0596,-218.5"/>
<text text-anchor="middle" x="792.9506" y="-232.3" font-family="lato, roboto, helvetica" font-size="14.00" fill="#eeeeee">Pak Tand Van Draak</text>
</g>
<!-- trek_tand_van_draak&#45;&gt;pak_tand_van_draak -->
<g id="edge52" class="edge">
<title>trek_tand_van_draak&#45;&gt;pak_tand_van_draak</title>
<path fill="none" stroke="#999999" d="M525.7299,-374.6702C595.5031,-365.7849 697.0328,-349.6646 729.9506,-328 754.1995,-312.0407 771.7124,-283.2177 782.0275,-262.1743"/>
<polygon fill="#999999" stroke="#999999" points="784.6199,-263.2416 785.5014,-254.8117 779.5553,-260.852 784.6199,-263.2416"/>
</g>
<!-- breng_medicijnen_naar_koning -->
<g id="node14" class="node">
<title>breng_medicijnen_naar_koning</title>
<polygon fill="#333333" stroke="#333333" points="508.9506,-36 320.1095,-18 508.9506,0 697.7917,-18 508.9506,-36"/>
<polyline fill="none" stroke="#333333" points="332.0553,-19.1387 332.0553,-16.8613 "/>
<polyline fill="none" stroke="#333333" points="497.0047,-1.1387 520.8965,-1.1387 "/>
<polyline fill="none" stroke="#333333" points="685.8459,-16.8613 685.8459,-19.1387 "/>
<polyline fill="none" stroke="#333333" points="520.8965,-34.8613 497.0047,-34.8613 "/>
<text text-anchor="middle" x="508.9506" y="-13.8" font-family="lato, roboto, helvetica" font-size="14.00" fill="#dddddd">Breng Medicijnen Naar Koning</text>
</g>
<!-- zet_zadel_op_draak&#45;&gt;breng_medicijnen_naar_koning -->
<g id="edge9" class="edge">
<title>zet_zadel_op_draak&#45;&gt;breng_medicijnen_naar_koning</title>
<path fill="none" stroke="#999999" d="M474.5583,-72.2052C480.3838,-63.0238 487.5137,-51.7864 493.7682,-41.9287"/>
<polygon fill="#999999" stroke="#999999" points="496.2148,-43.299 498.1366,-35.0438 491.4863,-40.2988 496.2148,-43.299"/>
</g>
<!-- krijg_medicijn_van_heks -->
<g id="node16" class="node">
<title>krijg_medicijn_van_heks</title>
<path fill="#3333aa" stroke="#3333aa" d="M725.6101,-145.5C725.6101,-145.5 860.2911,-145.5 860.2911,-145.5 866.2911,-145.5 872.2911,-151.5 872.2911,-157.5 872.2911,-157.5 872.2911,-169.5 872.2911,-169.5 872.2911,-175.5 866.2911,-181.5 860.2911,-181.5 860.2911,-181.5 725.6101,-181.5 725.6101,-181.5 719.6101,-181.5 713.6101,-175.5 713.6101,-169.5 713.6101,-169.5 713.6101,-157.5 713.6101,-157.5 713.6101,-151.5 719.6101,-145.5 725.6101,-145.5"/>
<text text-anchor="middle" x="792.9506" y="-159.3" font-family="lato, roboto, helvetica" font-size="14.00" fill="#eeeeee">Krijg Medicijn Van Heks</text>
</g>
<!-- krijg_medicijn_van_heks&#45;&gt;breng_medicijnen_naar_koning -->
<g id="edge10" class="edge">
<title>krijg_medicijn_van_heks&#45;&gt;breng_medicijnen_naar_koning</title>
<path fill="none" stroke="#999999" d="M757.556,-145.3665C703.5907,-117.7188 601.2164,-65.27 546.1779,-37.0724"/>
<polygon fill="#999999" stroke="#999999" points="547.1325,-34.4155 538.7358,-33.2597 544.5791,-39.3995 547.1325,-34.4155"/>
</g>
<!-- breng_molensteen_naar_toren -->
<g id="node17" class="node">
<title>breng_molensteen_naar_toren</title>
<path fill="#3333aa" stroke="#3333aa" d="M540.6255,-729.5C540.6255,-729.5 703.2757,-729.5 703.2757,-729.5 709.2757,-729.5 715.2757,-735.5 715.2757,-741.5 715.2757,-741.5 715.2757,-753.5 715.2757,-753.5 715.2757,-759.5 709.2757,-765.5 703.2757,-765.5 703.2757,-765.5 540.6255,-765.5 540.6255,-765.5 534.6255,-765.5 528.6255,-759.5 528.6255,-753.5 528.6255,-753.5 528.6255,-741.5 528.6255,-741.5 528.6255,-735.5 534.6255,-729.5 540.6255,-729.5"/>
<text text-anchor="middle" x="621.9506" y="-743.3" font-family="lato, roboto, helvetica" font-size="14.00" fill="#eeeeee">Breng Molensteen Naar Toren</text>
</g>
<!-- leg_molensteen_op_lift -->
<g id="node38" class="node">
<title>leg_molensteen_op_lift</title>
<path fill="#3333aa" stroke="#3333aa" d="M503.1094,-583.5C503.1094,-583.5 630.7918,-583.5 630.7918,-583.5 636.7918,-583.5 642.7918,-589.5 642.7918,-595.5 642.7918,-595.5 642.7918,-607.5 642.7918,-607.5 642.7918,-613.5 636.7918,-619.5 630.7918,-619.5 630.7918,-619.5 503.1094,-619.5 503.1094,-619.5 497.1094,-619.5 491.1094,-613.5 491.1094,-607.5 491.1094,-607.5 491.1094,-595.5 491.1094,-595.5 491.1094,-589.5 497.1094,-583.5 503.1094,-583.5"/>
<text text-anchor="middle" x="566.9506" y="-597.3" font-family="lato, roboto, helvetica" font-size="14.00" fill="#eeeeee">Leg Molensteen Op Lift</text>
</g>
<!-- breng_molensteen_naar_toren&#45;&gt;leg_molensteen_op_lift -->
<g id="edge45" class="edge">
<title>breng_molensteen_naar_toren&#45;&gt;leg_molensteen_op_lift</title>
<path fill="none" stroke="#999999" d="M622.0626,-729.2381C621.5698,-710.2315 619.0453,-679.9525 608.9506,-656 604.3962,-645.1934 597.1584,-634.6604 589.965,-625.7803"/>
<polygon fill="#999999" stroke="#999999" points="592.0723,-623.9359 584.7739,-619.6261 587.7917,-627.5465 592.0723,-623.9359"/>
</g>
<!-- zet_molensteen_op_wagen&#45;&gt;breng_molensteen_naar_toren -->
<g id="edge11" class="edge">
<title>zet_molensteen_op_wagen&#45;&gt;breng_molensteen_naar_toren</title>
<path fill="none" stroke="#999999" d="M606.1939,-875.3042C609.3333,-849.8403 615.0575,-803.4108 618.6741,-774.0759"/>
<polygon fill="#999999" stroke="#999999" points="621.479,-774.2076 619.679,-765.9251 615.9211,-773.5224 621.479,-774.2076"/>
</g>
<!-- breng_paard_naar_hoefsmid -->
<g id="node19" class="node">
<title>breng_paard_naar_hoefsmid</title>
<path fill="#3333aa" stroke="#3333aa" d="M267.4565,-1386.5C267.4565,-1386.5 418.4447,-1386.5 418.4447,-1386.5 424.4447,-1386.5 430.4447,-1392.5 430.4447,-1398.5 430.4447,-1398.5 430.4447,-1410.5 430.4447,-1410.5 430.4447,-1416.5 424.4447,-1422.5 418.4447,-1422.5 418.4447,-1422.5 267.4565,-1422.5 267.4565,-1422.5 261.4565,-1422.5 255.4565,-1416.5 255.4565,-1410.5 255.4565,-1410.5 255.4565,-1398.5 255.4565,-1398.5 255.4565,-1392.5 261.4565,-1386.5 267.4565,-1386.5"/>
<text text-anchor="middle" x="342.9506" y="-1400.3" font-family="lato, roboto, helvetica" font-size="14.00" fill="#eeeeee">Breng Paard Naar Hoefsmid</text>
</g>
<!-- breng_paard_naar_hoefsmid&#45;&gt;geef_paard_nieuwe_hoefijzers -->
<g id="edge20" class="edge">
<title>breng_paard_naar_hoefsmid&#45;&gt;geef_paard_nieuwe_hoefijzers</title>
<path fill="none" stroke="#999999" d="M354.0742,-1386.4551C359.6452,-1377.4177 366.4789,-1366.3319 372.5458,-1356.4899"/>
<polygon fill="#999999" stroke="#999999" points="374.9845,-1357.8697 376.799,-1349.5904 370.2175,-1354.9311 374.9845,-1357.8697"/>
</g>
<!-- praat_met_boer&#45;&gt;zet_graan_op_wagen -->
<g id="edge71" class="edge">
<title>praat_met_boer&#45;&gt;zet_graan_op_wagen</title>
<path fill="none" stroke="#999999" d="M291.9625,-1460.7713C274.5329,-1452.3318 256.9309,-1440.1423 246.9506,-1423 226.9098,-1388.5775 182.4791,-1344.2704 252.9506,-1240 263.7876,-1223.9655 280.5404,-1212.5859 298.16,-1204.5327"/>
<polygon fill="#999999" stroke="#999999" points="299.4987,-1207.0053 305.7496,-1201.2811 297.2933,-1201.8579 299.4987,-1207.0053"/>
</g>
<!-- praat_met_boer&#45;&gt;breng_paard_naar_hoefsmid -->
<g id="edge12" class="edge">
<title>praat_met_boer&#45;&gt;breng_paard_naar_hoefsmid</title>
<path fill="none" stroke="#999999" d="M342.9506,-1459.4551C342.9506,-1450.7686 342.9506,-1440.1898 342.9506,-1430.642"/>
<polygon fill="#999999" stroke="#999999" points="345.7507,-1430.5903 342.9506,-1422.5904 340.1507,-1430.5904 345.7507,-1430.5903"/>
</g>
<!-- ga_naar_hut_in_moeras -->
<g id="node21" class="node">
<title>ga_naar_hut_in_moeras</title>
<path fill="#3333aa" stroke="#3333aa" d="M1100.8734,-1313.5C1100.8734,-1313.5 1225.0278,-1313.5 1225.0278,-1313.5 1231.0278,-1313.5 1237.0278,-1319.5 1237.0278,-1325.5 1237.0278,-1325.5 1237.0278,-1337.5 1237.0278,-1337.5 1237.0278,-1343.5 1231.0278,-1349.5 1225.0278,-1349.5 1225.0278,-1349.5 1100.8734,-1349.5 1100.8734,-1349.5 1094.8734,-1349.5 1088.8734,-1343.5 1088.8734,-1337.5 1088.8734,-1337.5 1088.8734,-1325.5 1088.8734,-1325.5 1088.8734,-1319.5 1094.8734,-1313.5 1100.8734,-1313.5"/>
<text text-anchor="middle" x="1162.9506" y="-1327.3" font-family="lato, roboto, helvetica" font-size="14.00" fill="#eeeeee">Ga Naar Hut In Moeras</text>
</g>
<!-- praat_met_heks -->
<g id="node27" class="node">
<title>praat_met_heks</title>
<path fill="#3333aa" stroke="#3333aa" d="M1070.4113,-1240.5C1070.4113,-1240.5 1149.4899,-1240.5 1149.4899,-1240.5 1155.4899,-1240.5 1161.4899,-1246.5 1161.4899,-1252.5 1161.4899,-1252.5 1161.4899,-1264.5 1161.4899,-1264.5 1161.4899,-1270.5 1155.4899,-1276.5 1149.4899,-1276.5 1149.4899,-1276.5 1070.4113,-1276.5 1070.4113,-1276.5 1064.4113,-1276.5 1058.4113,-1270.5 1058.4113,-1264.5 1058.4113,-1264.5 1058.4113,-1252.5 1058.4113,-1252.5 1058.4113,-1246.5 1064.4113,-1240.5 1070.4113,-1240.5"/>
<text text-anchor="middle" x="1109.9506" y="-1254.3" font-family="lato, roboto, helvetica" font-size="14.00" fill="#eeeeee">Praat Met Heks</text>
</g>
<!-- ga_naar_hut_in_moeras&#45;&gt;praat_met_heks -->
<g id="edge60" class="edge">
<title>ga_naar_hut_in_moeras&#45;&gt;praat_met_heks</title>
<path fill="none" stroke="#999999" d="M1149.8495,-1313.4551C1143.2244,-1304.3299 1135.0831,-1293.1165 1127.8861,-1283.2036"/>
<polygon fill="#999999" stroke="#999999" points="1130.0506,-1281.4191 1123.0847,-1276.5904 1125.519,-1284.7091 1130.0506,-1281.4191"/>
</g>
<!-- praat_met_bakker&#45;&gt;ga_naar_hut_in_moeras -->
<g id="edge13" class="edge">
<title>praat_met_bakker&#45;&gt;ga_naar_hut_in_moeras</title>
<path fill="none" stroke="#999999" d="M1211.096,-1459.3042C1201.4623,-1433.7311 1183.8626,-1387.0119 1172.8202,-1357.6992"/>
<polygon fill="#999999" stroke="#999999" points="1175.3321,-1356.4244 1169.8916,-1349.9251 1170.0916,-1358.3986 1175.3321,-1356.4244"/>
</g>
<!-- geef_dwerg_eten -->
<g id="node23" class="node">
<title>geef_dwerg_eten</title>
<path fill="#3333aa" stroke="#3333aa" d="M759.9793,-1313.5C759.9793,-1313.5 849.9219,-1313.5 849.9219,-1313.5 855.9219,-1313.5 861.9219,-1319.5 861.9219,-1325.5 861.9219,-1325.5 861.9219,-1337.5 861.9219,-1337.5 861.9219,-1343.5 855.9219,-1349.5 849.9219,-1349.5 849.9219,-1349.5 759.9793,-1349.5 759.9793,-1349.5 753.9793,-1349.5 747.9793,-1343.5 747.9793,-1337.5 747.9793,-1337.5 747.9793,-1325.5 747.9793,-1325.5 747.9793,-1319.5 753.9793,-1313.5 759.9793,-1313.5"/>
<text text-anchor="middle" x="804.9506" y="-1327.3" font-family="lato, roboto, helvetica" font-size="14.00" fill="#eeeeee">Geef Dwerg Eten</text>
</g>
<!-- krijg_edelsteen_van_dwerg -->
<g id="node28" class="node">
<title>krijg_edelsteen_van_dwerg</title>
<path fill="#3333aa" stroke="#3333aa" d="M881.0105,-1240.5C881.0105,-1240.5 1028.8907,-1240.5 1028.8907,-1240.5 1034.8907,-1240.5 1040.8907,-1246.5 1040.8907,-1252.5 1040.8907,-1252.5 1040.8907,-1264.5 1040.8907,-1264.5 1040.8907,-1270.5 1034.8907,-1276.5 1028.8907,-1276.5 1028.8907,-1276.5 881.0105,-1276.5 881.0105,-1276.5 875.0105,-1276.5 869.0105,-1270.5 869.0105,-1264.5 869.0105,-1264.5 869.0105,-1252.5 869.0105,-1252.5 869.0105,-1246.5 875.0105,-1240.5 881.0105,-1240.5"/>
<text text-anchor="middle" x="954.9506" y="-1254.3" font-family="lato, roboto, helvetica" font-size="14.00" fill="#eeeeee">Krijg Edelsteen Van Dwerg</text>
</g>
<!-- geef_dwerg_eten&#45;&gt;krijg_edelsteen_van_dwerg -->
<g id="edge33" class="edge">
<title>geef_dwerg_eten&#45;&gt;krijg_edelsteen_van_dwerg</title>
<path fill="none" stroke="#999999" d="M842.0293,-1313.4551C862.7627,-1303.3648 888.7431,-1290.721 910.555,-1280.1059"/>
<polygon fill="#999999" stroke="#999999" points="911.8105,-1282.6089 917.7786,-1276.5904 909.36,-1277.5735 911.8105,-1282.6089"/>
</g>
<!-- pak_hendel_in_mijn -->
<g id="node52" class="node">
<title>pak_hendel_in_mijn</title>
<path fill="#3333aa" stroke="#3333aa" d="M733.5456,-1240.5C733.5456,-1240.5 836.3556,-1240.5 836.3556,-1240.5 842.3556,-1240.5 848.3556,-1246.5 848.3556,-1252.5 848.3556,-1252.5 848.3556,-1264.5 848.3556,-1264.5 848.3556,-1270.5 842.3556,-1276.5 836.3556,-1276.5 836.3556,-1276.5 733.5456,-1276.5 733.5456,-1276.5 727.5456,-1276.5 721.5456,-1270.5 721.5456,-1264.5 721.5456,-1264.5 721.5456,-1252.5 721.5456,-1252.5 721.5456,-1246.5 727.5456,-1240.5 733.5456,-1240.5"/>
<text text-anchor="middle" x="784.9506" y="-1254.3" font-family="lato, roboto, helvetica" font-size="14.00" fill="#eeeeee">Pak Hendel In Mijn</text>
</g>
<!-- geef_dwerg_eten&#45;&gt;pak_hendel_in_mijn -->
<g id="edge48" class="edge">
<title>geef_dwerg_eten&#45;&gt;pak_hendel_in_mijn</title>
<path fill="none" stroke="#999999" d="M800.0068,-1313.4551C797.6029,-1304.6809 794.67,-1293.9759 792.0336,-1284.353"/>
<polygon fill="#999999" stroke="#999999" points="794.7213,-1283.5661 789.9069,-1276.5904 789.3203,-1285.0459 794.7213,-1283.5661"/>
</g>
<!-- praat_met_dwerg&#45;&gt;geef_dwerg_eten -->
<g id="edge14" class="edge">
<title>praat_met_dwerg&#45;&gt;geef_dwerg_eten</title>
<path fill="none" stroke="#999999" d="M880.0728,-1532.3394C880.0563,-1495.0551 878.5667,-1411.2567 865.9506,-1386 859.9069,-1373.9009 849.918,-1363.2614 839.7556,-1354.67"/>
<polygon fill="#999999" stroke="#999999" points="841.4283,-1352.4221 833.4393,-1349.5906 837.9188,-1356.786 841.4283,-1352.4221"/>
</g>
<!-- krijg_kapotte_houweel_van_dwerg -->
<g id="node45" class="node">
<title>krijg_kapotte_houweel_van_dwerg</title>
<path fill="#3333aa" stroke="#3333aa" d="M901.0466,-1459.5C901.0466,-1459.5 1092.8546,-1459.5 1092.8546,-1459.5 1098.8546,-1459.5 1104.8546,-1465.5 1104.8546,-1471.5 1104.8546,-1471.5 1104.8546,-1483.5 1104.8546,-1483.5 1104.8546,-1489.5 1098.8546,-1495.5 1092.8546,-1495.5 1092.8546,-1495.5 901.0466,-1495.5 901.0466,-1495.5 895.0466,-1495.5 889.0466,-1489.5 889.0466,-1483.5 889.0466,-1483.5 889.0466,-1471.5 889.0466,-1471.5 889.0466,-1465.5 895.0466,-1459.5 901.0466,-1459.5"/>
<text text-anchor="middle" x="996.9506" y="-1473.3" font-family="lato, roboto, helvetica" font-size="14.00" fill="#eeeeee">Krijg Kapotte Houweel Van Dwerg</text>
</g>
<!-- praat_met_dwerg&#45;&gt;krijg_kapotte_houweel_van_dwerg -->
<g id="edge37" class="edge">
<title>praat_met_dwerg&#45;&gt;krijg_kapotte_houweel_van_dwerg</title>
<path fill="none" stroke="#999999" d="M908.872,-1532.4551C924.6222,-1522.628 944.2542,-1510.3789 960.984,-1499.9407"/>
<polygon fill="#999999" stroke="#999999" points="962.6514,-1502.2007 967.9565,-1495.5904 959.687,-1497.4496 962.6514,-1502.2007"/>
</g>
<!-- koop_eten_bij_bakker -->
<g id="node25" class="node">
<title>koop_eten_bij_bakker</title>
<path fill="#3333aa" stroke="#3333aa" d="M728.5463,-1386.5C728.5463,-1386.5 845.3549,-1386.5 845.3549,-1386.5 851.3549,-1386.5 857.3549,-1392.5 857.3549,-1398.5 857.3549,-1398.5 857.3549,-1410.5 857.3549,-1410.5 857.3549,-1416.5 851.3549,-1422.5 845.3549,-1422.5 845.3549,-1422.5 728.5463,-1422.5 728.5463,-1422.5 722.5463,-1422.5 716.5463,-1416.5 716.5463,-1410.5 716.5463,-1410.5 716.5463,-1398.5 716.5463,-1398.5 716.5463,-1392.5 722.5463,-1386.5 728.5463,-1386.5"/>
<text text-anchor="middle" x="786.9506" y="-1400.3" font-family="lato, roboto, helvetica" font-size="14.00" fill="#eeeeee">Koop Eten Bij Bakker</text>
</g>
<!-- koop_eten_bij_bakker&#45;&gt;geef_dwerg_eten -->
<g id="edge15" class="edge">
<title>koop_eten_bij_bakker&#45;&gt;geef_dwerg_eten</title>
<path fill="none" stroke="#999999" d="M791.4,-1386.4551C793.5419,-1377.7686 796.1504,-1367.1898 798.5046,-1357.642"/>
<polygon fill="#999999" stroke="#999999" points="801.2932,-1358.0281 800.49,-1349.5904 795.8561,-1356.6874 801.2932,-1358.0281"/>
</g>
<!-- geef_edelsteen_aan_heks -->
<g id="node26" class="node">
<title>geef_edelsteen_aan_heks</title>
<path fill="#3333aa" stroke="#3333aa" d="M898.8478,-1167.5C898.8478,-1167.5 1035.0534,-1167.5 1035.0534,-1167.5 1041.0534,-1167.5 1047.0534,-1173.5 1047.0534,-1179.5 1047.0534,-1179.5 1047.0534,-1191.5 1047.0534,-1191.5 1047.0534,-1197.5 1041.0534,-1203.5 1035.0534,-1203.5 1035.0534,-1203.5 898.8478,-1203.5 898.8478,-1203.5 892.8478,-1203.5 886.8478,-1197.5 886.8478,-1191.5 886.8478,-1191.5 886.8478,-1179.5 886.8478,-1179.5 886.8478,-1173.5 892.8478,-1167.5 898.8478,-1167.5"/>
<text text-anchor="middle" x="966.9506" y="-1181.3" font-family="lato, roboto, helvetica" font-size="14.00" fill="#eeeeee">Geef Edelsteen Aan Heks</text>
</g>
<!-- krijg_ingredientenlijst_van_heks -->
<g id="node44" class="node">
<title>krijg_ingredientenlijst_van_heks</title>
<path fill="#3333aa" stroke="#3333aa" d="M879.0063,-291.5C879.0063,-291.5 1054.8949,-291.5 1054.8949,-291.5 1060.8949,-291.5 1066.8949,-297.5 1066.8949,-303.5 1066.8949,-303.5 1066.8949,-315.5 1066.8949,-315.5 1066.8949,-321.5 1060.8949,-327.5 1054.8949,-327.5 1054.8949,-327.5 879.0063,-327.5 879.0063,-327.5 873.0063,-327.5 867.0063,-321.5 867.0063,-315.5 867.0063,-315.5 867.0063,-303.5 867.0063,-303.5 867.0063,-297.5 873.0063,-291.5 879.0063,-291.5"/>
<text text-anchor="middle" x="966.9506" y="-305.3" font-family="lato, roboto, helvetica" font-size="14.00" fill="#eeeeee">Krijg Ingredientenlijst Van Heks</text>
</g>
<!-- geef_edelsteen_aan_heks&#45;&gt;krijg_ingredientenlijst_van_heks -->
<g id="edge36" class="edge">
<title>geef_edelsteen_aan_heks&#45;&gt;krijg_ingredientenlijst_van_heks</title>
<path fill="none" stroke="#999999" d="M966.9506,-1167.062C966.9506,-1139.3663 966.9506,-1085.3785 966.9506,-1039.5 966.9506,-1039.5 966.9506,-1039.5 966.9506,-455.5 966.9506,-413.7434 966.9506,-365.2692 966.9506,-336.0145"/>
<polygon fill="#999999" stroke="#999999" points="969.7507,-335.9379 966.9506,-327.938 964.1507,-335.938 969.7507,-335.9379"/>
</g>
<!-- praat_met_heks&#45;&gt;geef_edelsteen_aan_heks -->
<g id="edge16" class="edge">
<title>praat_met_heks&#45;&gt;geef_edelsteen_aan_heks</title>
<path fill="none" stroke="#999999" d="M1074.6023,-1240.4551C1054.9223,-1230.4087 1030.2837,-1217.8309 1009.5459,-1207.2445"/>
<polygon fill="#999999" stroke="#999999" points="1010.7863,-1204.7339 1002.3879,-1203.5904 1008.2401,-1209.7216 1010.7863,-1204.7339"/>
</g>
<!-- praat_met_heks&#45;&gt;krijg_ingredientenlijst_van_heks -->
<g id="edge35" class="edge">
<title>praat_met_heks&#45;&gt;krijg_ingredientenlijst_van_heks</title>
<path fill="none" stroke="#999999" d="M1107.4642,-1240.1019C1103.9493,-1212.457 1097.9506,-1158.5332 1097.9506,-1112.5 1097.9506,-1112.5 1097.9506,-1112.5 1097.9506,-455.5 1097.9506,-400.5182 1045.8463,-356.8165 1007.3588,-332.0355"/>
<polygon fill="#999999" stroke="#999999" points="1008.61,-329.515 1000.3464,-327.6301 1005.631,-334.2569 1008.61,-329.515"/>
</g>
<!-- krijg_edelsteen_van_dwerg&#45;&gt;geef_edelsteen_aan_heks -->
<g id="edge17" class="edge">
<title>krijg_edelsteen_van_dwerg&#45;&gt;geef_edelsteen_aan_heks</title>
<path fill="none" stroke="#999999" d="M957.9169,-1240.4551C959.3448,-1231.7686 961.0838,-1221.1898 962.6533,-1211.642"/>
<polygon fill="#999999" stroke="#999999" points="965.442,-1211.9386 963.9768,-1203.5904 959.9162,-1211.0302 965.442,-1211.9386"/>
</g>
<!-- geef_houweel_aan_dwerg -->
<g id="node29" class="node">
<title>geef_houweel_aan_dwerg</title>
<path fill="#3333aa" stroke="#3333aa" d="M906.1311,-1313.5C906.1311,-1313.5 1047.7701,-1313.5 1047.7701,-1313.5 1053.7701,-1313.5 1059.7701,-1319.5 1059.7701,-1325.5 1059.7701,-1325.5 1059.7701,-1337.5 1059.7701,-1337.5 1059.7701,-1343.5 1053.7701,-1349.5 1047.7701,-1349.5 1047.7701,-1349.5 906.1311,-1349.5 906.1311,-1349.5 900.1311,-1349.5 894.1311,-1343.5 894.1311,-1337.5 894.1311,-1337.5 894.1311,-1325.5 894.1311,-1325.5 894.1311,-1319.5 900.1311,-1313.5 906.1311,-1313.5"/>
<text text-anchor="middle" x="976.9506" y="-1327.3" font-family="lato, roboto, helvetica" font-size="14.00" fill="#eeeeee">Geef Houweel Aan Dwerg</text>
</g>
<!-- geef_houweel_aan_dwerg&#45;&gt;krijg_edelsteen_van_dwerg -->
<g id="edge32" class="edge">
<title>geef_houweel_aan_dwerg&#45;&gt;krijg_edelsteen_van_dwerg</title>
<path fill="none" stroke="#999999" d="M971.5124,-1313.4551C968.8681,-1304.6809 965.642,-1293.9759 962.7419,-1284.353"/>
<polygon fill="#999999" stroke="#999999" points="965.3919,-1283.4421 960.4025,-1276.5904 960.0301,-1285.058 965.3919,-1283.4421"/>
</g>
<!-- repareer_houweel -->
<g id="node30" class="node">
<title>repareer_houweel</title>
<path fill="#3333aa" stroke="#3333aa" d="M948.676,-1386.5C948.676,-1386.5 1045.2252,-1386.5 1045.2252,-1386.5 1051.2252,-1386.5 1057.2252,-1392.5 1057.2252,-1398.5 1057.2252,-1398.5 1057.2252,-1410.5 1057.2252,-1410.5 1057.2252,-1416.5 1051.2252,-1422.5 1045.2252,-1422.5 1045.2252,-1422.5 948.676,-1422.5 948.676,-1422.5 942.676,-1422.5 936.676,-1416.5 936.676,-1410.5 936.676,-1410.5 936.676,-1398.5 936.676,-1398.5 936.676,-1392.5 942.676,-1386.5 948.676,-1386.5"/>
<text text-anchor="middle" x="996.9506" y="-1400.3" font-family="lato, roboto, helvetica" font-size="14.00" fill="#eeeeee">Repareer Houweel</text>
</g>
<!-- repareer_houweel&#45;&gt;geef_houweel_aan_dwerg -->
<g id="edge18" class="edge">
<title>repareer_houweel&#45;&gt;geef_houweel_aan_dwerg</title>
<path fill="none" stroke="#999999" d="M992.0068,-1386.4551C989.6029,-1377.6809 986.67,-1366.9759 984.0336,-1357.353"/>
<polygon fill="#999999" stroke="#999999" points="986.7213,-1356.5661 981.9069,-1349.5904 981.3203,-1358.0459 986.7213,-1356.5661"/>
</g>
<!-- geef_leer_aan_hoefsmid -->
<g id="node31" class="node">
<title>geef_leer_aan_hoefsmid</title>
<path fill="#3333aa" stroke="#3333aa" d="M394.0168,-218.5C394.0168,-218.5 527.8844,-218.5 527.8844,-218.5 533.8844,-218.5 539.8844,-224.5 539.8844,-230.5 539.8844,-230.5 539.8844,-242.5 539.8844,-242.5 539.8844,-248.5 533.8844,-254.5 527.8844,-254.5 527.8844,-254.5 394.0168,-254.5 394.0168,-254.5 388.0168,-254.5 382.0168,-248.5 382.0168,-242.5 382.0168,-242.5 382.0168,-230.5 382.0168,-230.5 382.0168,-224.5 388.0168,-218.5 394.0168,-218.5"/>
<text text-anchor="middle" x="460.9506" y="-232.3" font-family="lato, roboto, helvetica" font-size="14.00" fill="#eeeeee">Geef Leer Aan Hoefsmid</text>
</g>
<!-- maak_zadel_bij_hoefsmid -->
<g id="node51" class="node">
<title>maak_zadel_bij_hoefsmid</title>
<path fill="#3333aa" stroke="#3333aa" d="M393.6648,-145.5C393.6648,-145.5 532.2364,-145.5 532.2364,-145.5 538.2364,-145.5 544.2364,-151.5 544.2364,-157.5 544.2364,-157.5 544.2364,-169.5 544.2364,-169.5 544.2364,-175.5 538.2364,-181.5 532.2364,-181.5 532.2364,-181.5 393.6648,-181.5 393.6648,-181.5 387.6648,-181.5 381.6648,-175.5 381.6648,-169.5 381.6648,-169.5 381.6648,-157.5 381.6648,-157.5 381.6648,-151.5 387.6648,-145.5 393.6648,-145.5"/>
<text text-anchor="middle" x="462.9506" y="-159.3" font-family="lato, roboto, helvetica" font-size="14.00" fill="#eeeeee">Maak Zadel Bij Hoefsmid</text>
</g>
<!-- geef_leer_aan_hoefsmid&#45;&gt;maak_zadel_bij_hoefsmid -->
<g id="edge47" class="edge">
<title>geef_leer_aan_hoefsmid&#45;&gt;maak_zadel_bij_hoefsmid</title>
<path fill="none" stroke="#999999" d="M461.445,-218.4551C461.683,-209.7686 461.9728,-199.1898 462.2344,-189.642"/>
<polygon fill="#999999" stroke="#999999" points="465.0347,-189.6641 462.455,-181.5904 459.4368,-189.5106 465.0347,-189.6641"/>
</g>
<!-- pak_stuk_leer_in_toren&#45;&gt;geef_leer_aan_hoefsmid -->
<g id="edge19" class="edge">
<title>pak_stuk_leer_in_toren&#45;&gt;geef_leer_aan_hoefsmid</title>
<path fill="none" stroke="#999999" d="M457.1866,-291.4551C457.7815,-282.7686 458.5061,-272.1898 459.1601,-262.642"/>
<polygon fill="#999999" stroke="#999999" points="461.9582,-262.763 459.7115,-254.5904 456.3713,-262.3803 461.9582,-262.763"/>
</g>
<!-- haal_wagen_bij_molenaar_met_paard -->
<g id="node34" class="node">
<title>haal_wagen_bij_molenaar_met_paard</title>
<path fill="#3333aa" stroke="#3333aa" d="M273.5757,-1240.5C273.5757,-1240.5 474.3255,-1240.5 474.3255,-1240.5 480.3255,-1240.5 486.3255,-1246.5 486.3255,-1252.5 486.3255,-1252.5 486.3255,-1264.5 486.3255,-1264.5 486.3255,-1270.5 480.3255,-1276.5 474.3255,-1276.5 474.3255,-1276.5 273.5757,-1276.5 273.5757,-1276.5 267.5757,-1276.5 261.5757,-1270.5 261.5757,-1264.5 261.5757,-1264.5 261.5757,-1252.5 261.5757,-1252.5 261.5757,-1246.5 267.5757,-1240.5 273.5757,-1240.5"/>
<text text-anchor="middle" x="373.9506" y="-1254.3" font-family="lato, roboto, helvetica" font-size="14.00" fill="#eeeeee">Haal Wagen Bij Molenaar Met Paard</text>
</g>
<!-- geef_paard_nieuwe_hoefijzers&#45;&gt;haal_wagen_bij_molenaar_met_paard -->
<g id="edge22" class="edge">
<title>geef_paard_nieuwe_hoefijzers&#45;&gt;haal_wagen_bij_molenaar_met_paard</title>
<path fill="none" stroke="#999999" d="M384.4899,-1313.4551C382.824,-1304.7686 380.7952,-1294.1898 378.9641,-1284.642"/>
<polygon fill="#999999" stroke="#999999" points="381.6767,-1283.9198 377.42,-1276.5904 376.177,-1284.9746 381.6767,-1283.9198"/>
</g>
<!-- haal_wagen_bij_molenaar_met_paard&#45;&gt;zet_graan_op_wagen -->
<g id="edge70" class="edge">
<title>haal_wagen_bij_molenaar_met_paard&#45;&gt;zet_graan_op_wagen</title>
<path fill="none" stroke="#999999" d="M373.9506,-1240.4551C373.9506,-1231.7686 373.9506,-1221.1898 373.9506,-1211.642"/>
<polygon fill="#999999" stroke="#999999" points="376.7507,-1211.5903 373.9506,-1203.5904 371.1507,-1211.5904 376.7507,-1211.5903"/>
</g>
<!-- praat_met_molenaar&#45;&gt;haal_wagen_bij_molenaar_met_paard -->
<g id="edge23" class="edge">
<title>praat_met_molenaar&#45;&gt;haal_wagen_bij_molenaar_met_paard</title>
<path fill="none" stroke="#999999" d="M165.3461,-1386.4334C195.3947,-1367.9689 243.4163,-1338.4699 284.9506,-1313 302.095,-1302.4866 321.1043,-1290.8441 337.1381,-1281.0282"/>
<polygon fill="#999999" stroke="#999999" points="338.917,-1283.2222 344.2782,-1276.6573 335.9932,-1278.4461 338.917,-1283.2222"/>
</g>
<!-- hijs_lift_met_molensteen -->
<g id="node36" class="node">
<title>hijs_lift_met_molensteen</title>
<path fill="#3333aa" stroke="#3333aa" d="M499.6052,-510.5C499.6052,-510.5 634.296,-510.5 634.296,-510.5 640.296,-510.5 646.296,-516.5 646.296,-522.5 646.296,-522.5 646.296,-534.5 646.296,-534.5 646.296,-540.5 640.296,-546.5 634.296,-546.5 634.296,-546.5 499.6052,-546.5 499.6052,-546.5 493.6052,-546.5 487.6052,-540.5 487.6052,-534.5 487.6052,-534.5 487.6052,-522.5 487.6052,-522.5 487.6052,-516.5 493.6052,-510.5 499.6052,-510.5"/>
<text text-anchor="middle" x="566.9506" y="-524.3" font-family="lato, roboto, helvetica" font-size="14.00" fill="#eeeeee">Hijs Lift Met Molensteen</text>
</g>
<!-- hijs_lift_met_molensteen&#45;&gt;snij_touw_van_lift -->
<g id="edge67" class="edge">
<title>hijs_lift_met_molensteen&#45;&gt;snij_touw_van_lift</title>
<path fill="none" stroke="#999999" d="M521.2203,-510.4551C495.2043,-500.1893 462.4901,-487.2804 435.3064,-476.5539"/>
<polygon fill="#999999" stroke="#999999" points="436.2654,-473.9223 427.796,-473.5904 434.2099,-479.1314 436.2654,-473.9223"/>
</g>
<!-- zet_hendel_op_lift -->
<g id="node37" class="node">
<title>zet_hendel_op_lift</title>
<path fill="#3333aa" stroke="#3333aa" d="M712.108,-1094.5C712.108,-1094.5 811.7932,-1094.5 811.7932,-1094.5 817.7932,-1094.5 823.7932,-1100.5 823.7932,-1106.5 823.7932,-1106.5 823.7932,-1118.5 823.7932,-1118.5 823.7932,-1124.5 817.7932,-1130.5 811.7932,-1130.5 811.7932,-1130.5 712.108,-1130.5 712.108,-1130.5 706.108,-1130.5 700.108,-1124.5 700.108,-1118.5 700.108,-1118.5 700.108,-1106.5 700.108,-1106.5 700.108,-1100.5 706.108,-1094.5 712.108,-1094.5"/>
<text text-anchor="middle" x="761.9506" y="-1108.3" font-family="lato, roboto, helvetica" font-size="14.00" fill="#eeeeee">Zet Hendel Op Lift</text>
</g>
<!-- zet_hendel_op_lift&#45;&gt;hijs_lift_met_molensteen -->
<g id="edge24" class="edge">
<title>zet_hendel_op_lift&#45;&gt;hijs_lift_met_molensteen</title>
<path fill="none" stroke="#999999" d="M760.5002,-1094.0756C758.4499,-1066.3972 754.9506,-1012.4312 754.9506,-966.5 754.9506,-966.5 754.9506,-966.5 754.9506,-674.5 754.9506,-611.0538 687.3333,-571.1965 633.2019,-549.4539"/>
<polygon fill="#999999" stroke="#999999" points="634.132,-546.8112 625.6617,-546.5056 632.0927,-552.0267 634.132,-546.8112"/>
</g>
<!-- leg_molensteen_op_lift&#45;&gt;hijs_lift_met_molensteen -->
<g id="edge25" class="edge">
<title>leg_molensteen_op_lift&#45;&gt;hijs_lift_met_molensteen</title>
<path fill="none" stroke="#999999" d="M566.9506,-583.4551C566.9506,-574.7686 566.9506,-564.1898 566.9506,-554.642"/>
<polygon fill="#999999" stroke="#999999" points="569.7507,-554.5903 566.9506,-546.5904 564.1507,-554.5904 569.7507,-554.5903"/>
</g>
<!-- knoop_touw_aan_molensteen -->
<g id="node39" class="node">
<title>knoop_touw_aan_molensteen</title>
<path fill="#3333aa" stroke="#3333aa" d="M12,-510.5C12,-510.5 173.9012,-510.5 173.9012,-510.5 179.9012,-510.5 185.9012,-516.5 185.9012,-522.5 185.9012,-522.5 185.9012,-534.5 185.9012,-534.5 185.9012,-540.5 179.9012,-546.5 173.9012,-546.5 173.9012,-546.5 12,-546.5 12,-546.5 6,-546.5 0,-540.5 0,-534.5 0,-534.5 0,-522.5 0,-522.5 0,-516.5 6,-510.5 12,-510.5"/>
<text text-anchor="middle" x="92.9506" y="-524.3" font-family="lato, roboto, helvetica" font-size="14.00" fill="#eeeeee">Knoop Touw Aan Molensteen</text>
</g>
<!-- knoop_touw_aan_molensteen&#45;&gt;snij_touw_van_lift -->
<g id="edge65" class="edge">
<title>knoop_touw_aan_molensteen&#45;&gt;snij_touw_van_lift</title>
<path fill="none" stroke="#999999" d="M164.3888,-510.4551C209.0132,-499.1832 266.2529,-484.7247 310.8192,-473.4674"/>
<polygon fill="#999999" stroke="#999999" points="311.6335,-476.1498 318.7042,-471.4757 310.262,-470.7203 311.6335,-476.1498"/>
</g>
<!-- pak_touw_op_boerderij&#45;&gt;knoop_touw_aan_molensteen -->
<g id="edge26" class="edge">
<title>pak_touw_op_boerderij&#45;&gt;knoop_touw_aan_molensteen</title>
<path fill="none" stroke="#999999" d="M92.9506,-583.4551C92.9506,-574.7686 92.9506,-564.1898 92.9506,-554.642"/>
<polygon fill="#999999" stroke="#999999" points="95.7507,-554.5903 92.9506,-546.5904 90.1507,-554.5904 95.7507,-554.5903"/>
</g>
<!-- knoop_touw_aan_tand -->
<g id="node41" class="node">
<title>knoop_touw_aan_tand</title>
<path fill="#3333aa" stroke="#3333aa" d="M216.2735,-510.5C216.2735,-510.5 341.6277,-510.5 341.6277,-510.5 347.6277,-510.5 353.6277,-516.5 353.6277,-522.5 353.6277,-522.5 353.6277,-534.5 353.6277,-534.5 353.6277,-540.5 347.6277,-546.5 341.6277,-546.5 341.6277,-546.5 216.2735,-546.5 216.2735,-546.5 210.2735,-546.5 204.2735,-540.5 204.2735,-534.5 204.2735,-534.5 204.2735,-522.5 204.2735,-522.5 204.2735,-516.5 210.2735,-510.5 216.2735,-510.5"/>
<text text-anchor="middle" x="278.9506" y="-524.3" font-family="lato, roboto, helvetica" font-size="14.00" fill="#eeeeee">Knoop Touw Aan Tand</text>
</g>
<!-- pak_touw_op_boerderij&#45;&gt;knoop_touw_aan_tand -->
<g id="edge27" class="edge">
<title>pak_touw_op_boerderij&#45;&gt;knoop_touw_aan_tand</title>
<path fill="none" stroke="#999999" d="M138.9281,-583.4551C165.0847,-573.1893 197.9758,-560.2804 225.3064,-549.5539"/>
<polygon fill="#999999" stroke="#999999" points="226.4333,-552.1196 232.8574,-546.5904 224.3874,-546.9067 226.4333,-552.1196"/>
</g>
<!-- knoop_touw_aan_tand&#45;&gt;snij_touw_van_lift -->
<g id="edge66" class="edge">
<title>knoop_touw_aan_tand&#45;&gt;snij_touw_van_lift</title>
<path fill="none" stroke="#999999" d="M304.4113,-510.4551C318.153,-500.7157 335.2514,-488.5975 349.8926,-478.2207"/>
<polygon fill="#999999" stroke="#999999" points="351.518,-480.5007 356.4258,-473.5904 348.2798,-475.9319 351.518,-480.5007"/>
</g>
<!-- _1&#45;&gt;koop_eten_bij_bakker -->
<g id="edge28" class="edge">
<title>_1&#45;&gt;koop_eten_bij_bakker</title>
<path fill="none" stroke="#999999" d="M735.1886,-1465.4455C743.6238,-1455.5138 755.8545,-1441.1132 766.3092,-1428.8036"/>
<polygon fill="#999999" stroke="#999999" points="768.5403,-1430.502 771.5849,-1422.5918 764.272,-1426.8768 768.5403,-1430.502"/>
</g>
<!-- krijg_geld_van_meel&#45;&gt;koop_zwaard_bij_wapensmid -->
<g id="edge31" class="edge">
<title>krijg_geld_van_meel&#45;&gt;koop_zwaard_bij_wapensmid</title>
<path fill="none" stroke="#999999" d="M399.9506,-875.4551C399.9506,-866.7686 399.9506,-856.1898 399.9506,-846.642"/>
<polygon fill="#999999" stroke="#999999" points="402.7507,-846.5903 399.9506,-838.5904 397.1507,-846.5904 402.7507,-846.5903"/>
</g>
<!-- krijg_ingredientenlijst_van_heks&#45;&gt;pak_tand_van_draak -->
<g id="edge51" class="edge">
<title>krijg_ingredientenlijst_van_heks&#45;&gt;pak_tand_van_draak</title>
<path fill="none" stroke="#999999" d="M923.9394,-291.4551C899.5749,-281.2332 868.9641,-268.3907 843.462,-257.6916"/>
<polygon fill="#999999" stroke="#999999" points="844.5304,-255.1034 836.0701,-254.5904 842.3639,-260.2674 844.5304,-255.1034"/>
</g>
<!-- pluk_kruiden_in_bos -->
<g id="node47" class="node">
<title>pluk_kruiden_in_bos</title>
<path fill="#3333aa" stroke="#3333aa" d="M1086.2069,-218.5C1086.2069,-218.5 1193.6943,-218.5 1193.6943,-218.5 1199.6943,-218.5 1205.6943,-224.5 1205.6943,-230.5 1205.6943,-230.5 1205.6943,-242.5 1205.6943,-242.5 1205.6943,-248.5 1199.6943,-254.5 1193.6943,-254.5 1193.6943,-254.5 1086.2069,-254.5 1086.2069,-254.5 1080.2069,-254.5 1074.2069,-248.5 1074.2069,-242.5 1074.2069,-242.5 1074.2069,-230.5 1074.2069,-230.5 1074.2069,-224.5 1080.2069,-218.5 1086.2069,-218.5"/>
<text text-anchor="middle" x="1139.9506" y="-232.3" font-family="lato, roboto, helvetica" font-size="14.00" fill="#eeeeee">Pluk Kruiden In Bos</text>
</g>
<!-- krijg_ingredientenlijst_van_heks&#45;&gt;pluk_kruiden_in_bos -->
<g id="edge54" class="edge">
<title>krijg_ingredientenlijst_van_heks&#45;&gt;pluk_kruiden_in_bos</title>
<path fill="none" stroke="#999999" d="M1009.7147,-291.4551C1033.8351,-281.277 1064.1128,-268.5009 1089.4028,-257.8294"/>
<polygon fill="#999999" stroke="#999999" points="1090.7968,-260.2803 1097.0789,-254.5904 1088.6197,-255.1208 1090.7968,-260.2803"/>
</g>
<!-- pluk_paddenstoelen_in_woud -->
<g id="node48" class="node">
<title>pluk_paddenstoelen_in_woud</title>
<path fill="#3333aa" stroke="#3333aa" d="M889.493,-218.5C889.493,-218.5 1044.4082,-218.5 1044.4082,-218.5 1050.4082,-218.5 1056.4082,-224.5 1056.4082,-230.5 1056.4082,-230.5 1056.4082,-242.5 1056.4082,-242.5 1056.4082,-248.5 1050.4082,-254.5 1044.4082,-254.5 1044.4082,-254.5 889.493,-254.5 889.493,-254.5 883.493,-254.5 877.493,-248.5 877.493,-242.5 877.493,-242.5 877.493,-230.5 877.493,-230.5 877.493,-224.5 883.493,-218.5 889.493,-218.5"/>
<text text-anchor="middle" x="966.9506" y="-232.3" font-family="lato, roboto, helvetica" font-size="14.00" fill="#eeeeee">Pluk Paddenstoelen In Woud</text>
</g>
<!-- krijg_ingredientenlijst_van_heks&#45;&gt;pluk_paddenstoelen_in_woud -->
<g id="edge55" class="edge">
<title>krijg_ingredientenlijst_van_heks&#45;&gt;pluk_paddenstoelen_in_woud</title>
<path fill="none" stroke="#999999" d="M966.9506,-291.4551C966.9506,-282.7686 966.9506,-272.1898 966.9506,-262.642"/>
<polygon fill="#999999" stroke="#999999" points="969.7507,-262.5903 966.9506,-254.5904 964.1507,-262.5904 969.7507,-262.5903"/>
</g>
<!-- krijg_ingredientenlijst_van_heks&#45;&gt;krijg_taart_van_bakker -->
<g id="edge43" class="edge">
<title>krijg_ingredientenlijst_van_heks&#45;&gt;krijg_taart_van_bakker</title>
<path fill="none" stroke="#999999" d="M883.8922,-291.4398C835.2374,-280.8487 772.6017,-267.1942 716.9506,-255 716.6771,-254.9401 716.4031,-254.88 716.1286,-254.8199"/>
<polygon fill="#999999" stroke="#999999" points="716.4688,-252.028 708.0547,-253.0491 715.2691,-257.498 716.4688,-252.028"/>
</g>
<!-- krijg_kapotte_houweel_van_dwerg&#45;&gt;repareer_houweel -->
<g id="edge63" class="edge">
<title>krijg_kapotte_houweel_van_dwerg&#45;&gt;repareer_houweel</title>
<path fill="none" stroke="#999999" d="M996.9506,-1459.4551C996.9506,-1450.7686 996.9506,-1440.1898 996.9506,-1430.642"/>
<polygon fill="#999999" stroke="#999999" points="999.7507,-1430.5903 996.9506,-1422.5904 994.1507,-1430.5904 999.7507,-1430.5903"/>
</g>
<!-- pak_tand_van_draak&#45;&gt;krijg_medicijn_van_heks -->
<g id="edge38" class="edge">
<title>pak_tand_van_draak&#45;&gt;krijg_medicijn_van_heks</title>
<path fill="none" stroke="#999999" d="M792.9506,-218.4551C792.9506,-209.7686 792.9506,-199.1898 792.9506,-189.642"/>
<polygon fill="#999999" stroke="#999999" points="795.7507,-189.5903 792.9506,-181.5904 790.1507,-189.5904 795.7507,-189.5903"/>
</g>
<!-- pluk_kruiden_in_bos&#45;&gt;krijg_medicijn_van_heks -->
<g id="edge39" class="edge">
<title>pluk_kruiden_in_bos&#45;&gt;krijg_medicijn_van_heks</title>
<path fill="none" stroke="#999999" d="M1074.1392,-220.0925C1071.0358,-219.3735 1067.9609,-218.6725 1064.9506,-218 1003.4783,-204.2669 933.8238,-190.3412 880.3919,-180.0041"/>
<polygon fill="#999999" stroke="#999999" points="880.6804,-177.2082 872.2947,-178.441 879.6189,-182.7067 880.6804,-177.2082"/>
</g>
<!-- pluk_paddenstoelen_in_woud&#45;&gt;krijg_medicijn_van_heks -->
<g id="edge40" class="edge">
<title>pluk_paddenstoelen_in_woud&#45;&gt;krijg_medicijn_van_heks</title>
<path fill="none" stroke="#999999" d="M923.9394,-218.4551C899.5749,-208.2332 868.9641,-195.3907 843.462,-184.6916"/>
<polygon fill="#999999" stroke="#999999" points="844.5304,-182.1034 836.0701,-181.5904 842.3639,-187.2674 844.5304,-182.1034"/>
</g>
<!-- krijg_taart_van_bakker&#45;&gt;krijg_medicijn_van_heks -->
<g id="edge41" class="edge">
<title>krijg_taart_van_bakker&#45;&gt;krijg_medicijn_van_heks</title>
<path fill="none" stroke="#999999" d="M672.5012,-218.4551C694.713,-208.3209 722.5703,-195.611 745.8985,-184.9675"/>
<polygon fill="#999999" stroke="#999999" points="747.1845,-187.4585 753.3005,-181.5904 744.86,-182.3637 747.1845,-187.4585"/>
</g>
<!-- praat_met_dochter_van_bakker&#45;&gt;leg_molensteen_op_lift -->
<g id="edge46" class="edge">
<title>praat_met_dochter_van_bakker&#45;&gt;leg_molensteen_op_lift</title>
<path fill="none" stroke="#999999" d="M520.2764,-656.4551C528.1011,-647.2422 537.7336,-635.9006 546.212,-625.918"/>
<polygon fill="#999999" stroke="#999999" points="548.5415,-627.5005 551.5862,-619.5904 544.2732,-623.8754 548.5415,-627.5005"/>
</g>
<!-- maak_zadel_bij_hoefsmid&#45;&gt;zet_zadel_op_draak -->
<g id="edge74" class="edge">
<title>maak_zadel_bij_hoefsmid&#45;&gt;zet_zadel_op_draak</title>
<path fill="none" stroke="#999999" d="M462.9506,-145.4551C462.9506,-136.7686 462.9506,-126.1898 462.9506,-116.642"/>
<polygon fill="#999999" stroke="#999999" points="465.7507,-116.5903 462.9506,-108.5904 460.1507,-116.5904 465.7507,-116.5903"/>
</g>
<!-- pak_hendel_in_mijn&#45;&gt;zet_hendel_op_lift -->
<g id="edge72" class="edge">
<title>pak_hendel_in_mijn&#45;&gt;zet_hendel_op_lift</title>
<path fill="none" stroke="#999999" d="M782.0841,-1240.3042C778.0727,-1214.8403 770.7585,-1168.4108 766.1372,-1139.0759"/>
<polygon fill="#999999" stroke="#999999" points="768.8641,-1138.3919 764.8532,-1130.9251 763.3323,-1139.2634 768.8641,-1138.3919"/>
</g>
<!-- pak_hout_in_bos&#45;&gt;repareer_houweel -->
<g id="edge62" class="edge">
<title>pak_hout_in_bos&#45;&gt;repareer_houweel</title>
<path fill="none" stroke="#999999" d="M1096.0298,-1532.2695C1110.9536,-1513.0197 1128.7972,-1482.294 1113.9506,-1459 1102.6803,-1441.3171 1084.0161,-1429.2796 1064.8693,-1421.123"/>
<polygon fill="#999999" stroke="#999999" points="1065.7032,-1418.4411 1057.2352,-1418.0758 1063.6272,-1423.6421 1065.7032,-1418.4411"/>
</g>
<!-- snij_touw_van_lift&#45;&gt;trek_tand_van_draak -->
<g id="edge68" class="edge">
<title>snij_touw_van_lift&#45;&gt;trek_tand_van_draak</title>
<path fill="none" stroke="#999999" d="M400.2427,-437.4551C409.7597,-428.0667 421.5175,-416.4678 431.7748,-406.3491"/>
<polygon fill="#999999" stroke="#999999" points="433.8836,-408.202 437.6124,-400.5904 429.9508,-404.2153 433.8836,-408.202"/>
</g>
</g>
</svg>
