<?xml version="1.0" encoding="UTF-8" standalone="no"?>
<!DOCTYPE svg PUBLIC "-//W3C//DTD SVG 1.1//EN"
 "http://www.w3.org/Graphics/SVG/1.1/DTD/svg11.dtd">
<!-- Generated by graphviz version 2.40.1 (20161225.0304)
 -->
<!-- Title: G Pages: 1 -->
<svg width="1586pt" height="1389pt"
 viewBox="0.00 0.00 1585.84 1389.00" xmlns="http://www.w3.org/2000/svg" xmlns:xlink="http://www.w3.org/1999/xlink">
<g id="graph0" class="graph" transform="scale(1 1) rotate(0) translate(4 1385)">
<title>G</title>
<polygon fill="#ffffff" stroke="transparent" points="-4,4 -4,-1385 1581.8421,-1385 1581.8421,4 -4,4"/>
<text text-anchor="middle" x="788.921" y="-1359" font-family="lato, roboto, helvetica" font-size="20.00" fill="#000000">Avontuur</text>
<!-- START -->
<g id="node1" class="node">
<title>START</title>
<polygon fill="#333333" stroke="#333333" points="807.9762,-1349 749.2702,-1331 807.9762,-1313 866.6822,-1331 807.9762,-1349"/>
<polyline fill="none" stroke="#333333" points="760.743,-1334.5177 760.743,-1327.4823 "/>
<polyline fill="none" stroke="#333333" points="796.5034,-1316.5177 819.449,-1316.5177 "/>
<polyline fill="none" stroke="#333333" points="855.2094,-1327.4823 855.2094,-1334.5177 "/>
<polyline fill="none" stroke="#333333" points="819.449,-1345.4823 796.5034,-1345.4823 "/>
<text text-anchor="middle" x="807.9762" y="-1326.8" font-family="lato, roboto, helvetica" font-size="14.00" fill="#dddddd">START</text>
</g>
<!-- betaal_twee_geldstukken -->
<g id="node4" class="node">
<title>betaal_twee_geldstukken</title>
<path fill="#3333aa" stroke="#3333aa" d="M453.6704,-1240.5C453.6704,-1240.5 590.282,-1240.5 590.282,-1240.5 596.282,-1240.5 602.282,-1246.5 602.282,-1252.5 602.282,-1252.5 602.282,-1264.5 602.282,-1264.5 602.282,-1270.5 596.282,-1276.5 590.282,-1276.5 590.282,-1276.5 453.6704,-1276.5 453.6704,-1276.5 447.6704,-1276.5 441.6704,-1270.5 441.6704,-1264.5 441.6704,-1264.5 441.6704,-1252.5 441.6704,-1252.5 441.6704,-1246.5 447.6704,-1240.5 453.6704,-1240.5"/>
<text text-anchor="middle" x="521.9762" y="-1254.3" font-family="lato, roboto, helvetica" font-size="14.00" fill="#eeeeee">Betaal Twee Geldstukken</text>
</g>
<!-- START&#45;&gt;betaal_twee_geldstukken -->
<g id="edge2" class="edge">
<title>START&#45;&gt;betaal_twee_geldstukken</title>
<path fill="none" stroke="#999999" d="M775.7243,-1322.8243C733.6578,-1312.1606 658.6459,-1293.1453 601.0526,-1278.5456"/>
<polygon fill="#999999" stroke="#999999" points="601.4895,-1275.7679 593.0468,-1276.5161 600.1134,-1281.1962 601.4895,-1275.7679"/>
</g>
<!-- vind_een_geldstuk_bij_de_rivier -->
<g id="node7" class="node">
<title>vind_een_geldstuk_bij_de_rivier</title>
<path fill="#3333aa" stroke="#3333aa" d="M631.8545,-1240.5C631.8545,-1240.5 810.0979,-1240.5 810.0979,-1240.5 816.0979,-1240.5 822.0979,-1246.5 822.0979,-1252.5 822.0979,-1252.5 822.0979,-1264.5 822.0979,-1264.5 822.0979,-1270.5 816.0979,-1276.5 810.0979,-1276.5 810.0979,-1276.5 631.8545,-1276.5 631.8545,-1276.5 625.8545,-1276.5 619.8545,-1270.5 619.8545,-1264.5 619.8545,-1264.5 619.8545,-1252.5 619.8545,-1252.5 619.8545,-1246.5 625.8545,-1240.5 631.8545,-1240.5"/>
<text text-anchor="middle" x="720.9762" y="-1254.3" font-family="lato, roboto, helvetica" font-size="14.00" fill="#eeeeee">Vind Een Geldstuk Bij De Rivier</text>
</g>
<!-- START&#45;&gt;vind_een_geldstuk_bij_de_rivier -->
<g id="edge68" class="edge">
<title>START&#45;&gt;vind_een_geldstuk_bij_de_rivier</title>
<path fill="none" stroke="#999999" d="M792.0191,-1317.7024C780.0228,-1307.7055 763.279,-1293.7524 749.0596,-1281.9028"/>
<polygon fill="#999999" stroke="#999999" points="750.6684,-1279.5987 742.7301,-1276.6282 747.0833,-1283.9008 750.6684,-1279.5987"/>
</g>
<!-- praat_met_boer -->
<g id="node20" class="node">
<title>praat_met_boer</title>
<path fill="#3333aa" stroke="#3333aa" d="M232.2139,-1167.5C232.2139,-1167.5 309.7385,-1167.5 309.7385,-1167.5 315.7385,-1167.5 321.7385,-1173.5 321.7385,-1179.5 321.7385,-1179.5 321.7385,-1191.5 321.7385,-1191.5 321.7385,-1197.5 315.7385,-1203.5 309.7385,-1203.5 309.7385,-1203.5 232.2139,-1203.5 232.2139,-1203.5 226.2139,-1203.5 220.2139,-1197.5 220.2139,-1191.5 220.2139,-1191.5 220.2139,-1179.5 220.2139,-1179.5 220.2139,-1173.5 226.2139,-1167.5 232.2139,-1167.5"/>
<text text-anchor="middle" x="270.9762" y="-1181.3" font-family="lato, roboto, helvetica" font-size="14.00" fill="#eeeeee">Praat Met Boer</text>
</g>
<!-- START&#45;&gt;praat_met_boer -->
<g id="edge57" class="edge">
<title>START&#45;&gt;praat_met_boer</title>
<path fill="none" stroke="#999999" d="M763.27,-1326.6551C677.5821,-1317.984 493.3653,-1297.5891 432.9762,-1277 384.6565,-1260.5258 334.2534,-1229.5181 302.7562,-1208.2011"/>
<polygon fill="#999999" stroke="#999999" points="304.1273,-1205.7465 295.9433,-1203.5412 300.9657,-1210.3688 304.1273,-1205.7465"/>
</g>
<!-- praat_met_bakker -->
<g id="node22" class="node">
<title>praat_met_bakker</title>
<path fill="#3333aa" stroke="#3333aa" d="M1104.6066,-1167.5C1104.6066,-1167.5 1195.3458,-1167.5 1195.3458,-1167.5 1201.3458,-1167.5 1207.3458,-1173.5 1207.3458,-1179.5 1207.3458,-1179.5 1207.3458,-1191.5 1207.3458,-1191.5 1207.3458,-1197.5 1201.3458,-1203.5 1195.3458,-1203.5 1195.3458,-1203.5 1104.6066,-1203.5 1104.6066,-1203.5 1098.6066,-1203.5 1092.6066,-1197.5 1092.6066,-1191.5 1092.6066,-1191.5 1092.6066,-1179.5 1092.6066,-1179.5 1092.6066,-1173.5 1098.6066,-1167.5 1104.6066,-1167.5"/>
<text text-anchor="middle" x="1149.9762" y="-1181.3" font-family="lato, roboto, helvetica" font-size="14.00" fill="#eeeeee">Praat Met Bakker</text>
</g>
<!-- START&#45;&gt;praat_met_bakker -->
<g id="edge56" class="edge">
<title>START&#45;&gt;praat_met_bakker</title>
<path fill="none" stroke="#999999" d="M854.7586,-1327.3009C927.2621,-1320.7663 1062.4399,-1305.1385 1100.9762,-1277 1122.7848,-1261.0757 1135.8515,-1232.4412 1142.9379,-1211.4335"/>
<polygon fill="#999999" stroke="#999999" points="1145.6099,-1212.2704 1145.3667,-1203.798 1140.2734,-1210.5728 1145.6099,-1212.2704"/>
</g>
<!-- praat_met_dwerg -->
<g id="node24" class="node">
<title>praat_met_dwerg</title>
<path fill="#3333aa" stroke="#3333aa" d="M851.7756,-1240.5C851.7756,-1240.5 940.1768,-1240.5 940.1768,-1240.5 946.1768,-1240.5 952.1768,-1246.5 952.1768,-1252.5 952.1768,-1252.5 952.1768,-1264.5 952.1768,-1264.5 952.1768,-1270.5 946.1768,-1276.5 940.1768,-1276.5 940.1768,-1276.5 851.7756,-1276.5 851.7756,-1276.5 845.7756,-1276.5 839.7756,-1270.5 839.7756,-1264.5 839.7756,-1264.5 839.7756,-1252.5 839.7756,-1252.5 839.7756,-1246.5 845.7756,-1240.5 851.7756,-1240.5"/>
<text text-anchor="middle" x="895.9762" y="-1254.3" font-family="lato, roboto, helvetica" font-size="14.00" fill="#eeeeee">Praat Met Dwerg</text>
</g>
<!-- START&#45;&gt;praat_met_dwerg -->
<g id="edge59" class="edge">
<title>START&#45;&gt;praat_met_dwerg</title>
<path fill="none" stroke="#999999" d="M824.1168,-1317.7024C836.2509,-1307.7055 853.1871,-1293.7524 867.57,-1281.9028"/>
<polygon fill="#999999" stroke="#999999" points="869.5783,-1283.8762 873.9723,-1276.6282 866.0174,-1279.5541 869.5783,-1283.8762"/>
</g>
<!-- praat_met_molenaar -->
<g id="node35" class="node">
<title>praat_met_molenaar</title>
<path fill="#3333aa" stroke="#3333aa" d="M12,-1094.5C12,-1094.5 115.9524,-1094.5 115.9524,-1094.5 121.9524,-1094.5 127.9524,-1100.5 127.9524,-1106.5 127.9524,-1106.5 127.9524,-1118.5 127.9524,-1118.5 127.9524,-1124.5 121.9524,-1130.5 115.9524,-1130.5 115.9524,-1130.5 12,-1130.5 12,-1130.5 6,-1130.5 0,-1124.5 0,-1118.5 0,-1118.5 0,-1106.5 0,-1106.5 0,-1100.5 6,-1094.5 12,-1094.5"/>
<text text-anchor="middle" x="63.9762" y="-1108.3" font-family="lato, roboto, helvetica" font-size="14.00" fill="#eeeeee">Praat Met Molenaar</text>
</g>
<!-- START&#45;&gt;praat_met_molenaar -->
<g id="edge61" class="edge">
<title>START&#45;&gt;praat_met_molenaar</title>
<path fill="none" stroke="#999999" d="M760.1437,-1327.5819C658.8492,-1319.9826 425.7845,-1300.4897 349.9762,-1277 283.3234,-1256.3472 271.5258,-1238.6825 210.9762,-1204 171.8551,-1181.5916 128.1192,-1154.0347 98.6026,-1135.0527"/>
<polygon fill="#999999" stroke="#999999" points="100.0287,-1132.6407 91.7875,-1130.6598 96.9947,-1137.3476 100.0287,-1132.6407"/>
</g>
<!-- pak_touw_op_boerderij -->
<g id="node40" class="node">
<title>pak_touw_op_boerderij</title>
<path fill="#3333aa" stroke="#3333aa" d="M1171.9106,-583.5C1171.9106,-583.5 1298.0418,-583.5 1298.0418,-583.5 1304.0418,-583.5 1310.0418,-589.5 1310.0418,-595.5 1310.0418,-595.5 1310.0418,-607.5 1310.0418,-607.5 1310.0418,-613.5 1304.0418,-619.5 1298.0418,-619.5 1298.0418,-619.5 1171.9106,-619.5 1171.9106,-619.5 1165.9106,-619.5 1159.9106,-613.5 1159.9106,-607.5 1159.9106,-607.5 1159.9106,-595.5 1159.9106,-595.5 1159.9106,-589.5 1165.9106,-583.5 1171.9106,-583.5"/>
<text text-anchor="middle" x="1234.9762" y="-597.3" font-family="lato, roboto, helvetica" font-size="14.00" fill="#eeeeee">Pak Touw Op Boerderij</text>
</g>
<!-- START&#45;&gt;pak_touw_op_boerderij -->
<g id="edge53" class="edge">
<title>START&#45;&gt;pak_touw_op_boerderij</title>
<path fill="none" stroke="#999999" d="M852.1636,-1326.4711C928.2293,-1318.1967 1080.423,-1299.4082 1128.9762,-1277 1185.4837,-1250.9207 1234.9762,-1247.7353 1234.9762,-1185.5 1234.9762,-1185.5 1234.9762,-1185.5 1234.9762,-747.5 1234.9762,-705.7434 1234.9762,-657.2692 1234.9762,-628.0145"/>
<polygon fill="#999999" stroke="#999999" points="1237.7763,-627.9379 1234.9762,-619.938 1232.1763,-627.938 1237.7763,-627.9379"/>
</g>
<!-- pak_hout_in_bos -->
<g id="node53" class="node">
<title>pak_hout_in_bos</title>
<path fill="#3333aa" stroke="#3333aa" d="M995.5081,-1240.5C995.5081,-1240.5 1080.4443,-1240.5 1080.4443,-1240.5 1086.4443,-1240.5 1092.4443,-1246.5 1092.4443,-1252.5 1092.4443,-1252.5 1092.4443,-1264.5 1092.4443,-1264.5 1092.4443,-1270.5 1086.4443,-1276.5 1080.4443,-1276.5 1080.4443,-1276.5 995.5081,-1276.5 995.5081,-1276.5 989.5081,-1276.5 983.5081,-1270.5 983.5081,-1264.5 983.5081,-1264.5 983.5081,-1252.5 983.5081,-1252.5 983.5081,-1246.5 989.5081,-1240.5 995.5081,-1240.5"/>
<text text-anchor="middle" x="1037.9762" y="-1254.3" font-family="lato, roboto, helvetica" font-size="14.00" fill="#eeeeee">Pak Hout In Bos</text>
</g>
<!-- START&#45;&gt;pak_hout_in_bos -->
<g id="edge49" class="edge">
<title>START&#45;&gt;pak_hout_in_bos</title>
<path fill="none" stroke="#999999" d="M837.1059,-1321.8178C871.729,-1310.904 930.479,-1292.385 975.5252,-1278.1856"/>
<polygon fill="#999999" stroke="#999999" points="976.4101,-1280.8426 983.1982,-1275.767 974.7265,-1275.5017 976.4101,-1280.8426"/>
</g>
<!-- beklim_toren -->
<g id="node2" class="node">
<title>beklim_toren</title>
<path fill="#3333aa" stroke="#3333aa" d="M590.9008,-437.5C590.9008,-437.5 661.0516,-437.5 661.0516,-437.5 667.0516,-437.5 673.0516,-443.5 673.0516,-449.5 673.0516,-449.5 673.0516,-461.5 673.0516,-461.5 673.0516,-467.5 667.0516,-473.5 661.0516,-473.5 661.0516,-473.5 590.9008,-473.5 590.9008,-473.5 584.9008,-473.5 578.9008,-467.5 578.9008,-461.5 578.9008,-461.5 578.9008,-449.5 578.9008,-449.5 578.9008,-443.5 584.9008,-437.5 590.9008,-437.5"/>
<text text-anchor="middle" x="625.9762" y="-451.3" font-family="lato, roboto, helvetica" font-size="14.00" fill="#eeeeee">Beklim Toren</text>
</g>
<!-- praat_met_dochter_van_bakker -->
<g id="node50" class="node">
<title>praat_met_dochter_van_bakker</title>
<path fill="#3333aa" stroke="#3333aa" d="M541.9025,-364.5C541.9025,-364.5 708.0499,-364.5 708.0499,-364.5 714.0499,-364.5 720.0499,-370.5 720.0499,-376.5 720.0499,-376.5 720.0499,-388.5 720.0499,-388.5 720.0499,-394.5 714.0499,-400.5 708.0499,-400.5 708.0499,-400.5 541.9025,-400.5 541.9025,-400.5 535.9025,-400.5 529.9025,-394.5 529.9025,-388.5 529.9025,-388.5 529.9025,-376.5 529.9025,-376.5 529.9025,-370.5 535.9025,-364.5 541.9025,-364.5"/>
<text text-anchor="middle" x="624.9762" y="-378.3" font-family="lato, roboto, helvetica" font-size="14.00" fill="#eeeeee">Praat Met Dochter Van Bakker</text>
</g>
<!-- beklim_toren&#45;&gt;praat_met_dochter_van_bakker -->
<g id="edge58" class="edge">
<title>beklim_toren&#45;&gt;praat_met_dochter_van_bakker</title>
<path fill="none" stroke="#999999" d="M625.729,-437.4551C625.61,-428.7686 625.4651,-418.1898 625.3343,-408.642"/>
<polygon fill="#999999" stroke="#999999" points="628.1334,-408.5512 625.224,-400.5904 622.534,-408.628 628.1334,-408.5512"/>
</g>
<!-- koop_zwaard_bij_wapensmid -->
<g id="node3" class="node">
<title>koop_zwaard_bij_wapensmid</title>
<path fill="#3333aa" stroke="#3333aa" d="M547.8047,-510.5C547.8047,-510.5 708.1477,-510.5 708.1477,-510.5 714.1477,-510.5 720.1477,-516.5 720.1477,-522.5 720.1477,-522.5 720.1477,-534.5 720.1477,-534.5 720.1477,-540.5 714.1477,-546.5 708.1477,-546.5 708.1477,-546.5 547.8047,-546.5 547.8047,-546.5 541.8047,-546.5 535.8047,-540.5 535.8047,-534.5 535.8047,-534.5 535.8047,-522.5 535.8047,-522.5 535.8047,-516.5 541.8047,-510.5 547.8047,-510.5"/>
<text text-anchor="middle" x="627.9762" y="-524.3" font-family="lato, roboto, helvetica" font-size="14.00" fill="#eeeeee">Koop Zwaard Bij Wapensmid</text>
</g>
<!-- koop_zwaard_bij_wapensmid&#45;&gt;beklim_toren -->
<g id="edge1" class="edge">
<title>koop_zwaard_bij_wapensmid&#45;&gt;beklim_toren</title>
<path fill="none" stroke="#999999" d="M627.4818,-510.4551C627.2438,-501.7686 626.954,-491.1898 626.6924,-481.642"/>
<polygon fill="#999999" stroke="#999999" points="629.49,-481.5106 626.4718,-473.5904 623.8921,-481.6641 629.49,-481.5106"/>
</g>
<!-- snij_touw_van_lift -->
<g id="node54" class="node">
<title>snij_touw_van_lift</title>
<path fill="#3333aa" stroke="#3333aa" d="M1214.9569,-437.5C1214.9569,-437.5 1316.9955,-437.5 1316.9955,-437.5 1322.9955,-437.5 1328.9955,-443.5 1328.9955,-449.5 1328.9955,-449.5 1328.9955,-461.5 1328.9955,-461.5 1328.9955,-467.5 1322.9955,-473.5 1316.9955,-473.5 1316.9955,-473.5 1214.9569,-473.5 1214.9569,-473.5 1208.9569,-473.5 1202.9569,-467.5 1202.9569,-461.5 1202.9569,-461.5 1202.9569,-449.5 1202.9569,-449.5 1202.9569,-443.5 1208.9569,-437.5 1214.9569,-437.5"/>
<text text-anchor="middle" x="1265.9762" y="-451.3" font-family="lato, roboto, helvetica" font-size="14.00" fill="#eeeeee">Snij Touw Van Lift</text>
</g>
<!-- koop_zwaard_bij_wapensmid&#45;&gt;snij_touw_van_lift -->
<g id="edge64" class="edge">
<title>koop_zwaard_bij_wapensmid&#45;&gt;snij_touw_van_lift</title>
<path fill="none" stroke="#999999" d="M720.406,-517.9242C848.8975,-503.2222 1078.7511,-476.9223 1194.7918,-463.6449"/>
<polygon fill="#999999" stroke="#999999" points="1195.3172,-466.4032 1202.947,-462.7118 1194.6806,-460.8395 1195.3172,-466.4032"/>
</g>
<!-- _0 -->
<g id="node6" class="node">
<title>_0</title>
<polygon fill="#888888" stroke="#888888" points="521.9762,-1203.5 491.9495,-1185.5 521.9762,-1167.5 552.0029,-1185.5 521.9762,-1203.5"/>
<polyline fill="none" stroke="#888888" points="501.9584,-1191.5 501.9584,-1179.5 "/>
<polyline fill="none" stroke="#888888" points="511.9673,-1173.5 531.9851,-1173.5 "/>
<polyline fill="none" stroke="#888888" points="541.994,-1179.5 541.994,-1191.5 "/>
<polyline fill="none" stroke="#888888" points="531.9851,-1197.5 511.9673,-1197.5 "/>
<text text-anchor="middle" x="521.9762" y="-1181.3" font-family="lato, roboto, helvetica" font-size="14.00" fill="#eeeeee">Or</text>
</g>
<!-- betaal_twee_geldstukken&#45;&gt;_0 -->
<g id="edge4" class="edge">
<title>betaal_twee_geldstukken&#45;&gt;_0</title>
<path fill="none" stroke="#999999" stroke-dasharray="5,2" d="M521.9762,-1240.4551C521.9762,-1231.7686 521.9762,-1221.1898 521.9762,-1211.642"/>
<polygon fill="#999999" stroke="#999999" points="524.7763,-1211.5903 521.9762,-1203.5904 519.1763,-1211.5904 524.7763,-1211.5903"/>
</g>
<!-- _1 -->
<g id="node42" class="node">
<title>_1</title>
<polygon fill="#888888" stroke="#888888" points="714.9762,-1203.5 684.9495,-1185.5 714.9762,-1167.5 745.0029,-1185.5 714.9762,-1203.5"/>
<polyline fill="none" stroke="#888888" points="694.9584,-1191.5 694.9584,-1179.5 "/>
<polyline fill="none" stroke="#888888" points="704.9673,-1173.5 724.9851,-1173.5 "/>
<polyline fill="none" stroke="#888888" points="734.994,-1179.5 734.994,-1191.5 "/>
<polyline fill="none" stroke="#888888" points="724.9851,-1197.5 704.9673,-1197.5 "/>
<text text-anchor="middle" x="714.9762" y="-1181.3" font-family="lato, roboto, helvetica" font-size="14.00" fill="#eeeeee">Or</text>
</g>
<!-- betaal_twee_geldstukken&#45;&gt;_1 -->
<g id="edge30" class="edge">
<title>betaal_twee_geldstukken&#45;&gt;_1</title>
<path fill="none" stroke="#999999" stroke-dasharray="5,2" d="M569.6841,-1240.4551C607.188,-1226.2696 658.0348,-1207.0374 688.5639,-1195.4902"/>
<polygon fill="#999999" stroke="#999999" points="689.7455,-1198.0369 696.2375,-1192.5877 687.7643,-1192.7991 689.7455,-1198.0369"/>
</g>
<!-- betaal_twee_goudstukken_aan_hoefsmid -->
<g id="node5" class="node">
<title>betaal_twee_goudstukken_aan_hoefsmid</title>
<path fill="#3333aa" stroke="#3333aa" d="M388.9586,-1094.5C388.9586,-1094.5 614.9938,-1094.5 614.9938,-1094.5 620.9938,-1094.5 626.9938,-1100.5 626.9938,-1106.5 626.9938,-1106.5 626.9938,-1118.5 626.9938,-1118.5 626.9938,-1124.5 620.9938,-1130.5 614.9938,-1130.5 614.9938,-1130.5 388.9586,-1130.5 388.9586,-1130.5 382.9586,-1130.5 376.9586,-1124.5 376.9586,-1118.5 376.9586,-1118.5 376.9586,-1106.5 376.9586,-1106.5 376.9586,-1100.5 382.9586,-1094.5 388.9586,-1094.5"/>
<text text-anchor="middle" x="501.9762" y="-1108.3" font-family="lato, roboto, helvetica" font-size="14.00" fill="#eeeeee">Betaal Twee Goudstukken Aan Hoefsmid</text>
</g>
<!-- geef_paard_nieuwe_hoefijzers -->
<g id="node33" class="node">
<title>geef_paard_nieuwe_hoefijzers</title>
<path fill="#3333aa" stroke="#3333aa" d="M214.2766,-1021.5C214.2766,-1021.5 377.6758,-1021.5 377.6758,-1021.5 383.6758,-1021.5 389.6758,-1027.5 389.6758,-1033.5 389.6758,-1033.5 389.6758,-1045.5 389.6758,-1045.5 389.6758,-1051.5 383.6758,-1057.5 377.6758,-1057.5 377.6758,-1057.5 214.2766,-1057.5 214.2766,-1057.5 208.2766,-1057.5 202.2766,-1051.5 202.2766,-1045.5 202.2766,-1045.5 202.2766,-1033.5 202.2766,-1033.5 202.2766,-1027.5 208.2766,-1021.5 214.2766,-1021.5"/>
<text text-anchor="middle" x="295.9762" y="-1035.3" font-family="lato, roboto, helvetica" font-size="14.00" fill="#eeeeee">Geef Paard Nieuwe Hoefijzers</text>
</g>
<!-- betaal_twee_goudstukken_aan_hoefsmid&#45;&gt;geef_paard_nieuwe_hoefijzers -->
<g id="edge21" class="edge">
<title>betaal_twee_goudstukken_aan_hoefsmid&#45;&gt;geef_paard_nieuwe_hoefijzers</title>
<path fill="none" stroke="#999999" d="M451.0548,-1094.4551C421.8381,-1084.1016 385.0348,-1071.0596 354.6138,-1060.2794"/>
<polygon fill="#999999" stroke="#999999" points="355.5015,-1057.6234 347.0257,-1057.5904 353.631,-1062.9017 355.5015,-1057.6234"/>
</g>
<!-- _0&#45;&gt;betaal_twee_goudstukken_aan_hoefsmid -->
<g id="edge3" class="edge">
<title>_0&#45;&gt;betaal_twee_goudstukken_aan_hoefsmid</title>
<path fill="none" stroke="#999999" d="M517.7347,-1170.0186C515.2128,-1160.8136 511.9497,-1148.9032 509.0475,-1138.3103"/>
<polygon fill="#999999" stroke="#999999" points="511.7313,-1137.509 506.9168,-1130.5332 506.3303,-1138.9888 511.7313,-1137.509"/>
</g>
<!-- vind_een_geldstuk_bij_de_rivier&#45;&gt;_0 -->
<g id="edge5" class="edge">
<title>vind_een_geldstuk_bij_de_rivier&#45;&gt;_0</title>
<path fill="none" stroke="#999999" stroke-dasharray="5,2" d="M671.7852,-1240.4551C632.904,-1226.1921 580.1144,-1206.8271 548.6955,-1195.3015"/>
<polygon fill="#999999" stroke="#999999" points="549.2846,-1192.5353 540.8097,-1192.4088 547.356,-1197.7927 549.2846,-1192.5353"/>
</g>
<!-- vind_een_geldstuk_bij_de_rivier&#45;&gt;_1 -->
<g id="edge29" class="edge">
<title>vind_een_geldstuk_bij_de_rivier&#45;&gt;_1</title>
<path fill="none" stroke="#999999" stroke-dasharray="5,2" d="M719.4931,-1240.4551C718.763,-1231.5727 717.8703,-1220.7116 717.0719,-1210.9975"/>
<polygon fill="#999999" stroke="#999999" points="719.847,-1210.5784 716.401,-1202.8347 714.2658,-1211.0372 719.847,-1210.5784"/>
</g>
<!-- bezorg_graan_bij_molenaar -->
<g id="node8" class="node">
<title>bezorg_graan_bij_molenaar</title>
<path fill="#3333aa" stroke="#3333aa" d="M258.0361,-802.5C258.0361,-802.5 405.9163,-802.5 405.9163,-802.5 411.9163,-802.5 417.9163,-808.5 417.9163,-814.5 417.9163,-814.5 417.9163,-826.5 417.9163,-826.5 417.9163,-832.5 411.9163,-838.5 405.9163,-838.5 405.9163,-838.5 258.0361,-838.5 258.0361,-838.5 252.0361,-838.5 246.0361,-832.5 246.0361,-826.5 246.0361,-826.5 246.0361,-814.5 246.0361,-814.5 246.0361,-808.5 252.0361,-802.5 258.0361,-802.5"/>
<text text-anchor="middle" x="331.9762" y="-816.3" font-family="lato, roboto, helvetica" font-size="14.00" fill="#eeeeee">Bezorg Graan Bij Molenaar</text>
</g>
<!-- krijg_meel_bij_molenaar -->
<g id="node11" class="node">
<title>krijg_meel_bij_molenaar</title>
<path fill="#3333aa" stroke="#3333aa" d="M351.1911,-729.5C351.1911,-729.5 482.7613,-729.5 482.7613,-729.5 488.7613,-729.5 494.7613,-735.5 494.7613,-741.5 494.7613,-741.5 494.7613,-753.5 494.7613,-753.5 494.7613,-759.5 488.7613,-765.5 482.7613,-765.5 482.7613,-765.5 351.1911,-765.5 351.1911,-765.5 345.1911,-765.5 339.1911,-759.5 339.1911,-753.5 339.1911,-753.5 339.1911,-741.5 339.1911,-741.5 339.1911,-735.5 345.1911,-729.5 351.1911,-729.5"/>
<text text-anchor="middle" x="416.9762" y="-743.3" font-family="lato, roboto, helvetica" font-size="14.00" fill="#eeeeee">Krijg Meel Bij Molenaar</text>
</g>
<!-- bezorg_graan_bij_molenaar&#45;&gt;krijg_meel_bij_molenaar -->
<g id="edge42" class="edge">
<title>bezorg_graan_bij_molenaar&#45;&gt;krijg_meel_bij_molenaar</title>
<path fill="none" stroke="#999999" d="M352.9874,-802.4551C364.0212,-792.979 377.6773,-781.2508 389.5366,-771.0658"/>
<polygon fill="#999999" stroke="#999999" points="391.6673,-772.9268 395.9121,-765.5904 388.0188,-768.6784 391.6673,-772.9268"/>
</g>
<!-- zet_graan_op_wagen -->
<g id="node9" class="node">
<title>zet_graan_op_wagen</title>
<path fill="#3333aa" stroke="#3333aa" d="M239.9239,-875.5C239.9239,-875.5 352.0285,-875.5 352.0285,-875.5 358.0285,-875.5 364.0285,-881.5 364.0285,-887.5 364.0285,-887.5 364.0285,-899.5 364.0285,-899.5 364.0285,-905.5 358.0285,-911.5 352.0285,-911.5 352.0285,-911.5 239.9239,-911.5 239.9239,-911.5 233.9239,-911.5 227.9239,-905.5 227.9239,-899.5 227.9239,-899.5 227.9239,-887.5 227.9239,-887.5 227.9239,-881.5 233.9239,-875.5 239.9239,-875.5"/>
<text text-anchor="middle" x="295.9762" y="-889.3" font-family="lato, roboto, helvetica" font-size="14.00" fill="#eeeeee">Zet Graan Op Wagen</text>
</g>
<!-- zet_graan_op_wagen&#45;&gt;bezorg_graan_bij_molenaar -->
<g id="edge6" class="edge">
<title>zet_graan_op_wagen&#45;&gt;bezorg_graan_bij_molenaar</title>
<path fill="none" stroke="#999999" d="M304.8751,-875.4551C309.2886,-866.5054 314.6928,-855.547 319.5109,-845.7769"/>
<polygon fill="#999999" stroke="#999999" points="322.0278,-847.0038 323.0549,-838.5904 317.0053,-844.5269 322.0278,-847.0038"/>
</g>
<!-- bezorg_meel_bij_bakker -->
<g id="node10" class="node">
<title>bezorg_meel_bij_bakker</title>
<path fill="#3333aa" stroke="#3333aa" d="M394.3587,-656.5C394.3587,-656.5 523.5937,-656.5 523.5937,-656.5 529.5937,-656.5 535.5937,-662.5 535.5937,-668.5 535.5937,-668.5 535.5937,-680.5 535.5937,-680.5 535.5937,-686.5 529.5937,-692.5 523.5937,-692.5 523.5937,-692.5 394.3587,-692.5 394.3587,-692.5 388.3587,-692.5 382.3587,-686.5 382.3587,-680.5 382.3587,-680.5 382.3587,-668.5 382.3587,-668.5 382.3587,-662.5 388.3587,-656.5 394.3587,-656.5"/>
<text text-anchor="middle" x="458.9762" y="-670.3" font-family="lato, roboto, helvetica" font-size="14.00" fill="#eeeeee">Bezorg Meel Bij Bakker</text>
</g>
<!-- zet_molensteen_op_wagen -->
<g id="node18" class="node">
<title>zet_molensteen_op_wagen</title>
<path fill="#3333aa" stroke="#3333aa" d="M387.365,-583.5C387.365,-583.5 530.5874,-583.5 530.5874,-583.5 536.5874,-583.5 542.5874,-589.5 542.5874,-595.5 542.5874,-595.5 542.5874,-607.5 542.5874,-607.5 542.5874,-613.5 536.5874,-619.5 530.5874,-619.5 530.5874,-619.5 387.365,-619.5 387.365,-619.5 381.365,-619.5 375.365,-613.5 375.365,-607.5 375.365,-607.5 375.365,-595.5 375.365,-595.5 375.365,-589.5 381.365,-583.5 387.365,-583.5"/>
<text text-anchor="middle" x="458.9762" y="-597.3" font-family="lato, roboto, helvetica" font-size="14.00" fill="#eeeeee">Zet Molensteen Op Wagen</text>
</g>
<!-- bezorg_meel_bij_bakker&#45;&gt;zet_molensteen_op_wagen -->
<g id="edge72" class="edge">
<title>bezorg_meel_bij_bakker&#45;&gt;zet_molensteen_op_wagen</title>
<path fill="none" stroke="#999999" d="M458.9762,-656.4551C458.9762,-647.7686 458.9762,-637.1898 458.9762,-627.642"/>
<polygon fill="#999999" stroke="#999999" points="461.7763,-627.5903 458.9762,-619.5904 456.1763,-627.5904 461.7763,-627.5903"/>
</g>
<!-- krijg_geld_van_meel -->
<g id="node43" class="node">
<title>krijg_geld_van_meel</title>
<path fill="#3333aa" stroke="#3333aa" d="M572.3033,-583.5C572.3033,-583.5 683.6491,-583.5 683.6491,-583.5 689.6491,-583.5 695.6491,-589.5 695.6491,-595.5 695.6491,-595.5 695.6491,-607.5 695.6491,-607.5 695.6491,-613.5 689.6491,-619.5 683.6491,-619.5 683.6491,-619.5 572.3033,-619.5 572.3033,-619.5 566.3033,-619.5 560.3033,-613.5 560.3033,-607.5 560.3033,-607.5 560.3033,-595.5 560.3033,-595.5 560.3033,-589.5 566.3033,-583.5 572.3033,-583.5"/>
<text text-anchor="middle" x="627.9762" y="-597.3" font-family="lato, roboto, helvetica" font-size="14.00" fill="#eeeeee">Krijg Geld Van Meel</text>
</g>
<!-- bezorg_meel_bij_bakker&#45;&gt;krijg_geld_van_meel -->
<g id="edge34" class="edge">
<title>bezorg_meel_bij_bakker&#45;&gt;krijg_geld_van_meel</title>
<path fill="none" stroke="#999999" d="M500.7515,-656.4551C524.3143,-646.277 553.8919,-633.5009 578.5971,-622.8294"/>
<polygon fill="#999999" stroke="#999999" points="579.862,-625.3332 586.0958,-619.5904 577.6413,-620.1923 579.862,-625.3332"/>
</g>
<!-- krijg_meel_bij_molenaar&#45;&gt;bezorg_meel_bij_bakker -->
<g id="edge7" class="edge">
<title>krijg_meel_bij_molenaar&#45;&gt;bezorg_meel_bij_bakker</title>
<path fill="none" stroke="#999999" d="M427.3582,-729.4551C432.5073,-720.5054 438.8122,-709.547 444.4333,-699.7769"/>
<polygon fill="#999999" stroke="#999999" points="447.0054,-700.921 448.568,-692.5904 442.1515,-698.1282 447.0054,-700.921"/>
</g>
<!-- breng_dochter_naar_bakker -->
<g id="node12" class="node">
<title>breng_dochter_naar_bakker</title>
<path fill="#3333aa" stroke="#3333aa" d="M1114.2654,-291.5C1114.2654,-291.5 1263.687,-291.5 1263.687,-291.5 1269.687,-291.5 1275.687,-297.5 1275.687,-303.5 1275.687,-303.5 1275.687,-315.5 1275.687,-315.5 1275.687,-321.5 1269.687,-327.5 1263.687,-327.5 1263.687,-327.5 1114.2654,-327.5 1114.2654,-327.5 1108.2654,-327.5 1102.2654,-321.5 1102.2654,-315.5 1102.2654,-315.5 1102.2654,-303.5 1102.2654,-303.5 1102.2654,-297.5 1108.2654,-291.5 1114.2654,-291.5"/>
<text text-anchor="middle" x="1188.9762" y="-305.3" font-family="lato, roboto, helvetica" font-size="14.00" fill="#eeeeee">Breng Dochter Naar Bakker</text>
</g>
<!-- krijg_taart_van_bakker -->
<g id="node49" class="node">
<title>krijg_taart_van_bakker</title>
<path fill="#3333aa" stroke="#3333aa" d="M1079.3117,-218.5C1079.3117,-218.5 1204.6407,-218.5 1204.6407,-218.5 1210.6407,-218.5 1216.6407,-224.5 1216.6407,-230.5 1216.6407,-230.5 1216.6407,-242.5 1216.6407,-242.5 1216.6407,-248.5 1210.6407,-254.5 1204.6407,-254.5 1204.6407,-254.5 1079.3117,-254.5 1079.3117,-254.5 1073.3117,-254.5 1067.3117,-248.5 1067.3117,-242.5 1067.3117,-242.5 1067.3117,-230.5 1067.3117,-230.5 1067.3117,-224.5 1073.3117,-218.5 1079.3117,-218.5"/>
<text text-anchor="middle" x="1141.9762" y="-232.3" font-family="lato, roboto, helvetica" font-size="14.00" fill="#eeeeee">Krijg Taart Van Bakker</text>
</g>
<!-- breng_dochter_naar_bakker&#45;&gt;krijg_taart_van_bakker -->
<g id="edge44" class="edge">
<title>breng_dochter_naar_bakker&#45;&gt;krijg_taart_van_bakker</title>
<path fill="none" stroke="#999999" d="M1177.3582,-291.4551C1171.5396,-282.4177 1164.4022,-271.3319 1158.0656,-261.4899"/>
<polygon fill="#999999" stroke="#999999" points="1160.3084,-259.801 1153.6234,-254.5904 1155.5999,-262.8326 1160.3084,-259.801"/>
</g>
<!-- trek_tand_van_draak -->
<g id="node13" class="node">
<title>trek_tand_van_draak</title>
<path fill="#3333aa" stroke="#3333aa" d="M1246.3699,-364.5C1246.3699,-364.5 1361.5825,-364.5 1361.5825,-364.5 1367.5825,-364.5 1373.5825,-370.5 1373.5825,-376.5 1373.5825,-376.5 1373.5825,-388.5 1373.5825,-388.5 1373.5825,-394.5 1367.5825,-400.5 1361.5825,-400.5 1361.5825,-400.5 1246.3699,-400.5 1246.3699,-400.5 1240.3699,-400.5 1234.3699,-394.5 1234.3699,-388.5 1234.3699,-388.5 1234.3699,-376.5 1234.3699,-376.5 1234.3699,-370.5 1240.3699,-364.5 1246.3699,-364.5"/>
<text text-anchor="middle" x="1303.9762" y="-378.3" font-family="lato, roboto, helvetica" font-size="14.00" fill="#eeeeee">Trek Tand Van Draak</text>
</g>
<!-- trek_tand_van_draak&#45;&gt;breng_dochter_naar_bakker -->
<g id="edge8" class="edge">
<title>trek_tand_van_draak&#45;&gt;breng_dochter_naar_bakker</title>
<path fill="none" stroke="#999999" d="M1275.5492,-364.4551C1260.0683,-354.628 1240.7718,-342.3789 1224.328,-331.9407"/>
<polygon fill="#999999" stroke="#999999" points="1225.7295,-329.5139 1217.4747,-327.5904 1222.7282,-334.2418 1225.7295,-329.5139"/>
</g>
<!-- zet_zadel_op_draak -->
<g id="node15" class="node">
<title>zet_zadel_op_draak</title>
<path fill="#3333aa" stroke="#3333aa" d="M1411.8096,-72.5C1411.8096,-72.5 1516.1428,-72.5 1516.1428,-72.5 1522.1428,-72.5 1528.1428,-78.5 1528.1428,-84.5 1528.1428,-84.5 1528.1428,-96.5 1528.1428,-96.5 1528.1428,-102.5 1522.1428,-108.5 1516.1428,-108.5 1516.1428,-108.5 1411.8096,-108.5 1411.8096,-108.5 1405.8096,-108.5 1399.8096,-102.5 1399.8096,-96.5 1399.8096,-96.5 1399.8096,-84.5 1399.8096,-84.5 1399.8096,-78.5 1405.8096,-72.5 1411.8096,-72.5"/>
<text text-anchor="middle" x="1463.9762" y="-86.3" font-family="lato, roboto, helvetica" font-size="14.00" fill="#eeeeee">Zet Zadel Op Draak</text>
</g>
<!-- trek_tand_van_draak&#45;&gt;zet_zadel_op_draak -->
<g id="edge74" class="edge">
<title>trek_tand_van_draak&#45;&gt;zet_zadel_op_draak</title>
<path fill="none" stroke="#999999" d="M1373.6245,-371.4197C1427.5863,-361.653 1496.7779,-346.1719 1518.9762,-328 1583.052,-275.5464 1594.6285,-217.1421 1553.9762,-145 1546.2635,-131.3129 1533.5745,-120.6709 1520.1235,-112.573"/>
<polygon fill="#999999" stroke="#999999" points="1521.3842,-110.0692 1513.0424,-108.5675 1518.6271,-114.9434 1521.3842,-110.0692"/>
</g>
<!-- pak_stuk_leer_in_toren -->
<g id="node32" class="node">
<title>pak_stuk_leer_in_toren</title>
<path fill="#3333aa" stroke="#3333aa" d="M1374.2756,-291.5C1374.2756,-291.5 1497.6768,-291.5 1497.6768,-291.5 1503.6768,-291.5 1509.6768,-297.5 1509.6768,-303.5 1509.6768,-303.5 1509.6768,-315.5 1509.6768,-315.5 1509.6768,-321.5 1503.6768,-327.5 1497.6768,-327.5 1497.6768,-327.5 1374.2756,-327.5 1374.2756,-327.5 1368.2756,-327.5 1362.2756,-321.5 1362.2756,-315.5 1362.2756,-315.5 1362.2756,-303.5 1362.2756,-303.5 1362.2756,-297.5 1368.2756,-291.5 1374.2756,-291.5"/>
<text text-anchor="middle" x="1435.9762" y="-305.3" font-family="lato, roboto, helvetica" font-size="14.00" fill="#eeeeee">Pak Stuk Leer In Toren</text>
</g>
<!-- trek_tand_van_draak&#45;&gt;pak_stuk_leer_in_toren -->
<g id="edge50" class="edge">
<title>trek_tand_van_draak&#45;&gt;pak_stuk_leer_in_toren</title>
<path fill="none" stroke="#999999" d="M1336.6054,-364.4551C1354.6129,-354.4964 1377.1179,-342.0504 1396.1551,-331.5223"/>
<polygon fill="#999999" stroke="#999999" points="1397.6192,-333.9123 1403.2649,-327.5904 1394.909,-329.0118 1397.6192,-333.9123"/>
</g>
<!-- pak_tand_van_draak -->
<g id="node46" class="node">
<title>pak_tand_van_draak</title>
<path fill="#3333aa" stroke="#3333aa" d="M1247.0852,-218.5C1247.0852,-218.5 1356.8672,-218.5 1356.8672,-218.5 1362.8672,-218.5 1368.8672,-224.5 1368.8672,-230.5 1368.8672,-230.5 1368.8672,-242.5 1368.8672,-242.5 1368.8672,-248.5 1362.8672,-254.5 1356.8672,-254.5 1356.8672,-254.5 1247.0852,-254.5 1247.0852,-254.5 1241.0852,-254.5 1235.0852,-248.5 1235.0852,-242.5 1235.0852,-242.5 1235.0852,-230.5 1235.0852,-230.5 1235.0852,-224.5 1241.0852,-218.5 1247.0852,-218.5"/>
<text text-anchor="middle" x="1301.9762" y="-232.3" font-family="lato, roboto, helvetica" font-size="14.00" fill="#eeeeee">Pak Tand Van Draak</text>
</g>
<!-- trek_tand_van_draak&#45;&gt;pak_tand_van_draak -->
<g id="edge52" class="edge">
<title>trek_tand_van_draak&#45;&gt;pak_tand_van_draak</title>
<path fill="none" stroke="#999999" d="M1303.7269,-364.3042C1303.3781,-338.8403 1302.7421,-292.4108 1302.3403,-263.0759"/>
<polygon fill="#999999" stroke="#999999" points="1305.138,-262.886 1302.2286,-254.9251 1299.5385,-262.9627 1305.138,-262.886"/>
</g>
<!-- breng_medicijnen_naar_koning -->
<g id="node14" class="node">
<title>breng_medicijnen_naar_koning</title>
<polygon fill="#333333" stroke="#333333" points="1302.9762,-36 1114.1351,-18 1302.9762,0 1491.8173,-18 1302.9762,-36"/>
<polyline fill="none" stroke="#333333" points="1126.0809,-19.1387 1126.0809,-16.8613 "/>
<polyline fill="none" stroke="#333333" points="1291.0303,-1.1387 1314.9221,-1.1387 "/>
<polyline fill="none" stroke="#333333" points="1479.8715,-16.8613 1479.8715,-19.1387 "/>
<polyline fill="none" stroke="#333333" points="1314.9221,-34.8613 1291.0303,-34.8613 "/>
<text text-anchor="middle" x="1302.9762" y="-13.8" font-family="lato, roboto, helvetica" font-size="14.00" fill="#dddddd">Breng Medicijnen Naar Koning</text>
</g>
<!-- zet_zadel_op_draak&#45;&gt;breng_medicijnen_naar_koning -->
<g id="edge9" class="edge">
<title>zet_zadel_op_draak&#45;&gt;breng_medicijnen_naar_koning</title>
<path fill="none" stroke="#999999" d="M1423.7644,-72.3922C1399.2864,-61.3695 1368.1122,-47.3314 1343.5657,-36.2779"/>
<polygon fill="#999999" stroke="#999999" points="1344.6196,-33.6817 1336.1753,-32.9499 1342.3202,-38.7879 1344.6196,-33.6817"/>
</g>
<!-- krijg_medicijn_van_heks -->
<g id="node16" class="node">
<title>krijg_medicijn_van_heks</title>
<path fill="#3333aa" stroke="#3333aa" d="M1074.6357,-145.5C1074.6357,-145.5 1209.3167,-145.5 1209.3167,-145.5 1215.3167,-145.5 1221.3167,-151.5 1221.3167,-157.5 1221.3167,-157.5 1221.3167,-169.5 1221.3167,-169.5 1221.3167,-175.5 1215.3167,-181.5 1209.3167,-181.5 1209.3167,-181.5 1074.6357,-181.5 1074.6357,-181.5 1068.6357,-181.5 1062.6357,-175.5 1062.6357,-169.5 1062.6357,-169.5 1062.6357,-157.5 1062.6357,-157.5 1062.6357,-151.5 1068.6357,-145.5 1074.6357,-145.5"/>
<text text-anchor="middle" x="1141.9762" y="-159.3" font-family="lato, roboto, helvetica" font-size="14.00" fill="#eeeeee">Krijg Medicijn Van Heks</text>
</g>
<!-- krijg_medicijn_van_heks&#45;&gt;breng_medicijnen_naar_koning -->
<g id="edge10" class="edge">
<title>krijg_medicijn_van_heks&#45;&gt;breng_medicijnen_naar_koning</title>
<path fill="none" stroke="#999999" d="M1162.0414,-145.3665C1191.5973,-118.6561 1246.7669,-68.7979 1278.6081,-40.0221"/>
<polygon fill="#999999" stroke="#999999" points="1280.5928,-42.0025 1284.6508,-34.5612 1276.838,-37.8478 1280.5928,-42.0025"/>
</g>
<!-- breng_molensteen_naar_toren -->
<g id="node17" class="node">
<title>breng_molensteen_naar_toren</title>
<path fill="#3333aa" stroke="#3333aa" d="M385.6511,-437.5C385.6511,-437.5 548.3013,-437.5 548.3013,-437.5 554.3013,-437.5 560.3013,-443.5 560.3013,-449.5 560.3013,-449.5 560.3013,-461.5 560.3013,-461.5 560.3013,-467.5 554.3013,-473.5 548.3013,-473.5 548.3013,-473.5 385.6511,-473.5 385.6511,-473.5 379.6511,-473.5 373.6511,-467.5 373.6511,-461.5 373.6511,-461.5 373.6511,-449.5 373.6511,-449.5 373.6511,-443.5 379.6511,-437.5 385.6511,-437.5"/>
<text text-anchor="middle" x="466.9762" y="-451.3" font-family="lato, roboto, helvetica" font-size="14.00" fill="#eeeeee">Breng Molensteen Naar Toren</text>
</g>
<!-- leg_molensteen_op_lift -->
<g id="node38" class="node">
<title>leg_molensteen_op_lift</title>
<path fill="#3333aa" stroke="#3333aa" d="M560.135,-291.5C560.135,-291.5 687.8174,-291.5 687.8174,-291.5 693.8174,-291.5 699.8174,-297.5 699.8174,-303.5 699.8174,-303.5 699.8174,-315.5 699.8174,-315.5 699.8174,-321.5 693.8174,-327.5 687.8174,-327.5 687.8174,-327.5 560.135,-327.5 560.135,-327.5 554.135,-327.5 548.135,-321.5 548.135,-315.5 548.135,-315.5 548.135,-303.5 548.135,-303.5 548.135,-297.5 554.135,-291.5 560.135,-291.5"/>
<text text-anchor="middle" x="623.9762" y="-305.3" font-family="lato, roboto, helvetica" font-size="14.00" fill="#eeeeee">Leg Molensteen Op Lift</text>
</g>
<!-- breng_molensteen_naar_toren&#45;&gt;leg_molensteen_op_lift -->
<g id="edge45" class="edge">
<title>breng_molensteen_naar_toren&#45;&gt;leg_molensteen_op_lift</title>
<path fill="none" stroke="#999999" d="M474.0936,-437.3639C482.6975,-417.3388 498.8276,-385.1423 520.9762,-364 534.9974,-350.6158 552.9511,-339.616 569.9296,-331.0906"/>
<polygon fill="#999999" stroke="#999999" points="571.1618,-333.605 577.1321,-327.5886 568.7131,-328.5687 571.1618,-333.605"/>
</g>
<!-- zet_molensteen_op_wagen&#45;&gt;breng_molensteen_naar_toren -->
<g id="edge11" class="edge">
<title>zet_molensteen_op_wagen&#45;&gt;breng_molensteen_naar_toren</title>
<path fill="none" stroke="#999999" d="M459.9732,-583.3042C461.3685,-557.8403 463.9126,-511.4108 465.52,-482.0759"/>
<polygon fill="#999999" stroke="#999999" points="468.3246,-482.0664 465.9666,-473.9251 462.733,-481.7599 468.3246,-482.0664"/>
</g>
<!-- breng_paard_naar_hoefsmid -->
<g id="node19" class="node">
<title>breng_paard_naar_hoefsmid</title>
<path fill="#3333aa" stroke="#3333aa" d="M195.4821,-1094.5C195.4821,-1094.5 346.4703,-1094.5 346.4703,-1094.5 352.4703,-1094.5 358.4703,-1100.5 358.4703,-1106.5 358.4703,-1106.5 358.4703,-1118.5 358.4703,-1118.5 358.4703,-1124.5 352.4703,-1130.5 346.4703,-1130.5 346.4703,-1130.5 195.4821,-1130.5 195.4821,-1130.5 189.4821,-1130.5 183.4821,-1124.5 183.4821,-1118.5 183.4821,-1118.5 183.4821,-1106.5 183.4821,-1106.5 183.4821,-1100.5 189.4821,-1094.5 195.4821,-1094.5"/>
<text text-anchor="middle" x="270.9762" y="-1108.3" font-family="lato, roboto, helvetica" font-size="14.00" fill="#eeeeee">Breng Paard Naar Hoefsmid</text>
</g>
<!-- breng_paard_naar_hoefsmid&#45;&gt;geef_paard_nieuwe_hoefijzers -->
<g id="edge20" class="edge">
<title>breng_paard_naar_hoefsmid&#45;&gt;geef_paard_nieuwe_hoefijzers</title>
<path fill="none" stroke="#999999" d="M277.156,-1094.4551C280.1608,-1085.6809 283.8269,-1074.9759 287.1224,-1065.353"/>
<polygon fill="#999999" stroke="#999999" points="289.8378,-1066.066 289.7809,-1057.5904 284.5399,-1064.2516 289.8378,-1066.066"/>
</g>
<!-- praat_met_boer&#45;&gt;zet_graan_op_wagen -->
<g id="edge70" class="edge">
<title>praat_met_boer&#45;&gt;zet_graan_op_wagen</title>
<path fill="none" stroke="#999999" d="M219.9881,-1168.7713C202.5585,-1160.3318 184.9565,-1148.1423 174.9762,-1131 134.0541,-1060.7114 130.8263,-1016.3074 174.9762,-948 185.5363,-931.6617 202.2939,-920.1722 220.0119,-912.1103"/>
<polygon fill="#999999" stroke="#999999" points="221.3837,-914.5696 227.6488,-908.8609 219.1912,-909.4166 221.3837,-914.5696"/>
</g>
<!-- praat_met_boer&#45;&gt;breng_paard_naar_hoefsmid -->
<g id="edge12" class="edge">
<title>praat_met_boer&#45;&gt;breng_paard_naar_hoefsmid</title>
<path fill="none" stroke="#999999" d="M270.9762,-1167.4551C270.9762,-1158.7686 270.9762,-1148.1898 270.9762,-1138.642"/>
<polygon fill="#999999" stroke="#999999" points="273.7763,-1138.5903 270.9762,-1130.5904 268.1763,-1138.5904 273.7763,-1138.5903"/>
</g>
<!-- ga_naar_hut_in_moeras -->
<g id="node21" class="node">
<title>ga_naar_hut_in_moeras</title>
<path fill="#3333aa" stroke="#3333aa" d="M1061.899,-1021.5C1061.899,-1021.5 1186.0534,-1021.5 1186.0534,-1021.5 1192.0534,-1021.5 1198.0534,-1027.5 1198.0534,-1033.5 1198.0534,-1033.5 1198.0534,-1045.5 1198.0534,-1045.5 1198.0534,-1051.5 1192.0534,-1057.5 1186.0534,-1057.5 1186.0534,-1057.5 1061.899,-1057.5 1061.899,-1057.5 1055.899,-1057.5 1049.899,-1051.5 1049.899,-1045.5 1049.899,-1045.5 1049.899,-1033.5 1049.899,-1033.5 1049.899,-1027.5 1055.899,-1021.5 1061.899,-1021.5"/>
<text text-anchor="middle" x="1123.9762" y="-1035.3" font-family="lato, roboto, helvetica" font-size="14.00" fill="#eeeeee">Ga Naar Hut In Moeras</text>
</g>
<!-- praat_met_heks -->
<g id="node27" class="node">
<title>praat_met_heks</title>
<path fill="#3333aa" stroke="#3333aa" d="M1052.4369,-948.5C1052.4369,-948.5 1131.5155,-948.5 1131.5155,-948.5 1137.5155,-948.5 1143.5155,-954.5 1143.5155,-960.5 1143.5155,-960.5 1143.5155,-972.5 1143.5155,-972.5 1143.5155,-978.5 1137.5155,-984.5 1131.5155,-984.5 1131.5155,-984.5 1052.4369,-984.5 1052.4369,-984.5 1046.4369,-984.5 1040.4369,-978.5 1040.4369,-972.5 1040.4369,-972.5 1040.4369,-960.5 1040.4369,-960.5 1040.4369,-954.5 1046.4369,-948.5 1052.4369,-948.5"/>
<text text-anchor="middle" x="1091.9762" y="-962.3" font-family="lato, roboto, helvetica" font-size="14.00" fill="#eeeeee">Praat Met Heks</text>
</g>
<!-- ga_naar_hut_in_moeras&#45;&gt;praat_met_heks -->
<g id="edge60" class="edge">
<title>ga_naar_hut_in_moeras&#45;&gt;praat_met_heks</title>
<path fill="none" stroke="#999999" d="M1116.0661,-1021.4551C1112.1814,-1012.5932 1107.4334,-1001.7616 1103.1826,-992.0646"/>
<polygon fill="#999999" stroke="#999999" points="1105.6825,-990.7932 1099.9062,-984.5904 1100.5537,-993.0415 1105.6825,-990.7932"/>
</g>
<!-- praat_met_bakker&#45;&gt;ga_naar_hut_in_moeras -->
<g id="edge13" class="edge">
<title>praat_met_bakker&#45;&gt;ga_naar_hut_in_moeras</title>
<path fill="none" stroke="#999999" d="M1146.7359,-1167.3042C1142.2012,-1141.8403 1133.9329,-1095.4108 1128.7089,-1066.0759"/>
<polygon fill="#999999" stroke="#999999" points="1131.4167,-1065.3103 1127.2574,-1057.9251 1125.9034,-1066.2921 1131.4167,-1065.3103"/>
</g>
<!-- geef_dwerg_eten -->
<g id="node23" class="node">
<title>geef_dwerg_eten</title>
<path fill="#3333aa" stroke="#3333aa" d="M716.0049,-1021.5C716.0049,-1021.5 805.9475,-1021.5 805.9475,-1021.5 811.9475,-1021.5 817.9475,-1027.5 817.9475,-1033.5 817.9475,-1033.5 817.9475,-1045.5 817.9475,-1045.5 817.9475,-1051.5 811.9475,-1057.5 805.9475,-1057.5 805.9475,-1057.5 716.0049,-1057.5 716.0049,-1057.5 710.0049,-1057.5 704.0049,-1051.5 704.0049,-1045.5 704.0049,-1045.5 704.0049,-1033.5 704.0049,-1033.5 704.0049,-1027.5 710.0049,-1021.5 716.0049,-1021.5"/>
<text text-anchor="middle" x="760.9762" y="-1035.3" font-family="lato, roboto, helvetica" font-size="14.00" fill="#eeeeee">Geef Dwerg Eten</text>
</g>
<!-- krijg_edelsteen_van_dwerg -->
<g id="node28" class="node">
<title>krijg_edelsteen_van_dwerg</title>
<path fill="#3333aa" stroke="#3333aa" d="M861.0361,-948.5C861.0361,-948.5 1008.9163,-948.5 1008.9163,-948.5 1014.9163,-948.5 1020.9163,-954.5 1020.9163,-960.5 1020.9163,-960.5 1020.9163,-972.5 1020.9163,-972.5 1020.9163,-978.5 1014.9163,-984.5 1008.9163,-984.5 1008.9163,-984.5 861.0361,-984.5 861.0361,-984.5 855.0361,-984.5 849.0361,-978.5 849.0361,-972.5 849.0361,-972.5 849.0361,-960.5 849.0361,-960.5 849.0361,-954.5 855.0361,-948.5 861.0361,-948.5"/>
<text text-anchor="middle" x="934.9762" y="-962.3" font-family="lato, roboto, helvetica" font-size="14.00" fill="#eeeeee">Krijg Edelsteen Van Dwerg</text>
</g>
<!-- geef_dwerg_eten&#45;&gt;krijg_edelsteen_van_dwerg -->
<g id="edge33" class="edge">
<title>geef_dwerg_eten&#45;&gt;krijg_edelsteen_van_dwerg</title>
<path fill="none" stroke="#999999" d="M803.9874,-1021.4551C828.3519,-1011.2332 858.9627,-998.3907 884.4648,-987.6916"/>
<polygon fill="#999999" stroke="#999999" points="885.5629,-990.2674 891.8567,-984.5904 883.3964,-985.1034 885.5629,-990.2674"/>
</g>
<!-- pak_hendel_in_mijn -->
<g id="node52" class="node">
<title>pak_hendel_in_mijn</title>
<path fill="#3333aa" stroke="#3333aa" d="M706.5712,-875.5C706.5712,-875.5 809.3812,-875.5 809.3812,-875.5 815.3812,-875.5 821.3812,-881.5 821.3812,-887.5 821.3812,-887.5 821.3812,-899.5 821.3812,-899.5 821.3812,-905.5 815.3812,-911.5 809.3812,-911.5 809.3812,-911.5 706.5712,-911.5 706.5712,-911.5 700.5712,-911.5 694.5712,-905.5 694.5712,-899.5 694.5712,-899.5 694.5712,-887.5 694.5712,-887.5 694.5712,-881.5 700.5712,-875.5 706.5712,-875.5"/>
<text text-anchor="middle" x="757.9762" y="-889.3" font-family="lato, roboto, helvetica" font-size="14.00" fill="#eeeeee">Pak Hendel In Mijn</text>
</g>
<!-- geef_dwerg_eten&#45;&gt;pak_hendel_in_mijn -->
<g id="edge48" class="edge">
<title>geef_dwerg_eten&#45;&gt;pak_hendel_in_mijn</title>
<path fill="none" stroke="#999999" d="M760.6023,-1021.3042C760.0791,-995.8403 759.1251,-949.4108 758.5223,-920.0759"/>
<polygon fill="#999999" stroke="#999999" points="761.3187,-919.8659 758.3548,-911.9251 755.7198,-919.981 761.3187,-919.8659"/>
</g>
<!-- praat_met_dwerg&#45;&gt;geef_dwerg_eten -->
<g id="edge14" class="edge">
<title>praat_met_dwerg&#45;&gt;geef_dwerg_eten</title>
<path fill="none" stroke="#999999" d="M854.0725,-1240.4294C838.4938,-1231.6476 822.1501,-1219.5718 811.9762,-1204 784.8803,-1162.5279 811.1178,-1140.4789 793.9762,-1094 790.2313,-1083.8459 784.5285,-1073.4924 778.9113,-1064.5751"/>
<polygon fill="#999999" stroke="#999999" points="781.1819,-1062.931 774.464,-1057.7629 776.4927,-1065.9924 781.1819,-1062.931"/>
</g>
<!-- krijg_kapotte_houweel_van_dwerg -->
<g id="node45" class="node">
<title>krijg_kapotte_houweel_van_dwerg</title>
<path fill="#3333aa" stroke="#3333aa" d="M833.0722,-1167.5C833.0722,-1167.5 1024.8802,-1167.5 1024.8802,-1167.5 1030.8802,-1167.5 1036.8802,-1173.5 1036.8802,-1179.5 1036.8802,-1179.5 1036.8802,-1191.5 1036.8802,-1191.5 1036.8802,-1197.5 1030.8802,-1203.5 1024.8802,-1203.5 1024.8802,-1203.5 833.0722,-1203.5 833.0722,-1203.5 827.0722,-1203.5 821.0722,-1197.5 821.0722,-1191.5 821.0722,-1191.5 821.0722,-1179.5 821.0722,-1179.5 821.0722,-1173.5 827.0722,-1167.5 833.0722,-1167.5"/>
<text text-anchor="middle" x="928.9762" y="-1181.3" font-family="lato, roboto, helvetica" font-size="14.00" fill="#eeeeee">Krijg Kapotte Houweel Van Dwerg</text>
</g>
<!-- praat_met_dwerg&#45;&gt;krijg_kapotte_houweel_van_dwerg -->
<g id="edge37" class="edge">
<title>praat_met_dwerg&#45;&gt;krijg_kapotte_houweel_van_dwerg</title>
<path fill="none" stroke="#999999" d="M904.1335,-1240.4551C908.1396,-1231.5932 913.036,-1220.7616 917.4196,-1211.0646"/>
<polygon fill="#999999" stroke="#999999" points="920.0544,-1212.0335 920.7984,-1203.5904 914.9515,-1209.7267 920.0544,-1212.0335"/>
</g>
<!-- koop_eten_bij_bakker -->
<g id="node25" class="node">
<title>koop_eten_bij_bakker</title>
<path fill="#3333aa" stroke="#3333aa" d="M656.5719,-1094.5C656.5719,-1094.5 773.3805,-1094.5 773.3805,-1094.5 779.3805,-1094.5 785.3805,-1100.5 785.3805,-1106.5 785.3805,-1106.5 785.3805,-1118.5 785.3805,-1118.5 785.3805,-1124.5 779.3805,-1130.5 773.3805,-1130.5 773.3805,-1130.5 656.5719,-1130.5 656.5719,-1130.5 650.5719,-1130.5 644.5719,-1124.5 644.5719,-1118.5 644.5719,-1118.5 644.5719,-1106.5 644.5719,-1106.5 644.5719,-1100.5 650.5719,-1094.5 656.5719,-1094.5"/>
<text text-anchor="middle" x="714.9762" y="-1108.3" font-family="lato, roboto, helvetica" font-size="14.00" fill="#eeeeee">Koop Eten Bij Bakker</text>
</g>
<!-- koop_eten_bij_bakker&#45;&gt;geef_dwerg_eten -->
<g id="edge15" class="edge">
<title>koop_eten_bij_bakker&#45;&gt;geef_dwerg_eten</title>
<path fill="none" stroke="#999999" d="M726.347,-1094.4551C732.0418,-1085.4177 739.0273,-1074.3319 745.2291,-1064.4899"/>
<polygon fill="#999999" stroke="#999999" points="747.6807,-1065.8514 749.5768,-1057.5904 742.9429,-1062.8659 747.6807,-1065.8514"/>
</g>
<!-- geef_edelsteen_aan_heks -->
<g id="node26" class="node">
<title>geef_edelsteen_aan_heks</title>
<path fill="#3333aa" stroke="#3333aa" d="M915.8734,-875.5C915.8734,-875.5 1052.079,-875.5 1052.079,-875.5 1058.079,-875.5 1064.079,-881.5 1064.079,-887.5 1064.079,-887.5 1064.079,-899.5 1064.079,-899.5 1064.079,-905.5 1058.079,-911.5 1052.079,-911.5 1052.079,-911.5 915.8734,-911.5 915.8734,-911.5 909.8734,-911.5 903.8734,-905.5 903.8734,-899.5 903.8734,-899.5 903.8734,-887.5 903.8734,-887.5 903.8734,-881.5 909.8734,-875.5 915.8734,-875.5"/>
<text text-anchor="middle" x="983.9762" y="-889.3" font-family="lato, roboto, helvetica" font-size="14.00" fill="#eeeeee">Geef Edelsteen Aan Heks</text>
</g>
<!-- krijg_ingredientenlijst_van_heks -->
<g id="node44" class="node">
<title>krijg_ingredientenlijst_van_heks</title>
<path fill="#3333aa" stroke="#3333aa" d="M896.0319,-291.5C896.0319,-291.5 1071.9205,-291.5 1071.9205,-291.5 1077.9205,-291.5 1083.9205,-297.5 1083.9205,-303.5 1083.9205,-303.5 1083.9205,-315.5 1083.9205,-315.5 1083.9205,-321.5 1077.9205,-327.5 1071.9205,-327.5 1071.9205,-327.5 896.0319,-327.5 896.0319,-327.5 890.0319,-327.5 884.0319,-321.5 884.0319,-315.5 884.0319,-315.5 884.0319,-303.5 884.0319,-303.5 884.0319,-297.5 890.0319,-291.5 896.0319,-291.5"/>
<text text-anchor="middle" x="983.9762" y="-305.3" font-family="lato, roboto, helvetica" font-size="14.00" fill="#eeeeee">Krijg Ingredientenlijst Van Heks</text>
</g>
<!-- geef_edelsteen_aan_heks&#45;&gt;krijg_ingredientenlijst_van_heks -->
<g id="edge36" class="edge">
<title>geef_edelsteen_aan_heks&#45;&gt;krijg_ingredientenlijst_van_heks</title>
<path fill="none" stroke="#999999" d="M983.9762,-875.062C983.9762,-847.3663 983.9762,-793.3785 983.9762,-747.5 983.9762,-747.5 983.9762,-747.5 983.9762,-455.5 983.9762,-413.7434 983.9762,-365.2692 983.9762,-336.0145"/>
<polygon fill="#999999" stroke="#999999" points="986.7763,-335.9379 983.9762,-327.938 981.1763,-335.938 986.7763,-335.9379"/>
</g>
<!-- praat_met_heks&#45;&gt;geef_edelsteen_aan_heks -->
<g id="edge16" class="edge">
<title>praat_met_heks&#45;&gt;geef_edelsteen_aan_heks</title>
<path fill="none" stroke="#999999" d="M1065.2796,-948.4551C1050.8707,-938.7157 1032.9423,-926.5975 1017.5904,-916.2207"/>
<polygon fill="#999999" stroke="#999999" points="1018.936,-913.7506 1010.74,-911.5904 1015.8,-918.3902 1018.936,-913.7506"/>
</g>
<!-- praat_met_heks&#45;&gt;krijg_ingredientenlijst_van_heks -->
<g id="edge35" class="edge">
<title>praat_met_heks&#45;&gt;krijg_ingredientenlijst_van_heks</title>
<path fill="none" stroke="#999999" d="M1091.9762,-948.062C1091.9762,-920.3663 1091.9762,-866.3785 1091.9762,-820.5 1091.9762,-820.5 1091.9762,-820.5 1091.9762,-455.5 1091.9762,-403.9891 1047.988,-358.7611 1016.1581,-332.7768"/>
<polygon fill="#999999" stroke="#999999" points="1017.5725,-330.3237 1009.5707,-327.5288 1014.0831,-334.7037 1017.5725,-330.3237"/>
</g>
<!-- krijg_edelsteen_van_dwerg&#45;&gt;geef_edelsteen_aan_heks -->
<g id="edge17" class="edge">
<title>krijg_edelsteen_van_dwerg&#45;&gt;geef_edelsteen_aan_heks</title>
<path fill="none" stroke="#999999" d="M947.0886,-948.4551C953.1547,-939.4177 960.5959,-928.3319 967.2021,-918.4899"/>
<polygon fill="#999999" stroke="#999999" points="969.6996,-919.7933 971.8334,-911.5904 965.0499,-916.6722 969.6996,-919.7933"/>
</g>
<!-- geef_houweel_aan_dwerg -->
<g id="node29" class="node">
<title>geef_houweel_aan_dwerg</title>
<path fill="#3333aa" stroke="#3333aa" d="M864.1567,-1021.5C864.1567,-1021.5 1005.7957,-1021.5 1005.7957,-1021.5 1011.7957,-1021.5 1017.7957,-1027.5 1017.7957,-1033.5 1017.7957,-1033.5 1017.7957,-1045.5 1017.7957,-1045.5 1017.7957,-1051.5 1011.7957,-1057.5 1005.7957,-1057.5 1005.7957,-1057.5 864.1567,-1057.5 864.1567,-1057.5 858.1567,-1057.5 852.1567,-1051.5 852.1567,-1045.5 852.1567,-1045.5 852.1567,-1033.5 852.1567,-1033.5 852.1567,-1027.5 858.1567,-1021.5 864.1567,-1021.5"/>
<text text-anchor="middle" x="934.9762" y="-1035.3" font-family="lato, roboto, helvetica" font-size="14.00" fill="#eeeeee">Geef Houweel Aan Dwerg</text>
</g>
<!-- geef_houweel_aan_dwerg&#45;&gt;krijg_edelsteen_van_dwerg -->
<g id="edge32" class="edge">
<title>geef_houweel_aan_dwerg&#45;&gt;krijg_edelsteen_van_dwerg</title>
<path fill="none" stroke="#999999" d="M934.9762,-1021.4551C934.9762,-1012.7686 934.9762,-1002.1898 934.9762,-992.642"/>
<polygon fill="#999999" stroke="#999999" points="937.7763,-992.5903 934.9762,-984.5904 932.1763,-992.5904 937.7763,-992.5903"/>
</g>
<!-- repareer_houweel -->
<g id="node30" class="node">
<title>repareer_houweel</title>
<path fill="#3333aa" stroke="#3333aa" d="M886.7016,-1094.5C886.7016,-1094.5 983.2508,-1094.5 983.2508,-1094.5 989.2508,-1094.5 995.2508,-1100.5 995.2508,-1106.5 995.2508,-1106.5 995.2508,-1118.5 995.2508,-1118.5 995.2508,-1124.5 989.2508,-1130.5 983.2508,-1130.5 983.2508,-1130.5 886.7016,-1130.5 886.7016,-1130.5 880.7016,-1130.5 874.7016,-1124.5 874.7016,-1118.5 874.7016,-1118.5 874.7016,-1106.5 874.7016,-1106.5 874.7016,-1100.5 880.7016,-1094.5 886.7016,-1094.5"/>
<text text-anchor="middle" x="934.9762" y="-1108.3" font-family="lato, roboto, helvetica" font-size="14.00" fill="#eeeeee">Repareer Houweel</text>
</g>
<!-- repareer_houweel&#45;&gt;geef_houweel_aan_dwerg -->
<g id="edge18" class="edge">
<title>repareer_houweel&#45;&gt;geef_houweel_aan_dwerg</title>
<path fill="none" stroke="#999999" d="M934.9762,-1094.4551C934.9762,-1085.7686 934.9762,-1075.1898 934.9762,-1065.642"/>
<polygon fill="#999999" stroke="#999999" points="937.7763,-1065.5903 934.9762,-1057.5904 932.1763,-1065.5904 937.7763,-1065.5903"/>
</g>
<!-- geef_leer_aan_hoefsmid -->
<g id="node31" class="node">
<title>geef_leer_aan_hoefsmid</title>
<path fill="#3333aa" stroke="#3333aa" d="M1399.0424,-218.5C1399.0424,-218.5 1532.91,-218.5 1532.91,-218.5 1538.91,-218.5 1544.91,-224.5 1544.91,-230.5 1544.91,-230.5 1544.91,-242.5 1544.91,-242.5 1544.91,-248.5 1538.91,-254.5 1532.91,-254.5 1532.91,-254.5 1399.0424,-254.5 1399.0424,-254.5 1393.0424,-254.5 1387.0424,-248.5 1387.0424,-242.5 1387.0424,-242.5 1387.0424,-230.5 1387.0424,-230.5 1387.0424,-224.5 1393.0424,-218.5 1399.0424,-218.5"/>
<text text-anchor="middle" x="1465.9762" y="-232.3" font-family="lato, roboto, helvetica" font-size="14.00" fill="#eeeeee">Geef Leer Aan Hoefsmid</text>
</g>
<!-- maak_zadel_bij_hoefsmid -->
<g id="node51" class="node">
<title>maak_zadel_bij_hoefsmid</title>
<path fill="#3333aa" stroke="#3333aa" d="M1394.6904,-145.5C1394.6904,-145.5 1533.262,-145.5 1533.262,-145.5 1539.262,-145.5 1545.262,-151.5 1545.262,-157.5 1545.262,-157.5 1545.262,-169.5 1545.262,-169.5 1545.262,-175.5 1539.262,-181.5 1533.262,-181.5 1533.262,-181.5 1394.6904,-181.5 1394.6904,-181.5 1388.6904,-181.5 1382.6904,-175.5 1382.6904,-169.5 1382.6904,-169.5 1382.6904,-157.5 1382.6904,-157.5 1382.6904,-151.5 1388.6904,-145.5 1394.6904,-145.5"/>
<text text-anchor="middle" x="1463.9762" y="-159.3" font-family="lato, roboto, helvetica" font-size="14.00" fill="#eeeeee">Maak Zadel Bij Hoefsmid</text>
</g>
<!-- geef_leer_aan_hoefsmid&#45;&gt;maak_zadel_bij_hoefsmid -->
<g id="edge47" class="edge">
<title>geef_leer_aan_hoefsmid&#45;&gt;maak_zadel_bij_hoefsmid</title>
<path fill="none" stroke="#999999" d="M1465.4818,-218.4551C1465.2438,-209.7686 1464.954,-199.1898 1464.6924,-189.642"/>
<polygon fill="#999999" stroke="#999999" points="1467.49,-189.5106 1464.4718,-181.5904 1461.8921,-189.6641 1467.49,-189.5106"/>
</g>
<!-- pak_stuk_leer_in_toren&#45;&gt;geef_leer_aan_hoefsmid -->
<g id="edge19" class="edge">
<title>pak_stuk_leer_in_toren&#45;&gt;geef_leer_aan_hoefsmid</title>
<path fill="none" stroke="#999999" d="M1443.3919,-291.4551C1447.0338,-282.5932 1451.4851,-271.7616 1455.4702,-262.0646"/>
<polygon fill="#999999" stroke="#999999" points="1458.0907,-263.0542 1458.5418,-254.5904 1452.911,-260.9256 1458.0907,-263.0542"/>
</g>
<!-- haal_wagen_bij_molenaar_met_paard -->
<g id="node34" class="node">
<title>haal_wagen_bij_molenaar_met_paard</title>
<path fill="#3333aa" stroke="#3333aa" d="M195.6013,-948.5C195.6013,-948.5 396.3511,-948.5 396.3511,-948.5 402.3511,-948.5 408.3511,-954.5 408.3511,-960.5 408.3511,-960.5 408.3511,-972.5 408.3511,-972.5 408.3511,-978.5 402.3511,-984.5 396.3511,-984.5 396.3511,-984.5 195.6013,-984.5 195.6013,-984.5 189.6013,-984.5 183.6013,-978.5 183.6013,-972.5 183.6013,-972.5 183.6013,-960.5 183.6013,-960.5 183.6013,-954.5 189.6013,-948.5 195.6013,-948.5"/>
<text text-anchor="middle" x="295.9762" y="-962.3" font-family="lato, roboto, helvetica" font-size="14.00" fill="#eeeeee">Haal Wagen Bij Molenaar Met Paard</text>
</g>
<!-- geef_paard_nieuwe_hoefijzers&#45;&gt;haal_wagen_bij_molenaar_met_paard -->
<g id="edge22" class="edge">
<title>geef_paard_nieuwe_hoefijzers&#45;&gt;haal_wagen_bij_molenaar_met_paard</title>
<path fill="none" stroke="#999999" d="M295.9762,-1021.4551C295.9762,-1012.7686 295.9762,-1002.1898 295.9762,-992.642"/>
<polygon fill="#999999" stroke="#999999" points="298.7763,-992.5903 295.9762,-984.5904 293.1763,-992.5904 298.7763,-992.5903"/>
</g>
<!-- haal_wagen_bij_molenaar_met_paard&#45;&gt;zet_graan_op_wagen -->
<g id="edge69" class="edge">
<title>haal_wagen_bij_molenaar_met_paard&#45;&gt;zet_graan_op_wagen</title>
<path fill="none" stroke="#999999" d="M295.9762,-948.4551C295.9762,-939.7686 295.9762,-929.1898 295.9762,-919.642"/>
<polygon fill="#999999" stroke="#999999" points="298.7763,-919.5903 295.9762,-911.5904 293.1763,-919.5904 298.7763,-919.5903"/>
</g>
<!-- praat_met_molenaar&#45;&gt;haal_wagen_bij_molenaar_met_paard -->
<g id="edge23" class="edge">
<title>praat_met_molenaar&#45;&gt;haal_wagen_bij_molenaar_met_paard</title>
<path fill="none" stroke="#999999" d="M87.5907,-1094.3362C112.9867,-1075.1419 154.8631,-1044.4623 192.9762,-1021 211.8357,-1009.3902 233.3999,-997.7439 251.9071,-988.2152"/>
<polygon fill="#999999" stroke="#999999" points="253.2531,-990.6719 259.1022,-984.5376 250.7044,-985.6855 253.2531,-990.6719"/>
</g>
<!-- hijs_lift_met_molensteen -->
<g id="node36" class="node">
<title>hijs_lift_met_molensteen</title>
<path fill="#3333aa" stroke="#3333aa" d="M556.6308,-218.5C556.6308,-218.5 691.3216,-218.5 691.3216,-218.5 697.3216,-218.5 703.3216,-224.5 703.3216,-230.5 703.3216,-230.5 703.3216,-242.5 703.3216,-242.5 703.3216,-248.5 697.3216,-254.5 691.3216,-254.5 691.3216,-254.5 556.6308,-254.5 556.6308,-254.5 550.6308,-254.5 544.6308,-248.5 544.6308,-242.5 544.6308,-242.5 544.6308,-230.5 544.6308,-230.5 544.6308,-224.5 550.6308,-218.5 556.6308,-218.5"/>
<text text-anchor="middle" x="623.9762" y="-232.3" font-family="lato, roboto, helvetica" font-size="14.00" fill="#eeeeee">Hijs Lift Met Molensteen</text>
</g>
<!-- zet_hendel_op_lift -->
<g id="node37" class="node">
<title>zet_hendel_op_lift</title>
<path fill="#3333aa" stroke="#3333aa" d="M707.1336,-802.5C707.1336,-802.5 806.8188,-802.5 806.8188,-802.5 812.8188,-802.5 818.8188,-808.5 818.8188,-814.5 818.8188,-814.5 818.8188,-826.5 818.8188,-826.5 818.8188,-832.5 812.8188,-838.5 806.8188,-838.5 806.8188,-838.5 707.1336,-838.5 707.1336,-838.5 701.1336,-838.5 695.1336,-832.5 695.1336,-826.5 695.1336,-826.5 695.1336,-814.5 695.1336,-814.5 695.1336,-808.5 701.1336,-802.5 707.1336,-802.5"/>
<text text-anchor="middle" x="756.9762" y="-816.3" font-family="lato, roboto, helvetica" font-size="14.00" fill="#eeeeee">Zet Hendel Op Lift</text>
</g>
<!-- zet_hendel_op_lift&#45;&gt;hijs_lift_met_molensteen -->
<g id="edge24" class="edge">
<title>zet_hendel_op_lift&#45;&gt;hijs_lift_met_molensteen</title>
<path fill="none" stroke="#999999" d="M755.5258,-802.0756C753.4755,-774.3972 749.9762,-720.4312 749.9762,-674.5 749.9762,-674.5 749.9762,-674.5 749.9762,-382.5 749.9762,-337.9374 738.0559,-324.7668 708.9762,-291 698.0661,-278.3313 683.4873,-267.5377 669.4877,-258.9804"/>
<polygon fill="#999999" stroke="#999999" points="670.5561,-256.3601 662.2421,-254.7113 667.7133,-261.1849 670.5561,-256.3601"/>
</g>
<!-- leg_molensteen_op_lift&#45;&gt;hijs_lift_met_molensteen -->
<g id="edge25" class="edge">
<title>leg_molensteen_op_lift&#45;&gt;hijs_lift_met_molensteen</title>
<path fill="none" stroke="#999999" d="M623.9762,-291.4551C623.9762,-282.7686 623.9762,-272.1898 623.9762,-262.642"/>
<polygon fill="#999999" stroke="#999999" points="626.7763,-262.5903 623.9762,-254.5904 621.1763,-262.5904 626.7763,-262.5903"/>
</g>
<!-- knoop_touw_aan_molensteen -->
<g id="node39" class="node">
<title>knoop_touw_aan_molensteen</title>
<path fill="#3333aa" stroke="#3333aa" d="M1139.0256,-510.5C1139.0256,-510.5 1300.9268,-510.5 1300.9268,-510.5 1306.9268,-510.5 1312.9268,-516.5 1312.9268,-522.5 1312.9268,-522.5 1312.9268,-534.5 1312.9268,-534.5 1312.9268,-540.5 1306.9268,-546.5 1300.9268,-546.5 1300.9268,-546.5 1139.0256,-546.5 1139.0256,-546.5 1133.0256,-546.5 1127.0256,-540.5 1127.0256,-534.5 1127.0256,-534.5 1127.0256,-522.5 1127.0256,-522.5 1127.0256,-516.5 1133.0256,-510.5 1139.0256,-510.5"/>
<text text-anchor="middle" x="1219.9762" y="-524.3" font-family="lato, roboto, helvetica" font-size="14.00" fill="#eeeeee">Knoop Touw Aan Molensteen</text>
</g>
<!-- knoop_touw_aan_molensteen&#45;&gt;snij_touw_van_lift -->
<g id="edge65" class="edge">
<title>knoop_touw_aan_molensteen&#45;&gt;snij_touw_van_lift</title>
<path fill="none" stroke="#999999" d="M1231.347,-510.4551C1237.0418,-501.4177 1244.0273,-490.3319 1250.2291,-480.4899"/>
<polygon fill="#999999" stroke="#999999" points="1252.6807,-481.8514 1254.5768,-473.5904 1247.9429,-478.8659 1252.6807,-481.8514"/>
</g>
<!-- pak_touw_op_boerderij&#45;&gt;knoop_touw_aan_molensteen -->
<g id="edge26" class="edge">
<title>pak_touw_op_boerderij&#45;&gt;knoop_touw_aan_molensteen</title>
<path fill="none" stroke="#999999" d="M1231.2683,-583.4551C1229.4835,-574.7686 1227.3097,-564.1898 1225.3478,-554.642"/>
<polygon fill="#999999" stroke="#999999" points="1228.0464,-553.863 1223.6934,-546.5904 1222.561,-554.9902 1228.0464,-553.863"/>
</g>
<!-- knoop_touw_aan_tand -->
<g id="node41" class="node">
<title>knoop_touw_aan_tand</title>
<path fill="#3333aa" stroke="#3333aa" d="M1343.2991,-510.5C1343.2991,-510.5 1468.6533,-510.5 1468.6533,-510.5 1474.6533,-510.5 1480.6533,-516.5 1480.6533,-522.5 1480.6533,-522.5 1480.6533,-534.5 1480.6533,-534.5 1480.6533,-540.5 1474.6533,-546.5 1468.6533,-546.5 1468.6533,-546.5 1343.2991,-546.5 1343.2991,-546.5 1337.2991,-546.5 1331.2991,-540.5 1331.2991,-534.5 1331.2991,-534.5 1331.2991,-522.5 1331.2991,-522.5 1331.2991,-516.5 1337.2991,-510.5 1343.2991,-510.5"/>
<text text-anchor="middle" x="1405.9762" y="-524.3" font-family="lato, roboto, helvetica" font-size="14.00" fill="#eeeeee">Knoop Touw Aan Tand</text>
</g>
<!-- pak_touw_op_boerderij&#45;&gt;knoop_touw_aan_tand -->
<g id="edge27" class="edge">
<title>pak_touw_op_boerderij&#45;&gt;knoop_touw_aan_tand</title>
<path fill="none" stroke="#999999" d="M1277.2459,-583.4551C1301.0875,-573.277 1331.0151,-560.5009 1356.0127,-549.8294"/>
<polygon fill="#999999" stroke="#999999" points="1357.3419,-552.3065 1363.6002,-546.5904 1355.1432,-547.1562 1357.3419,-552.3065"/>
</g>
<!-- knoop_touw_aan_tand&#45;&gt;snij_touw_van_lift -->
<g id="edge66" class="edge">
<title>knoop_touw_aan_tand&#45;&gt;snij_touw_van_lift</title>
<path fill="none" stroke="#999999" d="M1371.3694,-510.4551C1352.1865,-500.4525 1328.1912,-487.9407 1307.9441,-477.3833"/>
<polygon fill="#999999" stroke="#999999" points="1309.0582,-474.8065 1300.67,-473.5904 1306.469,-479.772 1309.0582,-474.8065"/>
</g>
<!-- _1&#45;&gt;koop_eten_bij_bakker -->
<g id="edge28" class="edge">
<title>_1&#45;&gt;koop_eten_bij_bakker</title>
<path fill="none" stroke="#999999" d="M714.9762,-1167.4551C714.9762,-1158.7686 714.9762,-1148.1898 714.9762,-1138.642"/>
<polygon fill="#999999" stroke="#999999" points="717.7763,-1138.5903 714.9762,-1130.5904 712.1763,-1138.5904 717.7763,-1138.5903"/>
</g>
<!-- krijg_geld_van_meel&#45;&gt;koop_zwaard_bij_wapensmid -->
<g id="edge31" class="edge">
<title>krijg_geld_van_meel&#45;&gt;koop_zwaard_bij_wapensmid</title>
<path fill="none" stroke="#999999" d="M627.9762,-583.4551C627.9762,-574.7686 627.9762,-564.1898 627.9762,-554.642"/>
<polygon fill="#999999" stroke="#999999" points="630.7763,-554.5903 627.9762,-546.5904 625.1763,-554.5904 630.7763,-554.5903"/>
</g>
<!-- krijg_ingredientenlijst_van_heks&#45;&gt;pak_tand_van_draak -->
<g id="edge51" class="edge">
<title>krijg_ingredientenlijst_van_heks&#45;&gt;pak_tand_van_draak</title>
<path fill="none" stroke="#999999" d="M1065.5518,-291.4966C1112.5137,-281.0403 1172.6195,-267.5012 1225.9762,-255 1226.2489,-254.9361 1226.5221,-254.872 1226.7959,-254.8078"/>
<polygon fill="#999999" stroke="#999999" points="1227.7119,-257.4686 1234.8545,-252.9054 1226.4252,-252.0184 1227.7119,-257.4686"/>
</g>
<!-- pluk_kruiden_in_bos -->
<g id="node47" class="node">
<title>pluk_kruiden_in_bos</title>
<path fill="#3333aa" stroke="#3333aa" d="M930.2325,-218.5C930.2325,-218.5 1037.7199,-218.5 1037.7199,-218.5 1043.7199,-218.5 1049.7199,-224.5 1049.7199,-230.5 1049.7199,-230.5 1049.7199,-242.5 1049.7199,-242.5 1049.7199,-248.5 1043.7199,-254.5 1037.7199,-254.5 1037.7199,-254.5 930.2325,-254.5 930.2325,-254.5 924.2325,-254.5 918.2325,-248.5 918.2325,-242.5 918.2325,-242.5 918.2325,-230.5 918.2325,-230.5 918.2325,-224.5 924.2325,-218.5 930.2325,-218.5"/>
<text text-anchor="middle" x="983.9762" y="-232.3" font-family="lato, roboto, helvetica" font-size="14.00" fill="#eeeeee">Pluk Kruiden In Bos</text>
</g>
<!-- krijg_ingredientenlijst_van_heks&#45;&gt;pluk_kruiden_in_bos -->
<g id="edge54" class="edge">
<title>krijg_ingredientenlijst_van_heks&#45;&gt;pluk_kruiden_in_bos</title>
<path fill="none" stroke="#999999" d="M983.9762,-291.4551C983.9762,-282.7686 983.9762,-272.1898 983.9762,-262.642"/>
<polygon fill="#999999" stroke="#999999" points="986.7763,-262.5903 983.9762,-254.5904 981.1763,-262.5904 986.7763,-262.5903"/>
</g>
<!-- pluk_paddenstoelen_in_woud -->
<g id="node48" class="node">
<title>pluk_paddenstoelen_in_woud</title>
<path fill="#3333aa" stroke="#3333aa" d="M733.5186,-218.5C733.5186,-218.5 888.4338,-218.5 888.4338,-218.5 894.4338,-218.5 900.4338,-224.5 900.4338,-230.5 900.4338,-230.5 900.4338,-242.5 900.4338,-242.5 900.4338,-248.5 894.4338,-254.5 888.4338,-254.5 888.4338,-254.5 733.5186,-254.5 733.5186,-254.5 727.5186,-254.5 721.5186,-248.5 721.5186,-242.5 721.5186,-242.5 721.5186,-230.5 721.5186,-230.5 721.5186,-224.5 727.5186,-218.5 733.5186,-218.5"/>
<text text-anchor="middle" x="810.9762" y="-232.3" font-family="lato, roboto, helvetica" font-size="14.00" fill="#eeeeee">Pluk Paddenstoelen In Woud</text>
</g>
<!-- krijg_ingredientenlijst_van_heks&#45;&gt;pluk_paddenstoelen_in_woud -->
<g id="edge55" class="edge">
<title>krijg_ingredientenlijst_van_heks&#45;&gt;pluk_paddenstoelen_in_woud</title>
<path fill="none" stroke="#999999" d="M941.2121,-291.4551C917.0917,-281.277 886.814,-268.5009 861.524,-257.8294"/>
<polygon fill="#999999" stroke="#999999" points="862.3071,-255.1208 853.8479,-254.5904 860.13,-260.2803 862.3071,-255.1208"/>
</g>
<!-- krijg_ingredientenlijst_van_heks&#45;&gt;krijg_taart_van_bakker -->
<g id="edge43" class="edge">
<title>krijg_ingredientenlijst_van_heks&#45;&gt;krijg_taart_van_bakker</title>
<path fill="none" stroke="#999999" d="M1023.0324,-291.4551C1044.9666,-281.3209 1072.4757,-268.611 1095.5122,-257.9675"/>
<polygon fill="#999999" stroke="#999999" points="1096.7338,-260.4876 1102.8217,-254.5904 1094.385,-255.404 1096.7338,-260.4876"/>
</g>
<!-- krijg_kapotte_houweel_van_dwerg&#45;&gt;repareer_houweel -->
<g id="edge63" class="edge">
<title>krijg_kapotte_houweel_van_dwerg&#45;&gt;repareer_houweel</title>
<path fill="none" stroke="#999999" d="M930.4593,-1167.4551C931.1733,-1158.7686 932.0428,-1148.1898 932.8275,-1138.642"/>
<polygon fill="#999999" stroke="#999999" points="935.6245,-1138.7929 933.4893,-1130.5904 930.0433,-1138.3341 935.6245,-1138.7929"/>
</g>
<!-- pak_tand_van_draak&#45;&gt;krijg_medicijn_van_heks -->
<g id="edge38" class="edge">
<title>pak_tand_van_draak&#45;&gt;krijg_medicijn_van_heks</title>
<path fill="none" stroke="#999999" d="M1262.4256,-218.4551C1240.2138,-208.3209 1212.3565,-195.611 1189.0283,-184.9675"/>
<polygon fill="#999999" stroke="#999999" points="1190.0668,-182.3637 1181.6263,-181.5904 1187.7423,-187.4585 1190.0668,-182.3637"/>
</g>
<!-- pluk_kruiden_in_bos&#45;&gt;krijg_medicijn_van_heks -->
<g id="edge39" class="edge">
<title>pluk_kruiden_in_bos&#45;&gt;krijg_medicijn_van_heks</title>
<path fill="none" stroke="#999999" d="M1023.0324,-218.4551C1044.9666,-208.3209 1072.4757,-195.611 1095.5122,-184.9675"/>
<polygon fill="#999999" stroke="#999999" points="1096.7338,-187.4876 1102.8217,-181.5904 1094.385,-182.404 1096.7338,-187.4876"/>
</g>
<!-- pluk_paddenstoelen_in_woud&#45;&gt;krijg_medicijn_van_heks -->
<g id="edge40" class="edge">
<title>pluk_paddenstoelen_in_woud&#45;&gt;krijg_medicijn_van_heks</title>
<path fill="none" stroke="#999999" d="M892.7964,-218.4551C941.9519,-207.6141 1004.4725,-193.8256 1054.5908,-182.7723"/>
<polygon fill="#999999" stroke="#999999" points="1055.3149,-185.48 1062.5241,-181.0227 1054.1087,-180.0114 1055.3149,-185.48"/>
</g>
<!-- krijg_taart_van_bakker&#45;&gt;krijg_medicijn_van_heks -->
<g id="edge41" class="edge">
<title>krijg_taart_van_bakker&#45;&gt;krijg_medicijn_van_heks</title>
<path fill="none" stroke="#999999" d="M1141.9762,-218.4551C1141.9762,-209.7686 1141.9762,-199.1898 1141.9762,-189.642"/>
<polygon fill="#999999" stroke="#999999" points="1144.7763,-189.5903 1141.9762,-181.5904 1139.1763,-189.5904 1144.7763,-189.5903"/>
</g>
<!-- praat_met_dochter_van_bakker&#45;&gt;leg_molensteen_op_lift -->
<g id="edge46" class="edge">
<title>praat_met_dochter_van_bakker&#45;&gt;leg_molensteen_op_lift</title>
<path fill="none" stroke="#999999" d="M624.729,-364.4551C624.61,-355.7686 624.4651,-345.1898 624.3343,-335.642"/>
<polygon fill="#999999" stroke="#999999" points="627.1334,-335.5512 624.224,-327.5904 621.534,-335.628 627.1334,-335.5512"/>
</g>
<!-- maak_zadel_bij_hoefsmid&#45;&gt;zet_zadel_op_draak -->
<g id="edge73" class="edge">
<title>maak_zadel_bij_hoefsmid&#45;&gt;zet_zadel_op_draak</title>
<path fill="none" stroke="#999999" d="M1463.9762,-145.4551C1463.9762,-136.7686 1463.9762,-126.1898 1463.9762,-116.642"/>
<polygon fill="#999999" stroke="#999999" points="1466.7763,-116.5903 1463.9762,-108.5904 1461.1763,-116.5904 1466.7763,-116.5903"/>
</g>
<!-- pak_hendel_in_mijn&#45;&gt;zet_hendel_op_lift -->
<g id="edge71" class="edge">
<title>pak_hendel_in_mijn&#45;&gt;zet_hendel_op_lift</title>
<path fill="none" stroke="#999999" d="M757.729,-875.4551C757.61,-866.7686 757.4651,-856.1898 757.3343,-846.642"/>
<polygon fill="#999999" stroke="#999999" points="760.1334,-846.5512 757.224,-838.5904 754.534,-846.628 760.1334,-846.5512"/>
</g>
<!-- pak_hout_in_bos&#45;&gt;repareer_houweel -->
<g id="edge62" class="edge">
<title>pak_hout_in_bos&#45;&gt;repareer_houweel</title>
<path fill="none" stroke="#999999" d="M1045.5643,-1240.4996C1052.5443,-1220.8871 1059.8895,-1189.3312 1045.9762,-1167 1035.993,-1150.9768 1019.7708,-1139.5309 1002.7739,-1131.4084"/>
<polygon fill="#999999" stroke="#999999" points="1003.9033,-1128.8462 995.458,-1128.1271 1001.6115,-1133.9558 1003.9033,-1128.8462"/>
</g>
<!-- snij_touw_van_lift&#45;&gt;trek_tand_van_draak -->
<g id="edge67" class="edge">
<title>snij_touw_van_lift&#45;&gt;trek_tand_van_draak</title>
<path fill="none" stroke="#999999" d="M1275.3695,-437.4551C1280.0282,-428.5054 1285.7326,-417.547 1290.8183,-407.7769"/>
<polygon fill="#999999" stroke="#999999" points="1293.349,-408.9794 1294.5593,-400.5904 1288.3817,-406.3936 1293.349,-408.9794"/>
</g>
</g>
</svg>
