<?xml version="1.0" encoding="UTF-8" standalone="no"?>
<!DOCTYPE svg PUBLIC "-//W3C//DTD SVG 1.1//EN"
 "http://www.w3.org/Graphics/SVG/1.1/DTD/svg11.dtd">
<!-- Generated by graphviz version 2.40.1 (20161225.0304)
 -->
<!-- Title: G Pages: 1 -->
<svg width="1295pt" height="1681pt"
 viewBox="0.00 0.00 1295.46 1681.00" xmlns="http://www.w3.org/2000/svg" xmlns:xlink="http://www.w3.org/1999/xlink">
<g id="graph0" class="graph" transform="scale(1 1) rotate(0) translate(4 1677)">
<title>G</title>
<polygon fill="#ffffff" stroke="transparent" points="-4,4 -4,-1677 1291.4576,-1677 1291.4576,4 -4,4"/>
<text text-anchor="middle" x="643.7288" y="-1651" font-family="lato, roboto, helvetica" font-size="20.00" fill="#000000">Avontuur</text>
<!-- START -->
<g id="node1" class="node">
<title>START</title>
<polygon fill="#333333" stroke="#333333" points="572,-1641 513.294,-1623 572,-1605 630.706,-1623 572,-1641"/>
<polyline fill="none" stroke="#333333" points="524.7668,-1626.5177 524.7668,-1619.4823 "/>
<polyline fill="none" stroke="#333333" points="560.5272,-1608.5177 583.4728,-1608.5177 "/>
<polyline fill="none" stroke="#333333" points="619.2332,-1619.4823 619.2332,-1626.5177 "/>
<polyline fill="none" stroke="#333333" points="583.4728,-1637.4823 560.5272,-1637.4823 "/>
<text text-anchor="middle" x="572" y="-1618.8" font-family="lato, roboto, helvetica" font-size="14.00" fill="#dddddd">START</text>
</g>
<!-- betaal_twee_geldstukken -->
<g id="node4" class="node">
<title>betaal_twee_geldstukken</title>
<path fill="#3333aa" stroke="#3333aa" d="M404.6942,-1532.5C404.6942,-1532.5 541.3058,-1532.5 541.3058,-1532.5 547.3058,-1532.5 553.3058,-1538.5 553.3058,-1544.5 553.3058,-1544.5 553.3058,-1556.5 553.3058,-1556.5 553.3058,-1562.5 547.3058,-1568.5 541.3058,-1568.5 541.3058,-1568.5 404.6942,-1568.5 404.6942,-1568.5 398.6942,-1568.5 392.6942,-1562.5 392.6942,-1556.5 392.6942,-1556.5 392.6942,-1544.5 392.6942,-1544.5 392.6942,-1538.5 398.6942,-1532.5 404.6942,-1532.5"/>
<text text-anchor="middle" x="473" y="-1546.3" font-family="lato, roboto, helvetica" font-size="14.00" fill="#eeeeee">Betaal Twee Geldstukken</text>
</g>
<!-- START&#45;&gt;betaal_twee_geldstukken -->
<g id="edge2" class="edge">
<title>START&#45;&gt;betaal_twee_geldstukken</title>
<path fill="none" stroke="#999999" d="M554.3008,-1610.0385C540.48,-1599.9171 520.9233,-1585.5954 504.4544,-1573.5348"/>
<polygon fill="#999999" stroke="#999999" points="505.7198,-1570.9909 497.611,-1568.5232 502.4111,-1575.509 505.7198,-1570.9909"/>
</g>
<!-- vind_een_geldstuk_bij_de_rivier -->
<g id="node7" class="node">
<title>vind_een_geldstuk_bij_de_rivier</title>
<path fill="#3333aa" stroke="#3333aa" d="M582.8783,-1532.5C582.8783,-1532.5 761.1217,-1532.5 761.1217,-1532.5 767.1217,-1532.5 773.1217,-1538.5 773.1217,-1544.5 773.1217,-1544.5 773.1217,-1556.5 773.1217,-1556.5 773.1217,-1562.5 767.1217,-1568.5 761.1217,-1568.5 761.1217,-1568.5 582.8783,-1568.5 582.8783,-1568.5 576.8783,-1568.5 570.8783,-1562.5 570.8783,-1556.5 570.8783,-1556.5 570.8783,-1544.5 570.8783,-1544.5 570.8783,-1538.5 576.8783,-1532.5 582.8783,-1532.5"/>
<text text-anchor="middle" x="672" y="-1546.3" font-family="lato, roboto, helvetica" font-size="14.00" fill="#eeeeee">Vind Een Geldstuk Bij De Rivier</text>
</g>
<!-- START&#45;&gt;vind_een_geldstuk_bij_de_rivier -->
<g id="edge73" class="edge">
<title>START&#45;&gt;vind_een_geldstuk_bij_de_rivier</title>
<path fill="none" stroke="#999999" d="M589.878,-1610.0385C603.8384,-1599.9171 623.5926,-1585.5954 640.2279,-1573.5348"/>
<polygon fill="#999999" stroke="#999999" points="642.307,-1575.4859 647.1404,-1568.5232 639.0199,-1570.9521 642.307,-1575.4859"/>
</g>
<!-- praat_met_boer -->
<g id="node20" class="node">
<title>praat_met_boer</title>
<path fill="#3333aa" stroke="#3333aa" d="M298.2377,-1459.5C298.2377,-1459.5 375.7623,-1459.5 375.7623,-1459.5 381.7623,-1459.5 387.7623,-1465.5 387.7623,-1471.5 387.7623,-1471.5 387.7623,-1483.5 387.7623,-1483.5 387.7623,-1489.5 381.7623,-1495.5 375.7623,-1495.5 375.7623,-1495.5 298.2377,-1495.5 298.2377,-1495.5 292.2377,-1495.5 286.2377,-1489.5 286.2377,-1483.5 286.2377,-1483.5 286.2377,-1471.5 286.2377,-1471.5 286.2377,-1465.5 292.2377,-1459.5 298.2377,-1459.5"/>
<text text-anchor="middle" x="337" y="-1473.3" font-family="lato, roboto, helvetica" font-size="14.00" fill="#eeeeee">Praat Met Boer</text>
</g>
<!-- START&#45;&gt;praat_met_boer -->
<g id="edge61" class="edge">
<title>START&#45;&gt;praat_met_boer</title>
<path fill="none" stroke="#999999" d="M535.5671,-1616.1169C487.7441,-1606.4878 407.1513,-1588.0296 384,-1569 363.5386,-1552.1814 351.0105,-1524.1392 344.0912,-1503.5231"/>
<polygon fill="#999999" stroke="#999999" points="346.7135,-1502.5291 341.6267,-1495.7493 341.3753,-1504.2215 346.7135,-1502.5291"/>
</g>
<!-- praat_met_bakker -->
<g id="node22" class="node">
<title>praat_met_bakker</title>
<path fill="#3333aa" stroke="#3333aa" d="M968.6304,-875.5C968.6304,-875.5 1059.3696,-875.5 1059.3696,-875.5 1065.3696,-875.5 1071.3696,-881.5 1071.3696,-887.5 1071.3696,-887.5 1071.3696,-899.5 1071.3696,-899.5 1071.3696,-905.5 1065.3696,-911.5 1059.3696,-911.5 1059.3696,-911.5 968.6304,-911.5 968.6304,-911.5 962.6304,-911.5 956.6304,-905.5 956.6304,-899.5 956.6304,-899.5 956.6304,-887.5 956.6304,-887.5 956.6304,-881.5 962.6304,-875.5 968.6304,-875.5"/>
<text text-anchor="middle" x="1014" y="-889.3" font-family="lato, roboto, helvetica" font-size="14.00" fill="#eeeeee">Praat Met Bakker</text>
</g>
<!-- START&#45;&gt;praat_met_bakker -->
<g id="edge60" class="edge">
<title>START&#45;&gt;praat_met_bakker</title>
<path fill="none" stroke="#999999" d="M617.5671,-1618.8999C697.7542,-1611.1699 860.4763,-1593.035 912,-1569 956.8241,-1548.0902 973.0647,-1539.8223 996,-1496 1030.1041,-1430.8375 1014,-1405.0475 1014,-1331.5 1014,-1331.5 1014,-1331.5 1014,-1039.5 1014,-997.7434 1014,-949.2692 1014,-920.0145"/>
<polygon fill="#999999" stroke="#999999" points="1016.8001,-919.9379 1014,-911.938 1011.2001,-919.938 1016.8001,-919.9379"/>
</g>
<!-- praat_met_dwerg -->
<g id="node24" class="node">
<title>praat_met_dwerg</title>
<path fill="#3333aa" stroke="#3333aa" d="M802.7994,-1532.5C802.7994,-1532.5 891.2006,-1532.5 891.2006,-1532.5 897.2006,-1532.5 903.2006,-1538.5 903.2006,-1544.5 903.2006,-1544.5 903.2006,-1556.5 903.2006,-1556.5 903.2006,-1562.5 897.2006,-1568.5 891.2006,-1568.5 891.2006,-1568.5 802.7994,-1568.5 802.7994,-1568.5 796.7994,-1568.5 790.7994,-1562.5 790.7994,-1556.5 790.7994,-1556.5 790.7994,-1544.5 790.7994,-1544.5 790.7994,-1538.5 796.7994,-1532.5 802.7994,-1532.5"/>
<text text-anchor="middle" x="847" y="-1546.3" font-family="lato, roboto, helvetica" font-size="14.00" fill="#eeeeee">Praat Met Dwerg</text>
</g>
<!-- START&#45;&gt;praat_met_dwerg -->
<g id="edge63" class="edge">
<title>START&#45;&gt;praat_met_dwerg</title>
<path fill="none" stroke="#999999" d="M604.4454,-1614.9307C645.7627,-1604.5921 719.3215,-1585.9753 782,-1569 782.2654,-1568.9281 782.5314,-1568.856 782.798,-1568.7836"/>
<polygon fill="#999999" stroke="#999999" points="783.678,-1571.4458 790.6543,-1566.6322 782.1989,-1566.0447 783.678,-1571.4458"/>
</g>
<!-- praat_met_molenaar -->
<g id="node37" class="node">
<title>praat_met_molenaar</title>
<path fill="#3333aa" stroke="#3333aa" d="M88.0238,-1313.5C88.0238,-1313.5 191.9762,-1313.5 191.9762,-1313.5 197.9762,-1313.5 203.9762,-1319.5 203.9762,-1325.5 203.9762,-1325.5 203.9762,-1337.5 203.9762,-1337.5 203.9762,-1343.5 197.9762,-1349.5 191.9762,-1349.5 191.9762,-1349.5 88.0238,-1349.5 88.0238,-1349.5 82.0238,-1349.5 76.0238,-1343.5 76.0238,-1337.5 76.0238,-1337.5 76.0238,-1325.5 76.0238,-1325.5 76.0238,-1319.5 82.0238,-1313.5 88.0238,-1313.5"/>
<text text-anchor="middle" x="140" y="-1327.3" font-family="lato, roboto, helvetica" font-size="14.00" fill="#eeeeee">Praat Met Molenaar</text>
</g>
<!-- START&#45;&gt;praat_met_molenaar -->
<g id="edge65" class="edge">
<title>START&#45;&gt;praat_met_molenaar</title>
<path fill="none" stroke="#999999" d="M526.4738,-1618.8954C480.1137,-1613.1474 407.375,-1599.7054 352,-1569 257.9786,-1516.8653 184.4423,-1406.8408 154.5425,-1356.9975"/>
<polygon fill="#999999" stroke="#999999" points="156.7727,-1355.2686 150.2859,-1349.8131 151.9548,-1358.1231 156.7727,-1355.2686"/>
</g>
<!-- pak_touw_op_boerderij -->
<g id="node42" class="node">
<title>pak_touw_op_boerderij</title>
<path fill="#3333aa" stroke="#3333aa" d="M226.9344,-583.5C226.9344,-583.5 353.0656,-583.5 353.0656,-583.5 359.0656,-583.5 365.0656,-589.5 365.0656,-595.5 365.0656,-595.5 365.0656,-607.5 365.0656,-607.5 365.0656,-613.5 359.0656,-619.5 353.0656,-619.5 353.0656,-619.5 226.9344,-619.5 226.9344,-619.5 220.9344,-619.5 214.9344,-613.5 214.9344,-607.5 214.9344,-607.5 214.9344,-595.5 214.9344,-595.5 214.9344,-589.5 220.9344,-583.5 226.9344,-583.5"/>
<text text-anchor="middle" x="290" y="-597.3" font-family="lato, roboto, helvetica" font-size="14.00" fill="#eeeeee">Pak Touw Op Boerderij</text>
</g>
<!-- START&#45;&gt;pak_touw_op_boerderij -->
<g id="edge57" class="edge">
<title>START&#45;&gt;pak_touw_op_boerderij</title>
<path fill="none" stroke="#999999" d="M520.23,-1620.8642C379.427,-1613.6564 0,-1584.3228 0,-1477.5 0,-1477.5 0,-1477.5 0,-747.5 0,-654.3963 120.7231,-620.6563 206.3875,-608.4346"/>
<polygon fill="#999999" stroke="#999999" points="207.0156,-611.1748 214.563,-607.3177 206.2576,-605.6264 207.0156,-611.1748"/>
</g>
<!-- pak_hout_in_bos -->
<g id="node55" class="node">
<title>pak_hout_in_bos</title>
<path fill="#3333aa" stroke="#3333aa" d="M1057.5319,-1459.5C1057.5319,-1459.5 1142.4681,-1459.5 1142.4681,-1459.5 1148.4681,-1459.5 1154.4681,-1465.5 1154.4681,-1471.5 1154.4681,-1471.5 1154.4681,-1483.5 1154.4681,-1483.5 1154.4681,-1489.5 1148.4681,-1495.5 1142.4681,-1495.5 1142.4681,-1495.5 1057.5319,-1495.5 1057.5319,-1495.5 1051.5319,-1495.5 1045.5319,-1489.5 1045.5319,-1483.5 1045.5319,-1483.5 1045.5319,-1471.5 1045.5319,-1471.5 1045.5319,-1465.5 1051.5319,-1459.5 1057.5319,-1459.5"/>
<text text-anchor="middle" x="1100" y="-1473.3" font-family="lato, roboto, helvetica" font-size="14.00" fill="#eeeeee">Pak Hout In Bos</text>
</g>
<!-- START&#45;&gt;pak_hout_in_bos -->
<g id="edge53" class="edge">
<title>START&#45;&gt;pak_hout_in_bos</title>
<path fill="none" stroke="#999999" d="M626.7396,-1621.7647C732.6977,-1618.5333 961.3539,-1607.2171 1029,-1569 1055.6218,-1553.9599 1075.669,-1524.501 1087.5587,-1503.0607"/>
<polygon fill="#999999" stroke="#999999" points="1090.1128,-1504.2224 1091.4214,-1495.8482 1085.1761,-1501.5785 1090.1128,-1504.2224"/>
</g>
<!-- beklim_toren -->
<g id="node2" class="node">
<title>beklim_toren</title>
<path fill="#3333aa" stroke="#3333aa" d="M687.9246,-729.5C687.9246,-729.5 758.0754,-729.5 758.0754,-729.5 764.0754,-729.5 770.0754,-735.5 770.0754,-741.5 770.0754,-741.5 770.0754,-753.5 770.0754,-753.5 770.0754,-759.5 764.0754,-765.5 758.0754,-765.5 758.0754,-765.5 687.9246,-765.5 687.9246,-765.5 681.9246,-765.5 675.9246,-759.5 675.9246,-753.5 675.9246,-753.5 675.9246,-741.5 675.9246,-741.5 675.9246,-735.5 681.9246,-729.5 687.9246,-729.5"/>
<text text-anchor="middle" x="723" y="-743.3" font-family="lato, roboto, helvetica" font-size="14.00" fill="#eeeeee">Beklim Toren</text>
</g>
<!-- praat_met_dochter_van_bakker -->
<g id="node52" class="node">
<title>praat_met_dochter_van_bakker</title>
<path fill="#3333aa" stroke="#3333aa" d="M615.9263,-656.5C615.9263,-656.5 782.0737,-656.5 782.0737,-656.5 788.0737,-656.5 794.0737,-662.5 794.0737,-668.5 794.0737,-668.5 794.0737,-680.5 794.0737,-680.5 794.0737,-686.5 788.0737,-692.5 782.0737,-692.5 782.0737,-692.5 615.9263,-692.5 615.9263,-692.5 609.9263,-692.5 603.9263,-686.5 603.9263,-680.5 603.9263,-680.5 603.9263,-668.5 603.9263,-668.5 603.9263,-662.5 609.9263,-656.5 615.9263,-656.5"/>
<text text-anchor="middle" x="699" y="-670.3" font-family="lato, roboto, helvetica" font-size="14.00" fill="#eeeeee">Praat Met Dochter Van Bakker</text>
</g>
<!-- beklim_toren&#45;&gt;praat_met_dochter_van_bakker -->
<g id="edge62" class="edge">
<title>beklim_toren&#45;&gt;praat_met_dochter_van_bakker</title>
<path fill="none" stroke="#999999" d="M717.0674,-729.4551C714.1828,-720.6809 710.6633,-709.9759 707.4996,-700.353"/>
<polygon fill="#999999" stroke="#999999" points="710.1061,-699.3157 704.9475,-692.5904 704.7862,-701.0647 710.1061,-699.3157"/>
</g>
<!-- koop_zwaard_bij_wapensmid -->
<g id="node3" class="node">
<title>koop_zwaard_bij_wapensmid</title>
<path fill="#3333aa" stroke="#3333aa" d="M741.8285,-802.5C741.8285,-802.5 902.1715,-802.5 902.1715,-802.5 908.1715,-802.5 914.1715,-808.5 914.1715,-814.5 914.1715,-814.5 914.1715,-826.5 914.1715,-826.5 914.1715,-832.5 908.1715,-838.5 902.1715,-838.5 902.1715,-838.5 741.8285,-838.5 741.8285,-838.5 735.8285,-838.5 729.8285,-832.5 729.8285,-826.5 729.8285,-826.5 729.8285,-814.5 729.8285,-814.5 729.8285,-808.5 735.8285,-802.5 741.8285,-802.5"/>
<text text-anchor="middle" x="822" y="-816.3" font-family="lato, roboto, helvetica" font-size="14.00" fill="#eeeeee">Koop Zwaard Bij Wapensmid</text>
</g>
<!-- koop_zwaard_bij_wapensmid&#45;&gt;beklim_toren -->
<g id="edge1" class="edge">
<title>koop_zwaard_bij_wapensmid&#45;&gt;beklim_toren</title>
<path fill="none" stroke="#999999" d="M797.5281,-802.4551C784.439,-792.8035 768.1815,-780.8156 754.1939,-770.5016"/>
<polygon fill="#999999" stroke="#999999" points="755.6341,-768.0846 747.5335,-765.5904 752.3106,-772.5918 755.6341,-768.0846"/>
</g>
<!-- vind_ketting_in_woud -->
<g id="node26" class="node">
<title>vind_ketting_in_woud</title>
<path fill="#3333aa" stroke="#3333aa" d="M863.8173,-729.5C863.8173,-729.5 982.1827,-729.5 982.1827,-729.5 988.1827,-729.5 994.1827,-735.5 994.1827,-741.5 994.1827,-741.5 994.1827,-753.5 994.1827,-753.5 994.1827,-759.5 988.1827,-765.5 982.1827,-765.5 982.1827,-765.5 863.8173,-765.5 863.8173,-765.5 857.8173,-765.5 851.8173,-759.5 851.8173,-753.5 851.8173,-753.5 851.8173,-741.5 851.8173,-741.5 851.8173,-735.5 857.8173,-729.5 863.8173,-729.5"/>
<text text-anchor="middle" x="923" y="-743.3" font-family="lato, roboto, helvetica" font-size="14.00" fill="#eeeeee">Vind Ketting In Woud</text>
</g>
<!-- koop_zwaard_bij_wapensmid&#45;&gt;vind_ketting_in_woud -->
<g id="edge16" class="edge">
<title>koop_zwaard_bij_wapensmid&#45;&gt;vind_ketting_in_woud</title>
<path fill="none" stroke="#999999" d="M846.9663,-802.4551C860.3198,-792.8035 876.9058,-780.8156 891.1759,-770.5016"/>
<polygon fill="#999999" stroke="#999999" points="893.1273,-772.546 897.9709,-765.5904 889.8469,-768.0074 893.1273,-772.546"/>
</g>
<!-- snij_touw_van_lift -->
<g id="node56" class="node">
<title>snij_touw_van_lift</title>
<path fill="#3333aa" stroke="#3333aa" d="M575.9807,-437.5C575.9807,-437.5 678.0193,-437.5 678.0193,-437.5 684.0193,-437.5 690.0193,-443.5 690.0193,-449.5 690.0193,-449.5 690.0193,-461.5 690.0193,-461.5 690.0193,-467.5 684.0193,-473.5 678.0193,-473.5 678.0193,-473.5 575.9807,-473.5 575.9807,-473.5 569.9807,-473.5 563.9807,-467.5 563.9807,-461.5 563.9807,-461.5 563.9807,-449.5 563.9807,-449.5 563.9807,-443.5 569.9807,-437.5 575.9807,-437.5"/>
<text text-anchor="middle" x="627" y="-451.3" font-family="lato, roboto, helvetica" font-size="14.00" fill="#eeeeee">Snij Touw Van Lift</text>
</g>
<!-- koop_zwaard_bij_wapensmid&#45;&gt;snij_touw_van_lift -->
<g id="edge68" class="edge">
<title>koop_zwaard_bij_wapensmid&#45;&gt;snij_touw_van_lift</title>
<path fill="none" stroke="#999999" d="M822,-802.062C822,-774.3663 822,-720.3785 822,-674.5 822,-674.5 822,-674.5 822,-601.5 822,-537.2769 753.3838,-497.873 697.5567,-476.4419"/>
<polygon fill="#999999" stroke="#999999" points="698.2467,-473.7108 689.7726,-473.5364 696.2884,-478.9572 698.2467,-473.7108"/>
</g>
<!-- _0 -->
<g id="node6" class="node">
<title>_0</title>
<polygon fill="#888888" stroke="#888888" points="568,-1495.5 537.9733,-1477.5 568,-1459.5 598.0267,-1477.5 568,-1495.5"/>
<polyline fill="none" stroke="#888888" points="547.9822,-1483.5 547.9822,-1471.5 "/>
<polyline fill="none" stroke="#888888" points="557.9911,-1465.5 578.0089,-1465.5 "/>
<polyline fill="none" stroke="#888888" points="588.0178,-1471.5 588.0178,-1483.5 "/>
<polyline fill="none" stroke="#888888" points="578.0089,-1489.5 557.9911,-1489.5 "/>
<text text-anchor="middle" x="568" y="-1473.3" font-family="lato, roboto, helvetica" font-size="14.00" fill="#eeeeee">Or</text>
</g>
<!-- betaal_twee_geldstukken&#45;&gt;_0 -->
<g id="edge4" class="edge">
<title>betaal_twee_geldstukken&#45;&gt;_0</title>
<path fill="none" stroke="#999999" stroke-dasharray="5,2" d="M496.4832,-1532.4551C512.3977,-1520.226 533.1933,-1504.2462 548.2545,-1492.6729"/>
<polygon fill="#999999" stroke="#999999" points="550.0954,-1494.7895 554.7329,-1487.6947 546.6833,-1490.349 550.0954,-1494.7895"/>
</g>
<!-- _1 -->
<g id="node44" class="node">
<title>_1</title>
<polygon fill="#888888" stroke="#888888" points="672,-1495.5 641.9733,-1477.5 672,-1459.5 702.0267,-1477.5 672,-1495.5"/>
<polyline fill="none" stroke="#888888" points="651.9822,-1483.5 651.9822,-1471.5 "/>
<polyline fill="none" stroke="#888888" points="661.9911,-1465.5 682.0089,-1465.5 "/>
<polyline fill="none" stroke="#888888" points="692.0178,-1471.5 692.0178,-1483.5 "/>
<polyline fill="none" stroke="#888888" points="682.0089,-1489.5 661.9911,-1489.5 "/>
<text text-anchor="middle" x="672" y="-1473.3" font-family="lato, roboto, helvetica" font-size="14.00" fill="#eeeeee">Or</text>
</g>
<!-- betaal_twee_geldstukken&#45;&gt;_1 -->
<g id="edge33" class="edge">
<title>betaal_twee_geldstukken&#45;&gt;_1</title>
<path fill="none" stroke="#999999" stroke-dasharray="5,2" d="M522.191,-1532.4551C561.0722,-1518.1921 613.8618,-1498.8271 645.2807,-1487.3015"/>
<polygon fill="#999999" stroke="#999999" points="646.6202,-1489.7927 653.1665,-1484.4088 644.6916,-1484.5353 646.6202,-1489.7927"/>
</g>
<!-- betaal_twee_goudstukken_aan_hoefsmid -->
<g id="node5" class="node">
<title>betaal_twee_goudstukken_aan_hoefsmid</title>
<path fill="#3333aa" stroke="#3333aa" d="M454.9824,-1386.5C454.9824,-1386.5 681.0176,-1386.5 681.0176,-1386.5 687.0176,-1386.5 693.0176,-1392.5 693.0176,-1398.5 693.0176,-1398.5 693.0176,-1410.5 693.0176,-1410.5 693.0176,-1416.5 687.0176,-1422.5 681.0176,-1422.5 681.0176,-1422.5 454.9824,-1422.5 454.9824,-1422.5 448.9824,-1422.5 442.9824,-1416.5 442.9824,-1410.5 442.9824,-1410.5 442.9824,-1398.5 442.9824,-1398.5 442.9824,-1392.5 448.9824,-1386.5 454.9824,-1386.5"/>
<text text-anchor="middle" x="568" y="-1400.3" font-family="lato, roboto, helvetica" font-size="14.00" fill="#eeeeee">Betaal Twee Goudstukken Aan Hoefsmid</text>
</g>
<!-- geef_paard_nieuwe_hoefijzers -->
<g id="node35" class="node">
<title>geef_paard_nieuwe_hoefijzers</title>
<path fill="#3333aa" stroke="#3333aa" d="M272.3004,-1313.5C272.3004,-1313.5 435.6996,-1313.5 435.6996,-1313.5 441.6996,-1313.5 447.6996,-1319.5 447.6996,-1325.5 447.6996,-1325.5 447.6996,-1337.5 447.6996,-1337.5 447.6996,-1343.5 441.6996,-1349.5 435.6996,-1349.5 435.6996,-1349.5 272.3004,-1349.5 272.3004,-1349.5 266.3004,-1349.5 260.3004,-1343.5 260.3004,-1337.5 260.3004,-1337.5 260.3004,-1325.5 260.3004,-1325.5 260.3004,-1319.5 266.3004,-1313.5 272.3004,-1313.5"/>
<text text-anchor="middle" x="354" y="-1327.3" font-family="lato, roboto, helvetica" font-size="14.00" fill="#eeeeee">Geef Paard Nieuwe Hoefijzers</text>
</g>
<!-- betaal_twee_goudstukken_aan_hoefsmid&#45;&gt;geef_paard_nieuwe_hoefijzers -->
<g id="edge24" class="edge">
<title>betaal_twee_goudstukken_aan_hoefsmid&#45;&gt;geef_paard_nieuwe_hoefijzers</title>
<path fill="none" stroke="#999999" d="M515.1011,-1386.4551C484.7498,-1376.1016 446.5172,-1363.0596 414.9148,-1352.2794"/>
<polygon fill="#999999" stroke="#999999" points="415.5076,-1349.5232 407.032,-1349.5904 413.6996,-1354.8233 415.5076,-1349.5232"/>
</g>
<!-- _0&#45;&gt;betaal_twee_goudstukken_aan_hoefsmid -->
<g id="edge3" class="edge">
<title>_0&#45;&gt;betaal_twee_goudstukken_aan_hoefsmid</title>
<path fill="none" stroke="#999999" d="M568,-1459.4551C568,-1450.7686 568,-1440.1898 568,-1430.642"/>
<polygon fill="#999999" stroke="#999999" points="570.8001,-1430.5903 568,-1422.5904 565.2001,-1430.5904 570.8001,-1430.5903"/>
</g>
<!-- vind_een_geldstuk_bij_de_rivier&#45;&gt;_0 -->
<g id="edge5" class="edge">
<title>vind_een_geldstuk_bij_de_rivier&#45;&gt;_0</title>
<path fill="none" stroke="#999999" stroke-dasharray="5,2" d="M646.2921,-1532.4551C628.5024,-1519.9681 605.1414,-1503.5704 588.5813,-1491.9465"/>
<polygon fill="#999999" stroke="#999999" points="590.0931,-1489.5868 581.9365,-1487.2824 586.8758,-1494.1703 590.0931,-1489.5868"/>
</g>
<!-- vind_een_geldstuk_bij_de_rivier&#45;&gt;_1 -->
<g id="edge32" class="edge">
<title>vind_een_geldstuk_bij_de_rivier&#45;&gt;_1</title>
<path fill="none" stroke="#999999" stroke-dasharray="5,2" d="M672,-1532.4551C672,-1523.7686 672,-1513.1898 672,-1503.642"/>
<polygon fill="#999999" stroke="#999999" points="674.8001,-1503.5903 672,-1495.5904 669.2001,-1503.5904 674.8001,-1503.5903"/>
</g>
<!-- bezorg_graan_bij_molenaar -->
<g id="node8" class="node">
<title>bezorg_graan_bij_molenaar</title>
<path fill="#3333aa" stroke="#3333aa" d="M207.0599,-1094.5C207.0599,-1094.5 354.9401,-1094.5 354.9401,-1094.5 360.9401,-1094.5 366.9401,-1100.5 366.9401,-1106.5 366.9401,-1106.5 366.9401,-1118.5 366.9401,-1118.5 366.9401,-1124.5 360.9401,-1130.5 354.9401,-1130.5 354.9401,-1130.5 207.0599,-1130.5 207.0599,-1130.5 201.0599,-1130.5 195.0599,-1124.5 195.0599,-1118.5 195.0599,-1118.5 195.0599,-1106.5 195.0599,-1106.5 195.0599,-1100.5 201.0599,-1094.5 207.0599,-1094.5"/>
<text text-anchor="middle" x="281" y="-1108.3" font-family="lato, roboto, helvetica" font-size="14.00" fill="#eeeeee">Bezorg Graan Bij Molenaar</text>
</g>
<!-- krijg_meel_bij_molenaar -->
<g id="node11" class="node">
<title>krijg_meel_bij_molenaar</title>
<path fill="#3333aa" stroke="#3333aa" d="M235.2149,-1021.5C235.2149,-1021.5 366.7851,-1021.5 366.7851,-1021.5 372.7851,-1021.5 378.7851,-1027.5 378.7851,-1033.5 378.7851,-1033.5 378.7851,-1045.5 378.7851,-1045.5 378.7851,-1051.5 372.7851,-1057.5 366.7851,-1057.5 366.7851,-1057.5 235.2149,-1057.5 235.2149,-1057.5 229.2149,-1057.5 223.2149,-1051.5 223.2149,-1045.5 223.2149,-1045.5 223.2149,-1033.5 223.2149,-1033.5 223.2149,-1027.5 229.2149,-1021.5 235.2149,-1021.5"/>
<text text-anchor="middle" x="301" y="-1035.3" font-family="lato, roboto, helvetica" font-size="14.00" fill="#eeeeee">Krijg Meel Bij Molenaar</text>
</g>
<!-- bezorg_graan_bij_molenaar&#45;&gt;krijg_meel_bij_molenaar -->
<g id="edge46" class="edge">
<title>bezorg_graan_bij_molenaar&#45;&gt;krijg_meel_bij_molenaar</title>
<path fill="none" stroke="#999999" d="M285.9438,-1094.4551C288.3477,-1085.6809 291.2806,-1074.9759 293.917,-1065.353"/>
<polygon fill="#999999" stroke="#999999" points="296.6303,-1066.0459 296.0437,-1057.5904 291.2293,-1064.5661 296.6303,-1066.0459"/>
</g>
<!-- zet_graan_op_wagen -->
<g id="node9" class="node">
<title>zet_graan_op_wagen</title>
<path fill="#3333aa" stroke="#3333aa" d="M223.9477,-1167.5C223.9477,-1167.5 336.0523,-1167.5 336.0523,-1167.5 342.0523,-1167.5 348.0523,-1173.5 348.0523,-1179.5 348.0523,-1179.5 348.0523,-1191.5 348.0523,-1191.5 348.0523,-1197.5 342.0523,-1203.5 336.0523,-1203.5 336.0523,-1203.5 223.9477,-1203.5 223.9477,-1203.5 217.9477,-1203.5 211.9477,-1197.5 211.9477,-1191.5 211.9477,-1191.5 211.9477,-1179.5 211.9477,-1179.5 211.9477,-1173.5 217.9477,-1167.5 223.9477,-1167.5"/>
<text text-anchor="middle" x="280" y="-1181.3" font-family="lato, roboto, helvetica" font-size="14.00" fill="#eeeeee">Zet Graan Op Wagen</text>
</g>
<!-- zet_graan_op_wagen&#45;&gt;bezorg_graan_bij_molenaar -->
<g id="edge6" class="edge">
<title>zet_graan_op_wagen&#45;&gt;bezorg_graan_bij_molenaar</title>
<path fill="none" stroke="#999999" d="M280.2472,-1167.4551C280.3662,-1158.7686 280.5111,-1148.1898 280.6419,-1138.642"/>
<polygon fill="#999999" stroke="#999999" points="283.4422,-1138.628 280.7522,-1130.5904 277.8428,-1138.5512 283.4422,-1138.628"/>
</g>
<!-- bezorg_meel_bij_bakker -->
<g id="node10" class="node">
<title>bezorg_meel_bij_bakker</title>
<path fill="#3333aa" stroke="#3333aa" d="M246.3825,-948.5C246.3825,-948.5 375.6175,-948.5 375.6175,-948.5 381.6175,-948.5 387.6175,-954.5 387.6175,-960.5 387.6175,-960.5 387.6175,-972.5 387.6175,-972.5 387.6175,-978.5 381.6175,-984.5 375.6175,-984.5 375.6175,-984.5 246.3825,-984.5 246.3825,-984.5 240.3825,-984.5 234.3825,-978.5 234.3825,-972.5 234.3825,-972.5 234.3825,-960.5 234.3825,-960.5 234.3825,-954.5 240.3825,-948.5 246.3825,-948.5"/>
<text text-anchor="middle" x="311" y="-962.3" font-family="lato, roboto, helvetica" font-size="14.00" fill="#eeeeee">Bezorg Meel Bij Bakker</text>
</g>
<!-- zet_molensteen_op_wagen -->
<g id="node18" class="node">
<title>zet_molensteen_op_wagen</title>
<path fill="#3333aa" stroke="#3333aa" d="M239.3888,-875.5C239.3888,-875.5 382.6112,-875.5 382.6112,-875.5 388.6112,-875.5 394.6112,-881.5 394.6112,-887.5 394.6112,-887.5 394.6112,-899.5 394.6112,-899.5 394.6112,-905.5 388.6112,-911.5 382.6112,-911.5 382.6112,-911.5 239.3888,-911.5 239.3888,-911.5 233.3888,-911.5 227.3888,-905.5 227.3888,-899.5 227.3888,-899.5 227.3888,-887.5 227.3888,-887.5 227.3888,-881.5 233.3888,-875.5 239.3888,-875.5"/>
<text text-anchor="middle" x="311" y="-889.3" font-family="lato, roboto, helvetica" font-size="14.00" fill="#eeeeee">Zet Molensteen Op Wagen</text>
</g>
<!-- bezorg_meel_bij_bakker&#45;&gt;zet_molensteen_op_wagen -->
<g id="edge77" class="edge">
<title>bezorg_meel_bij_bakker&#45;&gt;zet_molensteen_op_wagen</title>
<path fill="none" stroke="#999999" d="M311,-948.4551C311,-939.7686 311,-929.1898 311,-919.642"/>
<polygon fill="#999999" stroke="#999999" points="313.8001,-919.5903 311,-911.5904 308.2001,-919.5904 313.8001,-919.5903"/>
</g>
<!-- krijg_geld_van_meel -->
<g id="node45" class="node">
<title>krijg_geld_van_meel</title>
<path fill="#3333aa" stroke="#3333aa" d="M424.3271,-875.5C424.3271,-875.5 535.6729,-875.5 535.6729,-875.5 541.6729,-875.5 547.6729,-881.5 547.6729,-887.5 547.6729,-887.5 547.6729,-899.5 547.6729,-899.5 547.6729,-905.5 541.6729,-911.5 535.6729,-911.5 535.6729,-911.5 424.3271,-911.5 424.3271,-911.5 418.3271,-911.5 412.3271,-905.5 412.3271,-899.5 412.3271,-899.5 412.3271,-887.5 412.3271,-887.5 412.3271,-881.5 418.3271,-875.5 424.3271,-875.5"/>
<text text-anchor="middle" x="480" y="-889.3" font-family="lato, roboto, helvetica" font-size="14.00" fill="#eeeeee">Krijg Geld Van Meel</text>
</g>
<!-- bezorg_meel_bij_bakker&#45;&gt;krijg_geld_van_meel -->
<g id="edge38" class="edge">
<title>bezorg_meel_bij_bakker&#45;&gt;krijg_geld_van_meel</title>
<path fill="none" stroke="#999999" d="M352.7753,-948.4551C376.3381,-938.277 405.9157,-925.5009 430.6209,-914.8294"/>
<polygon fill="#999999" stroke="#999999" points="431.8858,-917.3332 438.1196,-911.5904 429.6651,-912.1923 431.8858,-917.3332"/>
</g>
<!-- krijg_meel_bij_molenaar&#45;&gt;bezorg_meel_bij_bakker -->
<g id="edge7" class="edge">
<title>krijg_meel_bij_molenaar&#45;&gt;bezorg_meel_bij_bakker</title>
<path fill="none" stroke="#999999" d="M303.4719,-1021.4551C304.6618,-1012.7686 306.111,-1002.1898 307.4189,-992.642"/>
<polygon fill="#999999" stroke="#999999" points="310.2101,-992.8964 308.5219,-984.5904 304.6619,-992.1363 310.2101,-992.8964"/>
</g>
<!-- breng_dochter_naar_bakker -->
<g id="node12" class="node">
<title>breng_dochter_naar_bakker</title>
<path fill="#3333aa" stroke="#3333aa" d="M651.2892,-291.5C651.2892,-291.5 800.7108,-291.5 800.7108,-291.5 806.7108,-291.5 812.7108,-297.5 812.7108,-303.5 812.7108,-303.5 812.7108,-315.5 812.7108,-315.5 812.7108,-321.5 806.7108,-327.5 800.7108,-327.5 800.7108,-327.5 651.2892,-327.5 651.2892,-327.5 645.2892,-327.5 639.2892,-321.5 639.2892,-315.5 639.2892,-315.5 639.2892,-303.5 639.2892,-303.5 639.2892,-297.5 645.2892,-291.5 651.2892,-291.5"/>
<text text-anchor="middle" x="726" y="-305.3" font-family="lato, roboto, helvetica" font-size="14.00" fill="#eeeeee">Breng Dochter Naar Bakker</text>
</g>
<!-- krijg_taart_van_bakker -->
<g id="node51" class="node">
<title>krijg_taart_van_bakker</title>
<path fill="#3333aa" stroke="#3333aa" d="M651.3355,-218.5C651.3355,-218.5 776.6645,-218.5 776.6645,-218.5 782.6645,-218.5 788.6645,-224.5 788.6645,-230.5 788.6645,-230.5 788.6645,-242.5 788.6645,-242.5 788.6645,-248.5 782.6645,-254.5 776.6645,-254.5 776.6645,-254.5 651.3355,-254.5 651.3355,-254.5 645.3355,-254.5 639.3355,-248.5 639.3355,-242.5 639.3355,-242.5 639.3355,-230.5 639.3355,-230.5 639.3355,-224.5 645.3355,-218.5 651.3355,-218.5"/>
<text text-anchor="middle" x="714" y="-232.3" font-family="lato, roboto, helvetica" font-size="14.00" fill="#eeeeee">Krijg Taart Van Bakker</text>
</g>
<!-- breng_dochter_naar_bakker&#45;&gt;krijg_taart_van_bakker -->
<g id="edge48" class="edge">
<title>breng_dochter_naar_bakker&#45;&gt;krijg_taart_van_bakker</title>
<path fill="none" stroke="#999999" d="M723.0337,-291.4551C721.6058,-282.7686 719.8668,-272.1898 718.2973,-262.642"/>
<polygon fill="#999999" stroke="#999999" points="721.0344,-262.0302 716.9738,-254.5904 715.5086,-262.9386 721.0344,-262.0302"/>
</g>
<!-- trek_tand_van_draak -->
<g id="node13" class="node">
<title>trek_tand_van_draak</title>
<path fill="#3333aa" stroke="#3333aa" d="M569.3937,-364.5C569.3937,-364.5 684.6063,-364.5 684.6063,-364.5 690.6063,-364.5 696.6063,-370.5 696.6063,-376.5 696.6063,-376.5 696.6063,-388.5 696.6063,-388.5 696.6063,-394.5 690.6063,-400.5 684.6063,-400.5 684.6063,-400.5 569.3937,-400.5 569.3937,-400.5 563.3937,-400.5 557.3937,-394.5 557.3937,-388.5 557.3937,-388.5 557.3937,-376.5 557.3937,-376.5 557.3937,-370.5 563.3937,-364.5 569.3937,-364.5"/>
<text text-anchor="middle" x="627" y="-378.3" font-family="lato, roboto, helvetica" font-size="14.00" fill="#eeeeee">Trek Tand Van Draak</text>
</g>
<!-- trek_tand_van_draak&#45;&gt;breng_dochter_naar_bakker -->
<g id="edge8" class="edge">
<title>trek_tand_van_draak&#45;&gt;breng_dochter_naar_bakker</title>
<path fill="none" stroke="#999999" d="M651.4719,-364.4551C664.561,-354.8035 680.8185,-342.8156 694.8061,-332.5016"/>
<polygon fill="#999999" stroke="#999999" points="696.6894,-334.5918 701.4665,-327.5904 693.3659,-330.0846 696.6894,-334.5918"/>
</g>
<!-- zet_zadel_op_draak -->
<g id="node15" class="node">
<title>zet_zadel_op_draak</title>
<path fill="#3333aa" stroke="#3333aa" d="M558.8334,-72.5C558.8334,-72.5 663.1666,-72.5 663.1666,-72.5 669.1666,-72.5 675.1666,-78.5 675.1666,-84.5 675.1666,-84.5 675.1666,-96.5 675.1666,-96.5 675.1666,-102.5 669.1666,-108.5 663.1666,-108.5 663.1666,-108.5 558.8334,-108.5 558.8334,-108.5 552.8334,-108.5 546.8334,-102.5 546.8334,-96.5 546.8334,-96.5 546.8334,-84.5 546.8334,-84.5 546.8334,-78.5 552.8334,-72.5 558.8334,-72.5"/>
<text text-anchor="middle" x="611" y="-86.3" font-family="lato, roboto, helvetica" font-size="14.00" fill="#eeeeee">Zet Zadel Op Draak</text>
</g>
<!-- trek_tand_van_draak&#45;&gt;zet_zadel_op_draak -->
<g id="edge79" class="edge">
<title>trek_tand_van_draak&#45;&gt;zet_zadel_op_draak</title>
<path fill="none" stroke="#999999" d="M625.9991,-364.2341C623.2604,-314.2529 615.6352,-175.0932 612.4388,-116.759"/>
<polygon fill="#999999" stroke="#999999" points="615.2341,-116.5938 612.0005,-108.759 609.6425,-116.9002 615.2341,-116.5938"/>
</g>
<!-- pak_stuk_leer_in_toren -->
<g id="node34" class="node">
<title>pak_stuk_leer_in_toren</title>
<path fill="#3333aa" stroke="#3333aa" d="M443.2994,-291.5C443.2994,-291.5 566.7006,-291.5 566.7006,-291.5 572.7006,-291.5 578.7006,-297.5 578.7006,-303.5 578.7006,-303.5 578.7006,-315.5 578.7006,-315.5 578.7006,-321.5 572.7006,-327.5 566.7006,-327.5 566.7006,-327.5 443.2994,-327.5 443.2994,-327.5 437.2994,-327.5 431.2994,-321.5 431.2994,-315.5 431.2994,-315.5 431.2994,-303.5 431.2994,-303.5 431.2994,-297.5 437.2994,-291.5 443.2994,-291.5"/>
<text text-anchor="middle" x="505" y="-305.3" font-family="lato, roboto, helvetica" font-size="14.00" fill="#eeeeee">Pak Stuk Leer In Toren</text>
</g>
<!-- trek_tand_van_draak&#45;&gt;pak_stuk_leer_in_toren -->
<g id="edge54" class="edge">
<title>trek_tand_van_draak&#45;&gt;pak_stuk_leer_in_toren</title>
<path fill="none" stroke="#999999" d="M596.8427,-364.4551C580.4194,-354.628 559.9484,-342.3789 542.5036,-331.9407"/>
<polygon fill="#999999" stroke="#999999" points="543.5358,-329.2954 535.2332,-327.5904 540.6604,-334.1008 543.5358,-329.2954"/>
</g>
<!-- pak_tand_van_draak -->
<g id="node48" class="node">
<title>pak_tand_van_draak</title>
<path fill="#3333aa" stroke="#3333aa" d="M819.109,-218.5C819.109,-218.5 928.891,-218.5 928.891,-218.5 934.891,-218.5 940.891,-224.5 940.891,-230.5 940.891,-230.5 940.891,-242.5 940.891,-242.5 940.891,-248.5 934.891,-254.5 928.891,-254.5 928.891,-254.5 819.109,-254.5 819.109,-254.5 813.109,-254.5 807.109,-248.5 807.109,-242.5 807.109,-242.5 807.109,-230.5 807.109,-230.5 807.109,-224.5 813.109,-218.5 819.109,-218.5"/>
<text text-anchor="middle" x="874" y="-232.3" font-family="lato, roboto, helvetica" font-size="14.00" fill="#eeeeee">Pak Tand Van Draak</text>
</g>
<!-- trek_tand_van_draak&#45;&gt;pak_tand_van_draak -->
<g id="edge56" class="edge">
<title>trek_tand_van_draak&#45;&gt;pak_tand_van_draak</title>
<path fill="none" stroke="#999999" d="M696.6167,-368.8993C744.2838,-358.5072 802.2992,-343.3934 822,-328 843.448,-311.2415 857.5425,-283.0032 865.5791,-262.3204"/>
<polygon fill="#999999" stroke="#999999" points="868.2104,-263.2775 868.3652,-254.8031 862.9594,-261.3313 868.2104,-263.2775"/>
</g>
<!-- breng_medicijnen_naar_koning -->
<g id="node14" class="node">
<title>breng_medicijnen_naar_koning</title>
<polygon fill="#333333" stroke="#333333" points="657,-36 468.1589,-18 657,0 845.8411,-18 657,-36"/>
<polyline fill="none" stroke="#333333" points="480.1047,-19.1387 480.1047,-16.8613 "/>
<polyline fill="none" stroke="#333333" points="645.0541,-1.1387 668.9459,-1.1387 "/>
<polyline fill="none" stroke="#333333" points="833.8953,-16.8613 833.8953,-19.1387 "/>
<polyline fill="none" stroke="#333333" points="668.9459,-34.8613 645.0541,-34.8613 "/>
<text text-anchor="middle" x="657" y="-13.8" font-family="lato, roboto, helvetica" font-size="14.00" fill="#dddddd">Breng Medicijnen Naar Koning</text>
</g>
<!-- zet_zadel_op_draak&#45;&gt;breng_medicijnen_naar_koning -->
<g id="edge9" class="edge">
<title>zet_zadel_op_draak&#45;&gt;breng_medicijnen_naar_koning</title>
<path fill="none" stroke="#999999" d="M622.6077,-72.2052C628.4332,-63.0238 635.5631,-51.7864 641.8176,-41.9287"/>
<polygon fill="#999999" stroke="#999999" points="644.2642,-43.299 646.186,-35.0438 639.5357,-40.2988 644.2642,-43.299"/>
</g>
<!-- krijg_medicijn_van_heks -->
<g id="node16" class="node">
<title>krijg_medicijn_van_heks</title>
<path fill="#3333aa" stroke="#3333aa" d="M806.6595,-145.5C806.6595,-145.5 941.3405,-145.5 941.3405,-145.5 947.3405,-145.5 953.3405,-151.5 953.3405,-157.5 953.3405,-157.5 953.3405,-169.5 953.3405,-169.5 953.3405,-175.5 947.3405,-181.5 941.3405,-181.5 941.3405,-181.5 806.6595,-181.5 806.6595,-181.5 800.6595,-181.5 794.6595,-175.5 794.6595,-169.5 794.6595,-169.5 794.6595,-157.5 794.6595,-157.5 794.6595,-151.5 800.6595,-145.5 806.6595,-145.5"/>
<text text-anchor="middle" x="874" y="-159.3" font-family="lato, roboto, helvetica" font-size="14.00" fill="#eeeeee">Krijg Medicijn Van Heks</text>
</g>
<!-- krijg_medicijn_van_heks&#45;&gt;breng_medicijnen_naar_koning -->
<g id="edge10" class="edge">
<title>krijg_medicijn_van_heks&#45;&gt;breng_medicijnen_naar_koning</title>
<path fill="none" stroke="#999999" d="M846.9556,-145.3665C806.3816,-118.1614 729.9941,-66.943 687.4922,-38.4452"/>
<polygon fill="#999999" stroke="#999999" points="688.9249,-36.0348 680.721,-33.9051 685.8062,-40.686 688.9249,-36.0348"/>
</g>
<!-- breng_molensteen_naar_toren -->
<g id="node17" class="node">
<title>breng_molensteen_naar_toren</title>
<path fill="#3333aa" stroke="#3333aa" d="M301.6749,-802.5C301.6749,-802.5 464.3251,-802.5 464.3251,-802.5 470.3251,-802.5 476.3251,-808.5 476.3251,-814.5 476.3251,-814.5 476.3251,-826.5 476.3251,-826.5 476.3251,-832.5 470.3251,-838.5 464.3251,-838.5 464.3251,-838.5 301.6749,-838.5 301.6749,-838.5 295.6749,-838.5 289.6749,-832.5 289.6749,-826.5 289.6749,-826.5 289.6749,-814.5 289.6749,-814.5 289.6749,-808.5 295.6749,-802.5 301.6749,-802.5"/>
<text text-anchor="middle" x="383" y="-816.3" font-family="lato, roboto, helvetica" font-size="14.00" fill="#eeeeee">Breng Molensteen Naar Toren</text>
</g>
<!-- leg_molensteen_op_lift -->
<g id="node40" class="node">
<title>leg_molensteen_op_lift</title>
<path fill="#3333aa" stroke="#3333aa" d="M616.1588,-583.5C616.1588,-583.5 743.8412,-583.5 743.8412,-583.5 749.8412,-583.5 755.8412,-589.5 755.8412,-595.5 755.8412,-595.5 755.8412,-607.5 755.8412,-607.5 755.8412,-613.5 749.8412,-619.5 743.8412,-619.5 743.8412,-619.5 616.1588,-619.5 616.1588,-619.5 610.1588,-619.5 604.1588,-613.5 604.1588,-607.5 604.1588,-607.5 604.1588,-595.5 604.1588,-595.5 604.1588,-589.5 610.1588,-583.5 616.1588,-583.5"/>
<text text-anchor="middle" x="680" y="-597.3" font-family="lato, roboto, helvetica" font-size="14.00" fill="#eeeeee">Leg Molensteen Op Lift</text>
</g>
<!-- breng_molensteen_naar_toren&#45;&gt;leg_molensteen_op_lift -->
<g id="edge49" class="edge">
<title>breng_molensteen_naar_toren&#45;&gt;leg_molensteen_op_lift</title>
<path fill="none" stroke="#999999" d="M405.0892,-802.2946C443.0946,-771.2157 523.6568,-706.3984 595,-656 610.6442,-644.9486 628.4188,-633.4025 643.6551,-623.7974"/>
<polygon fill="#999999" stroke="#999999" points="645.1705,-626.1522 650.4603,-619.5296 642.1951,-621.408 645.1705,-626.1522"/>
</g>
<!-- zet_molensteen_op_wagen&#45;&gt;breng_molensteen_naar_toren -->
<g id="edge11" class="edge">
<title>zet_molensteen_op_wagen&#45;&gt;breng_molensteen_naar_toren</title>
<path fill="none" stroke="#999999" d="M328.7978,-875.4551C338.0575,-866.0667 349.4975,-854.4678 359.4776,-844.3491"/>
<polygon fill="#999999" stroke="#999999" points="361.5332,-846.2523 365.1575,-838.5904 357.5462,-842.3199 361.5332,-846.2523"/>
</g>
<!-- breng_paard_naar_hoefsmid -->
<g id="node19" class="node">
<title>breng_paard_naar_hoefsmid</title>
<path fill="#3333aa" stroke="#3333aa" d="M261.5059,-1386.5C261.5059,-1386.5 412.4941,-1386.5 412.4941,-1386.5 418.4941,-1386.5 424.4941,-1392.5 424.4941,-1398.5 424.4941,-1398.5 424.4941,-1410.5 424.4941,-1410.5 424.4941,-1416.5 418.4941,-1422.5 412.4941,-1422.5 412.4941,-1422.5 261.5059,-1422.5 261.5059,-1422.5 255.5059,-1422.5 249.5059,-1416.5 249.5059,-1410.5 249.5059,-1410.5 249.5059,-1398.5 249.5059,-1398.5 249.5059,-1392.5 255.5059,-1386.5 261.5059,-1386.5"/>
<text text-anchor="middle" x="337" y="-1400.3" font-family="lato, roboto, helvetica" font-size="14.00" fill="#eeeeee">Breng Paard Naar Hoefsmid</text>
</g>
<!-- breng_paard_naar_hoefsmid&#45;&gt;geef_paard_nieuwe_hoefijzers -->
<g id="edge23" class="edge">
<title>breng_paard_naar_hoefsmid&#45;&gt;geef_paard_nieuwe_hoefijzers</title>
<path fill="none" stroke="#999999" d="M341.2022,-1386.4551C343.2251,-1377.7686 345.6887,-1367.1898 347.9121,-1357.642"/>
<polygon fill="#999999" stroke="#999999" points="350.6997,-1358.017 349.7872,-1349.5904 345.2456,-1356.7468 350.6997,-1358.017"/>
</g>
<!-- praat_met_boer&#45;&gt;zet_graan_op_wagen -->
<g id="edge75" class="edge">
<title>praat_met_boer&#45;&gt;zet_graan_op_wagen</title>
<path fill="none" stroke="#999999" d="M286.0119,-1460.7713C268.5823,-1452.3318 250.9803,-1440.1423 241,-1423 208.0468,-1366.399 245.5689,-1340.6511 261,-1277 266.3038,-1255.1225 271.4397,-1230.0813 275.0317,-1211.7323"/>
<polygon fill="#999999" stroke="#999999" points="277.7941,-1212.1949 276.5685,-1203.8081 272.2965,-1211.1286 277.7941,-1212.1949"/>
</g>
<!-- praat_met_boer&#45;&gt;breng_paard_naar_hoefsmid -->
<g id="edge12" class="edge">
<title>praat_met_boer&#45;&gt;breng_paard_naar_hoefsmid</title>
<path fill="none" stroke="#999999" d="M337,-1459.4551C337,-1450.7686 337,-1440.1898 337,-1430.642"/>
<polygon fill="#999999" stroke="#999999" points="339.8001,-1430.5903 337,-1422.5904 334.2001,-1430.5904 339.8001,-1430.5903"/>
</g>
<!-- ga_naar_hut_in_moeras -->
<g id="node21" class="node">
<title>ga_naar_hut_in_moeras</title>
<path fill="#3333aa" stroke="#3333aa" d="M954.9228,-802.5C954.9228,-802.5 1079.0772,-802.5 1079.0772,-802.5 1085.0772,-802.5 1091.0772,-808.5 1091.0772,-814.5 1091.0772,-814.5 1091.0772,-826.5 1091.0772,-826.5 1091.0772,-832.5 1085.0772,-838.5 1079.0772,-838.5 1079.0772,-838.5 954.9228,-838.5 954.9228,-838.5 948.9228,-838.5 942.9228,-832.5 942.9228,-826.5 942.9228,-826.5 942.9228,-814.5 942.9228,-814.5 942.9228,-808.5 948.9228,-802.5 954.9228,-802.5"/>
<text text-anchor="middle" x="1017" y="-816.3" font-family="lato, roboto, helvetica" font-size="14.00" fill="#eeeeee">Ga Naar Hut In Moeras</text>
</g>
<!-- praat_met_heks -->
<g id="node30" class="node">
<title>praat_met_heks</title>
<path fill="#3333aa" stroke="#3333aa" d="M1027.4607,-656.5C1027.4607,-656.5 1106.5393,-656.5 1106.5393,-656.5 1112.5393,-656.5 1118.5393,-662.5 1118.5393,-668.5 1118.5393,-668.5 1118.5393,-680.5 1118.5393,-680.5 1118.5393,-686.5 1112.5393,-692.5 1106.5393,-692.5 1106.5393,-692.5 1027.4607,-692.5 1027.4607,-692.5 1021.4607,-692.5 1015.4607,-686.5 1015.4607,-680.5 1015.4607,-680.5 1015.4607,-668.5 1015.4607,-668.5 1015.4607,-662.5 1021.4607,-656.5 1027.4607,-656.5"/>
<text text-anchor="middle" x="1067" y="-670.3" font-family="lato, roboto, helvetica" font-size="14.00" fill="#eeeeee">Praat Met Heks</text>
</g>
<!-- ga_naar_hut_in_moeras&#45;&gt;praat_met_heks -->
<g id="edge64" class="edge">
<title>ga_naar_hut_in_moeras&#45;&gt;praat_met_heks</title>
<path fill="none" stroke="#999999" d="M1023.2314,-802.3042C1031.9894,-776.7311 1047.9891,-730.0119 1058.0277,-700.6992"/>
<polygon fill="#999999" stroke="#999999" points="1060.747,-701.4008 1060.69,-692.9251 1055.4491,-699.5864 1060.747,-701.4008"/>
</g>
<!-- praat_met_bakker&#45;&gt;koop_zwaard_bij_wapensmid -->
<g id="edge35" class="edge">
<title>praat_met_bakker&#45;&gt;koop_zwaard_bij_wapensmid</title>
<path fill="none" stroke="#999999" d="M966.5393,-875.4551C939.539,-865.1893 905.5869,-852.2804 877.3747,-841.5539"/>
<polygon fill="#999999" stroke="#999999" points="878.053,-838.8163 869.5801,-838.5904 876.0628,-844.0507 878.053,-838.8163"/>
</g>
<!-- praat_met_bakker&#45;&gt;ga_naar_hut_in_moeras -->
<g id="edge13" class="edge">
<title>praat_met_bakker&#45;&gt;ga_naar_hut_in_moeras</title>
<path fill="none" stroke="#999999" d="M1014.7416,-875.4551C1015.0985,-866.7686 1015.5333,-856.1898 1015.9257,-846.642"/>
<polygon fill="#999999" stroke="#999999" points="1018.7256,-846.6986 1016.2566,-838.5904 1013.1303,-846.4686 1018.7256,-846.6986"/>
</g>
<!-- geef_dwerg_eten -->
<g id="node23" class="node">
<title>geef_dwerg_eten</title>
<path fill="#3333aa" stroke="#3333aa" d="M817.0287,-1313.5C817.0287,-1313.5 906.9713,-1313.5 906.9713,-1313.5 912.9713,-1313.5 918.9713,-1319.5 918.9713,-1325.5 918.9713,-1325.5 918.9713,-1337.5 918.9713,-1337.5 918.9713,-1343.5 912.9713,-1349.5 906.9713,-1349.5 906.9713,-1349.5 817.0287,-1349.5 817.0287,-1349.5 811.0287,-1349.5 805.0287,-1343.5 805.0287,-1337.5 805.0287,-1337.5 805.0287,-1325.5 805.0287,-1325.5 805.0287,-1319.5 811.0287,-1313.5 817.0287,-1313.5"/>
<text text-anchor="middle" x="862" y="-1327.3" font-family="lato, roboto, helvetica" font-size="14.00" fill="#eeeeee">Geef Dwerg Eten</text>
</g>
<!-- krijg_edelsteen_van_dwerg -->
<g id="node28" class="node">
<title>krijg_edelsteen_van_dwerg</title>
<path fill="#3333aa" stroke="#3333aa" d="M1054.0599,-1240.5C1054.0599,-1240.5 1201.9401,-1240.5 1201.9401,-1240.5 1207.9401,-1240.5 1213.9401,-1246.5 1213.9401,-1252.5 1213.9401,-1252.5 1213.9401,-1264.5 1213.9401,-1264.5 1213.9401,-1270.5 1207.9401,-1276.5 1201.9401,-1276.5 1201.9401,-1276.5 1054.0599,-1276.5 1054.0599,-1276.5 1048.0599,-1276.5 1042.0599,-1270.5 1042.0599,-1264.5 1042.0599,-1264.5 1042.0599,-1252.5 1042.0599,-1252.5 1042.0599,-1246.5 1048.0599,-1240.5 1054.0599,-1240.5"/>
<text text-anchor="middle" x="1128" y="-1254.3" font-family="lato, roboto, helvetica" font-size="14.00" fill="#eeeeee">Krijg Edelsteen Van Dwerg</text>
</g>
<!-- geef_dwerg_eten&#45;&gt;krijg_edelsteen_van_dwerg -->
<g id="edge37" class="edge">
<title>geef_dwerg_eten&#45;&gt;krijg_edelsteen_van_dwerg</title>
<path fill="none" stroke="#999999" d="M919.0637,-1315.8397C958.5841,-1304.9938 1011.5572,-1290.4561 1054.2744,-1278.733"/>
<polygon fill="#999999" stroke="#999999" points="1055.152,-1281.3957 1062.1258,-1276.5783 1053.6699,-1275.9954 1055.152,-1281.3957"/>
</g>
<!-- pak_hendel_in_mijn -->
<g id="node54" class="node">
<title>pak_hendel_in_mijn</title>
<path fill="#3333aa" stroke="#3333aa" d="M640.595,-1240.5C640.595,-1240.5 743.405,-1240.5 743.405,-1240.5 749.405,-1240.5 755.405,-1246.5 755.405,-1252.5 755.405,-1252.5 755.405,-1264.5 755.405,-1264.5 755.405,-1270.5 749.405,-1276.5 743.405,-1276.5 743.405,-1276.5 640.595,-1276.5 640.595,-1276.5 634.595,-1276.5 628.595,-1270.5 628.595,-1264.5 628.595,-1264.5 628.595,-1252.5 628.595,-1252.5 628.595,-1246.5 634.595,-1240.5 640.595,-1240.5"/>
<text text-anchor="middle" x="692" y="-1254.3" font-family="lato, roboto, helvetica" font-size="14.00" fill="#eeeeee">Pak Hendel In Mijn</text>
</g>
<!-- geef_dwerg_eten&#45;&gt;pak_hendel_in_mijn -->
<g id="edge52" class="edge">
<title>geef_dwerg_eten&#45;&gt;pak_hendel_in_mijn</title>
<path fill="none" stroke="#999999" d="M819.9775,-1313.4551C796.2753,-1303.277 766.5227,-1290.5009 741.6713,-1279.8294"/>
<polygon fill="#999999" stroke="#999999" points="742.584,-1277.1742 734.1282,-1276.5904 740.3743,-1282.3198 742.584,-1277.1742"/>
</g>
<!-- praat_met_dwerg&#45;&gt;geef_dwerg_eten -->
<g id="edge14" class="edge">
<title>praat_met_dwerg&#45;&gt;geef_dwerg_eten</title>
<path fill="none" stroke="#999999" d="M801.4886,-1532.3446C786.113,-1523.7593 770.6615,-1511.8425 762,-1496 754.1114,-1481.5712 752.5879,-1472.4845 762,-1459 788.5581,-1420.9506 833.0277,-1460.7569 860,-1423 873.4155,-1404.2205 872.2514,-1377.2954 868.7333,-1357.5135"/>
<polygon fill="#999999" stroke="#999999" points="871.4467,-1356.8042 867.1171,-1349.5175 865.9577,-1357.9137 871.4467,-1356.8042"/>
</g>
<!-- krijg_kapotte_houweel_van_dwerg -->
<g id="node47" class="node">
<title>krijg_kapotte_houweel_van_dwerg</title>
<path fill="#3333aa" stroke="#3333aa" d="M783.096,-1459.5C783.096,-1459.5 974.904,-1459.5 974.904,-1459.5 980.904,-1459.5 986.904,-1465.5 986.904,-1471.5 986.904,-1471.5 986.904,-1483.5 986.904,-1483.5 986.904,-1489.5 980.904,-1495.5 974.904,-1495.5 974.904,-1495.5 783.096,-1495.5 783.096,-1495.5 777.096,-1495.5 771.096,-1489.5 771.096,-1483.5 771.096,-1483.5 771.096,-1471.5 771.096,-1471.5 771.096,-1465.5 777.096,-1459.5 783.096,-1459.5"/>
<text text-anchor="middle" x="879" y="-1473.3" font-family="lato, roboto, helvetica" font-size="14.00" fill="#eeeeee">Krijg Kapotte Houweel Van Dwerg</text>
</g>
<!-- praat_met_dwerg&#45;&gt;krijg_kapotte_houweel_van_dwerg -->
<g id="edge41" class="edge">
<title>praat_met_dwerg&#45;&gt;krijg_kapotte_houweel_van_dwerg</title>
<path fill="none" stroke="#999999" d="M854.9101,-1532.4551C858.7948,-1523.5932 863.5428,-1512.7616 867.7936,-1503.0646"/>
<polygon fill="#999999" stroke="#999999" points="870.4225,-1504.0415 871.07,-1495.5904 865.2937,-1501.7932 870.4225,-1504.0415"/>
</g>
<!-- koop_eten_bij_bakker -->
<g id="node25" class="node">
<title>koop_eten_bij_bakker</title>
<path fill="#3333aa" stroke="#3333aa" d="M722.5957,-1386.5C722.5957,-1386.5 839.4043,-1386.5 839.4043,-1386.5 845.4043,-1386.5 851.4043,-1392.5 851.4043,-1398.5 851.4043,-1398.5 851.4043,-1410.5 851.4043,-1410.5 851.4043,-1416.5 845.4043,-1422.5 839.4043,-1422.5 839.4043,-1422.5 722.5957,-1422.5 722.5957,-1422.5 716.5957,-1422.5 710.5957,-1416.5 710.5957,-1410.5 710.5957,-1410.5 710.5957,-1398.5 710.5957,-1398.5 710.5957,-1392.5 716.5957,-1386.5 722.5957,-1386.5"/>
<text text-anchor="middle" x="781" y="-1400.3" font-family="lato, roboto, helvetica" font-size="14.00" fill="#eeeeee">Koop Eten Bij Bakker</text>
</g>
<!-- koop_eten_bij_bakker&#45;&gt;geef_dwerg_eten -->
<g id="edge15" class="edge">
<title>koop_eten_bij_bakker&#45;&gt;geef_dwerg_eten</title>
<path fill="none" stroke="#999999" d="M801.0225,-1386.4551C811.537,-1376.979 824.5505,-1365.2508 835.8516,-1355.0658"/>
<polygon fill="#999999" stroke="#999999" points="837.8589,-1357.0261 841.9271,-1349.5904 834.1099,-1352.8662 837.8589,-1357.0261"/>
</g>
<!-- maak_sieraad_bij_smid -->
<g id="node27" class="node">
<title>maak_sieraad_bij_smid</title>
<path fill="#3333aa" stroke="#3333aa" d="M862.4835,-656.5C862.4835,-656.5 985.5165,-656.5 985.5165,-656.5 991.5165,-656.5 997.5165,-662.5 997.5165,-668.5 997.5165,-668.5 997.5165,-680.5 997.5165,-680.5 997.5165,-686.5 991.5165,-692.5 985.5165,-692.5 985.5165,-692.5 862.4835,-692.5 862.4835,-692.5 856.4835,-692.5 850.4835,-686.5 850.4835,-680.5 850.4835,-680.5 850.4835,-668.5 850.4835,-668.5 850.4835,-662.5 856.4835,-656.5 862.4835,-656.5"/>
<text text-anchor="middle" x="924" y="-670.3" font-family="lato, roboto, helvetica" font-size="14.00" fill="#eeeeee">Maak Sieraad Bij Smid</text>
</g>
<!-- vind_ketting_in_woud&#45;&gt;maak_sieraad_bij_smid -->
<g id="edge18" class="edge">
<title>vind_ketting_in_woud&#45;&gt;maak_sieraad_bij_smid</title>
<path fill="none" stroke="#999999" d="M923.2472,-729.4551C923.3662,-720.7686 923.5111,-710.1898 923.6419,-700.642"/>
<polygon fill="#999999" stroke="#999999" points="926.4422,-700.628 923.7522,-692.5904 920.8428,-700.5512 926.4422,-700.628"/>
</g>
<!-- geef_sieraad_aan_heks -->
<g id="node29" class="node">
<title>geef_sieraad_aan_heks</title>
<path fill="#3333aa" stroke="#3333aa" d="M903.1195,-583.5C903.1195,-583.5 1026.8805,-583.5 1026.8805,-583.5 1032.8805,-583.5 1038.8805,-589.5 1038.8805,-595.5 1038.8805,-595.5 1038.8805,-607.5 1038.8805,-607.5 1038.8805,-613.5 1032.8805,-619.5 1026.8805,-619.5 1026.8805,-619.5 903.1195,-619.5 903.1195,-619.5 897.1195,-619.5 891.1195,-613.5 891.1195,-607.5 891.1195,-607.5 891.1195,-595.5 891.1195,-595.5 891.1195,-589.5 897.1195,-583.5 903.1195,-583.5"/>
<text text-anchor="middle" x="965" y="-597.3" font-family="lato, roboto, helvetica" font-size="14.00" fill="#eeeeee">Geef Sieraad Aan Heks</text>
</g>
<!-- maak_sieraad_bij_smid&#45;&gt;geef_sieraad_aan_heks -->
<g id="edge20" class="edge">
<title>maak_sieraad_bij_smid&#45;&gt;geef_sieraad_aan_heks</title>
<path fill="none" stroke="#999999" d="M934.1348,-656.4551C939.1613,-647.5054 945.3161,-636.547 950.8034,-626.7769"/>
<polygon fill="#999999" stroke="#999999" points="953.3634,-627.9367 954.8397,-619.5904 948.4808,-625.1944 953.3634,-627.9367"/>
</g>
<!-- krijg_edelsteen_van_dwerg&#45;&gt;maak_sieraad_bij_smid -->
<g id="edge17" class="edge">
<title>krijg_edelsteen_van_dwerg&#45;&gt;maak_sieraad_bij_smid</title>
<path fill="none" stroke="#999999" d="M1127.3784,-1240.0645C1126.4997,-1212.372 1125,-1158.3882 1125,-1112.5 1125,-1112.5 1125,-1112.5 1125,-820.5 1125,-755.489 1055.3166,-716.419 998.0087,-695.2801"/>
<polygon fill="#999999" stroke="#999999" points="998.8476,-692.6064 990.372,-692.5406 996.9566,-697.8775 998.8476,-692.6064"/>
</g>
<!-- krijg_ingredientenlijst_van_heks -->
<g id="node46" class="node">
<title>krijg_ingredientenlijst_van_heks</title>
<path fill="#3333aa" stroke="#3333aa" d="M929.0557,-291.5C929.0557,-291.5 1104.9443,-291.5 1104.9443,-291.5 1110.9443,-291.5 1116.9443,-297.5 1116.9443,-303.5 1116.9443,-303.5 1116.9443,-315.5 1116.9443,-315.5 1116.9443,-321.5 1110.9443,-327.5 1104.9443,-327.5 1104.9443,-327.5 929.0557,-327.5 929.0557,-327.5 923.0557,-327.5 917.0557,-321.5 917.0557,-315.5 917.0557,-315.5 917.0557,-303.5 917.0557,-303.5 917.0557,-297.5 923.0557,-291.5 929.0557,-291.5"/>
<text text-anchor="middle" x="1017" y="-305.3" font-family="lato, roboto, helvetica" font-size="14.00" fill="#eeeeee">Krijg Ingredientenlijst Van Heks</text>
</g>
<!-- geef_sieraad_aan_heks&#45;&gt;krijg_ingredientenlijst_van_heks -->
<g id="edge40" class="edge">
<title>geef_sieraad_aan_heks&#45;&gt;krijg_ingredientenlijst_van_heks</title>
<path fill="none" stroke="#999999" d="M968.2528,-583.2341C977.1536,-533.2529 1001.9355,-394.0932 1012.3237,-335.759"/>
<polygon fill="#999999" stroke="#999999" points="1015.1024,-336.126 1013.7484,-327.759 1009.5891,-335.1442 1015.1024,-336.126"/>
</g>
<!-- praat_met_heks&#45;&gt;geef_sieraad_aan_heks -->
<g id="edge19" class="edge">
<title>praat_met_heks&#45;&gt;geef_sieraad_aan_heks</title>
<path fill="none" stroke="#999999" d="M1041.7865,-656.4551C1028.3008,-646.8035 1011.5506,-634.8156 997.1392,-624.5016"/>
<polygon fill="#999999" stroke="#999999" points="998.4121,-621.9694 990.2769,-619.5904 995.1529,-626.5233 998.4121,-621.9694"/>
</g>
<!-- praat_met_heks&#45;&gt;krijg_ingredientenlijst_van_heks -->
<g id="edge39" class="edge">
<title>praat_met_heks&#45;&gt;krijg_ingredientenlijst_van_heks</title>
<path fill="none" stroke="#999999" d="M1067,-656.062C1067,-628.3663 1067,-574.3785 1067,-528.5 1067,-528.5 1067,-528.5 1067,-455.5 1067,-411.2297 1046.1699,-363.2838 1031.3992,-334.8502"/>
<polygon fill="#999999" stroke="#999999" points="1033.8317,-333.4608 1027.6037,-327.7116 1028.8871,-336.0898 1033.8317,-333.4608"/>
</g>
<!-- geef_houweel_aan_dwerg -->
<g id="node31" class="node">
<title>geef_houweel_aan_dwerg</title>
<path fill="#3333aa" stroke="#3333aa" d="M1056.1805,-1313.5C1056.1805,-1313.5 1197.8195,-1313.5 1197.8195,-1313.5 1203.8195,-1313.5 1209.8195,-1319.5 1209.8195,-1325.5 1209.8195,-1325.5 1209.8195,-1337.5 1209.8195,-1337.5 1209.8195,-1343.5 1203.8195,-1349.5 1197.8195,-1349.5 1197.8195,-1349.5 1056.1805,-1349.5 1056.1805,-1349.5 1050.1805,-1349.5 1044.1805,-1343.5 1044.1805,-1337.5 1044.1805,-1337.5 1044.1805,-1325.5 1044.1805,-1325.5 1044.1805,-1319.5 1050.1805,-1313.5 1056.1805,-1313.5"/>
<text text-anchor="middle" x="1127" y="-1327.3" font-family="lato, roboto, helvetica" font-size="14.00" fill="#eeeeee">Geef Houweel Aan Dwerg</text>
</g>
<!-- geef_houweel_aan_dwerg&#45;&gt;krijg_edelsteen_van_dwerg -->
<g id="edge36" class="edge">
<title>geef_houweel_aan_dwerg&#45;&gt;krijg_edelsteen_van_dwerg</title>
<path fill="none" stroke="#999999" d="M1127.2472,-1313.4551C1127.3662,-1304.7686 1127.5111,-1294.1898 1127.6419,-1284.642"/>
<polygon fill="#999999" stroke="#999999" points="1130.4422,-1284.628 1127.7522,-1276.5904 1124.8428,-1284.5512 1130.4422,-1284.628"/>
</g>
<!-- repareer_houweel -->
<g id="node32" class="node">
<title>repareer_houweel</title>
<path fill="#3333aa" stroke="#3333aa" d="M1053.7254,-1386.5C1053.7254,-1386.5 1150.2746,-1386.5 1150.2746,-1386.5 1156.2746,-1386.5 1162.2746,-1392.5 1162.2746,-1398.5 1162.2746,-1398.5 1162.2746,-1410.5 1162.2746,-1410.5 1162.2746,-1416.5 1156.2746,-1422.5 1150.2746,-1422.5 1150.2746,-1422.5 1053.7254,-1422.5 1053.7254,-1422.5 1047.7254,-1422.5 1041.7254,-1416.5 1041.7254,-1410.5 1041.7254,-1410.5 1041.7254,-1398.5 1041.7254,-1398.5 1041.7254,-1392.5 1047.7254,-1386.5 1053.7254,-1386.5"/>
<text text-anchor="middle" x="1102" y="-1400.3" font-family="lato, roboto, helvetica" font-size="14.00" fill="#eeeeee">Repareer Houweel</text>
</g>
<!-- repareer_houweel&#45;&gt;geef_houweel_aan_dwerg -->
<g id="edge21" class="edge">
<title>repareer_houweel&#45;&gt;geef_houweel_aan_dwerg</title>
<path fill="none" stroke="#999999" d="M1108.1798,-1386.4551C1111.1846,-1377.6809 1114.8507,-1366.9759 1118.1462,-1357.353"/>
<polygon fill="#999999" stroke="#999999" points="1120.8616,-1358.066 1120.8047,-1349.5904 1115.5637,-1356.2516 1120.8616,-1358.066"/>
</g>
<!-- geef_leer_aan_hoefsmid -->
<g id="node33" class="node">
<title>geef_leer_aan_hoefsmid</title>
<path fill="#3333aa" stroke="#3333aa" d="M436.0662,-218.5C436.0662,-218.5 569.9338,-218.5 569.9338,-218.5 575.9338,-218.5 581.9338,-224.5 581.9338,-230.5 581.9338,-230.5 581.9338,-242.5 581.9338,-242.5 581.9338,-248.5 575.9338,-254.5 569.9338,-254.5 569.9338,-254.5 436.0662,-254.5 436.0662,-254.5 430.0662,-254.5 424.0662,-248.5 424.0662,-242.5 424.0662,-242.5 424.0662,-230.5 424.0662,-230.5 424.0662,-224.5 430.0662,-218.5 436.0662,-218.5"/>
<text text-anchor="middle" x="503" y="-232.3" font-family="lato, roboto, helvetica" font-size="14.00" fill="#eeeeee">Geef Leer Aan Hoefsmid</text>
</g>
<!-- maak_zadel_bij_hoefsmid -->
<g id="node53" class="node">
<title>maak_zadel_bij_hoefsmid</title>
<path fill="#3333aa" stroke="#3333aa" d="M432.7142,-145.5C432.7142,-145.5 571.2858,-145.5 571.2858,-145.5 577.2858,-145.5 583.2858,-151.5 583.2858,-157.5 583.2858,-157.5 583.2858,-169.5 583.2858,-169.5 583.2858,-175.5 577.2858,-181.5 571.2858,-181.5 571.2858,-181.5 432.7142,-181.5 432.7142,-181.5 426.7142,-181.5 420.7142,-175.5 420.7142,-169.5 420.7142,-169.5 420.7142,-157.5 420.7142,-157.5 420.7142,-151.5 426.7142,-145.5 432.7142,-145.5"/>
<text text-anchor="middle" x="502" y="-159.3" font-family="lato, roboto, helvetica" font-size="14.00" fill="#eeeeee">Maak Zadel Bij Hoefsmid</text>
</g>
<!-- geef_leer_aan_hoefsmid&#45;&gt;maak_zadel_bij_hoefsmid -->
<g id="edge51" class="edge">
<title>geef_leer_aan_hoefsmid&#45;&gt;maak_zadel_bij_hoefsmid</title>
<path fill="none" stroke="#999999" d="M502.7528,-218.4551C502.6338,-209.7686 502.4889,-199.1898 502.3581,-189.642"/>
<polygon fill="#999999" stroke="#999999" points="505.1572,-189.5512 502.2478,-181.5904 499.5578,-189.628 505.1572,-189.5512"/>
</g>
<!-- pak_stuk_leer_in_toren&#45;&gt;geef_leer_aan_hoefsmid -->
<g id="edge22" class="edge">
<title>pak_stuk_leer_in_toren&#45;&gt;geef_leer_aan_hoefsmid</title>
<path fill="none" stroke="#999999" d="M504.5056,-291.4551C504.2676,-282.7686 503.9778,-272.1898 503.7162,-262.642"/>
<polygon fill="#999999" stroke="#999999" points="506.5138,-262.5106 503.4956,-254.5904 500.9159,-262.6641 506.5138,-262.5106"/>
</g>
<!-- haal_wagen_bij_molenaar_met_paard -->
<g id="node36" class="node">
<title>haal_wagen_bij_molenaar_met_paard</title>
<path fill="#3333aa" stroke="#3333aa" d="M39.6251,-1240.5C39.6251,-1240.5 240.3749,-1240.5 240.3749,-1240.5 246.3749,-1240.5 252.3749,-1246.5 252.3749,-1252.5 252.3749,-1252.5 252.3749,-1264.5 252.3749,-1264.5 252.3749,-1270.5 246.3749,-1276.5 240.3749,-1276.5 240.3749,-1276.5 39.6251,-1276.5 39.6251,-1276.5 33.6251,-1276.5 27.6251,-1270.5 27.6251,-1264.5 27.6251,-1264.5 27.6251,-1252.5 27.6251,-1252.5 27.6251,-1246.5 33.6251,-1240.5 39.6251,-1240.5"/>
<text text-anchor="middle" x="140" y="-1254.3" font-family="lato, roboto, helvetica" font-size="14.00" fill="#eeeeee">Haal Wagen Bij Molenaar Met Paard</text>
</g>
<!-- geef_paard_nieuwe_hoefijzers&#45;&gt;haal_wagen_bij_molenaar_met_paard -->
<g id="edge25" class="edge">
<title>geef_paard_nieuwe_hoefijzers&#45;&gt;haal_wagen_bij_molenaar_met_paard</title>
<path fill="none" stroke="#999999" d="M301.1011,-1313.4551C270.7498,-1303.1016 232.5172,-1290.0596 200.9148,-1279.2794"/>
<polygon fill="#999999" stroke="#999999" points="201.5076,-1276.5232 193.032,-1276.5904 199.6996,-1281.8233 201.5076,-1276.5232"/>
</g>
<!-- haal_wagen_bij_molenaar_met_paard&#45;&gt;zet_graan_op_wagen -->
<g id="edge74" class="edge">
<title>haal_wagen_bij_molenaar_met_paard&#45;&gt;zet_graan_op_wagen</title>
<path fill="none" stroke="#999999" d="M174.6068,-1240.4551C193.7897,-1230.4525 217.785,-1217.9407 238.0321,-1207.3833"/>
<polygon fill="#999999" stroke="#999999" points="239.5072,-1209.772 245.3062,-1203.5904 236.918,-1204.8065 239.5072,-1209.772"/>
</g>
<!-- praat_met_molenaar&#45;&gt;haal_wagen_bij_molenaar_met_paard -->
<g id="edge26" class="edge">
<title>praat_met_molenaar&#45;&gt;haal_wagen_bij_molenaar_met_paard</title>
<path fill="none" stroke="#999999" d="M140,-1313.4551C140,-1304.7686 140,-1294.1898 140,-1284.642"/>
<polygon fill="#999999" stroke="#999999" points="142.8001,-1284.5903 140,-1276.5904 137.2001,-1284.5904 142.8001,-1284.5903"/>
</g>
<!-- hijs_lift_met_molensteen -->
<g id="node38" class="node">
<title>hijs_lift_met_molensteen</title>
<path fill="#3333aa" stroke="#3333aa" d="M580.6546,-510.5C580.6546,-510.5 715.3454,-510.5 715.3454,-510.5 721.3454,-510.5 727.3454,-516.5 727.3454,-522.5 727.3454,-522.5 727.3454,-534.5 727.3454,-534.5 727.3454,-540.5 721.3454,-546.5 715.3454,-546.5 715.3454,-546.5 580.6546,-546.5 580.6546,-546.5 574.6546,-546.5 568.6546,-540.5 568.6546,-534.5 568.6546,-534.5 568.6546,-522.5 568.6546,-522.5 568.6546,-516.5 574.6546,-510.5 580.6546,-510.5"/>
<text text-anchor="middle" x="648" y="-524.3" font-family="lato, roboto, helvetica" font-size="14.00" fill="#eeeeee">Hijs Lift Met Molensteen</text>
</g>
<!-- hijs_lift_met_molensteen&#45;&gt;snij_touw_van_lift -->
<g id="edge71" class="edge">
<title>hijs_lift_met_molensteen&#45;&gt;snij_touw_van_lift</title>
<path fill="none" stroke="#999999" d="M642.809,-510.4551C640.2849,-501.6809 637.2054,-490.9759 634.4372,-481.353"/>
<polygon fill="#999999" stroke="#999999" points="637.1067,-480.5045 632.2041,-473.5904 631.725,-482.0527 637.1067,-480.5045"/>
</g>
<!-- zet_hendel_op_lift -->
<g id="node39" class="node">
<title>zet_hendel_op_lift</title>
<path fill="#3333aa" stroke="#3333aa" d="M543.1574,-1094.5C543.1574,-1094.5 642.8426,-1094.5 642.8426,-1094.5 648.8426,-1094.5 654.8426,-1100.5 654.8426,-1106.5 654.8426,-1106.5 654.8426,-1118.5 654.8426,-1118.5 654.8426,-1124.5 648.8426,-1130.5 642.8426,-1130.5 642.8426,-1130.5 543.1574,-1130.5 543.1574,-1130.5 537.1574,-1130.5 531.1574,-1124.5 531.1574,-1118.5 531.1574,-1118.5 531.1574,-1106.5 531.1574,-1106.5 531.1574,-1100.5 537.1574,-1094.5 543.1574,-1094.5"/>
<text text-anchor="middle" x="593" y="-1108.3" font-family="lato, roboto, helvetica" font-size="14.00" fill="#eeeeee">Zet Hendel Op Lift</text>
</g>
<!-- zet_hendel_op_lift&#45;&gt;hijs_lift_met_molensteen -->
<g id="edge27" class="edge">
<title>zet_hendel_op_lift&#45;&gt;hijs_lift_met_molensteen</title>
<path fill="none" stroke="#999999" d="M589.4776,-1094.1419C584.4982,-1066.5479 576,-1012.6884 576,-966.5 576,-966.5 576,-966.5 576,-674.5 576,-632.9658 575.5229,-619.6842 595,-583 601.0417,-571.6208 610.1821,-560.9953 619.1796,-552.2033"/>
<polygon fill="#999999" stroke="#999999" points="621.1235,-554.2189 625.0376,-546.7009 617.2895,-550.1372 621.1235,-554.2189"/>
</g>
<!-- leg_molensteen_op_lift&#45;&gt;hijs_lift_met_molensteen -->
<g id="edge28" class="edge">
<title>leg_molensteen_op_lift&#45;&gt;hijs_lift_met_molensteen</title>
<path fill="none" stroke="#999999" d="M672.0899,-583.4551C668.2052,-574.5932 663.4572,-563.7616 659.2064,-554.0646"/>
<polygon fill="#999999" stroke="#999999" points="661.7063,-552.7932 655.93,-546.5904 656.5775,-555.0415 661.7063,-552.7932"/>
</g>
<!-- knoop_touw_aan_molensteen -->
<g id="node41" class="node">
<title>knoop_touw_aan_molensteen</title>
<path fill="#3333aa" stroke="#3333aa" d="M209.0494,-510.5C209.0494,-510.5 370.9506,-510.5 370.9506,-510.5 376.9506,-510.5 382.9506,-516.5 382.9506,-522.5 382.9506,-522.5 382.9506,-534.5 382.9506,-534.5 382.9506,-540.5 376.9506,-546.5 370.9506,-546.5 370.9506,-546.5 209.0494,-546.5 209.0494,-546.5 203.0494,-546.5 197.0494,-540.5 197.0494,-534.5 197.0494,-534.5 197.0494,-522.5 197.0494,-522.5 197.0494,-516.5 203.0494,-510.5 209.0494,-510.5"/>
<text text-anchor="middle" x="290" y="-524.3" font-family="lato, roboto, helvetica" font-size="14.00" fill="#eeeeee">Knoop Touw Aan Molensteen</text>
</g>
<!-- knoop_touw_aan_molensteen&#45;&gt;snij_touw_van_lift -->
<g id="edge69" class="edge">
<title>knoop_touw_aan_molensteen&#45;&gt;snij_touw_van_lift</title>
<path fill="none" stroke="#999999" d="M373.3034,-510.4551C429.3855,-498.3067 502.555,-482.4569 555.8952,-470.9025"/>
<polygon fill="#999999" stroke="#999999" points="556.7222,-473.5884 563.948,-469.1581 555.5366,-468.1153 556.7222,-473.5884"/>
</g>
<!-- pak_touw_op_boerderij&#45;&gt;knoop_touw_aan_molensteen -->
<g id="edge29" class="edge">
<title>pak_touw_op_boerderij&#45;&gt;knoop_touw_aan_molensteen</title>
<path fill="none" stroke="#999999" d="M290,-583.4551C290,-574.7686 290,-564.1898 290,-554.642"/>
<polygon fill="#999999" stroke="#999999" points="292.8001,-554.5903 290,-546.5904 287.2001,-554.5904 292.8001,-554.5903"/>
</g>
<!-- knoop_touw_aan_tand -->
<g id="node43" class="node">
<title>knoop_touw_aan_tand</title>
<path fill="#3333aa" stroke="#3333aa" d="M413.3229,-510.5C413.3229,-510.5 538.6771,-510.5 538.6771,-510.5 544.6771,-510.5 550.6771,-516.5 550.6771,-522.5 550.6771,-522.5 550.6771,-534.5 550.6771,-534.5 550.6771,-540.5 544.6771,-546.5 538.6771,-546.5 538.6771,-546.5 413.3229,-546.5 413.3229,-546.5 407.3229,-546.5 401.3229,-540.5 401.3229,-534.5 401.3229,-534.5 401.3229,-522.5 401.3229,-522.5 401.3229,-516.5 407.3229,-510.5 413.3229,-510.5"/>
<text text-anchor="middle" x="476" y="-524.3" font-family="lato, roboto, helvetica" font-size="14.00" fill="#eeeeee">Knoop Touw Aan Tand</text>
</g>
<!-- pak_touw_op_boerderij&#45;&gt;knoop_touw_aan_tand -->
<g id="edge30" class="edge">
<title>pak_touw_op_boerderij&#45;&gt;knoop_touw_aan_tand</title>
<path fill="none" stroke="#999999" d="M335.9775,-583.4551C362.1341,-573.1893 395.0252,-560.2804 422.3558,-549.5539"/>
<polygon fill="#999999" stroke="#999999" points="423.4827,-552.1196 429.9068,-546.5904 421.4368,-546.9067 423.4827,-552.1196"/>
</g>
<!-- knoop_touw_aan_tand&#45;&gt;snij_touw_van_lift -->
<g id="edge70" class="edge">
<title>knoop_touw_aan_tand&#45;&gt;snij_touw_van_lift</title>
<path fill="none" stroke="#999999" d="M513.3259,-510.4551C534.1975,-500.3648 560.3511,-487.721 582.3084,-477.1059"/>
<polygon fill="#999999" stroke="#999999" points="583.5964,-479.5933 589.5802,-473.5904 581.159,-474.5515 583.5964,-479.5933"/>
</g>
<!-- _1&#45;&gt;koop_eten_bij_bakker -->
<g id="edge31" class="edge">
<title>_1&#45;&gt;koop_eten_bij_bakker</title>
<path fill="none" stroke="#999999" d="M686.2498,-1467.9565C701.5962,-1457.6787 726.5627,-1440.958 747.0156,-1427.2602"/>
<polygon fill="#999999" stroke="#999999" points="748.6694,-1429.5226 753.7583,-1422.7444 745.5532,-1424.8697 748.6694,-1429.5226"/>
</g>
<!-- krijg_geld_van_meel&#45;&gt;koop_zwaard_bij_wapensmid -->
<g id="edge34" class="edge">
<title>krijg_geld_van_meel&#45;&gt;koop_zwaard_bij_wapensmid</title>
<path fill="none" stroke="#999999" d="M547.9771,-878.9903C599.9778,-867.8907 672.2431,-852.4657 729.5065,-840.2428"/>
<polygon fill="#999999" stroke="#999999" points="730.2441,-842.9485 737.4834,-838.5401 729.0751,-837.4718 730.2441,-842.9485"/>
</g>
<!-- krijg_ingredientenlijst_van_heks&#45;&gt;pak_tand_van_draak -->
<g id="edge55" class="edge">
<title>krijg_ingredientenlijst_van_heks&#45;&gt;pak_tand_van_draak</title>
<path fill="none" stroke="#999999" d="M981.6517,-291.4551C961.9717,-281.4087 937.3331,-268.8309 916.5953,-258.2445"/>
<polygon fill="#999999" stroke="#999999" points="917.8357,-255.7339 909.4373,-254.5904 915.2895,-260.7216 917.8357,-255.7339"/>
</g>
<!-- pluk_kruiden_in_bos -->
<g id="node49" class="node">
<title>pluk_kruiden_in_bos</title>
<path fill="#3333aa" stroke="#3333aa" d="M971.2563,-218.5C971.2563,-218.5 1078.7437,-218.5 1078.7437,-218.5 1084.7437,-218.5 1090.7437,-224.5 1090.7437,-230.5 1090.7437,-230.5 1090.7437,-242.5 1090.7437,-242.5 1090.7437,-248.5 1084.7437,-254.5 1078.7437,-254.5 1078.7437,-254.5 971.2563,-254.5 971.2563,-254.5 965.2563,-254.5 959.2563,-248.5 959.2563,-242.5 959.2563,-242.5 959.2563,-230.5 959.2563,-230.5 959.2563,-224.5 965.2563,-218.5 971.2563,-218.5"/>
<text text-anchor="middle" x="1025" y="-232.3" font-family="lato, roboto, helvetica" font-size="14.00" fill="#eeeeee">Pluk Kruiden In Bos</text>
</g>
<!-- krijg_ingredientenlijst_van_heks&#45;&gt;pluk_kruiden_in_bos -->
<g id="edge58" class="edge">
<title>krijg_ingredientenlijst_van_heks&#45;&gt;pluk_kruiden_in_bos</title>
<path fill="none" stroke="#999999" d="M1018.9775,-291.4551C1019.9295,-282.7686 1021.0888,-272.1898 1022.1351,-262.642"/>
<polygon fill="#999999" stroke="#999999" points="1024.9292,-262.8478 1023.0175,-254.5904 1019.3626,-262.2377 1024.9292,-262.8478"/>
</g>
<!-- pluk_paddenstoelen_in_woud -->
<g id="node50" class="node">
<title>pluk_paddenstoelen_in_woud</title>
<path fill="#3333aa" stroke="#3333aa" d="M1120.5424,-218.5C1120.5424,-218.5 1275.4576,-218.5 1275.4576,-218.5 1281.4576,-218.5 1287.4576,-224.5 1287.4576,-230.5 1287.4576,-230.5 1287.4576,-242.5 1287.4576,-242.5 1287.4576,-248.5 1281.4576,-254.5 1275.4576,-254.5 1275.4576,-254.5 1120.5424,-254.5 1120.5424,-254.5 1114.5424,-254.5 1108.5424,-248.5 1108.5424,-242.5 1108.5424,-242.5 1108.5424,-230.5 1108.5424,-230.5 1108.5424,-224.5 1114.5424,-218.5 1120.5424,-218.5"/>
<text text-anchor="middle" x="1198" y="-232.3" font-family="lato, roboto, helvetica" font-size="14.00" fill="#eeeeee">Pluk Paddenstoelen In Woud</text>
</g>
<!-- krijg_ingredientenlijst_van_heks&#45;&gt;pluk_paddenstoelen_in_woud -->
<g id="edge59" class="edge">
<title>krijg_ingredientenlijst_van_heks&#45;&gt;pluk_paddenstoelen_in_woud</title>
<path fill="none" stroke="#999999" d="M1061.7416,-291.4551C1087.0863,-281.2332 1118.9285,-268.3907 1145.4566,-257.6916"/>
<polygon fill="#999999" stroke="#999999" points="1146.7738,-260.1795 1153.1458,-254.5904 1144.6792,-254.986 1146.7738,-260.1795"/>
</g>
<!-- krijg_ingredientenlijst_van_heks&#45;&gt;krijg_taart_van_bakker -->
<g id="edge47" class="edge">
<title>krijg_ingredientenlijst_van_heks&#45;&gt;krijg_taart_van_bakker</title>
<path fill="none" stroke="#999999" d="M942.1011,-291.4551C898.0428,-280.8404 842.2554,-267.3998 796.8802,-256.4678"/>
<polygon fill="#999999" stroke="#999999" points="797.2578,-253.6788 788.8245,-254.527 795.9461,-259.123 797.2578,-253.6788"/>
</g>
<!-- krijg_kapotte_houweel_van_dwerg&#45;&gt;repareer_houweel -->
<g id="edge67" class="edge">
<title>krijg_kapotte_houweel_van_dwerg&#45;&gt;repareer_houweel</title>
<path fill="none" stroke="#999999" d="M934.1236,-1459.4551C965.8854,-1449.0577 1005.9297,-1435.949 1038.9416,-1425.1424"/>
<polygon fill="#999999" stroke="#999999" points="1040.0058,-1427.7403 1046.7377,-1422.5904 1038.2635,-1422.4182 1040.0058,-1427.7403"/>
</g>
<!-- pak_tand_van_draak&#45;&gt;krijg_medicijn_van_heks -->
<g id="edge42" class="edge">
<title>pak_tand_van_draak&#45;&gt;krijg_medicijn_van_heks</title>
<path fill="none" stroke="#999999" d="M874,-218.4551C874,-209.7686 874,-199.1898 874,-189.642"/>
<polygon fill="#999999" stroke="#999999" points="876.8001,-189.5903 874,-181.5904 871.2001,-189.5904 876.8001,-189.5903"/>
</g>
<!-- pluk_kruiden_in_bos&#45;&gt;krijg_medicijn_van_heks -->
<g id="edge43" class="edge">
<title>pluk_kruiden_in_bos&#45;&gt;krijg_medicijn_van_heks</title>
<path fill="none" stroke="#999999" d="M987.6741,-218.4551C966.8025,-208.3648 940.6489,-195.721 918.6916,-185.1059"/>
<polygon fill="#999999" stroke="#999999" points="919.841,-182.5515 911.4198,-181.5904 917.4036,-187.5933 919.841,-182.5515"/>
</g>
<!-- pluk_paddenstoelen_in_woud&#45;&gt;krijg_medicijn_van_heks -->
<g id="edge44" class="edge">
<title>pluk_paddenstoelen_in_woud&#45;&gt;krijg_medicijn_van_heks</title>
<path fill="none" stroke="#999999" d="M1117.9101,-218.4551C1070.4257,-207.7564 1010.2001,-194.1871 961.4753,-183.2089"/>
<polygon fill="#999999" stroke="#999999" points="961.8687,-180.4275 953.4489,-181.4005 960.6378,-185.8905 961.8687,-180.4275"/>
</g>
<!-- krijg_taart_van_bakker&#45;&gt;krijg_medicijn_van_heks -->
<g id="edge45" class="edge">
<title>krijg_taart_van_bakker&#45;&gt;krijg_medicijn_van_heks</title>
<path fill="none" stroke="#999999" d="M753.5506,-218.4551C775.7624,-208.3209 803.6197,-195.611 826.9479,-184.9675"/>
<polygon fill="#999999" stroke="#999999" points="828.2339,-187.4585 834.3499,-181.5904 825.9094,-182.3637 828.2339,-187.4585"/>
</g>
<!-- praat_met_dochter_van_bakker&#45;&gt;leg_molensteen_op_lift -->
<g id="edge50" class="edge">
<title>praat_met_dochter_van_bakker&#45;&gt;leg_molensteen_op_lift</title>
<path fill="none" stroke="#999999" d="M694.3034,-656.4551C692.0197,-647.6809 689.2335,-636.9759 686.7289,-627.353"/>
<polygon fill="#999999" stroke="#999999" points="689.4333,-626.6271 684.7084,-619.5904 684.0139,-628.0377 689.4333,-626.6271"/>
</g>
<!-- maak_zadel_bij_hoefsmid&#45;&gt;zet_zadel_op_draak -->
<g id="edge78" class="edge">
<title>maak_zadel_bij_hoefsmid&#45;&gt;zet_zadel_op_draak</title>
<path fill="none" stroke="#999999" d="M528.9438,-145.4551C543.4861,-135.7157 561.5805,-123.5975 577.0745,-113.2207"/>
<polygon fill="#999999" stroke="#999999" points="578.8994,-115.3685 583.9884,-108.5904 575.7832,-110.7156 578.8994,-115.3685"/>
</g>
<!-- pak_hendel_in_mijn&#45;&gt;zet_hendel_op_lift -->
<g id="edge76" class="edge">
<title>pak_hendel_in_mijn&#45;&gt;zet_hendel_op_lift</title>
<path fill="none" stroke="#999999" d="M679.6618,-1240.3042C662.0987,-1214.4032 629.827,-1166.8105 610.0066,-1137.5804"/>
<polygon fill="#999999" stroke="#999999" points="612.301,-1135.975 605.4937,-1130.9251 607.6661,-1139.1179 612.301,-1135.975"/>
</g>
<!-- pak_hout_in_bos&#45;&gt;repareer_houweel -->
<g id="edge66" class="edge">
<title>pak_hout_in_bos&#45;&gt;repareer_houweel</title>
<path fill="none" stroke="#999999" d="M1100.4944,-1459.4551C1100.7324,-1450.7686 1101.0222,-1440.1898 1101.2838,-1430.642"/>
<polygon fill="#999999" stroke="#999999" points="1104.0841,-1430.6641 1101.5044,-1422.5904 1098.4862,-1430.5106 1104.0841,-1430.6641"/>
</g>
<!-- snij_touw_van_lift&#45;&gt;trek_tand_van_draak -->
<g id="edge72" class="edge">
<title>snij_touw_van_lift&#45;&gt;trek_tand_van_draak</title>
<path fill="none" stroke="#999999" d="M627,-437.4551C627,-428.7686 627,-418.1898 627,-408.642"/>
<polygon fill="#999999" stroke="#999999" points="629.8001,-408.5903 627,-400.5904 624.2001,-408.5904 629.8001,-408.5903"/>
</g>
</g>
</svg>
