<?xml version="1.0" encoding="UTF-8" standalone="no"?>
<!DOCTYPE svg PUBLIC "-//W3C//DTD SVG 1.1//EN"
 "http://www.w3.org/Graphics/SVG/1.1/DTD/svg11.dtd">
<!-- Generated by graphviz version 2.40.1 (20161225.0304)
 -->
<!-- Title: G Pages: 1 -->
<svg width="1713pt" height="1827pt"
 viewBox="0.00 0.00 1712.53 1827.00" xmlns="http://www.w3.org/2000/svg" xmlns:xlink="http://www.w3.org/1999/xlink">
<g id="graph0" class="graph" transform="scale(1 1) rotate(0) translate(4 1823)">
<title>G</title>
<polygon fill="#ffffff" stroke="transparent" points="-4,4 -4,-1823 1708.5337,-1823 1708.5337,4 -4,4"/>
<text text-anchor="middle" x="852.2669" y="-1797" font-family="lato, roboto, helvetica" font-size="20.00" fill="#000000">Avontuur</text>
<!-- START -->
<g id="node1" class="node">
<title>START</title>
<polygon fill="#333333" stroke="#333333" points="899.0656,-1787 840.3596,-1769 899.0656,-1751 957.7716,-1769 899.0656,-1787"/>
<polyline fill="none" stroke="#333333" points="851.8324,-1772.5177 851.8324,-1765.4823 "/>
<polyline fill="none" stroke="#333333" points="887.5928,-1754.5177 910.5384,-1754.5177 "/>
<polyline fill="none" stroke="#333333" points="946.2988,-1765.4823 946.2988,-1772.5177 "/>
<polyline fill="none" stroke="#333333" points="910.5384,-1783.4823 887.5928,-1783.4823 "/>
<text text-anchor="middle" x="899.0656" y="-1764.8" font-family="lato, roboto, helvetica" font-size="14.00" fill="#dddddd">START</text>
</g>
<!-- betaal_twee_geldstukken -->
<g id="node5" class="node">
<title>betaal_twee_geldstukken</title>
<path fill="#008800" stroke="#008800" d="M1110.7598,-1678.5C1110.7598,-1678.5 1247.3714,-1678.5 1247.3714,-1678.5 1253.3714,-1678.5 1259.3714,-1684.5 1259.3714,-1690.5 1259.3714,-1690.5 1259.3714,-1702.5 1259.3714,-1702.5 1259.3714,-1708.5 1253.3714,-1714.5 1247.3714,-1714.5 1247.3714,-1714.5 1110.7598,-1714.5 1110.7598,-1714.5 1104.7598,-1714.5 1098.7598,-1708.5 1098.7598,-1702.5 1098.7598,-1702.5 1098.7598,-1690.5 1098.7598,-1690.5 1098.7598,-1684.5 1104.7598,-1678.5 1110.7598,-1678.5"/>
<text text-anchor="middle" x="1179.0656" y="-1692.3" font-family="lato, roboto, helvetica" font-size="14.00" fill="#eeeeee">Betaal Twee Geldstukken</text>
</g>
<!-- START&#45;&gt;betaal_twee_geldstukken -->
<g id="edge3" class="edge">
<title>START&#45;&gt;betaal_twee_geldstukken</title>
<path fill="none" stroke="#999999" d="M930.9126,-1760.7539C972.1184,-1750.0845 1045.2847,-1731.1397 1101.5304,-1716.5761"/>
<polygon fill="#999999" stroke="#999999" points="1102.3068,-1719.2675 1109.3496,-1714.5515 1100.9031,-1713.8462 1102.3068,-1719.2675"/>
</g>
<!-- praat_met_bakker -->
<g id="node21" class="node">
<title>praat_met_bakker</title>
<path fill="#008800" stroke="#008800" d="M394.696,-1021.5C394.696,-1021.5 485.4352,-1021.5 485.4352,-1021.5 491.4352,-1021.5 497.4352,-1027.5 497.4352,-1033.5 497.4352,-1033.5 497.4352,-1045.5 497.4352,-1045.5 497.4352,-1051.5 491.4352,-1057.5 485.4352,-1057.5 485.4352,-1057.5 394.696,-1057.5 394.696,-1057.5 388.696,-1057.5 382.696,-1051.5 382.696,-1045.5 382.696,-1045.5 382.696,-1033.5 382.696,-1033.5 382.696,-1027.5 388.696,-1021.5 394.696,-1021.5"/>
<text text-anchor="middle" x="440.0656" y="-1035.3" font-family="lato, roboto, helvetica" font-size="14.00" fill="#eeeeee">Praat Met Bakker</text>
</g>
<!-- START&#45;&gt;praat_met_bakker -->
<g id="edge62" class="edge">
<title>START&#45;&gt;praat_met_bakker</title>
<path fill="none" stroke="#999999" d="M891.5456,-1753.2623C879.7092,-1727.0037 858.0656,-1672.3141 858.0656,-1623.5 858.0656,-1623.5 858.0656,-1623.5 858.0656,-1185.5 858.0656,-1167.0667 623.3273,-1094.2707 505.6685,-1058.9406"/>
<polygon fill="#999999" stroke="#999999" points="506.215,-1056.1814 497.7478,-1056.5657 504.6066,-1061.5454 506.215,-1056.1814"/>
</g>
<!-- praat_met_dwerg -->
<g id="node23" class="node">
<title>praat_met_dwerg</title>
<path fill="#008800" stroke="#008800" d="M1289.865,-1678.5C1289.865,-1678.5 1378.2662,-1678.5 1378.2662,-1678.5 1384.2662,-1678.5 1390.2662,-1684.5 1390.2662,-1690.5 1390.2662,-1690.5 1390.2662,-1702.5 1390.2662,-1702.5 1390.2662,-1708.5 1384.2662,-1714.5 1378.2662,-1714.5 1378.2662,-1714.5 1289.865,-1714.5 1289.865,-1714.5 1283.865,-1714.5 1277.865,-1708.5 1277.865,-1702.5 1277.865,-1702.5 1277.865,-1690.5 1277.865,-1690.5 1277.865,-1684.5 1283.865,-1678.5 1289.865,-1678.5"/>
<text text-anchor="middle" x="1334.0656" y="-1692.3" font-family="lato, roboto, helvetica" font-size="14.00" fill="#eeeeee">Praat Met Dwerg</text>
</g>
<!-- START&#45;&gt;praat_met_dwerg -->
<g id="edge69" class="edge">
<title>START&#45;&gt;praat_met_dwerg</title>
<path fill="none" stroke="#999999" d="M943.126,-1764.3996C1012.6499,-1756.7269 1151.8516,-1739.6851 1268.0656,-1715 1268.6549,-1714.8748 1269.2467,-1714.7474 1269.8406,-1714.6178"/>
<polygon fill="#999999" stroke="#999999" points="1270.487,-1717.3423 1277.6579,-1712.8235 1269.2342,-1711.8842 1270.487,-1717.3423"/>
</g>
<!-- praat_met_boer -->
<g id="node31" class="node">
<title>praat_met_boer</title>
<path fill="#008800" stroke="#008800" d="M613.3033,-1678.5C613.3033,-1678.5 690.8279,-1678.5 690.8279,-1678.5 696.8279,-1678.5 702.8279,-1684.5 702.8279,-1690.5 702.8279,-1690.5 702.8279,-1702.5 702.8279,-1702.5 702.8279,-1708.5 696.8279,-1714.5 690.8279,-1714.5 690.8279,-1714.5 613.3033,-1714.5 613.3033,-1714.5 607.3033,-1714.5 601.3033,-1708.5 601.3033,-1702.5 601.3033,-1702.5 601.3033,-1690.5 601.3033,-1690.5 601.3033,-1684.5 607.3033,-1678.5 613.3033,-1678.5"/>
<text text-anchor="middle" x="652.0656" y="-1692.3" font-family="lato, roboto, helvetica" font-size="14.00" fill="#eeeeee">Praat Met Boer</text>
</g>
<!-- START&#45;&gt;praat_met_boer -->
<g id="edge63" class="edge">
<title>START&#45;&gt;praat_met_boer</title>
<path fill="none" stroke="#999999" d="M868.7786,-1760.1101C829.6493,-1748.6248 760.6737,-1728.3789 711.037,-1713.8094"/>
<polygon fill="#999999" stroke="#999999" points="711.7089,-1711.0886 703.2442,-1711.522 710.1317,-1716.4619 711.7089,-1711.0886"/>
</g>
<!-- pak_touw_op_boerderij -->
<g id="node37" class="node">
<title>pak_touw_op_boerderij</title>
<path fill="#008800" stroke="#008800" d="M12,-656.5C12,-656.5 138.1312,-656.5 138.1312,-656.5 144.1312,-656.5 150.1312,-662.5 150.1312,-668.5 150.1312,-668.5 150.1312,-680.5 150.1312,-680.5 150.1312,-686.5 144.1312,-692.5 138.1312,-692.5 138.1312,-692.5 12,-692.5 12,-692.5 6,-692.5 0,-686.5 0,-680.5 0,-680.5 0,-668.5 0,-668.5 0,-662.5 6,-656.5 12,-656.5"/>
<text text-anchor="middle" x="75.0656" y="-670.3" font-family="lato, roboto, helvetica" font-size="14.00" fill="#eeeeee">Pak Touw Op Boerderij</text>
</g>
<!-- START&#45;&gt;pak_touw_op_boerderij -->
<g id="edge59" class="edge">
<title>START&#45;&gt;pak_touw_op_boerderij</title>
<path fill="none" stroke="#999999" d="M849.6031,-1766.0634C725.6066,-1758.4585 403.9518,-1737.1639 299.0656,-1715 175.0996,-1688.8043 29.0656,-1750.2035 29.0656,-1623.5 29.0656,-1623.5 29.0656,-1623.5 29.0656,-820.5 29.0656,-776.7749 48.0665,-728.9468 61.6446,-700.3509"/>
<polygon fill="#999999" stroke="#999999" points="64.3288,-701.2337 65.3102,-692.8148 59.2929,-698.7842 64.3288,-701.2337"/>
</g>
<!-- praat_met_smidsen -->
<g id="node49" class="node">
<title>praat_met_smidsen</title>
<path fill="#008800" stroke="#008800" d="M897.7977,-1313.5C897.7977,-1313.5 996.3335,-1313.5 996.3335,-1313.5 1002.3335,-1313.5 1008.3335,-1319.5 1008.3335,-1325.5 1008.3335,-1325.5 1008.3335,-1337.5 1008.3335,-1337.5 1008.3335,-1343.5 1002.3335,-1349.5 996.3335,-1349.5 996.3335,-1349.5 897.7977,-1349.5 897.7977,-1349.5 891.7977,-1349.5 885.7977,-1343.5 885.7977,-1337.5 885.7977,-1337.5 885.7977,-1325.5 885.7977,-1325.5 885.7977,-1319.5 891.7977,-1313.5 897.7977,-1313.5"/>
<text text-anchor="middle" x="947.0656" y="-1327.3" font-family="lato, roboto, helvetica" font-size="14.00" fill="#eeeeee">Praat Met Smidsen</text>
</g>
<!-- START&#45;&gt;praat_met_smidsen -->
<g id="edge72" class="edge">
<title>START&#45;&gt;praat_met_smidsen</title>
<path fill="none" stroke="#999999" d="M899.0656,-1750.6252C899.0656,-1723.0243 899.0656,-1669.2214 899.0656,-1623.5 899.0656,-1623.5 899.0656,-1623.5 899.0656,-1477.5 899.0656,-1433.4123 919.0625,-1385.4133 933.2424,-1356.9191"/>
<polygon fill="#999999" stroke="#999999" points="935.7507,-1358.1637 936.886,-1349.7642 930.7605,-1355.6224 935.7507,-1358.1637"/>
</g>
<!-- pak_hout_in_bos -->
<g id="node58" class="node">
<title>pak_hout_in_bos</title>
<path fill="#008800" stroke="#008800" d="M1607.5975,-1605.5C1607.5975,-1605.5 1692.5337,-1605.5 1692.5337,-1605.5 1698.5337,-1605.5 1704.5337,-1611.5 1704.5337,-1617.5 1704.5337,-1617.5 1704.5337,-1629.5 1704.5337,-1629.5 1704.5337,-1635.5 1698.5337,-1641.5 1692.5337,-1641.5 1692.5337,-1641.5 1607.5975,-1641.5 1607.5975,-1641.5 1601.5975,-1641.5 1595.5975,-1635.5 1595.5975,-1629.5 1595.5975,-1629.5 1595.5975,-1617.5 1595.5975,-1617.5 1595.5975,-1611.5 1601.5975,-1605.5 1607.5975,-1605.5"/>
<text text-anchor="middle" x="1650.0656" y="-1619.3" font-family="lato, roboto, helvetica" font-size="14.00" fill="#eeeeee">Pak Hout In Bos</text>
</g>
<!-- START&#45;&gt;pak_hout_in_bos -->
<g id="edge56" class="edge">
<title>START&#45;&gt;pak_hout_in_bos</title>
<path fill="none" stroke="#999999" d="M949.8902,-1766.5749C1092.7092,-1759.5053 1490.7761,-1737.9597 1545.0656,-1715 1579.7257,-1700.3418 1611.0513,-1669.6874 1630.2861,-1647.9045"/>
<polygon fill="#999999" stroke="#999999" points="1632.5047,-1649.6195 1635.6203,-1641.737 1628.2692,-1645.9561 1632.5047,-1649.6195"/>
</g>
<!-- praat_met_molenaar -->
<g id="node62" class="node">
<title>praat_met_molenaar</title>
<path fill="#008800" stroke="#008800" d="M1420.0894,-1678.5C1420.0894,-1678.5 1524.0418,-1678.5 1524.0418,-1678.5 1530.0418,-1678.5 1536.0418,-1684.5 1536.0418,-1690.5 1536.0418,-1690.5 1536.0418,-1702.5 1536.0418,-1702.5 1536.0418,-1708.5 1530.0418,-1714.5 1524.0418,-1714.5 1524.0418,-1714.5 1420.0894,-1714.5 1420.0894,-1714.5 1414.0894,-1714.5 1408.0894,-1708.5 1408.0894,-1702.5 1408.0894,-1702.5 1408.0894,-1690.5 1408.0894,-1690.5 1408.0894,-1684.5 1414.0894,-1678.5 1420.0894,-1678.5"/>
<text text-anchor="middle" x="1472.0656" y="-1692.3" font-family="lato, roboto, helvetica" font-size="14.00" fill="#eeeeee">Praat Met Molenaar</text>
</g>
<!-- START&#45;&gt;praat_met_molenaar -->
<g id="edge71" class="edge">
<title>START&#45;&gt;praat_met_molenaar</title>
<path fill="none" stroke="#999999" d="M948.3624,-1765.984C1038.4239,-1759.9632 1235.3642,-1744.4321 1399.0656,-1715 1399.4356,-1714.9335 1399.8064,-1714.8661 1400.1781,-1714.798"/>
<polygon fill="#999999" stroke="#999999" points="1400.7665,-1717.5361 1408.0826,-1713.2565 1399.6945,-1712.0396 1400.7665,-1717.5361"/>
</g>
<!-- vind_onderbroek_bij_rivier -->
<g id="node63" class="node">
<title>vind_onderbroek_bij_rivier</title>
<path fill="#008800" stroke="#008800" d="M320.3331,-1678.5C320.3331,-1678.5 469.7981,-1678.5 469.7981,-1678.5 475.7981,-1678.5 481.7981,-1684.5 481.7981,-1690.5 481.7981,-1690.5 481.7981,-1702.5 481.7981,-1702.5 481.7981,-1708.5 475.7981,-1714.5 469.7981,-1714.5 469.7981,-1714.5 320.3331,-1714.5 320.3331,-1714.5 314.3331,-1714.5 308.3331,-1708.5 308.3331,-1702.5 308.3331,-1702.5 308.3331,-1690.5 308.3331,-1690.5 308.3331,-1684.5 314.3331,-1678.5 320.3331,-1678.5"/>
<text text-anchor="middle" x="395.0656" y="-1692.3" font-family="lato, roboto, helvetica" font-size="14.00" fill="#eeeeee">Vind Onderbroek Bij Rivier</text>
</g>
<!-- START&#45;&gt;vind_onderbroek_bij_rivier -->
<g id="edge86" class="edge">
<title>START&#45;&gt;vind_onderbroek_bij_rivier</title>
<path fill="none" stroke="#999999" d="M859.0963,-1763.2504C779.9375,-1751.8635 601.2911,-1726.1654 490.1915,-1710.1838"/>
<polygon fill="#999999" stroke="#999999" points="490.2974,-1707.3703 481.9802,-1709.0026 489.5,-1712.9132 490.2974,-1707.3703"/>
</g>
<!-- beklim_toren -->
<g id="node2" class="node">
<title>beklim_toren</title>
<path fill="#008800" stroke="#008800" d="M302.9902,-875.5C302.9902,-875.5 373.141,-875.5 373.141,-875.5 379.141,-875.5 385.141,-881.5 385.141,-887.5 385.141,-887.5 385.141,-899.5 385.141,-899.5 385.141,-905.5 379.141,-911.5 373.141,-911.5 373.141,-911.5 302.9902,-911.5 302.9902,-911.5 296.9902,-911.5 290.9902,-905.5 290.9902,-899.5 290.9902,-899.5 290.9902,-887.5 290.9902,-887.5 290.9902,-881.5 296.9902,-875.5 302.9902,-875.5"/>
<text text-anchor="middle" x="338.0656" y="-889.3" font-family="lato, roboto, helvetica" font-size="14.00" fill="#eeeeee">Beklim Toren</text>
</g>
<!-- praat_met_dochter_van_bakker -->
<g id="node55" class="node">
<title>praat_met_dochter_van_bakker</title>
<path fill="#008800" stroke="#008800" d="M254.9919,-802.5C254.9919,-802.5 421.1393,-802.5 421.1393,-802.5 427.1393,-802.5 433.1393,-808.5 433.1393,-814.5 433.1393,-814.5 433.1393,-826.5 433.1393,-826.5 433.1393,-832.5 427.1393,-838.5 421.1393,-838.5 421.1393,-838.5 254.9919,-838.5 254.9919,-838.5 248.9919,-838.5 242.9919,-832.5 242.9919,-826.5 242.9919,-826.5 242.9919,-814.5 242.9919,-814.5 242.9919,-808.5 248.9919,-802.5 254.9919,-802.5"/>
<text text-anchor="middle" x="338.0656" y="-816.3" font-family="lato, roboto, helvetica" font-size="14.00" fill="#eeeeee">Praat Met Dochter Van Bakker</text>
</g>
<!-- beklim_toren&#45;&gt;praat_met_dochter_van_bakker -->
<g id="edge66" class="edge">
<title>beklim_toren&#45;&gt;praat_met_dochter_van_bakker</title>
<path fill="none" stroke="#999999" d="M338.0656,-875.4551C338.0656,-866.7686 338.0656,-856.1898 338.0656,-846.642"/>
<polygon fill="#999999" stroke="#999999" points="340.8657,-846.5903 338.0656,-838.5904 335.2657,-846.5904 340.8657,-846.5903"/>
</g>
<!-- koop_zwaard_voor_99_bij_wapensmid -->
<g id="node3" class="node">
<title>koop_zwaard_voor_99_bij_wapensmid</title>
<path fill="#008800" stroke="#008800" d="M335.0105,-948.5C335.0105,-948.5 545.1207,-948.5 545.1207,-948.5 551.1207,-948.5 557.1207,-954.5 557.1207,-960.5 557.1207,-960.5 557.1207,-972.5 557.1207,-972.5 557.1207,-978.5 551.1207,-984.5 545.1207,-984.5 545.1207,-984.5 335.0105,-984.5 335.0105,-984.5 329.0105,-984.5 323.0105,-978.5 323.0105,-972.5 323.0105,-972.5 323.0105,-960.5 323.0105,-960.5 323.0105,-954.5 329.0105,-948.5 335.0105,-948.5"/>
<text text-anchor="middle" x="440.0656" y="-962.3" font-family="lato, roboto, helvetica" font-size="14.00" fill="#eeeeee">Koop Zwaard Voor 99 Bij Wapensmid</text>
</g>
<!-- koop_zwaard_voor_99_bij_wapensmid&#45;&gt;beklim_toren -->
<g id="edge1" class="edge">
<title>koop_zwaard_voor_99_bij_wapensmid&#45;&gt;beklim_toren</title>
<path fill="none" stroke="#999999" d="M414.8521,-948.4551C401.3664,-938.8035 384.6162,-926.8156 370.2048,-916.5016"/>
<polygon fill="#999999" stroke="#999999" points="371.4777,-913.9694 363.3425,-911.5904 368.2185,-918.5233 371.4777,-913.9694"/>
</g>
<!-- snij_touw_van_lift -->
<g id="node65" class="node">
<title>snij_touw_van_lift</title>
<path fill="#008800" stroke="#008800" d="M308.0463,-510.5C308.0463,-510.5 410.0849,-510.5 410.0849,-510.5 416.0849,-510.5 422.0849,-516.5 422.0849,-522.5 422.0849,-522.5 422.0849,-534.5 422.0849,-534.5 422.0849,-540.5 416.0849,-546.5 410.0849,-546.5 410.0849,-546.5 308.0463,-546.5 308.0463,-546.5 302.0463,-546.5 296.0463,-540.5 296.0463,-534.5 296.0463,-534.5 296.0463,-522.5 296.0463,-522.5 296.0463,-516.5 302.0463,-510.5 308.0463,-510.5"/>
<text text-anchor="middle" x="359.0656" y="-524.3" font-family="lato, roboto, helvetica" font-size="14.00" fill="#eeeeee">Snij Touw Van Lift</text>
</g>
<!-- koop_zwaard_voor_99_bij_wapensmid&#45;&gt;snij_touw_van_lift -->
<g id="edge78" class="edge">
<title>koop_zwaard_voor_99_bij_wapensmid&#45;&gt;snij_touw_van_lift</title>
<path fill="none" stroke="#999999" d="M444.4168,-948.1836C450.5678,-920.643 461.0656,-866.8506 461.0656,-820.5 461.0656,-820.5 461.0656,-820.5 461.0656,-747.5 461.0656,-670.7797 408.9902,-591.8873 379.2575,-553.0958"/>
<polygon fill="#999999" stroke="#999999" points="381.4599,-551.3667 374.336,-546.7742 377.0411,-554.8069 381.4599,-551.3667"/>
</g>
<!-- genoeg_info_over_monster -->
<g id="node4" class="node">
<title>genoeg_info_over_monster</title>
<path fill="#008800" stroke="#008800" d="M149.0687,-948.5C149.0687,-948.5 293.0625,-948.5 293.0625,-948.5 299.0625,-948.5 305.0625,-954.5 305.0625,-960.5 305.0625,-960.5 305.0625,-972.5 305.0625,-972.5 305.0625,-978.5 299.0625,-984.5 293.0625,-984.5 293.0625,-984.5 149.0687,-984.5 149.0687,-984.5 143.0687,-984.5 137.0687,-978.5 137.0687,-972.5 137.0687,-972.5 137.0687,-960.5 137.0687,-960.5 137.0687,-954.5 143.0687,-948.5 149.0687,-948.5"/>
<text text-anchor="middle" x="221.0656" y="-962.3" font-family="lato, roboto, helvetica" font-size="14.00" fill="#eeeeee">Genoeg Info Over Monster</text>
</g>
<!-- genoeg_info_over_monster&#45;&gt;beklim_toren -->
<g id="edge2" class="edge">
<title>genoeg_info_over_monster&#45;&gt;beklim_toren</title>
<path fill="none" stroke="#999999" d="M249.987,-948.4551C265.7372,-938.628 285.3692,-926.3789 302.099,-915.9407"/>
<polygon fill="#999999" stroke="#999999" points="303.7664,-918.2007 309.0715,-911.5904 300.802,-913.4496 303.7664,-918.2007"/>
</g>
<!-- _0 -->
<g id="node7" class="node">
<title>_0</title>
<polygon fill="#888888" stroke="#888888" points="1263.0656,-1641.5 1233.0389,-1623.5 1263.0656,-1605.5 1293.0923,-1623.5 1263.0656,-1641.5"/>
<polyline fill="none" stroke="#888888" points="1243.0478,-1629.5 1243.0478,-1617.5 "/>
<polyline fill="none" stroke="#888888" points="1253.0567,-1611.5 1273.0745,-1611.5 "/>
<polyline fill="none" stroke="#888888" points="1283.0834,-1617.5 1283.0834,-1629.5 "/>
<polyline fill="none" stroke="#888888" points="1273.0745,-1635.5 1253.0567,-1635.5 "/>
<text text-anchor="middle" x="1263.0656" y="-1619.3" font-family="lato, roboto, helvetica" font-size="14.00" fill="#eeeeee">Or</text>
</g>
<!-- betaal_twee_geldstukken&#45;&gt;_0 -->
<g id="edge5" class="edge">
<title>betaal_twee_geldstukken&#45;&gt;_0</title>
<path fill="none" stroke="#999999" stroke-dasharray="5,2" d="M1199.8297,-1678.4551C1213.5242,-1666.5539 1231.3062,-1651.1004 1244.5245,-1639.6131"/>
<polygon fill="#999999" stroke="#999999" points="1246.4072,-1641.6866 1250.6089,-1634.3254 1242.7338,-1637.4597 1246.4072,-1641.6866"/>
</g>
<!-- _1 -->
<g id="node39" class="node">
<title>_1</title>
<polygon fill="#888888" stroke="#888888" points="1238.0656,-984.5 1208.0389,-966.5 1238.0656,-948.5 1268.0923,-966.5 1238.0656,-984.5"/>
<polyline fill="none" stroke="#888888" points="1218.0478,-972.5 1218.0478,-960.5 "/>
<polyline fill="none" stroke="#888888" points="1228.0567,-954.5 1248.0745,-954.5 "/>
<polyline fill="none" stroke="#888888" points="1258.0834,-960.5 1258.0834,-972.5 "/>
<polyline fill="none" stroke="#888888" points="1248.0745,-978.5 1228.0567,-978.5 "/>
<text text-anchor="middle" x="1238.0656" y="-962.3" font-family="lato, roboto, helvetica" font-size="14.00" fill="#eeeeee">Or</text>
</g>
<!-- betaal_twee_geldstukken&#45;&gt;_1 -->
<g id="edge30" class="edge">
<title>betaal_twee_geldstukken&#45;&gt;_1</title>
<path fill="none" stroke="#999999" stroke-dasharray="5,2" d="M1184.4528,-1678.2479C1192.0684,-1650.7893 1205.0656,-1597.1003 1205.0656,-1550.5 1205.0656,-1550.5 1205.0656,-1550.5 1205.0656,-1112.5 1205.0656,-1067.7979 1219.9657,-1017.2494 1229.7416,-988.8953"/>
<polygon fill="#999999" stroke="#999999" points="1232.4444,-989.6502 1232.4676,-981.1743 1227.1639,-987.7858 1232.4444,-989.6502"/>
</g>
<!-- betaal_twee_goudstukken_aan_hoefsmid -->
<g id="node6" class="node">
<title>betaal_twee_goudstukken_aan_hoefsmid</title>
<path fill="#008800" stroke="#008800" d="M939.048,-1532.5C939.048,-1532.5 1165.0832,-1532.5 1165.0832,-1532.5 1171.0832,-1532.5 1177.0832,-1538.5 1177.0832,-1544.5 1177.0832,-1544.5 1177.0832,-1556.5 1177.0832,-1556.5 1177.0832,-1562.5 1171.0832,-1568.5 1165.0832,-1568.5 1165.0832,-1568.5 939.048,-1568.5 939.048,-1568.5 933.048,-1568.5 927.048,-1562.5 927.048,-1556.5 927.048,-1556.5 927.048,-1544.5 927.048,-1544.5 927.048,-1538.5 933.048,-1532.5 939.048,-1532.5"/>
<text text-anchor="middle" x="1052.0656" y="-1546.3" font-family="lato, roboto, helvetica" font-size="14.00" fill="#eeeeee">Betaal Twee Goudstukken Aan Hoefsmid</text>
</g>
<!-- geef_paard_nieuwe_hoefijzers -->
<g id="node27" class="node">
<title>geef_paard_nieuwe_hoefijzers</title>
<path fill="#008800" stroke="#008800" d="M636.366,-1459.5C636.366,-1459.5 799.7652,-1459.5 799.7652,-1459.5 805.7652,-1459.5 811.7652,-1465.5 811.7652,-1471.5 811.7652,-1471.5 811.7652,-1483.5 811.7652,-1483.5 811.7652,-1489.5 805.7652,-1495.5 799.7652,-1495.5 799.7652,-1495.5 636.366,-1495.5 636.366,-1495.5 630.366,-1495.5 624.366,-1489.5 624.366,-1483.5 624.366,-1483.5 624.366,-1471.5 624.366,-1471.5 624.366,-1465.5 630.366,-1459.5 636.366,-1459.5"/>
<text text-anchor="middle" x="718.0656" y="-1473.3" font-family="lato, roboto, helvetica" font-size="14.00" fill="#eeeeee">Geef Paard Nieuwe Hoefijzers</text>
</g>
<!-- betaal_twee_goudstukken_aan_hoefsmid&#45;&gt;geef_paard_nieuwe_hoefijzers -->
<g id="edge18" class="edge">
<title>betaal_twee_goudstukken_aan_hoefsmid&#45;&gt;geef_paard_nieuwe_hoefijzers</title>
<path fill="none" stroke="#999999" d="M969.5038,-1532.4551C920.6362,-1521.7744 858.6784,-1508.2327 808.4946,-1497.2644"/>
<polygon fill="#999999" stroke="#999999" points="808.9588,-1494.4998 800.5454,-1495.527 807.763,-1499.9707 808.9588,-1494.4998"/>
</g>
<!-- _0&#45;&gt;betaal_twee_goudstukken_aan_hoefsmid -->
<g id="edge4" class="edge">
<title>_0&#45;&gt;betaal_twee_goudstukken_aan_hoefsmid</title>
<path fill="none" stroke="#999999" d="M1243.9686,-1616.893C1214.4324,-1606.6743 1156.4311,-1586.6075 1111.8903,-1571.1976"/>
<polygon fill="#999999" stroke="#999999" points="1112.7792,-1568.5424 1104.3034,-1568.5728 1110.9482,-1573.8346 1112.7792,-1568.5424"/>
</g>
<!-- krijg_geldstuk_van_smid -->
<g id="node8" class="node">
<title>krijg_geldstuk_van_smid</title>
<path fill="#008800" stroke="#008800" d="M1110.3254,-583.5C1110.3254,-583.5 1245.8058,-583.5 1245.8058,-583.5 1251.8058,-583.5 1257.8058,-589.5 1257.8058,-595.5 1257.8058,-595.5 1257.8058,-607.5 1257.8058,-607.5 1257.8058,-613.5 1251.8058,-619.5 1245.8058,-619.5 1245.8058,-619.5 1110.3254,-619.5 1110.3254,-619.5 1104.3254,-619.5 1098.3254,-613.5 1098.3254,-607.5 1098.3254,-607.5 1098.3254,-595.5 1098.3254,-595.5 1098.3254,-589.5 1104.3254,-583.5 1110.3254,-583.5"/>
<text text-anchor="middle" x="1178.0656" y="-597.3" font-family="lato, roboto, helvetica" font-size="14.00" fill="#eeeeee">Krijg Geldstuk Van Smid</text>
</g>
<!-- krijg_geldstuk_van_smid&#45;&gt;_0 -->
<g id="edge6" class="edge">
<title>krijg_geldstuk_van_smid&#45;&gt;_0</title>
<path fill="none" stroke="#999999" stroke-dasharray="5,2" d="M1198.9497,-619.7938C1223.3471,-642.6003 1262.5942,-684.0885 1280.0656,-729 1318.4216,-827.5969 1296.0656,-860.7052 1296.0656,-966.5 1296.0656,-1477.5 1296.0656,-1477.5 1296.0656,-1477.5 1296.0656,-1522.2021 1281.1655,-1572.7506 1271.3896,-1601.1047"/>
<polygon fill="#999999" stroke="#999999" points="1268.6868,-1600.3498 1268.6636,-1608.8257 1273.9673,-1602.2142 1268.6868,-1600.3498"/>
</g>
<!-- bezorg_graan_bij_molenaar -->
<g id="node9" class="node">
<title>bezorg_graan_bij_molenaar</title>
<path fill="#008800" stroke="#008800" d="M500.1255,-1240.5C500.1255,-1240.5 648.0057,-1240.5 648.0057,-1240.5 654.0057,-1240.5 660.0057,-1246.5 660.0057,-1252.5 660.0057,-1252.5 660.0057,-1264.5 660.0057,-1264.5 660.0057,-1270.5 654.0057,-1276.5 648.0057,-1276.5 648.0057,-1276.5 500.1255,-1276.5 500.1255,-1276.5 494.1255,-1276.5 488.1255,-1270.5 488.1255,-1264.5 488.1255,-1264.5 488.1255,-1252.5 488.1255,-1252.5 488.1255,-1246.5 494.1255,-1240.5 500.1255,-1240.5"/>
<text text-anchor="middle" x="574.0656" y="-1254.3" font-family="lato, roboto, helvetica" font-size="14.00" fill="#eeeeee">Bezorg Graan Bij Molenaar</text>
</g>
<!-- krijg_meel_bij_molenaar -->
<g id="node12" class="node">
<title>krijg_meel_bij_molenaar</title>
<path fill="#008800" stroke="#008800" d="M450.2805,-1167.5C450.2805,-1167.5 581.8507,-1167.5 581.8507,-1167.5 587.8507,-1167.5 593.8507,-1173.5 593.8507,-1179.5 593.8507,-1179.5 593.8507,-1191.5 593.8507,-1191.5 593.8507,-1197.5 587.8507,-1203.5 581.8507,-1203.5 581.8507,-1203.5 450.2805,-1203.5 450.2805,-1203.5 444.2805,-1203.5 438.2805,-1197.5 438.2805,-1191.5 438.2805,-1191.5 438.2805,-1179.5 438.2805,-1179.5 438.2805,-1173.5 444.2805,-1167.5 450.2805,-1167.5"/>
<text text-anchor="middle" x="516.0656" y="-1181.3" font-family="lato, roboto, helvetica" font-size="14.00" fill="#eeeeee">Krijg Meel Bij Molenaar</text>
</g>
<!-- bezorg_graan_bij_molenaar&#45;&gt;krijg_meel_bij_molenaar -->
<g id="edge41" class="edge">
<title>bezorg_graan_bij_molenaar&#45;&gt;krijg_meel_bij_molenaar</title>
<path fill="none" stroke="#999999" d="M559.7285,-1240.4551C552.4087,-1231.2422 543.3976,-1219.9006 535.4662,-1209.918"/>
<polygon fill="#999999" stroke="#999999" points="537.6077,-1208.1122 530.4388,-1203.5904 533.2231,-1211.5959 537.6077,-1208.1122"/>
</g>
<!-- zet_graan_op_wagen -->
<g id="node10" class="node">
<title>zet_graan_op_wagen</title>
<path fill="#008800" stroke="#008800" d="M522.0133,-1313.5C522.0133,-1313.5 634.1179,-1313.5 634.1179,-1313.5 640.1179,-1313.5 646.1179,-1319.5 646.1179,-1325.5 646.1179,-1325.5 646.1179,-1337.5 646.1179,-1337.5 646.1179,-1343.5 640.1179,-1349.5 634.1179,-1349.5 634.1179,-1349.5 522.0133,-1349.5 522.0133,-1349.5 516.0133,-1349.5 510.0133,-1343.5 510.0133,-1337.5 510.0133,-1337.5 510.0133,-1325.5 510.0133,-1325.5 510.0133,-1319.5 516.0133,-1313.5 522.0133,-1313.5"/>
<text text-anchor="middle" x="578.0656" y="-1327.3" font-family="lato, roboto, helvetica" font-size="14.00" fill="#eeeeee">Zet Graan Op Wagen</text>
</g>
<!-- zet_graan_op_wagen&#45;&gt;bezorg_graan_bij_molenaar -->
<g id="edge7" class="edge">
<title>zet_graan_op_wagen&#45;&gt;bezorg_graan_bij_molenaar</title>
<path fill="none" stroke="#999999" d="M577.0768,-1313.4551C576.6009,-1304.7686 576.0212,-1294.1898 575.498,-1284.642"/>
<polygon fill="#999999" stroke="#999999" points="578.2905,-1284.4251 575.0569,-1276.5904 572.6988,-1284.7316 578.2905,-1284.4251"/>
</g>
<!-- bezorg_meel_bij_bakker -->
<g id="node11" class="node">
<title>bezorg_meel_bij_bakker</title>
<path fill="#008800" stroke="#008800" d="M451.4481,-1094.5C451.4481,-1094.5 580.6831,-1094.5 580.6831,-1094.5 586.6831,-1094.5 592.6831,-1100.5 592.6831,-1106.5 592.6831,-1106.5 592.6831,-1118.5 592.6831,-1118.5 592.6831,-1124.5 586.6831,-1130.5 580.6831,-1130.5 580.6831,-1130.5 451.4481,-1130.5 451.4481,-1130.5 445.4481,-1130.5 439.4481,-1124.5 439.4481,-1118.5 439.4481,-1118.5 439.4481,-1106.5 439.4481,-1106.5 439.4481,-1100.5 445.4481,-1094.5 451.4481,-1094.5"/>
<text text-anchor="middle" x="516.0656" y="-1108.3" font-family="lato, roboto, helvetica" font-size="14.00" fill="#eeeeee">Bezorg Meel Bij Bakker</text>
</g>
<!-- krijg_100_geld_van_meel -->
<g id="node40" class="node">
<title>krijg_100_geld_van_meel</title>
<path fill="#008800" stroke="#008800" d="M527.1427,-1021.5C527.1427,-1021.5 662.9885,-1021.5 662.9885,-1021.5 668.9885,-1021.5 674.9885,-1027.5 674.9885,-1033.5 674.9885,-1033.5 674.9885,-1045.5 674.9885,-1045.5 674.9885,-1051.5 668.9885,-1057.5 662.9885,-1057.5 662.9885,-1057.5 527.1427,-1057.5 527.1427,-1057.5 521.1427,-1057.5 515.1427,-1051.5 515.1427,-1045.5 515.1427,-1045.5 515.1427,-1033.5 515.1427,-1033.5 515.1427,-1027.5 521.1427,-1021.5 527.1427,-1021.5"/>
<text text-anchor="middle" x="595.0656" y="-1035.3" font-family="lato, roboto, helvetica" font-size="14.00" fill="#eeeeee">Krijg 100 Geld Van Meel</text>
</g>
<!-- bezorg_meel_bij_bakker&#45;&gt;krijg_100_geld_van_meel -->
<g id="edge34" class="edge">
<title>bezorg_meel_bij_bakker&#45;&gt;krijg_100_geld_van_meel</title>
<path fill="none" stroke="#999999" d="M535.5937,-1094.4551C545.8486,-1084.979 558.5408,-1073.2508 569.5629,-1063.0658"/>
<polygon fill="#999999" stroke="#999999" points="571.513,-1065.0762 575.4884,-1057.5904 567.7125,-1060.9633 571.513,-1065.0762"/>
</g>
<!-- zet_molensteen_op_wagen -->
<g id="node54" class="node">
<title>zet_molensteen_op_wagen</title>
<path fill="#008800" stroke="#008800" d="M69.4544,-802.5C69.4544,-802.5 212.6768,-802.5 212.6768,-802.5 218.6768,-802.5 224.6768,-808.5 224.6768,-814.5 224.6768,-814.5 224.6768,-826.5 224.6768,-826.5 224.6768,-832.5 218.6768,-838.5 212.6768,-838.5 212.6768,-838.5 69.4544,-838.5 69.4544,-838.5 63.4544,-838.5 57.4544,-832.5 57.4544,-826.5 57.4544,-826.5 57.4544,-814.5 57.4544,-814.5 57.4544,-808.5 63.4544,-802.5 69.4544,-802.5"/>
<text text-anchor="middle" x="141.0656" y="-816.3" font-family="lato, roboto, helvetica" font-size="14.00" fill="#eeeeee">Zet Molensteen Op Wagen</text>
</g>
<!-- bezorg_meel_bij_bakker&#45;&gt;zet_molensteen_op_wagen -->
<g id="edge93" class="edge">
<title>bezorg_meel_bij_bakker&#45;&gt;zet_molensteen_op_wagen</title>
<path fill="none" stroke="#999999" d="M439.4007,-1098.2648C337.2276,-1077.5551 164.9689,-1035.9714 128.0656,-985 98.3114,-943.903 115.9482,-880.9376 129.6447,-846.0312"/>
<polygon fill="#999999" stroke="#999999" points="132.241,-847.0797 132.6626,-838.6143 127.0539,-844.9691 132.241,-847.0797"/>
</g>
<!-- krijg_meel_bij_molenaar&#45;&gt;bezorg_meel_bij_bakker -->
<g id="edge8" class="edge">
<title>krijg_meel_bij_molenaar&#45;&gt;bezorg_meel_bij_bakker</title>
<path fill="none" stroke="#999999" d="M516.0656,-1167.4551C516.0656,-1158.7686 516.0656,-1148.1898 516.0656,-1138.642"/>
<polygon fill="#999999" stroke="#999999" points="518.8657,-1138.5903 516.0656,-1130.5904 513.2657,-1138.5904 518.8657,-1138.5903"/>
</g>
<!-- breng_dochter_naar_bakker -->
<g id="node13" class="node">
<title>breng_dochter_naar_bakker</title>
<path fill="#008800" stroke="#008800" d="M284.3548,-364.5C284.3548,-364.5 433.7764,-364.5 433.7764,-364.5 439.7764,-364.5 445.7764,-370.5 445.7764,-376.5 445.7764,-376.5 445.7764,-388.5 445.7764,-388.5 445.7764,-394.5 439.7764,-400.5 433.7764,-400.5 433.7764,-400.5 284.3548,-400.5 284.3548,-400.5 278.3548,-400.5 272.3548,-394.5 272.3548,-388.5 272.3548,-388.5 272.3548,-376.5 272.3548,-376.5 272.3548,-370.5 278.3548,-364.5 284.3548,-364.5"/>
<text text-anchor="middle" x="359.0656" y="-378.3" font-family="lato, roboto, helvetica" font-size="14.00" fill="#eeeeee">Breng Dochter Naar Bakker</text>
</g>
<!-- krijg_appel_taart_van_bakker -->
<g id="node41" class="node">
<title>krijg_appel_taart_van_bakker</title>
<path fill="#3333aa" stroke="#3333aa" d="M277.5452,-291.5C277.5452,-291.5 440.586,-291.5 440.586,-291.5 446.586,-291.5 452.586,-297.5 452.586,-303.5 452.586,-303.5 452.586,-315.5 452.586,-315.5 452.586,-321.5 446.586,-327.5 440.586,-327.5 440.586,-327.5 277.5452,-327.5 277.5452,-327.5 271.5452,-327.5 265.5452,-321.5 265.5452,-315.5 265.5452,-315.5 265.5452,-303.5 265.5452,-303.5 265.5452,-297.5 271.5452,-291.5 277.5452,-291.5"/>
<text text-anchor="middle" x="359.0656" y="-305.3" font-family="lato, roboto, helvetica" font-size="14.00" fill="#eeeeee">Krijg Appel Taart Van Bakker</text>
</g>
<!-- breng_dochter_naar_bakker&#45;&gt;krijg_appel_taart_van_bakker -->
<g id="edge35" class="edge">
<title>breng_dochter_naar_bakker&#45;&gt;krijg_appel_taart_van_bakker</title>
<path fill="none" stroke="#999999" d="M359.0656,-364.4551C359.0656,-355.7686 359.0656,-345.1898 359.0656,-335.642"/>
<polygon fill="#999999" stroke="#999999" points="361.8657,-335.5903 359.0656,-327.5904 356.2657,-335.5904 361.8657,-335.5903"/>
</g>
<!-- trek_tand_van_draak -->
<g id="node14" class="node">
<title>trek_tand_van_draak</title>
<path fill="#008800" stroke="#008800" d="M301.4593,-437.5C301.4593,-437.5 416.6719,-437.5 416.6719,-437.5 422.6719,-437.5 428.6719,-443.5 428.6719,-449.5 428.6719,-449.5 428.6719,-461.5 428.6719,-461.5 428.6719,-467.5 422.6719,-473.5 416.6719,-473.5 416.6719,-473.5 301.4593,-473.5 301.4593,-473.5 295.4593,-473.5 289.4593,-467.5 289.4593,-461.5 289.4593,-461.5 289.4593,-449.5 289.4593,-449.5 289.4593,-443.5 295.4593,-437.5 301.4593,-437.5"/>
<text text-anchor="middle" x="359.0656" y="-451.3" font-family="lato, roboto, helvetica" font-size="14.00" fill="#eeeeee">Trek Tand Van Draak</text>
</g>
<!-- trek_tand_van_draak&#45;&gt;breng_dochter_naar_bakker -->
<g id="edge9" class="edge">
<title>trek_tand_van_draak&#45;&gt;breng_dochter_naar_bakker</title>
<path fill="none" stroke="#999999" d="M359.0656,-437.4551C359.0656,-428.7686 359.0656,-418.1898 359.0656,-408.642"/>
<polygon fill="#999999" stroke="#999999" points="361.8657,-408.5903 359.0656,-400.5904 356.2657,-408.5904 361.8657,-408.5903"/>
</g>
<!-- zet_zadel_op_draak -->
<g id="node16" class="node">
<title>zet_zadel_op_draak</title>
<path fill="#3333aa" stroke="#3333aa" d="M387.899,-72.5C387.899,-72.5 492.2322,-72.5 492.2322,-72.5 498.2322,-72.5 504.2322,-78.5 504.2322,-84.5 504.2322,-84.5 504.2322,-96.5 504.2322,-96.5 504.2322,-102.5 498.2322,-108.5 492.2322,-108.5 492.2322,-108.5 387.899,-108.5 387.899,-108.5 381.899,-108.5 375.899,-102.5 375.899,-96.5 375.899,-96.5 375.899,-84.5 375.899,-84.5 375.899,-78.5 381.899,-72.5 387.899,-72.5"/>
<text text-anchor="middle" x="440.0656" y="-86.3" font-family="lato, roboto, helvetica" font-size="14.00" fill="#eeeeee">Zet Zadel Op Draak</text>
</g>
<!-- trek_tand_van_draak&#45;&gt;zet_zadel_op_draak -->
<g id="edge94" class="edge">
<title>trek_tand_van_draak&#45;&gt;zet_zadel_op_draak</title>
<path fill="none" stroke="#999999" d="M310.7424,-437.2555C293.5268,-428.6105 275.375,-416.6766 263.0656,-401 236.9566,-367.749 237.0656,-351.7766 237.0656,-309.5 237.0656,-309.5 237.0656,-309.5 237.0656,-236.5 237.0656,-170.0262 309.6943,-130.8389 368.0668,-110.0783"/>
<polygon fill="#999999" stroke="#999999" points="369.1891,-112.6529 375.8351,-107.3926 367.3593,-107.3603 369.1891,-112.6529"/>
</g>
<!-- pak_tand_van_draak -->
<g id="node51" class="node">
<title>pak_tand_van_draak</title>
<path fill="#3333aa" stroke="#3333aa" d="M630.1746,-364.5C630.1746,-364.5 739.9566,-364.5 739.9566,-364.5 745.9566,-364.5 751.9566,-370.5 751.9566,-376.5 751.9566,-376.5 751.9566,-388.5 751.9566,-388.5 751.9566,-394.5 745.9566,-400.5 739.9566,-400.5 739.9566,-400.5 630.1746,-400.5 630.1746,-400.5 624.1746,-400.5 618.1746,-394.5 618.1746,-388.5 618.1746,-388.5 618.1746,-376.5 618.1746,-376.5 618.1746,-370.5 624.1746,-364.5 630.1746,-364.5"/>
<text text-anchor="middle" x="685.0656" y="-378.3" font-family="lato, roboto, helvetica" font-size="14.00" fill="#eeeeee">Pak Tand Van Draak</text>
</g>
<!-- trek_tand_van_draak&#45;&gt;pak_tand_van_draak -->
<g id="edge58" class="edge">
<title>trek_tand_van_draak&#45;&gt;pak_tand_van_draak</title>
<path fill="none" stroke="#999999" d="M429.0008,-439.8397C482.3182,-427.9005 555.6143,-411.4876 610.1298,-399.2801"/>
<polygon fill="#999999" stroke="#999999" points="610.8374,-401.9911 618.0322,-397.5105 609.6137,-396.5264 610.8374,-401.9911"/>
</g>
<!-- breng_medicijnen_naar_koning -->
<g id="node15" class="node">
<title>breng_medicijnen_naar_koning</title>
<polygon fill="#333333" stroke="#333333" points="506.0656,-36 317.2245,-18 506.0656,0 694.9067,-18 506.0656,-36"/>
<polyline fill="none" stroke="#333333" points="329.1703,-19.1387 329.1703,-16.8613 "/>
<polyline fill="none" stroke="#333333" points="494.1197,-1.1387 518.0115,-1.1387 "/>
<polyline fill="none" stroke="#333333" points="682.9609,-16.8613 682.9609,-19.1387 "/>
<polyline fill="none" stroke="#333333" points="518.0115,-34.8613 494.1197,-34.8613 "/>
<text text-anchor="middle" x="506.0656" y="-13.8" font-family="lato, roboto, helvetica" font-size="14.00" fill="#dddddd">Breng Medicijnen Naar Koning</text>
</g>
<!-- zet_zadel_op_draak&#45;&gt;breng_medicijnen_naar_koning -->
<g id="edge10" class="edge">
<title>zet_zadel_op_draak&#45;&gt;breng_medicijnen_naar_koning</title>
<path fill="none" stroke="#999999" d="M456.7202,-72.2052C465.3219,-62.7563 475.9058,-51.13 485.063,-41.071"/>
<polygon fill="#999999" stroke="#999999" points="487.2349,-42.8446 490.5498,-35.0438 483.0938,-39.0748 487.2349,-42.8446"/>
</g>
<!-- maak_medicijn -->
<g id="node17" class="node">
<title>maak_medicijn</title>
<path fill="#3333aa" stroke="#3333aa" d="M592.1059,-72.5C592.1059,-72.5 670.0253,-72.5 670.0253,-72.5 676.0253,-72.5 682.0253,-78.5 682.0253,-84.5 682.0253,-84.5 682.0253,-96.5 682.0253,-96.5 682.0253,-102.5 676.0253,-108.5 670.0253,-108.5 670.0253,-108.5 592.1059,-108.5 592.1059,-108.5 586.1059,-108.5 580.1059,-102.5 580.1059,-96.5 580.1059,-96.5 580.1059,-84.5 580.1059,-84.5 580.1059,-78.5 586.1059,-72.5 592.1059,-72.5"/>
<text text-anchor="middle" x="631.0656" y="-86.3" font-family="lato, roboto, helvetica" font-size="14.00" fill="#eeeeee">Maak Medicijn</text>
</g>
<!-- maak_medicijn&#45;&gt;breng_medicijnen_naar_koning -->
<g id="edge11" class="edge">
<title>maak_medicijn&#45;&gt;breng_medicijnen_naar_koning</title>
<path fill="none" stroke="#999999" d="M599.8453,-72.3922C581.7151,-61.8767 558.8535,-48.617 540.2418,-37.8222"/>
<polygon fill="#999999" stroke="#999999" points="541.4008,-35.2576 533.0757,-33.6659 538.5911,-40.1017 541.4008,-35.2576"/>
</g>
<!-- breng_paard_naar_hoefsmid -->
<g id="node18" class="node">
<title>breng_paard_naar_hoefsmid</title>
<path fill="#008800" stroke="#008800" d="M630.5715,-1532.5C630.5715,-1532.5 781.5597,-1532.5 781.5597,-1532.5 787.5597,-1532.5 793.5597,-1538.5 793.5597,-1544.5 793.5597,-1544.5 793.5597,-1556.5 793.5597,-1556.5 793.5597,-1562.5 787.5597,-1568.5 781.5597,-1568.5 781.5597,-1568.5 630.5715,-1568.5 630.5715,-1568.5 624.5715,-1568.5 618.5715,-1562.5 618.5715,-1556.5 618.5715,-1556.5 618.5715,-1544.5 618.5715,-1544.5 618.5715,-1538.5 624.5715,-1532.5 630.5715,-1532.5"/>
<text text-anchor="middle" x="706.0656" y="-1546.3" font-family="lato, roboto, helvetica" font-size="14.00" fill="#eeeeee">Breng Paard Naar Hoefsmid</text>
</g>
<!-- breng_paard_naar_hoefsmid&#45;&gt;geef_paard_nieuwe_hoefijzers -->
<g id="edge17" class="edge">
<title>breng_paard_naar_hoefsmid&#45;&gt;geef_paard_nieuwe_hoefijzers</title>
<path fill="none" stroke="#999999" d="M709.0319,-1532.4551C710.4598,-1523.7686 712.1988,-1513.1898 713.7683,-1503.642"/>
<polygon fill="#999999" stroke="#999999" points="716.557,-1503.9386 715.0918,-1495.5904 711.0312,-1503.0302 716.557,-1503.9386"/>
</g>
<!-- vind_paard_bij_rivier -->
<g id="node19" class="node">
<title>vind_paard_bij_rivier</title>
<path fill="#008800" stroke="#008800" d="M636.8254,-1605.5C636.8254,-1605.5 751.3058,-1605.5 751.3058,-1605.5 757.3058,-1605.5 763.3058,-1611.5 763.3058,-1617.5 763.3058,-1617.5 763.3058,-1629.5 763.3058,-1629.5 763.3058,-1635.5 757.3058,-1641.5 751.3058,-1641.5 751.3058,-1641.5 636.8254,-1641.5 636.8254,-1641.5 630.8254,-1641.5 624.8254,-1635.5 624.8254,-1629.5 624.8254,-1629.5 624.8254,-1617.5 624.8254,-1617.5 624.8254,-1611.5 630.8254,-1605.5 636.8254,-1605.5"/>
<text text-anchor="middle" x="694.0656" y="-1619.3" font-family="lato, roboto, helvetica" font-size="14.00" fill="#eeeeee">Vind Paard Bij Rivier</text>
</g>
<!-- vind_paard_bij_rivier&#45;&gt;breng_paard_naar_hoefsmid -->
<g id="edge12" class="edge">
<title>vind_paard_bij_rivier&#45;&gt;breng_paard_naar_hoefsmid</title>
<path fill="none" stroke="#999999" d="M697.0319,-1605.4551C698.4598,-1596.7686 700.1988,-1586.1898 701.7683,-1576.642"/>
<polygon fill="#999999" stroke="#999999" points="704.557,-1576.9386 703.0918,-1568.5904 699.0312,-1576.0302 704.557,-1576.9386"/>
</g>
<!-- ga_naar_hut_in_moeras -->
<g id="node20" class="node">
<title>ga_naar_hut_in_moeras</title>
<path fill="#008800" stroke="#008800" d="M574.9884,-875.5C574.9884,-875.5 699.1428,-875.5 699.1428,-875.5 705.1428,-875.5 711.1428,-881.5 711.1428,-887.5 711.1428,-887.5 711.1428,-899.5 711.1428,-899.5 711.1428,-905.5 705.1428,-911.5 699.1428,-911.5 699.1428,-911.5 574.9884,-911.5 574.9884,-911.5 568.9884,-911.5 562.9884,-905.5 562.9884,-899.5 562.9884,-899.5 562.9884,-887.5 562.9884,-887.5 562.9884,-881.5 568.9884,-875.5 574.9884,-875.5"/>
<text text-anchor="middle" x="637.0656" y="-889.3" font-family="lato, roboto, helvetica" font-size="14.00" fill="#eeeeee">Ga Naar Hut In Moeras</text>
</g>
<!-- praat_met_heks -->
<g id="node29" class="node">
<title>praat_met_heks</title>
<path fill="#008800" stroke="#008800" d="M750.5263,-729.5C750.5263,-729.5 829.6049,-729.5 829.6049,-729.5 835.6049,-729.5 841.6049,-735.5 841.6049,-741.5 841.6049,-741.5 841.6049,-753.5 841.6049,-753.5 841.6049,-759.5 835.6049,-765.5 829.6049,-765.5 829.6049,-765.5 750.5263,-765.5 750.5263,-765.5 744.5263,-765.5 738.5263,-759.5 738.5263,-753.5 738.5263,-753.5 738.5263,-741.5 738.5263,-741.5 738.5263,-735.5 744.5263,-729.5 750.5263,-729.5"/>
<text text-anchor="middle" x="790.0656" y="-743.3" font-family="lato, roboto, helvetica" font-size="14.00" fill="#eeeeee">Praat Met Heks</text>
</g>
<!-- ga_naar_hut_in_moeras&#45;&gt;praat_met_heks -->
<g id="edge70" class="edge">
<title>ga_naar_hut_in_moeras&#45;&gt;praat_met_heks</title>
<path fill="none" stroke="#999999" d="M656.1338,-875.3042C683.6202,-849.0753 734.4175,-800.6021 764.9366,-771.4793"/>
<polygon fill="#999999" stroke="#999999" points="766.9024,-773.4738 770.7571,-765.9251 763.0363,-769.4223 766.9024,-773.4738"/>
</g>
<!-- praat_met_bakker&#45;&gt;koop_zwaard_voor_99_bij_wapensmid -->
<g id="edge33" class="edge">
<title>praat_met_bakker&#45;&gt;koop_zwaard_voor_99_bij_wapensmid</title>
<path fill="none" stroke="#999999" d="M440.0656,-1021.4551C440.0656,-1012.7686 440.0656,-1002.1898 440.0656,-992.642"/>
<polygon fill="#999999" stroke="#999999" points="442.8657,-992.5903 440.0656,-984.5904 437.2657,-992.5904 442.8657,-992.5903"/>
</g>
<!-- praat_met_bakker&#45;&gt;genoeg_info_over_monster -->
<g id="edge21" class="edge">
<title>praat_met_bakker&#45;&gt;genoeg_info_over_monster</title>
<path fill="none" stroke="#999999" d="M385.9308,-1021.4551C354.7387,-1011.0577 315.4127,-997.949 282.9929,-987.1424"/>
<polygon fill="#999999" stroke="#999999" points="283.8116,-984.4639 275.3367,-984.5904 282.0407,-989.7766 283.8116,-984.4639"/>
</g>
<!-- praat_met_bakker&#45;&gt;ga_naar_hut_in_moeras -->
<g id="edge13" class="edge">
<title>praat_met_bakker&#45;&gt;ga_naar_hut_in_moeras</title>
<path fill="none" stroke="#999999" d="M497.6318,-1021.6082C520.3574,-1012.8246 545.8183,-1000.6999 566.0656,-985 589.699,-966.6745 609.837,-938.7569 622.5636,-918.5788"/>
<polygon fill="#999999" stroke="#999999" points="625.096,-919.8066 626.9098,-911.5271 620.3287,-916.8684 625.096,-919.8066"/>
</g>
<!-- geef_dwerg_eten -->
<g id="node22" class="node">
<title>geef_dwerg_eten</title>
<path fill="#008800" stroke="#008800" d="M1140.0943,-802.5C1140.0943,-802.5 1230.0369,-802.5 1230.0369,-802.5 1236.0369,-802.5 1242.0369,-808.5 1242.0369,-814.5 1242.0369,-814.5 1242.0369,-826.5 1242.0369,-826.5 1242.0369,-832.5 1236.0369,-838.5 1230.0369,-838.5 1230.0369,-838.5 1140.0943,-838.5 1140.0943,-838.5 1134.0943,-838.5 1128.0943,-832.5 1128.0943,-826.5 1128.0943,-826.5 1128.0943,-814.5 1128.0943,-814.5 1128.0943,-808.5 1134.0943,-802.5 1140.0943,-802.5"/>
<text text-anchor="middle" x="1185.0656" y="-816.3" font-family="lato, roboto, helvetica" font-size="14.00" fill="#eeeeee">Geef Dwerg Eten</text>
</g>
<!-- krijg_edelsteen_van_dwerg -->
<g id="node42" class="node">
<title>krijg_edelsteen_van_dwerg</title>
<path fill="#008800" stroke="#008800" d="M1111.1255,-729.5C1111.1255,-729.5 1259.0057,-729.5 1259.0057,-729.5 1265.0057,-729.5 1271.0057,-735.5 1271.0057,-741.5 1271.0057,-741.5 1271.0057,-753.5 1271.0057,-753.5 1271.0057,-759.5 1265.0057,-765.5 1259.0057,-765.5 1259.0057,-765.5 1111.1255,-765.5 1111.1255,-765.5 1105.1255,-765.5 1099.1255,-759.5 1099.1255,-753.5 1099.1255,-753.5 1099.1255,-741.5 1099.1255,-741.5 1099.1255,-735.5 1105.1255,-729.5 1111.1255,-729.5"/>
<text text-anchor="middle" x="1185.0656" y="-743.3" font-family="lato, roboto, helvetica" font-size="14.00" fill="#eeeeee">Krijg Edelsteen Van Dwerg</text>
</g>
<!-- geef_dwerg_eten&#45;&gt;krijg_edelsteen_van_dwerg -->
<g id="edge36" class="edge">
<title>geef_dwerg_eten&#45;&gt;krijg_edelsteen_van_dwerg</title>
<path fill="none" stroke="#999999" d="M1185.0656,-802.4551C1185.0656,-793.7686 1185.0656,-783.1898 1185.0656,-773.642"/>
<polygon fill="#999999" stroke="#999999" points="1187.8657,-773.5903 1185.0656,-765.5904 1182.2657,-773.5904 1187.8657,-773.5903"/>
</g>
<!-- praat_met_dwerg&#45;&gt;geef_dwerg_eten -->
<g id="edge14" class="edge">
<title>praat_met_dwerg&#45;&gt;geef_dwerg_eten</title>
<path fill="none" stroke="#999999" d="M1334.0656,-1678.062C1334.0656,-1650.3663 1334.0656,-1596.3785 1334.0656,-1550.5 1334.0656,-1550.5 1334.0656,-1550.5 1334.0656,-966.5 1334.0656,-908.6932 1276.1428,-866.2141 1232.5261,-842.4213"/>
<polygon fill="#999999" stroke="#999999" points="1233.7648,-839.9087 1225.3871,-838.622 1231.1338,-844.8523 1233.7648,-839.9087"/>
</g>
<!-- krijg_kapotte_houweel_van_dwerg -->
<g id="node44" class="node">
<title>krijg_kapotte_houweel_van_dwerg</title>
<path fill="#008800" stroke="#008800" d="M1374.1616,-1605.5C1374.1616,-1605.5 1565.9696,-1605.5 1565.9696,-1605.5 1571.9696,-1605.5 1577.9696,-1611.5 1577.9696,-1617.5 1577.9696,-1617.5 1577.9696,-1629.5 1577.9696,-1629.5 1577.9696,-1635.5 1571.9696,-1641.5 1565.9696,-1641.5 1565.9696,-1641.5 1374.1616,-1641.5 1374.1616,-1641.5 1368.1616,-1641.5 1362.1616,-1635.5 1362.1616,-1629.5 1362.1616,-1629.5 1362.1616,-1617.5 1362.1616,-1617.5 1362.1616,-1611.5 1368.1616,-1605.5 1374.1616,-1605.5"/>
<text text-anchor="middle" x="1470.0656" y="-1619.3" font-family="lato, roboto, helvetica" font-size="14.00" fill="#eeeeee">Krijg Kapotte Houweel Van Dwerg</text>
</g>
<!-- praat_met_dwerg&#45;&gt;krijg_kapotte_houweel_van_dwerg -->
<g id="edge40" class="edge">
<title>praat_met_dwerg&#45;&gt;krijg_kapotte_houweel_van_dwerg</title>
<path fill="none" stroke="#999999" d="M1367.6836,-1678.4551C1386.3184,-1668.4525 1409.6281,-1655.9407 1429.2968,-1645.3833"/>
<polygon fill="#999999" stroke="#999999" points="1430.6385,-1647.841 1436.363,-1641.5904 1427.99,-1642.9069 1430.6385,-1647.841"/>
</g>
<!-- koop_eten_bij_bakker -->
<g id="node24" class="node">
<title>koop_eten_bij_bakker</title>
<path fill="#008800" stroke="#008800" d="M1139.6613,-875.5C1139.6613,-875.5 1256.4699,-875.5 1256.4699,-875.5 1262.4699,-875.5 1268.4699,-881.5 1268.4699,-887.5 1268.4699,-887.5 1268.4699,-899.5 1268.4699,-899.5 1268.4699,-905.5 1262.4699,-911.5 1256.4699,-911.5 1256.4699,-911.5 1139.6613,-911.5 1139.6613,-911.5 1133.6613,-911.5 1127.6613,-905.5 1127.6613,-899.5 1127.6613,-899.5 1127.6613,-887.5 1127.6613,-887.5 1127.6613,-881.5 1133.6613,-875.5 1139.6613,-875.5"/>
<text text-anchor="middle" x="1198.0656" y="-889.3" font-family="lato, roboto, helvetica" font-size="14.00" fill="#eeeeee">Koop Eten Bij Bakker</text>
</g>
<!-- koop_eten_bij_bakker&#45;&gt;geef_dwerg_eten -->
<g id="edge15" class="edge">
<title>koop_eten_bij_bakker&#45;&gt;geef_dwerg_eten</title>
<path fill="none" stroke="#999999" d="M1194.8521,-875.4551C1193.3052,-866.7686 1191.4213,-856.1898 1189.721,-846.642"/>
<polygon fill="#999999" stroke="#999999" points="1192.4465,-845.9755 1188.2872,-838.5904 1186.9332,-846.9574 1192.4465,-845.9755"/>
</g>
<!-- geef_houweel_aan_dwerg -->
<g id="node25" class="node">
<title>geef_houweel_aan_dwerg</title>
<path fill="#008800" stroke="#008800" d="M1386.2461,-1386.5C1386.2461,-1386.5 1527.8851,-1386.5 1527.8851,-1386.5 1533.8851,-1386.5 1539.8851,-1392.5 1539.8851,-1398.5 1539.8851,-1398.5 1539.8851,-1410.5 1539.8851,-1410.5 1539.8851,-1416.5 1533.8851,-1422.5 1527.8851,-1422.5 1527.8851,-1422.5 1386.2461,-1422.5 1386.2461,-1422.5 1380.2461,-1422.5 1374.2461,-1416.5 1374.2461,-1410.5 1374.2461,-1410.5 1374.2461,-1398.5 1374.2461,-1398.5 1374.2461,-1392.5 1380.2461,-1386.5 1386.2461,-1386.5"/>
<text text-anchor="middle" x="1457.0656" y="-1400.3" font-family="lato, roboto, helvetica" font-size="14.00" fill="#eeeeee">Geef Houweel Aan Dwerg</text>
</g>
<!-- geef_houweel_aan_dwerg&#45;&gt;krijg_edelsteen_van_dwerg -->
<g id="edge37" class="edge">
<title>geef_houweel_aan_dwerg&#45;&gt;krijg_edelsteen_van_dwerg</title>
<path fill="none" stroke="#999999" d="M1437.7778,-1386.2017C1412.6992,-1360.335 1372.0656,-1310.4141 1372.0656,-1258.5 1372.0656,-1258.5 1372.0656,-1258.5 1372.0656,-966.5 1372.0656,-924.4577 1371.1676,-910.1263 1348.0656,-875 1317.5273,-828.5668 1264.3806,-791.6957 1227.0976,-769.7844"/>
<polygon fill="#999999" stroke="#999999" points="1228.1914,-767.1826 1219.8639,-765.6032 1225.3889,-772.0309 1228.1914,-767.1826"/>
</g>
<!-- repareer_houweel -->
<g id="node26" class="node">
<title>repareer_houweel</title>
<path fill="#008800" stroke="#008800" d="M1421.791,-1532.5C1421.791,-1532.5 1518.3402,-1532.5 1518.3402,-1532.5 1524.3402,-1532.5 1530.3402,-1538.5 1530.3402,-1544.5 1530.3402,-1544.5 1530.3402,-1556.5 1530.3402,-1556.5 1530.3402,-1562.5 1524.3402,-1568.5 1518.3402,-1568.5 1518.3402,-1568.5 1421.791,-1568.5 1421.791,-1568.5 1415.791,-1568.5 1409.791,-1562.5 1409.791,-1556.5 1409.791,-1556.5 1409.791,-1544.5 1409.791,-1544.5 1409.791,-1538.5 1415.791,-1532.5 1421.791,-1532.5"/>
<text text-anchor="middle" x="1470.0656" y="-1546.3" font-family="lato, roboto, helvetica" font-size="14.00" fill="#eeeeee">Repareer Houweel</text>
</g>
<!-- repareer_houweel&#45;&gt;geef_houweel_aan_dwerg -->
<g id="edge16" class="edge">
<title>repareer_houweel&#45;&gt;geef_houweel_aan_dwerg</title>
<path fill="none" stroke="#999999" d="M1468.4454,-1532.3042C1466.1781,-1506.8403 1462.044,-1460.4108 1459.432,-1431.0759"/>
<polygon fill="#999999" stroke="#999999" points="1462.2048,-1430.6452 1458.7062,-1422.9251 1456.6268,-1431.1419 1462.2048,-1430.6452"/>
</g>
<!-- haal_wagen_bij_molenaar_met_paard -->
<g id="node32" class="node">
<title>haal_wagen_bij_molenaar_met_paard</title>
<path fill="#008800" stroke="#008800" d="M617.6907,-1386.5C617.6907,-1386.5 818.4405,-1386.5 818.4405,-1386.5 824.4405,-1386.5 830.4405,-1392.5 830.4405,-1398.5 830.4405,-1398.5 830.4405,-1410.5 830.4405,-1410.5 830.4405,-1416.5 824.4405,-1422.5 818.4405,-1422.5 818.4405,-1422.5 617.6907,-1422.5 617.6907,-1422.5 611.6907,-1422.5 605.6907,-1416.5 605.6907,-1410.5 605.6907,-1410.5 605.6907,-1398.5 605.6907,-1398.5 605.6907,-1392.5 611.6907,-1386.5 617.6907,-1386.5"/>
<text text-anchor="middle" x="718.0656" y="-1400.3" font-family="lato, roboto, helvetica" font-size="14.00" fill="#eeeeee">Haal Wagen Bij Molenaar Met Paard</text>
</g>
<!-- geef_paard_nieuwe_hoefijzers&#45;&gt;haal_wagen_bij_molenaar_met_paard -->
<g id="edge23" class="edge">
<title>geef_paard_nieuwe_hoefijzers&#45;&gt;haal_wagen_bij_molenaar_met_paard</title>
<path fill="none" stroke="#999999" d="M718.0656,-1459.4551C718.0656,-1450.7686 718.0656,-1440.1898 718.0656,-1430.642"/>
<polygon fill="#999999" stroke="#999999" points="720.8657,-1430.5903 718.0656,-1422.5904 715.2657,-1430.5904 720.8657,-1430.5903"/>
</g>
<!-- geef_sieraad_aan_heks -->
<g id="node28" class="node">
<title>geef_sieraad_aan_heks</title>
<path fill="#008800" stroke="#008800" d="M784.1851,-583.5C784.1851,-583.5 907.9461,-583.5 907.9461,-583.5 913.9461,-583.5 919.9461,-589.5 919.9461,-595.5 919.9461,-595.5 919.9461,-607.5 919.9461,-607.5 919.9461,-613.5 913.9461,-619.5 907.9461,-619.5 907.9461,-619.5 784.1851,-619.5 784.1851,-619.5 778.1851,-619.5 772.1851,-613.5 772.1851,-607.5 772.1851,-607.5 772.1851,-595.5 772.1851,-595.5 772.1851,-589.5 778.1851,-583.5 784.1851,-583.5"/>
<text text-anchor="middle" x="846.0656" y="-597.3" font-family="lato, roboto, helvetica" font-size="14.00" fill="#eeeeee">Geef Sieraad Aan Heks</text>
</g>
<!-- krijg_ingredientenlijst_van_heks -->
<g id="node43" class="node">
<title>krijg_ingredientenlijst_van_heks</title>
<path fill="#008800" stroke="#008800" d="M758.1213,-437.5C758.1213,-437.5 934.0099,-437.5 934.0099,-437.5 940.0099,-437.5 946.0099,-443.5 946.0099,-449.5 946.0099,-449.5 946.0099,-461.5 946.0099,-461.5 946.0099,-467.5 940.0099,-473.5 934.0099,-473.5 934.0099,-473.5 758.1213,-473.5 758.1213,-473.5 752.1213,-473.5 746.1213,-467.5 746.1213,-461.5 746.1213,-461.5 746.1213,-449.5 746.1213,-449.5 746.1213,-443.5 752.1213,-437.5 758.1213,-437.5"/>
<text text-anchor="middle" x="846.0656" y="-451.3" font-family="lato, roboto, helvetica" font-size="14.00" fill="#eeeeee">Krijg Ingredientenlijst Van Heks</text>
</g>
<!-- geef_sieraad_aan_heks&#45;&gt;krijg_ingredientenlijst_van_heks -->
<g id="edge39" class="edge">
<title>geef_sieraad_aan_heks&#45;&gt;krijg_ingredientenlijst_van_heks</title>
<path fill="none" stroke="#999999" d="M846.0656,-583.3042C846.0656,-557.8403 846.0656,-511.4108 846.0656,-482.0759"/>
<polygon fill="#999999" stroke="#999999" points="848.8657,-481.9251 846.0656,-473.9251 843.2657,-481.9251 848.8657,-481.9251"/>
</g>
<!-- praat_met_heks&#45;&gt;geef_sieraad_aan_heks -->
<g id="edge19" class="edge">
<title>praat_met_heks&#45;&gt;geef_sieraad_aan_heks</title>
<path fill="none" stroke="#999999" d="M797.0448,-729.3042C806.8537,-703.7311 824.7734,-657.0119 836.0166,-627.6992"/>
<polygon fill="#999999" stroke="#999999" points="838.7477,-628.3973 838.9984,-619.9251 833.5191,-626.3918 838.7477,-628.3973"/>
</g>
<!-- maak_sieraad_bij_smid -->
<g id="node30" class="node">
<title>maak_sieraad_bij_smid</title>
<path fill="#008800" stroke="#008800" d="M857.5491,-656.5C857.5491,-656.5 980.5821,-656.5 980.5821,-656.5 986.5821,-656.5 992.5821,-662.5 992.5821,-668.5 992.5821,-668.5 992.5821,-680.5 992.5821,-680.5 992.5821,-686.5 986.5821,-692.5 980.5821,-692.5 980.5821,-692.5 857.5491,-692.5 857.5491,-692.5 851.5491,-692.5 845.5491,-686.5 845.5491,-680.5 845.5491,-680.5 845.5491,-668.5 845.5491,-668.5 845.5491,-662.5 851.5491,-656.5 857.5491,-656.5"/>
<text text-anchor="middle" x="919.0656" y="-670.3" font-family="lato, roboto, helvetica" font-size="14.00" fill="#eeeeee">Maak Sieraad Bij Smid</text>
</g>
<!-- praat_met_heks&#45;&gt;maak_sieraad_bij_smid -->
<g id="edge55" class="edge">
<title>praat_met_heks&#45;&gt;maak_sieraad_bij_smid</title>
<path fill="none" stroke="#999999" d="M821.9532,-729.4551C839.4739,-719.5403 861.3513,-707.16 879.9034,-696.6615"/>
<polygon fill="#999999" stroke="#999999" points="881.5142,-698.9673 887.0977,-692.5904 878.7562,-694.0935 881.5142,-698.9673"/>
</g>
<!-- maak_sieraad_bij_smid&#45;&gt;krijg_geldstuk_van_smid -->
<g id="edge38" class="edge">
<title>maak_sieraad_bij_smid&#45;&gt;krijg_geldstuk_van_smid</title>
<path fill="none" stroke="#999999" d="M983.0881,-656.4551C1020.2887,-645.9699 1067.2718,-632.7276 1105.7963,-621.8694"/>
<polygon fill="#999999" stroke="#999999" points="1106.9416,-624.4557 1113.882,-619.5904 1105.4224,-619.0657 1106.9416,-624.4557"/>
</g>
<!-- maak_sieraad_bij_smid&#45;&gt;geef_sieraad_aan_heks -->
<g id="edge20" class="edge">
<title>maak_sieraad_bij_smid&#45;&gt;geef_sieraad_aan_heks</title>
<path fill="none" stroke="#999999" d="M901.0207,-656.4551C891.6323,-647.0667 880.0334,-635.4678 869.9147,-625.3491"/>
<polygon fill="#999999" stroke="#999999" points="871.7928,-623.2673 864.156,-619.5904 867.8329,-627.2272 871.7928,-623.2673"/>
</g>
<!-- praat_met_boer&#45;&gt;genoeg_info_over_monster -->
<g id="edge22" class="edge">
<title>praat_met_boer&#45;&gt;genoeg_info_over_monster</title>
<path fill="none" stroke="#999999" d="M601.1281,-1686.8269C509.4406,-1666.1425 326.0656,-1608.4101 326.0656,-1477.5 326.0656,-1477.5 326.0656,-1477.5 326.0656,-1112.5 326.0656,-1061.4906 283.2993,-1016.124 252.3536,-989.9738"/>
<polygon fill="#999999" stroke="#999999" points="253.902,-987.6214 245.9491,-984.6901 250.3383,-991.9411 253.902,-987.6214"/>
</g>
<!-- praat_met_boer&#45;&gt;zet_graan_op_wagen -->
<g id="edge92" class="edge">
<title>praat_met_boer&#45;&gt;zet_graan_op_wagen</title>
<path fill="none" stroke="#999999" d="M637.097,-1678.4978C629.5218,-1668.3944 620.9237,-1655.1953 616.0656,-1642 579.1978,-1541.8614 576.5385,-1412.5247 577.2944,-1357.803"/>
<polygon fill="#999999" stroke="#999999" points="580.0961,-1357.7261 577.4403,-1349.6771 574.497,-1357.6255 580.0961,-1357.7261"/>
</g>
<!-- praat_met_boer&#45;&gt;vind_paard_bij_rivier -->
<g id="edge87" class="edge">
<title>praat_met_boer&#45;&gt;vind_paard_bij_rivier</title>
<path fill="none" stroke="#999999" d="M662.4476,-1678.4551C667.5967,-1669.5054 673.9016,-1658.547 679.5227,-1648.7769"/>
<polygon fill="#999999" stroke="#999999" points="682.0948,-1649.921 683.6574,-1641.5904 677.2409,-1647.1282 682.0948,-1649.921"/>
</g>
<!-- haal_wagen_bij_molenaar_met_paard&#45;&gt;zet_graan_op_wagen -->
<g id="edge91" class="edge">
<title>haal_wagen_bij_molenaar_met_paard&#45;&gt;zet_graan_op_wagen</title>
<path fill="none" stroke="#999999" d="M683.4588,-1386.4551C664.2759,-1376.4525 640.2806,-1363.9407 620.0335,-1353.3833"/>
<polygon fill="#999999" stroke="#999999" points="621.1476,-1350.8065 612.7594,-1349.5904 618.5584,-1355.772 621.1476,-1350.8065"/>
</g>
<!-- repareer_molen_met_onderbroek -->
<g id="node33" class="node">
<title>repareer_molen_met_onderbroek</title>
<path fill="#008800" stroke="#008800" d="M365.5792,-1459.5C365.5792,-1459.5 544.552,-1459.5 544.552,-1459.5 550.552,-1459.5 556.552,-1465.5 556.552,-1471.5 556.552,-1471.5 556.552,-1483.5 556.552,-1483.5 556.552,-1489.5 550.552,-1495.5 544.552,-1495.5 544.552,-1495.5 365.5792,-1495.5 365.5792,-1495.5 359.5792,-1495.5 353.5792,-1489.5 353.5792,-1483.5 353.5792,-1483.5 353.5792,-1471.5 353.5792,-1471.5 353.5792,-1465.5 359.5792,-1459.5 365.5792,-1459.5"/>
<text text-anchor="middle" x="455.0656" y="-1473.3" font-family="lato, roboto, helvetica" font-size="14.00" fill="#eeeeee">Repareer Molen Met Onderbroek</text>
</g>
<!-- repareer_molen_met_onderbroek&#45;&gt;krijg_meel_bij_molenaar -->
<g id="edge42" class="edge">
<title>repareer_molen_met_onderbroek&#45;&gt;krijg_meel_bij_molenaar</title>
<path fill="none" stroke="#999999" d="M453.9302,-1459.2558C452.0255,-1418.5345 450.8268,-1317.706 479.0656,-1240 482.863,-1229.5504 489.1123,-1219.1776 495.4035,-1210.3303"/>
<polygon fill="#999999" stroke="#999999" points="497.6662,-1211.9798 500.1828,-1203.8861 493.1682,-1208.6439 497.6662,-1211.9798"/>
</g>
<!-- repareer_molen_met_onderbroek&#45;&gt;haal_wagen_bij_molenaar_met_paard -->
<g id="edge24" class="edge">
<title>repareer_molen_met_onderbroek&#45;&gt;haal_wagen_bij_molenaar_met_paard</title>
<path fill="none" stroke="#999999" d="M520.0769,-1459.4551C558.01,-1448.9261 605.9602,-1435.6167 645.1707,-1424.7332"/>
<polygon fill="#999999" stroke="#999999" points="645.9311,-1427.4281 652.8907,-1422.5904 644.4333,-1422.0321 645.9311,-1427.4281"/>
</g>
<!-- hijs_lift_met_molensteen -->
<g id="node34" class="node">
<title>hijs_lift_met_molensteen</title>
<path fill="#008800" stroke="#008800" d="M211.7202,-656.5C211.7202,-656.5 346.411,-656.5 346.411,-656.5 352.411,-656.5 358.411,-662.5 358.411,-668.5 358.411,-668.5 358.411,-680.5 358.411,-680.5 358.411,-686.5 352.411,-692.5 346.411,-692.5 346.411,-692.5 211.7202,-692.5 211.7202,-692.5 205.7202,-692.5 199.7202,-686.5 199.7202,-680.5 199.7202,-680.5 199.7202,-668.5 199.7202,-668.5 199.7202,-662.5 205.7202,-656.5 211.7202,-656.5"/>
<text text-anchor="middle" x="279.0656" y="-670.3" font-family="lato, roboto, helvetica" font-size="14.00" fill="#eeeeee">Hijs Lift Met Molensteen</text>
</g>
<!-- knoop_touw_aan_molensteen -->
<g id="node36" class="node">
<title>knoop_touw_aan_molensteen</title>
<path fill="#008800" stroke="#008800" d="M180.115,-583.5C180.115,-583.5 342.0162,-583.5 342.0162,-583.5 348.0162,-583.5 354.0162,-589.5 354.0162,-595.5 354.0162,-595.5 354.0162,-607.5 354.0162,-607.5 354.0162,-613.5 348.0162,-619.5 342.0162,-619.5 342.0162,-619.5 180.115,-619.5 180.115,-619.5 174.115,-619.5 168.115,-613.5 168.115,-607.5 168.115,-607.5 168.115,-595.5 168.115,-595.5 168.115,-589.5 174.115,-583.5 180.115,-583.5"/>
<text text-anchor="middle" x="261.0656" y="-597.3" font-family="lato, roboto, helvetica" font-size="14.00" fill="#eeeeee">Knoop Touw Aan Molensteen</text>
</g>
<!-- hijs_lift_met_molensteen&#45;&gt;knoop_touw_aan_molensteen -->
<g id="edge27" class="edge">
<title>hijs_lift_met_molensteen&#45;&gt;knoop_touw_aan_molensteen</title>
<path fill="none" stroke="#999999" d="M274.6162,-656.4551C272.4743,-647.7686 269.8658,-637.1898 267.5116,-627.642"/>
<polygon fill="#999999" stroke="#999999" points="270.1601,-626.6874 265.5262,-619.5904 264.723,-628.0281 270.1601,-626.6874"/>
</g>
<!-- hijs_lift_met_molensteen&#45;&gt;snij_touw_van_lift -->
<g id="edge81" class="edge">
<title>hijs_lift_met_molensteen&#45;&gt;snij_touw_van_lift</title>
<path fill="none" stroke="#999999" d="M323.6124,-656.4776C338.9542,-647.8599 354.4356,-635.8865 363.0656,-620 373.9573,-599.95 371.3815,-573.6275 367.0143,-554.3645"/>
<polygon fill="#999999" stroke="#999999" points="369.7248,-553.6613 365.067,-546.58 364.2921,-555.0203 369.7248,-553.6613"/>
</g>
<!-- leg_molensteen_op_lift -->
<g id="node35" class="node">
<title>leg_molensteen_op_lift</title>
<path fill="#008800" stroke="#008800" d="M215.2244,-729.5C215.2244,-729.5 342.9068,-729.5 342.9068,-729.5 348.9068,-729.5 354.9068,-735.5 354.9068,-741.5 354.9068,-741.5 354.9068,-753.5 354.9068,-753.5 354.9068,-759.5 348.9068,-765.5 342.9068,-765.5 342.9068,-765.5 215.2244,-765.5 215.2244,-765.5 209.2244,-765.5 203.2244,-759.5 203.2244,-753.5 203.2244,-753.5 203.2244,-741.5 203.2244,-741.5 203.2244,-735.5 209.2244,-729.5 215.2244,-729.5"/>
<text text-anchor="middle" x="279.0656" y="-743.3" font-family="lato, roboto, helvetica" font-size="14.00" fill="#eeeeee">Leg Molensteen Op Lift</text>
</g>
<!-- leg_molensteen_op_lift&#45;&gt;hijs_lift_met_molensteen -->
<g id="edge25" class="edge">
<title>leg_molensteen_op_lift&#45;&gt;hijs_lift_met_molensteen</title>
<path fill="none" stroke="#999999" d="M279.0656,-729.4551C279.0656,-720.7686 279.0656,-710.1898 279.0656,-700.642"/>
<polygon fill="#999999" stroke="#999999" points="281.8657,-700.5903 279.0656,-692.5904 276.2657,-700.5904 281.8657,-700.5903"/>
</g>
<!-- knoop_touw_aan_molensteen&#45;&gt;snij_touw_van_lift -->
<g id="edge79" class="edge">
<title>knoop_touw_aan_molensteen&#45;&gt;snij_touw_van_lift</title>
<path fill="none" stroke="#999999" d="M285.2903,-583.4551C298.2472,-573.8035 314.3405,-561.8156 328.1868,-551.5016"/>
<polygon fill="#999999" stroke="#999999" points="330.0369,-553.6149 334.7799,-546.5904 326.6915,-549.1239 330.0369,-553.6149"/>
</g>
<!-- pak_touw_op_boerderij&#45;&gt;knoop_touw_aan_molensteen -->
<g id="edge26" class="edge">
<title>pak_touw_op_boerderij&#45;&gt;knoop_touw_aan_molensteen</title>
<path fill="none" stroke="#999999" d="M121.0431,-656.4551C147.1997,-646.1893 180.0908,-633.2804 207.4214,-622.5539"/>
<polygon fill="#999999" stroke="#999999" points="208.5483,-625.1196 214.9724,-619.5904 206.5024,-619.9067 208.5483,-625.1196"/>
</g>
<!-- knoop_touw_aan_tand -->
<g id="node38" class="node">
<title>knoop_touw_aan_tand</title>
<path fill="#008800" stroke="#008800" d="M12.3885,-583.5C12.3885,-583.5 137.7427,-583.5 137.7427,-583.5 143.7427,-583.5 149.7427,-589.5 149.7427,-595.5 149.7427,-595.5 149.7427,-607.5 149.7427,-607.5 149.7427,-613.5 143.7427,-619.5 137.7427,-619.5 137.7427,-619.5 12.3885,-619.5 12.3885,-619.5 6.3885,-619.5 .3885,-613.5 .3885,-607.5 .3885,-607.5 .3885,-595.5 .3885,-595.5 .3885,-589.5 6.3885,-583.5 12.3885,-583.5"/>
<text text-anchor="middle" x="75.0656" y="-597.3" font-family="lato, roboto, helvetica" font-size="14.00" fill="#eeeeee">Knoop Touw Aan Tand</text>
</g>
<!-- pak_touw_op_boerderij&#45;&gt;knoop_touw_aan_tand -->
<g id="edge28" class="edge">
<title>pak_touw_op_boerderij&#45;&gt;knoop_touw_aan_tand</title>
<path fill="none" stroke="#999999" d="M75.0656,-656.4551C75.0656,-647.7686 75.0656,-637.1898 75.0656,-627.642"/>
<polygon fill="#999999" stroke="#999999" points="77.8657,-627.5903 75.0656,-619.5904 72.2657,-627.5904 77.8657,-627.5903"/>
</g>
<!-- knoop_touw_aan_tand&#45;&gt;snij_touw_van_lift -->
<g id="edge80" class="edge">
<title>knoop_touw_aan_tand&#45;&gt;snij_touw_van_lift</title>
<path fill="none" stroke="#999999" d="M145.2679,-583.4551C188.7201,-572.286 244.3443,-557.9882 287.9632,-546.7763"/>
<polygon fill="#999999" stroke="#999999" points="288.9114,-549.4237 295.9624,-544.7202 287.5172,-544 288.9114,-549.4237"/>
</g>
<!-- _1&#45;&gt;koop_eten_bij_bakker -->
<g id="edge29" class="edge">
<title>_1&#45;&gt;koop_eten_bij_bakker</title>
<path fill="none" stroke="#999999" d="M1230.5419,-952.7693C1225.3067,-943.2151 1218.1727,-930.1954 1211.9243,-918.792"/>
<polygon fill="#999999" stroke="#999999" points="1214.2748,-917.2548 1207.9749,-911.5845 1209.3637,-919.9458 1214.2748,-917.2548"/>
</g>
<!-- krijg_100_geld_van_meel&#45;&gt;koop_zwaard_voor_99_bij_wapensmid -->
<g id="edge32" class="edge">
<title>krijg_100_geld_van_meel&#45;&gt;koop_zwaard_voor_99_bij_wapensmid</title>
<path fill="none" stroke="#999999" d="M556.751,-1021.4551C535.3264,-1011.3648 508.4801,-998.721 485.9411,-988.1059"/>
<polygon fill="#999999" stroke="#999999" points="486.9072,-985.4659 478.4766,-984.5904 484.5211,-990.5322 486.9072,-985.4659"/>
</g>
<!-- krijg_100_geld_van_meel&#45;&gt;_1 -->
<g id="edge31" class="edge">
<title>krijg_100_geld_van_meel&#45;&gt;_1</title>
<path fill="none" stroke="#999999" stroke-dasharray="5,2" d="M675.2516,-1033.0166C833.7816,-1020.0947 1174.1964,-991.788 1199.0656,-985 1204.5058,-983.5151 1210.1175,-981.3047 1215.3299,-978.9236"/>
<polygon fill="#999999" stroke="#999999" points="1216.6469,-981.3967 1222.6143,-975.3775 1214.1957,-976.3616 1216.6469,-981.3967"/>
</g>
<!-- krijg_appel_taart_van_bakker&#45;&gt;zet_zadel_op_draak -->
<g id="edge95" class="edge">
<title>krijg_appel_taart_van_bakker&#45;&gt;zet_zadel_op_draak</title>
<path fill="none" stroke="#999999" d="M365.3804,-291.1569C375.9321,-260.678 397.9736,-197.7352 418.0656,-145 421.6621,-135.5603 425.7671,-125.2711 429.4494,-116.2011"/>
<polygon fill="#999999" stroke="#999999" points="432.1225,-117.0613 432.5531,-108.5964 426.9377,-114.9452 432.1225,-117.0613"/>
</g>
<!-- krijg_edelsteen_van_dwerg&#45;&gt;maak_sieraad_bij_smid -->
<g id="edge53" class="edge">
<title>krijg_edelsteen_van_dwerg&#45;&gt;maak_sieraad_bij_smid</title>
<path fill="none" stroke="#999999" d="M1119.3128,-729.4551C1080.9469,-718.9261 1032.4498,-705.6167 992.792,-694.7332"/>
<polygon fill="#999999" stroke="#999999" points="993.4397,-692.0075 984.9839,-692.5904 991.9576,-697.4078 993.4397,-692.0075"/>
</g>
<!-- krijg_ingredientenlijst_van_heks&#45;&gt;pak_tand_van_draak -->
<g id="edge57" class="edge">
<title>krijg_ingredientenlijst_van_heks&#45;&gt;pak_tand_van_draak</title>
<path fill="none" stroke="#999999" d="M806.2678,-437.4551C783.9172,-427.3209 755.8858,-414.611 732.4118,-403.9675"/>
<polygon fill="#999999" stroke="#999999" points="733.4058,-401.3439 724.9635,-400.5904 731.0933,-406.4441 733.4058,-401.3439"/>
</g>
<!-- pluk_kruiden_in_moeras -->
<g id="node52" class="node">
<title>pluk_kruiden_in_moeras</title>
<path fill="#008800" stroke="#008800" d="M782.223,-364.5C782.223,-364.5 909.9082,-364.5 909.9082,-364.5 915.9082,-364.5 921.9082,-370.5 921.9082,-376.5 921.9082,-376.5 921.9082,-388.5 921.9082,-388.5 921.9082,-394.5 915.9082,-400.5 909.9082,-400.5 909.9082,-400.5 782.223,-400.5 782.223,-400.5 776.223,-400.5 770.223,-394.5 770.223,-388.5 770.223,-388.5 770.223,-376.5 770.223,-376.5 770.223,-370.5 776.223,-364.5 782.223,-364.5"/>
<text text-anchor="middle" x="846.0656" y="-378.3" font-family="lato, roboto, helvetica" font-size="14.00" fill="#eeeeee">Pluk Kruiden In Moeras</text>
</g>
<!-- krijg_ingredientenlijst_van_heks&#45;&gt;pluk_kruiden_in_moeras -->
<g id="edge60" class="edge">
<title>krijg_ingredientenlijst_van_heks&#45;&gt;pluk_kruiden_in_moeras</title>
<path fill="none" stroke="#999999" d="M846.0656,-437.4551C846.0656,-428.7686 846.0656,-418.1898 846.0656,-408.642"/>
<polygon fill="#999999" stroke="#999999" points="848.8657,-408.5903 846.0656,-400.5904 843.2657,-408.5904 848.8657,-408.5903"/>
</g>
<!-- pluk_paddenstoelen_in_woud -->
<g id="node53" class="node">
<title>pluk_paddenstoelen_in_woud</title>
<path fill="#008800" stroke="#008800" d="M951.608,-364.5C951.608,-364.5 1106.5232,-364.5 1106.5232,-364.5 1112.5232,-364.5 1118.5232,-370.5 1118.5232,-376.5 1118.5232,-376.5 1118.5232,-388.5 1118.5232,-388.5 1118.5232,-394.5 1112.5232,-400.5 1106.5232,-400.5 1106.5232,-400.5 951.608,-400.5 951.608,-400.5 945.608,-400.5 939.608,-394.5 939.608,-388.5 939.608,-388.5 939.608,-376.5 939.608,-376.5 939.608,-370.5 945.608,-364.5 951.608,-364.5"/>
<text text-anchor="middle" x="1029.0656" y="-378.3" font-family="lato, roboto, helvetica" font-size="14.00" fill="#eeeeee">Pluk Paddenstoelen In Woud</text>
</g>
<!-- krijg_ingredientenlijst_van_heks&#45;&gt;pluk_paddenstoelen_in_woud -->
<g id="edge61" class="edge">
<title>krijg_ingredientenlijst_van_heks&#45;&gt;pluk_paddenstoelen_in_woud</title>
<path fill="none" stroke="#999999" d="M891.3016,-437.4551C916.9263,-427.2332 949.1203,-414.3907 975.9416,-403.6916"/>
<polygon fill="#999999" stroke="#999999" points="977.3226,-406.1553 983.7158,-400.5904 975.2477,-400.9538 977.3226,-406.1553"/>
</g>
<!-- krijg_kapotte_houweel_van_dwerg&#45;&gt;repareer_houweel -->
<g id="edge74" class="edge">
<title>krijg_kapotte_houweel_van_dwerg&#45;&gt;repareer_houweel</title>
<path fill="none" stroke="#999999" d="M1470.0656,-1605.4551C1470.0656,-1596.7686 1470.0656,-1586.1898 1470.0656,-1576.642"/>
<polygon fill="#999999" stroke="#999999" points="1472.8657,-1576.5903 1470.0656,-1568.5904 1467.2657,-1576.5904 1472.8657,-1576.5903"/>
</g>
<!-- krijg_plant_hint_van_bakker -->
<g id="node45" class="node">
<title>krijg_plant_hint_van_bakker</title>
<path fill="#008800" stroke="#008800" d="M1025.5845,-948.5C1025.5845,-948.5 1178.5467,-948.5 1178.5467,-948.5 1184.5467,-948.5 1190.5467,-954.5 1190.5467,-960.5 1190.5467,-960.5 1190.5467,-972.5 1190.5467,-972.5 1190.5467,-978.5 1184.5467,-984.5 1178.5467,-984.5 1178.5467,-984.5 1025.5845,-984.5 1025.5845,-984.5 1019.5845,-984.5 1013.5845,-978.5 1013.5845,-972.5 1013.5845,-972.5 1013.5845,-960.5 1013.5845,-960.5 1013.5845,-954.5 1019.5845,-948.5 1025.5845,-948.5"/>
<text text-anchor="middle" x="1102.0656" y="-962.3" font-family="lato, roboto, helvetica" font-size="14.00" fill="#eeeeee">Krijg Plant Hint Van Bakker</text>
</g>
<!-- vind_maansteen_in_moeras -->
<g id="node67" class="node">
<title>vind_maansteen_in_moeras</title>
<path fill="#008800" stroke="#008800" d="M952.6781,-875.5C952.6781,-875.5 1097.4531,-875.5 1097.4531,-875.5 1103.4531,-875.5 1109.4531,-881.5 1109.4531,-887.5 1109.4531,-887.5 1109.4531,-899.5 1109.4531,-899.5 1109.4531,-905.5 1103.4531,-911.5 1097.4531,-911.5 1097.4531,-911.5 952.6781,-911.5 952.6781,-911.5 946.6781,-911.5 940.6781,-905.5 940.6781,-899.5 940.6781,-899.5 940.6781,-887.5 940.6781,-887.5 940.6781,-881.5 946.6781,-875.5 952.6781,-875.5"/>
<text text-anchor="middle" x="1025.0656" y="-889.3" font-family="lato, roboto, helvetica" font-size="14.00" fill="#eeeeee">Vind Maansteen In Moeras</text>
</g>
<!-- krijg_plant_hint_van_bakker&#45;&gt;vind_maansteen_in_moeras -->
<g id="edge84" class="edge">
<title>krijg_plant_hint_van_bakker&#45;&gt;vind_maansteen_in_moeras</title>
<path fill="none" stroke="#999999" d="M1083.0319,-948.4551C1073.1291,-939.0667 1060.8946,-927.4678 1050.2215,-917.3491"/>
<polygon fill="#999999" stroke="#999999" points="1051.8793,-915.0625 1044.1472,-911.5904 1048.0265,-919.1264 1051.8793,-915.0625"/>
</g>
<!-- krijg_schat_onderwerp -->
<g id="node46" class="node">
<title>krijg_schat_onderwerp</title>
<path fill="#008800" stroke="#008800" d="M853.7584,-1021.5C853.7584,-1021.5 976.3728,-1021.5 976.3728,-1021.5 982.3728,-1021.5 988.3728,-1027.5 988.3728,-1033.5 988.3728,-1033.5 988.3728,-1045.5 988.3728,-1045.5 988.3728,-1051.5 982.3728,-1057.5 976.3728,-1057.5 976.3728,-1057.5 853.7584,-1057.5 853.7584,-1057.5 847.7584,-1057.5 841.7584,-1051.5 841.7584,-1045.5 841.7584,-1045.5 841.7584,-1033.5 841.7584,-1033.5 841.7584,-1027.5 847.7584,-1021.5 853.7584,-1021.5"/>
<text text-anchor="middle" x="915.0656" y="-1035.3" font-family="lato, roboto, helvetica" font-size="14.00" fill="#eeeeee">Krijg Schat Onderwerp</text>
</g>
<!-- krijg_schat_onderwerp&#45;&gt;krijg_plant_hint_van_bakker -->
<g id="edge43" class="edge">
<title>krijg_schat_onderwerp&#45;&gt;krijg_plant_hint_van_bakker</title>
<path fill="none" stroke="#999999" d="M961.2903,-1021.4551C987.5875,-1011.1893 1020.6554,-998.2804 1048.133,-987.5539"/>
<polygon fill="#999999" stroke="#999999" points="1049.2905,-990.1079 1055.7245,-984.5904 1047.254,-984.8913 1049.2905,-990.1079"/>
</g>
<!-- krijg_rivier_hint_van_molenaar -->
<g id="node47" class="node">
<title>krijg_rivier_hint_van_molenaar</title>
<path fill="#008800" stroke="#008800" d="M624.8706,-948.5C624.8706,-948.5 797.2606,-948.5 797.2606,-948.5 803.2606,-948.5 809.2606,-954.5 809.2606,-960.5 809.2606,-960.5 809.2606,-972.5 809.2606,-972.5 809.2606,-978.5 803.2606,-984.5 797.2606,-984.5 797.2606,-984.5 624.8706,-984.5 624.8706,-984.5 618.8706,-984.5 612.8706,-978.5 612.8706,-972.5 612.8706,-972.5 612.8706,-960.5 612.8706,-960.5 612.8706,-954.5 618.8706,-948.5 624.8706,-948.5"/>
<text text-anchor="middle" x="711.0656" y="-962.3" font-family="lato, roboto, helvetica" font-size="14.00" fill="#eeeeee">Krijg Rivier Hint Van Molenaar</text>
</g>
<!-- krijg_schat_onderwerp&#45;&gt;krijg_rivier_hint_van_molenaar -->
<g id="edge44" class="edge">
<title>krijg_schat_onderwerp&#45;&gt;krijg_rivier_hint_van_molenaar</title>
<path fill="none" stroke="#999999" d="M864.6386,-1021.4551C835.8282,-1011.1454 799.5683,-998.1701 769.5172,-987.4165"/>
<polygon fill="#999999" stroke="#999999" points="770.0952,-984.6495 761.6195,-984.5904 768.2083,-989.9221 770.0952,-984.6495"/>
</g>
<!-- krijg_route_hint_van_boer -->
<g id="node48" class="node">
<title>krijg_route_hint_van_boer</title>
<path fill="#008800" stroke="#008800" d="M838.8601,-948.5C838.8601,-948.5 983.2711,-948.5 983.2711,-948.5 989.2711,-948.5 995.2711,-954.5 995.2711,-960.5 995.2711,-960.5 995.2711,-972.5 995.2711,-972.5 995.2711,-978.5 989.2711,-984.5 983.2711,-984.5 983.2711,-984.5 838.8601,-984.5 838.8601,-984.5 832.8601,-984.5 826.8601,-978.5 826.8601,-972.5 826.8601,-972.5 826.8601,-960.5 826.8601,-960.5 826.8601,-954.5 832.8601,-948.5 838.8601,-948.5"/>
<text text-anchor="middle" x="911.0656" y="-962.3" font-family="lato, roboto, helvetica" font-size="14.00" fill="#eeeeee">Krijg Route Hint Van Boer</text>
</g>
<!-- krijg_schat_onderwerp&#45;&gt;krijg_route_hint_van_boer -->
<g id="edge45" class="edge">
<title>krijg_schat_onderwerp&#45;&gt;krijg_route_hint_van_boer</title>
<path fill="none" stroke="#999999" d="M914.0768,-1021.4551C913.6009,-1012.7686 913.0212,-1002.1898 912.498,-992.642"/>
<polygon fill="#999999" stroke="#999999" points="915.2905,-992.4251 912.0569,-984.5904 909.6988,-992.7316 915.2905,-992.4251"/>
</g>
<!-- schat_route_compleet -->
<g id="node64" class="node">
<title>schat_route_compleet</title>
<path fill="#008800" stroke="#008800" d="M793.0747,-875.5C793.0747,-875.5 911.0565,-875.5 911.0565,-875.5 917.0565,-875.5 923.0565,-881.5 923.0565,-887.5 923.0565,-887.5 923.0565,-899.5 923.0565,-899.5 923.0565,-905.5 917.0565,-911.5 911.0565,-911.5 911.0565,-911.5 793.0747,-911.5 793.0747,-911.5 787.0747,-911.5 781.0747,-905.5 781.0747,-899.5 781.0747,-899.5 781.0747,-887.5 781.0747,-887.5 781.0747,-881.5 787.0747,-875.5 793.0747,-875.5"/>
<text text-anchor="middle" x="852.0656" y="-889.3" font-family="lato, roboto, helvetica" font-size="14.00" fill="#eeeeee">Schat Route Compleet</text>
</g>
<!-- krijg_rivier_hint_van_molenaar&#45;&gt;schat_route_compleet -->
<g id="edge76" class="edge">
<title>krijg_rivier_hint_van_molenaar&#45;&gt;schat_route_compleet</title>
<path fill="none" stroke="#999999" d="M745.9195,-948.4551C765.2395,-938.4525 789.4062,-925.9407 809.7979,-915.3833"/>
<polygon fill="#999999" stroke="#999999" points="811.307,-917.7551 817.1239,-911.5904 808.7323,-912.782 811.307,-917.7551"/>
</g>
<!-- krijg_route_hint_van_boer&#45;&gt;schat_route_compleet -->
<g id="edge77" class="edge">
<title>krijg_route_hint_van_boer&#45;&gt;schat_route_compleet</title>
<path fill="none" stroke="#999999" d="M896.4813,-948.4551C889.0353,-939.2422 879.8688,-927.9006 871.8007,-917.918"/>
<polygon fill="#999999" stroke="#999999" points="873.893,-916.0523 866.6866,-911.5904 869.5376,-919.5724 873.893,-916.0523"/>
</g>
<!-- praat_met_smidsen&#45;&gt;krijg_schat_onderwerp -->
<g id="edge46" class="edge">
<title>praat_met_smidsen&#45;&gt;krijg_schat_onderwerp</title>
<path fill="none" stroke="#999999" d="M945.0639,-1313.2341C939.5865,-1263.2529 924.3361,-1124.0932 917.9433,-1065.759"/>
<polygon fill="#999999" stroke="#999999" points="920.7215,-1065.4063 917.0666,-1057.759 915.1548,-1066.0164 920.7215,-1065.4063"/>
</g>
<!-- krijg_toegang_tot_hut -->
<g id="node50" class="node">
<title>krijg_toegang_tot_hut</title>
<path fill="#3333aa" stroke="#3333aa" d="M708.3303,-291.5C708.3303,-291.5 829.8009,-291.5 829.8009,-291.5 835.8009,-291.5 841.8009,-297.5 841.8009,-303.5 841.8009,-303.5 841.8009,-315.5 841.8009,-315.5 841.8009,-321.5 835.8009,-327.5 829.8009,-327.5 829.8009,-327.5 708.3303,-327.5 708.3303,-327.5 702.3303,-327.5 696.3303,-321.5 696.3303,-315.5 696.3303,-315.5 696.3303,-303.5 696.3303,-303.5 696.3303,-297.5 702.3303,-291.5 708.3303,-291.5"/>
<text text-anchor="middle" x="769.0656" y="-305.3" font-family="lato, roboto, helvetica" font-size="14.00" fill="#eeeeee">Krijg Toegang Tot Hut</text>
</g>
<!-- maak_drank_om_heks_bij_te_brengen -->
<g id="node56" class="node">
<title>maak_drank_om_heks_bij_te_brengen</title>
<path fill="#3333aa" stroke="#3333aa" d="M614.6006,-145.5C614.6006,-145.5 823.5306,-145.5 823.5306,-145.5 829.5306,-145.5 835.5306,-151.5 835.5306,-157.5 835.5306,-157.5 835.5306,-169.5 835.5306,-169.5 835.5306,-175.5 829.5306,-181.5 823.5306,-181.5 823.5306,-181.5 614.6006,-181.5 614.6006,-181.5 608.6006,-181.5 602.6006,-175.5 602.6006,-169.5 602.6006,-169.5 602.6006,-157.5 602.6006,-157.5 602.6006,-151.5 608.6006,-145.5 614.6006,-145.5"/>
<text text-anchor="middle" x="719.0656" y="-159.3" font-family="lato, roboto, helvetica" font-size="14.00" fill="#eeeeee">Maak Drank Om Heks Bij Te Brengen</text>
</g>
<!-- krijg_toegang_tot_hut&#45;&gt;maak_drank_om_heks_bij_te_brengen -->
<g id="edge85" class="edge">
<title>krijg_toegang_tot_hut&#45;&gt;maak_drank_om_heks_bij_te_brengen</title>
<path fill="none" stroke="#999999" d="M767.0163,-291.4958C764.491,-272.6993 759.348,-242.5896 750.0656,-218 746.3414,-208.1343 740.9966,-197.931 735.791,-189.0582"/>
<polygon fill="#999999" stroke="#999999" points="738.0286,-187.3476 731.4897,-181.9547 733.2383,-190.2483 738.0286,-187.3476"/>
</g>
<!-- maak_drank_om_met_draak_te_praten -->
<g id="node59" class="node">
<title>maak_drank_om_met_draak_te_praten</title>
<path fill="#3333aa" stroke="#3333aa" d="M521.001,-218.5C521.001,-218.5 729.1302,-218.5 729.1302,-218.5 735.1302,-218.5 741.1302,-224.5 741.1302,-230.5 741.1302,-230.5 741.1302,-242.5 741.1302,-242.5 741.1302,-248.5 735.1302,-254.5 729.1302,-254.5 729.1302,-254.5 521.001,-254.5 521.001,-254.5 515.001,-254.5 509.001,-248.5 509.001,-242.5 509.001,-242.5 509.001,-230.5 509.001,-230.5 509.001,-224.5 515.001,-218.5 521.001,-218.5"/>
<text text-anchor="middle" x="625.0656" y="-232.3" font-family="lato, roboto, helvetica" font-size="14.00" fill="#eeeeee">Maak Drank Om Met Draak Te Praten</text>
</g>
<!-- krijg_toegang_tot_hut&#45;&gt;maak_drank_om_met_draak_te_praten -->
<g id="edge65" class="edge">
<title>krijg_toegang_tot_hut&#45;&gt;maak_drank_om_met_draak_te_praten</title>
<path fill="none" stroke="#999999" d="M733.4701,-291.4551C713.6525,-281.4087 688.8416,-268.8309 667.9588,-258.2445"/>
<polygon fill="#999999" stroke="#999999" points="669.1523,-255.7103 660.7507,-254.5904 666.6201,-260.7051 669.1523,-255.7103"/>
</g>
<!-- pak_tand_van_draak&#45;&gt;krijg_toegang_tot_hut -->
<g id="edge47" class="edge">
<title>pak_tand_van_draak&#45;&gt;krijg_toegang_tot_hut</title>
<path fill="none" stroke="#999999" d="M705.8297,-364.4551C716.7336,-354.979 730.2291,-343.2508 741.9488,-333.0658"/>
<polygon fill="#999999" stroke="#999999" points="744.0476,-334.9515 748.2493,-327.5904 740.3742,-330.7246 744.0476,-334.9515"/>
</g>
<!-- pluk_kruiden_in_moeras&#45;&gt;krijg_toegang_tot_hut -->
<g id="edge48" class="edge">
<title>pluk_kruiden_in_moeras&#45;&gt;krijg_toegang_tot_hut</title>
<path fill="none" stroke="#999999" d="M827.0319,-364.4551C817.1291,-355.0667 804.8946,-343.4678 794.2215,-333.3491"/>
<polygon fill="#999999" stroke="#999999" points="795.8793,-331.0625 788.1472,-327.5904 792.0265,-335.1264 795.8793,-331.0625"/>
</g>
<!-- pluk_paddenstoelen_in_woud&#45;&gt;krijg_toegang_tot_hut -->
<g id="edge49" class="edge">
<title>pluk_paddenstoelen_in_woud&#45;&gt;krijg_toegang_tot_hut</title>
<path fill="none" stroke="#999999" d="M964.7959,-364.4551C927.4517,-353.9699 880.2871,-340.7276 841.614,-329.8694"/>
<polygon fill="#999999" stroke="#999999" points="841.9561,-327.0572 833.497,-327.5904 840.4423,-332.4487 841.9561,-327.0572"/>
</g>
<!-- zet_molensteen_op_wagen&#45;&gt;leg_molensteen_op_lift -->
<g id="edge50" class="edge">
<title>zet_molensteen_op_wagen&#45;&gt;leg_molensteen_op_lift</title>
<path fill="none" stroke="#999999" d="M175.178,-802.4551C194.0869,-792.4525 217.7393,-779.9407 237.6973,-769.3833"/>
<polygon fill="#999999" stroke="#999999" points="239.1051,-771.8062 244.8674,-765.5904 236.4865,-766.8561 239.1051,-771.8062"/>
</g>
<!-- praat_met_dochter_van_bakker&#45;&gt;leg_molensteen_op_lift -->
<g id="edge51" class="edge">
<title>praat_met_dochter_van_bakker&#45;&gt;leg_molensteen_op_lift</title>
<path fill="none" stroke="#999999" d="M323.4813,-802.4551C316.0353,-793.2422 306.8688,-781.9006 298.8007,-771.918"/>
<polygon fill="#999999" stroke="#999999" points="300.893,-770.0523 293.6866,-765.5904 296.5376,-773.5724 300.893,-770.0523"/>
</g>
<!-- praat_met_draak -->
<g id="node61" class="node">
<title>praat_met_draak</title>
<path fill="#3333aa" stroke="#3333aa" d="M438.811,-145.5C438.811,-145.5 523.3202,-145.5 523.3202,-145.5 529.3202,-145.5 535.3202,-151.5 535.3202,-157.5 535.3202,-157.5 535.3202,-169.5 535.3202,-169.5 535.3202,-175.5 529.3202,-181.5 523.3202,-181.5 523.3202,-181.5 438.811,-181.5 438.811,-181.5 432.811,-181.5 426.811,-175.5 426.811,-169.5 426.811,-169.5 426.811,-157.5 426.811,-157.5 426.811,-151.5 432.811,-145.5 438.811,-145.5"/>
<text text-anchor="middle" x="481.0656" y="-159.3" font-family="lato, roboto, helvetica" font-size="14.00" fill="#eeeeee">Praat Met Draak</text>
</g>
<!-- praat_met_dochter_van_bakker&#45;&gt;praat_met_draak -->
<g id="edge68" class="edge">
<title>praat_met_dochter_van_bakker&#45;&gt;praat_met_draak</title>
<path fill="none" stroke="#999999" d="M354.4695,-802.2241C392.031,-758.4085 481.0656,-642.5232 481.0656,-528.5 481.0656,-528.5 481.0656,-528.5 481.0656,-309.5 481.0656,-267.7434 481.0656,-219.2692 481.0656,-190.0145"/>
<polygon fill="#999999" stroke="#999999" points="483.8657,-189.9379 481.0656,-181.938 478.2657,-189.938 483.8657,-189.9379"/>
</g>
<!-- maak_drank_om_heks_bij_te_brengen&#45;&gt;maak_medicijn -->
<g id="edge52" class="edge">
<title>maak_drank_om_heks_bij_te_brengen&#45;&gt;maak_medicijn</title>
<path fill="none" stroke="#999999" d="M697.3128,-145.4551C685.7838,-135.8912 671.4894,-124.0334 659.1331,-113.7833"/>
<polygon fill="#999999" stroke="#999999" points="660.8181,-111.5431 652.8732,-108.5904 657.2427,-115.8531 660.8181,-111.5431"/>
</g>
<!-- vind_goud_in_bos -->
<g id="node57" class="node">
<title>vind_goud_in_bos</title>
<path fill="#008800" stroke="#008800" d="M871.5428,-729.5C871.5428,-729.5 966.5884,-729.5 966.5884,-729.5 972.5884,-729.5 978.5884,-735.5 978.5884,-741.5 978.5884,-741.5 978.5884,-753.5 978.5884,-753.5 978.5884,-759.5 972.5884,-765.5 966.5884,-765.5 966.5884,-765.5 871.5428,-765.5 871.5428,-765.5 865.5428,-765.5 859.5428,-759.5 859.5428,-753.5 859.5428,-753.5 859.5428,-741.5 859.5428,-741.5 859.5428,-735.5 865.5428,-729.5 871.5428,-729.5"/>
<text text-anchor="middle" x="919.0656" y="-743.3" font-family="lato, roboto, helvetica" font-size="14.00" fill="#eeeeee">Vind Goud In Bos</text>
</g>
<!-- vind_goud_in_bos&#45;&gt;maak_sieraad_bij_smid -->
<g id="edge54" class="edge">
<title>vind_goud_in_bos&#45;&gt;maak_sieraad_bij_smid</title>
<path fill="none" stroke="#999999" d="M919.0656,-729.4551C919.0656,-720.7686 919.0656,-710.1898 919.0656,-700.642"/>
<polygon fill="#999999" stroke="#999999" points="921.8657,-700.5903 919.0656,-692.5904 916.2657,-700.5904 921.8657,-700.5903"/>
</g>
<!-- pak_hout_in_bos&#45;&gt;repareer_houweel -->
<g id="edge73" class="edge">
<title>pak_hout_in_bos&#45;&gt;repareer_houweel</title>
<path fill="none" stroke="#999999" d="M1605.5712,-1605.4551C1580.3666,-1595.2332 1548.7003,-1582.3907 1522.3187,-1571.6916"/>
<polygon fill="#999999" stroke="#999999" points="1523.1378,-1569.0023 1514.672,-1568.5904 1521.0332,-1574.1918 1523.1378,-1569.0023"/>
</g>
<!-- maak_drank_om_met_draak_te_praten&#45;&gt;praat_met_draak -->
<g id="edge67" class="edge">
<title>maak_drank_om_met_draak_te_praten&#45;&gt;praat_met_draak</title>
<path fill="none" stroke="#999999" d="M589.4701,-218.4551C569.6525,-208.4087 544.8416,-195.8309 523.9588,-185.2445"/>
<polygon fill="#999999" stroke="#999999" points="525.1523,-182.7103 516.7507,-181.5904 522.6201,-187.7051 525.1523,-182.7103"/>
</g>
<!-- vind_runesteen_in_bos -->
<g id="node60" class="node">
<title>vind_runesteen_in_bos</title>
<path fill="#008800" stroke="#008800" d="M567.9383,-510.5C567.9383,-510.5 690.1929,-510.5 690.1929,-510.5 696.1929,-510.5 702.1929,-516.5 702.1929,-522.5 702.1929,-522.5 702.1929,-534.5 702.1929,-534.5 702.1929,-540.5 696.1929,-546.5 690.1929,-546.5 690.1929,-546.5 567.9383,-546.5 567.9383,-546.5 561.9383,-546.5 555.9383,-540.5 555.9383,-534.5 555.9383,-534.5 555.9383,-522.5 555.9383,-522.5 555.9383,-516.5 561.9383,-510.5 567.9383,-510.5"/>
<text text-anchor="middle" x="629.0656" y="-524.3" font-family="lato, roboto, helvetica" font-size="14.00" fill="#eeeeee">Vind Runesteen In Bos</text>
</g>
<!-- vind_runesteen_in_bos&#45;&gt;maak_drank_om_met_draak_te_praten -->
<g id="edge64" class="edge">
<title>vind_runesteen_in_bos&#45;&gt;maak_drank_om_met_draak_te_praten</title>
<path fill="none" stroke="#999999" d="M625.3248,-510.4467C620.4342,-485.8358 612.1304,-440.3154 609.0656,-401 605.258,-352.1558 613.6468,-295.2902 619.6568,-262.8309"/>
<polygon fill="#999999" stroke="#999999" points="622.4521,-263.1198 621.2006,-254.7368 616.9512,-262.0705 622.4521,-263.1198"/>
</g>
<!-- praat_met_draak&#45;&gt;zet_zadel_op_draak -->
<g id="edge96" class="edge">
<title>praat_met_draak&#45;&gt;zet_zadel_op_draak</title>
<path fill="none" stroke="#999999" d="M470.9308,-145.4551C465.9043,-136.5054 459.7495,-125.547 454.2622,-115.7769"/>
<polygon fill="#999999" stroke="#999999" points="456.5848,-114.1944 450.2259,-108.5904 451.7022,-116.9367 456.5848,-114.1944"/>
</g>
<!-- vind_onderbroek_bij_rivier&#45;&gt;repareer_molen_met_onderbroek -->
<g id="edge75" class="edge">
<title>vind_onderbroek_bij_rivier&#45;&gt;repareer_molen_met_onderbroek</title>
<path fill="none" stroke="#999999" d="M400.078,-1678.2049C410.7368,-1639.3001 435.6808,-1548.2544 447.9688,-1503.4032"/>
<polygon fill="#999999" stroke="#999999" points="450.6962,-1504.0446 450.1097,-1495.589 445.2953,-1502.5648 450.6962,-1504.0446"/>
</g>
<!-- volg_maansteen_route -->
<g id="node66" class="node">
<title>volg_maansteen_route</title>
<path fill="#008800" stroke="#008800" d="M840.527,-802.5C840.527,-802.5 961.6042,-802.5 961.6042,-802.5 967.6042,-802.5 973.6042,-808.5 973.6042,-814.5 973.6042,-814.5 973.6042,-826.5 973.6042,-826.5 973.6042,-832.5 967.6042,-838.5 961.6042,-838.5 961.6042,-838.5 840.527,-838.5 840.527,-838.5 834.527,-838.5 828.527,-832.5 828.527,-826.5 828.527,-826.5 828.527,-814.5 828.527,-814.5 828.527,-808.5 834.527,-802.5 840.527,-802.5"/>
<text text-anchor="middle" x="901.0656" y="-816.3" font-family="lato, roboto, helvetica" font-size="14.00" fill="#eeeeee">Volg Maansteen Route</text>
</g>
<!-- schat_route_compleet&#45;&gt;volg_maansteen_route -->
<g id="edge90" class="edge">
<title>schat_route_compleet&#45;&gt;volg_maansteen_route</title>
<path fill="none" stroke="#999999" d="M864.178,-875.4551C870.2441,-866.4177 877.6853,-855.3319 884.2915,-845.4899"/>
<polygon fill="#999999" stroke="#999999" points="886.789,-846.7933 888.9228,-838.5904 882.1393,-843.6722 886.789,-846.7933"/>
</g>
<!-- snij_touw_van_lift&#45;&gt;trek_tand_van_draak -->
<g id="edge82" class="edge">
<title>snij_touw_van_lift&#45;&gt;trek_tand_van_draak</title>
<path fill="none" stroke="#999999" d="M359.0656,-510.4551C359.0656,-501.7686 359.0656,-491.1898 359.0656,-481.642"/>
<polygon fill="#999999" stroke="#999999" points="361.8657,-481.5903 359.0656,-473.5904 356.2657,-481.5904 361.8657,-481.5903"/>
</g>
<!-- volg_maansteen_route&#45;&gt;vind_goud_in_bos -->
<g id="edge83" class="edge">
<title>volg_maansteen_route&#45;&gt;vind_goud_in_bos</title>
<path fill="none" stroke="#999999" d="M905.515,-802.4551C907.6569,-793.7686 910.2654,-783.1898 912.6196,-773.642"/>
<polygon fill="#999999" stroke="#999999" points="915.4082,-774.0281 914.605,-765.5904 909.9711,-772.6874 915.4082,-774.0281"/>
</g>
<!-- volg_maansteen_route&#45;&gt;vind_runesteen_in_bos -->
<g id="edge88" class="edge">
<title>volg_maansteen_route&#45;&gt;vind_runesteen_in_bos</title>
<path fill="none" stroke="#999999" d="M828.3835,-811.6865C794.7217,-804.3222 756.2566,-790.806 729.0656,-766 665.616,-708.1157 641.0932,-603.4888 632.7956,-554.7746"/>
<polygon fill="#999999" stroke="#999999" points="635.5186,-554.0742 631.4715,-546.6269 629.9911,-554.9725 635.5186,-554.0742"/>
</g>
<!-- vind_maansteen_in_moeras&#45;&gt;volg_maansteen_route -->
<g id="edge89" class="edge">
<title>vind_maansteen_in_moeras&#45;&gt;volg_maansteen_route</title>
<path fill="none" stroke="#999999" d="M994.4139,-875.4551C977.5724,-865.5403 956.5429,-853.16 938.7098,-842.6615"/>
<polygon fill="#999999" stroke="#999999" points="940.109,-840.2361 931.7944,-838.5904 937.268,-845.0619 940.109,-840.2361"/>
</g>
</g>
</svg>
