<?xml version="1.0" encoding="UTF-8" standalone="no"?>
<!DOCTYPE svg PUBLIC "-//W3C//DTD SVG 1.1//EN"
 "http://www.w3.org/Graphics/SVG/1.1/DTD/svg11.dtd">
<!-- Generated by graphviz version 2.40.1 (20161225.0304)
 -->
<!-- Title: G Pages: 1 -->
<svg width="1719pt" height="1681pt"
 viewBox="0.00 0.00 1719.08 1681.00" xmlns="http://www.w3.org/2000/svg" xmlns:xlink="http://www.w3.org/1999/xlink">
<g id="graph0" class="graph" transform="scale(1 1) rotate(0) translate(4 1677)">
<title>G</title>
<polygon fill="#ffffff" stroke="transparent" points="-4,4 -4,-1677 1715.0788,-1677 1715.0788,4 -4,4"/>
<text text-anchor="middle" x="855.5394" y="-1651" font-family="lato, roboto, helvetica" font-size="20.00" fill="#000000">Avontuur</text>
<!-- START -->
<g id="node1" class="node">
<title>START</title>
<polygon fill="#333333" stroke="#333333" points="750,-1641 691.294,-1623 750,-1605 808.706,-1623 750,-1641"/>
<polyline fill="none" stroke="#333333" points="702.7668,-1626.5177 702.7668,-1619.4823 "/>
<polyline fill="none" stroke="#333333" points="738.5272,-1608.5177 761.4728,-1608.5177 "/>
<polyline fill="none" stroke="#333333" points="797.2332,-1619.4823 797.2332,-1626.5177 "/>
<polyline fill="none" stroke="#333333" points="761.4728,-1637.4823 738.5272,-1637.4823 "/>
<text text-anchor="middle" x="750" y="-1618.8" font-family="lato, roboto, helvetica" font-size="14.00" fill="#dddddd">START</text>
</g>
<!-- betaal_twee_geldstukken -->
<g id="node5" class="node">
<title>betaal_twee_geldstukken</title>
<path fill="#008800" stroke="#008800" d="M331.6942,-1532.5C331.6942,-1532.5 468.3058,-1532.5 468.3058,-1532.5 474.3058,-1532.5 480.3058,-1538.5 480.3058,-1544.5 480.3058,-1544.5 480.3058,-1556.5 480.3058,-1556.5 480.3058,-1562.5 474.3058,-1568.5 468.3058,-1568.5 468.3058,-1568.5 331.6942,-1568.5 331.6942,-1568.5 325.6942,-1568.5 319.6942,-1562.5 319.6942,-1556.5 319.6942,-1556.5 319.6942,-1544.5 319.6942,-1544.5 319.6942,-1538.5 325.6942,-1532.5 331.6942,-1532.5"/>
<text text-anchor="middle" x="400" y="-1546.3" font-family="lato, roboto, helvetica" font-size="14.00" fill="#eeeeee">Betaal Twee Geldstukken</text>
</g>
<!-- START&#45;&gt;betaal_twee_geldstukken -->
<g id="edge3" class="edge">
<title>START&#45;&gt;betaal_twee_geldstukken</title>
<path fill="none" stroke="#999999" d="M714.8382,-1615.7165C662.3199,-1604.8377 561.7186,-1583.9988 488.3261,-1568.7961"/>
<polygon fill="#999999" stroke="#999999" points="488.8171,-1566.0385 480.4154,-1567.1575 487.6812,-1571.5221 488.8171,-1566.0385"/>
</g>
<!-- praat_met_bakker -->
<g id="node23" class="node">
<title>praat_met_bakker</title>
<path fill="#008800" stroke="#008800" d="M1195.6304,-1021.5C1195.6304,-1021.5 1286.3696,-1021.5 1286.3696,-1021.5 1292.3696,-1021.5 1298.3696,-1027.5 1298.3696,-1033.5 1298.3696,-1033.5 1298.3696,-1045.5 1298.3696,-1045.5 1298.3696,-1051.5 1292.3696,-1057.5 1286.3696,-1057.5 1286.3696,-1057.5 1195.6304,-1057.5 1195.6304,-1057.5 1189.6304,-1057.5 1183.6304,-1051.5 1183.6304,-1045.5 1183.6304,-1045.5 1183.6304,-1033.5 1183.6304,-1033.5 1183.6304,-1027.5 1189.6304,-1021.5 1195.6304,-1021.5"/>
<text text-anchor="middle" x="1241" y="-1035.3" font-family="lato, roboto, helvetica" font-size="14.00" fill="#eeeeee">Praat Met Bakker</text>
</g>
<!-- START&#45;&gt;praat_met_bakker -->
<g id="edge64" class="edge">
<title>START&#45;&gt;praat_met_bakker</title>
<path fill="none" stroke="#999999" d="M793.847,-1618.3639C872.347,-1609.6668 1033.5857,-1589.8883 1086,-1569 1152.9916,-1542.3023 1220,-1549.6155 1220,-1477.5 1220,-1477.5 1220,-1477.5 1220,-1185.5 1220,-1143.3137 1228.6962,-1094.9628 1234.8964,-1065.8507"/>
<polygon fill="#999999" stroke="#999999" points="1237.6796,-1066.2293 1236.6488,-1057.8164 1232.2082,-1065.0359 1237.6796,-1066.2293"/>
</g>
<!-- praat_met_dwerg -->
<g id="node25" class="node">
<title>praat_met_dwerg</title>
<path fill="#008800" stroke="#008800" d="M510.7994,-1532.5C510.7994,-1532.5 599.2006,-1532.5 599.2006,-1532.5 605.2006,-1532.5 611.2006,-1538.5 611.2006,-1544.5 611.2006,-1544.5 611.2006,-1556.5 611.2006,-1556.5 611.2006,-1562.5 605.2006,-1568.5 599.2006,-1568.5 599.2006,-1568.5 510.7994,-1568.5 510.7994,-1568.5 504.7994,-1568.5 498.7994,-1562.5 498.7994,-1556.5 498.7994,-1556.5 498.7994,-1544.5 498.7994,-1544.5 498.7994,-1538.5 504.7994,-1532.5 510.7994,-1532.5"/>
<text text-anchor="middle" x="555" y="-1546.3" font-family="lato, roboto, helvetica" font-size="14.00" fill="#eeeeee">Praat Met Dwerg</text>
</g>
<!-- START&#45;&gt;praat_met_dwerg -->
<g id="edge69" class="edge">
<title>START&#45;&gt;praat_met_dwerg</title>
<path fill="none" stroke="#999999" d="M723.295,-1613.0712C694.5675,-1602.3905 648.0499,-1585.0955 611.1934,-1571.3924"/>
<polygon fill="#999999" stroke="#999999" points="611.9594,-1568.69 603.4851,-1568.5265 610.0078,-1573.939 611.9594,-1568.69"/>
</g>
<!-- praat_met_smidsen -->
<g id="node33" class="node">
<title>praat_met_smidsen</title>
<path fill="#008800" stroke="#008800" d="M1054.7321,-1021.5C1054.7321,-1021.5 1153.2679,-1021.5 1153.2679,-1021.5 1159.2679,-1021.5 1165.2679,-1027.5 1165.2679,-1033.5 1165.2679,-1033.5 1165.2679,-1045.5 1165.2679,-1045.5 1165.2679,-1051.5 1159.2679,-1057.5 1153.2679,-1057.5 1153.2679,-1057.5 1054.7321,-1057.5 1054.7321,-1057.5 1048.7321,-1057.5 1042.7321,-1051.5 1042.7321,-1045.5 1042.7321,-1045.5 1042.7321,-1033.5 1042.7321,-1033.5 1042.7321,-1027.5 1048.7321,-1021.5 1054.7321,-1021.5"/>
<text text-anchor="middle" x="1104" y="-1035.3" font-family="lato, roboto, helvetica" font-size="14.00" fill="#eeeeee">Praat Met Smidsen</text>
</g>
<!-- START&#45;&gt;praat_met_smidsen -->
<g id="edge72" class="edge">
<title>START&#45;&gt;praat_met_smidsen</title>
<path fill="none" stroke="#999999" d="M794.6393,-1618.6609C848.0833,-1612.3838 939.5733,-1598.1674 1013,-1569 1084.8709,-1540.4506 1161,-1554.8337 1161,-1477.5 1161,-1477.5 1161,-1477.5 1161,-1185.5 1161,-1140.539 1137.2537,-1092.794 1120.4151,-1064.5897"/>
<polygon fill="#999999" stroke="#999999" points="1122.6501,-1062.8775 1116.0882,-1057.5126 1117.8723,-1065.7986 1122.6501,-1062.8775"/>
</g>
<!-- praat_met_boer -->
<g id="node34" class="node">
<title>praat_met_boer</title>
<path fill="#008800" stroke="#008800" d="M886.2377,-1532.5C886.2377,-1532.5 963.7623,-1532.5 963.7623,-1532.5 969.7623,-1532.5 975.7623,-1538.5 975.7623,-1544.5 975.7623,-1544.5 975.7623,-1556.5 975.7623,-1556.5 975.7623,-1562.5 969.7623,-1568.5 963.7623,-1568.5 963.7623,-1568.5 886.2377,-1568.5 886.2377,-1568.5 880.2377,-1568.5 874.2377,-1562.5 874.2377,-1556.5 874.2377,-1556.5 874.2377,-1544.5 874.2377,-1544.5 874.2377,-1538.5 880.2377,-1532.5 886.2377,-1532.5"/>
<text text-anchor="middle" x="925" y="-1546.3" font-family="lato, roboto, helvetica" font-size="14.00" fill="#eeeeee">Praat Met Boer</text>
</g>
<!-- START&#45;&gt;praat_met_boer -->
<g id="edge65" class="edge">
<title>START&#45;&gt;praat_met_boer</title>
<path fill="none" stroke="#999999" d="M775.0732,-1612.6125C800.7094,-1601.9918 841.2634,-1585.1909 873.7329,-1571.7392"/>
<polygon fill="#999999" stroke="#999999" points="875.0551,-1574.2223 881.3743,-1568.5735 872.9117,-1569.0487 875.0551,-1574.2223"/>
</g>
<!-- praat_met_molenaar -->
<g id="node35" class="node">
<title>praat_met_molenaar</title>
<path fill="#008800" stroke="#008800" d="M1017.0238,-1167.5C1017.0238,-1167.5 1120.9762,-1167.5 1120.9762,-1167.5 1126.9762,-1167.5 1132.9762,-1173.5 1132.9762,-1179.5 1132.9762,-1179.5 1132.9762,-1191.5 1132.9762,-1191.5 1132.9762,-1197.5 1126.9762,-1203.5 1120.9762,-1203.5 1120.9762,-1203.5 1017.0238,-1203.5 1017.0238,-1203.5 1011.0238,-1203.5 1005.0238,-1197.5 1005.0238,-1191.5 1005.0238,-1191.5 1005.0238,-1179.5 1005.0238,-1179.5 1005.0238,-1173.5 1011.0238,-1167.5 1017.0238,-1167.5"/>
<text text-anchor="middle" x="1069" y="-1181.3" font-family="lato, roboto, helvetica" font-size="14.00" fill="#eeeeee">Praat Met Molenaar</text>
</g>
<!-- START&#45;&gt;praat_met_molenaar -->
<g id="edge71" class="edge">
<title>START&#45;&gt;praat_met_molenaar</title>
<path fill="none" stroke="#999999" d="M792.7555,-1617.9473C852.3799,-1610.1204 956.4146,-1593.3815 985,-1569 1018.3746,-1540.5336 1022,-1521.3657 1022,-1477.5 1022,-1477.5 1022,-1477.5 1022,-1331.5 1022,-1287.501 1041.5803,-1239.4762 1055.4648,-1210.9525"/>
<polygon fill="#999999" stroke="#999999" points="1057.972,-1212.199 1059.0325,-1203.7897 1052.9594,-1209.7022 1057.972,-1212.199"/>
</g>
<!-- pak_touw_op_boerderij -->
<g id="node41" class="node">
<title>pak_touw_op_boerderij</title>
<path fill="#008800" stroke="#008800" d="M393.9344,-510.5C393.9344,-510.5 520.0656,-510.5 520.0656,-510.5 526.0656,-510.5 532.0656,-516.5 532.0656,-522.5 532.0656,-522.5 532.0656,-534.5 532.0656,-534.5 532.0656,-540.5 526.0656,-546.5 520.0656,-546.5 520.0656,-546.5 393.9344,-546.5 393.9344,-546.5 387.9344,-546.5 381.9344,-540.5 381.9344,-534.5 381.9344,-534.5 381.9344,-522.5 381.9344,-522.5 381.9344,-516.5 387.9344,-510.5 393.9344,-510.5"/>
<text text-anchor="middle" x="457" y="-524.3" font-family="lato, roboto, helvetica" font-size="14.00" fill="#eeeeee">Pak Touw Op Boerderij</text>
</g>
<!-- START&#45;&gt;pak_touw_op_boerderij -->
<g id="edge61" class="edge">
<title>START&#45;&gt;pak_touw_op_boerderij</title>
<path fill="none" stroke="#999999" d="M696.5595,-1621.3555C602.5784,-1617.5844 402.0244,-1605.5996 237,-1569 126.7675,-1544.5523 0,-1590.411 0,-1477.5 0,-1477.5 0,-1477.5 0,-674.5 0,-596.9454 241.8336,-554.9645 373.6595,-537.8415"/>
<polygon fill="#999999" stroke="#999999" points="374.213,-540.5935 381.7918,-536.7986 373.5006,-535.039 374.213,-540.5935"/>
</g>
<!-- pak_hout_in_bos -->
<g id="node58" class="node">
<title>pak_hout_in_bos</title>
<path fill="#008800" stroke="#008800" d="M123.5319,-1459.5C123.5319,-1459.5 208.4681,-1459.5 208.4681,-1459.5 214.4681,-1459.5 220.4681,-1465.5 220.4681,-1471.5 220.4681,-1471.5 220.4681,-1483.5 220.4681,-1483.5 220.4681,-1489.5 214.4681,-1495.5 208.4681,-1495.5 208.4681,-1495.5 123.5319,-1495.5 123.5319,-1495.5 117.5319,-1495.5 111.5319,-1489.5 111.5319,-1483.5 111.5319,-1483.5 111.5319,-1471.5 111.5319,-1471.5 111.5319,-1465.5 117.5319,-1459.5 123.5319,-1459.5"/>
<text text-anchor="middle" x="166" y="-1473.3" font-family="lato, roboto, helvetica" font-size="14.00" fill="#eeeeee">Pak Hout In Bos</text>
</g>
<!-- START&#45;&gt;pak_hout_in_bos -->
<g id="edge58" class="edge">
<title>START&#45;&gt;pak_hout_in_bos</title>
<path fill="none" stroke="#999999" d="M701.7715,-1619.74C603.2417,-1612.6454 382.1502,-1594.3816 311,-1569 266.8758,-1553.2595 222.2019,-1522.2903 194.3309,-1500.7661"/>
<polygon fill="#999999" stroke="#999999" points="195.9873,-1498.5069 187.9607,-1495.7842 192.5375,-1502.9181 195.9873,-1498.5069"/>
</g>
<!-- vind_onderbroek_bij_rivier -->
<g id="node61" class="node">
<title>vind_onderbroek_bij_rivier</title>
<path fill="#008800" stroke="#008800" d="M675.2675,-1532.5C675.2675,-1532.5 824.7325,-1532.5 824.7325,-1532.5 830.7325,-1532.5 836.7325,-1538.5 836.7325,-1544.5 836.7325,-1544.5 836.7325,-1556.5 836.7325,-1556.5 836.7325,-1562.5 830.7325,-1568.5 824.7325,-1568.5 824.7325,-1568.5 675.2675,-1568.5 675.2675,-1568.5 669.2675,-1568.5 663.2675,-1562.5 663.2675,-1556.5 663.2675,-1556.5 663.2675,-1544.5 663.2675,-1544.5 663.2675,-1538.5 669.2675,-1532.5 675.2675,-1532.5"/>
<text text-anchor="middle" x="750" y="-1546.3" font-family="lato, roboto, helvetica" font-size="14.00" fill="#eeeeee">Vind Onderbroek Bij Rivier</text>
</g>
<!-- START&#45;&gt;vind_onderbroek_bij_rivier -->
<g id="edge86" class="edge">
<title>START&#45;&gt;vind_onderbroek_bij_rivier</title>
<path fill="none" stroke="#999999" d="M750,-1604.7052C750,-1596.2264 750,-1585.9943 750,-1576.7146"/>
<polygon fill="#999999" stroke="#999999" points="752.8001,-1576.5378 750,-1568.5378 747.2001,-1576.5378 752.8001,-1576.5378"/>
</g>
<!-- beklim_toren -->
<g id="node2" class="node">
<title>beklim_toren</title>
<path fill="#3333aa" stroke="#3333aa" d="M807.9246,-729.5C807.9246,-729.5 878.0754,-729.5 878.0754,-729.5 884.0754,-729.5 890.0754,-735.5 890.0754,-741.5 890.0754,-741.5 890.0754,-753.5 890.0754,-753.5 890.0754,-759.5 884.0754,-765.5 878.0754,-765.5 878.0754,-765.5 807.9246,-765.5 807.9246,-765.5 801.9246,-765.5 795.9246,-759.5 795.9246,-753.5 795.9246,-753.5 795.9246,-741.5 795.9246,-741.5 795.9246,-735.5 801.9246,-729.5 807.9246,-729.5"/>
<text text-anchor="middle" x="843" y="-743.3" font-family="lato, roboto, helvetica" font-size="14.00" fill="#eeeeee">Beklim Toren</text>
</g>
<!-- praat_met_dochter_van_bakker -->
<g id="node56" class="node">
<title>praat_met_dochter_van_bakker</title>
<path fill="#3333aa" stroke="#3333aa" d="M712.9263,-656.5C712.9263,-656.5 879.0737,-656.5 879.0737,-656.5 885.0737,-656.5 891.0737,-662.5 891.0737,-668.5 891.0737,-668.5 891.0737,-680.5 891.0737,-680.5 891.0737,-686.5 885.0737,-692.5 879.0737,-692.5 879.0737,-692.5 712.9263,-692.5 712.9263,-692.5 706.9263,-692.5 700.9263,-686.5 700.9263,-680.5 700.9263,-680.5 700.9263,-668.5 700.9263,-668.5 700.9263,-662.5 706.9263,-656.5 712.9263,-656.5"/>
<text text-anchor="middle" x="796" y="-670.3" font-family="lato, roboto, helvetica" font-size="14.00" fill="#eeeeee">Praat Met Dochter Van Bakker</text>
</g>
<!-- beklim_toren&#45;&gt;praat_met_dochter_van_bakker -->
<g id="edge66" class="edge">
<title>beklim_toren&#45;&gt;praat_met_dochter_van_bakker</title>
<path fill="none" stroke="#999999" d="M831.382,-729.4551C825.5634,-720.4177 818.426,-709.3319 812.0894,-699.4899"/>
<polygon fill="#999999" stroke="#999999" points="814.3322,-697.801 807.6472,-692.5904 809.6237,-700.8326 814.3322,-697.801"/>
</g>
<!-- koop_zwaard_voor_99_bij_wapensmid -->
<g id="node3" class="node">
<title>koop_zwaard_voor_99_bij_wapensmid</title>
<path fill="#008800" stroke="#008800" d="M882.9449,-802.5C882.9449,-802.5 1093.0551,-802.5 1093.0551,-802.5 1099.0551,-802.5 1105.0551,-808.5 1105.0551,-814.5 1105.0551,-814.5 1105.0551,-826.5 1105.0551,-826.5 1105.0551,-832.5 1099.0551,-838.5 1093.0551,-838.5 1093.0551,-838.5 882.9449,-838.5 882.9449,-838.5 876.9449,-838.5 870.9449,-832.5 870.9449,-826.5 870.9449,-826.5 870.9449,-814.5 870.9449,-814.5 870.9449,-808.5 876.9449,-802.5 882.9449,-802.5"/>
<text text-anchor="middle" x="988" y="-816.3" font-family="lato, roboto, helvetica" font-size="14.00" fill="#eeeeee">Koop Zwaard Voor 99 Bij Wapensmid</text>
</g>
<!-- koop_zwaard_voor_99_bij_wapensmid&#45;&gt;beklim_toren -->
<g id="edge1" class="edge">
<title>koop_zwaard_voor_99_bij_wapensmid&#45;&gt;beklim_toren</title>
<path fill="none" stroke="#999999" d="M952.1573,-802.4551C932.2021,-792.4087 907.2189,-779.8309 886.191,-769.2445"/>
<polygon fill="#999999" stroke="#999999" points="887.3376,-766.6869 878.9329,-765.5904 884.8193,-771.6888 887.3376,-766.6869"/>
</g>
<!-- snij_touw_van_lift -->
<g id="node63" class="node">
<title>snij_touw_van_lift</title>
<path fill="#3333aa" stroke="#3333aa" d="M712.9807,-364.5C712.9807,-364.5 815.0193,-364.5 815.0193,-364.5 821.0193,-364.5 827.0193,-370.5 827.0193,-376.5 827.0193,-376.5 827.0193,-388.5 827.0193,-388.5 827.0193,-394.5 821.0193,-400.5 815.0193,-400.5 815.0193,-400.5 712.9807,-400.5 712.9807,-400.5 706.9807,-400.5 700.9807,-394.5 700.9807,-388.5 700.9807,-388.5 700.9807,-376.5 700.9807,-376.5 700.9807,-370.5 706.9807,-364.5 712.9807,-364.5"/>
<text text-anchor="middle" x="764" y="-378.3" font-family="lato, roboto, helvetica" font-size="14.00" fill="#eeeeee">Snij Touw Van Lift</text>
</g>
<!-- koop_zwaard_voor_99_bij_wapensmid&#45;&gt;snij_touw_van_lift -->
<g id="edge78" class="edge">
<title>koop_zwaard_voor_99_bij_wapensmid&#45;&gt;snij_touw_van_lift</title>
<path fill="none" stroke="#999999" d="M978.6602,-802.2373C943.3666,-733.2258 818.0596,-488.2059 777.0767,-408.0696"/>
<polygon fill="#999999" stroke="#999999" points="779.5153,-406.6883 773.3797,-400.8406 774.5294,-409.2382 779.5153,-406.6883"/>
</g>
<!-- genoeg_info_over_monster -->
<g id="node4" class="node">
<title>genoeg_info_over_monster</title>
<path fill="#3333aa" stroke="#3333aa" d="M903.0031,-948.5C903.0031,-948.5 1046.9969,-948.5 1046.9969,-948.5 1052.9969,-948.5 1058.9969,-954.5 1058.9969,-960.5 1058.9969,-960.5 1058.9969,-972.5 1058.9969,-972.5 1058.9969,-978.5 1052.9969,-984.5 1046.9969,-984.5 1046.9969,-984.5 903.0031,-984.5 903.0031,-984.5 897.0031,-984.5 891.0031,-978.5 891.0031,-972.5 891.0031,-972.5 891.0031,-960.5 891.0031,-960.5 891.0031,-954.5 897.0031,-948.5 903.0031,-948.5"/>
<text text-anchor="middle" x="975" y="-962.3" font-family="lato, roboto, helvetica" font-size="14.00" fill="#eeeeee">Genoeg Info Over Monster</text>
</g>
<!-- genoeg_info_over_monster&#45;&gt;beklim_toren -->
<g id="edge2" class="edge">
<title>genoeg_info_over_monster&#45;&gt;beklim_toren</title>
<path fill="none" stroke="#999999" d="M952.9438,-948.2173C926.9787,-925.4217 884.5459,-883.9442 862,-839 851.717,-818.5013 846.997,-792.7435 844.8317,-773.7838"/>
<polygon fill="#999999" stroke="#999999" points="847.5945,-773.2729 844.0059,-765.5942 842.0228,-773.8348 847.5945,-773.2729"/>
</g>
<!-- _0 -->
<g id="node7" class="node">
<title>_0</title>
<polygon fill="#888888" stroke="#888888" points="64,-1495.5 33.9733,-1477.5 64,-1459.5 94.0267,-1477.5 64,-1495.5"/>
<polyline fill="none" stroke="#888888" points="43.9822,-1483.5 43.9822,-1471.5 "/>
<polyline fill="none" stroke="#888888" points="53.9911,-1465.5 74.0089,-1465.5 "/>
<polyline fill="none" stroke="#888888" points="84.0178,-1471.5 84.0178,-1483.5 "/>
<polyline fill="none" stroke="#888888" points="74.0089,-1489.5 53.9911,-1489.5 "/>
<text text-anchor="middle" x="64" y="-1473.3" font-family="lato, roboto, helvetica" font-size="14.00" fill="#eeeeee">Or</text>
</g>
<!-- betaal_twee_geldstukken&#45;&gt;_0 -->
<g id="edge5" class="edge">
<title>betaal_twee_geldstukken&#45;&gt;_0</title>
<path fill="none" stroke="#999999" stroke-dasharray="5,2" d="M319.5018,-1541.52C258.9481,-1533.3833 174.4663,-1519.0664 103,-1496 97.8518,-1494.3384 92.5059,-1492.1428 87.4833,-1489.8466"/>
<polygon fill="#999999" stroke="#999999" points="88.3548,-1487.1589 79.9314,-1486.2177 85.9293,-1492.2064 88.3548,-1487.1589"/>
</g>
<!-- _1 -->
<g id="node43" class="node">
<title>_1</title>
<polygon fill="#888888" stroke="#888888" points="502,-838.5 471.9733,-820.5 502,-802.5 532.0267,-820.5 502,-838.5"/>
<polyline fill="none" stroke="#888888" points="481.9822,-826.5 481.9822,-814.5 "/>
<polyline fill="none" stroke="#888888" points="491.9911,-808.5 512.0089,-808.5 "/>
<polyline fill="none" stroke="#888888" points="522.0178,-814.5 522.0178,-826.5 "/>
<polyline fill="none" stroke="#888888" points="512.0089,-832.5 491.9911,-832.5 "/>
<text text-anchor="middle" x="502" y="-816.3" font-family="lato, roboto, helvetica" font-size="14.00" fill="#eeeeee">Or</text>
</g>
<!-- betaal_twee_geldstukken&#45;&gt;_1 -->
<g id="edge33" class="edge">
<title>betaal_twee_geldstukken&#45;&gt;_1</title>
<path fill="none" stroke="#999999" stroke-dasharray="5,2" d="M430.6512,-1532.3946C443.134,-1523.2232 456.2051,-1510.8627 463,-1496 507.0597,-1399.6266 442,-1364.4674 442,-1258.5 442,-1258.5 442,-1258.5 442,-966.5 442,-924.9658 443.8801,-912.8417 461,-875 467.0853,-861.5491 476.9691,-848.2721 485.5076,-838.1905"/>
<polygon fill="#999999" stroke="#999999" points="487.7125,-839.9226 490.871,-832.0572 483.497,-836.2363 487.7125,-839.9226"/>
</g>
<!-- betaal_twee_goudstukken_aan_hoefsmid -->
<g id="node6" class="node">
<title>betaal_twee_goudstukken_aan_hoefsmid</title>
<path fill="#008800" stroke="#008800" d="M77.9824,-1386.5C77.9824,-1386.5 304.0176,-1386.5 304.0176,-1386.5 310.0176,-1386.5 316.0176,-1392.5 316.0176,-1398.5 316.0176,-1398.5 316.0176,-1410.5 316.0176,-1410.5 316.0176,-1416.5 310.0176,-1422.5 304.0176,-1422.5 304.0176,-1422.5 77.9824,-1422.5 77.9824,-1422.5 71.9824,-1422.5 65.9824,-1416.5 65.9824,-1410.5 65.9824,-1410.5 65.9824,-1398.5 65.9824,-1398.5 65.9824,-1392.5 71.9824,-1386.5 77.9824,-1386.5"/>
<text text-anchor="middle" x="191" y="-1400.3" font-family="lato, roboto, helvetica" font-size="14.00" fill="#eeeeee">Betaal Twee Goudstukken Aan Hoefsmid</text>
</g>
<!-- geef_paard_nieuwe_hoefijzers -->
<g id="node29" class="node">
<title>geef_paard_nieuwe_hoefijzers</title>
<path fill="#008800" stroke="#008800" d="M520.3004,-1313.5C520.3004,-1313.5 683.6996,-1313.5 683.6996,-1313.5 689.6996,-1313.5 695.6996,-1319.5 695.6996,-1325.5 695.6996,-1325.5 695.6996,-1337.5 695.6996,-1337.5 695.6996,-1343.5 689.6996,-1349.5 683.6996,-1349.5 683.6996,-1349.5 520.3004,-1349.5 520.3004,-1349.5 514.3004,-1349.5 508.3004,-1343.5 508.3004,-1337.5 508.3004,-1337.5 508.3004,-1325.5 508.3004,-1325.5 508.3004,-1319.5 514.3004,-1313.5 520.3004,-1313.5"/>
<text text-anchor="middle" x="602" y="-1327.3" font-family="lato, roboto, helvetica" font-size="14.00" fill="#eeeeee">Geef Paard Nieuwe Hoefijzers</text>
</g>
<!-- betaal_twee_goudstukken_aan_hoefsmid&#45;&gt;geef_paard_nieuwe_hoefijzers -->
<g id="edge19" class="edge">
<title>betaal_twee_goudstukken_aan_hoefsmid&#45;&gt;geef_paard_nieuwe_hoefijzers</title>
<path fill="none" stroke="#999999" d="M292.5955,-1386.4551C355.8552,-1375.2192 436.9413,-1360.817 500.2331,-1349.5754"/>
<polygon fill="#999999" stroke="#999999" points="500.8666,-1352.3068 508.2536,-1348.1508 499.8872,-1346.7931 500.8666,-1352.3068"/>
</g>
<!-- _0&#45;&gt;betaal_twee_goudstukken_aan_hoefsmid -->
<g id="edge4" class="edge">
<title>_0&#45;&gt;betaal_twee_goudstukken_aan_hoefsmid</title>
<path fill="none" stroke="#999999" d="M79.5727,-1468.5488C97.5978,-1458.1879 127.941,-1440.7465 152.4154,-1426.6785"/>
<polygon fill="#999999" stroke="#999999" points="153.9337,-1429.0355 159.4742,-1422.6211 151.1429,-1424.1804 153.9337,-1429.0355"/>
</g>
<!-- krijg_geldstuk_van_smid -->
<g id="node8" class="node">
<title>krijg_geldstuk_van_smid</title>
<path fill="#3333aa" stroke="#3333aa" d="M842.2598,-437.5C842.2598,-437.5 977.7402,-437.5 977.7402,-437.5 983.7402,-437.5 989.7402,-443.5 989.7402,-449.5 989.7402,-449.5 989.7402,-461.5 989.7402,-461.5 989.7402,-467.5 983.7402,-473.5 977.7402,-473.5 977.7402,-473.5 842.2598,-473.5 842.2598,-473.5 836.2598,-473.5 830.2598,-467.5 830.2598,-461.5 830.2598,-461.5 830.2598,-449.5 830.2598,-449.5 830.2598,-443.5 836.2598,-437.5 842.2598,-437.5"/>
<text text-anchor="middle" x="910" y="-451.3" font-family="lato, roboto, helvetica" font-size="14.00" fill="#eeeeee">Krijg Geldstuk Van Smid</text>
</g>
<!-- krijg_geldstuk_van_smid&#45;&gt;_0 -->
<g id="edge6" class="edge">
<title>krijg_geldstuk_van_smid&#45;&gt;_0</title>
<path fill="none" stroke="#999999" stroke-dasharray="5,2" d="M891.5316,-473.7188C868.2147,-495.4429 825.8262,-530.8398 782,-547 694.5246,-579.2551 435.1121,-522.7056 364,-583 229.818,-696.7699 266,-790.5784 266,-966.5 266,-1039.5 266,-1039.5 266,-1039.5 266,-1219.3453 105.2087,-1212.7364 57,-1386 50.7412,-1408.4944 53.9426,-1435.2211 57.8239,-1453.9622"/>
<polygon fill="#999999" stroke="#999999" points="55.1369,-1454.7762 59.6234,-1461.9672 60.6005,-1453.5478 55.1369,-1454.7762"/>
</g>
<!-- bezorg_graan_bij_molenaar -->
<g id="node9" class="node">
<title>bezorg_graan_bij_molenaar</title>
<path fill="#008800" stroke="#008800" d="M719.0599,-1094.5C719.0599,-1094.5 866.9401,-1094.5 866.9401,-1094.5 872.9401,-1094.5 878.9401,-1100.5 878.9401,-1106.5 878.9401,-1106.5 878.9401,-1118.5 878.9401,-1118.5 878.9401,-1124.5 872.9401,-1130.5 866.9401,-1130.5 866.9401,-1130.5 719.0599,-1130.5 719.0599,-1130.5 713.0599,-1130.5 707.0599,-1124.5 707.0599,-1118.5 707.0599,-1118.5 707.0599,-1106.5 707.0599,-1106.5 707.0599,-1100.5 713.0599,-1094.5 719.0599,-1094.5"/>
<text text-anchor="middle" x="793" y="-1108.3" font-family="lato, roboto, helvetica" font-size="14.00" fill="#eeeeee">Bezorg Graan Bij Molenaar</text>
</g>
<!-- krijg_meel_bij_molenaar -->
<g id="node12" class="node">
<title>krijg_meel_bij_molenaar</title>
<path fill="#008800" stroke="#008800" d="M727.2149,-1021.5C727.2149,-1021.5 858.7851,-1021.5 858.7851,-1021.5 864.7851,-1021.5 870.7851,-1027.5 870.7851,-1033.5 870.7851,-1033.5 870.7851,-1045.5 870.7851,-1045.5 870.7851,-1051.5 864.7851,-1057.5 858.7851,-1057.5 858.7851,-1057.5 727.2149,-1057.5 727.2149,-1057.5 721.2149,-1057.5 715.2149,-1051.5 715.2149,-1045.5 715.2149,-1045.5 715.2149,-1033.5 715.2149,-1033.5 715.2149,-1027.5 721.2149,-1021.5 727.2149,-1021.5"/>
<text text-anchor="middle" x="793" y="-1035.3" font-family="lato, roboto, helvetica" font-size="14.00" fill="#eeeeee">Krijg Meel Bij Molenaar</text>
</g>
<!-- bezorg_graan_bij_molenaar&#45;&gt;krijg_meel_bij_molenaar -->
<g id="edge48" class="edge">
<title>bezorg_graan_bij_molenaar&#45;&gt;krijg_meel_bij_molenaar</title>
<path fill="none" stroke="#999999" d="M793,-1094.4551C793,-1085.7686 793,-1075.1898 793,-1065.642"/>
<polygon fill="#999999" stroke="#999999" points="795.8001,-1065.5903 793,-1057.5904 790.2001,-1065.5904 795.8001,-1065.5903"/>
</g>
<!-- zet_graan_op_wagen -->
<g id="node10" class="node">
<title>zet_graan_op_wagen</title>
<path fill="#008800" stroke="#008800" d="M736.9477,-1167.5C736.9477,-1167.5 849.0523,-1167.5 849.0523,-1167.5 855.0523,-1167.5 861.0523,-1173.5 861.0523,-1179.5 861.0523,-1179.5 861.0523,-1191.5 861.0523,-1191.5 861.0523,-1197.5 855.0523,-1203.5 849.0523,-1203.5 849.0523,-1203.5 736.9477,-1203.5 736.9477,-1203.5 730.9477,-1203.5 724.9477,-1197.5 724.9477,-1191.5 724.9477,-1191.5 724.9477,-1179.5 724.9477,-1179.5 724.9477,-1173.5 730.9477,-1167.5 736.9477,-1167.5"/>
<text text-anchor="middle" x="793" y="-1181.3" font-family="lato, roboto, helvetica" font-size="14.00" fill="#eeeeee">Zet Graan Op Wagen</text>
</g>
<!-- zet_graan_op_wagen&#45;&gt;bezorg_graan_bij_molenaar -->
<g id="edge7" class="edge">
<title>zet_graan_op_wagen&#45;&gt;bezorg_graan_bij_molenaar</title>
<path fill="none" stroke="#999999" d="M793,-1167.4551C793,-1158.7686 793,-1148.1898 793,-1138.642"/>
<polygon fill="#999999" stroke="#999999" points="795.8001,-1138.5903 793,-1130.5904 790.2001,-1138.5904 795.8001,-1138.5903"/>
</g>
<!-- bezorg_meel_bij_bakker -->
<g id="node11" class="node">
<title>bezorg_meel_bij_bakker</title>
<path fill="#008800" stroke="#008800" d="M667.3825,-948.5C667.3825,-948.5 796.6175,-948.5 796.6175,-948.5 802.6175,-948.5 808.6175,-954.5 808.6175,-960.5 808.6175,-960.5 808.6175,-972.5 808.6175,-972.5 808.6175,-978.5 802.6175,-984.5 796.6175,-984.5 796.6175,-984.5 667.3825,-984.5 667.3825,-984.5 661.3825,-984.5 655.3825,-978.5 655.3825,-972.5 655.3825,-972.5 655.3825,-960.5 655.3825,-960.5 655.3825,-954.5 661.3825,-948.5 667.3825,-948.5"/>
<text text-anchor="middle" x="732" y="-962.3" font-family="lato, roboto, helvetica" font-size="14.00" fill="#eeeeee">Bezorg Meel Bij Bakker</text>
</g>
<!-- zet_molensteen_op_wagen -->
<g id="node19" class="node">
<title>zet_molensteen_op_wagen</title>
<path fill="#3333aa" stroke="#3333aa" d="M660.3888,-875.5C660.3888,-875.5 803.6112,-875.5 803.6112,-875.5 809.6112,-875.5 815.6112,-881.5 815.6112,-887.5 815.6112,-887.5 815.6112,-899.5 815.6112,-899.5 815.6112,-905.5 809.6112,-911.5 803.6112,-911.5 803.6112,-911.5 660.3888,-911.5 660.3888,-911.5 654.3888,-911.5 648.3888,-905.5 648.3888,-899.5 648.3888,-899.5 648.3888,-887.5 648.3888,-887.5 648.3888,-881.5 654.3888,-875.5 660.3888,-875.5"/>
<text text-anchor="middle" x="732" y="-889.3" font-family="lato, roboto, helvetica" font-size="14.00" fill="#eeeeee">Zet Molensteen Op Wagen</text>
</g>
<!-- bezorg_meel_bij_bakker&#45;&gt;zet_molensteen_op_wagen -->
<g id="edge93" class="edge">
<title>bezorg_meel_bij_bakker&#45;&gt;zet_molensteen_op_wagen</title>
<path fill="none" stroke="#999999" d="M732,-948.4551C732,-939.7686 732,-929.1898 732,-919.642"/>
<polygon fill="#999999" stroke="#999999" points="734.8001,-919.5903 732,-911.5904 729.2001,-919.5904 734.8001,-919.5903"/>
</g>
<!-- krijg_100_geld_van_meel -->
<g id="node44" class="node">
<title>krijg_100_geld_van_meel</title>
<path fill="#008800" stroke="#008800" d="M482.0771,-875.5C482.0771,-875.5 617.9229,-875.5 617.9229,-875.5 623.9229,-875.5 629.9229,-881.5 629.9229,-887.5 629.9229,-887.5 629.9229,-899.5 629.9229,-899.5 629.9229,-905.5 623.9229,-911.5 617.9229,-911.5 617.9229,-911.5 482.0771,-911.5 482.0771,-911.5 476.0771,-911.5 470.0771,-905.5 470.0771,-899.5 470.0771,-899.5 470.0771,-887.5 470.0771,-887.5 470.0771,-881.5 476.0771,-875.5 482.0771,-875.5"/>
<text text-anchor="middle" x="550" y="-889.3" font-family="lato, roboto, helvetica" font-size="14.00" fill="#eeeeee">Krijg 100 Geld Van Meel</text>
</g>
<!-- bezorg_meel_bij_bakker&#45;&gt;krijg_100_geld_van_meel -->
<g id="edge37" class="edge">
<title>bezorg_meel_bij_bakker&#45;&gt;krijg_100_geld_van_meel</title>
<path fill="none" stroke="#999999" d="M687.0112,-948.4551C661.5265,-938.2332 629.5084,-925.3907 602.8337,-914.6916"/>
<polygon fill="#999999" stroke="#999999" points="603.5694,-911.9698 595.102,-911.5904 601.4846,-917.1673 603.5694,-911.9698"/>
</g>
<!-- krijg_meel_bij_molenaar&#45;&gt;bezorg_meel_bij_bakker -->
<g id="edge8" class="edge">
<title>krijg_meel_bij_molenaar&#45;&gt;bezorg_meel_bij_bakker</title>
<path fill="none" stroke="#999999" d="M777.9213,-1021.4551C770.2229,-1012.2422 760.7457,-1000.9006 752.4041,-990.918"/>
<polygon fill="#999999" stroke="#999999" points="754.395,-988.9338 747.1166,-984.5904 750.0978,-992.5247 754.395,-988.9338"/>
</g>
<!-- breng_dochter_naar_bakker -->
<g id="node13" class="node">
<title>breng_dochter_naar_bakker</title>
<path fill="#3333aa" stroke="#3333aa" d="M790.2892,-218.5C790.2892,-218.5 939.7108,-218.5 939.7108,-218.5 945.7108,-218.5 951.7108,-224.5 951.7108,-230.5 951.7108,-230.5 951.7108,-242.5 951.7108,-242.5 951.7108,-248.5 945.7108,-254.5 939.7108,-254.5 939.7108,-254.5 790.2892,-254.5 790.2892,-254.5 784.2892,-254.5 778.2892,-248.5 778.2892,-242.5 778.2892,-242.5 778.2892,-230.5 778.2892,-230.5 778.2892,-224.5 784.2892,-218.5 790.2892,-218.5"/>
<text text-anchor="middle" x="865" y="-232.3" font-family="lato, roboto, helvetica" font-size="14.00" fill="#eeeeee">Breng Dochter Naar Bakker</text>
</g>
<!-- krijg_appel_taart_van_bakker -->
<g id="node45" class="node">
<title>krijg_appel_taart_van_bakker</title>
<path fill="#3333aa" stroke="#3333aa" d="M780.4796,-145.5C780.4796,-145.5 943.5204,-145.5 943.5204,-145.5 949.5204,-145.5 955.5204,-151.5 955.5204,-157.5 955.5204,-157.5 955.5204,-169.5 955.5204,-169.5 955.5204,-175.5 949.5204,-181.5 943.5204,-181.5 943.5204,-181.5 780.4796,-181.5 780.4796,-181.5 774.4796,-181.5 768.4796,-175.5 768.4796,-169.5 768.4796,-169.5 768.4796,-157.5 768.4796,-157.5 768.4796,-151.5 774.4796,-145.5 780.4796,-145.5"/>
<text text-anchor="middle" x="862" y="-159.3" font-family="lato, roboto, helvetica" font-size="14.00" fill="#eeeeee">Krijg Appel Taart Van Bakker</text>
</g>
<!-- breng_dochter_naar_bakker&#45;&gt;krijg_appel_taart_van_bakker -->
<g id="edge38" class="edge">
<title>breng_dochter_naar_bakker&#45;&gt;krijg_appel_taart_van_bakker</title>
<path fill="none" stroke="#999999" d="M864.2584,-218.4551C863.9015,-209.7686 863.4667,-199.1898 863.0743,-189.642"/>
<polygon fill="#999999" stroke="#999999" points="865.8697,-189.4686 862.7434,-181.5904 860.2744,-189.6986 865.8697,-189.4686"/>
</g>
<!-- trek_tand_van_draak -->
<g id="node14" class="node">
<title>trek_tand_van_draak</title>
<path fill="#3333aa" stroke="#3333aa" d="M926.3937,-291.5C926.3937,-291.5 1041.6063,-291.5 1041.6063,-291.5 1047.6063,-291.5 1053.6063,-297.5 1053.6063,-303.5 1053.6063,-303.5 1053.6063,-315.5 1053.6063,-315.5 1053.6063,-321.5 1047.6063,-327.5 1041.6063,-327.5 1041.6063,-327.5 926.3937,-327.5 926.3937,-327.5 920.3937,-327.5 914.3937,-321.5 914.3937,-315.5 914.3937,-315.5 914.3937,-303.5 914.3937,-303.5 914.3937,-297.5 920.3937,-291.5 926.3937,-291.5"/>
<text text-anchor="middle" x="984" y="-305.3" font-family="lato, roboto, helvetica" font-size="14.00" fill="#eeeeee">Trek Tand Van Draak</text>
</g>
<!-- trek_tand_van_draak&#45;&gt;breng_dochter_naar_bakker -->
<g id="edge9" class="edge">
<title>trek_tand_van_draak&#45;&gt;breng_dochter_naar_bakker</title>
<path fill="none" stroke="#999999" d="M954.5843,-291.4551C938.5648,-281.628 918.5972,-269.3789 901.5814,-258.9407"/>
<polygon fill="#999999" stroke="#999999" points="902.7731,-256.3869 894.4898,-254.5904 899.8448,-261.1603 902.7731,-256.3869"/>
</g>
<!-- zet_zadel_op_draak -->
<g id="node16" class="node">
<title>zet_zadel_op_draak</title>
<path fill="#3333aa" stroke="#3333aa" d="M931.8334,-72.5C931.8334,-72.5 1036.1666,-72.5 1036.1666,-72.5 1042.1666,-72.5 1048.1666,-78.5 1048.1666,-84.5 1048.1666,-84.5 1048.1666,-96.5 1048.1666,-96.5 1048.1666,-102.5 1042.1666,-108.5 1036.1666,-108.5 1036.1666,-108.5 931.8334,-108.5 931.8334,-108.5 925.8334,-108.5 919.8334,-102.5 919.8334,-96.5 919.8334,-96.5 919.8334,-84.5 919.8334,-84.5 919.8334,-78.5 925.8334,-72.5 931.8334,-72.5"/>
<text text-anchor="middle" x="984" y="-86.3" font-family="lato, roboto, helvetica" font-size="14.00" fill="#eeeeee">Zet Zadel Op Draak</text>
</g>
<!-- trek_tand_van_draak&#45;&gt;zet_zadel_op_draak -->
<g id="edge94" class="edge">
<title>trek_tand_van_draak&#45;&gt;zet_zadel_op_draak</title>
<path fill="none" stroke="#999999" d="M984,-291.2049C984,-252.3808 984,-161.6319 984,-116.6829"/>
<polygon fill="#999999" stroke="#999999" points="986.8001,-116.589 984,-108.589 981.2001,-116.5891 986.8001,-116.589"/>
</g>
<!-- pak_tand_van_draak -->
<g id="node49" class="node">
<title>pak_tand_van_draak</title>
<path fill="#3333aa" stroke="#3333aa" d="M1024.109,-218.5C1024.109,-218.5 1133.891,-218.5 1133.891,-218.5 1139.891,-218.5 1145.891,-224.5 1145.891,-230.5 1145.891,-230.5 1145.891,-242.5 1145.891,-242.5 1145.891,-248.5 1139.891,-254.5 1133.891,-254.5 1133.891,-254.5 1024.109,-254.5 1024.109,-254.5 1018.109,-254.5 1012.109,-248.5 1012.109,-242.5 1012.109,-242.5 1012.109,-230.5 1012.109,-230.5 1012.109,-224.5 1018.109,-218.5 1024.109,-218.5"/>
<text text-anchor="middle" x="1079" y="-232.3" font-family="lato, roboto, helvetica" font-size="14.00" fill="#eeeeee">Pak Tand Van Draak</text>
</g>
<!-- trek_tand_van_draak&#45;&gt;pak_tand_van_draak -->
<g id="edge60" class="edge">
<title>trek_tand_van_draak&#45;&gt;pak_tand_van_draak</title>
<path fill="none" stroke="#999999" d="M1007.4832,-291.4551C1020.0434,-281.8035 1035.644,-269.8156 1049.0664,-259.5016"/>
<polygon fill="#999999" stroke="#999999" points="1050.8203,-261.6851 1055.4578,-254.5904 1047.4082,-257.2446 1050.8203,-261.6851"/>
</g>
<!-- breng_medicijnen_naar_koning -->
<g id="node15" class="node">
<title>breng_medicijnen_naar_koning</title>
<polygon fill="#333333" stroke="#333333" points="1030,-36 841.1589,-18 1030,0 1218.8411,-18 1030,-36"/>
<polyline fill="none" stroke="#333333" points="853.1047,-19.1387 853.1047,-16.8613 "/>
<polyline fill="none" stroke="#333333" points="1018.0541,-1.1387 1041.9459,-1.1387 "/>
<polyline fill="none" stroke="#333333" points="1206.8953,-16.8613 1206.8953,-19.1387 "/>
<polyline fill="none" stroke="#333333" points="1041.9459,-34.8613 1018.0541,-34.8613 "/>
<text text-anchor="middle" x="1030" y="-13.8" font-family="lato, roboto, helvetica" font-size="14.00" fill="#dddddd">Breng Medicijnen Naar Koning</text>
</g>
<!-- zet_zadel_op_draak&#45;&gt;breng_medicijnen_naar_koning -->
<g id="edge10" class="edge">
<title>zet_zadel_op_draak&#45;&gt;breng_medicijnen_naar_koning</title>
<path fill="none" stroke="#999999" d="M995.6077,-72.2052C1001.4332,-63.0238 1008.5631,-51.7864 1014.8176,-41.9287"/>
<polygon fill="#999999" stroke="#999999" points="1017.2642,-43.299 1019.186,-35.0438 1012.5357,-40.2988 1017.2642,-43.299"/>
</g>
<!-- krijg_medicijn_van_heks -->
<g id="node17" class="node">
<title>krijg_medicijn_van_heks</title>
<path fill="#3333aa" stroke="#3333aa" d="M1092.6595,-145.5C1092.6595,-145.5 1227.3405,-145.5 1227.3405,-145.5 1233.3405,-145.5 1239.3405,-151.5 1239.3405,-157.5 1239.3405,-157.5 1239.3405,-169.5 1239.3405,-169.5 1239.3405,-175.5 1233.3405,-181.5 1227.3405,-181.5 1227.3405,-181.5 1092.6595,-181.5 1092.6595,-181.5 1086.6595,-181.5 1080.6595,-175.5 1080.6595,-169.5 1080.6595,-169.5 1080.6595,-157.5 1080.6595,-157.5 1080.6595,-151.5 1086.6595,-145.5 1092.6595,-145.5"/>
<text text-anchor="middle" x="1160" y="-159.3" font-family="lato, roboto, helvetica" font-size="14.00" fill="#eeeeee">Krijg Medicijn Van Heks</text>
</g>
<!-- krijg_medicijn_van_heks&#45;&gt;breng_medicijnen_naar_koning -->
<g id="edge11" class="edge">
<title>krijg_medicijn_van_heks&#45;&gt;breng_medicijnen_naar_koning</title>
<path fill="none" stroke="#999999" d="M1143.7983,-145.3665C1120.2587,-119.0204 1076.5975,-70.1533 1050.7383,-41.211"/>
<polygon fill="#999999" stroke="#999999" points="1052.6112,-39.1046 1045.193,-35.0045 1048.4352,-42.8358 1052.6112,-39.1046"/>
</g>
<!-- breng_molensteen_naar_toren -->
<g id="node18" class="node">
<title>breng_molensteen_naar_toren</title>
<path fill="#3333aa" stroke="#3333aa" d="M603.6749,-729.5C603.6749,-729.5 766.3251,-729.5 766.3251,-729.5 772.3251,-729.5 778.3251,-735.5 778.3251,-741.5 778.3251,-741.5 778.3251,-753.5 778.3251,-753.5 778.3251,-759.5 772.3251,-765.5 766.3251,-765.5 766.3251,-765.5 603.6749,-765.5 603.6749,-765.5 597.6749,-765.5 591.6749,-759.5 591.6749,-753.5 591.6749,-753.5 591.6749,-741.5 591.6749,-741.5 591.6749,-735.5 597.6749,-729.5 603.6749,-729.5"/>
<text text-anchor="middle" x="685" y="-743.3" font-family="lato, roboto, helvetica" font-size="14.00" fill="#eeeeee">Breng Molensteen Naar Toren</text>
</g>
<!-- leg_molensteen_op_lift -->
<g id="node39" class="node">
<title>leg_molensteen_op_lift</title>
<path fill="#3333aa" stroke="#3333aa" d="M630.1588,-583.5C630.1588,-583.5 757.8412,-583.5 757.8412,-583.5 763.8412,-583.5 769.8412,-589.5 769.8412,-595.5 769.8412,-595.5 769.8412,-607.5 769.8412,-607.5 769.8412,-613.5 763.8412,-619.5 757.8412,-619.5 757.8412,-619.5 630.1588,-619.5 630.1588,-619.5 624.1588,-619.5 618.1588,-613.5 618.1588,-607.5 618.1588,-607.5 618.1588,-595.5 618.1588,-595.5 618.1588,-589.5 624.1588,-583.5 630.1588,-583.5"/>
<text text-anchor="middle" x="694" y="-597.3" font-family="lato, roboto, helvetica" font-size="14.00" fill="#eeeeee">Leg Molensteen Op Lift</text>
</g>
<!-- breng_molensteen_naar_toren&#45;&gt;leg_molensteen_op_lift -->
<g id="edge54" class="edge">
<title>breng_molensteen_naar_toren&#45;&gt;leg_molensteen_op_lift</title>
<path fill="none" stroke="#999999" d="M686.1217,-729.3042C687.6913,-703.8403 690.5534,-657.4108 692.3618,-628.0759"/>
<polygon fill="#999999" stroke="#999999" points="695.1666,-628.0823 692.8642,-619.9251 689.5772,-627.7376 695.1666,-628.0823"/>
</g>
<!-- zet_molensteen_op_wagen&#45;&gt;breng_molensteen_naar_toren -->
<g id="edge12" class="edge">
<title>zet_molensteen_op_wagen&#45;&gt;breng_molensteen_naar_toren</title>
<path fill="none" stroke="#999999" d="M726.1424,-875.3042C717.91,-849.7311 702.8703,-803.0119 693.434,-773.6992"/>
<polygon fill="#999999" stroke="#999999" points="696.0482,-772.6822 690.9314,-765.9251 690.7176,-774.3983 696.0482,-772.6822"/>
</g>
<!-- breng_paard_naar_hoefsmid -->
<g id="node20" class="node">
<title>breng_paard_naar_hoefsmid</title>
<path fill="#008800" stroke="#008800" d="M559.5059,-1386.5C559.5059,-1386.5 710.4941,-1386.5 710.4941,-1386.5 716.4941,-1386.5 722.4941,-1392.5 722.4941,-1398.5 722.4941,-1398.5 722.4941,-1410.5 722.4941,-1410.5 722.4941,-1416.5 716.4941,-1422.5 710.4941,-1422.5 710.4941,-1422.5 559.5059,-1422.5 559.5059,-1422.5 553.5059,-1422.5 547.5059,-1416.5 547.5059,-1410.5 547.5059,-1410.5 547.5059,-1398.5 547.5059,-1398.5 547.5059,-1392.5 553.5059,-1386.5 559.5059,-1386.5"/>
<text text-anchor="middle" x="635" y="-1400.3" font-family="lato, roboto, helvetica" font-size="14.00" fill="#eeeeee">Breng Paard Naar Hoefsmid</text>
</g>
<!-- breng_paard_naar_hoefsmid&#45;&gt;geef_paard_nieuwe_hoefijzers -->
<g id="edge18" class="edge">
<title>breng_paard_naar_hoefsmid&#45;&gt;geef_paard_nieuwe_hoefijzers</title>
<path fill="none" stroke="#999999" d="M626.8427,-1386.4551C622.8366,-1377.5932 617.9402,-1366.7616 613.5566,-1357.0646"/>
<polygon fill="#999999" stroke="#999999" points="616.0247,-1355.7267 610.1778,-1349.5904 610.9218,-1358.0335 616.0247,-1355.7267"/>
</g>
<!-- vind_paard_bij_rivier -->
<g id="node21" class="node">
<title>vind_paard_bij_rivier</title>
<path fill="#008800" stroke="#008800" d="M789.7598,-1459.5C789.7598,-1459.5 904.2402,-1459.5 904.2402,-1459.5 910.2402,-1459.5 916.2402,-1465.5 916.2402,-1471.5 916.2402,-1471.5 916.2402,-1483.5 916.2402,-1483.5 916.2402,-1489.5 910.2402,-1495.5 904.2402,-1495.5 904.2402,-1495.5 789.7598,-1495.5 789.7598,-1495.5 783.7598,-1495.5 777.7598,-1489.5 777.7598,-1483.5 777.7598,-1483.5 777.7598,-1471.5 777.7598,-1471.5 777.7598,-1465.5 783.7598,-1459.5 789.7598,-1459.5"/>
<text text-anchor="middle" x="847" y="-1473.3" font-family="lato, roboto, helvetica" font-size="14.00" fill="#eeeeee">Vind Paard Bij Rivier</text>
</g>
<!-- vind_paard_bij_rivier&#45;&gt;breng_paard_naar_hoefsmid -->
<g id="edge13" class="edge">
<title>vind_paard_bij_rivier&#45;&gt;breng_paard_naar_hoefsmid</title>
<path fill="none" stroke="#999999" d="M794.5955,-1459.4551C764.5278,-1449.1016 726.6525,-1436.0596 695.3455,-1425.2794"/>
<polygon fill="#999999" stroke="#999999" points="696.0122,-1422.5476 687.5364,-1422.5904 694.1889,-1427.8425 696.0122,-1422.5476"/>
</g>
<!-- ga_naar_hut_in_moeras -->
<g id="node22" class="node">
<title>ga_naar_hut_in_moeras</title>
<path fill="#008800" stroke="#008800" d="M1473.9228,-948.5C1473.9228,-948.5 1598.0772,-948.5 1598.0772,-948.5 1604.0772,-948.5 1610.0772,-954.5 1610.0772,-960.5 1610.0772,-960.5 1610.0772,-972.5 1610.0772,-972.5 1610.0772,-978.5 1604.0772,-984.5 1598.0772,-984.5 1598.0772,-984.5 1473.9228,-984.5 1473.9228,-984.5 1467.9228,-984.5 1461.9228,-978.5 1461.9228,-972.5 1461.9228,-972.5 1461.9228,-960.5 1461.9228,-960.5 1461.9228,-954.5 1467.9228,-948.5 1473.9228,-948.5"/>
<text text-anchor="middle" x="1536" y="-962.3" font-family="lato, roboto, helvetica" font-size="14.00" fill="#eeeeee">Ga Naar Hut In Moeras</text>
</g>
<!-- praat_met_heks -->
<g id="node31" class="node">
<title>praat_met_heks</title>
<path fill="#008800" stroke="#008800" d="M1256.4607,-437.5C1256.4607,-437.5 1335.5393,-437.5 1335.5393,-437.5 1341.5393,-437.5 1347.5393,-443.5 1347.5393,-449.5 1347.5393,-449.5 1347.5393,-461.5 1347.5393,-461.5 1347.5393,-467.5 1341.5393,-473.5 1335.5393,-473.5 1335.5393,-473.5 1256.4607,-473.5 1256.4607,-473.5 1250.4607,-473.5 1244.4607,-467.5 1244.4607,-461.5 1244.4607,-461.5 1244.4607,-449.5 1244.4607,-449.5 1244.4607,-443.5 1250.4607,-437.5 1256.4607,-437.5"/>
<text text-anchor="middle" x="1296" y="-451.3" font-family="lato, roboto, helvetica" font-size="14.00" fill="#eeeeee">Praat Met Heks</text>
</g>
<!-- ga_naar_hut_in_moeras&#45;&gt;praat_met_heks -->
<g id="edge70" class="edge">
<title>ga_naar_hut_in_moeras&#45;&gt;praat_met_heks</title>
<path fill="none" stroke="#999999" d="M1607.8028,-948.4162C1642.2371,-938.3405 1678.4826,-925.1929 1690,-912 1717.315,-880.7114 1709,-862.0342 1709,-820.5 1709,-820.5 1709,-820.5 1709,-601.5 1709,-564.5056 1470.402,-499.4015 1355.9123,-470.2912"/>
<polygon fill="#999999" stroke="#999999" points="1356.3312,-467.5089 1347.8886,-468.2583 1354.9558,-472.9374 1356.3312,-467.5089"/>
</g>
<!-- praat_met_bakker&#45;&gt;koop_zwaard_voor_99_bij_wapensmid -->
<g id="edge36" class="edge">
<title>praat_met_bakker&#45;&gt;koop_zwaard_voor_99_bij_wapensmid</title>
<path fill="none" stroke="#999999" d="M1183.3991,-1022.2301C1160.0571,-1013.4596 1133.7691,-1001.1779 1113,-985 1062.4095,-945.593 1021.5155,-880.997 1001.4487,-845.6143"/>
<polygon fill="#999999" stroke="#999999" points="1003.8345,-844.1437 997.4868,-838.527 998.9464,-846.8762 1003.8345,-844.1437"/>
</g>
<!-- praat_met_bakker&#45;&gt;genoeg_info_over_monster -->
<g id="edge22" class="edge">
<title>praat_met_bakker&#45;&gt;genoeg_info_over_monster</title>
<path fill="none" stroke="#999999" d="M1183.6201,-1023.6478C1180.3657,-1022.7514 1177.1415,-1021.8639 1174,-1021 1132.565,-1009.6056 1086.2632,-996.9221 1048.7553,-986.6598"/>
<polygon fill="#999999" stroke="#999999" points="1049.3452,-983.9184 1040.8899,-984.5081 1047.8674,-989.3199 1049.3452,-983.9184"/>
</g>
<!-- praat_met_bakker&#45;&gt;ga_naar_hut_in_moeras -->
<g id="edge14" class="edge">
<title>praat_met_bakker&#45;&gt;ga_naar_hut_in_moeras</title>
<path fill="none" stroke="#999999" d="M1298.5793,-1025.2516C1343.2241,-1014.2039 1405.6418,-998.7581 1455.274,-986.4763"/>
<polygon fill="#999999" stroke="#999999" points="1456.0321,-989.1732 1463.1252,-984.5334 1454.6868,-983.7372 1456.0321,-989.1732"/>
</g>
<!-- geef_dwerg_eten -->
<g id="node24" class="node">
<title>geef_dwerg_eten</title>
<path fill="#008800" stroke="#008800" d="M414.0287,-656.5C414.0287,-656.5 503.9713,-656.5 503.9713,-656.5 509.9713,-656.5 515.9713,-662.5 515.9713,-668.5 515.9713,-668.5 515.9713,-680.5 515.9713,-680.5 515.9713,-686.5 509.9713,-692.5 503.9713,-692.5 503.9713,-692.5 414.0287,-692.5 414.0287,-692.5 408.0287,-692.5 402.0287,-686.5 402.0287,-680.5 402.0287,-680.5 402.0287,-668.5 402.0287,-668.5 402.0287,-662.5 408.0287,-656.5 414.0287,-656.5"/>
<text text-anchor="middle" x="459" y="-670.3" font-family="lato, roboto, helvetica" font-size="14.00" fill="#eeeeee">Geef Dwerg Eten</text>
</g>
<!-- krijg_edelsteen_van_dwerg -->
<g id="node46" class="node">
<title>krijg_edelsteen_van_dwerg</title>
<path fill="#008800" stroke="#008800" d="M385.0599,-583.5C385.0599,-583.5 532.9401,-583.5 532.9401,-583.5 538.9401,-583.5 544.9401,-589.5 544.9401,-595.5 544.9401,-595.5 544.9401,-607.5 544.9401,-607.5 544.9401,-613.5 538.9401,-619.5 532.9401,-619.5 532.9401,-619.5 385.0599,-619.5 385.0599,-619.5 379.0599,-619.5 373.0599,-613.5 373.0599,-607.5 373.0599,-607.5 373.0599,-595.5 373.0599,-595.5 373.0599,-589.5 379.0599,-583.5 385.0599,-583.5"/>
<text text-anchor="middle" x="459" y="-597.3" font-family="lato, roboto, helvetica" font-size="14.00" fill="#eeeeee">Krijg Edelsteen Van Dwerg</text>
</g>
<!-- geef_dwerg_eten&#45;&gt;krijg_edelsteen_van_dwerg -->
<g id="edge39" class="edge">
<title>geef_dwerg_eten&#45;&gt;krijg_edelsteen_van_dwerg</title>
<path fill="none" stroke="#999999" d="M459,-656.4551C459,-647.7686 459,-637.1898 459,-627.642"/>
<polygon fill="#999999" stroke="#999999" points="461.8001,-627.5903 459,-619.5904 456.2001,-627.5904 461.8001,-627.5903"/>
</g>
<!-- praat_met_dwerg&#45;&gt;geef_dwerg_eten -->
<g id="edge15" class="edge">
<title>praat_met_dwerg&#45;&gt;geef_dwerg_eten</title>
<path fill="none" stroke="#999999" d="M547.9195,-1532.2603C518.0662,-1455.0772 404,-1157.2412 404,-1112.5 404,-1112.5 404,-1112.5 404,-820.5 404,-778.9658 407.0461,-767.3479 423,-729 427.304,-718.6546 433.6489,-708.1758 439.818,-699.208"/>
<polygon fill="#999999" stroke="#999999" points="442.1112,-700.8146 444.4645,-692.672 437.547,-697.5699 442.1112,-700.8146"/>
</g>
<!-- krijg_kapotte_houweel_van_dwerg -->
<g id="node48" class="node">
<title>krijg_kapotte_houweel_van_dwerg</title>
<path fill="#008800" stroke="#008800" d="M250.096,-1459.5C250.096,-1459.5 441.904,-1459.5 441.904,-1459.5 447.904,-1459.5 453.904,-1465.5 453.904,-1471.5 453.904,-1471.5 453.904,-1483.5 453.904,-1483.5 453.904,-1489.5 447.904,-1495.5 441.904,-1495.5 441.904,-1495.5 250.096,-1495.5 250.096,-1495.5 244.096,-1495.5 238.096,-1489.5 238.096,-1483.5 238.096,-1483.5 238.096,-1471.5 238.096,-1471.5 238.096,-1465.5 244.096,-1459.5 250.096,-1459.5"/>
<text text-anchor="middle" x="346" y="-1473.3" font-family="lato, roboto, helvetica" font-size="14.00" fill="#eeeeee">Krijg Kapotte Houweel Van Dwerg</text>
</g>
<!-- praat_met_dwerg&#45;&gt;krijg_kapotte_houweel_van_dwerg -->
<g id="edge44" class="edge">
<title>praat_met_dwerg&#45;&gt;krijg_kapotte_houweel_van_dwerg</title>
<path fill="none" stroke="#999999" d="M503.3371,-1532.4551C473.6949,-1522.1016 436.3555,-1509.0596 405.4916,-1498.2794"/>
<polygon fill="#999999" stroke="#999999" points="406.2688,-1495.585 397.7929,-1495.5904 404.4222,-1500.8718 406.2688,-1495.585"/>
</g>
<!-- koop_eten_bij_bakker -->
<g id="node26" class="node">
<title>koop_eten_bij_bakker</title>
<path fill="#008800" stroke="#008800" d="M443.5957,-729.5C443.5957,-729.5 560.4043,-729.5 560.4043,-729.5 566.4043,-729.5 572.4043,-735.5 572.4043,-741.5 572.4043,-741.5 572.4043,-753.5 572.4043,-753.5 572.4043,-759.5 566.4043,-765.5 560.4043,-765.5 560.4043,-765.5 443.5957,-765.5 443.5957,-765.5 437.5957,-765.5 431.5957,-759.5 431.5957,-753.5 431.5957,-753.5 431.5957,-741.5 431.5957,-741.5 431.5957,-735.5 437.5957,-729.5 443.5957,-729.5"/>
<text text-anchor="middle" x="502" y="-743.3" font-family="lato, roboto, helvetica" font-size="14.00" fill="#eeeeee">Koop Eten Bij Bakker</text>
</g>
<!-- koop_eten_bij_bakker&#45;&gt;geef_dwerg_eten -->
<g id="edge16" class="edge">
<title>koop_eten_bij_bakker&#45;&gt;geef_dwerg_eten</title>
<path fill="none" stroke="#999999" d="M491.3708,-729.4551C486.0474,-720.4177 479.5174,-709.3319 473.7201,-699.4899"/>
<polygon fill="#999999" stroke="#999999" points="476.1289,-698.0623 469.656,-692.5904 471.3037,-700.9045 476.1289,-698.0623"/>
</g>
<!-- geef_houweel_aan_dwerg -->
<g id="node27" class="node">
<title>geef_houweel_aan_dwerg</title>
<path fill="#008800" stroke="#008800" d="M260.1805,-1240.5C260.1805,-1240.5 401.8195,-1240.5 401.8195,-1240.5 407.8195,-1240.5 413.8195,-1246.5 413.8195,-1252.5 413.8195,-1252.5 413.8195,-1264.5 413.8195,-1264.5 413.8195,-1270.5 407.8195,-1276.5 401.8195,-1276.5 401.8195,-1276.5 260.1805,-1276.5 260.1805,-1276.5 254.1805,-1276.5 248.1805,-1270.5 248.1805,-1264.5 248.1805,-1264.5 248.1805,-1252.5 248.1805,-1252.5 248.1805,-1246.5 254.1805,-1240.5 260.1805,-1240.5"/>
<text text-anchor="middle" x="331" y="-1254.3" font-family="lato, roboto, helvetica" font-size="14.00" fill="#eeeeee">Geef Houweel Aan Dwerg</text>
</g>
<!-- geef_houweel_aan_dwerg&#45;&gt;krijg_edelsteen_van_dwerg -->
<g id="edge40" class="edge">
<title>geef_houweel_aan_dwerg&#45;&gt;krijg_edelsteen_van_dwerg</title>
<path fill="none" stroke="#999999" d="M334.7296,-1240.1515C340.0019,-1212.5699 349,-1158.7258 349,-1112.5 349,-1112.5 349,-1112.5 349,-747.5 349,-695.7979 393.5471,-650.7735 425.9439,-624.8658"/>
<polygon fill="#999999" stroke="#999999" points="428.0672,-626.7607 432.6523,-619.632 424.6224,-622.3455 428.0672,-626.7607"/>
</g>
<!-- repareer_houweel -->
<g id="node28" class="node">
<title>repareer_houweel</title>
<path fill="#008800" stroke="#008800" d="M345.7254,-1386.5C345.7254,-1386.5 442.2746,-1386.5 442.2746,-1386.5 448.2746,-1386.5 454.2746,-1392.5 454.2746,-1398.5 454.2746,-1398.5 454.2746,-1410.5 454.2746,-1410.5 454.2746,-1416.5 448.2746,-1422.5 442.2746,-1422.5 442.2746,-1422.5 345.7254,-1422.5 345.7254,-1422.5 339.7254,-1422.5 333.7254,-1416.5 333.7254,-1410.5 333.7254,-1410.5 333.7254,-1398.5 333.7254,-1398.5 333.7254,-1392.5 339.7254,-1386.5 345.7254,-1386.5"/>
<text text-anchor="middle" x="394" y="-1400.3" font-family="lato, roboto, helvetica" font-size="14.00" fill="#eeeeee">Repareer Houweel</text>
</g>
<!-- repareer_houweel&#45;&gt;geef_houweel_aan_dwerg -->
<g id="edge17" class="edge">
<title>repareer_houweel&#45;&gt;geef_houweel_aan_dwerg</title>
<path fill="none" stroke="#999999" d="M386.1484,-1386.3042C375.0662,-1360.6218 354.7813,-1313.6122 342.1434,-1284.3243"/>
<polygon fill="#999999" stroke="#999999" points="344.6911,-1283.1611 338.9506,-1276.9251 339.5493,-1285.3798 344.6911,-1283.1611"/>
</g>
<!-- haal_wagen_bij_molenaar_met_paard -->
<g id="node36" class="node">
<title>haal_wagen_bij_molenaar_met_paard</title>
<path fill="#008800" stroke="#008800" d="M660.6251,-1240.5C660.6251,-1240.5 861.3749,-1240.5 861.3749,-1240.5 867.3749,-1240.5 873.3749,-1246.5 873.3749,-1252.5 873.3749,-1252.5 873.3749,-1264.5 873.3749,-1264.5 873.3749,-1270.5 867.3749,-1276.5 861.3749,-1276.5 861.3749,-1276.5 660.6251,-1276.5 660.6251,-1276.5 654.6251,-1276.5 648.6251,-1270.5 648.6251,-1264.5 648.6251,-1264.5 648.6251,-1252.5 648.6251,-1252.5 648.6251,-1246.5 654.6251,-1240.5 660.6251,-1240.5"/>
<text text-anchor="middle" x="761" y="-1254.3" font-family="lato, roboto, helvetica" font-size="14.00" fill="#eeeeee">Haal Wagen Bij Molenaar Met Paard</text>
</g>
<!-- geef_paard_nieuwe_hoefijzers&#45;&gt;haal_wagen_bij_molenaar_met_paard -->
<g id="edge26" class="edge">
<title>geef_paard_nieuwe_hoefijzers&#45;&gt;haal_wagen_bij_molenaar_met_paard</title>
<path fill="none" stroke="#999999" d="M641.3034,-1313.4551C663.3764,-1303.3209 691.0596,-1290.611 714.2419,-1279.9675"/>
<polygon fill="#999999" stroke="#999999" points="715.4957,-1282.473 721.5977,-1276.5904 713.159,-1277.3838 715.4957,-1282.473"/>
</g>
<!-- geef_sieraad_aan_heks -->
<g id="node30" class="node">
<title>geef_sieraad_aan_heks</title>
<path fill="#3333aa" stroke="#3333aa" d="M1132.1195,-364.5C1132.1195,-364.5 1255.8805,-364.5 1255.8805,-364.5 1261.8805,-364.5 1267.8805,-370.5 1267.8805,-376.5 1267.8805,-376.5 1267.8805,-388.5 1267.8805,-388.5 1267.8805,-394.5 1261.8805,-400.5 1255.8805,-400.5 1255.8805,-400.5 1132.1195,-400.5 1132.1195,-400.5 1126.1195,-400.5 1120.1195,-394.5 1120.1195,-388.5 1120.1195,-388.5 1120.1195,-376.5 1120.1195,-376.5 1120.1195,-370.5 1126.1195,-364.5 1132.1195,-364.5"/>
<text text-anchor="middle" x="1194" y="-378.3" font-family="lato, roboto, helvetica" font-size="14.00" fill="#eeeeee">Geef Sieraad Aan Heks</text>
</g>
<!-- krijg_ingredientenlijst_van_heks -->
<g id="node47" class="node">
<title>krijg_ingredientenlijst_van_heks</title>
<path fill="#3333aa" stroke="#3333aa" d="M1142.0557,-291.5C1142.0557,-291.5 1317.9443,-291.5 1317.9443,-291.5 1323.9443,-291.5 1329.9443,-297.5 1329.9443,-303.5 1329.9443,-303.5 1329.9443,-315.5 1329.9443,-315.5 1329.9443,-321.5 1323.9443,-327.5 1317.9443,-327.5 1317.9443,-327.5 1142.0557,-327.5 1142.0557,-327.5 1136.0557,-327.5 1130.0557,-321.5 1130.0557,-315.5 1130.0557,-315.5 1130.0557,-303.5 1130.0557,-303.5 1130.0557,-297.5 1136.0557,-291.5 1142.0557,-291.5"/>
<text text-anchor="middle" x="1230" y="-305.3" font-family="lato, roboto, helvetica" font-size="14.00" fill="#eeeeee">Krijg Ingredientenlijst Van Heks</text>
</g>
<!-- geef_sieraad_aan_heks&#45;&gt;krijg_ingredientenlijst_van_heks -->
<g id="edge43" class="edge">
<title>geef_sieraad_aan_heks&#45;&gt;krijg_ingredientenlijst_van_heks</title>
<path fill="none" stroke="#999999" d="M1202.8989,-364.4551C1207.3124,-355.5054 1212.7166,-344.547 1217.5347,-334.7769"/>
<polygon fill="#999999" stroke="#999999" points="1220.0516,-336.0038 1221.0787,-327.5904 1215.0291,-333.5269 1220.0516,-336.0038"/>
</g>
<!-- praat_met_heks&#45;&gt;geef_sieraad_aan_heks -->
<g id="edge20" class="edge">
<title>praat_met_heks&#45;&gt;geef_sieraad_aan_heks</title>
<path fill="none" stroke="#999999" d="M1270.7865,-437.4551C1257.3008,-427.8035 1240.5506,-415.8156 1226.1392,-405.5016"/>
<polygon fill="#999999" stroke="#999999" points="1227.4121,-402.9694 1219.2769,-400.5904 1224.1529,-407.5233 1227.4121,-402.9694"/>
</g>
<!-- praat_met_heks&#45;&gt;krijg_ingredientenlijst_van_heks -->
<g id="edge42" class="edge">
<title>praat_met_heks&#45;&gt;krijg_ingredientenlijst_van_heks</title>
<path fill="none" stroke="#999999" d="M1294.9307,-437.4373C1293.2018,-418.3276 1288.6976,-387.7178 1277,-364 1271.6634,-353.1796 1263.6657,-342.768 1255.7736,-333.9962"/>
<polygon fill="#999999" stroke="#999999" points="1257.5956,-331.8451 1250.0852,-327.9164 1253.5063,-335.6711 1257.5956,-331.8451"/>
</g>
<!-- maak_sieraad_bij_smid -->
<g id="node32" class="node">
<title>maak_sieraad_bij_smid</title>
<path fill="#3333aa" stroke="#3333aa" d="M886.4835,-510.5C886.4835,-510.5 1009.5165,-510.5 1009.5165,-510.5 1015.5165,-510.5 1021.5165,-516.5 1021.5165,-522.5 1021.5165,-522.5 1021.5165,-534.5 1021.5165,-534.5 1021.5165,-540.5 1015.5165,-546.5 1009.5165,-546.5 1009.5165,-546.5 886.4835,-546.5 886.4835,-546.5 880.4835,-546.5 874.4835,-540.5 874.4835,-534.5 874.4835,-534.5 874.4835,-522.5 874.4835,-522.5 874.4835,-516.5 880.4835,-510.5 886.4835,-510.5"/>
<text text-anchor="middle" x="948" y="-524.3" font-family="lato, roboto, helvetica" font-size="14.00" fill="#eeeeee">Maak Sieraad Bij Smid</text>
</g>
<!-- maak_sieraad_bij_smid&#45;&gt;krijg_geldstuk_van_smid -->
<g id="edge41" class="edge">
<title>maak_sieraad_bij_smid&#45;&gt;krijg_geldstuk_van_smid</title>
<path fill="none" stroke="#999999" d="M938.6067,-510.4551C933.948,-501.5054 928.2436,-490.547 923.1579,-480.7769"/>
<polygon fill="#999999" stroke="#999999" points="925.5945,-479.3936 919.4169,-473.5904 920.6272,-481.9794 925.5945,-479.3936"/>
</g>
<!-- maak_sieraad_bij_smid&#45;&gt;geef_sieraad_aan_heks -->
<g id="edge21" class="edge">
<title>maak_sieraad_bij_smid&#45;&gt;geef_sieraad_aan_heks</title>
<path fill="none" stroke="#999999" d="M978.6587,-510.3042C1023.7119,-483.5653 1107.717,-433.7086 1156.4214,-404.8028"/>
<polygon fill="#999999" stroke="#999999" points="1157.8917,-407.1862 1163.3423,-400.6952 1155.0336,-402.3704 1157.8917,-407.1862"/>
</g>
<!-- praat_met_smidsen&#45;&gt;genoeg_info_over_monster -->
<g id="edge23" class="edge">
<title>praat_met_smidsen&#45;&gt;genoeg_info_over_monster</title>
<path fill="none" stroke="#999999" d="M1072.1124,-1021.4551C1054.5917,-1011.5403 1032.7143,-999.16 1014.1622,-988.6615"/>
<polygon fill="#999999" stroke="#999999" points="1015.3094,-986.0935 1006.9679,-984.5904 1012.5514,-990.9673 1015.3094,-986.0935"/>
</g>
<!-- krijg_schat_onderwerp -->
<g id="node53" class="node">
<title>krijg_schat_onderwerp</title>
<path fill="#008800" stroke="#008800" d="M1133.6928,-948.5C1133.6928,-948.5 1256.3072,-948.5 1256.3072,-948.5 1262.3072,-948.5 1268.3072,-954.5 1268.3072,-960.5 1268.3072,-960.5 1268.3072,-972.5 1268.3072,-972.5 1268.3072,-978.5 1262.3072,-984.5 1256.3072,-984.5 1256.3072,-984.5 1133.6928,-984.5 1133.6928,-984.5 1127.6928,-984.5 1121.6928,-978.5 1121.6928,-972.5 1121.6928,-972.5 1121.6928,-960.5 1121.6928,-960.5 1121.6928,-954.5 1127.6928,-948.5 1133.6928,-948.5"/>
<text text-anchor="middle" x="1195" y="-962.3" font-family="lato, roboto, helvetica" font-size="14.00" fill="#eeeeee">Krijg Schat Onderwerp</text>
</g>
<!-- praat_met_smidsen&#45;&gt;krijg_schat_onderwerp -->
<g id="edge53" class="edge">
<title>praat_met_smidsen&#45;&gt;krijg_schat_onderwerp</title>
<path fill="none" stroke="#999999" d="M1126.4944,-1021.4551C1138.4164,-1011.8912 1153.1981,-1000.0334 1165.9756,-989.7833"/>
<polygon fill="#999999" stroke="#999999" points="1167.9608,-991.7804 1172.449,-984.5904 1164.4566,-987.4122 1167.9608,-991.7804"/>
</g>
<!-- praat_met_boer&#45;&gt;genoeg_info_over_monster -->
<g id="edge24" class="edge">
<title>praat_met_boer&#45;&gt;genoeg_info_over_monster</title>
<path fill="none" stroke="#999999" d="M934.5346,-1532.3694C939.4943,-1522.0131 945.1112,-1508.6135 948,-1496 991.2337,-1307.2294 981.6413,-1071.1008 976.8511,-992.9561"/>
<polygon fill="#999999" stroke="#999999" points="979.6243,-992.4429 976.322,-984.6368 974.0355,-992.7984 979.6243,-992.4429"/>
</g>
<!-- praat_met_boer&#45;&gt;zet_graan_op_wagen -->
<g id="edge92" class="edge">
<title>praat_met_boer&#45;&gt;zet_graan_op_wagen</title>
<path fill="none" stroke="#999999" d="M928.1617,-1532.4979C934.5505,-1492.2657 946.6366,-1392.3626 925,-1313 915.0957,-1276.6712 908.3968,-1266.853 882,-1240 869.5567,-1227.3416 853.603,-1216.3901 838.6481,-1207.6929"/>
<polygon fill="#999999" stroke="#999999" points="839.75,-1205.0996 831.4066,-1203.6068 836.998,-1209.9768 839.75,-1205.0996"/>
</g>
<!-- praat_met_boer&#45;&gt;vind_paard_bij_rivier -->
<g id="edge87" class="edge">
<title>praat_met_boer&#45;&gt;vind_paard_bij_rivier</title>
<path fill="none" stroke="#999999" d="M905.7191,-1532.4551C895.594,-1522.979 883.0625,-1511.2508 872.1799,-1501.0658"/>
<polygon fill="#999999" stroke="#999999" points="874.0837,-1499.0126 866.3294,-1495.5904 870.2571,-1503.1013 874.0837,-1499.0126"/>
</g>
<!-- praat_met_molenaar&#45;&gt;genoeg_info_over_monster -->
<g id="edge25" class="edge">
<title>praat_met_molenaar&#45;&gt;genoeg_info_over_monster</title>
<path fill="none" stroke="#999999" d="M1061.1473,-1167.2049C1044.4138,-1128.2194 1005.2072,-1036.8764 985.9987,-992.1246"/>
<polygon fill="#999999" stroke="#999999" points="988.4927,-990.8361 982.7642,-984.589 983.3467,-993.0449 988.4927,-990.8361"/>
</g>
<!-- haal_wagen_bij_molenaar_met_paard&#45;&gt;zet_graan_op_wagen -->
<g id="edge91" class="edge">
<title>haal_wagen_bij_molenaar_met_paard&#45;&gt;zet_graan_op_wagen</title>
<path fill="none" stroke="#999999" d="M768.9101,-1240.4551C772.7948,-1231.5932 777.5428,-1220.7616 781.7936,-1211.0646"/>
<polygon fill="#999999" stroke="#999999" points="784.4225,-1212.0415 785.07,-1203.5904 779.2937,-1209.7932 784.4225,-1212.0415"/>
</g>
<!-- repareer_molen_met_onderbroek -->
<g id="node37" class="node">
<title>repareer_molen_met_onderbroek</title>
<path fill="#008800" stroke="#008800" d="M725.5136,-1313.5C725.5136,-1313.5 904.4864,-1313.5 904.4864,-1313.5 910.4864,-1313.5 916.4864,-1319.5 916.4864,-1325.5 916.4864,-1325.5 916.4864,-1337.5 916.4864,-1337.5 916.4864,-1343.5 910.4864,-1349.5 904.4864,-1349.5 904.4864,-1349.5 725.5136,-1349.5 725.5136,-1349.5 719.5136,-1349.5 713.5136,-1343.5 713.5136,-1337.5 713.5136,-1337.5 713.5136,-1325.5 713.5136,-1325.5 713.5136,-1319.5 719.5136,-1313.5 725.5136,-1313.5"/>
<text text-anchor="middle" x="815" y="-1327.3" font-family="lato, roboto, helvetica" font-size="14.00" fill="#eeeeee">Repareer Molen Met Onderbroek</text>
</g>
<!-- repareer_molen_met_onderbroek&#45;&gt;krijg_meel_bij_molenaar -->
<g id="edge49" class="edge">
<title>repareer_molen_met_onderbroek&#45;&gt;krijg_meel_bij_molenaar</title>
<path fill="none" stroke="#999999" d="M847.6075,-1313.419C860.7124,-1304.3227 874.477,-1292.0143 882,-1277 918.4546,-1204.245 928.7855,-1164.4185 888,-1094 880.047,-1080.2688 867.1837,-1069.6983 853.4566,-1061.6872"/>
<polygon fill="#999999" stroke="#999999" points="854.5831,-1059.1118 846.2209,-1057.7279 851.8949,-1064.0244 854.5831,-1059.1118"/>
</g>
<!-- repareer_molen_met_onderbroek&#45;&gt;haal_wagen_bij_molenaar_met_paard -->
<g id="edge27" class="edge">
<title>repareer_molen_met_onderbroek&#45;&gt;haal_wagen_bij_molenaar_met_paard</title>
<path fill="none" stroke="#999999" d="M801.6517,-1313.4551C794.9016,-1304.3299 786.6067,-1293.1165 779.2739,-1283.2036"/>
<polygon fill="#999999" stroke="#999999" points="781.3906,-1281.3568 774.3819,-1276.5904 776.8885,-1284.6871 781.3906,-1281.3568"/>
</g>
<!-- hijs_lift_met_molensteen -->
<g id="node38" class="node">
<title>hijs_lift_met_molensteen</title>
<path fill="#3333aa" stroke="#3333aa" d="M626.6546,-510.5C626.6546,-510.5 761.3454,-510.5 761.3454,-510.5 767.3454,-510.5 773.3454,-516.5 773.3454,-522.5 773.3454,-522.5 773.3454,-534.5 773.3454,-534.5 773.3454,-540.5 767.3454,-546.5 761.3454,-546.5 761.3454,-546.5 626.6546,-546.5 626.6546,-546.5 620.6546,-546.5 614.6546,-540.5 614.6546,-534.5 614.6546,-534.5 614.6546,-522.5 614.6546,-522.5 614.6546,-516.5 620.6546,-510.5 626.6546,-510.5"/>
<text text-anchor="middle" x="694" y="-524.3" font-family="lato, roboto, helvetica" font-size="14.00" fill="#eeeeee">Hijs Lift Met Molensteen</text>
</g>
<!-- knoop_touw_aan_molensteen -->
<g id="node40" class="node">
<title>knoop_touw_aan_molensteen</title>
<path fill="#3333aa" stroke="#3333aa" d="M562.0494,-437.5C562.0494,-437.5 723.9506,-437.5 723.9506,-437.5 729.9506,-437.5 735.9506,-443.5 735.9506,-449.5 735.9506,-449.5 735.9506,-461.5 735.9506,-461.5 735.9506,-467.5 729.9506,-473.5 723.9506,-473.5 723.9506,-473.5 562.0494,-473.5 562.0494,-473.5 556.0494,-473.5 550.0494,-467.5 550.0494,-461.5 550.0494,-461.5 550.0494,-449.5 550.0494,-449.5 550.0494,-443.5 556.0494,-437.5 562.0494,-437.5"/>
<text text-anchor="middle" x="643" y="-451.3" font-family="lato, roboto, helvetica" font-size="14.00" fill="#eeeeee">Knoop Touw Aan Molensteen</text>
</g>
<!-- hijs_lift_met_molensteen&#45;&gt;knoop_touw_aan_molensteen -->
<g id="edge30" class="edge">
<title>hijs_lift_met_molensteen&#45;&gt;knoop_touw_aan_molensteen</title>
<path fill="none" stroke="#999999" d="M681.3933,-510.4551C675.0182,-501.3299 667.1841,-490.1165 660.2587,-480.2036"/>
<polygon fill="#999999" stroke="#999999" points="662.5155,-478.5449 655.6385,-473.5904 657.9248,-481.752 662.5155,-478.5449"/>
</g>
<!-- hijs_lift_met_molensteen&#45;&gt;snij_touw_van_lift -->
<g id="edge81" class="edge">
<title>hijs_lift_met_molensteen&#45;&gt;snij_touw_van_lift</title>
<path fill="none" stroke="#999999" d="M715.8254,-510.386C726.1866,-500.6416 737.8401,-487.8038 745,-474 755.5593,-453.6423 760.2505,-427.8698 762.3345,-408.8686"/>
<polygon fill="#999999" stroke="#999999" points="765.1453,-408.889 763.1203,-400.6586 759.5708,-408.3554 765.1453,-408.889"/>
</g>
<!-- leg_molensteen_op_lift&#45;&gt;hijs_lift_met_molensteen -->
<g id="edge28" class="edge">
<title>leg_molensteen_op_lift&#45;&gt;hijs_lift_met_molensteen</title>
<path fill="none" stroke="#999999" d="M694,-583.4551C694,-574.7686 694,-564.1898 694,-554.642"/>
<polygon fill="#999999" stroke="#999999" points="696.8001,-554.5903 694,-546.5904 691.2001,-554.5904 696.8001,-554.5903"/>
</g>
<!-- knoop_touw_aan_molensteen&#45;&gt;snij_touw_van_lift -->
<g id="edge79" class="edge">
<title>knoop_touw_aan_molensteen&#45;&gt;snij_touw_van_lift</title>
<path fill="none" stroke="#999999" d="M672.9101,-437.4551C689.1988,-427.628 709.502,-415.3789 726.8038,-404.9407"/>
<polygon fill="#999999" stroke="#999999" points="728.6111,-407.1205 734.0146,-400.5904 725.7182,-402.3255 728.6111,-407.1205"/>
</g>
<!-- pak_touw_op_boerderij&#45;&gt;knoop_touw_aan_molensteen -->
<g id="edge29" class="edge">
<title>pak_touw_op_boerderij&#45;&gt;knoop_touw_aan_molensteen</title>
<path fill="none" stroke="#999999" d="M502.9775,-510.4551C529.1341,-500.1893 562.0252,-487.2804 589.3558,-476.5539"/>
<polygon fill="#999999" stroke="#999999" points="590.4827,-479.1196 596.9068,-473.5904 588.4368,-473.9067 590.4827,-479.1196"/>
</g>
<!-- knoop_touw_aan_tand -->
<g id="node42" class="node">
<title>knoop_touw_aan_tand</title>
<path fill="#3333aa" stroke="#3333aa" d="M394.3229,-437.5C394.3229,-437.5 519.6771,-437.5 519.6771,-437.5 525.6771,-437.5 531.6771,-443.5 531.6771,-449.5 531.6771,-449.5 531.6771,-461.5 531.6771,-461.5 531.6771,-467.5 525.6771,-473.5 519.6771,-473.5 519.6771,-473.5 394.3229,-473.5 394.3229,-473.5 388.3229,-473.5 382.3229,-467.5 382.3229,-461.5 382.3229,-461.5 382.3229,-449.5 382.3229,-449.5 382.3229,-443.5 388.3229,-437.5 394.3229,-437.5"/>
<text text-anchor="middle" x="457" y="-451.3" font-family="lato, roboto, helvetica" font-size="14.00" fill="#eeeeee">Knoop Touw Aan Tand</text>
</g>
<!-- pak_touw_op_boerderij&#45;&gt;knoop_touw_aan_tand -->
<g id="edge31" class="edge">
<title>pak_touw_op_boerderij&#45;&gt;knoop_touw_aan_tand</title>
<path fill="none" stroke="#999999" d="M457,-510.4551C457,-501.7686 457,-491.1898 457,-481.642"/>
<polygon fill="#999999" stroke="#999999" points="459.8001,-481.5903 457,-473.5904 454.2001,-481.5904 459.8001,-481.5903"/>
</g>
<!-- knoop_touw_aan_tand&#45;&gt;snij_touw_van_lift -->
<g id="edge80" class="edge">
<title>knoop_touw_aan_tand&#45;&gt;snij_touw_van_lift</title>
<path fill="none" stroke="#999999" d="M531.7081,-437.7355C580.801,-426.062 644.6461,-410.8806 692.976,-399.3884"/>
<polygon fill="#999999" stroke="#999999" points="693.7629,-402.0795 700.8981,-397.5047 692.4674,-396.6314 693.7629,-402.0795"/>
</g>
<!-- _1&#45;&gt;koop_eten_bij_bakker -->
<g id="edge32" class="edge">
<title>_1&#45;&gt;koop_eten_bij_bakker</title>
<path fill="none" stroke="#999999" d="M502,-802.4551C502,-793.7686 502,-783.1898 502,-773.642"/>
<polygon fill="#999999" stroke="#999999" points="504.8001,-773.5903 502,-765.5904 499.2001,-773.5904 504.8001,-773.5903"/>
</g>
<!-- krijg_100_geld_van_meel&#45;&gt;koop_zwaard_voor_99_bij_wapensmid -->
<g id="edge35" class="edge">
<title>krijg_100_geld_van_meel&#45;&gt;koop_zwaard_voor_99_bij_wapensmid</title>
<path fill="none" stroke="#999999" d="M630.0167,-876.6703C633.0474,-876.0955 636.0499,-875.5366 639,-875 712.9217,-861.554 796.0253,-848.4951 862.5902,-838.5325"/>
<polygon fill="#999999" stroke="#999999" points="863.1253,-841.2837 870.6241,-837.3331 862.2984,-835.7451 863.1253,-841.2837"/>
</g>
<!-- krijg_100_geld_van_meel&#45;&gt;_1 -->
<g id="edge34" class="edge">
<title>krijg_100_geld_van_meel&#45;&gt;_1</title>
<path fill="none" stroke="#999999" stroke-dasharray="5,2" d="M538.1348,-875.4551C531.1206,-864.7875 522.2297,-851.266 515.0224,-840.3048"/>
<polygon fill="#999999" stroke="#999999" points="517.3007,-838.6734 510.5659,-833.5273 512.6216,-841.7501 517.3007,-838.6734"/>
</g>
<!-- krijg_appel_taart_van_bakker&#45;&gt;zet_zadel_op_draak -->
<g id="edge95" class="edge">
<title>krijg_appel_taart_van_bakker&#45;&gt;zet_zadel_op_draak</title>
<path fill="none" stroke="#999999" d="M892.1573,-145.4551C908.5806,-135.628 929.0516,-123.3789 946.4964,-112.9407"/>
<polygon fill="#999999" stroke="#999999" points="948.3396,-115.1008 953.7668,-108.5904 945.4642,-110.2954 948.3396,-115.1008"/>
</g>
<!-- krijg_edelsteen_van_dwerg&#45;&gt;maak_sieraad_bij_smid -->
<g id="edge56" class="edge">
<title>krijg_edelsteen_van_dwerg&#45;&gt;maak_sieraad_bij_smid</title>
<path fill="none" stroke="#999999" d="M545.1299,-591.0582C625.2941,-580.9983 747.9989,-564.7288 854,-547 858.0486,-546.3229 862.1902,-545.6044 866.3693,-544.8587"/>
<polygon fill="#999999" stroke="#999999" points="867.0658,-547.5782 874.4376,-543.3952 866.0662,-542.0681 867.0658,-547.5782"/>
</g>
<!-- krijg_ingredientenlijst_van_heks&#45;&gt;pak_tand_van_draak -->
<g id="edge59" class="edge">
<title>krijg_ingredientenlijst_van_heks&#45;&gt;pak_tand_van_draak</title>
<path fill="none" stroke="#999999" d="M1192.6741,-291.4551C1171.8025,-281.3648 1145.6489,-268.721 1123.6916,-258.1059"/>
<polygon fill="#999999" stroke="#999999" points="1124.841,-255.5515 1116.4198,-254.5904 1122.4036,-260.5933 1124.841,-255.5515"/>
</g>
<!-- pluk_kruiden_in_bos -->
<g id="node50" class="node">
<title>pluk_kruiden_in_bos</title>
<path fill="#3333aa" stroke="#3333aa" d="M1176.2563,-218.5C1176.2563,-218.5 1283.7437,-218.5 1283.7437,-218.5 1289.7437,-218.5 1295.7437,-224.5 1295.7437,-230.5 1295.7437,-230.5 1295.7437,-242.5 1295.7437,-242.5 1295.7437,-248.5 1289.7437,-254.5 1283.7437,-254.5 1283.7437,-254.5 1176.2563,-254.5 1176.2563,-254.5 1170.2563,-254.5 1164.2563,-248.5 1164.2563,-242.5 1164.2563,-242.5 1164.2563,-230.5 1164.2563,-230.5 1164.2563,-224.5 1170.2563,-218.5 1176.2563,-218.5"/>
<text text-anchor="middle" x="1230" y="-232.3" font-family="lato, roboto, helvetica" font-size="14.00" fill="#eeeeee">Pluk Kruiden In Bos</text>
</g>
<!-- krijg_ingredientenlijst_van_heks&#45;&gt;pluk_kruiden_in_bos -->
<g id="edge62" class="edge">
<title>krijg_ingredientenlijst_van_heks&#45;&gt;pluk_kruiden_in_bos</title>
<path fill="none" stroke="#999999" d="M1230,-291.4551C1230,-282.7686 1230,-272.1898 1230,-262.642"/>
<polygon fill="#999999" stroke="#999999" points="1232.8001,-262.5903 1230,-254.5904 1227.2001,-262.5904 1232.8001,-262.5903"/>
</g>
<!-- pluk_paddenstoelen_in_woud -->
<g id="node51" class="node">
<title>pluk_paddenstoelen_in_woud</title>
<path fill="#3333aa" stroke="#3333aa" d="M1325.5424,-218.5C1325.5424,-218.5 1480.4576,-218.5 1480.4576,-218.5 1486.4576,-218.5 1492.4576,-224.5 1492.4576,-230.5 1492.4576,-230.5 1492.4576,-242.5 1492.4576,-242.5 1492.4576,-248.5 1486.4576,-254.5 1480.4576,-254.5 1480.4576,-254.5 1325.5424,-254.5 1325.5424,-254.5 1319.5424,-254.5 1313.5424,-248.5 1313.5424,-242.5 1313.5424,-242.5 1313.5424,-230.5 1313.5424,-230.5 1313.5424,-224.5 1319.5424,-218.5 1325.5424,-218.5"/>
<text text-anchor="middle" x="1403" y="-232.3" font-family="lato, roboto, helvetica" font-size="14.00" fill="#eeeeee">Pluk Paddenstoelen In Woud</text>
</g>
<!-- krijg_ingredientenlijst_van_heks&#45;&gt;pluk_paddenstoelen_in_woud -->
<g id="edge63" class="edge">
<title>krijg_ingredientenlijst_van_heks&#45;&gt;pluk_paddenstoelen_in_woud</title>
<path fill="none" stroke="#999999" d="M1272.7641,-291.4551C1296.8845,-281.277 1327.1622,-268.5009 1352.4522,-257.8294"/>
<polygon fill="#999999" stroke="#999999" points="1353.8462,-260.2803 1360.1283,-254.5904 1351.6691,-255.1208 1353.8462,-260.2803"/>
</g>
<!-- krijg_kapotte_houweel_van_dwerg&#45;&gt;repareer_houweel -->
<g id="edge74" class="edge">
<title>krijg_kapotte_houweel_van_dwerg&#45;&gt;repareer_houweel</title>
<path fill="none" stroke="#999999" d="M357.8652,-1459.4551C363.8076,-1450.4177 371.0968,-1439.3319 377.5683,-1429.4899"/>
<polygon fill="#999999" stroke="#999999" points="380.0492,-1430.8132 382.105,-1422.5904 375.3701,-1427.7365 380.0492,-1430.8132"/>
</g>
<!-- pak_tand_van_draak&#45;&gt;krijg_medicijn_van_heks -->
<g id="edge45" class="edge">
<title>pak_tand_van_draak&#45;&gt;krijg_medicijn_van_heks</title>
<path fill="none" stroke="#999999" d="M1099.0225,-218.4551C1109.537,-208.979 1122.5505,-197.2508 1133.8516,-187.0658"/>
<polygon fill="#999999" stroke="#999999" points="1135.8589,-189.0261 1139.9271,-181.5904 1132.1099,-184.8662 1135.8589,-189.0261"/>
</g>
<!-- pluk_kruiden_in_bos&#45;&gt;krijg_medicijn_van_heks -->
<g id="edge46" class="edge">
<title>pluk_kruiden_in_bos&#45;&gt;krijg_medicijn_van_heks</title>
<path fill="none" stroke="#999999" d="M1212.6966,-218.4551C1203.7782,-209.1545 1192.7796,-197.6844 1183.1414,-187.6332"/>
<polygon fill="#999999" stroke="#999999" points="1184.9049,-185.4267 1177.3469,-181.5904 1180.8629,-189.3026 1184.9049,-185.4267"/>
</g>
<!-- pluk_paddenstoelen_in_woud&#45;&gt;krijg_medicijn_van_heks -->
<g id="edge47" class="edge">
<title>pluk_paddenstoelen_in_woud&#45;&gt;krijg_medicijn_van_heks</title>
<path fill="none" stroke="#999999" d="M1342.9326,-218.4551C1308.1761,-208.0138 1264.3181,-194.8383 1228.2589,-184.0058"/>
<polygon fill="#999999" stroke="#999999" points="1228.686,-181.2105 1220.2186,-181.5904 1227.0747,-186.5737 1228.686,-181.2105"/>
</g>
<!-- krijg_plant_hint_van_bakker -->
<g id="node52" class="node">
<title>krijg_plant_hint_van_bakker</title>
<path fill="#008800" stroke="#008800" d="M1115.5189,-875.5C1115.5189,-875.5 1268.4811,-875.5 1268.4811,-875.5 1274.4811,-875.5 1280.4811,-881.5 1280.4811,-887.5 1280.4811,-887.5 1280.4811,-899.5 1280.4811,-899.5 1280.4811,-905.5 1274.4811,-911.5 1268.4811,-911.5 1268.4811,-911.5 1115.5189,-911.5 1115.5189,-911.5 1109.5189,-911.5 1103.5189,-905.5 1103.5189,-899.5 1103.5189,-899.5 1103.5189,-887.5 1103.5189,-887.5 1103.5189,-881.5 1109.5189,-875.5 1115.5189,-875.5"/>
<text text-anchor="middle" x="1192" y="-889.3" font-family="lato, roboto, helvetica" font-size="14.00" fill="#eeeeee">Krijg Plant Hint Van Bakker</text>
</g>
<!-- vind_maansteen_in_moeras -->
<g id="node65" class="node">
<title>vind_maansteen_in_moeras</title>
<path fill="#008800" stroke="#008800" d="M1134.6125,-802.5C1134.6125,-802.5 1279.3875,-802.5 1279.3875,-802.5 1285.3875,-802.5 1291.3875,-808.5 1291.3875,-814.5 1291.3875,-814.5 1291.3875,-826.5 1291.3875,-826.5 1291.3875,-832.5 1285.3875,-838.5 1279.3875,-838.5 1279.3875,-838.5 1134.6125,-838.5 1134.6125,-838.5 1128.6125,-838.5 1122.6125,-832.5 1122.6125,-826.5 1122.6125,-826.5 1122.6125,-814.5 1122.6125,-814.5 1122.6125,-808.5 1128.6125,-802.5 1134.6125,-802.5"/>
<text text-anchor="middle" x="1207" y="-816.3" font-family="lato, roboto, helvetica" font-size="14.00" fill="#eeeeee">Vind Maansteen In Moeras</text>
</g>
<!-- krijg_plant_hint_van_bakker&#45;&gt;vind_maansteen_in_moeras -->
<g id="edge85" class="edge">
<title>krijg_plant_hint_van_bakker&#45;&gt;vind_maansteen_in_moeras</title>
<path fill="none" stroke="#999999" d="M1195.7079,-875.4551C1197.4927,-866.7686 1199.6665,-856.1898 1201.6284,-846.642"/>
<polygon fill="#999999" stroke="#999999" points="1204.4152,-846.9902 1203.2828,-838.5904 1198.9298,-845.863 1204.4152,-846.9902"/>
</g>
<!-- krijg_schat_onderwerp&#45;&gt;krijg_plant_hint_van_bakker -->
<g id="edge50" class="edge">
<title>krijg_schat_onderwerp&#45;&gt;krijg_plant_hint_van_bakker</title>
<path fill="none" stroke="#999999" d="M1194.2584,-948.4551C1193.9015,-939.7686 1193.4667,-929.1898 1193.0743,-919.642"/>
<polygon fill="#999999" stroke="#999999" points="1195.8697,-919.4686 1192.7434,-911.5904 1190.2744,-919.6986 1195.8697,-919.4686"/>
</g>
<!-- krijg_rivier_hint_van_molenaar -->
<g id="node54" class="node">
<title>krijg_rivier_hint_van_molenaar</title>
<path fill="#008800" stroke="#008800" d="M1496.805,-875.5C1496.805,-875.5 1669.195,-875.5 1669.195,-875.5 1675.195,-875.5 1681.195,-881.5 1681.195,-887.5 1681.195,-887.5 1681.195,-899.5 1681.195,-899.5 1681.195,-905.5 1675.195,-911.5 1669.195,-911.5 1669.195,-911.5 1496.805,-911.5 1496.805,-911.5 1490.805,-911.5 1484.805,-905.5 1484.805,-899.5 1484.805,-899.5 1484.805,-887.5 1484.805,-887.5 1484.805,-881.5 1490.805,-875.5 1496.805,-875.5"/>
<text text-anchor="middle" x="1583" y="-889.3" font-family="lato, roboto, helvetica" font-size="14.00" fill="#eeeeee">Krijg Rivier Hint Van Molenaar</text>
</g>
<!-- krijg_schat_onderwerp&#45;&gt;krijg_rivier_hint_van_molenaar -->
<g id="edge51" class="edge">
<title>krijg_schat_onderwerp&#45;&gt;krijg_rivier_hint_van_molenaar</title>
<path fill="none" stroke="#999999" d="M1268.436,-952.6834C1327.9706,-941.4823 1412.6025,-925.5593 1479.0883,-913.0504"/>
<polygon fill="#999999" stroke="#999999" points="1479.7592,-915.7734 1487.1035,-911.5424 1478.7237,-910.2699 1479.7592,-915.7734"/>
</g>
<!-- krijg_route_hint_van_boer -->
<g id="node55" class="node">
<title>krijg_route_hint_van_boer</title>
<path fill="#008800" stroke="#008800" d="M1310.7945,-875.5C1310.7945,-875.5 1455.2055,-875.5 1455.2055,-875.5 1461.2055,-875.5 1467.2055,-881.5 1467.2055,-887.5 1467.2055,-887.5 1467.2055,-899.5 1467.2055,-899.5 1467.2055,-905.5 1461.2055,-911.5 1455.2055,-911.5 1455.2055,-911.5 1310.7945,-911.5 1310.7945,-911.5 1304.7945,-911.5 1298.7945,-905.5 1298.7945,-899.5 1298.7945,-899.5 1298.7945,-887.5 1298.7945,-887.5 1298.7945,-881.5 1304.7945,-875.5 1310.7945,-875.5"/>
<text text-anchor="middle" x="1383" y="-889.3" font-family="lato, roboto, helvetica" font-size="14.00" fill="#eeeeee">Krijg Route Hint Van Boer</text>
</g>
<!-- krijg_schat_onderwerp&#45;&gt;krijg_route_hint_van_boer -->
<g id="edge52" class="edge">
<title>krijg_schat_onderwerp&#45;&gt;krijg_route_hint_van_boer</title>
<path fill="none" stroke="#999999" d="M1241.4719,-948.4551C1267.9098,-938.1893 1301.1545,-925.2804 1328.779,-914.5539"/>
<polygon fill="#999999" stroke="#999999" points="1329.9671,-917.0963 1336.4111,-911.5904 1327.9401,-911.876 1329.9671,-917.0963"/>
</g>
<!-- schat_route_compleet -->
<g id="node62" class="node">
<title>schat_route_compleet</title>
<path fill="#008800" stroke="#008800" d="M1324.0091,-802.5C1324.0091,-802.5 1441.9909,-802.5 1441.9909,-802.5 1447.9909,-802.5 1453.9909,-808.5 1453.9909,-814.5 1453.9909,-814.5 1453.9909,-826.5 1453.9909,-826.5 1453.9909,-832.5 1447.9909,-838.5 1441.9909,-838.5 1441.9909,-838.5 1324.0091,-838.5 1324.0091,-838.5 1318.0091,-838.5 1312.0091,-832.5 1312.0091,-826.5 1312.0091,-826.5 1312.0091,-814.5 1312.0091,-814.5 1312.0091,-808.5 1318.0091,-802.5 1324.0091,-802.5"/>
<text text-anchor="middle" x="1383" y="-816.3" font-family="lato, roboto, helvetica" font-size="14.00" fill="#eeeeee">Schat Route Compleet</text>
</g>
<!-- krijg_rivier_hint_van_molenaar&#45;&gt;schat_route_compleet -->
<g id="edge76" class="edge">
<title>krijg_rivier_hint_van_molenaar&#45;&gt;schat_route_compleet</title>
<path fill="none" stroke="#999999" d="M1533.5618,-875.4551C1505.3162,-865.1454 1469.7673,-852.1701 1440.3055,-841.4165"/>
<polygon fill="#999999" stroke="#999999" points="1441.0378,-838.7031 1432.5626,-838.5904 1439.1176,-843.9637 1441.0378,-838.7031"/>
</g>
<!-- krijg_route_hint_van_boer&#45;&gt;schat_route_compleet -->
<g id="edge77" class="edge">
<title>krijg_route_hint_van_boer&#45;&gt;schat_route_compleet</title>
<path fill="none" stroke="#999999" d="M1383,-875.4551C1383,-866.7686 1383,-856.1898 1383,-846.642"/>
<polygon fill="#999999" stroke="#999999" points="1385.8001,-846.5903 1383,-838.5904 1380.2001,-846.5904 1385.8001,-846.5903"/>
</g>
<!-- praat_met_dochter_van_bakker&#45;&gt;leg_molensteen_op_lift -->
<g id="edge55" class="edge">
<title>praat_met_dochter_van_bakker&#45;&gt;leg_molensteen_op_lift</title>
<path fill="none" stroke="#999999" d="M770.7865,-656.4551C757.3008,-646.8035 740.5506,-634.8156 726.1392,-624.5016"/>
<polygon fill="#999999" stroke="#999999" points="727.4121,-621.9694 719.2769,-619.5904 724.1529,-626.5233 727.4121,-621.9694"/>
</g>
<!-- praat_met_draak -->
<g id="node59" class="node">
<title>praat_met_draak</title>
<path fill="#3333aa" stroke="#3333aa" d="M1013.7454,-583.5C1013.7454,-583.5 1098.2546,-583.5 1098.2546,-583.5 1104.2546,-583.5 1110.2546,-589.5 1110.2546,-595.5 1110.2546,-595.5 1110.2546,-607.5 1110.2546,-607.5 1110.2546,-613.5 1104.2546,-619.5 1098.2546,-619.5 1098.2546,-619.5 1013.7454,-619.5 1013.7454,-619.5 1007.7454,-619.5 1001.7454,-613.5 1001.7454,-607.5 1001.7454,-607.5 1001.7454,-595.5 1001.7454,-595.5 1001.7454,-589.5 1007.7454,-583.5 1013.7454,-583.5"/>
<text text-anchor="middle" x="1056" y="-597.3" font-family="lato, roboto, helvetica" font-size="14.00" fill="#eeeeee">Praat Met Draak</text>
</g>
<!-- praat_met_dochter_van_bakker&#45;&gt;praat_met_draak -->
<g id="edge68" class="edge">
<title>praat_met_dochter_van_bakker&#45;&gt;praat_met_draak</title>
<path fill="none" stroke="#999999" d="M860.2697,-656.4551C901.0127,-645.0157 953.4449,-630.2943 993.786,-618.9678"/>
<polygon fill="#999999" stroke="#999999" points="994.7407,-621.6081 1001.6859,-616.7497 993.2269,-616.2166 994.7407,-621.6081"/>
</g>
<!-- vind_goud_in_bos -->
<g id="node57" class="node">
<title>vind_goud_in_bos</title>
<path fill="#3333aa" stroke="#3333aa" d="M1145.4772,-583.5C1145.4772,-583.5 1240.5228,-583.5 1240.5228,-583.5 1246.5228,-583.5 1252.5228,-589.5 1252.5228,-595.5 1252.5228,-595.5 1252.5228,-607.5 1252.5228,-607.5 1252.5228,-613.5 1246.5228,-619.5 1240.5228,-619.5 1240.5228,-619.5 1145.4772,-619.5 1145.4772,-619.5 1139.4772,-619.5 1133.4772,-613.5 1133.4772,-607.5 1133.4772,-607.5 1133.4772,-595.5 1133.4772,-595.5 1133.4772,-589.5 1139.4772,-583.5 1145.4772,-583.5"/>
<text text-anchor="middle" x="1193" y="-597.3" font-family="lato, roboto, helvetica" font-size="14.00" fill="#eeeeee">Vind Goud In Bos</text>
</g>
<!-- vind_goud_in_bos&#45;&gt;maak_sieraad_bij_smid -->
<g id="edge57" class="edge">
<title>vind_goud_in_bos&#45;&gt;maak_sieraad_bij_smid</title>
<path fill="none" stroke="#999999" d="M1133.3795,-583.7355C1098.0725,-573.2155 1053.2043,-559.8466 1016.4533,-548.8963"/>
<polygon fill="#999999" stroke="#999999" points="1017.2071,-546.1993 1008.7407,-546.5982 1015.608,-551.5661 1017.2071,-546.1993"/>
</g>
<!-- pak_hout_in_bos&#45;&gt;repareer_houweel -->
<g id="edge73" class="edge">
<title>pak_hout_in_bos&#45;&gt;repareer_houweel</title>
<path fill="none" stroke="#999999" d="M220.6117,-1460.0147C253.436,-1449.5052 295.3739,-1436.0777 329.7823,-1425.0609"/>
<polygon fill="#999999" stroke="#999999" points="330.6876,-1427.7112 337.4528,-1422.605 328.98,-1422.3778 330.6876,-1427.7112"/>
</g>
<!-- praat_met_draak&#45;&gt;trek_tand_van_draak -->
<g id="edge83" class="edge">
<title>praat_met_draak&#45;&gt;trek_tand_van_draak</title>
<path fill="none" stroke="#999999" d="M1051.4961,-583.2341C1039.172,-533.2529 1004.8586,-394.0932 990.4748,-335.759"/>
<polygon fill="#999999" stroke="#999999" points="993.1361,-334.856 988.5022,-327.759 987.699,-336.1967 993.1361,-334.856"/>
</g>
<!-- vind_runesteen_in_bos -->
<g id="node60" class="node">
<title>vind_runesteen_in_bos</title>
<path fill="#3333aa" stroke="#3333aa" d="M1013.8727,-656.5C1013.8727,-656.5 1136.1273,-656.5 1136.1273,-656.5 1142.1273,-656.5 1148.1273,-662.5 1148.1273,-668.5 1148.1273,-668.5 1148.1273,-680.5 1148.1273,-680.5 1148.1273,-686.5 1142.1273,-692.5 1136.1273,-692.5 1136.1273,-692.5 1013.8727,-692.5 1013.8727,-692.5 1007.8727,-692.5 1001.8727,-686.5 1001.8727,-680.5 1001.8727,-680.5 1001.8727,-668.5 1001.8727,-668.5 1001.8727,-662.5 1007.8727,-656.5 1013.8727,-656.5"/>
<text text-anchor="middle" x="1075" y="-670.3" font-family="lato, roboto, helvetica" font-size="14.00" fill="#eeeeee">Vind Runesteen In Bos</text>
</g>
<!-- vind_runesteen_in_bos&#45;&gt;praat_met_draak -->
<g id="edge67" class="edge">
<title>vind_runesteen_in_bos&#45;&gt;praat_met_draak</title>
<path fill="none" stroke="#999999" d="M1070.3034,-656.4551C1068.0197,-647.6809 1065.2335,-636.9759 1062.7289,-627.353"/>
<polygon fill="#999999" stroke="#999999" points="1065.4333,-626.6271 1060.7084,-619.5904 1060.0139,-628.0377 1065.4333,-626.6271"/>
</g>
<!-- vind_onderbroek_bij_rivier&#45;&gt;repareer_molen_met_onderbroek -->
<g id="edge75" class="edge">
<title>vind_onderbroek_bij_rivier&#45;&gt;repareer_molen_met_onderbroek</title>
<path fill="none" stroke="#999999" d="M752.972,-1532.4349C756.2114,-1513.846 761.8944,-1484.1361 769,-1459 779.1082,-1423.2419 794.2486,-1383.0854 804.3671,-1357.5623"/>
<polygon fill="#999999" stroke="#999999" points="807.0948,-1358.2817 807.4631,-1349.8139 801.8946,-1356.2039 807.0948,-1358.2817"/>
</g>
<!-- volg_maansteen_route -->
<g id="node64" class="node">
<title>volg_maansteen_route</title>
<path fill="#008800" stroke="#008800" d="M1143.4614,-729.5C1143.4614,-729.5 1264.5386,-729.5 1264.5386,-729.5 1270.5386,-729.5 1276.5386,-735.5 1276.5386,-741.5 1276.5386,-741.5 1276.5386,-753.5 1276.5386,-753.5 1276.5386,-759.5 1270.5386,-765.5 1264.5386,-765.5 1264.5386,-765.5 1143.4614,-765.5 1143.4614,-765.5 1137.4614,-765.5 1131.4614,-759.5 1131.4614,-753.5 1131.4614,-753.5 1131.4614,-741.5 1131.4614,-741.5 1131.4614,-735.5 1137.4614,-729.5 1143.4614,-729.5"/>
<text text-anchor="middle" x="1204" y="-743.3" font-family="lato, roboto, helvetica" font-size="14.00" fill="#eeeeee">Volg Maansteen Route</text>
</g>
<!-- schat_route_compleet&#45;&gt;volg_maansteen_route -->
<g id="edge90" class="edge">
<title>schat_route_compleet&#45;&gt;volg_maansteen_route</title>
<path fill="none" stroke="#999999" d="M1338.7528,-802.4551C1313.6882,-792.2332 1282.1978,-779.3907 1255.9628,-768.6916"/>
<polygon fill="#999999" stroke="#999999" points="1256.8236,-766.0187 1248.3586,-765.5904 1254.7089,-771.2041 1256.8236,-766.0187"/>
</g>
<!-- snij_touw_van_lift&#45;&gt;trek_tand_van_draak -->
<g id="edge82" class="edge">
<title>snij_touw_van_lift&#45;&gt;trek_tand_van_draak</title>
<path fill="none" stroke="#999999" d="M818.382,-364.4551C849.7166,-354.0577 889.2221,-340.949 921.7899,-330.1424"/>
<polygon fill="#999999" stroke="#999999" points="922.77,-332.7674 929.4811,-327.5904 921.0064,-327.4524 922.77,-332.7674"/>
</g>
<!-- volg_maansteen_route&#45;&gt;vind_goud_in_bos -->
<g id="edge84" class="edge">
<title>volg_maansteen_route&#45;&gt;vind_goud_in_bos</title>
<path fill="none" stroke="#999999" d="M1202.6291,-729.3042C1200.7106,-703.8403 1197.2125,-657.4108 1195.0023,-628.0759"/>
<polygon fill="#999999" stroke="#999999" points="1197.7814,-627.6921 1194.3882,-619.9251 1192.1972,-628.1129 1197.7814,-627.6921"/>
</g>
<!-- volg_maansteen_route&#45;&gt;vind_runesteen_in_bos -->
<g id="edge88" class="edge">
<title>volg_maansteen_route&#45;&gt;vind_runesteen_in_bos</title>
<path fill="none" stroke="#999999" d="M1172.1124,-729.4551C1154.5917,-719.5403 1132.7143,-707.16 1114.1622,-696.6615"/>
<polygon fill="#999999" stroke="#999999" points="1115.3094,-694.0935 1106.9679,-692.5904 1112.5514,-698.9673 1115.3094,-694.0935"/>
</g>
<!-- vind_maansteen_in_moeras&#45;&gt;volg_maansteen_route -->
<g id="edge89" class="edge">
<title>vind_maansteen_in_moeras&#45;&gt;volg_maansteen_route</title>
<path fill="none" stroke="#999999" d="M1206.2584,-802.4551C1205.9015,-793.7686 1205.4667,-783.1898 1205.0743,-773.642"/>
<polygon fill="#999999" stroke="#999999" points="1207.8697,-773.4686 1204.7434,-765.5904 1202.2744,-773.6986 1207.8697,-773.4686"/>
</g>
</g>
</svg>
