<?xml version="1.0" encoding="UTF-8" standalone="no"?>
<!DOCTYPE svg PUBLIC "-//W3C//DTD SVG 1.1//EN"
 "http://www.w3.org/Graphics/SVG/1.1/DTD/svg11.dtd">
<!-- Generated by graphviz version 2.40.1 (20161225.0304)
 -->
<!-- Title: G Pages: 1 -->
<svg width="1212pt" height="1316pt"
 viewBox="0.00 0.00 1212.19 1316.00" xmlns="http://www.w3.org/2000/svg" xmlns:xlink="http://www.w3.org/1999/xlink">
<g id="graph0" class="graph" transform="scale(1 1) rotate(0) translate(4 1312)">
<title>G</title>
<polygon fill="#ffffff" stroke="transparent" points="-4,4 -4,-1312 1208.191,-1312 1208.191,4 -4,4"/>
<text text-anchor="middle" x="602.0955" y="-1286" font-family="lato, roboto, helvetica" font-size="20.00" fill="#000000">Avontuur</text>
<!-- START -->
<g id="node1" class="node">
<title>START</title>
<polygon fill="#333333" stroke="#333333" points="660.3251,-1276 601.6191,-1258 660.3251,-1240 719.0311,-1258 660.3251,-1276"/>
<polyline fill="none" stroke="#333333" points="613.0919,-1261.5177 613.0919,-1254.4823 "/>
<polyline fill="none" stroke="#333333" points="648.8523,-1243.5177 671.7979,-1243.5177 "/>
<polyline fill="none" stroke="#333333" points="707.5583,-1254.4823 707.5583,-1261.5177 "/>
<polyline fill="none" stroke="#333333" points="671.7979,-1272.4823 648.8523,-1272.4823 "/>
<text text-anchor="middle" x="660.3251" y="-1253.8" font-family="lato, roboto, helvetica" font-size="14.00" fill="#dddddd">START</text>
</g>
<!-- praat_met_boer -->
<g id="node16" class="node">
<title>praat_met_boer</title>
<path fill="#3333aa" stroke="#3333aa" d="M155.5628,-1167.5C155.5628,-1167.5 233.0874,-1167.5 233.0874,-1167.5 239.0874,-1167.5 245.0874,-1173.5 245.0874,-1179.5 245.0874,-1179.5 245.0874,-1191.5 245.0874,-1191.5 245.0874,-1197.5 239.0874,-1203.5 233.0874,-1203.5 233.0874,-1203.5 155.5628,-1203.5 155.5628,-1203.5 149.5628,-1203.5 143.5628,-1197.5 143.5628,-1191.5 143.5628,-1191.5 143.5628,-1179.5 143.5628,-1179.5 143.5628,-1173.5 149.5628,-1167.5 155.5628,-1167.5"/>
<text text-anchor="middle" x="194.3251" y="-1181.3" font-family="lato, roboto, helvetica" font-size="14.00" fill="#eeeeee">Praat Met Boer</text>
</g>
<!-- START&#45;&gt;praat_met_boer -->
<g id="edge48" class="edge">
<title>START&#45;&gt;praat_met_boer</title>
<path fill="none" stroke="#999999" d="M620.9958,-1251.8812C539.04,-1239.1305 349.5998,-1209.6576 253.1068,-1194.6452"/>
<polygon fill="#999999" stroke="#999999" points="253.5291,-1191.8773 245.1937,-1193.4141 252.6681,-1197.4107 253.5291,-1191.8773"/>
</g>
<!-- praat_met_bakker -->
<g id="node18" class="node">
<title>praat_met_bakker</title>
<path fill="#3333aa" stroke="#3333aa" d="M699.9555,-1094.5C699.9555,-1094.5 790.6947,-1094.5 790.6947,-1094.5 796.6947,-1094.5 802.6947,-1100.5 802.6947,-1106.5 802.6947,-1106.5 802.6947,-1118.5 802.6947,-1118.5 802.6947,-1124.5 796.6947,-1130.5 790.6947,-1130.5 790.6947,-1130.5 699.9555,-1130.5 699.9555,-1130.5 693.9555,-1130.5 687.9555,-1124.5 687.9555,-1118.5 687.9555,-1118.5 687.9555,-1106.5 687.9555,-1106.5 687.9555,-1100.5 693.9555,-1094.5 699.9555,-1094.5"/>
<text text-anchor="middle" x="745.3251" y="-1108.3" font-family="lato, roboto, helvetica" font-size="14.00" fill="#eeeeee">Praat Met Bakker</text>
</g>
<!-- START&#45;&gt;praat_met_bakker -->
<g id="edge47" class="edge">
<title>START&#45;&gt;praat_met_bakker</title>
<path fill="none" stroke="#999999" d="M669.2609,-1242.704C683.7997,-1217.8171 712.7259,-1168.3022 730.4171,-1138.0189"/>
<polygon fill="#999999" stroke="#999999" points="733.0395,-1139.0809 734.6573,-1130.7608 728.2041,-1136.2561 733.0395,-1139.0809"/>
</g>
<!-- praat_met_dwerg -->
<g id="node20" class="node">
<title>praat_met_dwerg</title>
<path fill="#3333aa" stroke="#3333aa" d="M518.1245,-1167.5C518.1245,-1167.5 606.5257,-1167.5 606.5257,-1167.5 612.5257,-1167.5 618.5257,-1173.5 618.5257,-1179.5 618.5257,-1179.5 618.5257,-1191.5 618.5257,-1191.5 618.5257,-1197.5 612.5257,-1203.5 606.5257,-1203.5 606.5257,-1203.5 518.1245,-1203.5 518.1245,-1203.5 512.1245,-1203.5 506.1245,-1197.5 506.1245,-1191.5 506.1245,-1191.5 506.1245,-1179.5 506.1245,-1179.5 506.1245,-1173.5 512.1245,-1167.5 518.1245,-1167.5"/>
<text text-anchor="middle" x="562.3251" y="-1181.3" font-family="lato, roboto, helvetica" font-size="14.00" fill="#eeeeee">Praat Met Dwerg</text>
</g>
<!-- START&#45;&gt;praat_met_dwerg -->
<g id="edge50" class="edge">
<title>START&#45;&gt;praat_met_dwerg</title>
<path fill="none" stroke="#999999" d="M642.8047,-1245.0385C629.1234,-1234.9171 609.7644,-1220.5954 593.4618,-1208.5348"/>
<polygon fill="#999999" stroke="#999999" points="594.7842,-1206.0302 586.6875,-1203.5232 591.4537,-1210.5322 594.7842,-1206.0302"/>
</g>
<!-- pak_touw_op_boerderij -->
<g id="node35" class="node">
<title>pak_touw_op_boerderij</title>
<path fill="#3333aa" stroke="#3333aa" d="M776.2595,-583.5C776.2595,-583.5 902.3907,-583.5 902.3907,-583.5 908.3907,-583.5 914.3907,-589.5 914.3907,-595.5 914.3907,-595.5 914.3907,-607.5 914.3907,-607.5 914.3907,-613.5 908.3907,-619.5 902.3907,-619.5 902.3907,-619.5 776.2595,-619.5 776.2595,-619.5 770.2595,-619.5 764.2595,-613.5 764.2595,-607.5 764.2595,-607.5 764.2595,-595.5 764.2595,-595.5 764.2595,-589.5 770.2595,-583.5 776.2595,-583.5"/>
<text text-anchor="middle" x="839.3251" y="-597.3" font-family="lato, roboto, helvetica" font-size="14.00" fill="#eeeeee">Pak Touw Op Boerderij</text>
</g>
<!-- START&#45;&gt;pak_touw_op_boerderij -->
<g id="edge44" class="edge">
<title>START&#45;&gt;pak_touw_op_boerderij</title>
<path fill="none" stroke="#999999" d="M690.2857,-1249.0095C741.2426,-1231.6539 839.3251,-1188.3907 839.3251,-1112.5 839.3251,-1112.5 839.3251,-1112.5 839.3251,-747.5 839.3251,-705.7434 839.3251,-657.2692 839.3251,-628.0145"/>
<polygon fill="#999999" stroke="#999999" points="842.1252,-627.9379 839.3251,-619.938 836.5252,-627.938 842.1252,-627.9379"/>
</g>
<!-- pak_hout_in_bos -->
<g id="node47" class="node">
<title>pak_hout_in_bos</title>
<path fill="#3333aa" stroke="#3333aa" d="M618.857,-1021.5C618.857,-1021.5 703.7932,-1021.5 703.7932,-1021.5 709.7932,-1021.5 715.7932,-1027.5 715.7932,-1033.5 715.7932,-1033.5 715.7932,-1045.5 715.7932,-1045.5 715.7932,-1051.5 709.7932,-1057.5 703.7932,-1057.5 703.7932,-1057.5 618.857,-1057.5 618.857,-1057.5 612.857,-1057.5 606.857,-1051.5 606.857,-1045.5 606.857,-1045.5 606.857,-1033.5 606.857,-1033.5 606.857,-1027.5 612.857,-1021.5 618.857,-1021.5"/>
<text text-anchor="middle" x="661.3251" y="-1035.3" font-family="lato, roboto, helvetica" font-size="14.00" fill="#eeeeee">Pak Hout In Bos</text>
</g>
<!-- START&#45;&gt;pak_hout_in_bos -->
<g id="edge40" class="edge">
<title>START&#45;&gt;pak_hout_in_bos</title>
<path fill="none" stroke="#999999" d="M660.4086,-1239.7466C660.5859,-1201.0112 661.0003,-1110.4695 661.2055,-1065.6232"/>
<polygon fill="#999999" stroke="#999999" points="664.0058,-1065.5605 661.2425,-1057.5477 658.4058,-1065.5348 664.0058,-1065.5605"/>
</g>
<!-- beklim_toren -->
<g id="node2" class="node">
<title>beklim_toren</title>
<path fill="#3333aa" stroke="#3333aa" d="M217.2497,-437.5C217.2497,-437.5 287.4005,-437.5 287.4005,-437.5 293.4005,-437.5 299.4005,-443.5 299.4005,-449.5 299.4005,-449.5 299.4005,-461.5 299.4005,-461.5 299.4005,-467.5 293.4005,-473.5 287.4005,-473.5 287.4005,-473.5 217.2497,-473.5 217.2497,-473.5 211.2497,-473.5 205.2497,-467.5 205.2497,-461.5 205.2497,-461.5 205.2497,-449.5 205.2497,-449.5 205.2497,-443.5 211.2497,-437.5 217.2497,-437.5"/>
<text text-anchor="middle" x="252.3251" y="-451.3" font-family="lato, roboto, helvetica" font-size="14.00" fill="#eeeeee">Beklim Toren</text>
</g>
<!-- praat_met_dochter_van_bakker -->
<g id="node44" class="node">
<title>praat_met_dochter_van_bakker</title>
<path fill="#3333aa" stroke="#3333aa" d="M167.2514,-364.5C167.2514,-364.5 333.3988,-364.5 333.3988,-364.5 339.3988,-364.5 345.3988,-370.5 345.3988,-376.5 345.3988,-376.5 345.3988,-388.5 345.3988,-388.5 345.3988,-394.5 339.3988,-400.5 333.3988,-400.5 333.3988,-400.5 167.2514,-400.5 167.2514,-400.5 161.2514,-400.5 155.2514,-394.5 155.2514,-388.5 155.2514,-388.5 155.2514,-376.5 155.2514,-376.5 155.2514,-370.5 161.2514,-364.5 167.2514,-364.5"/>
<text text-anchor="middle" x="250.3251" y="-378.3" font-family="lato, roboto, helvetica" font-size="14.00" fill="#eeeeee">Praat Met Dochter Van Bakker</text>
</g>
<!-- beklim_toren&#45;&gt;praat_met_dochter_van_bakker -->
<g id="edge49" class="edge">
<title>beklim_toren&#45;&gt;praat_met_dochter_van_bakker</title>
<path fill="none" stroke="#999999" d="M251.8307,-437.4551C251.5927,-428.7686 251.3029,-418.1898 251.0413,-408.642"/>
<polygon fill="#999999" stroke="#999999" points="253.8389,-408.5106 250.8207,-400.5904 248.241,-408.6641 253.8389,-408.5106"/>
</g>
<!-- koop_zwaard_bij_wapensmid -->
<g id="node3" class="node">
<title>koop_zwaard_bij_wapensmid</title>
<path fill="#3333aa" stroke="#3333aa" d="M173.1536,-510.5C173.1536,-510.5 333.4966,-510.5 333.4966,-510.5 339.4966,-510.5 345.4966,-516.5 345.4966,-522.5 345.4966,-522.5 345.4966,-534.5 345.4966,-534.5 345.4966,-540.5 339.4966,-546.5 333.4966,-546.5 333.4966,-546.5 173.1536,-546.5 173.1536,-546.5 167.1536,-546.5 161.1536,-540.5 161.1536,-534.5 161.1536,-534.5 161.1536,-522.5 161.1536,-522.5 161.1536,-516.5 167.1536,-510.5 173.1536,-510.5"/>
<text text-anchor="middle" x="253.3251" y="-524.3" font-family="lato, roboto, helvetica" font-size="14.00" fill="#eeeeee">Koop Zwaard Bij Wapensmid</text>
</g>
<!-- koop_zwaard_bij_wapensmid&#45;&gt;beklim_toren -->
<g id="edge1" class="edge">
<title>koop_zwaard_bij_wapensmid&#45;&gt;beklim_toren</title>
<path fill="none" stroke="#999999" d="M253.0779,-510.4551C252.9589,-501.7686 252.814,-491.1898 252.6832,-481.642"/>
<polygon fill="#999999" stroke="#999999" points="255.4823,-481.5512 252.5729,-473.5904 249.8829,-481.628 255.4823,-481.5512"/>
</g>
<!-- snij_touw_van_lift -->
<g id="node48" class="node">
<title>snij_touw_van_lift</title>
<path fill="#3333aa" stroke="#3333aa" d="M833.3058,-437.5C833.3058,-437.5 935.3444,-437.5 935.3444,-437.5 941.3444,-437.5 947.3444,-443.5 947.3444,-449.5 947.3444,-449.5 947.3444,-461.5 947.3444,-461.5 947.3444,-467.5 941.3444,-473.5 935.3444,-473.5 935.3444,-473.5 833.3058,-473.5 833.3058,-473.5 827.3058,-473.5 821.3058,-467.5 821.3058,-461.5 821.3058,-461.5 821.3058,-449.5 821.3058,-449.5 821.3058,-443.5 827.3058,-437.5 833.3058,-437.5"/>
<text text-anchor="middle" x="884.3251" y="-451.3" font-family="lato, roboto, helvetica" font-size="14.00" fill="#eeeeee">Snij Touw Van Lift</text>
</g>
<!-- koop_zwaard_bij_wapensmid&#45;&gt;snij_touw_van_lift -->
<g id="edge54" class="edge">
<title>koop_zwaard_bij_wapensmid&#45;&gt;snij_touw_van_lift</title>
<path fill="none" stroke="#999999" d="M345.7537,-517.807C472.6183,-503.1301 698.0043,-477.0553 812.8148,-463.773"/>
<polygon fill="#999999" stroke="#999999" points="813.262,-466.54 820.8872,-462.8391 812.6184,-460.9771 813.262,-466.54"/>
</g>
<!-- bezorg_graan_bij_molenaar -->
<g id="node4" class="node">
<title>bezorg_graan_bij_molenaar</title>
<path fill="#3333aa" stroke="#3333aa" d="M70.385,-802.5C70.385,-802.5 218.2652,-802.5 218.2652,-802.5 224.2652,-802.5 230.2652,-808.5 230.2652,-814.5 230.2652,-814.5 230.2652,-826.5 230.2652,-826.5 230.2652,-832.5 224.2652,-838.5 218.2652,-838.5 218.2652,-838.5 70.385,-838.5 70.385,-838.5 64.385,-838.5 58.385,-832.5 58.385,-826.5 58.385,-826.5 58.385,-814.5 58.385,-814.5 58.385,-808.5 64.385,-802.5 70.385,-802.5"/>
<text text-anchor="middle" x="144.3251" y="-816.3" font-family="lato, roboto, helvetica" font-size="14.00" fill="#eeeeee">Bezorg Graan Bij Molenaar</text>
</g>
<!-- krijg_meel_bij_molenaar -->
<g id="node7" class="node">
<title>krijg_meel_bij_molenaar</title>
<path fill="#3333aa" stroke="#3333aa" d="M78.54,-729.5C78.54,-729.5 210.1102,-729.5 210.1102,-729.5 216.1102,-729.5 222.1102,-735.5 222.1102,-741.5 222.1102,-741.5 222.1102,-753.5 222.1102,-753.5 222.1102,-759.5 216.1102,-765.5 210.1102,-765.5 210.1102,-765.5 78.54,-765.5 78.54,-765.5 72.54,-765.5 66.54,-759.5 66.54,-753.5 66.54,-753.5 66.54,-741.5 66.54,-741.5 66.54,-735.5 72.54,-729.5 78.54,-729.5"/>
<text text-anchor="middle" x="144.3251" y="-743.3" font-family="lato, roboto, helvetica" font-size="14.00" fill="#eeeeee">Krijg Meel Bij Molenaar</text>
</g>
<!-- bezorg_graan_bij_molenaar&#45;&gt;krijg_meel_bij_molenaar -->
<g id="edge33" class="edge">
<title>bezorg_graan_bij_molenaar&#45;&gt;krijg_meel_bij_molenaar</title>
<path fill="none" stroke="#999999" d="M144.3251,-802.4551C144.3251,-793.7686 144.3251,-783.1898 144.3251,-773.642"/>
<polygon fill="#999999" stroke="#999999" points="147.1252,-773.5903 144.3251,-765.5904 141.5252,-773.5904 147.1252,-773.5903"/>
</g>
<!-- zet_graan_op_wagen -->
<g id="node5" class="node">
<title>zet_graan_op_wagen</title>
<path fill="#3333aa" stroke="#3333aa" d="M88.2728,-875.5C88.2728,-875.5 200.3774,-875.5 200.3774,-875.5 206.3774,-875.5 212.3774,-881.5 212.3774,-887.5 212.3774,-887.5 212.3774,-899.5 212.3774,-899.5 212.3774,-905.5 206.3774,-911.5 200.3774,-911.5 200.3774,-911.5 88.2728,-911.5 88.2728,-911.5 82.2728,-911.5 76.2728,-905.5 76.2728,-899.5 76.2728,-899.5 76.2728,-887.5 76.2728,-887.5 76.2728,-881.5 82.2728,-875.5 88.2728,-875.5"/>
<text text-anchor="middle" x="144.3251" y="-889.3" font-family="lato, roboto, helvetica" font-size="14.00" fill="#eeeeee">Zet Graan Op Wagen</text>
</g>
<!-- zet_graan_op_wagen&#45;&gt;bezorg_graan_bij_molenaar -->
<g id="edge2" class="edge">
<title>zet_graan_op_wagen&#45;&gt;bezorg_graan_bij_molenaar</title>
<path fill="none" stroke="#999999" d="M144.3251,-875.4551C144.3251,-866.7686 144.3251,-856.1898 144.3251,-846.642"/>
<polygon fill="#999999" stroke="#999999" points="147.1252,-846.5903 144.3251,-838.5904 141.5252,-846.5904 147.1252,-846.5903"/>
</g>
<!-- bezorg_meel_bij_bakker -->
<g id="node6" class="node">
<title>bezorg_meel_bij_bakker</title>
<path fill="#3333aa" stroke="#3333aa" d="M79.7076,-656.5C79.7076,-656.5 208.9426,-656.5 208.9426,-656.5 214.9426,-656.5 220.9426,-662.5 220.9426,-668.5 220.9426,-668.5 220.9426,-680.5 220.9426,-680.5 220.9426,-686.5 214.9426,-692.5 208.9426,-692.5 208.9426,-692.5 79.7076,-692.5 79.7076,-692.5 73.7076,-692.5 67.7076,-686.5 67.7076,-680.5 67.7076,-680.5 67.7076,-668.5 67.7076,-668.5 67.7076,-662.5 73.7076,-656.5 79.7076,-656.5"/>
<text text-anchor="middle" x="144.3251" y="-670.3" font-family="lato, roboto, helvetica" font-size="14.00" fill="#eeeeee">Bezorg Meel Bij Bakker</text>
</g>
<!-- zet_molensteen_op_wagen -->
<g id="node14" class="node">
<title>zet_molensteen_op_wagen</title>
<path fill="#3333aa" stroke="#3333aa" d="M17.7139,-583.5C17.7139,-583.5 160.9363,-583.5 160.9363,-583.5 166.9363,-583.5 172.9363,-589.5 172.9363,-595.5 172.9363,-595.5 172.9363,-607.5 172.9363,-607.5 172.9363,-613.5 166.9363,-619.5 160.9363,-619.5 160.9363,-619.5 17.7139,-619.5 17.7139,-619.5 11.7139,-619.5 5.7139,-613.5 5.7139,-607.5 5.7139,-607.5 5.7139,-595.5 5.7139,-595.5 5.7139,-589.5 11.7139,-583.5 17.7139,-583.5"/>
<text text-anchor="middle" x="89.3251" y="-597.3" font-family="lato, roboto, helvetica" font-size="14.00" fill="#eeeeee">Zet Molensteen Op Wagen</text>
</g>
<!-- bezorg_meel_bij_bakker&#45;&gt;zet_molensteen_op_wagen -->
<g id="edge61" class="edge">
<title>bezorg_meel_bij_bakker&#45;&gt;zet_molensteen_op_wagen</title>
<path fill="none" stroke="#999999" d="M130.7296,-656.4551C123.8545,-647.3299 115.406,-636.1165 107.9374,-626.2036"/>
<polygon fill="#999999" stroke="#999999" points="110.0052,-624.2949 102.9548,-619.5904 105.5325,-627.6648 110.0052,-624.2949"/>
</g>
<!-- krijg_geld_van_meel -->
<g id="node37" class="node">
<title>krijg_geld_van_meel</title>
<path fill="#3333aa" stroke="#3333aa" d="M202.6522,-583.5C202.6522,-583.5 313.998,-583.5 313.998,-583.5 319.998,-583.5 325.998,-589.5 325.998,-595.5 325.998,-595.5 325.998,-607.5 325.998,-607.5 325.998,-613.5 319.998,-619.5 313.998,-619.5 313.998,-619.5 202.6522,-619.5 202.6522,-619.5 196.6522,-619.5 190.6522,-613.5 190.6522,-607.5 190.6522,-607.5 190.6522,-595.5 190.6522,-595.5 190.6522,-589.5 196.6522,-583.5 202.6522,-583.5"/>
<text text-anchor="middle" x="258.3251" y="-597.3" font-family="lato, roboto, helvetica" font-size="14.00" fill="#eeeeee">Krijg Geld Van Meel</text>
</g>
<!-- bezorg_meel_bij_bakker&#45;&gt;krijg_geld_van_meel -->
<g id="edge25" class="edge">
<title>bezorg_meel_bij_bakker&#45;&gt;krijg_geld_van_meel</title>
<path fill="none" stroke="#999999" d="M172.5049,-656.4551C187.8512,-646.628 206.9799,-634.3789 223.2807,-623.9407"/>
<polygon fill="#999999" stroke="#999999" points="224.8472,-626.2625 230.0744,-619.5904 221.8273,-621.5465 224.8472,-626.2625"/>
</g>
<!-- krijg_meel_bij_molenaar&#45;&gt;bezorg_meel_bij_bakker -->
<g id="edge3" class="edge">
<title>krijg_meel_bij_molenaar&#45;&gt;bezorg_meel_bij_bakker</title>
<path fill="none" stroke="#999999" d="M144.3251,-729.4551C144.3251,-720.7686 144.3251,-710.1898 144.3251,-700.642"/>
<polygon fill="#999999" stroke="#999999" points="147.1252,-700.5903 144.3251,-692.5904 141.5252,-700.5904 147.1252,-700.5903"/>
</g>
<!-- breng_dochter_naar_bakker -->
<g id="node8" class="node">
<title>breng_dochter_naar_bakker</title>
<path fill="#3333aa" stroke="#3333aa" d="M740.6143,-291.5C740.6143,-291.5 890.0359,-291.5 890.0359,-291.5 896.0359,-291.5 902.0359,-297.5 902.0359,-303.5 902.0359,-303.5 902.0359,-315.5 902.0359,-315.5 902.0359,-321.5 896.0359,-327.5 890.0359,-327.5 890.0359,-327.5 740.6143,-327.5 740.6143,-327.5 734.6143,-327.5 728.6143,-321.5 728.6143,-315.5 728.6143,-315.5 728.6143,-303.5 728.6143,-303.5 728.6143,-297.5 734.6143,-291.5 740.6143,-291.5"/>
<text text-anchor="middle" x="815.3251" y="-305.3" font-family="lato, roboto, helvetica" font-size="14.00" fill="#eeeeee">Breng Dochter Naar Bakker</text>
</g>
<!-- krijg_taart_van_bakker -->
<g id="node43" class="node">
<title>krijg_taart_van_bakker</title>
<path fill="#3333aa" stroke="#3333aa" d="M705.6606,-218.5C705.6606,-218.5 830.9896,-218.5 830.9896,-218.5 836.9896,-218.5 842.9896,-224.5 842.9896,-230.5 842.9896,-230.5 842.9896,-242.5 842.9896,-242.5 842.9896,-248.5 836.9896,-254.5 830.9896,-254.5 830.9896,-254.5 705.6606,-254.5 705.6606,-254.5 699.6606,-254.5 693.6606,-248.5 693.6606,-242.5 693.6606,-242.5 693.6606,-230.5 693.6606,-230.5 693.6606,-224.5 699.6606,-218.5 705.6606,-218.5"/>
<text text-anchor="middle" x="768.3251" y="-232.3" font-family="lato, roboto, helvetica" font-size="14.00" fill="#eeeeee">Krijg Taart Van Bakker</text>
</g>
<!-- breng_dochter_naar_bakker&#45;&gt;krijg_taart_van_bakker -->
<g id="edge35" class="edge">
<title>breng_dochter_naar_bakker&#45;&gt;krijg_taart_van_bakker</title>
<path fill="none" stroke="#999999" d="M803.7071,-291.4551C797.8885,-282.4177 790.7511,-271.3319 784.4145,-261.4899"/>
<polygon fill="#999999" stroke="#999999" points="786.6573,-259.801 779.9723,-254.5904 781.9488,-262.8326 786.6573,-259.801"/>
</g>
<!-- trek_tand_van_draak -->
<g id="node9" class="node">
<title>trek_tand_van_draak</title>
<path fill="#3333aa" stroke="#3333aa" d="M872.7188,-364.5C872.7188,-364.5 987.9314,-364.5 987.9314,-364.5 993.9314,-364.5 999.9314,-370.5 999.9314,-376.5 999.9314,-376.5 999.9314,-388.5 999.9314,-388.5 999.9314,-394.5 993.9314,-400.5 987.9314,-400.5 987.9314,-400.5 872.7188,-400.5 872.7188,-400.5 866.7188,-400.5 860.7188,-394.5 860.7188,-388.5 860.7188,-388.5 860.7188,-376.5 860.7188,-376.5 860.7188,-370.5 866.7188,-364.5 872.7188,-364.5"/>
<text text-anchor="middle" x="930.3251" y="-378.3" font-family="lato, roboto, helvetica" font-size="14.00" fill="#eeeeee">Trek Tand Van Draak</text>
</g>
<!-- trek_tand_van_draak&#45;&gt;breng_dochter_naar_bakker -->
<g id="edge4" class="edge">
<title>trek_tand_van_draak&#45;&gt;breng_dochter_naar_bakker</title>
<path fill="none" stroke="#999999" d="M901.8981,-364.4551C886.4172,-354.628 867.1207,-342.3789 850.6769,-331.9407"/>
<polygon fill="#999999" stroke="#999999" points="852.0784,-329.5139 843.8236,-327.5904 849.0771,-334.2418 852.0784,-329.5139"/>
</g>
<!-- zet_zadel_op_draak -->
<g id="node11" class="node">
<title>zet_zadel_op_draak</title>
<path fill="#3333aa" stroke="#3333aa" d="M1038.1585,-72.5C1038.1585,-72.5 1142.4917,-72.5 1142.4917,-72.5 1148.4917,-72.5 1154.4917,-78.5 1154.4917,-84.5 1154.4917,-84.5 1154.4917,-96.5 1154.4917,-96.5 1154.4917,-102.5 1148.4917,-108.5 1142.4917,-108.5 1142.4917,-108.5 1038.1585,-108.5 1038.1585,-108.5 1032.1585,-108.5 1026.1585,-102.5 1026.1585,-96.5 1026.1585,-96.5 1026.1585,-84.5 1026.1585,-84.5 1026.1585,-78.5 1032.1585,-72.5 1038.1585,-72.5"/>
<text text-anchor="middle" x="1090.3251" y="-86.3" font-family="lato, roboto, helvetica" font-size="14.00" fill="#eeeeee">Zet Zadel Op Draak</text>
</g>
<!-- trek_tand_van_draak&#45;&gt;zet_zadel_op_draak -->
<g id="edge63" class="edge">
<title>trek_tand_van_draak&#45;&gt;zet_zadel_op_draak</title>
<path fill="none" stroke="#999999" d="M999.9734,-371.4197C1053.9352,-361.653 1123.1268,-346.1719 1145.3251,-328 1209.4009,-275.5464 1220.9774,-217.1421 1180.3251,-145 1172.6124,-131.3129 1159.9234,-120.6709 1146.4724,-112.573"/>
<polygon fill="#999999" stroke="#999999" points="1147.7331,-110.0692 1139.3913,-108.5675 1144.976,-114.9434 1147.7331,-110.0692"/>
</g>
<!-- pak_stuk_leer_in_toren -->
<g id="node28" class="node">
<title>pak_stuk_leer_in_toren</title>
<path fill="#3333aa" stroke="#3333aa" d="M1000.6245,-291.5C1000.6245,-291.5 1124.0257,-291.5 1124.0257,-291.5 1130.0257,-291.5 1136.0257,-297.5 1136.0257,-303.5 1136.0257,-303.5 1136.0257,-315.5 1136.0257,-315.5 1136.0257,-321.5 1130.0257,-327.5 1124.0257,-327.5 1124.0257,-327.5 1000.6245,-327.5 1000.6245,-327.5 994.6245,-327.5 988.6245,-321.5 988.6245,-315.5 988.6245,-315.5 988.6245,-303.5 988.6245,-303.5 988.6245,-297.5 994.6245,-291.5 1000.6245,-291.5"/>
<text text-anchor="middle" x="1062.3251" y="-305.3" font-family="lato, roboto, helvetica" font-size="14.00" fill="#eeeeee">Pak Stuk Leer In Toren</text>
</g>
<!-- trek_tand_van_draak&#45;&gt;pak_stuk_leer_in_toren -->
<g id="edge41" class="edge">
<title>trek_tand_van_draak&#45;&gt;pak_stuk_leer_in_toren</title>
<path fill="none" stroke="#999999" d="M962.9543,-364.4551C980.9618,-354.4964 1003.4668,-342.0504 1022.504,-331.5223"/>
<polygon fill="#999999" stroke="#999999" points="1023.9681,-333.9123 1029.6138,-327.5904 1021.2579,-329.0118 1023.9681,-333.9123"/>
</g>
<!-- pak_tand_van_draak -->
<g id="node40" class="node">
<title>pak_tand_van_draak</title>
<path fill="#3333aa" stroke="#3333aa" d="M873.4341,-218.5C873.4341,-218.5 983.2161,-218.5 983.2161,-218.5 989.2161,-218.5 995.2161,-224.5 995.2161,-230.5 995.2161,-230.5 995.2161,-242.5 995.2161,-242.5 995.2161,-248.5 989.2161,-254.5 983.2161,-254.5 983.2161,-254.5 873.4341,-254.5 873.4341,-254.5 867.4341,-254.5 861.4341,-248.5 861.4341,-242.5 861.4341,-242.5 861.4341,-230.5 861.4341,-230.5 861.4341,-224.5 867.4341,-218.5 873.4341,-218.5"/>
<text text-anchor="middle" x="928.3251" y="-232.3" font-family="lato, roboto, helvetica" font-size="14.00" fill="#eeeeee">Pak Tand Van Draak</text>
</g>
<!-- trek_tand_van_draak&#45;&gt;pak_tand_van_draak -->
<g id="edge43" class="edge">
<title>trek_tand_van_draak&#45;&gt;pak_tand_van_draak</title>
<path fill="none" stroke="#999999" d="M930.0758,-364.3042C929.727,-338.8403 929.091,-292.4108 928.6892,-263.0759"/>
<polygon fill="#999999" stroke="#999999" points="931.4869,-262.886 928.5775,-254.9251 925.8874,-262.9627 931.4869,-262.886"/>
</g>
<!-- breng_medicijnen_naar_koning -->
<g id="node10" class="node">
<title>breng_medicijnen_naar_koning</title>
<polygon fill="#333333" stroke="#333333" points="929.3251,-36 740.484,-18 929.3251,0 1118.1662,-18 929.3251,-36"/>
<polyline fill="none" stroke="#333333" points="752.4298,-19.1387 752.4298,-16.8613 "/>
<polyline fill="none" stroke="#333333" points="917.3792,-1.1387 941.271,-1.1387 "/>
<polyline fill="none" stroke="#333333" points="1106.2204,-16.8613 1106.2204,-19.1387 "/>
<polyline fill="none" stroke="#333333" points="941.271,-34.8613 917.3792,-34.8613 "/>
<text text-anchor="middle" x="929.3251" y="-13.8" font-family="lato, roboto, helvetica" font-size="14.00" fill="#dddddd">Breng Medicijnen Naar Koning</text>
</g>
<!-- zet_zadel_op_draak&#45;&gt;breng_medicijnen_naar_koning -->
<g id="edge5" class="edge">
<title>zet_zadel_op_draak&#45;&gt;breng_medicijnen_naar_koning</title>
<path fill="none" stroke="#999999" d="M1050.1133,-72.3922C1025.6353,-61.3695 994.4611,-47.3314 969.9146,-36.2779"/>
<polygon fill="#999999" stroke="#999999" points="970.9685,-33.6817 962.5242,-32.9499 968.6691,-38.7879 970.9685,-33.6817"/>
</g>
<!-- krijg_medicijn_van_heks -->
<g id="node12" class="node">
<title>krijg_medicijn_van_heks</title>
<path fill="#3333aa" stroke="#3333aa" d="M700.9846,-145.5C700.9846,-145.5 835.6656,-145.5 835.6656,-145.5 841.6656,-145.5 847.6656,-151.5 847.6656,-157.5 847.6656,-157.5 847.6656,-169.5 847.6656,-169.5 847.6656,-175.5 841.6656,-181.5 835.6656,-181.5 835.6656,-181.5 700.9846,-181.5 700.9846,-181.5 694.9846,-181.5 688.9846,-175.5 688.9846,-169.5 688.9846,-169.5 688.9846,-157.5 688.9846,-157.5 688.9846,-151.5 694.9846,-145.5 700.9846,-145.5"/>
<text text-anchor="middle" x="768.3251" y="-159.3" font-family="lato, roboto, helvetica" font-size="14.00" fill="#eeeeee">Krijg Medicijn Van Heks</text>
</g>
<!-- krijg_medicijn_van_heks&#45;&gt;breng_medicijnen_naar_koning -->
<g id="edge6" class="edge">
<title>krijg_medicijn_van_heks&#45;&gt;breng_medicijnen_naar_koning</title>
<path fill="none" stroke="#999999" d="M788.3903,-145.3665C817.9462,-118.6561 873.1158,-68.7979 904.957,-40.0221"/>
<polygon fill="#999999" stroke="#999999" points="906.9417,-42.0025 910.9997,-34.5612 903.1869,-37.8478 906.9417,-42.0025"/>
</g>
<!-- breng_molensteen_naar_toren -->
<g id="node13" class="node">
<title>breng_molensteen_naar_toren</title>
<path fill="#3333aa" stroke="#3333aa" d="M12,-437.5C12,-437.5 174.6502,-437.5 174.6502,-437.5 180.6502,-437.5 186.6502,-443.5 186.6502,-449.5 186.6502,-449.5 186.6502,-461.5 186.6502,-461.5 186.6502,-467.5 180.6502,-473.5 174.6502,-473.5 174.6502,-473.5 12,-473.5 12,-473.5 6,-473.5 0,-467.5 0,-461.5 0,-461.5 0,-449.5 0,-449.5 0,-443.5 6,-437.5 12,-437.5"/>
<text text-anchor="middle" x="93.3251" y="-451.3" font-family="lato, roboto, helvetica" font-size="14.00" fill="#eeeeee">Breng Molensteen Naar Toren</text>
</g>
<!-- leg_molensteen_op_lift -->
<g id="node33" class="node">
<title>leg_molensteen_op_lift</title>
<path fill="#3333aa" stroke="#3333aa" d="M186.4839,-291.5C186.4839,-291.5 314.1663,-291.5 314.1663,-291.5 320.1663,-291.5 326.1663,-297.5 326.1663,-303.5 326.1663,-303.5 326.1663,-315.5 326.1663,-315.5 326.1663,-321.5 320.1663,-327.5 314.1663,-327.5 314.1663,-327.5 186.4839,-327.5 186.4839,-327.5 180.4839,-327.5 174.4839,-321.5 174.4839,-315.5 174.4839,-315.5 174.4839,-303.5 174.4839,-303.5 174.4839,-297.5 180.4839,-291.5 186.4839,-291.5"/>
<text text-anchor="middle" x="250.3251" y="-305.3" font-family="lato, roboto, helvetica" font-size="14.00" fill="#eeeeee">Leg Molensteen Op Lift</text>
</g>
<!-- breng_molensteen_naar_toren&#45;&gt;leg_molensteen_op_lift -->
<g id="edge36" class="edge">
<title>breng_molensteen_naar_toren&#45;&gt;leg_molensteen_op_lift</title>
<path fill="none" stroke="#999999" d="M100.2138,-437.3436C108.5717,-417.3004 124.3256,-385.0877 146.3251,-364 160.3603,-350.5466 178.3728,-339.5529 195.451,-331.0536"/>
<polygon fill="#999999" stroke="#999999" points="196.7054,-333.5573 202.6987,-327.5638 194.276,-328.5117 196.7054,-333.5573"/>
</g>
<!-- zet_molensteen_op_wagen&#45;&gt;breng_molensteen_naar_toren -->
<g id="edge7" class="edge">
<title>zet_molensteen_op_wagen&#45;&gt;breng_molensteen_naar_toren</title>
<path fill="none" stroke="#999999" d="M89.8236,-583.3042C90.5213,-557.8403 91.7933,-511.4108 92.597,-482.0759"/>
<polygon fill="#999999" stroke="#999999" points="95.4001,-481.9988 92.8203,-473.9251 89.8022,-481.8454 95.4001,-481.9988"/>
</g>
<!-- breng_paard_naar_hoefsmid -->
<g id="node15" class="node">
<title>breng_paard_naar_hoefsmid</title>
<path fill="#3333aa" stroke="#3333aa" d="M118.831,-1094.5C118.831,-1094.5 269.8192,-1094.5 269.8192,-1094.5 275.8192,-1094.5 281.8192,-1100.5 281.8192,-1106.5 281.8192,-1106.5 281.8192,-1118.5 281.8192,-1118.5 281.8192,-1124.5 275.8192,-1130.5 269.8192,-1130.5 269.8192,-1130.5 118.831,-1130.5 118.831,-1130.5 112.831,-1130.5 106.831,-1124.5 106.831,-1118.5 106.831,-1118.5 106.831,-1106.5 106.831,-1106.5 106.831,-1100.5 112.831,-1094.5 118.831,-1094.5"/>
<text text-anchor="middle" x="194.3251" y="-1108.3" font-family="lato, roboto, helvetica" font-size="14.00" fill="#eeeeee">Breng Paard Naar Hoefsmid</text>
</g>
<!-- geef_paard_nieuwe_hoefijzers -->
<g id="node29" class="node">
<title>geef_paard_nieuwe_hoefijzers</title>
<path fill="#3333aa" stroke="#3333aa" d="M112.6255,-1021.5C112.6255,-1021.5 276.0247,-1021.5 276.0247,-1021.5 282.0247,-1021.5 288.0247,-1027.5 288.0247,-1033.5 288.0247,-1033.5 288.0247,-1045.5 288.0247,-1045.5 288.0247,-1051.5 282.0247,-1057.5 276.0247,-1057.5 276.0247,-1057.5 112.6255,-1057.5 112.6255,-1057.5 106.6255,-1057.5 100.6255,-1051.5 100.6255,-1045.5 100.6255,-1045.5 100.6255,-1033.5 100.6255,-1033.5 100.6255,-1027.5 106.6255,-1021.5 112.6255,-1021.5"/>
<text text-anchor="middle" x="194.3251" y="-1035.3" font-family="lato, roboto, helvetica" font-size="14.00" fill="#eeeeee">Geef Paard Nieuwe Hoefijzers</text>
</g>
<!-- breng_paard_naar_hoefsmid&#45;&gt;geef_paard_nieuwe_hoefijzers -->
<g id="edge16" class="edge">
<title>breng_paard_naar_hoefsmid&#45;&gt;geef_paard_nieuwe_hoefijzers</title>
<path fill="none" stroke="#999999" d="M194.3251,-1094.4551C194.3251,-1085.7686 194.3251,-1075.1898 194.3251,-1065.642"/>
<polygon fill="#999999" stroke="#999999" points="197.1252,-1065.5903 194.3251,-1057.5904 191.5252,-1065.5904 197.1252,-1065.5903"/>
</g>
<!-- praat_met_boer&#45;&gt;zet_graan_op_wagen -->
<g id="edge59" class="edge">
<title>praat_met_boer&#45;&gt;zet_graan_op_wagen</title>
<path fill="none" stroke="#999999" d="M143.4433,-1167.8708C126.3565,-1159.3888 108.9567,-1147.4046 98.3251,-1131 54.0253,-1062.6451 56.6437,-1023.041 88.3251,-948 93.3461,-936.1072 102.3716,-925.5256 111.731,-916.9237"/>
<polygon fill="#999999" stroke="#999999" points="113.6942,-918.9271 117.8909,-911.563 110.0179,-914.7027 113.6942,-918.9271"/>
</g>
<!-- praat_met_boer&#45;&gt;breng_paard_naar_hoefsmid -->
<g id="edge8" class="edge">
<title>praat_met_boer&#45;&gt;breng_paard_naar_hoefsmid</title>
<path fill="none" stroke="#999999" d="M194.3251,-1167.4551C194.3251,-1158.7686 194.3251,-1148.1898 194.3251,-1138.642"/>
<polygon fill="#999999" stroke="#999999" points="197.1252,-1138.5903 194.3251,-1130.5904 191.5252,-1138.5904 197.1252,-1138.5903"/>
</g>
<!-- ga_naar_hut_in_moeras -->
<g id="node17" class="node">
<title>ga_naar_hut_in_moeras</title>
<path fill="#3333aa" stroke="#3333aa" d="M675.2479,-802.5C675.2479,-802.5 799.4023,-802.5 799.4023,-802.5 805.4023,-802.5 811.4023,-808.5 811.4023,-814.5 811.4023,-814.5 811.4023,-826.5 811.4023,-826.5 811.4023,-832.5 805.4023,-838.5 799.4023,-838.5 799.4023,-838.5 675.2479,-838.5 675.2479,-838.5 669.2479,-838.5 663.2479,-832.5 663.2479,-826.5 663.2479,-826.5 663.2479,-814.5 663.2479,-814.5 663.2479,-808.5 669.2479,-802.5 675.2479,-802.5"/>
<text text-anchor="middle" x="737.3251" y="-816.3" font-family="lato, roboto, helvetica" font-size="14.00" fill="#eeeeee">Ga Naar Hut In Moeras</text>
</g>
<!-- praat_met_heks -->
<g id="node23" class="node">
<title>praat_met_heks</title>
<path fill="#3333aa" stroke="#3333aa" d="M678.7858,-729.5C678.7858,-729.5 757.8644,-729.5 757.8644,-729.5 763.8644,-729.5 769.8644,-735.5 769.8644,-741.5 769.8644,-741.5 769.8644,-753.5 769.8644,-753.5 769.8644,-759.5 763.8644,-765.5 757.8644,-765.5 757.8644,-765.5 678.7858,-765.5 678.7858,-765.5 672.7858,-765.5 666.7858,-759.5 666.7858,-753.5 666.7858,-753.5 666.7858,-741.5 666.7858,-741.5 666.7858,-735.5 672.7858,-729.5 678.7858,-729.5"/>
<text text-anchor="middle" x="718.3251" y="-743.3" font-family="lato, roboto, helvetica" font-size="14.00" fill="#eeeeee">Praat Met Heks</text>
</g>
<!-- ga_naar_hut_in_moeras&#45;&gt;praat_met_heks -->
<g id="edge51" class="edge">
<title>ga_naar_hut_in_moeras&#45;&gt;praat_met_heks</title>
<path fill="none" stroke="#999999" d="M732.6285,-802.4551C730.3448,-793.6809 727.5586,-782.9759 725.054,-773.353"/>
<polygon fill="#999999" stroke="#999999" points="727.7584,-772.6271 723.0335,-765.5904 722.339,-774.0377 727.7584,-772.6271"/>
</g>
<!-- praat_met_bakker&#45;&gt;ga_naar_hut_in_moeras -->
<g id="edge9" class="edge">
<title>praat_met_bakker&#45;&gt;ga_naar_hut_in_moeras</title>
<path fill="none" stroke="#999999" d="M744.8247,-1094.2341C743.4553,-1044.2529 739.6427,-905.0932 738.0445,-846.759"/>
<polygon fill="#999999" stroke="#999999" points="740.8435,-846.6793 737.8253,-838.759 735.2456,-846.8327 740.8435,-846.6793"/>
</g>
<!-- geef_dwerg_eten -->
<g id="node19" class="node">
<title>geef_dwerg_eten</title>
<path fill="#3333aa" stroke="#3333aa" d="M452.3538,-1021.5C452.3538,-1021.5 542.2964,-1021.5 542.2964,-1021.5 548.2964,-1021.5 554.2964,-1027.5 554.2964,-1033.5 554.2964,-1033.5 554.2964,-1045.5 554.2964,-1045.5 554.2964,-1051.5 548.2964,-1057.5 542.2964,-1057.5 542.2964,-1057.5 452.3538,-1057.5 452.3538,-1057.5 446.3538,-1057.5 440.3538,-1051.5 440.3538,-1045.5 440.3538,-1045.5 440.3538,-1033.5 440.3538,-1033.5 440.3538,-1027.5 446.3538,-1021.5 452.3538,-1021.5"/>
<text text-anchor="middle" x="497.3251" y="-1035.3" font-family="lato, roboto, helvetica" font-size="14.00" fill="#eeeeee">Geef Dwerg Eten</text>
</g>
<!-- krijg_kapotte_houweel_van_dwerg -->
<g id="node39" class="node">
<title>krijg_kapotte_houweel_van_dwerg</title>
<path fill="#3333aa" stroke="#3333aa" d="M466.4211,-948.5C466.4211,-948.5 658.2291,-948.5 658.2291,-948.5 664.2291,-948.5 670.2291,-954.5 670.2291,-960.5 670.2291,-960.5 670.2291,-972.5 670.2291,-972.5 670.2291,-978.5 664.2291,-984.5 658.2291,-984.5 658.2291,-984.5 466.4211,-984.5 466.4211,-984.5 460.4211,-984.5 454.4211,-978.5 454.4211,-972.5 454.4211,-972.5 454.4211,-960.5 454.4211,-960.5 454.4211,-954.5 460.4211,-948.5 466.4211,-948.5"/>
<text text-anchor="middle" x="562.3251" y="-962.3" font-family="lato, roboto, helvetica" font-size="14.00" fill="#eeeeee">Krijg Kapotte Houweel Van Dwerg</text>
</g>
<!-- geef_dwerg_eten&#45;&gt;krijg_kapotte_houweel_van_dwerg -->
<g id="edge28" class="edge">
<title>geef_dwerg_eten&#45;&gt;krijg_kapotte_houweel_van_dwerg</title>
<path fill="none" stroke="#999999" d="M513.3925,-1021.4551C521.6739,-1012.1545 531.8869,-1000.6844 540.8366,-990.6332"/>
<polygon fill="#999999" stroke="#999999" points="542.9884,-992.4271 546.2172,-984.5904 538.806,-988.7031 542.9884,-992.4271"/>
</g>
<!-- pak_hendel_in_mijn -->
<g id="node46" class="node">
<title>pak_hendel_in_mijn</title>
<path fill="#3333aa" stroke="#3333aa" d="M321.9201,-948.5C321.9201,-948.5 424.7301,-948.5 424.7301,-948.5 430.7301,-948.5 436.7301,-954.5 436.7301,-960.5 436.7301,-960.5 436.7301,-972.5 436.7301,-972.5 436.7301,-978.5 430.7301,-984.5 424.7301,-984.5 424.7301,-984.5 321.9201,-984.5 321.9201,-984.5 315.9201,-984.5 309.9201,-978.5 309.9201,-972.5 309.9201,-972.5 309.9201,-960.5 309.9201,-960.5 309.9201,-954.5 315.9201,-948.5 321.9201,-948.5"/>
<text text-anchor="middle" x="373.3251" y="-962.3" font-family="lato, roboto, helvetica" font-size="14.00" fill="#eeeeee">Pak Hendel In Mijn</text>
</g>
<!-- geef_dwerg_eten&#45;&gt;pak_hendel_in_mijn -->
<g id="edge39" class="edge">
<title>geef_dwerg_eten&#45;&gt;pak_hendel_in_mijn</title>
<path fill="none" stroke="#999999" d="M466.6734,-1021.4551C449.8319,-1011.5403 428.8024,-999.16 410.9693,-988.6615"/>
<polygon fill="#999999" stroke="#999999" points="412.3685,-986.2361 404.0539,-984.5904 409.5275,-991.0619 412.3685,-986.2361"/>
</g>
<!-- praat_met_dwerg&#45;&gt;geef_dwerg_eten -->
<g id="edge10" class="edge">
<title>praat_met_dwerg&#45;&gt;geef_dwerg_eten</title>
<path fill="none" stroke="#999999" d="M521.1978,-1167.4004C506.4906,-1158.6697 491.5351,-1146.638 483.3251,-1131 472.6234,-1110.6159 478.2838,-1084.3913 485.3447,-1065.2467"/>
<polygon fill="#999999" stroke="#999999" points="487.963,-1066.2396 488.3038,-1057.7706 482.756,-1064.1786 487.963,-1066.2396"/>
</g>
<!-- koop_eten_bij_bakker -->
<g id="node21" class="node">
<title>koop_eten_bij_bakker</title>
<path fill="#3333aa" stroke="#3333aa" d="M503.9208,-1094.5C503.9208,-1094.5 620.7294,-1094.5 620.7294,-1094.5 626.7294,-1094.5 632.7294,-1100.5 632.7294,-1106.5 632.7294,-1106.5 632.7294,-1118.5 632.7294,-1118.5 632.7294,-1124.5 626.7294,-1130.5 620.7294,-1130.5 620.7294,-1130.5 503.9208,-1130.5 503.9208,-1130.5 497.9208,-1130.5 491.9208,-1124.5 491.9208,-1118.5 491.9208,-1118.5 491.9208,-1106.5 491.9208,-1106.5 491.9208,-1100.5 497.9208,-1094.5 503.9208,-1094.5"/>
<text text-anchor="middle" x="562.3251" y="-1108.3" font-family="lato, roboto, helvetica" font-size="14.00" fill="#eeeeee">Koop Eten Bij Bakker</text>
</g>
<!-- praat_met_dwerg&#45;&gt;koop_eten_bij_bakker -->
<g id="edge22" class="edge">
<title>praat_met_dwerg&#45;&gt;koop_eten_bij_bakker</title>
<path fill="none" stroke="#999999" d="M562.3251,-1167.4551C562.3251,-1158.7686 562.3251,-1148.1898 562.3251,-1138.642"/>
<polygon fill="#999999" stroke="#999999" points="565.1252,-1138.5903 562.3251,-1130.5904 559.5252,-1138.5904 565.1252,-1138.5903"/>
</g>
<!-- koop_eten_bij_bakker&#45;&gt;geef_dwerg_eten -->
<g id="edge11" class="edge">
<title>koop_eten_bij_bakker&#45;&gt;geef_dwerg_eten</title>
<path fill="none" stroke="#999999" d="M546.2577,-1094.4551C537.9763,-1085.1545 527.7633,-1073.6844 518.8136,-1063.6332"/>
<polygon fill="#999999" stroke="#999999" points="520.8442,-1061.7031 513.433,-1057.5904 516.6618,-1065.4271 520.8442,-1061.7031"/>
</g>
<!-- geef_edelsteen_aan_heks -->
<g id="node22" class="node">
<title>geef_edelsteen_aan_heks</title>
<path fill="#3333aa" stroke="#3333aa" d="M542.2223,-656.5C542.2223,-656.5 678.4279,-656.5 678.4279,-656.5 684.4279,-656.5 690.4279,-662.5 690.4279,-668.5 690.4279,-668.5 690.4279,-680.5 690.4279,-680.5 690.4279,-686.5 684.4279,-692.5 678.4279,-692.5 678.4279,-692.5 542.2223,-692.5 542.2223,-692.5 536.2223,-692.5 530.2223,-686.5 530.2223,-680.5 530.2223,-680.5 530.2223,-668.5 530.2223,-668.5 530.2223,-662.5 536.2223,-656.5 542.2223,-656.5"/>
<text text-anchor="middle" x="610.3251" y="-670.3" font-family="lato, roboto, helvetica" font-size="14.00" fill="#eeeeee">Geef Edelsteen Aan Heks</text>
</g>
<!-- krijg_ingredientenlijst_van_heks -->
<g id="node38" class="node">
<title>krijg_ingredientenlijst_van_heks</title>
<path fill="#3333aa" stroke="#3333aa" d="M522.3808,-291.5C522.3808,-291.5 698.2694,-291.5 698.2694,-291.5 704.2694,-291.5 710.2694,-297.5 710.2694,-303.5 710.2694,-303.5 710.2694,-315.5 710.2694,-315.5 710.2694,-321.5 704.2694,-327.5 698.2694,-327.5 698.2694,-327.5 522.3808,-327.5 522.3808,-327.5 516.3808,-327.5 510.3808,-321.5 510.3808,-315.5 510.3808,-315.5 510.3808,-303.5 510.3808,-303.5 510.3808,-297.5 516.3808,-291.5 522.3808,-291.5"/>
<text text-anchor="middle" x="610.3251" y="-305.3" font-family="lato, roboto, helvetica" font-size="14.00" fill="#eeeeee">Krijg Ingredientenlijst Van Heks</text>
</g>
<!-- geef_edelsteen_aan_heks&#45;&gt;krijg_ingredientenlijst_van_heks -->
<g id="edge27" class="edge">
<title>geef_edelsteen_aan_heks&#45;&gt;krijg_ingredientenlijst_van_heks</title>
<path fill="none" stroke="#999999" d="M610.3251,-656.062C610.3251,-628.3663 610.3251,-574.3785 610.3251,-528.5 610.3251,-528.5 610.3251,-528.5 610.3251,-455.5 610.3251,-413.7434 610.3251,-365.2692 610.3251,-336.0145"/>
<polygon fill="#999999" stroke="#999999" points="613.1252,-335.9379 610.3251,-327.938 607.5252,-335.938 613.1252,-335.9379"/>
</g>
<!-- praat_met_heks&#45;&gt;geef_edelsteen_aan_heks -->
<g id="edge12" class="edge">
<title>praat_met_heks&#45;&gt;geef_edelsteen_aan_heks</title>
<path fill="none" stroke="#999999" d="M691.6285,-729.4551C677.2196,-719.7157 659.2912,-707.5975 643.9393,-697.2207"/>
<polygon fill="#999999" stroke="#999999" points="645.2849,-694.7506 637.0889,-692.5904 642.1489,-699.3902 645.2849,-694.7506"/>
</g>
<!-- praat_met_heks&#45;&gt;krijg_ingredientenlijst_van_heks -->
<g id="edge26" class="edge">
<title>praat_met_heks&#45;&gt;krijg_ingredientenlijst_van_heks</title>
<path fill="none" stroke="#999999" d="M718.3251,-729.062C718.3251,-701.3663 718.3251,-647.3785 718.3251,-601.5 718.3251,-601.5 718.3251,-601.5 718.3251,-455.5 718.3251,-403.9891 674.3369,-358.7611 642.507,-332.7768"/>
<polygon fill="#999999" stroke="#999999" points="643.9214,-330.3237 635.9196,-327.5288 640.432,-334.7037 643.9214,-330.3237"/>
</g>
<!-- krijg_edelsteen_van_dwerg -->
<g id="node24" class="node">
<title>krijg_edelsteen_van_dwerg</title>
<path fill="#3333aa" stroke="#3333aa" d="M489.385,-729.5C489.385,-729.5 637.2652,-729.5 637.2652,-729.5 643.2652,-729.5 649.2652,-735.5 649.2652,-741.5 649.2652,-741.5 649.2652,-753.5 649.2652,-753.5 649.2652,-759.5 643.2652,-765.5 637.2652,-765.5 637.2652,-765.5 489.385,-765.5 489.385,-765.5 483.385,-765.5 477.385,-759.5 477.385,-753.5 477.385,-753.5 477.385,-741.5 477.385,-741.5 477.385,-735.5 483.385,-729.5 489.385,-729.5"/>
<text text-anchor="middle" x="563.3251" y="-743.3" font-family="lato, roboto, helvetica" font-size="14.00" fill="#eeeeee">Krijg Edelsteen Van Dwerg</text>
</g>
<!-- krijg_edelsteen_van_dwerg&#45;&gt;geef_edelsteen_aan_heks -->
<g id="edge13" class="edge">
<title>krijg_edelsteen_van_dwerg&#45;&gt;geef_edelsteen_aan_heks</title>
<path fill="none" stroke="#999999" d="M574.9431,-729.4551C580.7617,-720.4177 587.8991,-709.3319 594.2357,-699.4899"/>
<polygon fill="#999999" stroke="#999999" points="596.7014,-700.8326 598.6779,-692.5904 591.9929,-697.801 596.7014,-700.8326"/>
</g>
<!-- geef_houweel_aan_dwerg -->
<g id="node25" class="node">
<title>geef_houweel_aan_dwerg</title>
<path fill="#3333aa" stroke="#3333aa" d="M491.5056,-802.5C491.5056,-802.5 633.1446,-802.5 633.1446,-802.5 639.1446,-802.5 645.1446,-808.5 645.1446,-814.5 645.1446,-814.5 645.1446,-826.5 645.1446,-826.5 645.1446,-832.5 639.1446,-838.5 633.1446,-838.5 633.1446,-838.5 491.5056,-838.5 491.5056,-838.5 485.5056,-838.5 479.5056,-832.5 479.5056,-826.5 479.5056,-826.5 479.5056,-814.5 479.5056,-814.5 479.5056,-808.5 485.5056,-802.5 491.5056,-802.5"/>
<text text-anchor="middle" x="562.3251" y="-816.3" font-family="lato, roboto, helvetica" font-size="14.00" fill="#eeeeee">Geef Houweel Aan Dwerg</text>
</g>
<!-- geef_houweel_aan_dwerg&#45;&gt;krijg_edelsteen_van_dwerg -->
<g id="edge24" class="edge">
<title>geef_houweel_aan_dwerg&#45;&gt;krijg_edelsteen_van_dwerg</title>
<path fill="none" stroke="#999999" d="M562.5723,-802.4551C562.6913,-793.7686 562.8362,-783.1898 562.967,-773.642"/>
<polygon fill="#999999" stroke="#999999" points="565.7673,-773.628 563.0773,-765.5904 560.1679,-773.5512 565.7673,-773.628"/>
</g>
<!-- repareer_houweel -->
<g id="node26" class="node">
<title>repareer_houweel</title>
<path fill="#3333aa" stroke="#3333aa" d="M514.0505,-875.5C514.0505,-875.5 610.5997,-875.5 610.5997,-875.5 616.5997,-875.5 622.5997,-881.5 622.5997,-887.5 622.5997,-887.5 622.5997,-899.5 622.5997,-899.5 622.5997,-905.5 616.5997,-911.5 610.5997,-911.5 610.5997,-911.5 514.0505,-911.5 514.0505,-911.5 508.0505,-911.5 502.0505,-905.5 502.0505,-899.5 502.0505,-899.5 502.0505,-887.5 502.0505,-887.5 502.0505,-881.5 508.0505,-875.5 514.0505,-875.5"/>
<text text-anchor="middle" x="562.3251" y="-889.3" font-family="lato, roboto, helvetica" font-size="14.00" fill="#eeeeee">Repareer Houweel</text>
</g>
<!-- repareer_houweel&#45;&gt;geef_houweel_aan_dwerg -->
<g id="edge14" class="edge">
<title>repareer_houweel&#45;&gt;geef_houweel_aan_dwerg</title>
<path fill="none" stroke="#999999" d="M562.3251,-875.4551C562.3251,-866.7686 562.3251,-856.1898 562.3251,-846.642"/>
<polygon fill="#999999" stroke="#999999" points="565.1252,-846.5903 562.3251,-838.5904 559.5252,-846.5904 565.1252,-846.5903"/>
</g>
<!-- geef_leer_aan_hoefsmid -->
<g id="node27" class="node">
<title>geef_leer_aan_hoefsmid</title>
<path fill="#3333aa" stroke="#3333aa" d="M1025.3913,-218.5C1025.3913,-218.5 1159.2589,-218.5 1159.2589,-218.5 1165.2589,-218.5 1171.2589,-224.5 1171.2589,-230.5 1171.2589,-230.5 1171.2589,-242.5 1171.2589,-242.5 1171.2589,-248.5 1165.2589,-254.5 1159.2589,-254.5 1159.2589,-254.5 1025.3913,-254.5 1025.3913,-254.5 1019.3913,-254.5 1013.3913,-248.5 1013.3913,-242.5 1013.3913,-242.5 1013.3913,-230.5 1013.3913,-230.5 1013.3913,-224.5 1019.3913,-218.5 1025.3913,-218.5"/>
<text text-anchor="middle" x="1092.3251" y="-232.3" font-family="lato, roboto, helvetica" font-size="14.00" fill="#eeeeee">Geef Leer Aan Hoefsmid</text>
</g>
<!-- maak_zadel_bij_hoefsmid -->
<g id="node45" class="node">
<title>maak_zadel_bij_hoefsmid</title>
<path fill="#3333aa" stroke="#3333aa" d="M1021.0393,-145.5C1021.0393,-145.5 1159.6109,-145.5 1159.6109,-145.5 1165.6109,-145.5 1171.6109,-151.5 1171.6109,-157.5 1171.6109,-157.5 1171.6109,-169.5 1171.6109,-169.5 1171.6109,-175.5 1165.6109,-181.5 1159.6109,-181.5 1159.6109,-181.5 1021.0393,-181.5 1021.0393,-181.5 1015.0393,-181.5 1009.0393,-175.5 1009.0393,-169.5 1009.0393,-169.5 1009.0393,-157.5 1009.0393,-157.5 1009.0393,-151.5 1015.0393,-145.5 1021.0393,-145.5"/>
<text text-anchor="middle" x="1090.3251" y="-159.3" font-family="lato, roboto, helvetica" font-size="14.00" fill="#eeeeee">Maak Zadel Bij Hoefsmid</text>
</g>
<!-- geef_leer_aan_hoefsmid&#45;&gt;maak_zadel_bij_hoefsmid -->
<g id="edge38" class="edge">
<title>geef_leer_aan_hoefsmid&#45;&gt;maak_zadel_bij_hoefsmid</title>
<path fill="none" stroke="#999999" d="M1091.8307,-218.4551C1091.5927,-209.7686 1091.3029,-199.1898 1091.0413,-189.642"/>
<polygon fill="#999999" stroke="#999999" points="1093.8389,-189.5106 1090.8207,-181.5904 1088.241,-189.6641 1093.8389,-189.5106"/>
</g>
<!-- pak_stuk_leer_in_toren&#45;&gt;geef_leer_aan_hoefsmid -->
<g id="edge15" class="edge">
<title>pak_stuk_leer_in_toren&#45;&gt;geef_leer_aan_hoefsmid</title>
<path fill="none" stroke="#999999" d="M1069.7408,-291.4551C1073.3827,-282.5932 1077.834,-271.7616 1081.8191,-262.0646"/>
<polygon fill="#999999" stroke="#999999" points="1084.4396,-263.0542 1084.8907,-254.5904 1079.2599,-260.9256 1084.4396,-263.0542"/>
</g>
<!-- haal_wagen_in_dorp_met_paard -->
<g id="node30" class="node">
<title>haal_wagen_in_dorp_met_paard</title>
<path fill="#3333aa" stroke="#3333aa" d="M109.115,-948.5C109.115,-948.5 279.5352,-948.5 279.5352,-948.5 285.5352,-948.5 291.5352,-954.5 291.5352,-960.5 291.5352,-960.5 291.5352,-972.5 291.5352,-972.5 291.5352,-978.5 285.5352,-984.5 279.5352,-984.5 279.5352,-984.5 109.115,-984.5 109.115,-984.5 103.115,-984.5 97.115,-978.5 97.115,-972.5 97.115,-972.5 97.115,-960.5 97.115,-960.5 97.115,-954.5 103.115,-948.5 109.115,-948.5"/>
<text text-anchor="middle" x="194.3251" y="-962.3" font-family="lato, roboto, helvetica" font-size="14.00" fill="#eeeeee">Haal Wagen In Dorp Met Paard</text>
</g>
<!-- geef_paard_nieuwe_hoefijzers&#45;&gt;haal_wagen_in_dorp_met_paard -->
<g id="edge17" class="edge">
<title>geef_paard_nieuwe_hoefijzers&#45;&gt;haal_wagen_in_dorp_met_paard</title>
<path fill="none" stroke="#999999" d="M194.3251,-1021.4551C194.3251,-1012.7686 194.3251,-1002.1898 194.3251,-992.642"/>
<polygon fill="#999999" stroke="#999999" points="197.1252,-992.5903 194.3251,-984.5904 191.5252,-992.5904 197.1252,-992.5903"/>
</g>
<!-- haal_wagen_in_dorp_met_paard&#45;&gt;zet_graan_op_wagen -->
<g id="edge58" class="edge">
<title>haal_wagen_in_dorp_met_paard&#45;&gt;zet_graan_op_wagen</title>
<path fill="none" stroke="#999999" d="M181.9655,-948.4551C175.7155,-939.3299 168.035,-928.1165 161.2454,-918.2036"/>
<polygon fill="#999999" stroke="#999999" points="163.5466,-916.6084 156.7158,-911.5904 158.9264,-919.7729 163.5466,-916.6084"/>
</g>
<!-- hijs_lift_met_molensteen -->
<g id="node31" class="node">
<title>hijs_lift_met_molensteen</title>
<path fill="#3333aa" stroke="#3333aa" d="M182.9797,-218.5C182.9797,-218.5 317.6705,-218.5 317.6705,-218.5 323.6705,-218.5 329.6705,-224.5 329.6705,-230.5 329.6705,-230.5 329.6705,-242.5 329.6705,-242.5 329.6705,-248.5 323.6705,-254.5 317.6705,-254.5 317.6705,-254.5 182.9797,-254.5 182.9797,-254.5 176.9797,-254.5 170.9797,-248.5 170.9797,-242.5 170.9797,-242.5 170.9797,-230.5 170.9797,-230.5 170.9797,-224.5 176.9797,-218.5 182.9797,-218.5"/>
<text text-anchor="middle" x="250.3251" y="-232.3" font-family="lato, roboto, helvetica" font-size="14.00" fill="#eeeeee">Hijs Lift Met Molensteen</text>
</g>
<!-- zet_hendel_op_lift -->
<g id="node32" class="node">
<title>zet_hendel_op_lift</title>
<path fill="#3333aa" stroke="#3333aa" d="M323.4825,-656.5C323.4825,-656.5 423.1677,-656.5 423.1677,-656.5 429.1677,-656.5 435.1677,-662.5 435.1677,-668.5 435.1677,-668.5 435.1677,-680.5 435.1677,-680.5 435.1677,-686.5 429.1677,-692.5 423.1677,-692.5 423.1677,-692.5 323.4825,-692.5 323.4825,-692.5 317.4825,-692.5 311.4825,-686.5 311.4825,-680.5 311.4825,-680.5 311.4825,-668.5 311.4825,-668.5 311.4825,-662.5 317.4825,-656.5 323.4825,-656.5"/>
<text text-anchor="middle" x="373.3251" y="-670.3" font-family="lato, roboto, helvetica" font-size="14.00" fill="#eeeeee">Zet Hendel Op Lift</text>
</g>
<!-- zet_hendel_op_lift&#45;&gt;hijs_lift_met_molensteen -->
<g id="edge18" class="edge">
<title>zet_hendel_op_lift&#45;&gt;hijs_lift_met_molensteen</title>
<path fill="none" stroke="#999999" d="M373.3251,-656.062C373.3251,-628.3663 373.3251,-574.3785 373.3251,-528.5 373.3251,-528.5 373.3251,-528.5 373.3251,-382.5 373.3251,-338.4658 363.5962,-324.7603 335.3251,-291 324.5911,-278.1818 310.0571,-267.3501 296.0446,-258.8038"/>
<polygon fill="#999999" stroke="#999999" points="297.1041,-256.1791 288.7873,-254.5446 294.2696,-261.0088 297.1041,-256.1791"/>
</g>
<!-- leg_molensteen_op_lift&#45;&gt;hijs_lift_met_molensteen -->
<g id="edge19" class="edge">
<title>leg_molensteen_op_lift&#45;&gt;hijs_lift_met_molensteen</title>
<path fill="none" stroke="#999999" d="M250.3251,-291.4551C250.3251,-282.7686 250.3251,-272.1898 250.3251,-262.642"/>
<polygon fill="#999999" stroke="#999999" points="253.1252,-262.5903 250.3251,-254.5904 247.5252,-262.5904 253.1252,-262.5903"/>
</g>
<!-- knoop_touw_aan_molensteen -->
<g id="node34" class="node">
<title>knoop_touw_aan_molensteen</title>
<path fill="#3333aa" stroke="#3333aa" d="M758.3745,-510.5C758.3745,-510.5 920.2757,-510.5 920.2757,-510.5 926.2757,-510.5 932.2757,-516.5 932.2757,-522.5 932.2757,-522.5 932.2757,-534.5 932.2757,-534.5 932.2757,-540.5 926.2757,-546.5 920.2757,-546.5 920.2757,-546.5 758.3745,-546.5 758.3745,-546.5 752.3745,-546.5 746.3745,-540.5 746.3745,-534.5 746.3745,-534.5 746.3745,-522.5 746.3745,-522.5 746.3745,-516.5 752.3745,-510.5 758.3745,-510.5"/>
<text text-anchor="middle" x="839.3251" y="-524.3" font-family="lato, roboto, helvetica" font-size="14.00" fill="#eeeeee">Knoop Touw Aan Molensteen</text>
</g>
<!-- knoop_touw_aan_molensteen&#45;&gt;snij_touw_van_lift -->
<g id="edge55" class="edge">
<title>knoop_touw_aan_molensteen&#45;&gt;snij_touw_van_lift</title>
<path fill="none" stroke="#999999" d="M850.4487,-510.4551C856.0197,-501.4177 862.8534,-490.3319 868.9203,-480.4899"/>
<polygon fill="#999999" stroke="#999999" points="871.359,-481.8697 873.1735,-473.5904 866.592,-478.9311 871.359,-481.8697"/>
</g>
<!-- pak_touw_op_boerderij&#45;&gt;knoop_touw_aan_molensteen -->
<g id="edge20" class="edge">
<title>pak_touw_op_boerderij&#45;&gt;knoop_touw_aan_molensteen</title>
<path fill="none" stroke="#999999" d="M839.3251,-583.4551C839.3251,-574.7686 839.3251,-564.1898 839.3251,-554.642"/>
<polygon fill="#999999" stroke="#999999" points="842.1252,-554.5903 839.3251,-546.5904 836.5252,-554.5904 842.1252,-554.5903"/>
</g>
<!-- knoop_touw_aan_tand -->
<g id="node36" class="node">
<title>knoop_touw_aan_tand</title>
<path fill="#3333aa" stroke="#3333aa" d="M962.648,-510.5C962.648,-510.5 1088.0022,-510.5 1088.0022,-510.5 1094.0022,-510.5 1100.0022,-516.5 1100.0022,-522.5 1100.0022,-522.5 1100.0022,-534.5 1100.0022,-534.5 1100.0022,-540.5 1094.0022,-546.5 1088.0022,-546.5 1088.0022,-546.5 962.648,-546.5 962.648,-546.5 956.648,-546.5 950.648,-540.5 950.648,-534.5 950.648,-534.5 950.648,-522.5 950.648,-522.5 950.648,-516.5 956.648,-510.5 962.648,-510.5"/>
<text text-anchor="middle" x="1025.3251" y="-524.3" font-family="lato, roboto, helvetica" font-size="14.00" fill="#eeeeee">Knoop Touw Aan Tand</text>
</g>
<!-- pak_touw_op_boerderij&#45;&gt;knoop_touw_aan_tand -->
<g id="edge21" class="edge">
<title>pak_touw_op_boerderij&#45;&gt;knoop_touw_aan_tand</title>
<path fill="none" stroke="#999999" d="M885.3026,-583.4551C911.4592,-573.1893 944.3503,-560.2804 971.6809,-549.5539"/>
<polygon fill="#999999" stroke="#999999" points="972.8078,-552.1196 979.2319,-546.5904 970.7619,-546.9067 972.8078,-552.1196"/>
</g>
<!-- knoop_touw_aan_tand&#45;&gt;snij_touw_van_lift -->
<g id="edge56" class="edge">
<title>knoop_touw_aan_tand&#45;&gt;snij_touw_van_lift</title>
<path fill="none" stroke="#999999" d="M990.4712,-510.4551C971.1512,-500.4525 946.9845,-487.9407 926.5928,-477.3833"/>
<polygon fill="#999999" stroke="#999999" points="927.6584,-474.782 919.2668,-473.5904 925.0837,-479.7551 927.6584,-474.782"/>
</g>
<!-- krijg_geld_van_meel&#45;&gt;koop_zwaard_bij_wapensmid -->
<g id="edge23" class="edge">
<title>krijg_geld_van_meel&#45;&gt;koop_zwaard_bij_wapensmid</title>
<path fill="none" stroke="#999999" d="M257.0891,-583.4551C256.4942,-574.7686 255.7696,-564.1898 255.1156,-554.642"/>
<polygon fill="#999999" stroke="#999999" points="257.9044,-554.3803 254.5642,-546.5904 252.3175,-554.763 257.9044,-554.3803"/>
</g>
<!-- krijg_ingredientenlijst_van_heks&#45;&gt;pak_tand_van_draak -->
<g id="edge42" class="edge">
<title>krijg_ingredientenlijst_van_heks&#45;&gt;pak_tand_van_draak</title>
<path fill="none" stroke="#999999" d="M691.9007,-291.4966C738.8626,-281.0403 798.9684,-267.5012 852.3251,-255 852.5978,-254.9361 852.871,-254.872 853.1448,-254.8078"/>
<polygon fill="#999999" stroke="#999999" points="854.0608,-257.4686 861.2034,-252.9054 852.7741,-252.0184 854.0608,-257.4686"/>
</g>
<!-- pluk_kruiden_in_bos -->
<g id="node41" class="node">
<title>pluk_kruiden_in_bos</title>
<path fill="#3333aa" stroke="#3333aa" d="M556.5814,-218.5C556.5814,-218.5 664.0688,-218.5 664.0688,-218.5 670.0688,-218.5 676.0688,-224.5 676.0688,-230.5 676.0688,-230.5 676.0688,-242.5 676.0688,-242.5 676.0688,-248.5 670.0688,-254.5 664.0688,-254.5 664.0688,-254.5 556.5814,-254.5 556.5814,-254.5 550.5814,-254.5 544.5814,-248.5 544.5814,-242.5 544.5814,-242.5 544.5814,-230.5 544.5814,-230.5 544.5814,-224.5 550.5814,-218.5 556.5814,-218.5"/>
<text text-anchor="middle" x="610.3251" y="-232.3" font-family="lato, roboto, helvetica" font-size="14.00" fill="#eeeeee">Pluk Kruiden In Bos</text>
</g>
<!-- krijg_ingredientenlijst_van_heks&#45;&gt;pluk_kruiden_in_bos -->
<g id="edge45" class="edge">
<title>krijg_ingredientenlijst_van_heks&#45;&gt;pluk_kruiden_in_bos</title>
<path fill="none" stroke="#999999" d="M610.3251,-291.4551C610.3251,-282.7686 610.3251,-272.1898 610.3251,-262.642"/>
<polygon fill="#999999" stroke="#999999" points="613.1252,-262.5903 610.3251,-254.5904 607.5252,-262.5904 613.1252,-262.5903"/>
</g>
<!-- pluk_paddenstoelen_in_woud -->
<g id="node42" class="node">
<title>pluk_paddenstoelen_in_woud</title>
<path fill="#3333aa" stroke="#3333aa" d="M359.8675,-218.5C359.8675,-218.5 514.7827,-218.5 514.7827,-218.5 520.7827,-218.5 526.7827,-224.5 526.7827,-230.5 526.7827,-230.5 526.7827,-242.5 526.7827,-242.5 526.7827,-248.5 520.7827,-254.5 514.7827,-254.5 514.7827,-254.5 359.8675,-254.5 359.8675,-254.5 353.8675,-254.5 347.8675,-248.5 347.8675,-242.5 347.8675,-242.5 347.8675,-230.5 347.8675,-230.5 347.8675,-224.5 353.8675,-218.5 359.8675,-218.5"/>
<text text-anchor="middle" x="437.3251" y="-232.3" font-family="lato, roboto, helvetica" font-size="14.00" fill="#eeeeee">Pluk Paddenstoelen In Woud</text>
</g>
<!-- krijg_ingredientenlijst_van_heks&#45;&gt;pluk_paddenstoelen_in_woud -->
<g id="edge46" class="edge">
<title>krijg_ingredientenlijst_van_heks&#45;&gt;pluk_paddenstoelen_in_woud</title>
<path fill="none" stroke="#999999" d="M567.561,-291.4551C543.4406,-281.277 513.1629,-268.5009 487.8729,-257.8294"/>
<polygon fill="#999999" stroke="#999999" points="488.656,-255.1208 480.1968,-254.5904 486.4789,-260.2803 488.656,-255.1208"/>
</g>
<!-- krijg_ingredientenlijst_van_heks&#45;&gt;krijg_taart_van_bakker -->
<g id="edge34" class="edge">
<title>krijg_ingredientenlijst_van_heks&#45;&gt;krijg_taart_van_bakker</title>
<path fill="none" stroke="#999999" d="M649.3813,-291.4551C671.3155,-281.3209 698.8246,-268.611 721.8611,-257.9675"/>
<polygon fill="#999999" stroke="#999999" points="723.0827,-260.4876 729.1706,-254.5904 720.7339,-255.404 723.0827,-260.4876"/>
</g>
<!-- krijg_kapotte_houweel_van_dwerg&#45;&gt;repareer_houweel -->
<g id="edge53" class="edge">
<title>krijg_kapotte_houweel_van_dwerg&#45;&gt;repareer_houweel</title>
<path fill="none" stroke="#999999" d="M562.3251,-948.4551C562.3251,-939.7686 562.3251,-929.1898 562.3251,-919.642"/>
<polygon fill="#999999" stroke="#999999" points="565.1252,-919.5903 562.3251,-911.5904 559.5252,-919.5904 565.1252,-919.5903"/>
</g>
<!-- pak_tand_van_draak&#45;&gt;krijg_medicijn_van_heks -->
<g id="edge29" class="edge">
<title>pak_tand_van_draak&#45;&gt;krijg_medicijn_van_heks</title>
<path fill="none" stroke="#999999" d="M888.7745,-218.4551C866.5627,-208.3209 838.7054,-195.611 815.3772,-184.9675"/>
<polygon fill="#999999" stroke="#999999" points="816.4157,-182.3637 807.9752,-181.5904 814.0912,-187.4585 816.4157,-182.3637"/>
</g>
<!-- pluk_kruiden_in_bos&#45;&gt;krijg_medicijn_van_heks -->
<g id="edge30" class="edge">
<title>pluk_kruiden_in_bos&#45;&gt;krijg_medicijn_van_heks</title>
<path fill="none" stroke="#999999" d="M649.3813,-218.4551C671.3155,-208.3209 698.8246,-195.611 721.8611,-184.9675"/>
<polygon fill="#999999" stroke="#999999" points="723.0827,-187.4876 729.1706,-181.5904 720.7339,-182.404 723.0827,-187.4876"/>
</g>
<!-- pluk_paddenstoelen_in_woud&#45;&gt;krijg_medicijn_van_heks -->
<g id="edge31" class="edge">
<title>pluk_paddenstoelen_in_woud&#45;&gt;krijg_medicijn_van_heks</title>
<path fill="none" stroke="#999999" d="M519.1453,-218.4551C568.3008,-207.6141 630.8214,-193.8256 680.9397,-182.7723"/>
<polygon fill="#999999" stroke="#999999" points="681.6638,-185.48 688.873,-181.0227 680.4576,-180.0114 681.6638,-185.48"/>
</g>
<!-- krijg_taart_van_bakker&#45;&gt;krijg_medicijn_van_heks -->
<g id="edge32" class="edge">
<title>krijg_taart_van_bakker&#45;&gt;krijg_medicijn_van_heks</title>
<path fill="none" stroke="#999999" d="M768.3251,-218.4551C768.3251,-209.7686 768.3251,-199.1898 768.3251,-189.642"/>
<polygon fill="#999999" stroke="#999999" points="771.1252,-189.5903 768.3251,-181.5904 765.5252,-189.5904 771.1252,-189.5903"/>
</g>
<!-- praat_met_dochter_van_bakker&#45;&gt;leg_molensteen_op_lift -->
<g id="edge37" class="edge">
<title>praat_met_dochter_van_bakker&#45;&gt;leg_molensteen_op_lift</title>
<path fill="none" stroke="#999999" d="M250.3251,-364.4551C250.3251,-355.7686 250.3251,-345.1898 250.3251,-335.642"/>
<polygon fill="#999999" stroke="#999999" points="253.1252,-335.5903 250.3251,-327.5904 247.5252,-335.5904 253.1252,-335.5903"/>
</g>
<!-- maak_zadel_bij_hoefsmid&#45;&gt;zet_zadel_op_draak -->
<g id="edge62" class="edge">
<title>maak_zadel_bij_hoefsmid&#45;&gt;zet_zadel_op_draak</title>
<path fill="none" stroke="#999999" d="M1090.3251,-145.4551C1090.3251,-136.7686 1090.3251,-126.1898 1090.3251,-116.642"/>
<polygon fill="#999999" stroke="#999999" points="1093.1252,-116.5903 1090.3251,-108.5904 1087.5252,-116.5904 1093.1252,-116.5903"/>
</g>
<!-- pak_hendel_in_mijn&#45;&gt;zet_hendel_op_lift -->
<g id="edge60" class="edge">
<title>pak_hendel_in_mijn&#45;&gt;zet_hendel_op_lift</title>
<path fill="none" stroke="#999999" d="M373.3251,-948.2341C373.3251,-898.3554 373.3251,-759.6631 373.3251,-701.1186"/>
<polygon fill="#999999" stroke="#999999" points="376.1252,-700.759 373.3251,-692.759 370.5252,-700.759 376.1252,-700.759"/>
</g>
<!-- pak_hout_in_bos&#45;&gt;repareer_houweel -->
<g id="edge52" class="edge">
<title>pak_hout_in_bos&#45;&gt;repareer_houweel</title>
<path fill="none" stroke="#999999" d="M672.1575,-1021.217C682.1949,-1001.6447 693.5957,-970.3903 679.3251,-948 668.0548,-930.3171 649.3906,-918.2796 630.2438,-910.123"/>
<polygon fill="#999999" stroke="#999999" points="631.0777,-907.4411 622.6097,-907.0758 629.0017,-912.6421 631.0777,-907.4411"/>
</g>
<!-- snij_touw_van_lift&#45;&gt;trek_tand_van_draak -->
<g id="edge57" class="edge">
<title>snij_touw_van_lift&#45;&gt;trek_tand_van_draak</title>
<path fill="none" stroke="#999999" d="M895.6959,-437.4551C901.3907,-428.4177 908.3762,-417.3319 914.578,-407.4899"/>
<polygon fill="#999999" stroke="#999999" points="917.0296,-408.8514 918.9257,-400.5904 912.2918,-405.8659 917.0296,-408.8514"/>
</g>
</g>
</svg>
