<?xml version="1.0" encoding="UTF-8" standalone="no"?>
<!DOCTYPE svg PUBLIC "-//W3C//DTD SVG 1.1//EN"
 "http://www.w3.org/Graphics/SVG/1.1/DTD/svg11.dtd">
<!-- Generated by graphviz version 2.40.1 (20161225.0304)
 -->
<!-- Title: G Pages: 1 -->
<svg width="1846pt" height="1973pt"
 viewBox="0.00 0.00 1845.93 1973.00" xmlns="http://www.w3.org/2000/svg" xmlns:xlink="http://www.w3.org/1999/xlink">
<g id="graph0" class="graph" transform="scale(1 1) rotate(0) translate(4 1969)">
<title>G</title>
<polygon fill="#ffffff" stroke="transparent" points="-4,4 -4,-1969 1841.9288,-1969 1841.9288,4 -4,4"/>
<text text-anchor="middle" x="918.9644" y="-1943" font-family="lato, roboto, helvetica" font-size="20.00" fill="#000000">Avontuur</text>
<!-- START -->
<g id="node1" class="node">
<title>START</title>
<polygon fill="#333333" stroke="#333333" points="718.9969,-1933 660.2909,-1915 718.9969,-1897 777.7029,-1915 718.9969,-1933"/>
<polyline fill="none" stroke="#333333" points="671.7637,-1918.5177 671.7637,-1911.4823 "/>
<polyline fill="none" stroke="#333333" points="707.5241,-1900.5177 730.4697,-1900.5177 "/>
<polyline fill="none" stroke="#333333" points="766.2301,-1911.4823 766.2301,-1918.5177 "/>
<polyline fill="none" stroke="#333333" points="730.4697,-1929.4823 707.5241,-1929.4823 "/>
<text text-anchor="middle" x="718.9969" y="-1910.8" font-family="lato, roboto, helvetica" font-size="14.00" fill="#dddddd">START</text>
</g>
<!-- betaal_twee_geldstukken -->
<g id="node5" class="node">
<title>betaal_twee_geldstukken</title>
<path fill="#008800" stroke="#008800" d="M752.6911,-1824.5C752.6911,-1824.5 889.3027,-1824.5 889.3027,-1824.5 895.3027,-1824.5 901.3027,-1830.5 901.3027,-1836.5 901.3027,-1836.5 901.3027,-1848.5 901.3027,-1848.5 901.3027,-1854.5 895.3027,-1860.5 889.3027,-1860.5 889.3027,-1860.5 752.6911,-1860.5 752.6911,-1860.5 746.6911,-1860.5 740.6911,-1854.5 740.6911,-1848.5 740.6911,-1848.5 740.6911,-1836.5 740.6911,-1836.5 740.6911,-1830.5 746.6911,-1824.5 752.6911,-1824.5"/>
<text text-anchor="middle" x="820.9969" y="-1838.3" font-family="lato, roboto, helvetica" font-size="14.00" fill="#eeeeee">Betaal Twee Geldstukken</text>
</g>
<!-- START&#45;&gt;betaal_twee_geldstukken -->
<g id="edge3" class="edge">
<title>START&#45;&gt;betaal_twee_geldstukken</title>
<path fill="none" stroke="#999999" d="M736.7639,-1902.3715C751.0743,-1892.1999 771.5679,-1877.6334 788.7575,-1865.4152"/>
<polygon fill="#999999" stroke="#999999" points="790.5076,-1867.6066 795.4061,-1860.6895 787.2632,-1863.0421 790.5076,-1867.6066"/>
</g>
<!-- praat_met_bakker -->
<g id="node21" class="node">
<title>praat_met_bakker</title>
<path fill="#008800" stroke="#008800" d="M258.6273,-1167.5C258.6273,-1167.5 349.3665,-1167.5 349.3665,-1167.5 355.3665,-1167.5 361.3665,-1173.5 361.3665,-1179.5 361.3665,-1179.5 361.3665,-1191.5 361.3665,-1191.5 361.3665,-1197.5 355.3665,-1203.5 349.3665,-1203.5 349.3665,-1203.5 258.6273,-1203.5 258.6273,-1203.5 252.6273,-1203.5 246.6273,-1197.5 246.6273,-1191.5 246.6273,-1191.5 246.6273,-1179.5 246.6273,-1179.5 246.6273,-1173.5 252.6273,-1167.5 258.6273,-1167.5"/>
<text text-anchor="middle" x="303.9969" y="-1181.3" font-family="lato, roboto, helvetica" font-size="14.00" fill="#eeeeee">Praat Met Bakker</text>
</g>
<!-- START&#45;&gt;praat_met_bakker -->
<g id="edge71" class="edge">
<title>START&#45;&gt;praat_met_bakker</title>
<path fill="none" stroke="#999999" d="M669.8356,-1912.0247C561.5762,-1905.038 309.8722,-1886.2477 280.9969,-1861 249.347,-1833.3262 256.9969,-1811.5423 256.9969,-1769.5 256.9969,-1769.5 256.9969,-1769.5 256.9969,-1331.5 256.9969,-1287.501 276.5772,-1239.4762 290.4617,-1210.9525"/>
<polygon fill="#999999" stroke="#999999" points="292.9689,-1212.199 294.0294,-1203.7897 287.9563,-1209.7022 292.9689,-1212.199"/>
</g>
<!-- praat_met_dwerg -->
<g id="node25" class="node">
<title>praat_met_dwerg</title>
<path fill="#008800" stroke="#008800" d="M1093.7963,-1824.5C1093.7963,-1824.5 1182.1975,-1824.5 1182.1975,-1824.5 1188.1975,-1824.5 1194.1975,-1830.5 1194.1975,-1836.5 1194.1975,-1836.5 1194.1975,-1848.5 1194.1975,-1848.5 1194.1975,-1854.5 1188.1975,-1860.5 1182.1975,-1860.5 1182.1975,-1860.5 1093.7963,-1860.5 1093.7963,-1860.5 1087.7963,-1860.5 1081.7963,-1854.5 1081.7963,-1848.5 1081.7963,-1848.5 1081.7963,-1836.5 1081.7963,-1836.5 1081.7963,-1830.5 1087.7963,-1824.5 1093.7963,-1824.5"/>
<text text-anchor="middle" x="1137.9969" y="-1838.3" font-family="lato, roboto, helvetica" font-size="14.00" fill="#eeeeee">Praat Met Dwerg</text>
</g>
<!-- START&#45;&gt;praat_met_dwerg -->
<g id="edge75" class="edge">
<title>START&#45;&gt;praat_met_dwerg</title>
<path fill="none" stroke="#999999" d="M756.5491,-1908.5023C828.133,-1896.1161 984.8686,-1868.9959 1073.5365,-1853.6537"/>
<polygon fill="#999999" stroke="#999999" points="1074.2316,-1856.3751 1081.637,-1852.252 1073.2767,-1850.8571 1074.2316,-1856.3751"/>
</g>
<!-- praat_met_boer -->
<g id="node33" class="node">
<title>praat_met_boer</title>
<path fill="#008800" stroke="#008800" d="M606.2346,-1824.5C606.2346,-1824.5 683.7592,-1824.5 683.7592,-1824.5 689.7592,-1824.5 695.7592,-1830.5 695.7592,-1836.5 695.7592,-1836.5 695.7592,-1848.5 695.7592,-1848.5 695.7592,-1854.5 689.7592,-1860.5 683.7592,-1860.5 683.7592,-1860.5 606.2346,-1860.5 606.2346,-1860.5 600.2346,-1860.5 594.2346,-1854.5 594.2346,-1848.5 594.2346,-1848.5 594.2346,-1836.5 594.2346,-1836.5 594.2346,-1830.5 600.2346,-1824.5 606.2346,-1824.5"/>
<text text-anchor="middle" x="644.9969" y="-1838.3" font-family="lato, roboto, helvetica" font-size="14.00" fill="#eeeeee">Praat Met Boer</text>
</g>
<!-- START&#45;&gt;praat_met_boer -->
<g id="edge72" class="edge">
<title>START&#45;&gt;praat_met_boer</title>
<path fill="none" stroke="#999999" d="M704.729,-1901.0213C694.7148,-1891.2101 681.0734,-1877.8452 669.355,-1866.3644"/>
<polygon fill="#999999" stroke="#999999" points="671.1057,-1864.1597 663.4317,-1860.5611 667.1867,-1868.1599 671.1057,-1864.1597"/>
</g>
<!-- pak_touw_op_boerderij -->
<g id="node39" class="node">
<title>pak_touw_op_boerderij</title>
<path fill="#008800" stroke="#008800" d="M421.9313,-802.5C421.9313,-802.5 548.0625,-802.5 548.0625,-802.5 554.0625,-802.5 560.0625,-808.5 560.0625,-814.5 560.0625,-814.5 560.0625,-826.5 560.0625,-826.5 560.0625,-832.5 554.0625,-838.5 548.0625,-838.5 548.0625,-838.5 421.9313,-838.5 421.9313,-838.5 415.9313,-838.5 409.9313,-832.5 409.9313,-826.5 409.9313,-826.5 409.9313,-814.5 409.9313,-814.5 409.9313,-808.5 415.9313,-802.5 421.9313,-802.5"/>
<text text-anchor="middle" x="484.9969" y="-816.3" font-family="lato, roboto, helvetica" font-size="14.00" fill="#eeeeee">Pak Touw Op Boerderij</text>
</g>
<!-- START&#45;&gt;pak_touw_op_boerderij -->
<g id="edge66" class="edge">
<title>START&#45;&gt;pak_touw_op_boerderij</title>
<path fill="none" stroke="#999999" d="M665.3257,-1913.3552C573.6515,-1909.5773 391.8573,-1897.5738 340.9969,-1861 304.043,-1834.4264 294.9969,-1815.0165 294.9969,-1769.5 294.9969,-1769.5 294.9969,-1769.5 294.9969,-1550.5 294.9969,-1308.0426 485.9969,-1281.9574 485.9969,-1039.5 485.9969,-1039.5 485.9969,-1039.5 485.9969,-966.5 485.9969,-924.7424 485.5828,-876.2685 485.2875,-847.0142"/>
<polygon fill="#999999" stroke="#999999" points="488.0867,-846.9083 485.2041,-838.9377 482.487,-846.9662 488.0867,-846.9083"/>
</g>
<!-- praat_met_smidsen -->
<g id="node50" class="node">
<title>praat_met_smidsen</title>
<path fill="#008800" stroke="#008800" d="M1472.729,-1459.5C1472.729,-1459.5 1571.2648,-1459.5 1571.2648,-1459.5 1577.2648,-1459.5 1583.2648,-1465.5 1583.2648,-1471.5 1583.2648,-1471.5 1583.2648,-1483.5 1583.2648,-1483.5 1583.2648,-1489.5 1577.2648,-1495.5 1571.2648,-1495.5 1571.2648,-1495.5 1472.729,-1495.5 1472.729,-1495.5 1466.729,-1495.5 1460.729,-1489.5 1460.729,-1483.5 1460.729,-1483.5 1460.729,-1471.5 1460.729,-1471.5 1460.729,-1465.5 1466.729,-1459.5 1472.729,-1459.5"/>
<text text-anchor="middle" x="1521.9969" y="-1473.3" font-family="lato, roboto, helvetica" font-size="14.00" fill="#eeeeee">Praat Met Smidsen</text>
</g>
<!-- START&#45;&gt;praat_met_smidsen -->
<g id="edge77" class="edge">
<title>START&#45;&gt;praat_met_smidsen</title>
<path fill="none" stroke="#999999" d="M772.4975,-1913.3223C872.3454,-1909.4183 1093.4854,-1897.1204 1275.9969,-1861 1396.1686,-1837.2171 1535.9969,-1892.0025 1535.9969,-1769.5 1535.9969,-1769.5 1535.9969,-1769.5 1535.9969,-1623.5 1535.9969,-1581.5519 1530.1994,-1533.1326 1526.066,-1503.9415"/>
<polygon fill="#999999" stroke="#999999" points="1528.8167,-1503.3992 1524.8977,-1495.8838 1523.2746,-1504.2028 1528.8167,-1503.3992"/>
</g>
<!-- pak_hout_in_bos -->
<g id="node63" class="node">
<title>pak_hout_in_bos</title>
<path fill="#008800" stroke="#008800" d="M1411.5288,-1751.5C1411.5288,-1751.5 1496.465,-1751.5 1496.465,-1751.5 1502.465,-1751.5 1508.465,-1757.5 1508.465,-1763.5 1508.465,-1763.5 1508.465,-1775.5 1508.465,-1775.5 1508.465,-1781.5 1502.465,-1787.5 1496.465,-1787.5 1496.465,-1787.5 1411.5288,-1787.5 1411.5288,-1787.5 1405.5288,-1787.5 1399.5288,-1781.5 1399.5288,-1775.5 1399.5288,-1775.5 1399.5288,-1763.5 1399.5288,-1763.5 1399.5288,-1757.5 1405.5288,-1751.5 1411.5288,-1751.5"/>
<text text-anchor="middle" x="1453.9969" y="-1765.3" font-family="lato, roboto, helvetica" font-size="14.00" fill="#eeeeee">Pak Hout In Bos</text>
</g>
<!-- START&#45;&gt;pak_hout_in_bos -->
<g id="edge62" class="edge">
<title>START&#45;&gt;pak_hout_in_bos</title>
<path fill="none" stroke="#999999" d="M771.9785,-1913.213C861.7635,-1909.2722 1049.0658,-1897.0973 1202.9969,-1861 1275.7999,-1843.9275 1356.4555,-1812.0679 1406.1975,-1790.8177"/>
<polygon fill="#999999" stroke="#999999" points="1407.3642,-1793.364 1413.6083,-1787.6324 1405.1528,-1788.2191 1407.3642,-1793.364"/>
</g>
<!-- vind_onderbroek_bij_rivier -->
<g id="node66" class="node">
<title>vind_onderbroek_bij_rivier</title>
<path fill="#008800" stroke="#008800" d="M362.2644,-1824.5C362.2644,-1824.5 511.7294,-1824.5 511.7294,-1824.5 517.7294,-1824.5 523.7294,-1830.5 523.7294,-1836.5 523.7294,-1836.5 523.7294,-1848.5 523.7294,-1848.5 523.7294,-1854.5 517.7294,-1860.5 511.7294,-1860.5 511.7294,-1860.5 362.2644,-1860.5 362.2644,-1860.5 356.2644,-1860.5 350.2644,-1854.5 350.2644,-1848.5 350.2644,-1848.5 350.2644,-1836.5 350.2644,-1836.5 350.2644,-1830.5 356.2644,-1824.5 362.2644,-1824.5"/>
<text text-anchor="middle" x="436.9969" y="-1838.3" font-family="lato, roboto, helvetica" font-size="14.00" fill="#eeeeee">Vind Onderbroek Bij Rivier</text>
</g>
<!-- START&#45;&gt;vind_onderbroek_bij_rivier -->
<g id="edge90" class="edge">
<title>START&#45;&gt;vind_onderbroek_bij_rivier</title>
<path fill="none" stroke="#999999" d="M686.9225,-1906.7539C645.4223,-1896.0845 571.7334,-1877.1397 515.0859,-1862.5761"/>
<polygon fill="#999999" stroke="#999999" points="515.6562,-1859.8317 507.2109,-1860.5515 514.2617,-1865.2553 515.6562,-1859.8317"/>
</g>
<!-- beklim_toren -->
<g id="node2" class="node">
<title>beklim_toren</title>
<path fill="#008800" stroke="#008800" d="M267.9215,-1021.5C267.9215,-1021.5 338.0723,-1021.5 338.0723,-1021.5 344.0723,-1021.5 350.0723,-1027.5 350.0723,-1033.5 350.0723,-1033.5 350.0723,-1045.5 350.0723,-1045.5 350.0723,-1051.5 344.0723,-1057.5 338.0723,-1057.5 338.0723,-1057.5 267.9215,-1057.5 267.9215,-1057.5 261.9215,-1057.5 255.9215,-1051.5 255.9215,-1045.5 255.9215,-1045.5 255.9215,-1033.5 255.9215,-1033.5 255.9215,-1027.5 261.9215,-1021.5 267.9215,-1021.5"/>
<text text-anchor="middle" x="302.9969" y="-1035.3" font-family="lato, roboto, helvetica" font-size="14.00" fill="#eeeeee">Beklim Toren</text>
</g>
<!-- praat_met_dochter_van_bakker -->
<g id="node56" class="node">
<title>praat_met_dochter_van_bakker</title>
<path fill="#008800" stroke="#008800" d="M279.9232,-948.5C279.9232,-948.5 446.0706,-948.5 446.0706,-948.5 452.0706,-948.5 458.0706,-954.5 458.0706,-960.5 458.0706,-960.5 458.0706,-972.5 458.0706,-972.5 458.0706,-978.5 452.0706,-984.5 446.0706,-984.5 446.0706,-984.5 279.9232,-984.5 279.9232,-984.5 273.9232,-984.5 267.9232,-978.5 267.9232,-972.5 267.9232,-972.5 267.9232,-960.5 267.9232,-960.5 267.9232,-954.5 273.9232,-948.5 279.9232,-948.5"/>
<text text-anchor="middle" x="362.9969" y="-962.3" font-family="lato, roboto, helvetica" font-size="14.00" fill="#eeeeee">Praat Met Dochter Van Bakker</text>
</g>
<!-- beklim_toren&#45;&gt;praat_met_dochter_van_bakker -->
<g id="edge73" class="edge">
<title>beklim_toren&#45;&gt;praat_met_dochter_van_bakker</title>
<path fill="none" stroke="#999999" d="M317.8284,-1021.4551C325.4006,-1012.2422 334.7224,-1000.9006 342.9273,-990.918"/>
<polygon fill="#999999" stroke="#999999" points="345.2115,-992.5486 348.1281,-984.5904 340.8852,-988.9928 345.2115,-992.5486"/>
</g>
<!-- koop_zwaard_voor_99_bij_wapensmid -->
<g id="node3" class="node">
<title>koop_zwaard_voor_99_bij_wapensmid</title>
<path fill="#008800" stroke="#008800" d="M197.9418,-1094.5C197.9418,-1094.5 408.052,-1094.5 408.052,-1094.5 414.052,-1094.5 420.052,-1100.5 420.052,-1106.5 420.052,-1106.5 420.052,-1118.5 420.052,-1118.5 420.052,-1124.5 414.052,-1130.5 408.052,-1130.5 408.052,-1130.5 197.9418,-1130.5 197.9418,-1130.5 191.9418,-1130.5 185.9418,-1124.5 185.9418,-1118.5 185.9418,-1118.5 185.9418,-1106.5 185.9418,-1106.5 185.9418,-1100.5 191.9418,-1094.5 197.9418,-1094.5"/>
<text text-anchor="middle" x="302.9969" y="-1108.3" font-family="lato, roboto, helvetica" font-size="14.00" fill="#eeeeee">Koop Zwaard Voor 99 Bij Wapensmid</text>
</g>
<!-- koop_zwaard_voor_99_bij_wapensmid&#45;&gt;beklim_toren -->
<g id="edge1" class="edge">
<title>koop_zwaard_voor_99_bij_wapensmid&#45;&gt;beklim_toren</title>
<path fill="none" stroke="#999999" d="M302.9969,-1094.4551C302.9969,-1085.7686 302.9969,-1075.1898 302.9969,-1065.642"/>
<polygon fill="#999999" stroke="#999999" points="305.797,-1065.5903 302.9969,-1057.5904 300.197,-1065.5904 305.797,-1065.5903"/>
</g>
<!-- genoeg_info_over_monster -->
<g id="node4" class="node">
<title>genoeg_info_over_monster</title>
<path fill="#008800" stroke="#008800" d="M12,-1094.5C12,-1094.5 155.9938,-1094.5 155.9938,-1094.5 161.9938,-1094.5 167.9938,-1100.5 167.9938,-1106.5 167.9938,-1106.5 167.9938,-1118.5 167.9938,-1118.5 167.9938,-1124.5 161.9938,-1130.5 155.9938,-1130.5 155.9938,-1130.5 12,-1130.5 12,-1130.5 6,-1130.5 0,-1124.5 0,-1118.5 0,-1118.5 0,-1106.5 0,-1106.5 0,-1100.5 6,-1094.5 12,-1094.5"/>
<text text-anchor="middle" x="83.9969" y="-1108.3" font-family="lato, roboto, helvetica" font-size="14.00" fill="#eeeeee">Genoeg Info Over Monster</text>
</g>
<!-- genoeg_info_over_monster&#45;&gt;beklim_toren -->
<g id="edge2" class="edge">
<title>genoeg_info_over_monster&#45;&gt;beklim_toren</title>
<path fill="none" stroke="#999999" d="M138.1317,-1094.4551C171.5518,-1083.315 214.3093,-1069.0625 247.9055,-1057.8638"/>
<polygon fill="#999999" stroke="#999999" points="249.0954,-1060.4187 255.7994,-1055.2325 247.3245,-1055.1061 249.0954,-1060.4187"/>
</g>
<!-- _0 -->
<g id="node7" class="node">
<title>_0</title>
<polygon fill="#888888" stroke="#888888" points="973.9969,-1787.5 943.9702,-1769.5 973.9969,-1751.5 1004.0236,-1769.5 973.9969,-1787.5"/>
<polyline fill="none" stroke="#888888" points="953.9791,-1775.5 953.9791,-1763.5 "/>
<polyline fill="none" stroke="#888888" points="963.988,-1757.5 984.0058,-1757.5 "/>
<polyline fill="none" stroke="#888888" points="994.0147,-1763.5 994.0147,-1775.5 "/>
<polyline fill="none" stroke="#888888" points="984.0058,-1781.5 963.988,-1781.5 "/>
<text text-anchor="middle" x="973.9969" y="-1765.3" font-family="lato, roboto, helvetica" font-size="14.00" fill="#eeeeee">Or</text>
</g>
<!-- betaal_twee_geldstukken&#45;&gt;_0 -->
<g id="edge5" class="edge">
<title>betaal_twee_geldstukken&#45;&gt;_0</title>
<path fill="none" stroke="#999999" stroke-dasharray="5,2" d="M858.8171,-1824.4551C887.2437,-1810.8921 925.3398,-1792.7155 949.782,-1781.0535"/>
<polygon fill="#999999" stroke="#999999" points="951.194,-1783.4823 957.2085,-1777.5102 948.7824,-1778.4281 951.194,-1783.4823"/>
</g>
<!-- _1 -->
<g id="node41" class="node">
<title>_1</title>
<polygon fill="#888888" stroke="#888888" points="843.9969,-1130.5 813.9702,-1112.5 843.9969,-1094.5 874.0236,-1112.5 843.9969,-1130.5"/>
<polyline fill="none" stroke="#888888" points="823.9791,-1118.5 823.9791,-1106.5 "/>
<polyline fill="none" stroke="#888888" points="833.988,-1100.5 854.0058,-1100.5 "/>
<polyline fill="none" stroke="#888888" points="864.0147,-1106.5 864.0147,-1118.5 "/>
<polyline fill="none" stroke="#888888" points="854.0058,-1124.5 833.988,-1124.5 "/>
<text text-anchor="middle" x="843.9969" y="-1108.3" font-family="lato, roboto, helvetica" font-size="14.00" fill="#eeeeee">Or</text>
</g>
<!-- betaal_twee_geldstukken&#45;&gt;_1 -->
<g id="edge31" class="edge">
<title>betaal_twee_geldstukken&#45;&gt;_1</title>
<path fill="none" stroke="#999999" stroke-dasharray="5,2" d="M822.9579,-1824.2957C828.5199,-1771.031 843.9969,-1610.8369 843.9969,-1477.5 843.9969,-1477.5 843.9969,-1477.5 843.9969,-1258.5 843.9969,-1216.7434 843.9969,-1168.2692 843.9969,-1139.0145"/>
<polygon fill="#999999" stroke="#999999" points="846.797,-1138.9379 843.9969,-1130.938 841.197,-1138.938 846.797,-1138.9379"/>
</g>
<!-- betaal_twee_goudstukken_aan_hoefsmid -->
<g id="node6" class="node">
<title>betaal_twee_goudstukken_aan_hoefsmid</title>
<path fill="#008800" stroke="#008800" d="M860.9793,-1678.5C860.9793,-1678.5 1087.0145,-1678.5 1087.0145,-1678.5 1093.0145,-1678.5 1099.0145,-1684.5 1099.0145,-1690.5 1099.0145,-1690.5 1099.0145,-1702.5 1099.0145,-1702.5 1099.0145,-1708.5 1093.0145,-1714.5 1087.0145,-1714.5 1087.0145,-1714.5 860.9793,-1714.5 860.9793,-1714.5 854.9793,-1714.5 848.9793,-1708.5 848.9793,-1702.5 848.9793,-1702.5 848.9793,-1690.5 848.9793,-1690.5 848.9793,-1684.5 854.9793,-1678.5 860.9793,-1678.5"/>
<text text-anchor="middle" x="973.9969" y="-1692.3" font-family="lato, roboto, helvetica" font-size="14.00" fill="#eeeeee">Betaal Twee Goudstukken Aan Hoefsmid</text>
</g>
<!-- geef_paard_nieuwe_hoefijzers -->
<g id="node29" class="node">
<title>geef_paard_nieuwe_hoefijzers</title>
<path fill="#008800" stroke="#008800" d="M631.2973,-1605.5C631.2973,-1605.5 794.6965,-1605.5 794.6965,-1605.5 800.6965,-1605.5 806.6965,-1611.5 806.6965,-1617.5 806.6965,-1617.5 806.6965,-1629.5 806.6965,-1629.5 806.6965,-1635.5 800.6965,-1641.5 794.6965,-1641.5 794.6965,-1641.5 631.2973,-1641.5 631.2973,-1641.5 625.2973,-1641.5 619.2973,-1635.5 619.2973,-1629.5 619.2973,-1629.5 619.2973,-1617.5 619.2973,-1617.5 619.2973,-1611.5 625.2973,-1605.5 631.2973,-1605.5"/>
<text text-anchor="middle" x="712.9969" y="-1619.3" font-family="lato, roboto, helvetica" font-size="14.00" fill="#eeeeee">Geef Paard Nieuwe Hoefijzers</text>
</g>
<!-- betaal_twee_goudstukken_aan_hoefsmid&#45;&gt;geef_paard_nieuwe_hoefijzers -->
<g id="edge19" class="edge">
<title>betaal_twee_goudstukken_aan_hoefsmid&#45;&gt;geef_paard_nieuwe_hoefijzers</title>
<path fill="none" stroke="#999999" d="M909.48,-1678.4551C871.9922,-1667.9699 824.6462,-1654.7276 785.8243,-1643.8694"/>
<polygon fill="#999999" stroke="#999999" points="786.1347,-1641.0488 777.6761,-1641.5904 784.6262,-1646.4418 786.1347,-1641.0488"/>
</g>
<!-- _0&#45;&gt;betaal_twee_goudstukken_aan_hoefsmid -->
<g id="edge4" class="edge">
<title>_0&#45;&gt;betaal_twee_goudstukken_aan_hoefsmid</title>
<path fill="none" stroke="#999999" d="M973.9969,-1751.4551C973.9969,-1742.7686 973.9969,-1732.1898 973.9969,-1722.642"/>
<polygon fill="#999999" stroke="#999999" points="976.797,-1722.5903 973.9969,-1714.5904 971.197,-1722.5904 976.797,-1722.5903"/>
</g>
<!-- krijg_geldstuk_van_smid -->
<g id="node8" class="node">
<title>krijg_geldstuk_van_smid</title>
<path fill="#008800" stroke="#008800" d="M1457.2567,-729.5C1457.2567,-729.5 1592.7371,-729.5 1592.7371,-729.5 1598.7371,-729.5 1604.7371,-735.5 1604.7371,-741.5 1604.7371,-741.5 1604.7371,-753.5 1604.7371,-753.5 1604.7371,-759.5 1598.7371,-765.5 1592.7371,-765.5 1592.7371,-765.5 1457.2567,-765.5 1457.2567,-765.5 1451.2567,-765.5 1445.2567,-759.5 1445.2567,-753.5 1445.2567,-753.5 1445.2567,-741.5 1445.2567,-741.5 1445.2567,-735.5 1451.2567,-729.5 1457.2567,-729.5"/>
<text text-anchor="middle" x="1524.9969" y="-743.3" font-family="lato, roboto, helvetica" font-size="14.00" fill="#eeeeee">Krijg Geldstuk Van Smid</text>
</g>
<!-- krijg_geldstuk_van_smid&#45;&gt;_0 -->
<g id="edge6" class="edge">
<title>krijg_geldstuk_van_smid&#45;&gt;_0</title>
<path fill="none" stroke="#999999" stroke-dasharray="5,2" d="M1595.5676,-765.5488C1687.3257,-791.1261 1835.9969,-840.7126 1835.9969,-893.5 1835.9969,-1039.5 1835.9969,-1039.5 1835.9969,-1039.5 1835.9969,-1081.0342 1843.7247,-1099.2083 1816.9969,-1131 1604.7154,-1383.5011 1126.9969,-1074.6209 1126.9969,-1404.5 1126.9969,-1623.5 1126.9969,-1623.5 1126.9969,-1623.5 1126.9969,-1665.0342 1134.5829,-1683.0896 1107.9969,-1715 1082.6886,-1745.3768 1037.8311,-1759.0032 1007.0398,-1764.993"/>
<polygon fill="#999999" stroke="#999999" points="1006.5192,-1762.2417 999.1461,-1766.4224 1007.517,-1767.7521 1006.5192,-1762.2417"/>
</g>
<!-- bezorg_graan_bij_molenaar -->
<g id="node9" class="node">
<title>bezorg_graan_bij_molenaar</title>
<path fill="#008800" stroke="#008800" d="M511.0568,-1386.5C511.0568,-1386.5 658.937,-1386.5 658.937,-1386.5 664.937,-1386.5 670.937,-1392.5 670.937,-1398.5 670.937,-1398.5 670.937,-1410.5 670.937,-1410.5 670.937,-1416.5 664.937,-1422.5 658.937,-1422.5 658.937,-1422.5 511.0568,-1422.5 511.0568,-1422.5 505.0568,-1422.5 499.0568,-1416.5 499.0568,-1410.5 499.0568,-1410.5 499.0568,-1398.5 499.0568,-1398.5 499.0568,-1392.5 505.0568,-1386.5 511.0568,-1386.5"/>
<text text-anchor="middle" x="584.9969" y="-1400.3" font-family="lato, roboto, helvetica" font-size="14.00" fill="#eeeeee">Bezorg Graan Bij Molenaar</text>
</g>
<!-- krijg_meel_bij_molenaar -->
<g id="node12" class="node">
<title>krijg_meel_bij_molenaar</title>
<path fill="#008800" stroke="#008800" d="M519.2118,-1313.5C519.2118,-1313.5 650.782,-1313.5 650.782,-1313.5 656.782,-1313.5 662.782,-1319.5 662.782,-1325.5 662.782,-1325.5 662.782,-1337.5 662.782,-1337.5 662.782,-1343.5 656.782,-1349.5 650.782,-1349.5 650.782,-1349.5 519.2118,-1349.5 519.2118,-1349.5 513.2118,-1349.5 507.2118,-1343.5 507.2118,-1337.5 507.2118,-1337.5 507.2118,-1325.5 507.2118,-1325.5 507.2118,-1319.5 513.2118,-1313.5 519.2118,-1313.5"/>
<text text-anchor="middle" x="584.9969" y="-1327.3" font-family="lato, roboto, helvetica" font-size="14.00" fill="#eeeeee">Krijg Meel Bij Molenaar</text>
</g>
<!-- bezorg_graan_bij_molenaar&#45;&gt;krijg_meel_bij_molenaar -->
<g id="edge42" class="edge">
<title>bezorg_graan_bij_molenaar&#45;&gt;krijg_meel_bij_molenaar</title>
<path fill="none" stroke="#999999" d="M584.9969,-1386.4551C584.9969,-1377.7686 584.9969,-1367.1898 584.9969,-1357.642"/>
<polygon fill="#999999" stroke="#999999" points="587.797,-1357.5903 584.9969,-1349.5904 582.197,-1357.5904 587.797,-1357.5903"/>
</g>
<!-- zet_graan_op_wagen -->
<g id="node10" class="node">
<title>zet_graan_op_wagen</title>
<path fill="#008800" stroke="#008800" d="M528.9446,-1459.5C528.9446,-1459.5 641.0492,-1459.5 641.0492,-1459.5 647.0492,-1459.5 653.0492,-1465.5 653.0492,-1471.5 653.0492,-1471.5 653.0492,-1483.5 653.0492,-1483.5 653.0492,-1489.5 647.0492,-1495.5 641.0492,-1495.5 641.0492,-1495.5 528.9446,-1495.5 528.9446,-1495.5 522.9446,-1495.5 516.9446,-1489.5 516.9446,-1483.5 516.9446,-1483.5 516.9446,-1471.5 516.9446,-1471.5 516.9446,-1465.5 522.9446,-1459.5 528.9446,-1459.5"/>
<text text-anchor="middle" x="584.9969" y="-1473.3" font-family="lato, roboto, helvetica" font-size="14.00" fill="#eeeeee">Zet Graan Op Wagen</text>
</g>
<!-- zet_graan_op_wagen&#45;&gt;bezorg_graan_bij_molenaar -->
<g id="edge7" class="edge">
<title>zet_graan_op_wagen&#45;&gt;bezorg_graan_bij_molenaar</title>
<path fill="none" stroke="#999999" d="M584.9969,-1459.4551C584.9969,-1450.7686 584.9969,-1440.1898 584.9969,-1430.642"/>
<polygon fill="#999999" stroke="#999999" points="587.797,-1430.5903 584.9969,-1422.5904 582.197,-1430.5904 587.797,-1430.5903"/>
</g>
<!-- bezorg_meel_bij_bakker -->
<g id="node11" class="node">
<title>bezorg_meel_bij_bakker</title>
<path fill="#008800" stroke="#008800" d="M522.3794,-1240.5C522.3794,-1240.5 651.6144,-1240.5 651.6144,-1240.5 657.6144,-1240.5 663.6144,-1246.5 663.6144,-1252.5 663.6144,-1252.5 663.6144,-1264.5 663.6144,-1264.5 663.6144,-1270.5 657.6144,-1276.5 651.6144,-1276.5 651.6144,-1276.5 522.3794,-1276.5 522.3794,-1276.5 516.3794,-1276.5 510.3794,-1270.5 510.3794,-1264.5 510.3794,-1264.5 510.3794,-1252.5 510.3794,-1252.5 510.3794,-1246.5 516.3794,-1240.5 522.3794,-1240.5"/>
<text text-anchor="middle" x="586.9969" y="-1254.3" font-family="lato, roboto, helvetica" font-size="14.00" fill="#eeeeee">Bezorg Meel Bij Bakker</text>
</g>
<!-- krijg_100_geld_van_meel -->
<g id="node42" class="node">
<title>krijg_100_geld_van_meel</title>
<path fill="#008800" stroke="#008800" d="M627.074,-1167.5C627.074,-1167.5 762.9198,-1167.5 762.9198,-1167.5 768.9198,-1167.5 774.9198,-1173.5 774.9198,-1179.5 774.9198,-1179.5 774.9198,-1191.5 774.9198,-1191.5 774.9198,-1197.5 768.9198,-1203.5 762.9198,-1203.5 762.9198,-1203.5 627.074,-1203.5 627.074,-1203.5 621.074,-1203.5 615.074,-1197.5 615.074,-1191.5 615.074,-1191.5 615.074,-1179.5 615.074,-1179.5 615.074,-1173.5 621.074,-1167.5 627.074,-1167.5"/>
<text text-anchor="middle" x="694.9969" y="-1181.3" font-family="lato, roboto, helvetica" font-size="14.00" fill="#eeeeee">Krijg 100 Geld Van Meel</text>
</g>
<!-- bezorg_meel_bij_bakker&#45;&gt;krijg_100_geld_van_meel -->
<g id="edge35" class="edge">
<title>bezorg_meel_bij_bakker&#45;&gt;krijg_100_geld_van_meel</title>
<path fill="none" stroke="#999999" d="M613.6935,-1240.4551C628.1024,-1230.7157 646.0308,-1218.5975 661.3827,-1208.2207"/>
<polygon fill="#999999" stroke="#999999" points="663.1731,-1210.3902 668.2331,-1203.5904 660.0371,-1205.7506 663.1731,-1210.3902"/>
</g>
<!-- zet_molensteen_op_wagen -->
<g id="node55" class="node">
<title>zet_molensteen_op_wagen</title>
<path fill="#008800" stroke="#008800" d="M526.3857,-948.5C526.3857,-948.5 669.6081,-948.5 669.6081,-948.5 675.6081,-948.5 681.6081,-954.5 681.6081,-960.5 681.6081,-960.5 681.6081,-972.5 681.6081,-972.5 681.6081,-978.5 675.6081,-984.5 669.6081,-984.5 669.6081,-984.5 526.3857,-984.5 526.3857,-984.5 520.3857,-984.5 514.3857,-978.5 514.3857,-972.5 514.3857,-972.5 514.3857,-960.5 514.3857,-960.5 514.3857,-954.5 520.3857,-948.5 526.3857,-948.5"/>
<text text-anchor="middle" x="597.9969" y="-962.3" font-family="lato, roboto, helvetica" font-size="14.00" fill="#eeeeee">Zet Molensteen Op Wagen</text>
</g>
<!-- bezorg_meel_bij_bakker&#45;&gt;zet_molensteen_op_wagen -->
<g id="edge98" class="edge">
<title>bezorg_meel_bij_bakker&#45;&gt;zet_molensteen_op_wagen</title>
<path fill="none" stroke="#999999" d="M587.685,-1240.2341C589.5679,-1190.2529 594.8102,-1051.0932 597.0077,-992.759"/>
<polygon fill="#999999" stroke="#999999" points="599.8058,-992.8588 597.3091,-984.759 594.2098,-992.6479 599.8058,-992.8588"/>
</g>
<!-- krijg_meel_bij_molenaar&#45;&gt;bezorg_meel_bij_bakker -->
<g id="edge8" class="edge">
<title>krijg_meel_bij_molenaar&#45;&gt;bezorg_meel_bij_bakker</title>
<path fill="none" stroke="#999999" d="M585.4913,-1313.4551C585.7293,-1304.7686 586.0191,-1294.1898 586.2807,-1284.642"/>
<polygon fill="#999999" stroke="#999999" points="589.081,-1284.6641 586.5013,-1276.5904 583.4831,-1284.5106 589.081,-1284.6641"/>
</g>
<!-- breng_dochter_naar_bakker -->
<g id="node13" class="node">
<title>breng_dochter_naar_bakker</title>
<path fill="#008800" stroke="#008800" d="M685.2861,-510.5C685.2861,-510.5 834.7077,-510.5 834.7077,-510.5 840.7077,-510.5 846.7077,-516.5 846.7077,-522.5 846.7077,-522.5 846.7077,-534.5 846.7077,-534.5 846.7077,-540.5 840.7077,-546.5 834.7077,-546.5 834.7077,-546.5 685.2861,-546.5 685.2861,-546.5 679.2861,-546.5 673.2861,-540.5 673.2861,-534.5 673.2861,-534.5 673.2861,-522.5 673.2861,-522.5 673.2861,-516.5 679.2861,-510.5 685.2861,-510.5"/>
<text text-anchor="middle" x="759.9969" y="-524.3" font-family="lato, roboto, helvetica" font-size="14.00" fill="#eeeeee">Breng Dochter Naar Bakker</text>
</g>
<!-- krijg_appeltaart_van_bakker -->
<g id="node23" class="node">
<title>krijg_appeltaart_van_bakker</title>
<path fill="#3333aa" stroke="#3333aa" d="M660.5575,-437.5C660.5575,-437.5 815.4363,-437.5 815.4363,-437.5 821.4363,-437.5 827.4363,-443.5 827.4363,-449.5 827.4363,-449.5 827.4363,-461.5 827.4363,-461.5 827.4363,-467.5 821.4363,-473.5 815.4363,-473.5 815.4363,-473.5 660.5575,-473.5 660.5575,-473.5 654.5575,-473.5 648.5575,-467.5 648.5575,-461.5 648.5575,-461.5 648.5575,-449.5 648.5575,-449.5 648.5575,-443.5 654.5575,-437.5 660.5575,-437.5"/>
<text text-anchor="middle" x="737.9969" y="-451.3" font-family="lato, roboto, helvetica" font-size="14.00" fill="#eeeeee">Krijg Appeltaart Van Bakker</text>
</g>
<!-- breng_dochter_naar_bakker&#45;&gt;krijg_appeltaart_van_bakker -->
<g id="edge36" class="edge">
<title>breng_dochter_naar_bakker&#45;&gt;krijg_appeltaart_van_bakker</title>
<path fill="none" stroke="#999999" d="M754.5587,-510.4551C751.9144,-501.6809 748.6883,-490.9759 745.7882,-481.353"/>
<polygon fill="#999999" stroke="#999999" points="748.4382,-480.4421 743.4488,-473.5904 743.0764,-482.058 748.4382,-480.4421"/>
</g>
<!-- trek_tand_van_draak -->
<g id="node14" class="node">
<title>trek_tand_van_draak</title>
<path fill="#008800" stroke="#008800" d="M596.3906,-583.5C596.3906,-583.5 711.6032,-583.5 711.6032,-583.5 717.6032,-583.5 723.6032,-589.5 723.6032,-595.5 723.6032,-595.5 723.6032,-607.5 723.6032,-607.5 723.6032,-613.5 717.6032,-619.5 711.6032,-619.5 711.6032,-619.5 596.3906,-619.5 596.3906,-619.5 590.3906,-619.5 584.3906,-613.5 584.3906,-607.5 584.3906,-607.5 584.3906,-595.5 584.3906,-595.5 584.3906,-589.5 590.3906,-583.5 596.3906,-583.5"/>
<text text-anchor="middle" x="653.9969" y="-597.3" font-family="lato, roboto, helvetica" font-size="14.00" fill="#eeeeee">Trek Tand Van Draak</text>
</g>
<!-- trek_tand_van_draak&#45;&gt;breng_dochter_naar_bakker -->
<g id="edge9" class="edge">
<title>trek_tand_van_draak&#45;&gt;breng_dochter_naar_bakker</title>
<path fill="none" stroke="#999999" d="M680.1992,-583.4551C694.3412,-573.7157 711.9375,-561.5975 727.0052,-551.2207"/>
<polygon fill="#999999" stroke="#999999" points="728.7281,-553.434 733.7287,-546.5904 725.5518,-548.8219 728.7281,-553.434"/>
</g>
<!-- toegang_tot_kelder -->
<g id="node64" class="node">
<title>toegang_tot_kelder</title>
<path fill="#3333aa" stroke="#3333aa" d="M538.2409,-510.5C538.2409,-510.5 643.7529,-510.5 643.7529,-510.5 649.7529,-510.5 655.7529,-516.5 655.7529,-522.5 655.7529,-522.5 655.7529,-534.5 655.7529,-534.5 655.7529,-540.5 649.7529,-546.5 643.7529,-546.5 643.7529,-546.5 538.2409,-546.5 538.2409,-546.5 532.2409,-546.5 526.2409,-540.5 526.2409,-534.5 526.2409,-534.5 526.2409,-522.5 526.2409,-522.5 526.2409,-516.5 532.2409,-510.5 538.2409,-510.5"/>
<text text-anchor="middle" x="590.9969" y="-524.3" font-family="lato, roboto, helvetica" font-size="14.00" fill="#eeeeee">Toegang Tot Kelder</text>
</g>
<!-- trek_tand_van_draak&#45;&gt;toegang_tot_kelder -->
<g id="edge86" class="edge">
<title>trek_tand_van_draak&#45;&gt;toegang_tot_kelder</title>
<path fill="none" stroke="#999999" d="M638.4239,-583.4551C630.473,-574.2422 620.6851,-562.9006 612.07,-552.918"/>
<polygon fill="#999999" stroke="#999999" points="613.9557,-550.8174 606.6091,-546.5904 609.7162,-554.4762 613.9557,-550.8174"/>
</g>
<!-- breng_medicijnen_naar_koning -->
<g id="node15" class="node">
<title>breng_medicijnen_naar_koning</title>
<polygon fill="#333333" stroke="#333333" points="626.9969,-36 438.1558,-18 626.9969,0 815.838,-18 626.9969,-36"/>
<polyline fill="none" stroke="#333333" points="450.1016,-19.1387 450.1016,-16.8613 "/>
<polyline fill="none" stroke="#333333" points="615.051,-1.1387 638.9428,-1.1387 "/>
<polyline fill="none" stroke="#333333" points="803.8922,-16.8613 803.8922,-19.1387 "/>
<polyline fill="none" stroke="#333333" points="638.9428,-34.8613 615.051,-34.8613 "/>
<text text-anchor="middle" x="626.9969" y="-13.8" font-family="lato, roboto, helvetica" font-size="14.00" fill="#dddddd">Breng Medicijnen Naar Koning</text>
</g>
<!-- zet_zadel_op_draak -->
<g id="node16" class="node">
<title>zet_zadel_op_draak</title>
<path fill="#3333aa" stroke="#3333aa" d="M645.8303,-72.5C645.8303,-72.5 750.1635,-72.5 750.1635,-72.5 756.1635,-72.5 762.1635,-78.5 762.1635,-84.5 762.1635,-84.5 762.1635,-96.5 762.1635,-96.5 762.1635,-102.5 756.1635,-108.5 750.1635,-108.5 750.1635,-108.5 645.8303,-108.5 645.8303,-108.5 639.8303,-108.5 633.8303,-102.5 633.8303,-96.5 633.8303,-96.5 633.8303,-84.5 633.8303,-84.5 633.8303,-78.5 639.8303,-72.5 645.8303,-72.5"/>
<text text-anchor="middle" x="697.9969" y="-86.3" font-family="lato, roboto, helvetica" font-size="14.00" fill="#eeeeee">Zet Zadel Op Draak</text>
</g>
<!-- zet_zadel_op_draak&#45;&gt;breng_medicijnen_naar_koning -->
<g id="edge10" class="edge">
<title>zet_zadel_op_draak&#45;&gt;breng_medicijnen_naar_koning</title>
<path fill="none" stroke="#999999" d="M680.0806,-72.2052C670.6026,-62.5269 658.8874,-50.5642 648.8758,-40.3412"/>
<polygon fill="#999999" stroke="#999999" points="650.8058,-38.31 643.2079,-34.5534 646.8048,-42.2282 650.8058,-38.31"/>
</g>
<!-- maak_medicijn -->
<g id="node17" class="node">
<title>maak_medicijn</title>
<path fill="#3333aa" stroke="#3333aa" d="M522.0372,-72.5C522.0372,-72.5 599.9566,-72.5 599.9566,-72.5 605.9566,-72.5 611.9566,-78.5 611.9566,-84.5 611.9566,-84.5 611.9566,-96.5 611.9566,-96.5 611.9566,-102.5 605.9566,-108.5 599.9566,-108.5 599.9566,-108.5 522.0372,-108.5 522.0372,-108.5 516.0372,-108.5 510.0372,-102.5 510.0372,-96.5 510.0372,-96.5 510.0372,-84.5 510.0372,-84.5 510.0372,-78.5 516.0372,-72.5 522.0372,-72.5"/>
<text text-anchor="middle" x="560.9969" y="-86.3" font-family="lato, roboto, helvetica" font-size="14.00" fill="#eeeeee">Maak Medicijn</text>
</g>
<!-- maak_medicijn&#45;&gt;breng_medicijnen_naar_koning -->
<g id="edge11" class="edge">
<title>maak_medicijn&#45;&gt;breng_medicijnen_naar_koning</title>
<path fill="none" stroke="#999999" d="M577.6515,-72.2052C586.2532,-62.7563 596.8371,-51.13 605.9943,-41.071"/>
<polygon fill="#999999" stroke="#999999" points="608.1662,-42.8446 611.4811,-35.0438 604.0251,-39.0748 608.1662,-42.8446"/>
</g>
<!-- breng_paard_naar_hoefsmid -->
<g id="node18" class="node">
<title>breng_paard_naar_hoefsmid</title>
<path fill="#008800" stroke="#008800" d="M630.5028,-1678.5C630.5028,-1678.5 781.491,-1678.5 781.491,-1678.5 787.491,-1678.5 793.491,-1684.5 793.491,-1690.5 793.491,-1690.5 793.491,-1702.5 793.491,-1702.5 793.491,-1708.5 787.491,-1714.5 781.491,-1714.5 781.491,-1714.5 630.5028,-1714.5 630.5028,-1714.5 624.5028,-1714.5 618.5028,-1708.5 618.5028,-1702.5 618.5028,-1702.5 618.5028,-1690.5 618.5028,-1690.5 618.5028,-1684.5 624.5028,-1678.5 630.5028,-1678.5"/>
<text text-anchor="middle" x="705.9969" y="-1692.3" font-family="lato, roboto, helvetica" font-size="14.00" fill="#eeeeee">Breng Paard Naar Hoefsmid</text>
</g>
<!-- breng_paard_naar_hoefsmid&#45;&gt;geef_paard_nieuwe_hoefijzers -->
<g id="edge18" class="edge">
<title>breng_paard_naar_hoefsmid&#45;&gt;geef_paard_nieuwe_hoefijzers</title>
<path fill="none" stroke="#999999" d="M707.7272,-1678.4551C708.5602,-1669.7686 709.5746,-1659.1898 710.4901,-1649.642"/>
<polygon fill="#999999" stroke="#999999" points="713.2857,-1649.8211 711.2622,-1641.5904 707.7113,-1649.2865 713.2857,-1649.8211"/>
</g>
<!-- vind_paard_bij_rivier -->
<g id="node19" class="node">
<title>vind_paard_bij_rivier</title>
<path fill="#008800" stroke="#008800" d="M639.7567,-1751.5C639.7567,-1751.5 754.2371,-1751.5 754.2371,-1751.5 760.2371,-1751.5 766.2371,-1757.5 766.2371,-1763.5 766.2371,-1763.5 766.2371,-1775.5 766.2371,-1775.5 766.2371,-1781.5 760.2371,-1787.5 754.2371,-1787.5 754.2371,-1787.5 639.7567,-1787.5 639.7567,-1787.5 633.7567,-1787.5 627.7567,-1781.5 627.7567,-1775.5 627.7567,-1775.5 627.7567,-1763.5 627.7567,-1763.5 627.7567,-1757.5 633.7567,-1751.5 639.7567,-1751.5"/>
<text text-anchor="middle" x="696.9969" y="-1765.3" font-family="lato, roboto, helvetica" font-size="14.00" fill="#eeeeee">Vind Paard Bij Rivier</text>
</g>
<!-- vind_paard_bij_rivier&#45;&gt;breng_paard_naar_hoefsmid -->
<g id="edge12" class="edge">
<title>vind_paard_bij_rivier&#45;&gt;breng_paard_naar_hoefsmid</title>
<path fill="none" stroke="#999999" d="M699.2216,-1751.4551C700.2925,-1742.7686 701.5968,-1732.1898 702.7739,-1722.642"/>
<polygon fill="#999999" stroke="#999999" points="705.5666,-1722.8729 703.7666,-1714.5904 700.0086,-1722.1876 705.5666,-1722.8729"/>
</g>
<!-- ga_naar_hut_in_moeras -->
<g id="node20" class="node">
<title>ga_naar_hut_in_moeras</title>
<path fill="#008800" stroke="#008800" d="M731.9197,-1021.5C731.9197,-1021.5 856.0741,-1021.5 856.0741,-1021.5 862.0741,-1021.5 868.0741,-1027.5 868.0741,-1033.5 868.0741,-1033.5 868.0741,-1045.5 868.0741,-1045.5 868.0741,-1051.5 862.0741,-1057.5 856.0741,-1057.5 856.0741,-1057.5 731.9197,-1057.5 731.9197,-1057.5 725.9197,-1057.5 719.9197,-1051.5 719.9197,-1045.5 719.9197,-1045.5 719.9197,-1033.5 719.9197,-1033.5 719.9197,-1027.5 725.9197,-1021.5 731.9197,-1021.5"/>
<text text-anchor="middle" x="793.9969" y="-1035.3" font-family="lato, roboto, helvetica" font-size="14.00" fill="#eeeeee">Ga Naar Hut In Moeras</text>
</g>
<!-- praat_met_heks -->
<g id="node31" class="node">
<title>praat_met_heks</title>
<path fill="#008800" stroke="#008800" d="M1008.4576,-875.5C1008.4576,-875.5 1087.5362,-875.5 1087.5362,-875.5 1093.5362,-875.5 1099.5362,-881.5 1099.5362,-887.5 1099.5362,-887.5 1099.5362,-899.5 1099.5362,-899.5 1099.5362,-905.5 1093.5362,-911.5 1087.5362,-911.5 1087.5362,-911.5 1008.4576,-911.5 1008.4576,-911.5 1002.4576,-911.5 996.4576,-905.5 996.4576,-899.5 996.4576,-899.5 996.4576,-887.5 996.4576,-887.5 996.4576,-881.5 1002.4576,-875.5 1008.4576,-875.5"/>
<text text-anchor="middle" x="1047.9969" y="-889.3" font-family="lato, roboto, helvetica" font-size="14.00" fill="#eeeeee">Praat Met Heks</text>
</g>
<!-- ga_naar_hut_in_moeras&#45;&gt;praat_met_heks -->
<g id="edge76" class="edge">
<title>ga_naar_hut_in_moeras&#45;&gt;praat_met_heks</title>
<path fill="none" stroke="#999999" d="M825.397,-1021.4511C871.9522,-994.6911 959.1886,-944.5473 1009.5196,-915.6169"/>
<polygon fill="#999999" stroke="#999999" points="1011.128,-917.922 1016.6685,-911.5077 1008.3373,-913.0669 1011.128,-917.922"/>
</g>
<!-- praat_met_bakker&#45;&gt;koop_zwaard_voor_99_bij_wapensmid -->
<g id="edge34" class="edge">
<title>praat_met_bakker&#45;&gt;koop_zwaard_voor_99_bij_wapensmid</title>
<path fill="none" stroke="#999999" d="M303.7497,-1167.4551C303.6307,-1158.7686 303.4858,-1148.1898 303.355,-1138.642"/>
<polygon fill="#999999" stroke="#999999" points="306.1541,-1138.5512 303.2447,-1130.5904 300.5547,-1138.628 306.1541,-1138.5512"/>
</g>
<!-- praat_met_bakker&#45;&gt;genoeg_info_over_monster -->
<g id="edge22" class="edge">
<title>praat_met_bakker&#45;&gt;genoeg_info_over_monster</title>
<path fill="none" stroke="#999999" d="M249.6149,-1167.4551C218.2803,-1157.0577 178.7748,-1143.949 146.207,-1133.1424"/>
<polygon fill="#999999" stroke="#999999" points="146.9905,-1130.4524 138.5158,-1130.5904 145.2269,-1135.7674 146.9905,-1130.4524"/>
</g>
<!-- praat_met_bakker&#45;&gt;ga_naar_hut_in_moeras -->
<g id="edge13" class="edge">
<title>praat_met_bakker&#45;&gt;ga_naar_hut_in_moeras</title>
<path fill="none" stroke="#999999" d="M361.647,-1168.3226C452.5365,-1141.2413 628.7535,-1088.7358 725.7968,-1059.8208"/>
<polygon fill="#999999" stroke="#999999" points="726.6362,-1062.4925 733.5035,-1057.5246 725.037,-1057.1256 726.6362,-1062.4925"/>
</g>
<!-- geef_appeltaart_aan_draak -->
<g id="node22" class="node">
<title>geef_appeltaart_aan_draak</title>
<path fill="#3333aa" stroke="#3333aa" d="M682.8485,-145.5C682.8485,-145.5 829.1453,-145.5 829.1453,-145.5 835.1453,-145.5 841.1453,-151.5 841.1453,-157.5 841.1453,-157.5 841.1453,-169.5 841.1453,-169.5 841.1453,-175.5 835.1453,-181.5 829.1453,-181.5 829.1453,-181.5 682.8485,-181.5 682.8485,-181.5 676.8485,-181.5 670.8485,-175.5 670.8485,-169.5 670.8485,-169.5 670.8485,-157.5 670.8485,-157.5 670.8485,-151.5 676.8485,-145.5 682.8485,-145.5"/>
<text text-anchor="middle" x="755.9969" y="-159.3" font-family="lato, roboto, helvetica" font-size="14.00" fill="#eeeeee">Geef Appeltaart Aan Draak</text>
</g>
<!-- geef_appeltaart_aan_draak&#45;&gt;zet_zadel_op_draak -->
<g id="edge99" class="edge">
<title>geef_appeltaart_aan_draak&#45;&gt;zet_zadel_op_draak</title>
<path fill="none" stroke="#999999" d="M741.6598,-145.4551C734.34,-136.2422 725.3289,-124.9006 717.3975,-114.918"/>
<polygon fill="#999999" stroke="#999999" points="719.539,-113.1122 712.3701,-108.5904 715.1544,-116.5959 719.539,-113.1122"/>
</g>
<!-- krijg_appeltaart_van_bakker&#45;&gt;geef_appeltaart_aan_draak -->
<g id="edge14" class="edge">
<title>krijg_appeltaart_van_bakker&#45;&gt;geef_appeltaart_aan_draak</title>
<path fill="none" stroke="#999999" d="M739.1229,-437.2341C742.2039,-387.2529 750.7823,-248.0932 754.3782,-189.759"/>
<polygon fill="#999999" stroke="#999999" points="757.1737,-189.9162 754.8713,-181.759 751.5843,-189.5715 757.1737,-189.9162"/>
</g>
<!-- geef_dwerg_eten -->
<g id="node24" class="node">
<title>geef_dwerg_eten</title>
<path fill="#008800" stroke="#008800" d="M1073.0256,-948.5C1073.0256,-948.5 1162.9682,-948.5 1162.9682,-948.5 1168.9682,-948.5 1174.9682,-954.5 1174.9682,-960.5 1174.9682,-960.5 1174.9682,-972.5 1174.9682,-972.5 1174.9682,-978.5 1168.9682,-984.5 1162.9682,-984.5 1162.9682,-984.5 1073.0256,-984.5 1073.0256,-984.5 1067.0256,-984.5 1061.0256,-978.5 1061.0256,-972.5 1061.0256,-972.5 1061.0256,-960.5 1061.0256,-960.5 1061.0256,-954.5 1067.0256,-948.5 1073.0256,-948.5"/>
<text text-anchor="middle" x="1117.9969" y="-962.3" font-family="lato, roboto, helvetica" font-size="14.00" fill="#eeeeee">Geef Dwerg Eten</text>
</g>
<!-- krijg_edelsteen_van_dwerg -->
<g id="node43" class="node">
<title>krijg_edelsteen_van_dwerg</title>
<path fill="#008800" stroke="#008800" d="M1129.0568,-875.5C1129.0568,-875.5 1276.937,-875.5 1276.937,-875.5 1282.937,-875.5 1288.937,-881.5 1288.937,-887.5 1288.937,-887.5 1288.937,-899.5 1288.937,-899.5 1288.937,-905.5 1282.937,-911.5 1276.937,-911.5 1276.937,-911.5 1129.0568,-911.5 1129.0568,-911.5 1123.0568,-911.5 1117.0568,-905.5 1117.0568,-899.5 1117.0568,-899.5 1117.0568,-887.5 1117.0568,-887.5 1117.0568,-881.5 1123.0568,-875.5 1129.0568,-875.5"/>
<text text-anchor="middle" x="1202.9969" y="-889.3" font-family="lato, roboto, helvetica" font-size="14.00" fill="#eeeeee">Krijg Edelsteen Van Dwerg</text>
</g>
<!-- geef_dwerg_eten&#45;&gt;krijg_edelsteen_van_dwerg -->
<g id="edge37" class="edge">
<title>geef_dwerg_eten&#45;&gt;krijg_edelsteen_van_dwerg</title>
<path fill="none" stroke="#999999" d="M1139.0081,-948.4551C1150.0419,-938.979 1163.698,-927.2508 1175.5573,-917.0658"/>
<polygon fill="#999999" stroke="#999999" points="1177.688,-918.9268 1181.9328,-911.5904 1174.0395,-914.6784 1177.688,-918.9268"/>
</g>
<!-- praat_met_dwerg&#45;&gt;geef_dwerg_eten -->
<g id="edge15" class="edge">
<title>praat_met_dwerg&#45;&gt;geef_dwerg_eten</title>
<path fill="none" stroke="#999999" d="M1141.7511,-1824.4226C1149.17,-1787.0699 1164.9969,-1698.5851 1164.9969,-1623.5 1164.9969,-1623.5 1164.9969,-1623.5 1164.9969,-1112.5 1164.9969,-1068.501 1145.4166,-1020.4762 1131.5321,-991.9525"/>
<polygon fill="#999999" stroke="#999999" points="1134.0375,-990.7022 1127.9644,-984.7897 1129.0249,-993.199 1134.0375,-990.7022"/>
</g>
<!-- krijg_kapotte_houweel_van_dwerg -->
<g id="node45" class="node">
<title>krijg_kapotte_houweel_van_dwerg</title>
<path fill="#008800" stroke="#008800" d="M1178.0929,-1751.5C1178.0929,-1751.5 1369.9009,-1751.5 1369.9009,-1751.5 1375.9009,-1751.5 1381.9009,-1757.5 1381.9009,-1763.5 1381.9009,-1763.5 1381.9009,-1775.5 1381.9009,-1775.5 1381.9009,-1781.5 1375.9009,-1787.5 1369.9009,-1787.5 1369.9009,-1787.5 1178.0929,-1787.5 1178.0929,-1787.5 1172.0929,-1787.5 1166.0929,-1781.5 1166.0929,-1775.5 1166.0929,-1775.5 1166.0929,-1763.5 1166.0929,-1763.5 1166.0929,-1757.5 1172.0929,-1751.5 1178.0929,-1751.5"/>
<text text-anchor="middle" x="1273.9969" y="-1765.3" font-family="lato, roboto, helvetica" font-size="14.00" fill="#eeeeee">Krijg Kapotte Houweel Van Dwerg</text>
</g>
<!-- praat_met_dwerg&#45;&gt;krijg_kapotte_houweel_van_dwerg -->
<g id="edge41" class="edge">
<title>praat_met_dwerg&#45;&gt;krijg_kapotte_houweel_van_dwerg</title>
<path fill="none" stroke="#999999" d="M1171.6149,-1824.4551C1190.2497,-1814.4525 1213.5594,-1801.9407 1233.2281,-1791.3833"/>
<polygon fill="#999999" stroke="#999999" points="1234.5698,-1793.841 1240.2943,-1787.5904 1231.9213,-1788.9069 1234.5698,-1793.841"/>
</g>
<!-- koop_eten_bij_bakker -->
<g id="node26" class="node">
<title>koop_eten_bij_bakker</title>
<path fill="#008800" stroke="#008800" d="M950.5926,-1021.5C950.5926,-1021.5 1067.4012,-1021.5 1067.4012,-1021.5 1073.4012,-1021.5 1079.4012,-1027.5 1079.4012,-1033.5 1079.4012,-1033.5 1079.4012,-1045.5 1079.4012,-1045.5 1079.4012,-1051.5 1073.4012,-1057.5 1067.4012,-1057.5 1067.4012,-1057.5 950.5926,-1057.5 950.5926,-1057.5 944.5926,-1057.5 938.5926,-1051.5 938.5926,-1045.5 938.5926,-1045.5 938.5926,-1033.5 938.5926,-1033.5 938.5926,-1027.5 944.5926,-1021.5 950.5926,-1021.5"/>
<text text-anchor="middle" x="1008.9969" y="-1035.3" font-family="lato, roboto, helvetica" font-size="14.00" fill="#eeeeee">Koop Eten Bij Bakker</text>
</g>
<!-- koop_eten_bij_bakker&#45;&gt;geef_dwerg_eten -->
<g id="edge16" class="edge">
<title>koop_eten_bij_bakker&#45;&gt;geef_dwerg_eten</title>
<path fill="none" stroke="#999999" d="M1035.9407,-1021.4551C1050.483,-1011.7157 1068.5774,-999.5975 1084.0714,-989.2207"/>
<polygon fill="#999999" stroke="#999999" points="1085.8963,-991.3685 1090.9853,-984.5904 1082.7801,-986.7156 1085.8963,-991.3685"/>
</g>
<!-- geef_houweel_aan_dwerg -->
<g id="node27" class="node">
<title>geef_houweel_aan_dwerg</title>
<path fill="#008800" stroke="#008800" d="M1205.1774,-1532.5C1205.1774,-1532.5 1346.8164,-1532.5 1346.8164,-1532.5 1352.8164,-1532.5 1358.8164,-1538.5 1358.8164,-1544.5 1358.8164,-1544.5 1358.8164,-1556.5 1358.8164,-1556.5 1358.8164,-1562.5 1352.8164,-1568.5 1346.8164,-1568.5 1346.8164,-1568.5 1205.1774,-1568.5 1205.1774,-1568.5 1199.1774,-1568.5 1193.1774,-1562.5 1193.1774,-1556.5 1193.1774,-1556.5 1193.1774,-1544.5 1193.1774,-1544.5 1193.1774,-1538.5 1199.1774,-1532.5 1205.1774,-1532.5"/>
<text text-anchor="middle" x="1275.9969" y="-1546.3" font-family="lato, roboto, helvetica" font-size="14.00" fill="#eeeeee">Geef Houweel Aan Dwerg</text>
</g>
<!-- geef_houweel_aan_dwerg&#45;&gt;krijg_edelsteen_van_dwerg -->
<g id="edge38" class="edge">
<title>geef_houweel_aan_dwerg&#45;&gt;krijg_edelsteen_van_dwerg</title>
<path fill="none" stroke="#999999" d="M1259.7958,-1532.1466C1238.2894,-1505.8241 1202.9969,-1454.9435 1202.9969,-1404.5 1202.9969,-1404.5 1202.9969,-1404.5 1202.9969,-1039.5 1202.9969,-997.7434 1202.9969,-949.2692 1202.9969,-920.0145"/>
<polygon fill="#999999" stroke="#999999" points="1205.797,-919.9379 1202.9969,-911.938 1200.197,-919.938 1205.797,-919.9379"/>
</g>
<!-- repareer_houweel -->
<g id="node28" class="node">
<title>repareer_houweel</title>
<path fill="#008800" stroke="#008800" d="M1227.7223,-1678.5C1227.7223,-1678.5 1324.2715,-1678.5 1324.2715,-1678.5 1330.2715,-1678.5 1336.2715,-1684.5 1336.2715,-1690.5 1336.2715,-1690.5 1336.2715,-1702.5 1336.2715,-1702.5 1336.2715,-1708.5 1330.2715,-1714.5 1324.2715,-1714.5 1324.2715,-1714.5 1227.7223,-1714.5 1227.7223,-1714.5 1221.7223,-1714.5 1215.7223,-1708.5 1215.7223,-1702.5 1215.7223,-1702.5 1215.7223,-1690.5 1215.7223,-1690.5 1215.7223,-1684.5 1221.7223,-1678.5 1227.7223,-1678.5"/>
<text text-anchor="middle" x="1275.9969" y="-1692.3" font-family="lato, roboto, helvetica" font-size="14.00" fill="#eeeeee">Repareer Houweel</text>
</g>
<!-- repareer_houweel&#45;&gt;geef_houweel_aan_dwerg -->
<g id="edge17" class="edge">
<title>repareer_houweel&#45;&gt;geef_houweel_aan_dwerg</title>
<path fill="none" stroke="#999999" d="M1275.9969,-1678.3042C1275.9969,-1652.8403 1275.9969,-1606.4108 1275.9969,-1577.0759"/>
<polygon fill="#999999" stroke="#999999" points="1278.797,-1576.9251 1275.9969,-1568.9251 1273.197,-1576.9251 1278.797,-1576.9251"/>
</g>
<!-- haal_wagen_bij_molenaar_met_paard -->
<g id="node34" class="node">
<title>haal_wagen_bij_molenaar_met_paard</title>
<path fill="#008800" stroke="#008800" d="M603.622,-1532.5C603.622,-1532.5 804.3718,-1532.5 804.3718,-1532.5 810.3718,-1532.5 816.3718,-1538.5 816.3718,-1544.5 816.3718,-1544.5 816.3718,-1556.5 816.3718,-1556.5 816.3718,-1562.5 810.3718,-1568.5 804.3718,-1568.5 804.3718,-1568.5 603.622,-1568.5 603.622,-1568.5 597.622,-1568.5 591.622,-1562.5 591.622,-1556.5 591.622,-1556.5 591.622,-1544.5 591.622,-1544.5 591.622,-1538.5 597.622,-1532.5 603.622,-1532.5"/>
<text text-anchor="middle" x="703.9969" y="-1546.3" font-family="lato, roboto, helvetica" font-size="14.00" fill="#eeeeee">Haal Wagen Bij Molenaar Met Paard</text>
</g>
<!-- geef_paard_nieuwe_hoefijzers&#45;&gt;haal_wagen_bij_molenaar_met_paard -->
<g id="edge24" class="edge">
<title>geef_paard_nieuwe_hoefijzers&#45;&gt;haal_wagen_bij_molenaar_met_paard</title>
<path fill="none" stroke="#999999" d="M710.7722,-1605.4551C709.7013,-1596.7686 708.397,-1586.1898 707.2199,-1576.642"/>
<polygon fill="#999999" stroke="#999999" points="709.9852,-1576.1876 706.2272,-1568.5904 704.4272,-1576.8729 709.9852,-1576.1876"/>
</g>
<!-- geef_sieraad_aan_heks -->
<g id="node30" class="node">
<title>geef_sieraad_aan_heks</title>
<path fill="#008800" stroke="#008800" d="M1024.1164,-729.5C1024.1164,-729.5 1147.8774,-729.5 1147.8774,-729.5 1153.8774,-729.5 1159.8774,-735.5 1159.8774,-741.5 1159.8774,-741.5 1159.8774,-753.5 1159.8774,-753.5 1159.8774,-759.5 1153.8774,-765.5 1147.8774,-765.5 1147.8774,-765.5 1024.1164,-765.5 1024.1164,-765.5 1018.1164,-765.5 1012.1164,-759.5 1012.1164,-753.5 1012.1164,-753.5 1012.1164,-741.5 1012.1164,-741.5 1012.1164,-735.5 1018.1164,-729.5 1024.1164,-729.5"/>
<text text-anchor="middle" x="1085.9969" y="-743.3" font-family="lato, roboto, helvetica" font-size="14.00" fill="#eeeeee">Geef Sieraad Aan Heks</text>
</g>
<!-- krijg_ingredientenlijst_van_heks -->
<g id="node44" class="node">
<title>krijg_ingredientenlijst_van_heks</title>
<path fill="#008800" stroke="#008800" d="M998.0526,-510.5C998.0526,-510.5 1173.9412,-510.5 1173.9412,-510.5 1179.9412,-510.5 1185.9412,-516.5 1185.9412,-522.5 1185.9412,-522.5 1185.9412,-534.5 1185.9412,-534.5 1185.9412,-540.5 1179.9412,-546.5 1173.9412,-546.5 1173.9412,-546.5 998.0526,-546.5 998.0526,-546.5 992.0526,-546.5 986.0526,-540.5 986.0526,-534.5 986.0526,-534.5 986.0526,-522.5 986.0526,-522.5 986.0526,-516.5 992.0526,-510.5 998.0526,-510.5"/>
<text text-anchor="middle" x="1085.9969" y="-524.3" font-family="lato, roboto, helvetica" font-size="14.00" fill="#eeeeee">Krijg Ingredientenlijst Van Heks</text>
</g>
<!-- geef_sieraad_aan_heks&#45;&gt;krijg_ingredientenlijst_van_heks -->
<g id="edge40" class="edge">
<title>geef_sieraad_aan_heks&#45;&gt;krijg_ingredientenlijst_van_heks</title>
<path fill="none" stroke="#999999" d="M1085.9969,-729.2049C1085.9969,-690.3808 1085.9969,-599.6319 1085.9969,-554.6829"/>
<polygon fill="#999999" stroke="#999999" points="1088.797,-554.589 1085.9969,-546.589 1083.197,-554.5891 1088.797,-554.589"/>
</g>
<!-- praat_met_heks&#45;&gt;geef_sieraad_aan_heks -->
<g id="edge20" class="edge">
<title>praat_met_heks&#45;&gt;geef_sieraad_aan_heks</title>
<path fill="none" stroke="#999999" d="M1052.7328,-875.3042C1059.3888,-849.7311 1071.5486,-803.0119 1079.1779,-773.6992"/>
<polygon fill="#999999" stroke="#999999" points="1081.8959,-774.3725 1081.2013,-765.9251 1076.4765,-772.9619 1081.8959,-774.3725"/>
</g>
<!-- maak_sieraad_bij_smid -->
<g id="node32" class="node">
<title>maak_sieraad_bij_smid</title>
<path fill="#008800" stroke="#008800" d="M1141.4804,-802.5C1141.4804,-802.5 1264.5134,-802.5 1264.5134,-802.5 1270.5134,-802.5 1276.5134,-808.5 1276.5134,-814.5 1276.5134,-814.5 1276.5134,-826.5 1276.5134,-826.5 1276.5134,-832.5 1270.5134,-838.5 1264.5134,-838.5 1264.5134,-838.5 1141.4804,-838.5 1141.4804,-838.5 1135.4804,-838.5 1129.4804,-832.5 1129.4804,-826.5 1129.4804,-826.5 1129.4804,-814.5 1129.4804,-814.5 1129.4804,-808.5 1135.4804,-802.5 1141.4804,-802.5"/>
<text text-anchor="middle" x="1202.9969" y="-816.3" font-family="lato, roboto, helvetica" font-size="14.00" fill="#eeeeee">Maak Sieraad Bij Smid</text>
</g>
<!-- praat_met_heks&#45;&gt;maak_sieraad_bij_smid -->
<g id="edge61" class="edge">
<title>praat_met_heks&#45;&gt;maak_sieraad_bij_smid</title>
<path fill="none" stroke="#999999" d="M1086.3115,-875.4551C1107.7361,-865.3648 1134.5824,-852.721 1157.1214,-842.1059"/>
<polygon fill="#999999" stroke="#999999" points="1158.5414,-844.5322 1164.5859,-838.5904 1156.1553,-839.4659 1158.5414,-844.5322"/>
</g>
<!-- maak_sieraad_bij_smid&#45;&gt;krijg_geldstuk_van_smid -->
<g id="edge39" class="edge">
<title>maak_sieraad_bij_smid&#45;&gt;krijg_geldstuk_van_smid</title>
<path fill="none" stroke="#999999" d="M1276.8702,-803.7523C1324.7209,-792.9042 1387.2653,-778.7249 1437.5881,-767.3163"/>
<polygon fill="#999999" stroke="#999999" points="1438.3726,-770.0096 1445.5555,-765.51 1437.1344,-764.5481 1438.3726,-770.0096"/>
</g>
<!-- maak_sieraad_bij_smid&#45;&gt;geef_sieraad_aan_heks -->
<g id="edge21" class="edge">
<title>maak_sieraad_bij_smid&#45;&gt;geef_sieraad_aan_heks</title>
<path fill="none" stroke="#999999" d="M1174.0755,-802.4551C1158.3253,-792.628 1138.6933,-780.3789 1121.9635,-769.9407"/>
<polygon fill="#999999" stroke="#999999" points="1123.2605,-767.4496 1114.991,-765.5904 1120.2961,-772.2007 1123.2605,-767.4496"/>
</g>
<!-- praat_met_boer&#45;&gt;genoeg_info_over_monster -->
<g id="edge23" class="edge">
<title>praat_met_boer&#45;&gt;genoeg_info_over_monster</title>
<path fill="none" stroke="#999999" d="M606.7368,-1824.3303C546.0535,-1793.9164 426.9505,-1727.5256 351.9969,-1642 277.8552,-1557.4008 135.2081,-1231.878 94.8651,-1137.9861"/>
<polygon fill="#999999" stroke="#999999" points="97.4357,-1136.8759 91.709,-1130.6272 92.289,-1139.0832 97.4357,-1136.8759"/>
</g>
<!-- praat_met_boer&#45;&gt;zet_graan_op_wagen -->
<g id="edge97" class="edge">
<title>praat_met_boer&#45;&gt;zet_graan_op_wagen</title>
<path fill="none" stroke="#999999" d="M634.7514,-1824.3615C629.3115,-1814.0027 622.9512,-1800.6032 618.9969,-1788 589.4675,-1693.8842 591.0235,-1667.3125 582.9969,-1569 581.2191,-1547.2248 581.928,-1522.4444 582.9652,-1504.1689"/>
<polygon fill="#999999" stroke="#999999" points="585.7862,-1503.9208 583.4913,-1495.7615 580.1971,-1503.571 585.7862,-1503.9208"/>
</g>
<!-- praat_met_boer&#45;&gt;vind_paard_bij_rivier -->
<g id="edge91" class="edge">
<title>praat_met_boer&#45;&gt;vind_paard_bij_rivier</title>
<path fill="none" stroke="#999999" d="M657.8508,-1824.4551C664.3509,-1815.3299 672.3386,-1804.1165 679.3998,-1794.2036"/>
<polygon fill="#999999" stroke="#999999" points="681.7497,-1795.7308 684.1106,-1787.5904 677.1885,-1792.4817 681.7497,-1795.7308"/>
</g>
<!-- haal_wagen_bij_molenaar_met_paard&#45;&gt;zet_graan_op_wagen -->
<g id="edge96" class="edge">
<title>haal_wagen_bij_molenaar_met_paard&#45;&gt;zet_graan_op_wagen</title>
<path fill="none" stroke="#999999" d="M674.5812,-1532.4551C658.5617,-1522.628 638.5941,-1510.3789 621.5783,-1499.9407"/>
<polygon fill="#999999" stroke="#999999" points="622.77,-1497.3869 614.4867,-1495.5904 619.8417,-1502.1603 622.77,-1497.3869"/>
</g>
<!-- repareer_molen_met_onderbroek -->
<g id="node35" class="node">
<title>repareer_molen_met_onderbroek</title>
<path fill="#008800" stroke="#008800" d="M372.5105,-1605.5C372.5105,-1605.5 551.4833,-1605.5 551.4833,-1605.5 557.4833,-1605.5 563.4833,-1611.5 563.4833,-1617.5 563.4833,-1617.5 563.4833,-1629.5 563.4833,-1629.5 563.4833,-1635.5 557.4833,-1641.5 551.4833,-1641.5 551.4833,-1641.5 372.5105,-1641.5 372.5105,-1641.5 366.5105,-1641.5 360.5105,-1635.5 360.5105,-1629.5 360.5105,-1629.5 360.5105,-1617.5 360.5105,-1617.5 360.5105,-1611.5 366.5105,-1605.5 372.5105,-1605.5"/>
<text text-anchor="middle" x="461.9969" y="-1619.3" font-family="lato, roboto, helvetica" font-size="14.00" fill="#eeeeee">Repareer Molen Met Onderbroek</text>
</g>
<!-- repareer_molen_met_onderbroek&#45;&gt;krijg_meel_bij_molenaar -->
<g id="edge43" class="edge">
<title>repareer_molen_met_onderbroek&#45;&gt;krijg_meel_bij_molenaar</title>
<path fill="none" stroke="#999999" d="M458.9952,-1605.2828C453.0202,-1562.8648 443.8944,-1455.8099 489.9969,-1386 499.0918,-1372.2282 512.9402,-1361.5301 527.2732,-1353.4044"/>
<polygon fill="#999999" stroke="#999999" points="528.6029,-1355.8686 534.3296,-1349.6199 525.9561,-1350.9335 528.6029,-1355.8686"/>
</g>
<!-- repareer_molen_met_onderbroek&#45;&gt;haal_wagen_bij_molenaar_met_paard -->
<g id="edge25" class="edge">
<title>repareer_molen_met_onderbroek&#45;&gt;haal_wagen_bij_molenaar_met_paard</title>
<path fill="none" stroke="#999999" d="M521.8171,-1605.4551C556.4306,-1595.0138 600.1081,-1581.8383 636.0189,-1571.0058"/>
<polygon fill="#999999" stroke="#999999" points="637.1757,-1573.5815 644.0261,-1568.5904 635.5583,-1568.2201 637.1757,-1573.5815"/>
</g>
<!-- hijs_lift_met_molensteen -->
<g id="node36" class="node">
<title>hijs_lift_met_molensteen</title>
<path fill="#008800" stroke="#008800" d="M589.6515,-802.5C589.6515,-802.5 724.3423,-802.5 724.3423,-802.5 730.3423,-802.5 736.3423,-808.5 736.3423,-814.5 736.3423,-814.5 736.3423,-826.5 736.3423,-826.5 736.3423,-832.5 730.3423,-838.5 724.3423,-838.5 724.3423,-838.5 589.6515,-838.5 589.6515,-838.5 583.6515,-838.5 577.6515,-832.5 577.6515,-826.5 577.6515,-826.5 577.6515,-814.5 577.6515,-814.5 577.6515,-808.5 583.6515,-802.5 589.6515,-802.5"/>
<text text-anchor="middle" x="656.9969" y="-816.3" font-family="lato, roboto, helvetica" font-size="14.00" fill="#eeeeee">Hijs Lift Met Molensteen</text>
</g>
<!-- knoop_touw_aan_molensteen -->
<g id="node38" class="node">
<title>knoop_touw_aan_molensteen</title>
<path fill="#008800" stroke="#008800" d="M573.0463,-729.5C573.0463,-729.5 734.9475,-729.5 734.9475,-729.5 740.9475,-729.5 746.9475,-735.5 746.9475,-741.5 746.9475,-741.5 746.9475,-753.5 746.9475,-753.5 746.9475,-759.5 740.9475,-765.5 734.9475,-765.5 734.9475,-765.5 573.0463,-765.5 573.0463,-765.5 567.0463,-765.5 561.0463,-759.5 561.0463,-753.5 561.0463,-753.5 561.0463,-741.5 561.0463,-741.5 561.0463,-735.5 567.0463,-729.5 573.0463,-729.5"/>
<text text-anchor="middle" x="653.9969" y="-743.3" font-family="lato, roboto, helvetica" font-size="14.00" fill="#eeeeee">Knoop Touw Aan Molensteen</text>
</g>
<!-- hijs_lift_met_molensteen&#45;&gt;knoop_touw_aan_molensteen -->
<g id="edge28" class="edge">
<title>hijs_lift_met_molensteen&#45;&gt;knoop_touw_aan_molensteen</title>
<path fill="none" stroke="#999999" d="M656.2553,-802.4551C655.8984,-793.7686 655.4636,-783.1898 655.0712,-773.642"/>
<polygon fill="#999999" stroke="#999999" points="657.8666,-773.4686 654.7403,-765.5904 652.2713,-773.6986 657.8666,-773.4686"/>
</g>
<!-- snij_touw_van_lift -->
<g id="node68" class="node">
<title>snij_touw_van_lift</title>
<path fill="#008800" stroke="#008800" d="M602.9776,-656.5C602.9776,-656.5 705.0162,-656.5 705.0162,-656.5 711.0162,-656.5 717.0162,-662.5 717.0162,-668.5 717.0162,-668.5 717.0162,-680.5 717.0162,-680.5 717.0162,-686.5 711.0162,-692.5 705.0162,-692.5 705.0162,-692.5 602.9776,-692.5 602.9776,-692.5 596.9776,-692.5 590.9776,-686.5 590.9776,-680.5 590.9776,-680.5 590.9776,-668.5 590.9776,-668.5 590.9776,-662.5 596.9776,-656.5 602.9776,-656.5"/>
<text text-anchor="middle" x="653.9969" y="-670.3" font-family="lato, roboto, helvetica" font-size="14.00" fill="#eeeeee">Snij Touw Van Lift</text>
</g>
<!-- hijs_lift_met_molensteen&#45;&gt;snij_touw_van_lift -->
<g id="edge85" class="edge">
<title>hijs_lift_met_molensteen&#45;&gt;snij_touw_van_lift</title>
<path fill="none" stroke="#999999" d="M713.1822,-802.3755C729.926,-794.0545 746.3639,-782.2993 755.9969,-766 764.3637,-751.8432 764.4521,-743.1042 755.9969,-729 747.5246,-714.8672 734.0013,-704.1947 719.5364,-696.2163"/>
<polygon fill="#999999" stroke="#999999" points="720.7698,-693.702 712.3778,-692.5128 718.1966,-698.6758 720.7698,-693.702"/>
</g>
<!-- leg_molensteen_op_lift -->
<g id="node37" class="node">
<title>leg_molensteen_op_lift</title>
<path fill="#008800" stroke="#008800" d="M534.1557,-875.5C534.1557,-875.5 661.8381,-875.5 661.8381,-875.5 667.8381,-875.5 673.8381,-881.5 673.8381,-887.5 673.8381,-887.5 673.8381,-899.5 673.8381,-899.5 673.8381,-905.5 667.8381,-911.5 661.8381,-911.5 661.8381,-911.5 534.1557,-911.5 534.1557,-911.5 528.1557,-911.5 522.1557,-905.5 522.1557,-899.5 522.1557,-899.5 522.1557,-887.5 522.1557,-887.5 522.1557,-881.5 528.1557,-875.5 534.1557,-875.5"/>
<text text-anchor="middle" x="597.9969" y="-889.3" font-family="lato, roboto, helvetica" font-size="14.00" fill="#eeeeee">Leg Molensteen Op Lift</text>
</g>
<!-- leg_molensteen_op_lift&#45;&gt;hijs_lift_met_molensteen -->
<g id="edge26" class="edge">
<title>leg_molensteen_op_lift&#45;&gt;hijs_lift_met_molensteen</title>
<path fill="none" stroke="#999999" d="M612.5812,-875.4551C620.0272,-866.2422 629.1937,-854.9006 637.2618,-844.918"/>
<polygon fill="#999999" stroke="#999999" points="639.5249,-846.5724 642.3759,-838.5904 635.1695,-843.0523 639.5249,-846.5724"/>
</g>
<!-- knoop_touw_aan_molensteen&#45;&gt;snij_touw_van_lift -->
<g id="edge83" class="edge">
<title>knoop_touw_aan_molensteen&#45;&gt;snij_touw_van_lift</title>
<path fill="none" stroke="#999999" d="M653.9969,-729.4551C653.9969,-720.7686 653.9969,-710.1898 653.9969,-700.642"/>
<polygon fill="#999999" stroke="#999999" points="656.797,-700.5903 653.9969,-692.5904 651.197,-700.5904 656.797,-700.5903"/>
</g>
<!-- pak_touw_op_boerderij&#45;&gt;knoop_touw_aan_molensteen -->
<g id="edge27" class="edge">
<title>pak_touw_op_boerderij&#45;&gt;knoop_touw_aan_molensteen</title>
<path fill="none" stroke="#999999" d="M526.7722,-802.4551C550.335,-792.277 579.9126,-779.5009 604.6178,-768.8294"/>
<polygon fill="#999999" stroke="#999999" points="605.8827,-771.3332 612.1165,-765.5904 603.662,-766.1923 605.8827,-771.3332"/>
</g>
<!-- knoop_touw_aan_tand -->
<g id="node40" class="node">
<title>knoop_touw_aan_tand</title>
<path fill="#008800" stroke="#008800" d="M405.3198,-729.5C405.3198,-729.5 530.674,-729.5 530.674,-729.5 536.674,-729.5 542.674,-735.5 542.674,-741.5 542.674,-741.5 542.674,-753.5 542.674,-753.5 542.674,-759.5 536.674,-765.5 530.674,-765.5 530.674,-765.5 405.3198,-765.5 405.3198,-765.5 399.3198,-765.5 393.3198,-759.5 393.3198,-753.5 393.3198,-753.5 393.3198,-741.5 393.3198,-741.5 393.3198,-735.5 399.3198,-729.5 405.3198,-729.5"/>
<text text-anchor="middle" x="467.9969" y="-743.3" font-family="lato, roboto, helvetica" font-size="14.00" fill="#eeeeee">Knoop Touw Aan Tand</text>
</g>
<!-- pak_touw_op_boerderij&#45;&gt;knoop_touw_aan_tand -->
<g id="edge29" class="edge">
<title>pak_touw_op_boerderij&#45;&gt;knoop_touw_aan_tand</title>
<path fill="none" stroke="#999999" d="M480.7947,-802.4551C478.7718,-793.7686 476.3082,-783.1898 474.0848,-773.642"/>
<polygon fill="#999999" stroke="#999999" points="476.7513,-772.7468 472.2097,-765.5904 471.2972,-774.017 476.7513,-772.7468"/>
</g>
<!-- knoop_touw_aan_tand&#45;&gt;snij_touw_van_lift -->
<g id="edge84" class="edge">
<title>knoop_touw_aan_tand&#45;&gt;snij_touw_van_lift</title>
<path fill="none" stroke="#999999" d="M513.9744,-729.4551C540.131,-719.1893 573.0221,-706.2804 600.3527,-695.5539"/>
<polygon fill="#999999" stroke="#999999" points="601.4796,-698.1196 607.9037,-692.5904 599.4337,-692.9067 601.4796,-698.1196"/>
</g>
<!-- _1&#45;&gt;koop_eten_bij_bakker -->
<g id="edge30" class="edge">
<title>_1&#45;&gt;koop_eten_bij_bakker</title>
<path fill="none" stroke="#999999" d="M861.3429,-1104.8257C884.7275,-1094.4798 927.2864,-1075.6507 960.7258,-1060.8563"/>
<polygon fill="#999999" stroke="#999999" points="961.9611,-1063.3717 968.1442,-1057.5742 959.6953,-1058.2505 961.9611,-1063.3717"/>
</g>
<!-- krijg_100_geld_van_meel&#45;&gt;koop_zwaard_voor_99_bij_wapensmid -->
<g id="edge33" class="edge">
<title>krijg_100_geld_van_meel&#45;&gt;koop_zwaard_voor_99_bij_wapensmid</title>
<path fill="none" stroke="#999999" d="M614.7239,-1170.5512C555.0077,-1159.4306 472.9622,-1144.1517 408.0317,-1132.0601"/>
<polygon fill="#999999" stroke="#999999" points="408.175,-1129.2387 399.7975,-1130.5266 407.1497,-1134.744 408.175,-1129.2387"/>
</g>
<!-- krijg_100_geld_van_meel&#45;&gt;_1 -->
<g id="edge32" class="edge">
<title>krijg_100_geld_van_meel&#45;&gt;_1</title>
<path fill="none" stroke="#999999" stroke-dasharray="5,2" d="M731.8284,-1167.4551C759.3562,-1153.9683 796.1954,-1135.9195 820.0127,-1124.2507"/>
<polygon fill="#999999" stroke="#999999" points="821.3075,-1126.7343 827.2597,-1120.7001 818.8436,-1121.7055 821.3075,-1126.7343"/>
</g>
<!-- krijg_edelsteen_van_dwerg&#45;&gt;maak_sieraad_bij_smid -->
<g id="edge59" class="edge">
<title>krijg_edelsteen_van_dwerg&#45;&gt;maak_sieraad_bij_smid</title>
<path fill="none" stroke="#999999" d="M1202.9969,-875.4551C1202.9969,-866.7686 1202.9969,-856.1898 1202.9969,-846.642"/>
<polygon fill="#999999" stroke="#999999" points="1205.797,-846.5903 1202.9969,-838.5904 1200.197,-846.5904 1205.797,-846.5903"/>
</g>
<!-- pak_tand_van_draak -->
<g id="node52" class="node">
<title>pak_tand_van_draak</title>
<path fill="#3333aa" stroke="#3333aa" d="M857.1059,-437.5C857.1059,-437.5 966.8879,-437.5 966.8879,-437.5 972.8879,-437.5 978.8879,-443.5 978.8879,-449.5 978.8879,-449.5 978.8879,-461.5 978.8879,-461.5 978.8879,-467.5 972.8879,-473.5 966.8879,-473.5 966.8879,-473.5 857.1059,-473.5 857.1059,-473.5 851.1059,-473.5 845.1059,-467.5 845.1059,-461.5 845.1059,-461.5 845.1059,-449.5 845.1059,-449.5 845.1059,-443.5 851.1059,-437.5 857.1059,-437.5"/>
<text text-anchor="middle" x="911.9969" y="-451.3" font-family="lato, roboto, helvetica" font-size="14.00" fill="#eeeeee">Pak Tand Van Draak</text>
</g>
<!-- krijg_ingredientenlijst_van_heks&#45;&gt;pak_tand_van_draak -->
<g id="edge64" class="edge">
<title>krijg_ingredientenlijst_van_heks&#45;&gt;pak_tand_van_draak</title>
<path fill="none" stroke="#999999" d="M1042.9857,-510.4551C1018.6212,-500.2332 988.0104,-487.3907 962.5083,-476.6916"/>
<polygon fill="#999999" stroke="#999999" points="963.5767,-474.1034 955.1164,-473.5904 961.4102,-479.2674 963.5767,-474.1034"/>
</g>
<!-- pluk_kruiden_in_moeras -->
<g id="node53" class="node">
<title>pluk_kruiden_in_moeras</title>
<path fill="#008800" stroke="#008800" d="M1205.1543,-437.5C1205.1543,-437.5 1332.8395,-437.5 1332.8395,-437.5 1338.8395,-437.5 1344.8395,-443.5 1344.8395,-449.5 1344.8395,-449.5 1344.8395,-461.5 1344.8395,-461.5 1344.8395,-467.5 1338.8395,-473.5 1332.8395,-473.5 1332.8395,-473.5 1205.1543,-473.5 1205.1543,-473.5 1199.1543,-473.5 1193.1543,-467.5 1193.1543,-461.5 1193.1543,-461.5 1193.1543,-449.5 1193.1543,-449.5 1193.1543,-443.5 1199.1543,-437.5 1205.1543,-437.5"/>
<text text-anchor="middle" x="1268.9969" y="-451.3" font-family="lato, roboto, helvetica" font-size="14.00" fill="#eeeeee">Pluk Kruiden In Moeras</text>
</g>
<!-- krijg_ingredientenlijst_van_heks&#45;&gt;pluk_kruiden_in_moeras -->
<g id="edge69" class="edge">
<title>krijg_ingredientenlijst_van_heks&#45;&gt;pluk_kruiden_in_moeras</title>
<path fill="none" stroke="#999999" d="M1131.2329,-510.4551C1156.8576,-500.2332 1189.0516,-487.3907 1215.8729,-476.6916"/>
<polygon fill="#999999" stroke="#999999" points="1217.2539,-479.1553 1223.6471,-473.5904 1215.179,-473.9538 1217.2539,-479.1553"/>
</g>
<!-- pluk_paddenstoelen_in_woud -->
<g id="node54" class="node">
<title>pluk_paddenstoelen_in_woud</title>
<path fill="#008800" stroke="#008800" d="M1008.5393,-437.5C1008.5393,-437.5 1163.4545,-437.5 1163.4545,-437.5 1169.4545,-437.5 1175.4545,-443.5 1175.4545,-449.5 1175.4545,-449.5 1175.4545,-461.5 1175.4545,-461.5 1175.4545,-467.5 1169.4545,-473.5 1163.4545,-473.5 1163.4545,-473.5 1008.5393,-473.5 1008.5393,-473.5 1002.5393,-473.5 996.5393,-467.5 996.5393,-461.5 996.5393,-461.5 996.5393,-449.5 996.5393,-449.5 996.5393,-443.5 1002.5393,-437.5 1008.5393,-437.5"/>
<text text-anchor="middle" x="1085.9969" y="-451.3" font-family="lato, roboto, helvetica" font-size="14.00" fill="#eeeeee">Pluk Paddenstoelen In Woud</text>
</g>
<!-- krijg_ingredientenlijst_van_heks&#45;&gt;pluk_paddenstoelen_in_woud -->
<g id="edge70" class="edge">
<title>krijg_ingredientenlijst_van_heks&#45;&gt;pluk_paddenstoelen_in_woud</title>
<path fill="none" stroke="#999999" d="M1085.9969,-510.4551C1085.9969,-501.7686 1085.9969,-491.1898 1085.9969,-481.642"/>
<polygon fill="#999999" stroke="#999999" points="1088.797,-481.5903 1085.9969,-473.5904 1083.197,-481.5904 1088.797,-481.5903"/>
</g>
<!-- krijg_kapotte_houweel_van_dwerg&#45;&gt;repareer_houweel -->
<g id="edge79" class="edge">
<title>krijg_kapotte_houweel_van_dwerg&#45;&gt;repareer_houweel</title>
<path fill="none" stroke="#999999" d="M1274.4913,-1751.4551C1274.7293,-1742.7686 1275.0191,-1732.1898 1275.2807,-1722.642"/>
<polygon fill="#999999" stroke="#999999" points="1278.081,-1722.6641 1275.5013,-1714.5904 1272.4831,-1722.5106 1278.081,-1722.6641"/>
</g>
<!-- krijg_plant_hint_van_bakker -->
<g id="node46" class="node">
<title>krijg_plant_hint_van_bakker</title>
<path fill="#008800" stroke="#008800" d="M1242.5158,-1094.5C1242.5158,-1094.5 1395.478,-1094.5 1395.478,-1094.5 1401.478,-1094.5 1407.478,-1100.5 1407.478,-1106.5 1407.478,-1106.5 1407.478,-1118.5 1407.478,-1118.5 1407.478,-1124.5 1401.478,-1130.5 1395.478,-1130.5 1395.478,-1130.5 1242.5158,-1130.5 1242.5158,-1130.5 1236.5158,-1130.5 1230.5158,-1124.5 1230.5158,-1118.5 1230.5158,-1118.5 1230.5158,-1106.5 1230.5158,-1106.5 1230.5158,-1100.5 1236.5158,-1094.5 1242.5158,-1094.5"/>
<text text-anchor="middle" x="1318.9969" y="-1108.3" font-family="lato, roboto, helvetica" font-size="14.00" fill="#eeeeee">Krijg Plant Hint Van Bakker</text>
</g>
<!-- vind_maansteen_in_moeras -->
<g id="node70" class="node">
<title>vind_maansteen_in_moeras</title>
<path fill="#008800" stroke="#008800" d="M1255.6094,-1021.5C1255.6094,-1021.5 1400.3844,-1021.5 1400.3844,-1021.5 1406.3844,-1021.5 1412.3844,-1027.5 1412.3844,-1033.5 1412.3844,-1033.5 1412.3844,-1045.5 1412.3844,-1045.5 1412.3844,-1051.5 1406.3844,-1057.5 1400.3844,-1057.5 1400.3844,-1057.5 1255.6094,-1057.5 1255.6094,-1057.5 1249.6094,-1057.5 1243.6094,-1051.5 1243.6094,-1045.5 1243.6094,-1045.5 1243.6094,-1033.5 1243.6094,-1033.5 1243.6094,-1027.5 1249.6094,-1021.5 1255.6094,-1021.5"/>
<text text-anchor="middle" x="1327.9969" y="-1035.3" font-family="lato, roboto, helvetica" font-size="14.00" fill="#eeeeee">Vind Maansteen In Moeras</text>
</g>
<!-- krijg_plant_hint_van_bakker&#45;&gt;vind_maansteen_in_moeras -->
<g id="edge89" class="edge">
<title>krijg_plant_hint_van_bakker&#45;&gt;vind_maansteen_in_moeras</title>
<path fill="none" stroke="#999999" d="M1321.2216,-1094.4551C1322.2925,-1085.7686 1323.5968,-1075.1898 1324.7739,-1065.642"/>
<polygon fill="#999999" stroke="#999999" points="1327.5666,-1065.8729 1325.7666,-1057.5904 1322.0086,-1065.1876 1327.5666,-1065.8729"/>
</g>
<!-- krijg_schat_onderwerp -->
<g id="node47" class="node">
<title>krijg_schat_onderwerp</title>
<path fill="#008800" stroke="#008800" d="M1451.6897,-1167.5C1451.6897,-1167.5 1574.3041,-1167.5 1574.3041,-1167.5 1580.3041,-1167.5 1586.3041,-1173.5 1586.3041,-1179.5 1586.3041,-1179.5 1586.3041,-1191.5 1586.3041,-1191.5 1586.3041,-1197.5 1580.3041,-1203.5 1574.3041,-1203.5 1574.3041,-1203.5 1451.6897,-1203.5 1451.6897,-1203.5 1445.6897,-1203.5 1439.6897,-1197.5 1439.6897,-1191.5 1439.6897,-1191.5 1439.6897,-1179.5 1439.6897,-1179.5 1439.6897,-1173.5 1445.6897,-1167.5 1451.6897,-1167.5"/>
<text text-anchor="middle" x="1512.9969" y="-1181.3" font-family="lato, roboto, helvetica" font-size="14.00" fill="#eeeeee">Krijg Schat Onderwerp</text>
</g>
<!-- krijg_schat_onderwerp&#45;&gt;krijg_plant_hint_van_bakker -->
<g id="edge44" class="edge">
<title>krijg_schat_onderwerp&#45;&gt;krijg_plant_hint_van_bakker</title>
<path fill="none" stroke="#999999" d="M1465.0418,-1167.4551C1437.6437,-1157.1454 1403.1612,-1144.1701 1374.5833,-1133.4165"/>
<polygon fill="#999999" stroke="#999999" points="1375.5462,-1130.7873 1367.0727,-1130.5904 1373.574,-1136.0285 1375.5462,-1130.7873"/>
</g>
<!-- krijg_rivier_hint_van_molenaar -->
<g id="node48" class="node">
<title>krijg_rivier_hint_van_molenaar</title>
<path fill="#008800" stroke="#008800" d="M1623.8019,-1094.5C1623.8019,-1094.5 1796.1919,-1094.5 1796.1919,-1094.5 1802.1919,-1094.5 1808.1919,-1100.5 1808.1919,-1106.5 1808.1919,-1106.5 1808.1919,-1118.5 1808.1919,-1118.5 1808.1919,-1124.5 1802.1919,-1130.5 1796.1919,-1130.5 1796.1919,-1130.5 1623.8019,-1130.5 1623.8019,-1130.5 1617.8019,-1130.5 1611.8019,-1124.5 1611.8019,-1118.5 1611.8019,-1118.5 1611.8019,-1106.5 1611.8019,-1106.5 1611.8019,-1100.5 1617.8019,-1094.5 1623.8019,-1094.5"/>
<text text-anchor="middle" x="1709.9969" y="-1108.3" font-family="lato, roboto, helvetica" font-size="14.00" fill="#eeeeee">Krijg Rivier Hint Van Molenaar</text>
</g>
<!-- krijg_schat_onderwerp&#45;&gt;krijg_rivier_hint_van_molenaar -->
<g id="edge45" class="edge">
<title>krijg_schat_onderwerp&#45;&gt;krijg_rivier_hint_van_molenaar</title>
<path fill="none" stroke="#999999" d="M1561.6935,-1167.4551C1589.5154,-1157.1454 1624.5311,-1144.1701 1653.551,-1133.4165"/>
<polygon fill="#999999" stroke="#999999" points="1654.6491,-1135.9957 1661.1777,-1130.5904 1652.7032,-1130.7446 1654.6491,-1135.9957"/>
</g>
<!-- krijg_route_hint_van_boer -->
<g id="node49" class="node">
<title>krijg_route_hint_van_boer</title>
<path fill="#008800" stroke="#008800" d="M1437.7914,-1094.5C1437.7914,-1094.5 1582.2024,-1094.5 1582.2024,-1094.5 1588.2024,-1094.5 1594.2024,-1100.5 1594.2024,-1106.5 1594.2024,-1106.5 1594.2024,-1118.5 1594.2024,-1118.5 1594.2024,-1124.5 1588.2024,-1130.5 1582.2024,-1130.5 1582.2024,-1130.5 1437.7914,-1130.5 1437.7914,-1130.5 1431.7914,-1130.5 1425.7914,-1124.5 1425.7914,-1118.5 1425.7914,-1118.5 1425.7914,-1106.5 1425.7914,-1106.5 1425.7914,-1100.5 1431.7914,-1094.5 1437.7914,-1094.5"/>
<text text-anchor="middle" x="1509.9969" y="-1108.3" font-family="lato, roboto, helvetica" font-size="14.00" fill="#eeeeee">Krijg Route Hint Van Boer</text>
</g>
<!-- krijg_schat_onderwerp&#45;&gt;krijg_route_hint_van_boer -->
<g id="edge46" class="edge">
<title>krijg_schat_onderwerp&#45;&gt;krijg_route_hint_van_boer</title>
<path fill="none" stroke="#999999" d="M1512.2553,-1167.4551C1511.8984,-1158.7686 1511.4636,-1148.1898 1511.0712,-1138.642"/>
<polygon fill="#999999" stroke="#999999" points="1513.8666,-1138.4686 1510.7403,-1130.5904 1508.2713,-1138.6986 1513.8666,-1138.4686"/>
</g>
<!-- schat_route_compleet -->
<g id="node67" class="node">
<title>schat_route_compleet</title>
<path fill="#008800" stroke="#008800" d="M1451.006,-1021.5C1451.006,-1021.5 1568.9878,-1021.5 1568.9878,-1021.5 1574.9878,-1021.5 1580.9878,-1027.5 1580.9878,-1033.5 1580.9878,-1033.5 1580.9878,-1045.5 1580.9878,-1045.5 1580.9878,-1051.5 1574.9878,-1057.5 1568.9878,-1057.5 1568.9878,-1057.5 1451.006,-1057.5 1451.006,-1057.5 1445.006,-1057.5 1439.006,-1051.5 1439.006,-1045.5 1439.006,-1045.5 1439.006,-1033.5 1439.006,-1033.5 1439.006,-1027.5 1445.006,-1021.5 1451.006,-1021.5"/>
<text text-anchor="middle" x="1509.9969" y="-1035.3" font-family="lato, roboto, helvetica" font-size="14.00" fill="#eeeeee">Schat Route Compleet</text>
</g>
<!-- krijg_rivier_hint_van_molenaar&#45;&gt;schat_route_compleet -->
<g id="edge81" class="edge">
<title>krijg_rivier_hint_van_molenaar&#45;&gt;schat_route_compleet</title>
<path fill="none" stroke="#999999" d="M1660.5587,-1094.4551C1632.3131,-1084.1454 1596.7642,-1071.1701 1567.3024,-1060.4165"/>
<polygon fill="#999999" stroke="#999999" points="1568.0347,-1057.7031 1559.5595,-1057.5904 1566.1145,-1062.9637 1568.0347,-1057.7031"/>
</g>
<!-- krijg_route_hint_van_boer&#45;&gt;schat_route_compleet -->
<g id="edge82" class="edge">
<title>krijg_route_hint_van_boer&#45;&gt;schat_route_compleet</title>
<path fill="none" stroke="#999999" d="M1509.9969,-1094.4551C1509.9969,-1085.7686 1509.9969,-1075.1898 1509.9969,-1065.642"/>
<polygon fill="#999999" stroke="#999999" points="1512.797,-1065.5903 1509.9969,-1057.5904 1507.197,-1065.5904 1512.797,-1065.5903"/>
</g>
<!-- praat_met_smidsen&#45;&gt;krijg_schat_onderwerp -->
<g id="edge47" class="edge">
<title>praat_met_smidsen&#45;&gt;krijg_schat_onderwerp</title>
<path fill="none" stroke="#999999" d="M1521.4339,-1459.2341C1519.8934,-1409.2529 1515.6042,-1270.0932 1513.8063,-1211.759"/>
<polygon fill="#999999" stroke="#999999" points="1516.6049,-1211.6689 1513.5597,-1203.759 1511.0076,-1211.8415 1516.6049,-1211.6689"/>
</g>
<!-- krijg_toegang_tot_hut -->
<g id="node51" class="node">
<title>krijg_toegang_tot_hut</title>
<path fill="#3333aa" stroke="#3333aa" d="M985.2616,-364.5C985.2616,-364.5 1106.7322,-364.5 1106.7322,-364.5 1112.7322,-364.5 1118.7322,-370.5 1118.7322,-376.5 1118.7322,-376.5 1118.7322,-388.5 1118.7322,-388.5 1118.7322,-394.5 1112.7322,-400.5 1106.7322,-400.5 1106.7322,-400.5 985.2616,-400.5 985.2616,-400.5 979.2616,-400.5 973.2616,-394.5 973.2616,-388.5 973.2616,-388.5 973.2616,-376.5 973.2616,-376.5 973.2616,-370.5 979.2616,-364.5 985.2616,-364.5"/>
<text text-anchor="middle" x="1045.9969" y="-378.3" font-family="lato, roboto, helvetica" font-size="14.00" fill="#eeeeee">Krijg Toegang Tot Hut</text>
</g>
<!-- maak_drank_om_heks_bij_te_brengen -->
<g id="node57" class="node">
<title>maak_drank_om_heks_bij_te_brengen</title>
<path fill="#3333aa" stroke="#3333aa" d="M394.5319,-291.5C394.5319,-291.5 603.4619,-291.5 603.4619,-291.5 609.4619,-291.5 615.4619,-297.5 615.4619,-303.5 615.4619,-303.5 615.4619,-315.5 615.4619,-315.5 615.4619,-321.5 609.4619,-327.5 603.4619,-327.5 603.4619,-327.5 394.5319,-327.5 394.5319,-327.5 388.5319,-327.5 382.5319,-321.5 382.5319,-315.5 382.5319,-315.5 382.5319,-303.5 382.5319,-303.5 382.5319,-297.5 388.5319,-291.5 394.5319,-291.5"/>
<text text-anchor="middle" x="498.9969" y="-305.3" font-family="lato, roboto, helvetica" font-size="14.00" fill="#eeeeee">Maak Drank Om Heks Bij Te Brengen</text>
</g>
<!-- krijg_toegang_tot_hut&#45;&gt;maak_drank_om_heks_bij_te_brengen -->
<g id="edge53" class="edge">
<title>krijg_toegang_tot_hut&#45;&gt;maak_drank_om_heks_bij_te_brengen</title>
<path fill="none" stroke="#999999" d="M973.0768,-372.7684C883.9034,-360.8678 731.5431,-340.5345 623.6393,-326.1342"/>
<polygon fill="#999999" stroke="#999999" points="623.9237,-323.3474 615.6236,-325.0644 623.1829,-328.8982 623.9237,-323.3474"/>
</g>
<!-- maak_drank_om_met_draak_te_praten -->
<g id="node59" class="node">
<title>maak_drank_om_met_draak_te_praten</title>
<path fill="#3333aa" stroke="#3333aa" d="M942.9323,-218.5C942.9323,-218.5 1151.0615,-218.5 1151.0615,-218.5 1157.0615,-218.5 1163.0615,-224.5 1163.0615,-230.5 1163.0615,-230.5 1163.0615,-242.5 1163.0615,-242.5 1163.0615,-248.5 1157.0615,-254.5 1151.0615,-254.5 1151.0615,-254.5 942.9323,-254.5 942.9323,-254.5 936.9323,-254.5 930.9323,-248.5 930.9323,-242.5 930.9323,-242.5 930.9323,-230.5 930.9323,-230.5 930.9323,-224.5 936.9323,-218.5 942.9323,-218.5"/>
<text text-anchor="middle" x="1046.9969" y="-232.3" font-family="lato, roboto, helvetica" font-size="14.00" fill="#eeeeee">Maak Drank Om Met Draak Te Praten</text>
</g>
<!-- krijg_toegang_tot_hut&#45;&gt;maak_drank_om_met_draak_te_praten -->
<g id="edge56" class="edge">
<title>krijg_toegang_tot_hut&#45;&gt;maak_drank_om_met_draak_te_praten</title>
<path fill="none" stroke="#999999" d="M1037.0582,-364.3287C1032.4569,-353.9597 1027.3332,-340.5609 1024.9969,-328 1021.9899,-311.8328 1021.8616,-307.1428 1024.9969,-291 1026.8928,-281.2387 1030.5333,-271.0113 1034.3155,-262.0873"/>
<polygon fill="#999999" stroke="#999999" points="1036.9418,-263.0724 1037.6354,-254.625 1031.8253,-260.7961 1036.9418,-263.0724"/>
</g>
<!-- pak_mos_in_bos -->
<g id="node61" class="node">
<title>pak_mos_in_bos</title>
<path fill="#3333aa" stroke="#3333aa" d="M1046.0828,-291.5C1046.0828,-291.5 1127.911,-291.5 1127.911,-291.5 1133.911,-291.5 1139.911,-297.5 1139.911,-303.5 1139.911,-303.5 1139.911,-315.5 1139.911,-315.5 1139.911,-321.5 1133.911,-327.5 1127.911,-327.5 1127.911,-327.5 1046.0828,-327.5 1046.0828,-327.5 1040.0828,-327.5 1034.0828,-321.5 1034.0828,-315.5 1034.0828,-315.5 1034.0828,-303.5 1034.0828,-303.5 1034.0828,-297.5 1040.0828,-291.5 1046.0828,-291.5"/>
<text text-anchor="middle" x="1086.9969" y="-305.3" font-family="lato, roboto, helvetica" font-size="14.00" fill="#eeeeee">Pak Mos In Bos</text>
</g>
<!-- krijg_toegang_tot_hut&#45;&gt;pak_mos_in_bos -->
<g id="edge63" class="edge">
<title>krijg_toegang_tot_hut&#45;&gt;pak_mos_in_bos</title>
<path fill="none" stroke="#999999" d="M1056.1317,-364.4551C1061.1582,-355.5054 1067.313,-344.547 1072.8003,-334.7769"/>
<polygon fill="#999999" stroke="#999999" points="1075.3603,-335.9367 1076.8366,-327.5904 1070.4777,-333.1944 1075.3603,-335.9367"/>
</g>
<!-- pak_tand_van_draak&#45;&gt;krijg_toegang_tot_hut -->
<g id="edge48" class="edge">
<title>pak_tand_van_draak&#45;&gt;krijg_toegang_tot_hut</title>
<path fill="none" stroke="#999999" d="M945.1205,-437.4551C963.4008,-427.4964 986.2468,-415.0504 1005.5724,-404.5223"/>
<polygon fill="#999999" stroke="#999999" points="1007.1043,-406.8764 1012.7899,-400.5904 1004.4252,-401.9587 1007.1043,-406.8764"/>
</g>
<!-- pluk_kruiden_in_moeras&#45;&gt;krijg_toegang_tot_hut -->
<g id="edge49" class="edge">
<title>pluk_kruiden_in_moeras&#45;&gt;krijg_toegang_tot_hut</title>
<path fill="none" stroke="#999999" d="M1213.8733,-437.4551C1182.1115,-427.0577 1142.0672,-413.949 1109.0553,-403.1424"/>
<polygon fill="#999999" stroke="#999999" points="1109.7334,-400.4182 1101.2592,-400.5904 1107.9911,-405.7403 1109.7334,-400.4182"/>
</g>
<!-- pluk_paddenstoelen_in_woud&#45;&gt;krijg_toegang_tot_hut -->
<g id="edge50" class="edge">
<title>pluk_paddenstoelen_in_woud&#45;&gt;krijg_toegang_tot_hut</title>
<path fill="none" stroke="#999999" d="M1076.1093,-437.4551C1071.2053,-428.5054 1065.2007,-417.547 1059.8473,-407.7769"/>
<polygon fill="#999999" stroke="#999999" points="1062.2093,-406.2607 1055.9094,-400.5904 1057.2982,-408.9517 1062.2093,-406.2607"/>
</g>
<!-- zet_molensteen_op_wagen&#45;&gt;leg_molensteen_op_lift -->
<g id="edge51" class="edge">
<title>zet_molensteen_op_wagen&#45;&gt;leg_molensteen_op_lift</title>
<path fill="none" stroke="#999999" d="M597.9969,-948.4551C597.9969,-939.7686 597.9969,-929.1898 597.9969,-919.642"/>
<polygon fill="#999999" stroke="#999999" points="600.797,-919.5903 597.9969,-911.5904 595.197,-919.5904 600.797,-919.5903"/>
</g>
<!-- praat_met_dochter_van_bakker&#45;&gt;leg_molensteen_op_lift -->
<g id="edge52" class="edge">
<title>praat_met_dochter_van_bakker&#45;&gt;leg_molensteen_op_lift</title>
<path fill="none" stroke="#999999" d="M421.0868,-948.4551C454.699,-938.0138 497.1132,-924.8383 531.9852,-914.0058"/>
<polygon fill="#999999" stroke="#999999" points="532.9516,-916.6376 539.7608,-911.5904 531.2903,-911.2897 532.9516,-916.6376"/>
</g>
<!-- pak_wijn_uit_kelder -->
<g id="node58" class="node">
<title>pak_wijn_uit_kelder</title>
<path fill="#3333aa" stroke="#3333aa" d="M445.263,-437.5C445.263,-437.5 552.7308,-437.5 552.7308,-437.5 558.7308,-437.5 564.7308,-443.5 564.7308,-449.5 564.7308,-449.5 564.7308,-461.5 564.7308,-461.5 564.7308,-467.5 558.7308,-473.5 552.7308,-473.5 552.7308,-473.5 445.263,-473.5 445.263,-473.5 439.263,-473.5 433.263,-467.5 433.263,-461.5 433.263,-461.5 433.263,-449.5 433.263,-449.5 433.263,-443.5 439.263,-437.5 445.263,-437.5"/>
<text text-anchor="middle" x="498.9969" y="-451.3" font-family="lato, roboto, helvetica" font-size="14.00" fill="#eeeeee">Pak Wijn Uit Kelder</text>
</g>
<!-- praat_met_dochter_van_bakker&#45;&gt;pak_wijn_uit_kelder -->
<g id="edge68" class="edge">
<title>praat_met_dochter_van_bakker&#45;&gt;pak_wijn_uit_kelder</title>
<path fill="none" stroke="#999999" d="M363.2041,-948.0623C363.497,-920.367 363.9969,-866.3795 363.9969,-820.5 363.9969,-820.5 363.9969,-820.5 363.9969,-601.5 363.9969,-545.9256 417.3796,-502.5126 457.0076,-477.9416"/>
<polygon fill="#999999" stroke="#999999" points="458.8338,-480.1096 464.231,-473.5743 455.9363,-475.3174 458.8338,-480.1096"/>
</g>
<!-- maak_drank_om_heks_bij_te_brengen&#45;&gt;maak_medicijn -->
<g id="edge58" class="edge">
<title>maak_drank_om_heks_bij_te_brengen&#45;&gt;maak_medicijn</title>
<path fill="none" stroke="#999999" d="M504.1763,-291.2049C515.1905,-252.3001 540.966,-161.2544 553.6636,-116.4032"/>
<polygon fill="#999999" stroke="#999999" points="556.3907,-117.0493 555.8758,-108.589 551.0024,-115.5238 556.3907,-117.0493"/>
</g>
<!-- pak_wijn_uit_kelder&#45;&gt;maak_drank_om_heks_bij_te_brengen -->
<g id="edge54" class="edge">
<title>pak_wijn_uit_kelder&#45;&gt;maak_drank_om_heks_bij_te_brengen</title>
<path fill="none" stroke="#999999" d="M498.9969,-437.3042C498.9969,-411.8403 498.9969,-365.4108 498.9969,-336.0759"/>
<polygon fill="#999999" stroke="#999999" points="501.797,-335.9251 498.9969,-327.9251 496.197,-335.9251 501.797,-335.9251"/>
</g>
<!-- praat_met_draak -->
<g id="node65" class="node">
<title>praat_met_draak</title>
<path fill="#3333aa" stroke="#3333aa" d="M963.7423,-145.5C963.7423,-145.5 1048.2515,-145.5 1048.2515,-145.5 1054.2515,-145.5 1060.2515,-151.5 1060.2515,-157.5 1060.2515,-157.5 1060.2515,-169.5 1060.2515,-169.5 1060.2515,-175.5 1054.2515,-181.5 1048.2515,-181.5 1048.2515,-181.5 963.7423,-181.5 963.7423,-181.5 957.7423,-181.5 951.7423,-175.5 951.7423,-169.5 951.7423,-169.5 951.7423,-157.5 951.7423,-157.5 951.7423,-151.5 957.7423,-145.5 963.7423,-145.5"/>
<text text-anchor="middle" x="1005.9969" y="-159.3" font-family="lato, roboto, helvetica" font-size="14.00" fill="#eeeeee">Praat Met Draak</text>
</g>
<!-- maak_drank_om_met_draak_te_praten&#45;&gt;praat_met_draak -->
<g id="edge74" class="edge">
<title>maak_drank_om_met_draak_te_praten&#45;&gt;praat_met_draak</title>
<path fill="none" stroke="#999999" d="M1036.8621,-218.4551C1031.8356,-209.5054 1025.6808,-198.547 1020.1935,-188.7769"/>
<polygon fill="#999999" stroke="#999999" points="1022.5161,-187.1944 1016.1572,-181.5904 1017.6335,-189.9367 1022.5161,-187.1944"/>
</g>
<!-- vind_runesteen_in_bos -->
<g id="node60" class="node">
<title>vind_runesteen_in_bos</title>
<path fill="#008800" stroke="#008800" d="M1667.8696,-656.5C1667.8696,-656.5 1790.1242,-656.5 1790.1242,-656.5 1796.1242,-656.5 1802.1242,-662.5 1802.1242,-668.5 1802.1242,-668.5 1802.1242,-680.5 1802.1242,-680.5 1802.1242,-686.5 1796.1242,-692.5 1790.1242,-692.5 1790.1242,-692.5 1667.8696,-692.5 1667.8696,-692.5 1661.8696,-692.5 1655.8696,-686.5 1655.8696,-680.5 1655.8696,-680.5 1655.8696,-668.5 1655.8696,-668.5 1655.8696,-662.5 1661.8696,-656.5 1667.8696,-656.5"/>
<text text-anchor="middle" x="1728.9969" y="-670.3" font-family="lato, roboto, helvetica" font-size="14.00" fill="#eeeeee">Vind Runesteen In Bos</text>
</g>
<!-- vind_runesteen_in_bos&#45;&gt;maak_drank_om_met_draak_te_praten -->
<g id="edge55" class="edge">
<title>vind_runesteen_in_bos&#45;&gt;maak_drank_om_met_draak_te_praten</title>
<path fill="none" stroke="#999999" d="M1699.8862,-656.461C1664.6564,-632.1287 1609.9969,-585.2349 1609.9969,-528.5 1609.9969,-528.5 1609.9969,-528.5 1609.9969,-382.5 1609.9969,-292.5716 1337.4481,-257.1041 1171.615,-243.847"/>
<polygon fill="#999999" stroke="#999999" points="1171.5041,-241.0297 1163.3094,-243.1944 1171.0654,-246.6125 1171.5041,-241.0297"/>
</g>
<!-- pak_mos_in_bos&#45;&gt;maak_drank_om_met_draak_te_praten -->
<g id="edge57" class="edge">
<title>pak_mos_in_bos&#45;&gt;maak_drank_om_met_draak_te_praten</title>
<path fill="none" stroke="#999999" d="M1077.1093,-291.4551C1072.2053,-282.5054 1066.2007,-271.547 1060.8473,-261.7769"/>
<polygon fill="#999999" stroke="#999999" points="1063.2093,-260.2607 1056.9094,-254.5904 1058.2982,-262.9517 1063.2093,-260.2607"/>
</g>
<!-- vind_goud_in_bos -->
<g id="node62" class="node">
<title>vind_goud_in_bos</title>
<path fill="#008800" stroke="#008800" d="M1390.4741,-875.5C1390.4741,-875.5 1485.5197,-875.5 1485.5197,-875.5 1491.5197,-875.5 1497.5197,-881.5 1497.5197,-887.5 1497.5197,-887.5 1497.5197,-899.5 1497.5197,-899.5 1497.5197,-905.5 1491.5197,-911.5 1485.5197,-911.5 1485.5197,-911.5 1390.4741,-911.5 1390.4741,-911.5 1384.4741,-911.5 1378.4741,-905.5 1378.4741,-899.5 1378.4741,-899.5 1378.4741,-887.5 1378.4741,-887.5 1378.4741,-881.5 1384.4741,-875.5 1390.4741,-875.5"/>
<text text-anchor="middle" x="1437.9969" y="-889.3" font-family="lato, roboto, helvetica" font-size="14.00" fill="#eeeeee">Vind Goud In Bos</text>
</g>
<!-- vind_goud_in_bos&#45;&gt;maak_sieraad_bij_smid -->
<g id="edge60" class="edge">
<title>vind_goud_in_bos&#45;&gt;maak_sieraad_bij_smid</title>
<path fill="none" stroke="#999999" d="M1379.907,-875.4551C1346.2948,-865.0138 1303.8806,-851.8383 1269.0086,-841.0058"/>
<polygon fill="#999999" stroke="#999999" points="1269.7035,-838.2897 1261.233,-838.5904 1268.0422,-843.6376 1269.7035,-838.2897"/>
</g>
<!-- pak_hout_in_bos&#45;&gt;repareer_houweel -->
<g id="edge78" class="edge">
<title>pak_hout_in_bos&#45;&gt;repareer_houweel</title>
<path fill="none" stroke="#999999" d="M1409.9969,-1751.4551C1385.0723,-1741.2332 1353.7579,-1728.3907 1327.6695,-1717.6916"/>
<polygon fill="#999999" stroke="#999999" points="1328.5718,-1715.0354 1320.1076,-1714.5904 1326.4469,-1720.2166 1328.5718,-1715.0354"/>
</g>
<!-- toegang_tot_kelder&#45;&gt;pak_tand_van_draak -->
<g id="edge65" class="edge">
<title>toegang_tot_kelder&#45;&gt;pak_tand_van_draak</title>
<path fill="none" stroke="#999999" d="M655.8414,-511.9169C658.5945,-511.2602 661.3219,-510.6186 663.9969,-510 740.0896,-492.4031 759.8221,-491.2383 835.9969,-474 836.2701,-473.9382 836.5438,-473.8762 836.818,-473.8139"/>
<polygon fill="#999999" stroke="#999999" points="837.7176,-476.4803 844.8879,-471.9608 836.4642,-471.0224 837.7176,-476.4803"/>
</g>
<!-- toegang_tot_kelder&#45;&gt;pak_wijn_uit_kelder -->
<g id="edge67" class="edge">
<title>toegang_tot_kelder&#45;&gt;pak_wijn_uit_kelder</title>
<path fill="none" stroke="#999999" d="M568.2553,-510.4551C556.2023,-500.8912 541.2582,-489.0334 528.3402,-478.7833"/>
<polygon fill="#999999" stroke="#999999" points="529.803,-476.3696 521.7957,-473.5904 526.3221,-480.7564 529.803,-476.3696"/>
</g>
<!-- vind_zadel_in_kelder -->
<g id="node71" class="node">
<title>vind_zadel_in_kelder</title>
<path fill="#3333aa" stroke="#3333aa" d="M581.9383,-364.5C581.9383,-364.5 694.0555,-364.5 694.0555,-364.5 700.0555,-364.5 706.0555,-370.5 706.0555,-376.5 706.0555,-376.5 706.0555,-388.5 706.0555,-388.5 706.0555,-394.5 700.0555,-400.5 694.0555,-400.5 694.0555,-400.5 581.9383,-400.5 581.9383,-400.5 575.9383,-400.5 569.9383,-394.5 569.9383,-388.5 569.9383,-388.5 569.9383,-376.5 569.9383,-376.5 569.9383,-370.5 575.9383,-364.5 581.9383,-364.5"/>
<text text-anchor="middle" x="637.9969" y="-378.3" font-family="lato, roboto, helvetica" font-size="14.00" fill="#eeeeee">Vind Zadel In Kelder</text>
</g>
<!-- toegang_tot_kelder&#45;&gt;vind_zadel_in_kelder -->
<g id="edge93" class="edge">
<title>toegang_tot_kelder&#45;&gt;vind_zadel_in_kelder</title>
<path fill="none" stroke="#999999" d="M596.8545,-510.3042C605.0869,-484.7311 620.1266,-438.0119 629.5629,-408.6992"/>
<polygon fill="#999999" stroke="#999999" points="632.2793,-409.3983 632.0655,-400.9251 626.9487,-407.6822 632.2793,-409.3983"/>
</g>
<!-- praat_met_draak&#45;&gt;zet_zadel_op_draak -->
<g id="edge100" class="edge">
<title>praat_met_draak&#45;&gt;zet_zadel_op_draak</title>
<path fill="none" stroke="#999999" d="M951.6417,-150.6171C901.1913,-138.6597 825.7374,-120.7762 770.2369,-107.6218"/>
<polygon fill="#999999" stroke="#999999" points="770.6285,-104.8371 762.1984,-105.7166 769.337,-110.2862 770.6285,-104.8371"/>
</g>
<!-- vind_onderbroek_bij_rivier&#45;&gt;repareer_molen_met_onderbroek -->
<g id="edge80" class="edge">
<title>vind_onderbroek_bij_rivier&#45;&gt;repareer_molen_met_onderbroek</title>
<path fill="none" stroke="#999999" d="M439.0854,-1824.2049C443.5174,-1785.3808 453.8768,-1694.6319 459.008,-1649.6829"/>
<polygon fill="#999999" stroke="#999999" points="461.8064,-1649.855 459.9319,-1641.589 456.2426,-1649.2198 461.8064,-1649.855"/>
</g>
<!-- volg_maansteen_route -->
<g id="node69" class="node">
<title>volg_maansteen_route</title>
<path fill="#008800" stroke="#008800" d="M1413.4583,-948.5C1413.4583,-948.5 1534.5355,-948.5 1534.5355,-948.5 1540.5355,-948.5 1546.5355,-954.5 1546.5355,-960.5 1546.5355,-960.5 1546.5355,-972.5 1546.5355,-972.5 1546.5355,-978.5 1540.5355,-984.5 1534.5355,-984.5 1534.5355,-984.5 1413.4583,-984.5 1413.4583,-984.5 1407.4583,-984.5 1401.4583,-978.5 1401.4583,-972.5 1401.4583,-972.5 1401.4583,-960.5 1401.4583,-960.5 1401.4583,-954.5 1407.4583,-948.5 1413.4583,-948.5"/>
<text text-anchor="middle" x="1473.9969" y="-962.3" font-family="lato, roboto, helvetica" font-size="14.00" fill="#eeeeee">Volg Maansteen Route</text>
</g>
<!-- schat_route_compleet&#45;&gt;volg_maansteen_route -->
<g id="edge95" class="edge">
<title>schat_route_compleet&#45;&gt;volg_maansteen_route</title>
<path fill="none" stroke="#999999" d="M1501.098,-1021.4551C1496.6845,-1012.5054 1491.2803,-1001.547 1486.4622,-991.7769"/>
<polygon fill="#999999" stroke="#999999" points="1488.9678,-990.5269 1482.9182,-984.5904 1483.9453,-993.0038 1488.9678,-990.5269"/>
</g>
<!-- snij_touw_van_lift&#45;&gt;trek_tand_van_draak -->
<g id="edge87" class="edge">
<title>snij_touw_van_lift&#45;&gt;trek_tand_van_draak</title>
<path fill="none" stroke="#999999" d="M653.9969,-656.4551C653.9969,-647.7686 653.9969,-637.1898 653.9969,-627.642"/>
<polygon fill="#999999" stroke="#999999" points="656.797,-627.5903 653.9969,-619.5904 651.197,-627.5904 656.797,-627.5903"/>
</g>
<!-- volg_maansteen_route&#45;&gt;vind_runesteen_in_bos -->
<g id="edge92" class="edge">
<title>volg_maansteen_route&#45;&gt;vind_runesteen_in_bos</title>
<path fill="none" stroke="#999999" d="M1489.9483,-948.2341C1534.0434,-897.7408 1657.6212,-756.2322 1707.6087,-698.9916"/>
<polygon fill="#999999" stroke="#999999" points="1709.8983,-700.6265 1713.0515,-692.759 1705.6803,-696.943 1709.8983,-700.6265"/>
</g>
<!-- volg_maansteen_route&#45;&gt;vind_goud_in_bos -->
<g id="edge88" class="edge">
<title>volg_maansteen_route&#45;&gt;vind_goud_in_bos</title>
<path fill="none" stroke="#999999" d="M1465.098,-948.4551C1460.6845,-939.5054 1455.2803,-928.547 1450.4622,-918.7769"/>
<polygon fill="#999999" stroke="#999999" points="1452.9678,-917.5269 1446.9182,-911.5904 1447.9453,-920.0038 1452.9678,-917.5269"/>
</g>
<!-- vind_maansteen_in_moeras&#45;&gt;volg_maansteen_route -->
<g id="edge94" class="edge">
<title>vind_maansteen_in_moeras&#45;&gt;volg_maansteen_route</title>
<path fill="none" stroke="#999999" d="M1364.0868,-1021.4551C1384.1796,-1011.4087 1409.3351,-998.8309 1430.508,-988.2445"/>
<polygon fill="#999999" stroke="#999999" points="1431.913,-990.6725 1437.8162,-984.5904 1429.4085,-985.6637 1431.913,-990.6725"/>
</g>
<!-- vind_zadel_in_kelder&#45;&gt;zet_zadel_op_draak -->
<g id="edge101" class="edge">
<title>vind_zadel_in_kelder&#45;&gt;zet_zadel_op_draak</title>
<path fill="none" stroke="#999999" d="M636.9335,-364.2817C635.1743,-323.6128 634.2508,-222.8833 661.9969,-145 665.6603,-134.7168 671.6591,-124.4609 677.7189,-115.6657"/>
<polygon fill="#999999" stroke="#999999" points="680.1493,-117.082 682.5483,-108.9527 675.6034,-113.8116 680.1493,-117.082"/>
</g>
</g>
</svg>
