<?xml version="1.0" encoding="UTF-8" standalone="no"?>
<!DOCTYPE svg PUBLIC "-//W3C//DTD SVG 1.1//EN"
 "http://www.w3.org/Graphics/SVG/1.1/DTD/svg11.dtd">
<!-- Generated by graphviz version 2.40.1 (20161225.0304)
 -->
<!-- Title: G Pages: 1 -->
<svg width="1644pt" height="1681pt"
 viewBox="0.00 0.00 1644.19 1681.00" xmlns="http://www.w3.org/2000/svg" xmlns:xlink="http://www.w3.org/1999/xlink">
<g id="graph0" class="graph" transform="scale(1 1) rotate(0) translate(4 1677)">
<title>G</title>
<polygon fill="#ffffff" stroke="transparent" points="-4,4 -4,-1677 1640.195,-1677 1640.195,4 -4,4"/>
<text text-anchor="middle" x="818.0975" y="-1651" font-family="lato, roboto, helvetica" font-size="20.00" fill="#000000">Avontuur</text>
<!-- START -->
<g id="node1" class="node">
<title>START</title>
<polygon fill="#333333" stroke="#333333" points="953.195,-1641 894.489,-1623 953.195,-1605 1011.901,-1623 953.195,-1641"/>
<polyline fill="none" stroke="#333333" points="905.9618,-1626.5177 905.9618,-1619.4823 "/>
<polyline fill="none" stroke="#333333" points="941.7222,-1608.5177 964.6678,-1608.5177 "/>
<polyline fill="none" stroke="#333333" points="1000.4282,-1619.4823 1000.4282,-1626.5177 "/>
<polyline fill="none" stroke="#333333" points="964.6678,-1637.4823 941.7222,-1637.4823 "/>
<text text-anchor="middle" x="953.195" y="-1618.8" font-family="lato, roboto, helvetica" font-size="14.00" fill="#dddddd">START</text>
</g>
<!-- betaal_twee_geldstukken -->
<g id="node4" class="node">
<title>betaal_twee_geldstukken</title>
<path fill="#008800" stroke="#008800" d="M884.8892,-1532.5C884.8892,-1532.5 1021.5008,-1532.5 1021.5008,-1532.5 1027.5008,-1532.5 1033.5008,-1538.5 1033.5008,-1544.5 1033.5008,-1544.5 1033.5008,-1556.5 1033.5008,-1556.5 1033.5008,-1562.5 1027.5008,-1568.5 1021.5008,-1568.5 1021.5008,-1568.5 884.8892,-1568.5 884.8892,-1568.5 878.8892,-1568.5 872.8892,-1562.5 872.8892,-1556.5 872.8892,-1556.5 872.8892,-1544.5 872.8892,-1544.5 872.8892,-1538.5 878.8892,-1532.5 884.8892,-1532.5"/>
<text text-anchor="middle" x="953.195" y="-1546.3" font-family="lato, roboto, helvetica" font-size="14.00" fill="#eeeeee">Betaal Twee Geldstukken</text>
</g>
<!-- START&#45;&gt;betaal_twee_geldstukken -->
<g id="edge2" class="edge">
<title>START&#45;&gt;betaal_twee_geldstukken</title>
<path fill="none" stroke="#999999" d="M953.195,-1604.7052C953.195,-1596.2264 953.195,-1585.9943 953.195,-1576.7146"/>
<polygon fill="#999999" stroke="#999999" points="955.9951,-1576.5378 953.195,-1568.5378 950.3951,-1576.5378 955.9951,-1576.5378"/>
</g>
<!-- praat_met_bakker -->
<g id="node22" class="node">
<title>praat_met_bakker</title>
<path fill="#008800" stroke="#008800" d="M799.8254,-875.5C799.8254,-875.5 890.5646,-875.5 890.5646,-875.5 896.5646,-875.5 902.5646,-881.5 902.5646,-887.5 902.5646,-887.5 902.5646,-899.5 902.5646,-899.5 902.5646,-905.5 896.5646,-911.5 890.5646,-911.5 890.5646,-911.5 799.8254,-911.5 799.8254,-911.5 793.8254,-911.5 787.8254,-905.5 787.8254,-899.5 787.8254,-899.5 787.8254,-887.5 787.8254,-887.5 787.8254,-881.5 793.8254,-875.5 799.8254,-875.5"/>
<text text-anchor="middle" x="845.195" y="-889.3" font-family="lato, roboto, helvetica" font-size="14.00" fill="#eeeeee">Praat Met Bakker</text>
</g>
<!-- START&#45;&gt;praat_met_bakker -->
<g id="edge59" class="edge">
<title>START&#45;&gt;praat_met_bakker</title>
<path fill="none" stroke="#999999" d="M925.6185,-1613.2414C905.4953,-1604.6844 879.2123,-1590.2554 864.195,-1569 840.2285,-1535.0781 845.195,-1519.0342 845.195,-1477.5 845.195,-1477.5 845.195,-1477.5 845.195,-1039.5 845.195,-997.7434 845.195,-949.2692 845.195,-920.0145"/>
<polygon fill="#999999" stroke="#999999" points="847.9951,-919.9379 845.195,-911.938 842.3951,-919.938 847.9951,-919.9379"/>
</g>
<!-- praat_met_dwerg -->
<g id="node24" class="node">
<title>praat_met_dwerg</title>
<path fill="#008800" stroke="#008800" d="M716.9944,-1532.5C716.9944,-1532.5 805.3956,-1532.5 805.3956,-1532.5 811.3956,-1532.5 817.3956,-1538.5 817.3956,-1544.5 817.3956,-1544.5 817.3956,-1556.5 817.3956,-1556.5 817.3956,-1562.5 811.3956,-1568.5 805.3956,-1568.5 805.3956,-1568.5 716.9944,-1568.5 716.9944,-1568.5 710.9944,-1568.5 704.9944,-1562.5 704.9944,-1556.5 704.9944,-1556.5 704.9944,-1544.5 704.9944,-1544.5 704.9944,-1538.5 710.9944,-1532.5 716.9944,-1532.5"/>
<text text-anchor="middle" x="761.195" y="-1546.3" font-family="lato, roboto, helvetica" font-size="14.00" fill="#eeeeee">Praat Met Dwerg</text>
</g>
<!-- START&#45;&gt;praat_met_dwerg -->
<g id="edge62" class="edge">
<title>START&#45;&gt;praat_met_dwerg</title>
<path fill="none" stroke="#999999" d="M926.4982,-1612.9192C898.2162,-1602.2398 852.7511,-1585.072 816.654,-1571.4416"/>
<polygon fill="#999999" stroke="#999999" points="817.5764,-1568.7969 809.1031,-1568.5903 815.5981,-1574.0359 817.5764,-1568.7969"/>
</g>
<!-- praat_met_molenaar -->
<g id="node33" class="node">
<title>praat_met_molenaar</title>
<path fill="#3333aa" stroke="#3333aa" d="M1247.2188,-1313.5C1247.2188,-1313.5 1351.1712,-1313.5 1351.1712,-1313.5 1357.1712,-1313.5 1363.1712,-1319.5 1363.1712,-1325.5 1363.1712,-1325.5 1363.1712,-1337.5 1363.1712,-1337.5 1363.1712,-1343.5 1357.1712,-1349.5 1351.1712,-1349.5 1351.1712,-1349.5 1247.2188,-1349.5 1247.2188,-1349.5 1241.2188,-1349.5 1235.2188,-1343.5 1235.2188,-1337.5 1235.2188,-1337.5 1235.2188,-1325.5 1235.2188,-1325.5 1235.2188,-1319.5 1241.2188,-1313.5 1247.2188,-1313.5"/>
<text text-anchor="middle" x="1299.195" y="-1327.3" font-family="lato, roboto, helvetica" font-size="14.00" fill="#eeeeee">Praat Met Molenaar</text>
</g>
<!-- START&#45;&gt;praat_met_molenaar -->
<g id="edge64" class="edge">
<title>START&#45;&gt;praat_met_molenaar</title>
<path fill="none" stroke="#999999" d="M986.5156,-1615.0956C1011.8469,-1607.4129 1045.7219,-1593.2607 1066.195,-1569 1120.7257,-1504.3809 1058.8755,-1446.2531 1118.195,-1386 1122.32,-1381.8101 1178.5653,-1365.2274 1227.2746,-1351.4426"/>
<polygon fill="#999999" stroke="#999999" points="1228.0799,-1354.1248 1235.0182,-1349.2566 1226.5584,-1348.7354 1228.0799,-1354.1248"/>
</g>
<!-- pak_touw_op_boerderij -->
<g id="node37" class="node">
<title>pak_touw_op_boerderij</title>
<path fill="#3333aa" stroke="#3333aa" d="M1369.1294,-510.5C1369.1294,-510.5 1495.2606,-510.5 1495.2606,-510.5 1501.2606,-510.5 1507.2606,-516.5 1507.2606,-522.5 1507.2606,-522.5 1507.2606,-534.5 1507.2606,-534.5 1507.2606,-540.5 1501.2606,-546.5 1495.2606,-546.5 1495.2606,-546.5 1369.1294,-546.5 1369.1294,-546.5 1363.1294,-546.5 1357.1294,-540.5 1357.1294,-534.5 1357.1294,-534.5 1357.1294,-522.5 1357.1294,-522.5 1357.1294,-516.5 1363.1294,-510.5 1369.1294,-510.5"/>
<text text-anchor="middle" x="1432.195" y="-524.3" font-family="lato, roboto, helvetica" font-size="14.00" fill="#eeeeee">Pak Touw Op Boerderij</text>
</g>
<!-- START&#45;&gt;pak_touw_op_boerderij -->
<g id="edge56" class="edge">
<title>START&#45;&gt;pak_touw_op_boerderij</title>
<path fill="none" stroke="#999999" d="M1003.4886,-1620.3372C1137.2321,-1612.9838 1494.7899,-1591.4502 1543.195,-1569 1595.7974,-1544.6031 1636.195,-1535.4847 1636.195,-1477.5 1636.195,-1477.5 1636.195,-1477.5 1636.195,-674.5 1636.195,-609.1648 1566.1435,-570.2669 1508.1401,-549.2574"/>
<polygon fill="#999999" stroke="#999999" points="1508.8835,-546.5508 1500.4077,-546.535 1507.0237,-551.8329 1508.8835,-546.5508"/>
</g>
<!-- praat_met_smidsen -->
<g id="node53" class="node">
<title>praat_met_smidsen</title>
<path fill="#3333aa" stroke="#3333aa" d="M328.9271,-1532.5C328.9271,-1532.5 427.4629,-1532.5 427.4629,-1532.5 433.4629,-1532.5 439.4629,-1538.5 439.4629,-1544.5 439.4629,-1544.5 439.4629,-1556.5 439.4629,-1556.5 439.4629,-1562.5 433.4629,-1568.5 427.4629,-1568.5 427.4629,-1568.5 328.9271,-1568.5 328.9271,-1568.5 322.9271,-1568.5 316.9271,-1562.5 316.9271,-1556.5 316.9271,-1556.5 316.9271,-1544.5 316.9271,-1544.5 316.9271,-1538.5 322.9271,-1532.5 328.9271,-1532.5"/>
<text text-anchor="middle" x="378.195" y="-1546.3" font-family="lato, roboto, helvetica" font-size="14.00" fill="#eeeeee">Praat Met Smidsen</text>
</g>
<!-- START&#45;&gt;praat_met_smidsen -->
<g id="edge65" class="edge">
<title>START&#45;&gt;praat_met_smidsen</title>
<path fill="none" stroke="#999999" d="M911.3792,-1617.7276C813.486,-1605.3845 568.5999,-1574.5076 447.8051,-1559.2769"/>
<polygon fill="#999999" stroke="#999999" points="447.9659,-1556.4751 439.6784,-1558.2523 447.2653,-1562.0311 447.9659,-1556.4751"/>
</g>
<!-- pak_hout_in_bos -->
<g id="node56" class="node">
<title>pak_hout_in_bos</title>
<path fill="#008800" stroke="#008800" d="M408.7269,-1459.5C408.7269,-1459.5 493.6631,-1459.5 493.6631,-1459.5 499.6631,-1459.5 505.6631,-1465.5 505.6631,-1471.5 505.6631,-1471.5 505.6631,-1483.5 505.6631,-1483.5 505.6631,-1489.5 499.6631,-1495.5 493.6631,-1495.5 493.6631,-1495.5 408.7269,-1495.5 408.7269,-1495.5 402.7269,-1495.5 396.7269,-1489.5 396.7269,-1483.5 396.7269,-1483.5 396.7269,-1471.5 396.7269,-1471.5 396.7269,-1465.5 402.7269,-1459.5 408.7269,-1459.5"/>
<text text-anchor="middle" x="451.195" y="-1473.3" font-family="lato, roboto, helvetica" font-size="14.00" fill="#eeeeee">Pak Hout In Bos</text>
</g>
<!-- START&#45;&gt;pak_hout_in_bos -->
<g id="edge53" class="edge">
<title>START&#45;&gt;pak_hout_in_bos</title>
<path fill="none" stroke="#999999" d="M914.4342,-1616.7293C863.7327,-1608.102 772.3863,-1591.0962 696.195,-1569 627.2756,-1549.0127 550.0742,-1518.8302 501.0845,-1498.6587"/>
<polygon fill="#999999" stroke="#999999" points="501.9327,-1495.9795 493.4698,-1495.5103 499.793,-1501.1546 501.9327,-1495.9795"/>
</g>
<!-- praat_met_boer -->
<g id="node57" class="node">
<title>praat_met_boer</title>
<path fill="#008800" stroke="#008800" d="M1444.4327,-1532.5C1444.4327,-1532.5 1521.9573,-1532.5 1521.9573,-1532.5 1527.9573,-1532.5 1533.9573,-1538.5 1533.9573,-1544.5 1533.9573,-1544.5 1533.9573,-1556.5 1533.9573,-1556.5 1533.9573,-1562.5 1527.9573,-1568.5 1521.9573,-1568.5 1521.9573,-1568.5 1444.4327,-1568.5 1444.4327,-1568.5 1438.4327,-1568.5 1432.4327,-1562.5 1432.4327,-1556.5 1432.4327,-1556.5 1432.4327,-1544.5 1432.4327,-1544.5 1432.4327,-1538.5 1438.4327,-1532.5 1444.4327,-1532.5"/>
<text text-anchor="middle" x="1483.195" y="-1546.3" font-family="lato, roboto, helvetica" font-size="14.00" fill="#eeeeee">Praat Met Boer</text>
</g>
<!-- START&#45;&gt;praat_met_boer -->
<g id="edge60" class="edge">
<title>START&#45;&gt;praat_met_boer</title>
<path fill="none" stroke="#999999" d="M993.9032,-1617.4314C1086.9818,-1604.699 1315.665,-1573.4168 1424.1923,-1558.5711"/>
<polygon fill="#999999" stroke="#999999" points="1424.8785,-1561.3034 1432.4252,-1557.4449 1424.1195,-1555.7551 1424.8785,-1561.3034"/>
</g>
<!-- vind_onderbroek_bij_rivier -->
<g id="node58" class="node">
<title>vind_onderbroek_bij_rivier</title>
<path fill="#3333aa" stroke="#3333aa" d="M1055.4625,-1313.5C1055.4625,-1313.5 1204.9275,-1313.5 1204.9275,-1313.5 1210.9275,-1313.5 1216.9275,-1319.5 1216.9275,-1325.5 1216.9275,-1325.5 1216.9275,-1337.5 1216.9275,-1337.5 1216.9275,-1343.5 1210.9275,-1349.5 1204.9275,-1349.5 1204.9275,-1349.5 1055.4625,-1349.5 1055.4625,-1349.5 1049.4625,-1349.5 1043.4625,-1343.5 1043.4625,-1337.5 1043.4625,-1337.5 1043.4625,-1325.5 1043.4625,-1325.5 1043.4625,-1319.5 1049.4625,-1313.5 1055.4625,-1313.5"/>
<text text-anchor="middle" x="1130.195" y="-1327.3" font-family="lato, roboto, helvetica" font-size="14.00" fill="#eeeeee">Vind Onderbroek Bij Rivier</text>
</g>
<!-- START&#45;&gt;vind_onderbroek_bij_rivier -->
<g id="edge78" class="edge">
<title>START&#45;&gt;vind_onderbroek_bij_rivier</title>
<path fill="none" stroke="#999999" d="M980.6133,-1613.1281C1000.6536,-1604.5117 1026.9021,-1590.058 1042.195,-1569 1091.2895,-1501.3976 1048.0666,-1460.8453 1085.195,-1386 1090.5482,-1375.2088 1098.4133,-1364.6793 1106.0766,-1355.7978"/>
<polygon fill="#999999" stroke="#999999" points="1108.3362,-1357.4715 1111.5822,-1349.6418 1104.162,-1353.7383 1108.3362,-1357.4715"/>
</g>
<!-- beklim_toren -->
<g id="node2" class="node">
<title>beklim_toren</title>
<path fill="#3333aa" stroke="#3333aa" d="M1133.1196,-729.5C1133.1196,-729.5 1203.2704,-729.5 1203.2704,-729.5 1209.2704,-729.5 1215.2704,-735.5 1215.2704,-741.5 1215.2704,-741.5 1215.2704,-753.5 1215.2704,-753.5 1215.2704,-759.5 1209.2704,-765.5 1203.2704,-765.5 1203.2704,-765.5 1133.1196,-765.5 1133.1196,-765.5 1127.1196,-765.5 1121.1196,-759.5 1121.1196,-753.5 1121.1196,-753.5 1121.1196,-741.5 1121.1196,-741.5 1121.1196,-735.5 1127.1196,-729.5 1133.1196,-729.5"/>
<text text-anchor="middle" x="1168.195" y="-743.3" font-family="lato, roboto, helvetica" font-size="14.00" fill="#eeeeee">Beklim Toren</text>
</g>
<!-- praat_met_dochter_van_bakker -->
<g id="node54" class="node">
<title>praat_met_dochter_van_bakker</title>
<path fill="#3333aa" stroke="#3333aa" d="M1127.1213,-656.5C1127.1213,-656.5 1293.2687,-656.5 1293.2687,-656.5 1299.2687,-656.5 1305.2687,-662.5 1305.2687,-668.5 1305.2687,-668.5 1305.2687,-680.5 1305.2687,-680.5 1305.2687,-686.5 1299.2687,-692.5 1293.2687,-692.5 1293.2687,-692.5 1127.1213,-692.5 1127.1213,-692.5 1121.1213,-692.5 1115.1213,-686.5 1115.1213,-680.5 1115.1213,-680.5 1115.1213,-668.5 1115.1213,-668.5 1115.1213,-662.5 1121.1213,-656.5 1127.1213,-656.5"/>
<text text-anchor="middle" x="1210.195" y="-670.3" font-family="lato, roboto, helvetica" font-size="14.00" fill="#eeeeee">Praat Met Dochter Van Bakker</text>
</g>
<!-- beklim_toren&#45;&gt;praat_met_dochter_van_bakker -->
<g id="edge61" class="edge">
<title>beklim_toren&#45;&gt;praat_met_dochter_van_bakker</title>
<path fill="none" stroke="#999999" d="M1178.577,-729.4551C1183.7261,-720.5054 1190.031,-709.547 1195.6521,-699.7769"/>
<polygon fill="#999999" stroke="#999999" points="1198.2242,-700.921 1199.7868,-692.5904 1193.3703,-698.1282 1198.2242,-700.921"/>
</g>
<!-- koop_zwaard_voor_99_bij_wapensmid -->
<g id="node3" class="node">
<title>koop_zwaard_voor_99_bij_wapensmid</title>
<path fill="#3333aa" stroke="#3333aa" d="M1055.1399,-802.5C1055.1399,-802.5 1265.2501,-802.5 1265.2501,-802.5 1271.2501,-802.5 1277.2501,-808.5 1277.2501,-814.5 1277.2501,-814.5 1277.2501,-826.5 1277.2501,-826.5 1277.2501,-832.5 1271.2501,-838.5 1265.2501,-838.5 1265.2501,-838.5 1055.1399,-838.5 1055.1399,-838.5 1049.1399,-838.5 1043.1399,-832.5 1043.1399,-826.5 1043.1399,-826.5 1043.1399,-814.5 1043.1399,-814.5 1043.1399,-808.5 1049.1399,-802.5 1055.1399,-802.5"/>
<text text-anchor="middle" x="1160.195" y="-816.3" font-family="lato, roboto, helvetica" font-size="14.00" fill="#eeeeee">Koop Zwaard Voor 99 Bij Wapensmid</text>
</g>
<!-- koop_zwaard_voor_99_bij_wapensmid&#45;&gt;beklim_toren -->
<g id="edge1" class="edge">
<title>koop_zwaard_voor_99_bij_wapensmid&#45;&gt;beklim_toren</title>
<path fill="none" stroke="#999999" d="M1162.1725,-802.4551C1163.1245,-793.7686 1164.2838,-783.1898 1165.3301,-773.642"/>
<polygon fill="#999999" stroke="#999999" points="1168.1242,-773.8478 1166.2125,-765.5904 1162.5576,-773.2377 1168.1242,-773.8478"/>
</g>
<!-- snij_touw_van_lift -->
<g id="node60" class="node">
<title>snij_touw_van_lift</title>
<path fill="#3333aa" stroke="#3333aa" d="M1074.1757,-364.5C1074.1757,-364.5 1176.2143,-364.5 1176.2143,-364.5 1182.2143,-364.5 1188.2143,-370.5 1188.2143,-376.5 1188.2143,-376.5 1188.2143,-388.5 1188.2143,-388.5 1188.2143,-394.5 1182.2143,-400.5 1176.2143,-400.5 1176.2143,-400.5 1074.1757,-400.5 1074.1757,-400.5 1068.1757,-400.5 1062.1757,-394.5 1062.1757,-388.5 1062.1757,-388.5 1062.1757,-376.5 1062.1757,-376.5 1062.1757,-370.5 1068.1757,-364.5 1074.1757,-364.5"/>
<text text-anchor="middle" x="1125.195" y="-378.3" font-family="lato, roboto, helvetica" font-size="14.00" fill="#eeeeee">Snij Touw Van Lift</text>
</g>
<!-- koop_zwaard_voor_99_bij_wapensmid&#45;&gt;snij_touw_van_lift -->
<g id="edge71" class="edge">
<title>koop_zwaard_voor_99_bij_wapensmid&#45;&gt;snij_touw_van_lift</title>
<path fill="none" stroke="#999999" d="M1140.508,-802.465C1130.7373,-792.5526 1119.4938,-779.5403 1112.195,-766 1092.1916,-728.8907 1087.195,-716.6573 1087.195,-674.5 1087.195,-674.5 1087.195,-674.5 1087.195,-528.5 1087.195,-485.1671 1103.0663,-436.8645 1114.2946,-408.1145"/>
<polygon fill="#999999" stroke="#999999" points="1116.9511,-409.0122 1117.3214,-400.5444 1111.7514,-406.9331 1116.9511,-409.0122"/>
</g>
<!-- _0 -->
<g id="node6" class="node">
<title>_0</title>
<polygon fill="#888888" stroke="#888888" points="1003.195,-1495.5 973.1683,-1477.5 1003.195,-1459.5 1033.2217,-1477.5 1003.195,-1495.5"/>
<polyline fill="none" stroke="#888888" points="983.1772,-1483.5 983.1772,-1471.5 "/>
<polyline fill="none" stroke="#888888" points="993.1861,-1465.5 1013.2039,-1465.5 "/>
<polyline fill="none" stroke="#888888" points="1023.2128,-1471.5 1023.2128,-1483.5 "/>
<polyline fill="none" stroke="#888888" points="1013.2039,-1489.5 993.1861,-1489.5 "/>
<text text-anchor="middle" x="1003.195" y="-1473.3" font-family="lato, roboto, helvetica" font-size="14.00" fill="#eeeeee">Or</text>
</g>
<!-- betaal_twee_geldstukken&#45;&gt;_0 -->
<g id="edge4" class="edge">
<title>betaal_twee_geldstukken&#45;&gt;_0</title>
<path fill="none" stroke="#999999" stroke-dasharray="5,2" d="M965.5546,-1532.4551C972.8611,-1521.7875 982.1224,-1508.266 989.63,-1497.3048"/>
<polygon fill="#999999" stroke="#999999" points="992.0616,-1498.7098 994.2722,-1490.5273 987.4414,-1495.5453 992.0616,-1498.7098"/>
</g>
<!-- _1 -->
<g id="node39" class="node">
<title>_1</title>
<polygon fill="#888888" stroke="#888888" points="957.195,-838.5 927.1683,-820.5 957.195,-802.5 987.2217,-820.5 957.195,-838.5"/>
<polyline fill="none" stroke="#888888" points="937.1772,-826.5 937.1772,-814.5 "/>
<polyline fill="none" stroke="#888888" points="947.1861,-808.5 967.2039,-808.5 "/>
<polyline fill="none" stroke="#888888" points="977.2128,-814.5 977.2128,-826.5 "/>
<polyline fill="none" stroke="#888888" points="967.2039,-832.5 947.1861,-832.5 "/>
<text text-anchor="middle" x="957.195" y="-816.3" font-family="lato, roboto, helvetica" font-size="14.00" fill="#eeeeee">Or</text>
</g>
<!-- betaal_twee_geldstukken&#45;&gt;_1 -->
<g id="edge28" class="edge">
<title>betaal_twee_geldstukken&#45;&gt;_1</title>
<path fill="none" stroke="#999999" stroke-dasharray="5,2" d="M951.5374,-1532.0798C949.1941,-1504.4066 945.195,-1450.4473 945.195,-1404.5 945.195,-1404.5 945.195,-1404.5 945.195,-966.5 945.195,-923.9082 950.3303,-874.5614 953.8822,-845.5245"/>
<polygon fill="#999999" stroke="#999999" points="956.6656,-845.8312 954.8813,-837.5453 951.109,-845.1354 956.6656,-845.8312"/>
</g>
<!-- betaal_twee_goudstukken_aan_hoefsmid -->
<g id="node5" class="node">
<title>betaal_twee_goudstukken_aan_hoefsmid</title>
<path fill="#3333aa" stroke="#3333aa" d="M1139.1774,-1386.5C1139.1774,-1386.5 1365.2126,-1386.5 1365.2126,-1386.5 1371.2126,-1386.5 1377.2126,-1392.5 1377.2126,-1398.5 1377.2126,-1398.5 1377.2126,-1410.5 1377.2126,-1410.5 1377.2126,-1416.5 1371.2126,-1422.5 1365.2126,-1422.5 1365.2126,-1422.5 1139.1774,-1422.5 1139.1774,-1422.5 1133.1774,-1422.5 1127.1774,-1416.5 1127.1774,-1410.5 1127.1774,-1410.5 1127.1774,-1398.5 1127.1774,-1398.5 1127.1774,-1392.5 1133.1774,-1386.5 1139.1774,-1386.5"/>
<text text-anchor="middle" x="1252.195" y="-1400.3" font-family="lato, roboto, helvetica" font-size="14.00" fill="#eeeeee">Betaal Twee Goudstukken Aan Hoefsmid</text>
</g>
<!-- geef_paard_nieuwe_hoefijzers -->
<g id="node28" class="node">
<title>geef_paard_nieuwe_hoefijzers</title>
<path fill="#3333aa" stroke="#3333aa" d="M1393.4954,-1313.5C1393.4954,-1313.5 1556.8946,-1313.5 1556.8946,-1313.5 1562.8946,-1313.5 1568.8946,-1319.5 1568.8946,-1325.5 1568.8946,-1325.5 1568.8946,-1337.5 1568.8946,-1337.5 1568.8946,-1343.5 1562.8946,-1349.5 1556.8946,-1349.5 1556.8946,-1349.5 1393.4954,-1349.5 1393.4954,-1349.5 1387.4954,-1349.5 1381.4954,-1343.5 1381.4954,-1337.5 1381.4954,-1337.5 1381.4954,-1325.5 1381.4954,-1325.5 1381.4954,-1319.5 1387.4954,-1313.5 1393.4954,-1313.5"/>
<text text-anchor="middle" x="1475.195" y="-1327.3" font-family="lato, roboto, helvetica" font-size="14.00" fill="#eeeeee">Geef Paard Nieuwe Hoefijzers</text>
</g>
<!-- betaal_twee_goudstukken_aan_hoefsmid&#45;&gt;geef_paard_nieuwe_hoefijzers -->
<g id="edge18" class="edge">
<title>betaal_twee_goudstukken_aan_hoefsmid&#45;&gt;geef_paard_nieuwe_hoefijzers</title>
<path fill="none" stroke="#999999" d="M1307.3186,-1386.4551C1339.0804,-1376.0577 1379.1247,-1362.949 1412.1366,-1352.1424"/>
<polygon fill="#999999" stroke="#999999" points="1413.2008,-1354.7403 1419.9327,-1349.5904 1411.4585,-1349.4182 1413.2008,-1354.7403"/>
</g>
<!-- _0&#45;&gt;betaal_twee_goudstukken_aan_hoefsmid -->
<g id="edge3" class="edge">
<title>_0&#45;&gt;betaal_twee_goudstukken_aan_hoefsmid</title>
<path fill="none" stroke="#999999" d="M1023.5717,-1471.5261C1057.9456,-1461.4486 1128.9662,-1440.6273 1182.7841,-1424.8494"/>
<polygon fill="#999999" stroke="#999999" points="1183.7041,-1427.4976 1190.5932,-1422.56 1182.1286,-1422.1238 1183.7041,-1427.4976"/>
</g>
<!-- krijg_geldstuk_van_smid -->
<g id="node7" class="node">
<title>krijg_geldstuk_van_smid</title>
<path fill="#3333aa" stroke="#3333aa" d="M903.4548,-437.5C903.4548,-437.5 1038.9352,-437.5 1038.9352,-437.5 1044.9352,-437.5 1050.9352,-443.5 1050.9352,-449.5 1050.9352,-449.5 1050.9352,-461.5 1050.9352,-461.5 1050.9352,-467.5 1044.9352,-473.5 1038.9352,-473.5 1038.9352,-473.5 903.4548,-473.5 903.4548,-473.5 897.4548,-473.5 891.4548,-467.5 891.4548,-461.5 891.4548,-461.5 891.4548,-449.5 891.4548,-449.5 891.4548,-443.5 897.4548,-437.5 903.4548,-437.5"/>
<text text-anchor="middle" x="971.195" y="-451.3" font-family="lato, roboto, helvetica" font-size="14.00" fill="#eeeeee">Krijg Geldstuk Van Smid</text>
</g>
<!-- krijg_geldstuk_van_smid&#45;&gt;_0 -->
<g id="edge5" class="edge">
<title>krijg_geldstuk_van_smid&#45;&gt;_0</title>
<path fill="none" stroke="#999999" stroke-dasharray="5,2" d="M980.5263,-473.8635C993.4421,-501.0265 1015.195,-553.8481 1015.195,-601.5 1015.195,-1331.5 1015.195,-1331.5 1015.195,-1331.5 1015.195,-1374.0918 1010.0597,-1423.4386 1006.5078,-1452.4755"/>
<polygon fill="#999999" stroke="#999999" points="1003.7244,-1452.1688 1005.5087,-1460.4547 1009.281,-1452.8646 1003.7244,-1452.1688"/>
</g>
<!-- bezorg_graan_bij_molenaar -->
<g id="node8" class="node">
<title>bezorg_graan_bij_molenaar</title>
<path fill="#3333aa" stroke="#3333aa" d="M1258.2549,-1094.5C1258.2549,-1094.5 1406.1351,-1094.5 1406.1351,-1094.5 1412.1351,-1094.5 1418.1351,-1100.5 1418.1351,-1106.5 1418.1351,-1106.5 1418.1351,-1118.5 1418.1351,-1118.5 1418.1351,-1124.5 1412.1351,-1130.5 1406.1351,-1130.5 1406.1351,-1130.5 1258.2549,-1130.5 1258.2549,-1130.5 1252.2549,-1130.5 1246.2549,-1124.5 1246.2549,-1118.5 1246.2549,-1118.5 1246.2549,-1106.5 1246.2549,-1106.5 1246.2549,-1100.5 1252.2549,-1094.5 1258.2549,-1094.5"/>
<text text-anchor="middle" x="1332.195" y="-1108.3" font-family="lato, roboto, helvetica" font-size="14.00" fill="#eeeeee">Bezorg Graan Bij Molenaar</text>
</g>
<!-- krijg_meel_bij_molenaar -->
<g id="node11" class="node">
<title>krijg_meel_bij_molenaar</title>
<path fill="#3333aa" stroke="#3333aa" d="M1250.4099,-1021.5C1250.4099,-1021.5 1381.9801,-1021.5 1381.9801,-1021.5 1387.9801,-1021.5 1393.9801,-1027.5 1393.9801,-1033.5 1393.9801,-1033.5 1393.9801,-1045.5 1393.9801,-1045.5 1393.9801,-1051.5 1387.9801,-1057.5 1381.9801,-1057.5 1381.9801,-1057.5 1250.4099,-1057.5 1250.4099,-1057.5 1244.4099,-1057.5 1238.4099,-1051.5 1238.4099,-1045.5 1238.4099,-1045.5 1238.4099,-1033.5 1238.4099,-1033.5 1238.4099,-1027.5 1244.4099,-1021.5 1250.4099,-1021.5"/>
<text text-anchor="middle" x="1316.195" y="-1035.3" font-family="lato, roboto, helvetica" font-size="14.00" fill="#eeeeee">Krijg Meel Bij Molenaar</text>
</g>
<!-- bezorg_graan_bij_molenaar&#45;&gt;krijg_meel_bij_molenaar -->
<g id="edge43" class="edge">
<title>bezorg_graan_bij_molenaar&#45;&gt;krijg_meel_bij_molenaar</title>
<path fill="none" stroke="#999999" d="M1328.2399,-1094.4551C1326.3361,-1085.7686 1324.0174,-1075.1898 1321.9248,-1065.642"/>
<polygon fill="#999999" stroke="#999999" points="1324.6079,-1064.8054 1320.16,-1057.5904 1319.1378,-1066.0044 1324.6079,-1064.8054"/>
</g>
<!-- zet_graan_op_wagen -->
<g id="node9" class="node">
<title>zet_graan_op_wagen</title>
<path fill="#3333aa" stroke="#3333aa" d="M1370.1427,-1167.5C1370.1427,-1167.5 1482.2473,-1167.5 1482.2473,-1167.5 1488.2473,-1167.5 1494.2473,-1173.5 1494.2473,-1179.5 1494.2473,-1179.5 1494.2473,-1191.5 1494.2473,-1191.5 1494.2473,-1197.5 1488.2473,-1203.5 1482.2473,-1203.5 1482.2473,-1203.5 1370.1427,-1203.5 1370.1427,-1203.5 1364.1427,-1203.5 1358.1427,-1197.5 1358.1427,-1191.5 1358.1427,-1191.5 1358.1427,-1179.5 1358.1427,-1179.5 1358.1427,-1173.5 1364.1427,-1167.5 1370.1427,-1167.5"/>
<text text-anchor="middle" x="1426.195" y="-1181.3" font-family="lato, roboto, helvetica" font-size="14.00" fill="#eeeeee">Zet Graan Op Wagen</text>
</g>
<!-- zet_graan_op_wagen&#45;&gt;bezorg_graan_bij_molenaar -->
<g id="edge6" class="edge">
<title>zet_graan_op_wagen&#45;&gt;bezorg_graan_bij_molenaar</title>
<path fill="none" stroke="#999999" d="M1402.959,-1167.4551C1390.531,-1157.8035 1375.0946,-1145.8156 1361.8135,-1135.5016"/>
<polygon fill="#999999" stroke="#999999" points="1363.5253,-1133.2858 1355.4894,-1130.5904 1360.0905,-1137.7087 1363.5253,-1133.2858"/>
</g>
<!-- bezorg_meel_bij_bakker -->
<g id="node10" class="node">
<title>bezorg_meel_bij_bakker</title>
<path fill="#3333aa" stroke="#3333aa" d="M1251.5775,-948.5C1251.5775,-948.5 1380.8125,-948.5 1380.8125,-948.5 1386.8125,-948.5 1392.8125,-954.5 1392.8125,-960.5 1392.8125,-960.5 1392.8125,-972.5 1392.8125,-972.5 1392.8125,-978.5 1386.8125,-984.5 1380.8125,-984.5 1380.8125,-984.5 1251.5775,-984.5 1251.5775,-984.5 1245.5775,-984.5 1239.5775,-978.5 1239.5775,-972.5 1239.5775,-972.5 1239.5775,-960.5 1239.5775,-960.5 1239.5775,-954.5 1245.5775,-948.5 1251.5775,-948.5"/>
<text text-anchor="middle" x="1316.195" y="-962.3" font-family="lato, roboto, helvetica" font-size="14.00" fill="#eeeeee">Bezorg Meel Bij Bakker</text>
</g>
<!-- zet_molensteen_op_wagen -->
<g id="node18" class="node">
<title>zet_molensteen_op_wagen</title>
<path fill="#3333aa" stroke="#3333aa" d="M1261.5838,-875.5C1261.5838,-875.5 1404.8062,-875.5 1404.8062,-875.5 1410.8062,-875.5 1416.8062,-881.5 1416.8062,-887.5 1416.8062,-887.5 1416.8062,-899.5 1416.8062,-899.5 1416.8062,-905.5 1410.8062,-911.5 1404.8062,-911.5 1404.8062,-911.5 1261.5838,-911.5 1261.5838,-911.5 1255.5838,-911.5 1249.5838,-905.5 1249.5838,-899.5 1249.5838,-899.5 1249.5838,-887.5 1249.5838,-887.5 1249.5838,-881.5 1255.5838,-875.5 1261.5838,-875.5"/>
<text text-anchor="middle" x="1333.195" y="-889.3" font-family="lato, roboto, helvetica" font-size="14.00" fill="#eeeeee">Zet Molensteen Op Wagen</text>
</g>
<!-- bezorg_meel_bij_bakker&#45;&gt;zet_molensteen_op_wagen -->
<g id="edge84" class="edge">
<title>bezorg_meel_bij_bakker&#45;&gt;zet_molensteen_op_wagen</title>
<path fill="none" stroke="#999999" d="M1320.3972,-948.4551C1322.4201,-939.7686 1324.8837,-929.1898 1327.1071,-919.642"/>
<polygon fill="#999999" stroke="#999999" points="1329.8947,-920.017 1328.9822,-911.5904 1324.4406,-918.7468 1329.8947,-920.017"/>
</g>
<!-- krijg_100_geld_van_meel -->
<g id="node40" class="node">
<title>krijg_100_geld_van_meel</title>
<path fill="#3333aa" stroke="#3333aa" d="M1083.2721,-875.5C1083.2721,-875.5 1219.1179,-875.5 1219.1179,-875.5 1225.1179,-875.5 1231.1179,-881.5 1231.1179,-887.5 1231.1179,-887.5 1231.1179,-899.5 1231.1179,-899.5 1231.1179,-905.5 1225.1179,-911.5 1219.1179,-911.5 1219.1179,-911.5 1083.2721,-911.5 1083.2721,-911.5 1077.2721,-911.5 1071.2721,-905.5 1071.2721,-899.5 1071.2721,-899.5 1071.2721,-887.5 1071.2721,-887.5 1071.2721,-881.5 1077.2721,-875.5 1083.2721,-875.5"/>
<text text-anchor="middle" x="1151.195" y="-889.3" font-family="lato, roboto, helvetica" font-size="14.00" fill="#eeeeee">Krijg 100 Geld Van Meel</text>
</g>
<!-- bezorg_meel_bij_bakker&#45;&gt;krijg_100_geld_van_meel -->
<g id="edge32" class="edge">
<title>bezorg_meel_bij_bakker&#45;&gt;krijg_100_geld_van_meel</title>
<path fill="none" stroke="#999999" d="M1275.4085,-948.4551C1252.4034,-938.277 1223.5258,-925.5009 1199.4054,-914.8294"/>
<polygon fill="#999999" stroke="#999999" points="1200.533,-912.2666 1192.0842,-911.5904 1198.2673,-917.3878 1200.533,-912.2666"/>
</g>
<!-- krijg_meel_bij_molenaar&#45;&gt;bezorg_meel_bij_bakker -->
<g id="edge7" class="edge">
<title>krijg_meel_bij_molenaar&#45;&gt;bezorg_meel_bij_bakker</title>
<path fill="none" stroke="#999999" d="M1316.195,-1021.4551C1316.195,-1012.7686 1316.195,-1002.1898 1316.195,-992.642"/>
<polygon fill="#999999" stroke="#999999" points="1318.9951,-992.5903 1316.195,-984.5904 1313.3951,-992.5904 1318.9951,-992.5903"/>
</g>
<!-- breng_dochter_naar_bakker -->
<g id="node12" class="node">
<title>breng_dochter_naar_bakker</title>
<path fill="#3333aa" stroke="#3333aa" d="M1124.4842,-218.5C1124.4842,-218.5 1273.9058,-218.5 1273.9058,-218.5 1279.9058,-218.5 1285.9058,-224.5 1285.9058,-230.5 1285.9058,-230.5 1285.9058,-242.5 1285.9058,-242.5 1285.9058,-248.5 1279.9058,-254.5 1273.9058,-254.5 1273.9058,-254.5 1124.4842,-254.5 1124.4842,-254.5 1118.4842,-254.5 1112.4842,-248.5 1112.4842,-242.5 1112.4842,-242.5 1112.4842,-230.5 1112.4842,-230.5 1112.4842,-224.5 1118.4842,-218.5 1124.4842,-218.5"/>
<text text-anchor="middle" x="1199.195" y="-232.3" font-family="lato, roboto, helvetica" font-size="14.00" fill="#eeeeee">Breng Dochter Naar Bakker</text>
</g>
<!-- krijg_appel_taart_van_bakker -->
<g id="node41" class="node">
<title>krijg_appel_taart_van_bakker</title>
<path fill="#3333aa" stroke="#3333aa" d="M1120.6746,-145.5C1120.6746,-145.5 1283.7154,-145.5 1283.7154,-145.5 1289.7154,-145.5 1295.7154,-151.5 1295.7154,-157.5 1295.7154,-157.5 1295.7154,-169.5 1295.7154,-169.5 1295.7154,-175.5 1289.7154,-181.5 1283.7154,-181.5 1283.7154,-181.5 1120.6746,-181.5 1120.6746,-181.5 1114.6746,-181.5 1108.6746,-175.5 1108.6746,-169.5 1108.6746,-169.5 1108.6746,-157.5 1108.6746,-157.5 1108.6746,-151.5 1114.6746,-145.5 1120.6746,-145.5"/>
<text text-anchor="middle" x="1202.195" y="-159.3" font-family="lato, roboto, helvetica" font-size="14.00" fill="#eeeeee">Krijg Appel Taart Van Bakker</text>
</g>
<!-- breng_dochter_naar_bakker&#45;&gt;krijg_appel_taart_van_bakker -->
<g id="edge33" class="edge">
<title>breng_dochter_naar_bakker&#45;&gt;krijg_appel_taart_van_bakker</title>
<path fill="none" stroke="#999999" d="M1199.9366,-218.4551C1200.2935,-209.7686 1200.7283,-199.1898 1201.1207,-189.642"/>
<polygon fill="#999999" stroke="#999999" points="1203.9206,-189.6986 1201.4516,-181.5904 1198.3253,-189.4686 1203.9206,-189.6986"/>
</g>
<!-- trek_tand_van_draak -->
<g id="node13" class="node">
<title>trek_tand_van_draak</title>
<path fill="#3333aa" stroke="#3333aa" d="M1037.5887,-291.5C1037.5887,-291.5 1152.8013,-291.5 1152.8013,-291.5 1158.8013,-291.5 1164.8013,-297.5 1164.8013,-303.5 1164.8013,-303.5 1164.8013,-315.5 1164.8013,-315.5 1164.8013,-321.5 1158.8013,-327.5 1152.8013,-327.5 1152.8013,-327.5 1037.5887,-327.5 1037.5887,-327.5 1031.5887,-327.5 1025.5887,-321.5 1025.5887,-315.5 1025.5887,-315.5 1025.5887,-303.5 1025.5887,-303.5 1025.5887,-297.5 1031.5887,-291.5 1037.5887,-291.5"/>
<text text-anchor="middle" x="1095.195" y="-305.3" font-family="lato, roboto, helvetica" font-size="14.00" fill="#eeeeee">Trek Tand Van Draak</text>
</g>
<!-- trek_tand_van_draak&#45;&gt;breng_dochter_naar_bakker -->
<g id="edge8" class="edge">
<title>trek_tand_van_draak&#45;&gt;breng_dochter_naar_bakker</title>
<path fill="none" stroke="#999999" d="M1120.9029,-291.4551C1134.778,-281.7157 1152.0424,-269.5975 1166.8258,-259.2207"/>
<polygon fill="#999999" stroke="#999999" points="1168.4831,-261.4783 1173.4224,-254.5904 1165.2658,-256.8948 1168.4831,-261.4783"/>
</g>
<!-- zet_zadel_op_draak -->
<g id="node15" class="node">
<title>zet_zadel_op_draak</title>
<path fill="#3333aa" stroke="#3333aa" d="M1028.0284,-72.5C1028.0284,-72.5 1132.3616,-72.5 1132.3616,-72.5 1138.3616,-72.5 1144.3616,-78.5 1144.3616,-84.5 1144.3616,-84.5 1144.3616,-96.5 1144.3616,-96.5 1144.3616,-102.5 1138.3616,-108.5 1132.3616,-108.5 1132.3616,-108.5 1028.0284,-108.5 1028.0284,-108.5 1022.0284,-108.5 1016.0284,-102.5 1016.0284,-96.5 1016.0284,-96.5 1016.0284,-84.5 1016.0284,-84.5 1016.0284,-78.5 1022.0284,-72.5 1028.0284,-72.5"/>
<text text-anchor="middle" x="1080.195" y="-86.3" font-family="lato, roboto, helvetica" font-size="14.00" fill="#eeeeee">Zet Zadel Op Draak</text>
</g>
<!-- trek_tand_van_draak&#45;&gt;zet_zadel_op_draak -->
<g id="edge85" class="edge">
<title>trek_tand_van_draak&#45;&gt;zet_zadel_op_draak</title>
<path fill="none" stroke="#999999" d="M1093.9419,-291.2049C1091.2827,-252.3808 1085.0671,-161.6319 1081.9884,-116.6829"/>
<polygon fill="#999999" stroke="#999999" points="1084.7742,-116.379 1081.434,-108.589 1079.1873,-116.7617 1084.7742,-116.379"/>
</g>
<!-- pak_tand_van_draak -->
<g id="node45" class="node">
<title>pak_tand_van_draak</title>
<path fill="#3333aa" stroke="#3333aa" d="M930.304,-218.5C930.304,-218.5 1040.086,-218.5 1040.086,-218.5 1046.086,-218.5 1052.086,-224.5 1052.086,-230.5 1052.086,-230.5 1052.086,-242.5 1052.086,-242.5 1052.086,-248.5 1046.086,-254.5 1040.086,-254.5 1040.086,-254.5 930.304,-254.5 930.304,-254.5 924.304,-254.5 918.304,-248.5 918.304,-242.5 918.304,-242.5 918.304,-230.5 918.304,-230.5 918.304,-224.5 924.304,-218.5 930.304,-218.5"/>
<text text-anchor="middle" x="985.195" y="-232.3" font-family="lato, roboto, helvetica" font-size="14.00" fill="#eeeeee">Pak Tand Van Draak</text>
</g>
<!-- trek_tand_van_draak&#45;&gt;pak_tand_van_draak -->
<g id="edge55" class="edge">
<title>trek_tand_van_draak&#45;&gt;pak_tand_van_draak</title>
<path fill="none" stroke="#999999" d="M1068.004,-291.4551C1053.3283,-281.7157 1035.0679,-269.5975 1019.4317,-259.2207"/>
<polygon fill="#999999" stroke="#999999" points="1020.6684,-256.681 1012.4544,-254.5904 1017.5719,-261.347 1020.6684,-256.681"/>
</g>
<!-- breng_medicijnen_naar_koning -->
<g id="node14" class="node">
<title>breng_medicijnen_naar_koning</title>
<polygon fill="#333333" stroke="#333333" points="1027.195,-36 838.3539,-18 1027.195,0 1216.0361,-18 1027.195,-36"/>
<polyline fill="none" stroke="#333333" points="850.2997,-19.1387 850.2997,-16.8613 "/>
<polyline fill="none" stroke="#333333" points="1015.2491,-1.1387 1039.1409,-1.1387 "/>
<polyline fill="none" stroke="#333333" points="1204.0903,-16.8613 1204.0903,-19.1387 "/>
<polyline fill="none" stroke="#333333" points="1039.1409,-34.8613 1015.2491,-34.8613 "/>
<text text-anchor="middle" x="1027.195" y="-13.8" font-family="lato, roboto, helvetica" font-size="14.00" fill="#dddddd">Breng Medicijnen Naar Koning</text>
</g>
<!-- zet_zadel_op_draak&#45;&gt;breng_medicijnen_naar_koning -->
<g id="edge9" class="edge">
<title>zet_zadel_op_draak&#45;&gt;breng_medicijnen_naar_koning</title>
<path fill="none" stroke="#999999" d="M1066.8209,-72.2052C1060.0438,-62.9346 1051.7344,-51.568 1044.4781,-41.642"/>
<polygon fill="#999999" stroke="#999999" points="1046.6363,-39.8497 1039.6546,-35.0438 1042.1155,-43.1546 1046.6363,-39.8497"/>
</g>
<!-- krijg_medicijn_van_heks -->
<g id="node16" class="node">
<title>krijg_medicijn_van_heks</title>
<path fill="#3333aa" stroke="#3333aa" d="M824.8545,-145.5C824.8545,-145.5 959.5355,-145.5 959.5355,-145.5 965.5355,-145.5 971.5355,-151.5 971.5355,-157.5 971.5355,-157.5 971.5355,-169.5 971.5355,-169.5 971.5355,-175.5 965.5355,-181.5 959.5355,-181.5 959.5355,-181.5 824.8545,-181.5 824.8545,-181.5 818.8545,-181.5 812.8545,-175.5 812.8545,-169.5 812.8545,-169.5 812.8545,-157.5 812.8545,-157.5 812.8545,-151.5 818.8545,-145.5 824.8545,-145.5"/>
<text text-anchor="middle" x="892.195" y="-159.3" font-family="lato, roboto, helvetica" font-size="14.00" fill="#eeeeee">Krijg Medicijn Van Heks</text>
</g>
<!-- krijg_medicijn_van_heks&#45;&gt;breng_medicijnen_naar_koning -->
<g id="edge10" class="edge">
<title>krijg_medicijn_van_heks&#45;&gt;breng_medicijnen_naar_koning</title>
<path fill="none" stroke="#999999" d="M909.0199,-145.3665C933.5962,-118.8787 979.2934,-69.6272 1006.0906,-40.7459"/>
<polygon fill="#999999" stroke="#999999" points="1008.4402,-42.3302 1011.8289,-34.5612 1004.335,-38.5213 1008.4402,-42.3302"/>
</g>
<!-- breng_molensteen_naar_toren -->
<g id="node17" class="node">
<title>breng_molensteen_naar_toren</title>
<path fill="#3333aa" stroke="#3333aa" d="M1251.8699,-729.5C1251.8699,-729.5 1414.5201,-729.5 1414.5201,-729.5 1420.5201,-729.5 1426.5201,-735.5 1426.5201,-741.5 1426.5201,-741.5 1426.5201,-753.5 1426.5201,-753.5 1426.5201,-759.5 1420.5201,-765.5 1414.5201,-765.5 1414.5201,-765.5 1251.8699,-765.5 1251.8699,-765.5 1245.8699,-765.5 1239.8699,-759.5 1239.8699,-753.5 1239.8699,-753.5 1239.8699,-741.5 1239.8699,-741.5 1239.8699,-735.5 1245.8699,-729.5 1251.8699,-729.5"/>
<text text-anchor="middle" x="1333.195" y="-743.3" font-family="lato, roboto, helvetica" font-size="14.00" fill="#eeeeee">Breng Molensteen Naar Toren</text>
</g>
<!-- leg_molensteen_op_lift -->
<g id="node35" class="node">
<title>leg_molensteen_op_lift</title>
<path fill="#3333aa" stroke="#3333aa" d="M1164.3538,-583.5C1164.3538,-583.5 1292.0362,-583.5 1292.0362,-583.5 1298.0362,-583.5 1304.0362,-589.5 1304.0362,-595.5 1304.0362,-595.5 1304.0362,-607.5 1304.0362,-607.5 1304.0362,-613.5 1298.0362,-619.5 1292.0362,-619.5 1292.0362,-619.5 1164.3538,-619.5 1164.3538,-619.5 1158.3538,-619.5 1152.3538,-613.5 1152.3538,-607.5 1152.3538,-607.5 1152.3538,-595.5 1152.3538,-595.5 1152.3538,-589.5 1158.3538,-583.5 1164.3538,-583.5"/>
<text text-anchor="middle" x="1228.195" y="-597.3" font-family="lato, roboto, helvetica" font-size="14.00" fill="#eeeeee">Leg Molensteen Op Lift</text>
</g>
<!-- breng_molensteen_naar_toren&#45;&gt;leg_molensteen_op_lift -->
<g id="edge49" class="edge">
<title>breng_molensteen_naar_toren&#45;&gt;leg_molensteen_op_lift</title>
<path fill="none" stroke="#999999" d="M1333.474,-729.379C1332.918,-709.661 1329.4284,-678.0132 1314.195,-656 1305.0299,-642.7559 1291.4942,-632.0354 1277.8602,-623.7199"/>
<polygon fill="#999999" stroke="#999999" points="1279.0689,-621.184 1270.7442,-619.59 1276.2579,-626.0274 1279.0689,-621.184"/>
</g>
<!-- zet_molensteen_op_wagen&#45;&gt;breng_molensteen_naar_toren -->
<g id="edge11" class="edge">
<title>zet_molensteen_op_wagen&#45;&gt;breng_molensteen_naar_toren</title>
<path fill="none" stroke="#999999" d="M1333.195,-875.3042C1333.195,-849.8403 1333.195,-803.4108 1333.195,-774.0759"/>
<polygon fill="#999999" stroke="#999999" points="1335.9951,-773.9251 1333.195,-765.9251 1330.3951,-773.9251 1335.9951,-773.9251"/>
</g>
<!-- breng_paard_naar_hoefsmid -->
<g id="node19" class="node">
<title>breng_paard_naar_hoefsmid</title>
<path fill="#3333aa" stroke="#3333aa" d="M1407.7009,-1386.5C1407.7009,-1386.5 1558.6891,-1386.5 1558.6891,-1386.5 1564.6891,-1386.5 1570.6891,-1392.5 1570.6891,-1398.5 1570.6891,-1398.5 1570.6891,-1410.5 1570.6891,-1410.5 1570.6891,-1416.5 1564.6891,-1422.5 1558.6891,-1422.5 1558.6891,-1422.5 1407.7009,-1422.5 1407.7009,-1422.5 1401.7009,-1422.5 1395.7009,-1416.5 1395.7009,-1410.5 1395.7009,-1410.5 1395.7009,-1398.5 1395.7009,-1398.5 1395.7009,-1392.5 1401.7009,-1386.5 1407.7009,-1386.5"/>
<text text-anchor="middle" x="1483.195" y="-1400.3" font-family="lato, roboto, helvetica" font-size="14.00" fill="#eeeeee">Breng Paard Naar Hoefsmid</text>
</g>
<!-- breng_paard_naar_hoefsmid&#45;&gt;geef_paard_nieuwe_hoefijzers -->
<g id="edge17" class="edge">
<title>breng_paard_naar_hoefsmid&#45;&gt;geef_paard_nieuwe_hoefijzers</title>
<path fill="none" stroke="#999999" d="M1481.2175,-1386.4551C1480.2655,-1377.7686 1479.1062,-1367.1898 1478.0599,-1357.642"/>
<polygon fill="#999999" stroke="#999999" points="1480.8324,-1357.2377 1477.1775,-1349.5904 1475.2658,-1357.8478 1480.8324,-1357.2377"/>
</g>
<!-- vind_paard_bij_rivier -->
<g id="node20" class="node">
<title>vind_paard_bij_rivier</title>
<path fill="#008800" stroke="#008800" d="M1425.9548,-1459.5C1425.9548,-1459.5 1540.4352,-1459.5 1540.4352,-1459.5 1546.4352,-1459.5 1552.4352,-1465.5 1552.4352,-1471.5 1552.4352,-1471.5 1552.4352,-1483.5 1552.4352,-1483.5 1552.4352,-1489.5 1546.4352,-1495.5 1540.4352,-1495.5 1540.4352,-1495.5 1425.9548,-1495.5 1425.9548,-1495.5 1419.9548,-1495.5 1413.9548,-1489.5 1413.9548,-1483.5 1413.9548,-1483.5 1413.9548,-1471.5 1413.9548,-1471.5 1413.9548,-1465.5 1419.9548,-1459.5 1425.9548,-1459.5"/>
<text text-anchor="middle" x="1483.195" y="-1473.3" font-family="lato, roboto, helvetica" font-size="14.00" fill="#eeeeee">Vind Paard Bij Rivier</text>
</g>
<!-- vind_paard_bij_rivier&#45;&gt;breng_paard_naar_hoefsmid -->
<g id="edge12" class="edge">
<title>vind_paard_bij_rivier&#45;&gt;breng_paard_naar_hoefsmid</title>
<path fill="none" stroke="#999999" d="M1483.195,-1459.4551C1483.195,-1450.7686 1483.195,-1440.1898 1483.195,-1430.642"/>
<polygon fill="#999999" stroke="#999999" points="1485.9951,-1430.5903 1483.195,-1422.5904 1480.3951,-1430.5904 1485.9951,-1430.5903"/>
</g>
<!-- ga_naar_hut_in_moeras -->
<g id="node21" class="node">
<title>ga_naar_hut_in_moeras</title>
<path fill="#008800" stroke="#008800" d="M773.1178,-802.5C773.1178,-802.5 897.2722,-802.5 897.2722,-802.5 903.2722,-802.5 909.2722,-808.5 909.2722,-814.5 909.2722,-814.5 909.2722,-826.5 909.2722,-826.5 909.2722,-832.5 903.2722,-838.5 897.2722,-838.5 897.2722,-838.5 773.1178,-838.5 773.1178,-838.5 767.1178,-838.5 761.1178,-832.5 761.1178,-826.5 761.1178,-826.5 761.1178,-814.5 761.1178,-814.5 761.1178,-808.5 767.1178,-802.5 773.1178,-802.5"/>
<text text-anchor="middle" x="835.195" y="-816.3" font-family="lato, roboto, helvetica" font-size="14.00" fill="#eeeeee">Ga Naar Hut In Moeras</text>
</g>
<!-- praat_met_heks -->
<g id="node30" class="node">
<title>praat_met_heks</title>
<path fill="#008800" stroke="#008800" d="M626.6557,-510.5C626.6557,-510.5 705.7343,-510.5 705.7343,-510.5 711.7343,-510.5 717.7343,-516.5 717.7343,-522.5 717.7343,-522.5 717.7343,-534.5 717.7343,-534.5 717.7343,-540.5 711.7343,-546.5 705.7343,-546.5 705.7343,-546.5 626.6557,-546.5 626.6557,-546.5 620.6557,-546.5 614.6557,-540.5 614.6557,-534.5 614.6557,-534.5 614.6557,-522.5 614.6557,-522.5 614.6557,-516.5 620.6557,-510.5 626.6557,-510.5"/>
<text text-anchor="middle" x="666.195" y="-524.3" font-family="lato, roboto, helvetica" font-size="14.00" fill="#eeeeee">Praat Met Heks</text>
</g>
<!-- ga_naar_hut_in_moeras&#45;&gt;praat_met_heks -->
<g id="edge63" class="edge">
<title>ga_naar_hut_in_moeras&#45;&gt;praat_met_heks</title>
<path fill="none" stroke="#999999" d="M821.797,-802.3804C813.9977,-791.7989 803.9977,-778.1739 795.195,-766 771.8542,-733.7204 763.2765,-727.402 743.195,-693 715.6746,-645.8544 690.1622,-587.2445 676.5275,-554.2365"/>
<polygon fill="#999999" stroke="#999999" points="679.1083,-553.1501 673.4824,-546.8106 673.9271,-555.2748 679.1083,-553.1501"/>
</g>
<!-- praat_met_bakker&#45;&gt;koop_zwaard_voor_99_bij_wapensmid -->
<g id="edge31" class="edge">
<title>praat_met_bakker&#45;&gt;koop_zwaard_voor_99_bij_wapensmid</title>
<path fill="none" stroke="#999999" d="M902.6046,-880.1956C950.6393,-869.0637 1019.8824,-853.0169 1074.4825,-840.3635"/>
<polygon fill="#999999" stroke="#999999" points="1075.2664,-843.0561 1082.4277,-838.5223 1074.0021,-837.6007 1075.2664,-843.0561"/>
</g>
<!-- praat_met_bakker&#45;&gt;ga_naar_hut_in_moeras -->
<g id="edge13" class="edge">
<title>praat_met_bakker&#45;&gt;ga_naar_hut_in_moeras</title>
<path fill="none" stroke="#999999" d="M842.7231,-875.4551C841.5332,-866.7686 840.084,-856.1898 838.7761,-846.642"/>
<polygon fill="#999999" stroke="#999999" points="841.5331,-846.1363 837.6731,-838.5904 835.9849,-846.8964 841.5331,-846.1363"/>
</g>
<!-- geef_dwerg_eten -->
<g id="node23" class="node">
<title>geef_dwerg_eten</title>
<path fill="#008800" stroke="#008800" d="M764.2237,-656.5C764.2237,-656.5 854.1663,-656.5 854.1663,-656.5 860.1663,-656.5 866.1663,-662.5 866.1663,-668.5 866.1663,-668.5 866.1663,-680.5 866.1663,-680.5 866.1663,-686.5 860.1663,-692.5 854.1663,-692.5 854.1663,-692.5 764.2237,-692.5 764.2237,-692.5 758.2237,-692.5 752.2237,-686.5 752.2237,-680.5 752.2237,-680.5 752.2237,-668.5 752.2237,-668.5 752.2237,-662.5 758.2237,-656.5 764.2237,-656.5"/>
<text text-anchor="middle" x="809.195" y="-670.3" font-family="lato, roboto, helvetica" font-size="14.00" fill="#eeeeee">Geef Dwerg Eten</text>
</g>
<!-- krijg_edelsteen_van_dwerg -->
<g id="node42" class="node">
<title>krijg_edelsteen_van_dwerg</title>
<path fill="#008800" stroke="#008800" d="M735.2549,-583.5C735.2549,-583.5 883.1351,-583.5 883.1351,-583.5 889.1351,-583.5 895.1351,-589.5 895.1351,-595.5 895.1351,-595.5 895.1351,-607.5 895.1351,-607.5 895.1351,-613.5 889.1351,-619.5 883.1351,-619.5 883.1351,-619.5 735.2549,-619.5 735.2549,-619.5 729.2549,-619.5 723.2549,-613.5 723.2549,-607.5 723.2549,-607.5 723.2549,-595.5 723.2549,-595.5 723.2549,-589.5 729.2549,-583.5 735.2549,-583.5"/>
<text text-anchor="middle" x="809.195" y="-597.3" font-family="lato, roboto, helvetica" font-size="14.00" fill="#eeeeee">Krijg Edelsteen Van Dwerg</text>
</g>
<!-- geef_dwerg_eten&#45;&gt;krijg_edelsteen_van_dwerg -->
<g id="edge34" class="edge">
<title>geef_dwerg_eten&#45;&gt;krijg_edelsteen_van_dwerg</title>
<path fill="none" stroke="#999999" d="M809.195,-656.4551C809.195,-647.7686 809.195,-637.1898 809.195,-627.642"/>
<polygon fill="#999999" stroke="#999999" points="811.9951,-627.5903 809.195,-619.5904 806.3951,-627.5904 811.9951,-627.5903"/>
</g>
<!-- praat_met_dwerg&#45;&gt;geef_dwerg_eten -->
<g id="edge14" class="edge">
<title>praat_met_dwerg&#45;&gt;geef_dwerg_eten</title>
<path fill="none" stroke="#999999" d="M762.4382,-1532.072C764.1956,-1504.389 767.195,-1450.4172 767.195,-1404.5 767.195,-1404.5 767.195,-1404.5 767.195,-1258.5 767.195,-1055.5016 709.8377,-1000.5301 752.195,-802 760.1728,-764.6075 779.9492,-724.9047 793.9621,-699.9249"/>
<polygon fill="#999999" stroke="#999999" points="796.5725,-701.0001 798.1065,-692.6641 791.7089,-698.224 796.5725,-701.0001"/>
</g>
<!-- krijg_kapotte_houweel_van_dwerg -->
<g id="node44" class="node">
<title>krijg_kapotte_houweel_van_dwerg</title>
<path fill="#008800" stroke="#008800" d="M535.291,-1459.5C535.291,-1459.5 727.099,-1459.5 727.099,-1459.5 733.099,-1459.5 739.099,-1465.5 739.099,-1471.5 739.099,-1471.5 739.099,-1483.5 739.099,-1483.5 739.099,-1489.5 733.099,-1495.5 727.099,-1495.5 727.099,-1495.5 535.291,-1495.5 535.291,-1495.5 529.291,-1495.5 523.291,-1489.5 523.291,-1483.5 523.291,-1483.5 523.291,-1471.5 523.291,-1471.5 523.291,-1465.5 529.291,-1459.5 535.291,-1459.5"/>
<text text-anchor="middle" x="631.195" y="-1473.3" font-family="lato, roboto, helvetica" font-size="14.00" fill="#eeeeee">Krijg Kapotte Houweel Van Dwerg</text>
</g>
<!-- praat_met_dwerg&#45;&gt;krijg_kapotte_houweel_van_dwerg -->
<g id="edge39" class="edge">
<title>praat_met_dwerg&#45;&gt;krijg_kapotte_houweel_van_dwerg</title>
<path fill="none" stroke="#999999" d="M729.0602,-1532.4551C711.4037,-1522.5403 689.3567,-1510.16 670.6607,-1499.6615"/>
<polygon fill="#999999" stroke="#999999" points="671.7572,-1497.066 663.4107,-1495.5904 669.0152,-1501.9488 671.7572,-1497.066"/>
</g>
<!-- koop_eten_bij_bakker -->
<g id="node25" class="node">
<title>koop_eten_bij_bakker</title>
<path fill="#008800" stroke="#008800" d="M815.7907,-729.5C815.7907,-729.5 932.5993,-729.5 932.5993,-729.5 938.5993,-729.5 944.5993,-735.5 944.5993,-741.5 944.5993,-741.5 944.5993,-753.5 944.5993,-753.5 944.5993,-759.5 938.5993,-765.5 932.5993,-765.5 932.5993,-765.5 815.7907,-765.5 815.7907,-765.5 809.7907,-765.5 803.7907,-759.5 803.7907,-753.5 803.7907,-753.5 803.7907,-741.5 803.7907,-741.5 803.7907,-735.5 809.7907,-729.5 815.7907,-729.5"/>
<text text-anchor="middle" x="874.195" y="-743.3" font-family="lato, roboto, helvetica" font-size="14.00" fill="#eeeeee">Koop Eten Bij Bakker</text>
</g>
<!-- koop_eten_bij_bakker&#45;&gt;geef_dwerg_eten -->
<g id="edge15" class="edge">
<title>koop_eten_bij_bakker&#45;&gt;geef_dwerg_eten</title>
<path fill="none" stroke="#999999" d="M858.1276,-729.4551C849.8462,-720.1545 839.6332,-708.6844 830.6835,-698.6332"/>
<polygon fill="#999999" stroke="#999999" points="832.7141,-696.7031 825.3029,-692.5904 828.5317,-700.4271 832.7141,-696.7031"/>
</g>
<!-- geef_houweel_aan_dwerg -->
<g id="node26" class="node">
<title>geef_houweel_aan_dwerg</title>
<path fill="#008800" stroke="#008800" d="M585.3755,-1167.5C585.3755,-1167.5 727.0145,-1167.5 727.0145,-1167.5 733.0145,-1167.5 739.0145,-1173.5 739.0145,-1179.5 739.0145,-1179.5 739.0145,-1191.5 739.0145,-1191.5 739.0145,-1197.5 733.0145,-1203.5 727.0145,-1203.5 727.0145,-1203.5 585.3755,-1203.5 585.3755,-1203.5 579.3755,-1203.5 573.3755,-1197.5 573.3755,-1191.5 573.3755,-1191.5 573.3755,-1179.5 573.3755,-1179.5 573.3755,-1173.5 579.3755,-1167.5 585.3755,-1167.5"/>
<text text-anchor="middle" x="656.195" y="-1181.3" font-family="lato, roboto, helvetica" font-size="14.00" fill="#eeeeee">Geef Houweel Aan Dwerg</text>
</g>
<!-- geef_houweel_aan_dwerg&#45;&gt;krijg_edelsteen_van_dwerg -->
<g id="edge35" class="edge">
<title>geef_houweel_aan_dwerg&#45;&gt;krijg_edelsteen_van_dwerg</title>
<path fill="none" stroke="#999999" d="M656.4022,-1167.0623C656.6951,-1139.367 657.195,-1085.3795 657.195,-1039.5 657.195,-1039.5 657.195,-1039.5 657.195,-820.5 657.195,-738.0005 691.2473,-720.0906 743.195,-656 752.5812,-644.4198 764.7453,-633.5468 776.0692,-624.6048"/>
<polygon fill="#999999" stroke="#999999" points="777.9779,-626.6692 782.6121,-619.5723 774.5637,-622.2303 777.9779,-626.6692"/>
</g>
<!-- repareer_houweel -->
<g id="node27" class="node">
<title>repareer_houweel</title>
<path fill="#008800" stroke="#008800" d="M607.9204,-1386.5C607.9204,-1386.5 704.4696,-1386.5 704.4696,-1386.5 710.4696,-1386.5 716.4696,-1392.5 716.4696,-1398.5 716.4696,-1398.5 716.4696,-1410.5 716.4696,-1410.5 716.4696,-1416.5 710.4696,-1422.5 704.4696,-1422.5 704.4696,-1422.5 607.9204,-1422.5 607.9204,-1422.5 601.9204,-1422.5 595.9204,-1416.5 595.9204,-1410.5 595.9204,-1410.5 595.9204,-1398.5 595.9204,-1398.5 595.9204,-1392.5 601.9204,-1386.5 607.9204,-1386.5"/>
<text text-anchor="middle" x="656.195" y="-1400.3" font-family="lato, roboto, helvetica" font-size="14.00" fill="#eeeeee">Repareer Houweel</text>
</g>
<!-- repareer_houweel&#45;&gt;geef_houweel_aan_dwerg -->
<g id="edge16" class="edge">
<title>repareer_houweel&#45;&gt;geef_houweel_aan_dwerg</title>
<path fill="none" stroke="#999999" d="M656.195,-1386.2049C656.195,-1347.3808 656.195,-1256.6319 656.195,-1211.6829"/>
<polygon fill="#999999" stroke="#999999" points="658.9951,-1211.589 656.195,-1203.589 653.3951,-1211.5891 658.9951,-1211.589"/>
</g>
<!-- haal_wagen_bij_molenaar_met_paard -->
<g id="node32" class="node">
<title>haal_wagen_bij_molenaar_met_paard</title>
<path fill="#3333aa" stroke="#3333aa" d="M1325.8201,-1240.5C1325.8201,-1240.5 1526.5699,-1240.5 1526.5699,-1240.5 1532.5699,-1240.5 1538.5699,-1246.5 1538.5699,-1252.5 1538.5699,-1252.5 1538.5699,-1264.5 1538.5699,-1264.5 1538.5699,-1270.5 1532.5699,-1276.5 1526.5699,-1276.5 1526.5699,-1276.5 1325.8201,-1276.5 1325.8201,-1276.5 1319.8201,-1276.5 1313.8201,-1270.5 1313.8201,-1264.5 1313.8201,-1264.5 1313.8201,-1252.5 1313.8201,-1252.5 1313.8201,-1246.5 1319.8201,-1240.5 1325.8201,-1240.5"/>
<text text-anchor="middle" x="1426.195" y="-1254.3" font-family="lato, roboto, helvetica" font-size="14.00" fill="#eeeeee">Haal Wagen Bij Molenaar Met Paard</text>
</g>
<!-- geef_paard_nieuwe_hoefijzers&#45;&gt;haal_wagen_bij_molenaar_met_paard -->
<g id="edge21" class="edge">
<title>geef_paard_nieuwe_hoefijzers&#45;&gt;haal_wagen_bij_molenaar_met_paard</title>
<path fill="none" stroke="#999999" d="M1463.0826,-1313.4551C1457.0165,-1304.4177 1449.5753,-1293.3319 1442.9691,-1283.4899"/>
<polygon fill="#999999" stroke="#999999" points="1445.1213,-1281.6722 1438.3378,-1276.5904 1440.4716,-1284.7933 1445.1213,-1281.6722"/>
</g>
<!-- geef_sieraad_aan_heks -->
<g id="node29" class="node">
<title>geef_sieraad_aan_heks</title>
<path fill="#3333aa" stroke="#3333aa" d="M725.3145,-437.5C725.3145,-437.5 849.0755,-437.5 849.0755,-437.5 855.0755,-437.5 861.0755,-443.5 861.0755,-449.5 861.0755,-449.5 861.0755,-461.5 861.0755,-461.5 861.0755,-467.5 855.0755,-473.5 849.0755,-473.5 849.0755,-473.5 725.3145,-473.5 725.3145,-473.5 719.3145,-473.5 713.3145,-467.5 713.3145,-461.5 713.3145,-461.5 713.3145,-449.5 713.3145,-449.5 713.3145,-443.5 719.3145,-437.5 725.3145,-437.5"/>
<text text-anchor="middle" x="787.195" y="-451.3" font-family="lato, roboto, helvetica" font-size="14.00" fill="#eeeeee">Geef Sieraad Aan Heks</text>
</g>
<!-- krijg_ingredientenlijst_van_heks -->
<g id="node43" class="node">
<title>krijg_ingredientenlijst_van_heks</title>
<path fill="#3333aa" stroke="#3333aa" d="M699.2507,-291.5C699.2507,-291.5 875.1393,-291.5 875.1393,-291.5 881.1393,-291.5 887.1393,-297.5 887.1393,-303.5 887.1393,-303.5 887.1393,-315.5 887.1393,-315.5 887.1393,-321.5 881.1393,-327.5 875.1393,-327.5 875.1393,-327.5 699.2507,-327.5 699.2507,-327.5 693.2507,-327.5 687.2507,-321.5 687.2507,-315.5 687.2507,-315.5 687.2507,-303.5 687.2507,-303.5 687.2507,-297.5 693.2507,-291.5 699.2507,-291.5"/>
<text text-anchor="middle" x="787.195" y="-305.3" font-family="lato, roboto, helvetica" font-size="14.00" fill="#eeeeee">Krijg Ingredientenlijst Van Heks</text>
</g>
<!-- geef_sieraad_aan_heks&#45;&gt;krijg_ingredientenlijst_van_heks -->
<g id="edge38" class="edge">
<title>geef_sieraad_aan_heks&#45;&gt;krijg_ingredientenlijst_van_heks</title>
<path fill="none" stroke="#999999" d="M787.195,-437.3042C787.195,-411.8403 787.195,-365.4108 787.195,-336.0759"/>
<polygon fill="#999999" stroke="#999999" points="789.9951,-335.9251 787.195,-327.9251 784.3951,-335.9251 789.9951,-335.9251"/>
</g>
<!-- praat_met_heks&#45;&gt;geef_sieraad_aan_heks -->
<g id="edge19" class="edge">
<title>praat_met_heks&#45;&gt;geef_sieraad_aan_heks</title>
<path fill="none" stroke="#999999" d="M696.1051,-510.4551C712.3938,-500.628 732.697,-488.3789 749.9988,-477.9407"/>
<polygon fill="#999999" stroke="#999999" points="751.8061,-480.1205 757.2096,-473.5904 748.9132,-475.3255 751.8061,-480.1205"/>
</g>
<!-- praat_met_heks&#45;&gt;krijg_ingredientenlijst_van_heks -->
<g id="edge37" class="edge">
<title>praat_met_heks&#45;&gt;krijg_ingredientenlijst_van_heks</title>
<path fill="none" stroke="#999999" d="M672.6727,-510.1701C679.5765,-491.3704 691.2756,-461.4952 704.195,-437 723.7924,-399.8432 751.0757,-359.6426 768.9305,-334.5223"/>
<polygon fill="#999999" stroke="#999999" points="771.3249,-335.9877 773.7022,-327.8521 766.7703,-332.7295 771.3249,-335.9877"/>
</g>
<!-- maak_sieraad_bij_smid -->
<g id="node31" class="node">
<title>maak_sieraad_bij_smid</title>
<path fill="#3333aa" stroke="#3333aa" d="M747.6785,-510.5C747.6785,-510.5 870.7115,-510.5 870.7115,-510.5 876.7115,-510.5 882.7115,-516.5 882.7115,-522.5 882.7115,-522.5 882.7115,-534.5 882.7115,-534.5 882.7115,-540.5 876.7115,-546.5 870.7115,-546.5 870.7115,-546.5 747.6785,-546.5 747.6785,-546.5 741.6785,-546.5 735.6785,-540.5 735.6785,-534.5 735.6785,-534.5 735.6785,-522.5 735.6785,-522.5 735.6785,-516.5 741.6785,-510.5 747.6785,-510.5"/>
<text text-anchor="middle" x="809.195" y="-524.3" font-family="lato, roboto, helvetica" font-size="14.00" fill="#eeeeee">Maak Sieraad Bij Smid</text>
</g>
<!-- maak_sieraad_bij_smid&#45;&gt;krijg_geldstuk_van_smid -->
<g id="edge36" class="edge">
<title>maak_sieraad_bij_smid&#45;&gt;krijg_geldstuk_van_smid</title>
<path fill="none" stroke="#999999" d="M849.24,-510.4551C871.7294,-500.3209 899.9349,-487.611 923.5547,-476.9675"/>
<polygon fill="#999999" stroke="#999999" points="924.9059,-479.4299 931.0493,-473.5904 922.6052,-474.3243 924.9059,-479.4299"/>
</g>
<!-- maak_sieraad_bij_smid&#45;&gt;geef_sieraad_aan_heks -->
<g id="edge20" class="edge">
<title>maak_sieraad_bij_smid&#45;&gt;geef_sieraad_aan_heks</title>
<path fill="none" stroke="#999999" d="M803.7568,-510.4551C801.1125,-501.6809 797.8864,-490.9759 794.9863,-481.353"/>
<polygon fill="#999999" stroke="#999999" points="797.6363,-480.4421 792.6469,-473.5904 792.2745,-482.058 797.6363,-480.4421"/>
</g>
<!-- haal_wagen_bij_molenaar_met_paard&#45;&gt;zet_graan_op_wagen -->
<g id="edge82" class="edge">
<title>haal_wagen_bij_molenaar_met_paard&#45;&gt;zet_graan_op_wagen</title>
<path fill="none" stroke="#999999" d="M1426.195,-1240.4551C1426.195,-1231.7686 1426.195,-1221.1898 1426.195,-1211.642"/>
<polygon fill="#999999" stroke="#999999" points="1428.9951,-1211.5903 1426.195,-1203.5904 1423.3951,-1211.5904 1428.9951,-1211.5903"/>
</g>
<!-- praat_met_molenaar&#45;&gt;haal_wagen_bij_molenaar_met_paard -->
<g id="edge22" class="edge">
<title>praat_met_molenaar&#45;&gt;haal_wagen_bij_molenaar_met_paard</title>
<path fill="none" stroke="#999999" d="M1330.5883,-1313.4551C1347.8373,-1303.5403 1369.3755,-1291.16 1387.64,-1280.6615"/>
<polygon fill="#999999" stroke="#999999" points="1389.1823,-1283.0047 1394.7227,-1276.5904 1386.3915,-1278.1496 1389.1823,-1283.0047"/>
</g>
<!-- hijs_lift_met_molensteen -->
<g id="node34" class="node">
<title>hijs_lift_met_molensteen</title>
<path fill="#3333aa" stroke="#3333aa" d="M1160.8496,-510.5C1160.8496,-510.5 1295.5404,-510.5 1295.5404,-510.5 1301.5404,-510.5 1307.5404,-516.5 1307.5404,-522.5 1307.5404,-522.5 1307.5404,-534.5 1307.5404,-534.5 1307.5404,-540.5 1301.5404,-546.5 1295.5404,-546.5 1295.5404,-546.5 1160.8496,-546.5 1160.8496,-546.5 1154.8496,-546.5 1148.8496,-540.5 1148.8496,-534.5 1148.8496,-534.5 1148.8496,-522.5 1148.8496,-522.5 1148.8496,-516.5 1154.8496,-510.5 1160.8496,-510.5"/>
<text text-anchor="middle" x="1228.195" y="-524.3" font-family="lato, roboto, helvetica" font-size="14.00" fill="#eeeeee">Hijs Lift Met Molensteen</text>
</g>
<!-- knoop_touw_aan_molensteen -->
<g id="node36" class="node">
<title>knoop_touw_aan_molensteen</title>
<path fill="#3333aa" stroke="#3333aa" d="M1165.2444,-437.5C1165.2444,-437.5 1327.1456,-437.5 1327.1456,-437.5 1333.1456,-437.5 1339.1456,-443.5 1339.1456,-449.5 1339.1456,-449.5 1339.1456,-461.5 1339.1456,-461.5 1339.1456,-467.5 1333.1456,-473.5 1327.1456,-473.5 1327.1456,-473.5 1165.2444,-473.5 1165.2444,-473.5 1159.2444,-473.5 1153.2444,-467.5 1153.2444,-461.5 1153.2444,-461.5 1153.2444,-449.5 1153.2444,-449.5 1153.2444,-443.5 1159.2444,-437.5 1165.2444,-437.5"/>
<text text-anchor="middle" x="1246.195" y="-451.3" font-family="lato, roboto, helvetica" font-size="14.00" fill="#eeeeee">Knoop Touw Aan Molensteen</text>
</g>
<!-- hijs_lift_met_molensteen&#45;&gt;knoop_touw_aan_molensteen -->
<g id="edge25" class="edge">
<title>hijs_lift_met_molensteen&#45;&gt;knoop_touw_aan_molensteen</title>
<path fill="none" stroke="#999999" d="M1232.6444,-510.4551C1234.7863,-501.7686 1237.3948,-491.1898 1239.749,-481.642"/>
<polygon fill="#999999" stroke="#999999" points="1242.5376,-482.0281 1241.7344,-473.5904 1237.1005,-480.6874 1242.5376,-482.0281"/>
</g>
<!-- hijs_lift_met_molensteen&#45;&gt;snij_touw_van_lift -->
<g id="edge74" class="edge">
<title>hijs_lift_met_molensteen&#45;&gt;snij_touw_van_lift</title>
<path fill="none" stroke="#999999" d="M1187.0608,-510.4522C1171.4025,-501.6163 1154.7959,-489.4953 1144.195,-474 1131.028,-454.7538 1126.6569,-428.2762 1125.3554,-408.7541"/>
<polygon fill="#999999" stroke="#999999" points="1128.1438,-408.4456 1124.9607,-400.5902 1122.5504,-408.7161 1128.1438,-408.4456"/>
</g>
<!-- leg_molensteen_op_lift&#45;&gt;hijs_lift_met_molensteen -->
<g id="edge23" class="edge">
<title>leg_molensteen_op_lift&#45;&gt;hijs_lift_met_molensteen</title>
<path fill="none" stroke="#999999" d="M1228.195,-583.4551C1228.195,-574.7686 1228.195,-564.1898 1228.195,-554.642"/>
<polygon fill="#999999" stroke="#999999" points="1230.9951,-554.5903 1228.195,-546.5904 1225.3951,-554.5904 1230.9951,-554.5903"/>
</g>
<!-- knoop_touw_aan_molensteen&#45;&gt;snij_touw_van_lift -->
<g id="edge72" class="edge">
<title>knoop_touw_aan_molensteen&#45;&gt;snij_touw_van_lift</title>
<path fill="none" stroke="#999999" d="M1216.2849,-437.4551C1199.9962,-427.628 1179.693,-415.3789 1162.3912,-404.9407"/>
<polygon fill="#999999" stroke="#999999" points="1163.4768,-402.3255 1155.1804,-400.5904 1160.5839,-407.1205 1163.4768,-402.3255"/>
</g>
<!-- pak_touw_op_boerderij&#45;&gt;knoop_touw_aan_molensteen -->
<g id="edge24" class="edge">
<title>pak_touw_op_boerderij&#45;&gt;knoop_touw_aan_molensteen</title>
<path fill="none" stroke="#999999" d="M1386.2175,-510.4551C1360.0609,-500.1893 1327.1698,-487.2804 1299.8392,-476.5539"/>
<polygon fill="#999999" stroke="#999999" points="1300.7582,-473.9067 1292.2882,-473.5904 1298.7123,-479.1196 1300.7582,-473.9067"/>
</g>
<!-- knoop_touw_aan_tand -->
<g id="node38" class="node">
<title>knoop_touw_aan_tand</title>
<path fill="#3333aa" stroke="#3333aa" d="M1369.5179,-437.5C1369.5179,-437.5 1494.8721,-437.5 1494.8721,-437.5 1500.8721,-437.5 1506.8721,-443.5 1506.8721,-449.5 1506.8721,-449.5 1506.8721,-461.5 1506.8721,-461.5 1506.8721,-467.5 1500.8721,-473.5 1494.8721,-473.5 1494.8721,-473.5 1369.5179,-473.5 1369.5179,-473.5 1363.5179,-473.5 1357.5179,-467.5 1357.5179,-461.5 1357.5179,-461.5 1357.5179,-449.5 1357.5179,-449.5 1357.5179,-443.5 1363.5179,-437.5 1369.5179,-437.5"/>
<text text-anchor="middle" x="1432.195" y="-451.3" font-family="lato, roboto, helvetica" font-size="14.00" fill="#eeeeee">Knoop Touw Aan Tand</text>
</g>
<!-- pak_touw_op_boerderij&#45;&gt;knoop_touw_aan_tand -->
<g id="edge26" class="edge">
<title>pak_touw_op_boerderij&#45;&gt;knoop_touw_aan_tand</title>
<path fill="none" stroke="#999999" d="M1432.195,-510.4551C1432.195,-501.7686 1432.195,-491.1898 1432.195,-481.642"/>
<polygon fill="#999999" stroke="#999999" points="1434.9951,-481.5903 1432.195,-473.5904 1429.3951,-481.5904 1434.9951,-481.5903"/>
</g>
<!-- knoop_touw_aan_tand&#45;&gt;snij_touw_van_lift -->
<g id="edge73" class="edge">
<title>knoop_touw_aan_tand&#45;&gt;snij_touw_van_lift</title>
<path fill="none" stroke="#999999" d="M1357.4869,-437.7355C1308.394,-426.062 1244.5489,-410.8806 1196.219,-399.3884"/>
<polygon fill="#999999" stroke="#999999" points="1196.7276,-396.6314 1188.2969,-397.5047 1195.4321,-402.0795 1196.7276,-396.6314"/>
</g>
<!-- _1&#45;&gt;koop_eten_bij_bakker -->
<g id="edge27" class="edge">
<title>_1&#45;&gt;koop_eten_bij_bakker</title>
<path fill="none" stroke="#999999" d="M944.9481,-809.7286C933.4267,-799.5953 915.7849,-784.0791 901.0004,-771.0758"/>
<polygon fill="#999999" stroke="#999999" points="902.7216,-768.8607 894.8652,-765.6798 899.0232,-773.0658 902.7216,-768.8607"/>
</g>
<!-- krijg_100_geld_van_meel&#45;&gt;koop_zwaard_voor_99_bij_wapensmid -->
<g id="edge30" class="edge">
<title>krijg_100_geld_van_meel&#45;&gt;koop_zwaard_voor_99_bij_wapensmid</title>
<path fill="none" stroke="#999999" d="M1153.4197,-875.4551C1154.4906,-866.7686 1155.7949,-856.1898 1156.972,-846.642"/>
<polygon fill="#999999" stroke="#999999" points="1159.7647,-846.8729 1157.9647,-838.5904 1154.2067,-846.1876 1159.7647,-846.8729"/>
</g>
<!-- krijg_100_geld_van_meel&#45;&gt;_1 -->
<g id="edge29" class="edge">
<title>krijg_100_geld_van_meel&#45;&gt;_1</title>
<path fill="none" stroke="#999999" stroke-dasharray="5,2" d="M1103.2399,-875.4551C1065.5417,-861.2696 1014.4314,-842.0374 983.7442,-830.4902"/>
<polygon fill="#999999" stroke="#999999" points="984.5044,-827.7846 976.0308,-827.5877 982.5321,-833.0258 984.5044,-827.7846"/>
</g>
<!-- krijg_appel_taart_van_bakker&#45;&gt;zet_zadel_op_draak -->
<g id="edge86" class="edge">
<title>krijg_appel_taart_van_bakker&#45;&gt;zet_zadel_op_draak</title>
<path fill="none" stroke="#999999" d="M1172.0377,-145.4551C1155.6144,-135.628 1135.1434,-123.3789 1117.6986,-112.9407"/>
<polygon fill="#999999" stroke="#999999" points="1118.7308,-110.2954 1110.4282,-108.5904 1115.8554,-115.1008 1118.7308,-110.2954"/>
</g>
<!-- krijg_edelsteen_van_dwerg&#45;&gt;maak_sieraad_bij_smid -->
<g id="edge51" class="edge">
<title>krijg_edelsteen_van_dwerg&#45;&gt;maak_sieraad_bij_smid</title>
<path fill="none" stroke="#999999" d="M809.195,-583.4551C809.195,-574.7686 809.195,-564.1898 809.195,-554.642"/>
<polygon fill="#999999" stroke="#999999" points="811.9951,-554.5903 809.195,-546.5904 806.3951,-554.5904 811.9951,-554.5903"/>
</g>
<!-- krijg_ingredientenlijst_van_heks&#45;&gt;pak_tand_van_draak -->
<g id="edge54" class="edge">
<title>krijg_ingredientenlijst_van_heks&#45;&gt;pak_tand_van_draak</title>
<path fill="none" stroke="#999999" d="M836.1388,-291.4551C864.1019,-281.1454 899.2954,-268.1701 928.4625,-257.4165"/>
<polygon fill="#999999" stroke="#999999" points="929.5905,-259.985 936.128,-254.5904 927.6533,-254.7307 929.5905,-259.985"/>
</g>
<!-- pluk_kruiden_in_bos -->
<g id="node46" class="node">
<title>pluk_kruiden_in_bos</title>
<path fill="#3333aa" stroke="#3333aa" d="M584.4513,-218.5C584.4513,-218.5 691.9387,-218.5 691.9387,-218.5 697.9387,-218.5 703.9387,-224.5 703.9387,-230.5 703.9387,-230.5 703.9387,-242.5 703.9387,-242.5 703.9387,-248.5 697.9387,-254.5 691.9387,-254.5 691.9387,-254.5 584.4513,-254.5 584.4513,-254.5 578.4513,-254.5 572.4513,-248.5 572.4513,-242.5 572.4513,-242.5 572.4513,-230.5 572.4513,-230.5 572.4513,-224.5 578.4513,-218.5 584.4513,-218.5"/>
<text text-anchor="middle" x="638.195" y="-232.3" font-family="lato, roboto, helvetica" font-size="14.00" fill="#eeeeee">Pluk Kruiden In Bos</text>
</g>
<!-- krijg_ingredientenlijst_van_heks&#45;&gt;pluk_kruiden_in_bos -->
<g id="edge57" class="edge">
<title>krijg_ingredientenlijst_van_heks&#45;&gt;pluk_kruiden_in_bos</title>
<path fill="none" stroke="#999999" d="M750.3635,-291.4551C729.8579,-281.4087 704.1855,-268.8309 682.5775,-258.2445"/>
<polygon fill="#999999" stroke="#999999" points="683.5352,-255.5957 675.1192,-254.5904 681.0714,-260.6246 683.5352,-255.5957"/>
</g>
<!-- pluk_paddenstoelen_in_woud -->
<g id="node47" class="node">
<title>pluk_paddenstoelen_in_woud</title>
<path fill="#3333aa" stroke="#3333aa" d="M733.7374,-218.5C733.7374,-218.5 888.6526,-218.5 888.6526,-218.5 894.6526,-218.5 900.6526,-224.5 900.6526,-230.5 900.6526,-230.5 900.6526,-242.5 900.6526,-242.5 900.6526,-248.5 894.6526,-254.5 888.6526,-254.5 888.6526,-254.5 733.7374,-254.5 733.7374,-254.5 727.7374,-254.5 721.7374,-248.5 721.7374,-242.5 721.7374,-242.5 721.7374,-230.5 721.7374,-230.5 721.7374,-224.5 727.7374,-218.5 733.7374,-218.5"/>
<text text-anchor="middle" x="811.195" y="-232.3" font-family="lato, roboto, helvetica" font-size="14.00" fill="#eeeeee">Pluk Paddenstoelen In Woud</text>
</g>
<!-- krijg_ingredientenlijst_van_heks&#45;&gt;pluk_paddenstoelen_in_woud -->
<g id="edge58" class="edge">
<title>krijg_ingredientenlijst_van_heks&#45;&gt;pluk_paddenstoelen_in_woud</title>
<path fill="none" stroke="#999999" d="M793.1276,-291.4551C796.0122,-282.6809 799.5317,-271.9759 802.6954,-262.353"/>
<polygon fill="#999999" stroke="#999999" points="805.4088,-263.0647 805.2475,-254.5904 800.0889,-261.3157 805.4088,-263.0647"/>
</g>
<!-- krijg_kapotte_houweel_van_dwerg&#45;&gt;repareer_houweel -->
<g id="edge67" class="edge">
<title>krijg_kapotte_houweel_van_dwerg&#45;&gt;repareer_houweel</title>
<path fill="none" stroke="#999999" d="M637.3748,-1459.4551C640.3796,-1450.6809 644.0457,-1439.9759 647.3412,-1430.353"/>
<polygon fill="#999999" stroke="#999999" points="650.0566,-1431.066 649.9997,-1422.5904 644.7587,-1429.2516 650.0566,-1431.066"/>
</g>
<!-- pak_tand_van_draak&#45;&gt;krijg_medicijn_van_heks -->
<g id="edge40" class="edge">
<title>pak_tand_van_draak&#45;&gt;krijg_medicijn_van_heks</title>
<path fill="none" stroke="#999999" d="M962.2062,-218.4551C950.0222,-208.8912 934.9156,-197.0334 921.8573,-186.7833"/>
<polygon fill="#999999" stroke="#999999" points="923.2634,-184.3275 915.2416,-181.5904 919.8057,-188.7325 923.2634,-184.3275"/>
</g>
<!-- pluk_kruiden_in_bos&#45;&gt;krijg_medicijn_van_heks -->
<g id="edge41" class="edge">
<title>pluk_kruiden_in_bos&#45;&gt;krijg_medicijn_van_heks</title>
<path fill="none" stroke="#999999" d="M700.9815,-218.4551C737.464,-207.9699 783.5401,-194.7276 821.3208,-183.8694"/>
<polygon fill="#999999" stroke="#999999" points="822.3351,-186.4913 829.2505,-181.5904 820.7883,-181.1091 822.3351,-186.4913"/>
</g>
<!-- pluk_paddenstoelen_in_woud&#45;&gt;krijg_medicijn_van_heks -->
<g id="edge42" class="edge">
<title>pluk_paddenstoelen_in_woud&#45;&gt;krijg_medicijn_van_heks</title>
<path fill="none" stroke="#999999" d="M831.2175,-218.4551C841.732,-208.979 854.7455,-197.2508 866.0466,-187.0658"/>
<polygon fill="#999999" stroke="#999999" points="868.0539,-189.0261 872.1221,-181.5904 864.3049,-184.8662 868.0539,-189.0261"/>
</g>
<!-- repareer_molen_met_onderbroek -->
<g id="node48" class="node">
<title>repareer_molen_met_onderbroek</title>
<path fill="#3333aa" stroke="#3333aa" d="M1079.7086,-1240.5C1079.7086,-1240.5 1258.6814,-1240.5 1258.6814,-1240.5 1264.6814,-1240.5 1270.6814,-1246.5 1270.6814,-1252.5 1270.6814,-1252.5 1270.6814,-1264.5 1270.6814,-1264.5 1270.6814,-1270.5 1264.6814,-1276.5 1258.6814,-1276.5 1258.6814,-1276.5 1079.7086,-1276.5 1079.7086,-1276.5 1073.7086,-1276.5 1067.7086,-1270.5 1067.7086,-1264.5 1067.7086,-1264.5 1067.7086,-1252.5 1067.7086,-1252.5 1067.7086,-1246.5 1073.7086,-1240.5 1079.7086,-1240.5"/>
<text text-anchor="middle" x="1169.195" y="-1254.3" font-family="lato, roboto, helvetica" font-size="14.00" fill="#eeeeee">Repareer Molen Met Onderbroek</text>
</g>
<!-- repareer_molen_met_onderbroek&#45;&gt;krijg_meel_bij_molenaar -->
<g id="edge44" class="edge">
<title>repareer_molen_met_onderbroek&#45;&gt;krijg_meel_bij_molenaar</title>
<path fill="none" stroke="#999999" d="M1173.067,-1240.4441C1180.7141,-1208.1654 1200.3006,-1139.6762 1237.195,-1094 1247.359,-1081.4167 1261.1747,-1070.5397 1274.411,-1061.8843"/>
<polygon fill="#999999" stroke="#999999" points="1275.9865,-1064.201 1281.2575,-1057.5634 1272.9977,-1059.4653 1275.9865,-1064.201"/>
</g>
<!-- krijg_plant_hint_van_bakker -->
<g id="node49" class="node">
<title>krijg_plant_hint_van_bakker</title>
<path fill="#3333aa" stroke="#3333aa" d="M412.7139,-1386.5C412.7139,-1386.5 565.6761,-1386.5 565.6761,-1386.5 571.6761,-1386.5 577.6761,-1392.5 577.6761,-1398.5 577.6761,-1398.5 577.6761,-1410.5 577.6761,-1410.5 577.6761,-1416.5 571.6761,-1422.5 565.6761,-1422.5 565.6761,-1422.5 412.7139,-1422.5 412.7139,-1422.5 406.7139,-1422.5 400.7139,-1416.5 400.7139,-1410.5 400.7139,-1410.5 400.7139,-1398.5 400.7139,-1398.5 400.7139,-1392.5 406.7139,-1386.5 412.7139,-1386.5"/>
<text text-anchor="middle" x="489.195" y="-1400.3" font-family="lato, roboto, helvetica" font-size="14.00" fill="#eeeeee">Krijg Plant Hint Van Bakker</text>
</g>
<!-- vind_maansteen_in_moeras -->
<g id="node62" class="node">
<title>vind_maansteen_in_moeras</title>
<path fill="#3333aa" stroke="#3333aa" d="M416.8075,-1313.5C416.8075,-1313.5 561.5825,-1313.5 561.5825,-1313.5 567.5825,-1313.5 573.5825,-1319.5 573.5825,-1325.5 573.5825,-1325.5 573.5825,-1337.5 573.5825,-1337.5 573.5825,-1343.5 567.5825,-1349.5 561.5825,-1349.5 561.5825,-1349.5 416.8075,-1349.5 416.8075,-1349.5 410.8075,-1349.5 404.8075,-1343.5 404.8075,-1337.5 404.8075,-1337.5 404.8075,-1325.5 404.8075,-1325.5 404.8075,-1319.5 410.8075,-1313.5 416.8075,-1313.5"/>
<text text-anchor="middle" x="489.195" y="-1327.3" font-family="lato, roboto, helvetica" font-size="14.00" fill="#eeeeee">Vind Maansteen In Moeras</text>
</g>
<!-- krijg_plant_hint_van_bakker&#45;&gt;vind_maansteen_in_moeras -->
<g id="edge77" class="edge">
<title>krijg_plant_hint_van_bakker&#45;&gt;vind_maansteen_in_moeras</title>
<path fill="none" stroke="#999999" d="M489.195,-1386.4551C489.195,-1377.7686 489.195,-1367.1898 489.195,-1357.642"/>
<polygon fill="#999999" stroke="#999999" points="491.9951,-1357.5903 489.195,-1349.5904 486.3951,-1357.5904 491.9951,-1357.5903"/>
</g>
<!-- krijg_schat_onderwerp -->
<g id="node50" class="node">
<title>krijg_schat_onderwerp</title>
<path fill="#3333aa" stroke="#3333aa" d="M240.8878,-1459.5C240.8878,-1459.5 363.5022,-1459.5 363.5022,-1459.5 369.5022,-1459.5 375.5022,-1465.5 375.5022,-1471.5 375.5022,-1471.5 375.5022,-1483.5 375.5022,-1483.5 375.5022,-1489.5 369.5022,-1495.5 363.5022,-1495.5 363.5022,-1495.5 240.8878,-1495.5 240.8878,-1495.5 234.8878,-1495.5 228.8878,-1489.5 228.8878,-1483.5 228.8878,-1483.5 228.8878,-1471.5 228.8878,-1471.5 228.8878,-1465.5 234.8878,-1459.5 240.8878,-1459.5"/>
<text text-anchor="middle" x="302.195" y="-1473.3" font-family="lato, roboto, helvetica" font-size="14.00" fill="#eeeeee">Krijg Schat Onderwerp</text>
</g>
<!-- krijg_schat_onderwerp&#45;&gt;krijg_plant_hint_van_bakker -->
<g id="edge45" class="edge">
<title>krijg_schat_onderwerp&#45;&gt;krijg_plant_hint_van_bakker</title>
<path fill="none" stroke="#999999" d="M348.4197,-1459.4551C374.7169,-1449.1893 407.7848,-1436.2804 435.2624,-1425.5539"/>
<polygon fill="#999999" stroke="#999999" points="436.4199,-1428.1079 442.8539,-1422.5904 434.3834,-1422.8913 436.4199,-1428.1079"/>
</g>
<!-- krijg_rivier_hint_van_molenaar -->
<g id="node51" class="node">
<title>krijg_rivier_hint_van_molenaar</title>
<path fill="#3333aa" stroke="#3333aa" d="M12,-1386.5C12,-1386.5 184.39,-1386.5 184.39,-1386.5 190.39,-1386.5 196.39,-1392.5 196.39,-1398.5 196.39,-1398.5 196.39,-1410.5 196.39,-1410.5 196.39,-1416.5 190.39,-1422.5 184.39,-1422.5 184.39,-1422.5 12,-1422.5 12,-1422.5 6,-1422.5 0,-1416.5 0,-1410.5 0,-1410.5 0,-1398.5 0,-1398.5 0,-1392.5 6,-1386.5 12,-1386.5"/>
<text text-anchor="middle" x="98.195" y="-1400.3" font-family="lato, roboto, helvetica" font-size="14.00" fill="#eeeeee">Krijg Rivier Hint Van Molenaar</text>
</g>
<!-- krijg_schat_onderwerp&#45;&gt;krijg_rivier_hint_van_molenaar -->
<g id="edge46" class="edge">
<title>krijg_schat_onderwerp&#45;&gt;krijg_rivier_hint_van_molenaar</title>
<path fill="none" stroke="#999999" d="M251.768,-1459.4551C222.9576,-1449.1454 186.6977,-1436.1701 156.6466,-1425.4165"/>
<polygon fill="#999999" stroke="#999999" points="157.2246,-1422.6495 148.7489,-1422.5904 155.3377,-1427.9221 157.2246,-1422.6495"/>
</g>
<!-- krijg_route_hint_van_boer -->
<g id="node52" class="node">
<title>krijg_route_hint_van_boer</title>
<path fill="#3333aa" stroke="#3333aa" d="M225.9895,-1386.5C225.9895,-1386.5 370.4005,-1386.5 370.4005,-1386.5 376.4005,-1386.5 382.4005,-1392.5 382.4005,-1398.5 382.4005,-1398.5 382.4005,-1410.5 382.4005,-1410.5 382.4005,-1416.5 376.4005,-1422.5 370.4005,-1422.5 370.4005,-1422.5 225.9895,-1422.5 225.9895,-1422.5 219.9895,-1422.5 213.9895,-1416.5 213.9895,-1410.5 213.9895,-1410.5 213.9895,-1398.5 213.9895,-1398.5 213.9895,-1392.5 219.9895,-1386.5 225.9895,-1386.5"/>
<text text-anchor="middle" x="298.195" y="-1400.3" font-family="lato, roboto, helvetica" font-size="14.00" fill="#eeeeee">Krijg Route Hint Van Boer</text>
</g>
<!-- krijg_schat_onderwerp&#45;&gt;krijg_route_hint_van_boer -->
<g id="edge47" class="edge">
<title>krijg_schat_onderwerp&#45;&gt;krijg_route_hint_van_boer</title>
<path fill="none" stroke="#999999" d="M301.2062,-1459.4551C300.7303,-1450.7686 300.1506,-1440.1898 299.6274,-1430.642"/>
<polygon fill="#999999" stroke="#999999" points="302.4199,-1430.4251 299.1863,-1422.5904 296.8282,-1430.7316 302.4199,-1430.4251"/>
</g>
<!-- schat_route_compleet -->
<g id="node59" class="node">
<title>schat_route_compleet</title>
<path fill="#3333aa" stroke="#3333aa" d="M239.2041,-1313.5C239.2041,-1313.5 357.1859,-1313.5 357.1859,-1313.5 363.1859,-1313.5 369.1859,-1319.5 369.1859,-1325.5 369.1859,-1325.5 369.1859,-1337.5 369.1859,-1337.5 369.1859,-1343.5 363.1859,-1349.5 357.1859,-1349.5 357.1859,-1349.5 239.2041,-1349.5 239.2041,-1349.5 233.2041,-1349.5 227.2041,-1343.5 227.2041,-1337.5 227.2041,-1337.5 227.2041,-1325.5 227.2041,-1325.5 227.2041,-1319.5 233.2041,-1313.5 239.2041,-1313.5"/>
<text text-anchor="middle" x="298.195" y="-1327.3" font-family="lato, roboto, helvetica" font-size="14.00" fill="#eeeeee">Schat Route Compleet</text>
</g>
<!-- krijg_rivier_hint_van_molenaar&#45;&gt;schat_route_compleet -->
<g id="edge69" class="edge">
<title>krijg_rivier_hint_van_molenaar&#45;&gt;schat_route_compleet</title>
<path fill="none" stroke="#999999" d="M147.6332,-1386.4551C175.8788,-1376.1454 211.4277,-1363.1701 240.8895,-1352.4165"/>
<polygon fill="#999999" stroke="#999999" points="242.0774,-1354.9637 248.6324,-1349.5904 240.1572,-1349.7031 242.0774,-1354.9637"/>
</g>
<!-- krijg_route_hint_van_boer&#45;&gt;schat_route_compleet -->
<g id="edge70" class="edge">
<title>krijg_route_hint_van_boer&#45;&gt;schat_route_compleet</title>
<path fill="none" stroke="#999999" d="M298.195,-1386.4551C298.195,-1377.7686 298.195,-1367.1898 298.195,-1357.642"/>
<polygon fill="#999999" stroke="#999999" points="300.9951,-1357.5903 298.195,-1349.5904 295.3951,-1357.5904 300.9951,-1357.5903"/>
</g>
<!-- praat_met_smidsen&#45;&gt;krijg_schat_onderwerp -->
<g id="edge48" class="edge">
<title>praat_met_smidsen&#45;&gt;krijg_schat_onderwerp</title>
<path fill="none" stroke="#999999" d="M359.4085,-1532.4551C349.6343,-1523.0667 337.5587,-1511.4678 327.0242,-1501.3491"/>
<polygon fill="#999999" stroke="#999999" points="328.7381,-1499.1129 321.0288,-1495.5904 324.8588,-1503.1516 328.7381,-1499.1129"/>
</g>
<!-- praat_met_dochter_van_bakker&#45;&gt;leg_molensteen_op_lift -->
<g id="edge50" class="edge">
<title>praat_met_dochter_van_bakker&#45;&gt;leg_molensteen_op_lift</title>
<path fill="none" stroke="#999999" d="M1214.6444,-656.4551C1216.7863,-647.7686 1219.3948,-637.1898 1221.749,-627.642"/>
<polygon fill="#999999" stroke="#999999" points="1224.5376,-628.0281 1223.7344,-619.5904 1219.1005,-626.6874 1224.5376,-628.0281"/>
</g>
<!-- vind_goud_in_bos -->
<g id="node55" class="node">
<title>vind_goud_in_bos</title>
<path fill="#3333aa" stroke="#3333aa" d="M480.6722,-1094.5C480.6722,-1094.5 575.7178,-1094.5 575.7178,-1094.5 581.7178,-1094.5 587.7178,-1100.5 587.7178,-1106.5 587.7178,-1106.5 587.7178,-1118.5 587.7178,-1118.5 587.7178,-1124.5 581.7178,-1130.5 575.7178,-1130.5 575.7178,-1130.5 480.6722,-1130.5 480.6722,-1130.5 474.6722,-1130.5 468.6722,-1124.5 468.6722,-1118.5 468.6722,-1118.5 468.6722,-1106.5 468.6722,-1106.5 468.6722,-1100.5 474.6722,-1094.5 480.6722,-1094.5"/>
<text text-anchor="middle" x="528.195" y="-1108.3" font-family="lato, roboto, helvetica" font-size="14.00" fill="#eeeeee">Vind Goud In Bos</text>
</g>
<!-- vind_goud_in_bos&#45;&gt;maak_sieraad_bij_smid -->
<g id="edge52" class="edge">
<title>vind_goud_in_bos&#45;&gt;maak_sieraad_bij_smid</title>
<path fill="none" stroke="#999999" d="M548.8443,-1094.4736C575.6931,-1068.9223 619.195,-1019.3658 619.195,-966.5 619.195,-966.5 619.195,-966.5 619.195,-747.5 619.195,-663.0728 654.4103,-642.6133 714.195,-583 727.2724,-569.9601 744.1011,-558.97 759.9523,-550.3513"/>
<polygon fill="#999999" stroke="#999999" points="761.377,-552.7656 767.1496,-546.5594 758.7666,-547.8112 761.377,-552.7656"/>
</g>
<!-- pak_hout_in_bos&#45;&gt;repareer_houweel -->
<g id="edge66" class="edge">
<title>pak_hout_in_bos&#45;&gt;repareer_houweel</title>
<path fill="none" stroke="#999999" d="M501.8692,-1459.4551C530.9441,-1449.1016 567.5687,-1436.0596 597.842,-1425.2794"/>
<polygon fill="#999999" stroke="#999999" points="598.7962,-1427.9119 605.3933,-1422.5904 596.9176,-1422.6364 598.7962,-1427.9119"/>
</g>
<!-- praat_met_boer&#45;&gt;zet_graan_op_wagen -->
<g id="edge83" class="edge">
<title>praat_met_boer&#45;&gt;zet_graan_op_wagen</title>
<path fill="none" stroke="#999999" d="M1517.7379,-1532.3942C1532.711,-1523.1496 1549.4619,-1510.7309 1561.195,-1496 1588.5243,-1461.6881 1598.195,-1448.3657 1598.195,-1404.5 1598.195,-1404.5 1598.195,-1404.5 1598.195,-1331.5 1598.195,-1284.943 1581.4894,-1271.4873 1547.195,-1240 1531.8381,-1225.9001 1512.2198,-1214.9587 1493.2713,-1206.7046"/>
<polygon fill="#999999" stroke="#999999" points="1494.2327,-1204.0716 1485.7724,-1203.5585 1492.0662,-1209.2355 1494.2327,-1204.0716"/>
</g>
<!-- praat_met_boer&#45;&gt;vind_paard_bij_rivier -->
<g id="edge79" class="edge">
<title>praat_met_boer&#45;&gt;vind_paard_bij_rivier</title>
<path fill="none" stroke="#999999" d="M1483.195,-1532.4551C1483.195,-1523.7686 1483.195,-1513.1898 1483.195,-1503.642"/>
<polygon fill="#999999" stroke="#999999" points="1485.9951,-1503.5903 1483.195,-1495.5904 1480.3951,-1503.5904 1485.9951,-1503.5903"/>
</g>
<!-- vind_onderbroek_bij_rivier&#45;&gt;repareer_molen_met_onderbroek -->
<g id="edge68" class="edge">
<title>vind_onderbroek_bij_rivier&#45;&gt;repareer_molen_met_onderbroek</title>
<path fill="none" stroke="#999999" d="M1139.8355,-1313.4551C1144.6168,-1304.5054 1150.4713,-1293.547 1155.6909,-1283.7769"/>
<polygon fill="#999999" stroke="#999999" points="1158.2302,-1284.9659 1159.5303,-1276.5904 1153.2909,-1282.3271 1158.2302,-1284.9659"/>
</g>
<!-- volg_maansteen_route -->
<g id="node61" class="node">
<title>volg_maansteen_route</title>
<path fill="#3333aa" stroke="#3333aa" d="M428.6564,-1240.5C428.6564,-1240.5 549.7336,-1240.5 549.7336,-1240.5 555.7336,-1240.5 561.7336,-1246.5 561.7336,-1252.5 561.7336,-1252.5 561.7336,-1264.5 561.7336,-1264.5 561.7336,-1270.5 555.7336,-1276.5 549.7336,-1276.5 549.7336,-1276.5 428.6564,-1276.5 428.6564,-1276.5 422.6564,-1276.5 416.6564,-1270.5 416.6564,-1264.5 416.6564,-1264.5 416.6564,-1252.5 416.6564,-1252.5 416.6564,-1246.5 422.6564,-1240.5 428.6564,-1240.5"/>
<text text-anchor="middle" x="489.195" y="-1254.3" font-family="lato, roboto, helvetica" font-size="14.00" fill="#eeeeee">Volg Maansteen Route</text>
</g>
<!-- schat_route_compleet&#45;&gt;volg_maansteen_route -->
<g id="edge81" class="edge">
<title>schat_route_compleet&#45;&gt;volg_maansteen_route</title>
<path fill="none" stroke="#999999" d="M345.4085,-1313.4551C372.2682,-1303.1893 406.0434,-1290.2804 434.1087,-1279.5539"/>
<polygon fill="#999999" stroke="#999999" points="435.3895,-1282.062 441.8627,-1276.5904 433.3902,-1276.831 435.3895,-1282.062"/>
</g>
<!-- snij_touw_van_lift&#45;&gt;trek_tand_van_draak -->
<g id="edge75" class="edge">
<title>snij_touw_van_lift&#45;&gt;trek_tand_van_draak</title>
<path fill="none" stroke="#999999" d="M1117.7793,-364.4551C1114.1374,-355.5932 1109.6861,-344.7616 1105.701,-335.0646"/>
<polygon fill="#999999" stroke="#999999" points="1108.2602,-333.9256 1102.6294,-327.5904 1103.0805,-336.0542 1108.2602,-333.9256"/>
</g>
<!-- volg_maansteen_route&#45;&gt;vind_goud_in_bos -->
<g id="edge76" class="edge">
<title>volg_maansteen_route&#45;&gt;vind_goud_in_bos</title>
<path fill="none" stroke="#999999" d="M494.0555,-1240.3042C500.8867,-1214.7311 513.3665,-1168.0119 521.1966,-1138.6992"/>
<polygon fill="#999999" stroke="#999999" points="523.9137,-1139.3767 523.2732,-1130.9251 518.5034,-1137.9315 523.9137,-1139.3767"/>
</g>
<!-- vind_maansteen_in_moeras&#45;&gt;volg_maansteen_route -->
<g id="edge80" class="edge">
<title>vind_maansteen_in_moeras&#45;&gt;volg_maansteen_route</title>
<path fill="none" stroke="#999999" d="M489.195,-1313.4551C489.195,-1304.7686 489.195,-1294.1898 489.195,-1284.642"/>
<polygon fill="#999999" stroke="#999999" points="491.9951,-1284.5903 489.195,-1276.5904 486.3951,-1284.5904 491.9951,-1284.5903"/>
</g>
</g>
</svg>
