<?xml version="1.0" encoding="UTF-8" standalone="no"?>
<!DOCTYPE svg PUBLIC "-//W3C//DTD SVG 1.1//EN"
 "http://www.w3.org/Graphics/SVG/1.1/DTD/svg11.dtd">
<!-- Generated by graphviz version 2.40.1 (20161225.0304)
 -->
<!-- Title: G Pages: 1 -->
<svg width="1664pt" height="1973pt"
 viewBox="0.00 0.00 1663.81 1973.00" xmlns="http://www.w3.org/2000/svg" xmlns:xlink="http://www.w3.org/1999/xlink">
<g id="graph0" class="graph" transform="scale(1 1) rotate(0) translate(4 1969)">
<title>G</title>
<polygon fill="#ffffff" stroke="transparent" points="-4,4 -4,-1969 1659.8062,-1969 1659.8062,4 -4,4"/>
<text text-anchor="middle" x="827.9031" y="-1943" font-family="lato, roboto, helvetica" font-size="20.00" fill="#000000">Avontuur</text>
<!-- START -->
<g id="node1" class="node">
<title>START</title>
<polygon fill="#333333" stroke="#333333" points="796.195,-1933 737.489,-1915 796.195,-1897 854.901,-1915 796.195,-1933"/>
<polyline fill="none" stroke="#333333" points="748.9618,-1918.5177 748.9618,-1911.4823 "/>
<polyline fill="none" stroke="#333333" points="784.7222,-1900.5177 807.6678,-1900.5177 "/>
<polyline fill="none" stroke="#333333" points="843.4282,-1911.4823 843.4282,-1918.5177 "/>
<polyline fill="none" stroke="#333333" points="807.6678,-1929.4823 784.7222,-1929.4823 "/>
<text text-anchor="middle" x="796.195" y="-1910.8" font-family="lato, roboto, helvetica" font-size="14.00" fill="#dddddd">START</text>
</g>
<!-- betaal_twee_geldstukken -->
<g id="node5" class="node">
<title>betaal_twee_geldstukken</title>
<path fill="#008800" stroke="#008800" d="M673.8892,-1824.5C673.8892,-1824.5 810.5008,-1824.5 810.5008,-1824.5 816.5008,-1824.5 822.5008,-1830.5 822.5008,-1836.5 822.5008,-1836.5 822.5008,-1848.5 822.5008,-1848.5 822.5008,-1854.5 816.5008,-1860.5 810.5008,-1860.5 810.5008,-1860.5 673.8892,-1860.5 673.8892,-1860.5 667.8892,-1860.5 661.8892,-1854.5 661.8892,-1848.5 661.8892,-1848.5 661.8892,-1836.5 661.8892,-1836.5 661.8892,-1830.5 667.8892,-1824.5 673.8892,-1824.5"/>
<text text-anchor="middle" x="742.195" y="-1838.3" font-family="lato, roboto, helvetica" font-size="14.00" fill="#eeeeee">Betaal Twee Geldstukken</text>
</g>
<!-- START&#45;&gt;betaal_twee_geldstukken -->
<g id="edge3" class="edge">
<title>START&#45;&gt;betaal_twee_geldstukken</title>
<path fill="none" stroke="#999999" d="M785.2673,-1900.3285C778.2234,-1890.8715 768.8849,-1878.3336 760.7041,-1867.3502"/>
<polygon fill="#999999" stroke="#999999" points="762.8153,-1865.4972 755.791,-1860.7539 758.3242,-1868.8423 762.8153,-1865.4972"/>
</g>
<!-- praat_met_bakker -->
<g id="node21" class="node">
<title>praat_met_bakker</title>
<path fill="#008800" stroke="#008800" d="M1095.8254,-1167.5C1095.8254,-1167.5 1186.5646,-1167.5 1186.5646,-1167.5 1192.5646,-1167.5 1198.5646,-1173.5 1198.5646,-1179.5 1198.5646,-1179.5 1198.5646,-1191.5 1198.5646,-1191.5 1198.5646,-1197.5 1192.5646,-1203.5 1186.5646,-1203.5 1186.5646,-1203.5 1095.8254,-1203.5 1095.8254,-1203.5 1089.8254,-1203.5 1083.8254,-1197.5 1083.8254,-1191.5 1083.8254,-1191.5 1083.8254,-1179.5 1083.8254,-1179.5 1083.8254,-1173.5 1089.8254,-1167.5 1095.8254,-1167.5"/>
<text text-anchor="middle" x="1141.195" y="-1181.3" font-family="lato, roboto, helvetica" font-size="14.00" fill="#eeeeee">Praat Met Bakker</text>
</g>
<!-- START&#45;&gt;praat_met_bakker -->
<g id="edge72" class="edge">
<title>START&#45;&gt;praat_met_bakker</title>
<path fill="none" stroke="#999999" d="M829.3419,-1907.1006C900.6931,-1888.1172 1067.9621,-1832.532 1137.195,-1715 1174.3131,-1651.987 1141.195,-1623.6327 1141.195,-1550.5 1141.195,-1550.5 1141.195,-1550.5 1141.195,-1331.5 1141.195,-1289.7434 1141.195,-1241.2692 1141.195,-1212.0145"/>
<polygon fill="#999999" stroke="#999999" points="1143.9951,-1211.9379 1141.195,-1203.938 1138.3951,-1211.938 1143.9951,-1211.9379"/>
</g>
<!-- praat_met_dwerg -->
<g id="node25" class="node">
<title>praat_met_dwerg</title>
<path fill="#008800" stroke="#008800" d="M542.9944,-1824.5C542.9944,-1824.5 631.3956,-1824.5 631.3956,-1824.5 637.3956,-1824.5 643.3956,-1830.5 643.3956,-1836.5 643.3956,-1836.5 643.3956,-1848.5 643.3956,-1848.5 643.3956,-1854.5 637.3956,-1860.5 631.3956,-1860.5 631.3956,-1860.5 542.9944,-1860.5 542.9944,-1860.5 536.9944,-1860.5 530.9944,-1854.5 530.9944,-1848.5 530.9944,-1848.5 530.9944,-1836.5 530.9944,-1836.5 530.9944,-1830.5 536.9944,-1824.5 542.9944,-1824.5"/>
<text text-anchor="middle" x="587.195" y="-1838.3" font-family="lato, roboto, helvetica" font-size="14.00" fill="#eeeeee">Praat Met Dwerg</text>
</g>
<!-- START&#45;&gt;praat_met_dwerg -->
<g id="edge76" class="edge">
<title>START&#45;&gt;praat_met_dwerg</title>
<path fill="none" stroke="#999999" d="M768.4414,-1905.3726C737.628,-1894.6837 686.9737,-1877.1122 647.0374,-1863.2587"/>
<polygon fill="#999999" stroke="#999999" points="647.6779,-1860.5173 639.2021,-1860.5407 645.8426,-1865.808 647.6779,-1860.5173"/>
</g>
<!-- praat_met_boer -->
<g id="node33" class="node">
<title>praat_met_boer</title>
<path fill="#008800" stroke="#008800" d="M1513.4327,-1824.5C1513.4327,-1824.5 1590.9573,-1824.5 1590.9573,-1824.5 1596.9573,-1824.5 1602.9573,-1830.5 1602.9573,-1836.5 1602.9573,-1836.5 1602.9573,-1848.5 1602.9573,-1848.5 1602.9573,-1854.5 1596.9573,-1860.5 1590.9573,-1860.5 1590.9573,-1860.5 1513.4327,-1860.5 1513.4327,-1860.5 1507.4327,-1860.5 1501.4327,-1854.5 1501.4327,-1848.5 1501.4327,-1848.5 1501.4327,-1836.5 1501.4327,-1836.5 1501.4327,-1830.5 1507.4327,-1824.5 1513.4327,-1824.5"/>
<text text-anchor="middle" x="1552.195" y="-1838.3" font-family="lato, roboto, helvetica" font-size="14.00" fill="#eeeeee">Praat Met Boer</text>
</g>
<!-- START&#45;&gt;praat_met_boer -->
<g id="edge73" class="edge">
<title>START&#45;&gt;praat_met_boer</title>
<path fill="none" stroke="#999999" d="M841.3559,-1910.8123C937.8855,-1901.843 1171.4599,-1880.042 1367.195,-1861 1409.3084,-1856.903 1456.8001,-1852.1511 1493.1199,-1848.4892"/>
<polygon fill="#999999" stroke="#999999" points="1493.4832,-1851.2668 1501.1617,-1847.6778 1492.921,-1845.6951 1493.4832,-1851.2668"/>
</g>
<!-- pak_touw_op_boerderij -->
<g id="node39" class="node">
<title>pak_touw_op_boerderij</title>
<path fill="#008800" stroke="#008800" d="M942.1294,-802.5C942.1294,-802.5 1068.2606,-802.5 1068.2606,-802.5 1074.2606,-802.5 1080.2606,-808.5 1080.2606,-814.5 1080.2606,-814.5 1080.2606,-826.5 1080.2606,-826.5 1080.2606,-832.5 1074.2606,-838.5 1068.2606,-838.5 1068.2606,-838.5 942.1294,-838.5 942.1294,-838.5 936.1294,-838.5 930.1294,-832.5 930.1294,-826.5 930.1294,-826.5 930.1294,-814.5 930.1294,-814.5 930.1294,-808.5 936.1294,-802.5 942.1294,-802.5"/>
<text text-anchor="middle" x="1005.195" y="-816.3" font-family="lato, roboto, helvetica" font-size="14.00" fill="#eeeeee">Pak Touw Op Boerderij</text>
</g>
<!-- START&#45;&gt;pak_touw_op_boerderij -->
<g id="edge67" class="edge">
<title>START&#45;&gt;pak_touw_op_boerderij</title>
<path fill="none" stroke="#999999" d="M808.4181,-1900.4384C816.3524,-1890.1148 826.1271,-1875.5606 831.195,-1861 892.833,-1683.9089 847.0498,-1197.1984 911.195,-1021 931.3113,-965.7432 963.0947,-966.0773 986.195,-912 995.1486,-891.0397 999.9971,-865.5293 1002.5496,-846.7747"/>
<polygon fill="#999999" stroke="#999999" points="1005.3482,-846.9604 1003.5674,-838.6737 999.7919,-846.2623 1005.3482,-846.9604"/>
</g>
<!-- praat_met_smidsen -->
<g id="node50" class="node">
<title>praat_met_smidsen</title>
<path fill="#008800" stroke="#008800" d="M248.9271,-1459.5C248.9271,-1459.5 347.4629,-1459.5 347.4629,-1459.5 353.4629,-1459.5 359.4629,-1465.5 359.4629,-1471.5 359.4629,-1471.5 359.4629,-1483.5 359.4629,-1483.5 359.4629,-1489.5 353.4629,-1495.5 347.4629,-1495.5 347.4629,-1495.5 248.9271,-1495.5 248.9271,-1495.5 242.9271,-1495.5 236.9271,-1489.5 236.9271,-1483.5 236.9271,-1483.5 236.9271,-1471.5 236.9271,-1471.5 236.9271,-1465.5 242.9271,-1459.5 248.9271,-1459.5"/>
<text text-anchor="middle" x="298.195" y="-1473.3" font-family="lato, roboto, helvetica" font-size="14.00" fill="#eeeeee">Praat Met Smidsen</text>
</g>
<!-- START&#45;&gt;praat_met_smidsen -->
<g id="edge78" class="edge">
<title>START&#45;&gt;praat_met_smidsen</title>
<path fill="none" stroke="#999999" d="M748.8954,-1911.3348C624.5862,-1900.41 298.195,-1862.8381 298.195,-1769.5 298.195,-1769.5 298.195,-1769.5 298.195,-1623.5 298.195,-1581.7434 298.195,-1533.2692 298.195,-1504.0145"/>
<polygon fill="#999999" stroke="#999999" points="300.9951,-1503.9379 298.195,-1495.938 295.3951,-1503.938 300.9951,-1503.9379"/>
</g>
<!-- pak_hout_in_bos -->
<g id="node64" class="node">
<title>pak_hout_in_bos</title>
<path fill="#008800" stroke="#008800" d="M337.7269,-1751.5C337.7269,-1751.5 422.6631,-1751.5 422.6631,-1751.5 428.6631,-1751.5 434.6631,-1757.5 434.6631,-1763.5 434.6631,-1763.5 434.6631,-1775.5 434.6631,-1775.5 434.6631,-1781.5 428.6631,-1787.5 422.6631,-1787.5 422.6631,-1787.5 337.7269,-1787.5 337.7269,-1787.5 331.7269,-1787.5 325.7269,-1781.5 325.7269,-1775.5 325.7269,-1775.5 325.7269,-1763.5 325.7269,-1763.5 325.7269,-1757.5 331.7269,-1751.5 337.7269,-1751.5"/>
<text text-anchor="middle" x="380.195" y="-1765.3" font-family="lato, roboto, helvetica" font-size="14.00" fill="#eeeeee">Pak Hout In Bos</text>
</g>
<!-- START&#45;&gt;pak_hout_in_bos -->
<g id="edge63" class="edge">
<title>START&#45;&gt;pak_hout_in_bos</title>
<path fill="none" stroke="#999999" d="M749.5907,-1911.2027C693.816,-1905.4528 598.4067,-1891.7493 522.195,-1861 479.8225,-1843.9039 436.4315,-1813.7275 408.9552,-1792.7237"/>
<polygon fill="#999999" stroke="#999999" points="410.3643,-1790.2738 402.3229,-1787.5949 406.9386,-1794.7038 410.3643,-1790.2738"/>
</g>
<!-- vind_onderbroek_bij_rivier -->
<g id="node67" class="node">
<title>vind_onderbroek_bij_rivier</title>
<path fill="#008800" stroke="#008800" d="M1196.4625,-1824.5C1196.4625,-1824.5 1345.9275,-1824.5 1345.9275,-1824.5 1351.9275,-1824.5 1357.9275,-1830.5 1357.9275,-1836.5 1357.9275,-1836.5 1357.9275,-1848.5 1357.9275,-1848.5 1357.9275,-1854.5 1351.9275,-1860.5 1345.9275,-1860.5 1345.9275,-1860.5 1196.4625,-1860.5 1196.4625,-1860.5 1190.4625,-1860.5 1184.4625,-1854.5 1184.4625,-1848.5 1184.4625,-1848.5 1184.4625,-1836.5 1184.4625,-1836.5 1184.4625,-1830.5 1190.4625,-1824.5 1196.4625,-1824.5"/>
<text text-anchor="middle" x="1271.195" y="-1838.3" font-family="lato, roboto, helvetica" font-size="14.00" fill="#eeeeee">Vind Onderbroek Bij Rivier</text>
</g>
<!-- START&#45;&gt;vind_onderbroek_bij_rivier -->
<g id="edge92" class="edge">
<title>START&#45;&gt;vind_onderbroek_bij_rivier</title>
<path fill="none" stroke="#999999" d="M837.5033,-1909.5548C906.5242,-1900.3404 1049.6131,-1880.7413 1170.195,-1861 1172.2346,-1860.6661 1174.2966,-1860.3245 1176.3748,-1859.9765"/>
<polygon fill="#999999" stroke="#999999" points="1177.0385,-1862.7041 1184.4579,-1858.6061 1176.1024,-1857.1828 1177.0385,-1862.7041"/>
</g>
<!-- beklim_toren -->
<g id="node2" class="node">
<title>beklim_toren</title>
<path fill="#008800" stroke="#008800" d="M1266.1196,-1021.5C1266.1196,-1021.5 1336.2704,-1021.5 1336.2704,-1021.5 1342.2704,-1021.5 1348.2704,-1027.5 1348.2704,-1033.5 1348.2704,-1033.5 1348.2704,-1045.5 1348.2704,-1045.5 1348.2704,-1051.5 1342.2704,-1057.5 1336.2704,-1057.5 1336.2704,-1057.5 1266.1196,-1057.5 1266.1196,-1057.5 1260.1196,-1057.5 1254.1196,-1051.5 1254.1196,-1045.5 1254.1196,-1045.5 1254.1196,-1033.5 1254.1196,-1033.5 1254.1196,-1027.5 1260.1196,-1021.5 1266.1196,-1021.5"/>
<text text-anchor="middle" x="1301.195" y="-1035.3" font-family="lato, roboto, helvetica" font-size="14.00" fill="#eeeeee">Beklim Toren</text>
</g>
<!-- praat_met_dochter_van_bakker -->
<g id="node56" class="node">
<title>praat_met_dochter_van_bakker</title>
<path fill="#008800" stroke="#008800" d="M1218.1213,-948.5C1218.1213,-948.5 1384.2687,-948.5 1384.2687,-948.5 1390.2687,-948.5 1396.2687,-954.5 1396.2687,-960.5 1396.2687,-960.5 1396.2687,-972.5 1396.2687,-972.5 1396.2687,-978.5 1390.2687,-984.5 1384.2687,-984.5 1384.2687,-984.5 1218.1213,-984.5 1218.1213,-984.5 1212.1213,-984.5 1206.1213,-978.5 1206.1213,-972.5 1206.1213,-972.5 1206.1213,-960.5 1206.1213,-960.5 1206.1213,-954.5 1212.1213,-948.5 1218.1213,-948.5"/>
<text text-anchor="middle" x="1301.195" y="-962.3" font-family="lato, roboto, helvetica" font-size="14.00" fill="#eeeeee">Praat Met Dochter Van Bakker</text>
</g>
<!-- beklim_toren&#45;&gt;praat_met_dochter_van_bakker -->
<g id="edge74" class="edge">
<title>beklim_toren&#45;&gt;praat_met_dochter_van_bakker</title>
<path fill="none" stroke="#999999" d="M1301.195,-1021.4551C1301.195,-1012.7686 1301.195,-1002.1898 1301.195,-992.642"/>
<polygon fill="#999999" stroke="#999999" points="1303.9951,-992.5903 1301.195,-984.5904 1298.3951,-992.5904 1303.9951,-992.5903"/>
</g>
<!-- koop_zwaard_voor_99_bij_wapensmid -->
<g id="node3" class="node">
<title>koop_zwaard_voor_99_bij_wapensmid</title>
<path fill="#008800" stroke="#008800" d="M1035.1399,-1094.5C1035.1399,-1094.5 1245.2501,-1094.5 1245.2501,-1094.5 1251.2501,-1094.5 1257.2501,-1100.5 1257.2501,-1106.5 1257.2501,-1106.5 1257.2501,-1118.5 1257.2501,-1118.5 1257.2501,-1124.5 1251.2501,-1130.5 1245.2501,-1130.5 1245.2501,-1130.5 1035.1399,-1130.5 1035.1399,-1130.5 1029.1399,-1130.5 1023.1399,-1124.5 1023.1399,-1118.5 1023.1399,-1118.5 1023.1399,-1106.5 1023.1399,-1106.5 1023.1399,-1100.5 1029.1399,-1094.5 1035.1399,-1094.5"/>
<text text-anchor="middle" x="1140.195" y="-1108.3" font-family="lato, roboto, helvetica" font-size="14.00" fill="#eeeeee">Koop Zwaard Voor 99 Bij Wapensmid</text>
</g>
<!-- koop_zwaard_voor_99_bij_wapensmid&#45;&gt;beklim_toren -->
<g id="edge1" class="edge">
<title>koop_zwaard_voor_99_bij_wapensmid&#45;&gt;beklim_toren</title>
<path fill="none" stroke="#999999" d="M1179.9928,-1094.4551C1202.3434,-1084.3209 1230.3748,-1071.611 1253.8488,-1060.9675"/>
<polygon fill="#999999" stroke="#999999" points="1255.1673,-1063.4441 1261.2971,-1057.5904 1252.8548,-1058.3439 1255.1673,-1063.4441"/>
</g>
<!-- genoeg_info_over_monster -->
<g id="node4" class="node">
<title>genoeg_info_over_monster</title>
<path fill="#008800" stroke="#008800" d="M1287.1981,-1094.5C1287.1981,-1094.5 1431.1919,-1094.5 1431.1919,-1094.5 1437.1919,-1094.5 1443.1919,-1100.5 1443.1919,-1106.5 1443.1919,-1106.5 1443.1919,-1118.5 1443.1919,-1118.5 1443.1919,-1124.5 1437.1919,-1130.5 1431.1919,-1130.5 1431.1919,-1130.5 1287.1981,-1130.5 1287.1981,-1130.5 1281.1981,-1130.5 1275.1981,-1124.5 1275.1981,-1118.5 1275.1981,-1118.5 1275.1981,-1106.5 1275.1981,-1106.5 1275.1981,-1100.5 1281.1981,-1094.5 1287.1981,-1094.5"/>
<text text-anchor="middle" x="1359.195" y="-1108.3" font-family="lato, roboto, helvetica" font-size="14.00" fill="#eeeeee">Genoeg Info Over Monster</text>
</g>
<!-- genoeg_info_over_monster&#45;&gt;beklim_toren -->
<g id="edge2" class="edge">
<title>genoeg_info_over_monster&#45;&gt;beklim_toren</title>
<path fill="none" stroke="#999999" d="M1344.8579,-1094.4551C1337.5381,-1085.2422 1328.527,-1073.9006 1320.5956,-1063.918"/>
<polygon fill="#999999" stroke="#999999" points="1322.7371,-1062.1122 1315.5682,-1057.5904 1318.3525,-1065.5959 1322.7371,-1062.1122"/>
</g>
<!-- _0 -->
<g id="node7" class="node">
<title>_0</title>
<polygon fill="#888888" stroke="#888888" points="792.195,-1787.5 762.1683,-1769.5 792.195,-1751.5 822.2217,-1769.5 792.195,-1787.5"/>
<polyline fill="none" stroke="#888888" points="772.1772,-1775.5 772.1772,-1763.5 "/>
<polyline fill="none" stroke="#888888" points="782.1861,-1757.5 802.2039,-1757.5 "/>
<polyline fill="none" stroke="#888888" points="812.2128,-1763.5 812.2128,-1775.5 "/>
<polyline fill="none" stroke="#888888" points="802.2039,-1781.5 782.1861,-1781.5 "/>
<text text-anchor="middle" x="792.195" y="-1765.3" font-family="lato, roboto, helvetica" font-size="14.00" fill="#eeeeee">Or</text>
</g>
<!-- betaal_twee_geldstukken&#45;&gt;_0 -->
<g id="edge5" class="edge">
<title>betaal_twee_geldstukken&#45;&gt;_0</title>
<path fill="none" stroke="#999999" stroke-dasharray="5,2" d="M754.5546,-1824.4551C761.8611,-1813.7875 771.1224,-1800.266 778.63,-1789.3048"/>
<polygon fill="#999999" stroke="#999999" points="781.0616,-1790.7098 783.2722,-1782.5273 776.4414,-1787.5453 781.0616,-1790.7098"/>
</g>
<!-- _1 -->
<g id="node41" class="node">
<title>_1</title>
<polygon fill="#888888" stroke="#888888" points="794.195,-1130.5 764.1683,-1112.5 794.195,-1094.5 824.2217,-1112.5 794.195,-1130.5"/>
<polyline fill="none" stroke="#888888" points="774.1772,-1118.5 774.1772,-1106.5 "/>
<polyline fill="none" stroke="#888888" points="784.1861,-1100.5 804.2039,-1100.5 "/>
<polyline fill="none" stroke="#888888" points="814.2128,-1106.5 814.2128,-1118.5 "/>
<polyline fill="none" stroke="#888888" points="804.2039,-1124.5 784.1861,-1124.5 "/>
<text text-anchor="middle" x="794.195" y="-1108.3" font-family="lato, roboto, helvetica" font-size="14.00" fill="#eeeeee">Or</text>
</g>
<!-- betaal_twee_geldstukken&#45;&gt;_1 -->
<g id="edge31" class="edge">
<title>betaal_twee_geldstukken&#45;&gt;_1</title>
<path fill="none" stroke="#999999" stroke-dasharray="5,2" d="M740.5374,-1824.0798C738.1941,-1796.4066 734.195,-1742.4473 734.195,-1696.5 734.195,-1696.5 734.195,-1696.5 734.195,-1258.5 734.195,-1210.1552 762.688,-1159.108 780.4039,-1132.041"/>
<polygon fill="#999999" stroke="#999999" points="782.952,-1133.2687 785.0823,-1125.0649 778.301,-1130.1496 782.952,-1133.2687"/>
</g>
<!-- betaal_twee_goudstukken_aan_hoefsmid -->
<g id="node6" class="node">
<title>betaal_twee_goudstukken_aan_hoefsmid</title>
<path fill="#008800" stroke="#008800" d="M890.1774,-1678.5C890.1774,-1678.5 1116.2126,-1678.5 1116.2126,-1678.5 1122.2126,-1678.5 1128.2126,-1684.5 1128.2126,-1690.5 1128.2126,-1690.5 1128.2126,-1702.5 1128.2126,-1702.5 1128.2126,-1708.5 1122.2126,-1714.5 1116.2126,-1714.5 1116.2126,-1714.5 890.1774,-1714.5 890.1774,-1714.5 884.1774,-1714.5 878.1774,-1708.5 878.1774,-1702.5 878.1774,-1702.5 878.1774,-1690.5 878.1774,-1690.5 878.1774,-1684.5 884.1774,-1678.5 890.1774,-1678.5"/>
<text text-anchor="middle" x="1003.195" y="-1692.3" font-family="lato, roboto, helvetica" font-size="14.00" fill="#eeeeee">Betaal Twee Goudstukken Aan Hoefsmid</text>
</g>
<!-- geef_paard_nieuwe_hoefijzers -->
<g id="node29" class="node">
<title>geef_paard_nieuwe_hoefijzers</title>
<path fill="#008800" stroke="#008800" d="M1401.4954,-1605.5C1401.4954,-1605.5 1564.8946,-1605.5 1564.8946,-1605.5 1570.8946,-1605.5 1576.8946,-1611.5 1576.8946,-1617.5 1576.8946,-1617.5 1576.8946,-1629.5 1576.8946,-1629.5 1576.8946,-1635.5 1570.8946,-1641.5 1564.8946,-1641.5 1564.8946,-1641.5 1401.4954,-1641.5 1401.4954,-1641.5 1395.4954,-1641.5 1389.4954,-1635.5 1389.4954,-1629.5 1389.4954,-1629.5 1389.4954,-1617.5 1389.4954,-1617.5 1389.4954,-1611.5 1395.4954,-1605.5 1401.4954,-1605.5"/>
<text text-anchor="middle" x="1483.195" y="-1619.3" font-family="lato, roboto, helvetica" font-size="14.00" fill="#eeeeee">Geef Paard Nieuwe Hoefijzers</text>
</g>
<!-- betaal_twee_goudstukken_aan_hoefsmid&#45;&gt;geef_paard_nieuwe_hoefijzers -->
<g id="edge19" class="edge">
<title>betaal_twee_goudstukken_aan_hoefsmid&#45;&gt;geef_paard_nieuwe_hoefijzers</title>
<path fill="none" stroke="#999999" d="M1128.5963,-1679.4648C1202.018,-1669.218 1296.473,-1655.5662 1380.195,-1642 1380.5761,-1641.9382 1380.958,-1641.8762 1381.3406,-1641.814"/>
<polygon fill="#999999" stroke="#999999" points="1382.0311,-1644.538 1389.4693,-1640.4743 1381.1204,-1639.0126 1382.0311,-1644.538"/>
</g>
<!-- _0&#45;&gt;betaal_twee_goudstukken_aan_hoefsmid -->
<g id="edge4" class="edge">
<title>_0&#45;&gt;betaal_twee_goudstukken_aan_hoefsmid</title>
<path fill="none" stroke="#999999" d="M811.292,-1762.893C840.8282,-1752.6743 898.8295,-1732.6075 943.3703,-1717.1976"/>
<polygon fill="#999999" stroke="#999999" points="944.3124,-1719.8346 950.9572,-1714.5728 942.4814,-1714.5424 944.3124,-1719.8346"/>
</g>
<!-- krijg_geldstuk_van_smid -->
<g id="node8" class="node">
<title>krijg_geldstuk_van_smid</title>
<path fill="#008800" stroke="#008800" d="M536.4548,-729.5C536.4548,-729.5 671.9352,-729.5 671.9352,-729.5 677.9352,-729.5 683.9352,-735.5 683.9352,-741.5 683.9352,-741.5 683.9352,-753.5 683.9352,-753.5 683.9352,-759.5 677.9352,-765.5 671.9352,-765.5 671.9352,-765.5 536.4548,-765.5 536.4548,-765.5 530.4548,-765.5 524.4548,-759.5 524.4548,-753.5 524.4548,-753.5 524.4548,-741.5 524.4548,-741.5 524.4548,-735.5 530.4548,-729.5 536.4548,-729.5"/>
<text text-anchor="middle" x="604.195" y="-743.3" font-family="lato, roboto, helvetica" font-size="14.00" fill="#eeeeee">Krijg Geldstuk Van Smid</text>
</g>
<!-- krijg_geldstuk_van_smid&#45;&gt;_0 -->
<g id="edge6" class="edge">
<title>krijg_geldstuk_van_smid&#45;&gt;_0</title>
<path fill="none" stroke="#999999" stroke-dasharray="5,2" d="M587.8549,-765.9049C563.2252,-795.9587 521.1817,-857.6737 538.195,-912 544.0166,-930.5894 552.2005,-931.9197 563.195,-948 657.0846,-1085.3211 772.195,-1092.1499 772.195,-1258.5 772.195,-1623.5 772.195,-1623.5 772.195,-1623.5 772.195,-1666.8108 780.941,-1716.6856 786.8657,-1745.5032"/>
<polygon fill="#999999" stroke="#999999" points="784.139,-1746.1433 788.5267,-1753.3951 789.619,-1744.9899 784.139,-1746.1433"/>
</g>
<!-- bezorg_graan_bij_molenaar -->
<g id="node9" class="node">
<title>bezorg_graan_bij_molenaar</title>
<path fill="#008800" stroke="#008800" d="M1337.2549,-1386.5C1337.2549,-1386.5 1485.1351,-1386.5 1485.1351,-1386.5 1491.1351,-1386.5 1497.1351,-1392.5 1497.1351,-1398.5 1497.1351,-1398.5 1497.1351,-1410.5 1497.1351,-1410.5 1497.1351,-1416.5 1491.1351,-1422.5 1485.1351,-1422.5 1485.1351,-1422.5 1337.2549,-1422.5 1337.2549,-1422.5 1331.2549,-1422.5 1325.2549,-1416.5 1325.2549,-1410.5 1325.2549,-1410.5 1325.2549,-1398.5 1325.2549,-1398.5 1325.2549,-1392.5 1331.2549,-1386.5 1337.2549,-1386.5"/>
<text text-anchor="middle" x="1411.195" y="-1400.3" font-family="lato, roboto, helvetica" font-size="14.00" fill="#eeeeee">Bezorg Graan Bij Molenaar</text>
</g>
<!-- krijg_meel_bij_molenaar -->
<g id="node12" class="node">
<title>krijg_meel_bij_molenaar</title>
<path fill="#008800" stroke="#008800" d="M1275.4099,-1313.5C1275.4099,-1313.5 1406.9801,-1313.5 1406.9801,-1313.5 1412.9801,-1313.5 1418.9801,-1319.5 1418.9801,-1325.5 1418.9801,-1325.5 1418.9801,-1337.5 1418.9801,-1337.5 1418.9801,-1343.5 1412.9801,-1349.5 1406.9801,-1349.5 1406.9801,-1349.5 1275.4099,-1349.5 1275.4099,-1349.5 1269.4099,-1349.5 1263.4099,-1343.5 1263.4099,-1337.5 1263.4099,-1337.5 1263.4099,-1325.5 1263.4099,-1325.5 1263.4099,-1319.5 1269.4099,-1313.5 1275.4099,-1313.5"/>
<text text-anchor="middle" x="1341.195" y="-1327.3" font-family="lato, roboto, helvetica" font-size="14.00" fill="#eeeeee">Krijg Meel Bij Molenaar</text>
</g>
<!-- bezorg_graan_bij_molenaar&#45;&gt;krijg_meel_bij_molenaar -->
<g id="edge42" class="edge">
<title>bezorg_graan_bij_molenaar&#45;&gt;krijg_meel_bij_molenaar</title>
<path fill="none" stroke="#999999" d="M1393.8916,-1386.4551C1384.9732,-1377.1545 1373.9746,-1365.6844 1364.3364,-1355.6332"/>
<polygon fill="#999999" stroke="#999999" points="1366.0999,-1353.4267 1358.5419,-1349.5904 1362.0579,-1357.3026 1366.0999,-1353.4267"/>
</g>
<!-- zet_graan_op_wagen -->
<g id="node10" class="node">
<title>zet_graan_op_wagen</title>
<path fill="#008800" stroke="#008800" d="M1382.1427,-1459.5C1382.1427,-1459.5 1494.2473,-1459.5 1494.2473,-1459.5 1500.2473,-1459.5 1506.2473,-1465.5 1506.2473,-1471.5 1506.2473,-1471.5 1506.2473,-1483.5 1506.2473,-1483.5 1506.2473,-1489.5 1500.2473,-1495.5 1494.2473,-1495.5 1494.2473,-1495.5 1382.1427,-1495.5 1382.1427,-1495.5 1376.1427,-1495.5 1370.1427,-1489.5 1370.1427,-1483.5 1370.1427,-1483.5 1370.1427,-1471.5 1370.1427,-1471.5 1370.1427,-1465.5 1376.1427,-1459.5 1382.1427,-1459.5"/>
<text text-anchor="middle" x="1438.195" y="-1473.3" font-family="lato, roboto, helvetica" font-size="14.00" fill="#eeeeee">Zet Graan Op Wagen</text>
</g>
<!-- zet_graan_op_wagen&#45;&gt;bezorg_graan_bij_molenaar -->
<g id="edge7" class="edge">
<title>zet_graan_op_wagen&#45;&gt;bezorg_graan_bij_molenaar</title>
<path fill="none" stroke="#999999" d="M1431.5208,-1459.4551C1428.2756,-1450.6809 1424.3162,-1439.9759 1420.7571,-1430.353"/>
<polygon fill="#999999" stroke="#999999" points="1423.2873,-1429.1223 1417.886,-1422.5904 1418.0351,-1431.0649 1423.2873,-1429.1223"/>
</g>
<!-- bezorg_meel_bij_bakker -->
<g id="node11" class="node">
<title>bezorg_meel_bij_bakker</title>
<path fill="#008800" stroke="#008800" d="M1276.5775,-1240.5C1276.5775,-1240.5 1405.8125,-1240.5 1405.8125,-1240.5 1411.8125,-1240.5 1417.8125,-1246.5 1417.8125,-1252.5 1417.8125,-1252.5 1417.8125,-1264.5 1417.8125,-1264.5 1417.8125,-1270.5 1411.8125,-1276.5 1405.8125,-1276.5 1405.8125,-1276.5 1276.5775,-1276.5 1276.5775,-1276.5 1270.5775,-1276.5 1264.5775,-1270.5 1264.5775,-1264.5 1264.5775,-1264.5 1264.5775,-1252.5 1264.5775,-1252.5 1264.5775,-1246.5 1270.5775,-1240.5 1276.5775,-1240.5"/>
<text text-anchor="middle" x="1341.195" y="-1254.3" font-family="lato, roboto, helvetica" font-size="14.00" fill="#eeeeee">Bezorg Meel Bij Bakker</text>
</g>
<!-- krijg_100_geld_van_meel -->
<g id="node42" class="node">
<title>krijg_100_geld_van_meel</title>
<path fill="#008800" stroke="#008800" d="M918.2721,-1167.5C918.2721,-1167.5 1054.1179,-1167.5 1054.1179,-1167.5 1060.1179,-1167.5 1066.1179,-1173.5 1066.1179,-1179.5 1066.1179,-1179.5 1066.1179,-1191.5 1066.1179,-1191.5 1066.1179,-1197.5 1060.1179,-1203.5 1054.1179,-1203.5 1054.1179,-1203.5 918.2721,-1203.5 918.2721,-1203.5 912.2721,-1203.5 906.2721,-1197.5 906.2721,-1191.5 906.2721,-1191.5 906.2721,-1179.5 906.2721,-1179.5 906.2721,-1173.5 912.2721,-1167.5 918.2721,-1167.5"/>
<text text-anchor="middle" x="986.195" y="-1181.3" font-family="lato, roboto, helvetica" font-size="14.00" fill="#eeeeee">Krijg 100 Geld Van Meel</text>
</g>
<!-- bezorg_meel_bij_bakker&#45;&gt;krijg_100_geld_van_meel -->
<g id="edge35" class="edge">
<title>bezorg_meel_bij_bakker&#45;&gt;krijg_100_geld_van_meel</title>
<path fill="none" stroke="#999999" d="M1264.3576,-1242.8175C1211.2246,-1231.9581 1138.9055,-1217.1483 1075.195,-1204 1074.8279,-1203.9242 1074.46,-1203.8483 1074.0913,-1203.7722"/>
<polygon fill="#999999" stroke="#999999" points="1074.6474,-1201.028 1066.2463,-1202.1511 1073.5142,-1206.5122 1074.6474,-1201.028"/>
</g>
<!-- zet_molensteen_op_wagen -->
<g id="node55" class="node">
<title>zet_molensteen_op_wagen</title>
<path fill="#008800" stroke="#008800" d="M1500.5838,-948.5C1500.5838,-948.5 1643.8062,-948.5 1643.8062,-948.5 1649.8062,-948.5 1655.8062,-954.5 1655.8062,-960.5 1655.8062,-960.5 1655.8062,-972.5 1655.8062,-972.5 1655.8062,-978.5 1649.8062,-984.5 1643.8062,-984.5 1643.8062,-984.5 1500.5838,-984.5 1500.5838,-984.5 1494.5838,-984.5 1488.5838,-978.5 1488.5838,-972.5 1488.5838,-972.5 1488.5838,-960.5 1488.5838,-960.5 1488.5838,-954.5 1494.5838,-948.5 1500.5838,-948.5"/>
<text text-anchor="middle" x="1572.195" y="-962.3" font-family="lato, roboto, helvetica" font-size="14.00" fill="#eeeeee">Zet Molensteen Op Wagen</text>
</g>
<!-- bezorg_meel_bij_bakker&#45;&gt;zet_molensteen_op_wagen -->
<g id="edge100" class="edge">
<title>bezorg_meel_bij_bakker&#45;&gt;zet_molensteen_op_wagen</title>
<path fill="none" stroke="#999999" d="M1357.8818,-1240.3435C1380.0583,-1215.9896 1420.1691,-1171.1522 1452.195,-1131 1490.5169,-1082.9542 1532.1319,-1024.2996 1554.8937,-991.6034"/>
<polygon fill="#999999" stroke="#999999" points="1557.4617,-992.8143 1559.725,-984.6462 1552.862,-989.6201 1557.4617,-992.8143"/>
</g>
<!-- krijg_meel_bij_molenaar&#45;&gt;bezorg_meel_bij_bakker -->
<g id="edge8" class="edge">
<title>krijg_meel_bij_molenaar&#45;&gt;bezorg_meel_bij_bakker</title>
<path fill="none" stroke="#999999" d="M1341.195,-1313.4551C1341.195,-1304.7686 1341.195,-1294.1898 1341.195,-1284.642"/>
<polygon fill="#999999" stroke="#999999" points="1343.9951,-1284.5903 1341.195,-1276.5904 1338.3951,-1284.5904 1343.9951,-1284.5903"/>
</g>
<!-- breng_dochter_naar_bakker -->
<g id="node13" class="node">
<title>breng_dochter_naar_bakker</title>
<path fill="#008800" stroke="#008800" d="M1052.4842,-510.5C1052.4842,-510.5 1201.9058,-510.5 1201.9058,-510.5 1207.9058,-510.5 1213.9058,-516.5 1213.9058,-522.5 1213.9058,-522.5 1213.9058,-534.5 1213.9058,-534.5 1213.9058,-540.5 1207.9058,-546.5 1201.9058,-546.5 1201.9058,-546.5 1052.4842,-546.5 1052.4842,-546.5 1046.4842,-546.5 1040.4842,-540.5 1040.4842,-534.5 1040.4842,-534.5 1040.4842,-522.5 1040.4842,-522.5 1040.4842,-516.5 1046.4842,-510.5 1052.4842,-510.5"/>
<text text-anchor="middle" x="1127.195" y="-524.3" font-family="lato, roboto, helvetica" font-size="14.00" fill="#eeeeee">Breng Dochter Naar Bakker</text>
</g>
<!-- krijg_appeltaart_van_bakker -->
<g id="node23" class="node">
<title>krijg_appeltaart_van_bakker</title>
<path fill="#3333aa" stroke="#3333aa" d="M1049.7556,-437.5C1049.7556,-437.5 1204.6344,-437.5 1204.6344,-437.5 1210.6344,-437.5 1216.6344,-443.5 1216.6344,-449.5 1216.6344,-449.5 1216.6344,-461.5 1216.6344,-461.5 1216.6344,-467.5 1210.6344,-473.5 1204.6344,-473.5 1204.6344,-473.5 1049.7556,-473.5 1049.7556,-473.5 1043.7556,-473.5 1037.7556,-467.5 1037.7556,-461.5 1037.7556,-461.5 1037.7556,-449.5 1037.7556,-449.5 1037.7556,-443.5 1043.7556,-437.5 1049.7556,-437.5"/>
<text text-anchor="middle" x="1127.195" y="-451.3" font-family="lato, roboto, helvetica" font-size="14.00" fill="#eeeeee">Krijg Appeltaart Van Bakker</text>
</g>
<!-- breng_dochter_naar_bakker&#45;&gt;krijg_appeltaart_van_bakker -->
<g id="edge36" class="edge">
<title>breng_dochter_naar_bakker&#45;&gt;krijg_appeltaart_van_bakker</title>
<path fill="none" stroke="#999999" d="M1127.195,-510.4551C1127.195,-501.7686 1127.195,-491.1898 1127.195,-481.642"/>
<polygon fill="#999999" stroke="#999999" points="1129.9951,-481.5903 1127.195,-473.5904 1124.3951,-481.5904 1129.9951,-481.5903"/>
</g>
<!-- trek_tand_van_draak -->
<g id="node14" class="node">
<title>trek_tand_van_draak</title>
<path fill="#008800" stroke="#008800" d="M1069.5887,-583.5C1069.5887,-583.5 1184.8013,-583.5 1184.8013,-583.5 1190.8013,-583.5 1196.8013,-589.5 1196.8013,-595.5 1196.8013,-595.5 1196.8013,-607.5 1196.8013,-607.5 1196.8013,-613.5 1190.8013,-619.5 1184.8013,-619.5 1184.8013,-619.5 1069.5887,-619.5 1069.5887,-619.5 1063.5887,-619.5 1057.5887,-613.5 1057.5887,-607.5 1057.5887,-607.5 1057.5887,-595.5 1057.5887,-595.5 1057.5887,-589.5 1063.5887,-583.5 1069.5887,-583.5"/>
<text text-anchor="middle" x="1127.195" y="-597.3" font-family="lato, roboto, helvetica" font-size="14.00" fill="#eeeeee">Trek Tand Van Draak</text>
</g>
<!-- trek_tand_van_draak&#45;&gt;breng_dochter_naar_bakker -->
<g id="edge9" class="edge">
<title>trek_tand_van_draak&#45;&gt;breng_dochter_naar_bakker</title>
<path fill="none" stroke="#999999" d="M1127.195,-583.4551C1127.195,-574.7686 1127.195,-564.1898 1127.195,-554.642"/>
<polygon fill="#999999" stroke="#999999" points="1129.9951,-554.5903 1127.195,-546.5904 1124.3951,-554.5904 1129.9951,-554.5903"/>
</g>
<!-- pak_tand_van_draak -->
<g id="node52" class="node">
<title>pak_tand_van_draak</title>
<path fill="#008800" stroke="#008800" d="M899.304,-510.5C899.304,-510.5 1009.086,-510.5 1009.086,-510.5 1015.086,-510.5 1021.086,-516.5 1021.086,-522.5 1021.086,-522.5 1021.086,-534.5 1021.086,-534.5 1021.086,-540.5 1015.086,-546.5 1009.086,-546.5 1009.086,-546.5 899.304,-546.5 899.304,-546.5 893.304,-546.5 887.304,-540.5 887.304,-534.5 887.304,-534.5 887.304,-522.5 887.304,-522.5 887.304,-516.5 893.304,-510.5 899.304,-510.5"/>
<text text-anchor="middle" x="954.195" y="-524.3" font-family="lato, roboto, helvetica" font-size="14.00" fill="#eeeeee">Pak Tand Van Draak</text>
</g>
<!-- trek_tand_van_draak&#45;&gt;pak_tand_van_draak -->
<g id="edge65" class="edge">
<title>trek_tand_van_draak&#45;&gt;pak_tand_van_draak</title>
<path fill="none" stroke="#999999" d="M1084.4309,-583.4551C1060.3105,-573.277 1030.0328,-560.5009 1004.7428,-549.8294"/>
<polygon fill="#999999" stroke="#999999" points="1005.5259,-547.1208 997.0667,-546.5904 1003.3488,-552.2803 1005.5259,-547.1208"/>
</g>
<!-- breng_medicijnen_naar_koning -->
<g id="node15" class="node">
<title>breng_medicijnen_naar_koning</title>
<polygon fill="#333333" stroke="#333333" points="829.195,-36 640.3539,-18 829.195,0 1018.0361,-18 829.195,-36"/>
<polyline fill="none" stroke="#333333" points="652.2997,-19.1387 652.2997,-16.8613 "/>
<polyline fill="none" stroke="#333333" points="817.2491,-1.1387 841.1409,-1.1387 "/>
<polyline fill="none" stroke="#333333" points="1006.0903,-16.8613 1006.0903,-19.1387 "/>
<polyline fill="none" stroke="#333333" points="841.1409,-34.8613 817.2491,-34.8613 "/>
<text text-anchor="middle" x="829.195" y="-13.8" font-family="lato, roboto, helvetica" font-size="14.00" fill="#dddddd">Breng Medicijnen Naar Koning</text>
</g>
<!-- zet_zadel_op_draak -->
<g id="node16" class="node">
<title>zet_zadel_op_draak</title>
<path fill="#3333aa" stroke="#3333aa" d="M678.0284,-145.5C678.0284,-145.5 782.3616,-145.5 782.3616,-145.5 788.3616,-145.5 794.3616,-151.5 794.3616,-157.5 794.3616,-157.5 794.3616,-169.5 794.3616,-169.5 794.3616,-175.5 788.3616,-181.5 782.3616,-181.5 782.3616,-181.5 678.0284,-181.5 678.0284,-181.5 672.0284,-181.5 666.0284,-175.5 666.0284,-169.5 666.0284,-169.5 666.0284,-157.5 666.0284,-157.5 666.0284,-151.5 672.0284,-145.5 678.0284,-145.5"/>
<text text-anchor="middle" x="730.195" y="-159.3" font-family="lato, roboto, helvetica" font-size="14.00" fill="#eeeeee">Zet Zadel Op Draak</text>
</g>
<!-- zet_zadel_op_draak&#45;&gt;breng_medicijnen_naar_koning -->
<g id="edge10" class="edge">
<title>zet_zadel_op_draak&#45;&gt;breng_medicijnen_naar_koning</title>
<path fill="none" stroke="#999999" d="M742.5332,-145.3665C760.3089,-119.2418 793.1515,-70.973 812.9027,-41.9448"/>
<polygon fill="#999999" stroke="#999999" points="815.4395,-43.1938 817.6249,-35.0045 810.8096,-40.0435 815.4395,-43.1938"/>
</g>
<!-- maak_medicijn -->
<g id="node17" class="node">
<title>maak_medicijn</title>
<path fill="#3333aa" stroke="#3333aa" d="M860.2353,-72.5C860.2353,-72.5 938.1547,-72.5 938.1547,-72.5 944.1547,-72.5 950.1547,-78.5 950.1547,-84.5 950.1547,-84.5 950.1547,-96.5 950.1547,-96.5 950.1547,-102.5 944.1547,-108.5 938.1547,-108.5 938.1547,-108.5 860.2353,-108.5 860.2353,-108.5 854.2353,-108.5 848.2353,-102.5 848.2353,-96.5 848.2353,-96.5 848.2353,-84.5 848.2353,-84.5 848.2353,-78.5 854.2353,-72.5 860.2353,-72.5"/>
<text text-anchor="middle" x="899.195" y="-86.3" font-family="lato, roboto, helvetica" font-size="14.00" fill="#eeeeee">Maak Medicijn</text>
</g>
<!-- maak_medicijn&#45;&gt;breng_medicijnen_naar_koning -->
<g id="edge11" class="edge">
<title>maak_medicijn&#45;&gt;breng_medicijnen_naar_koning</title>
<path fill="none" stroke="#999999" d="M881.531,-72.2052C872.1865,-62.5269 860.6363,-50.5642 850.7658,-40.3412"/>
<polygon fill="#999999" stroke="#999999" points="852.7488,-38.3638 845.1776,-34.5534 848.7201,-42.2536 852.7488,-38.3638"/>
</g>
<!-- breng_paard_naar_hoefsmid -->
<g id="node18" class="node">
<title>breng_paard_naar_hoefsmid</title>
<path fill="#008800" stroke="#008800" d="M1411.7009,-1678.5C1411.7009,-1678.5 1562.6891,-1678.5 1562.6891,-1678.5 1568.6891,-1678.5 1574.6891,-1684.5 1574.6891,-1690.5 1574.6891,-1690.5 1574.6891,-1702.5 1574.6891,-1702.5 1574.6891,-1708.5 1568.6891,-1714.5 1562.6891,-1714.5 1562.6891,-1714.5 1411.7009,-1714.5 1411.7009,-1714.5 1405.7009,-1714.5 1399.7009,-1708.5 1399.7009,-1702.5 1399.7009,-1702.5 1399.7009,-1690.5 1399.7009,-1690.5 1399.7009,-1684.5 1405.7009,-1678.5 1411.7009,-1678.5"/>
<text text-anchor="middle" x="1487.195" y="-1692.3" font-family="lato, roboto, helvetica" font-size="14.00" fill="#eeeeee">Breng Paard Naar Hoefsmid</text>
</g>
<!-- breng_paard_naar_hoefsmid&#45;&gt;geef_paard_nieuwe_hoefijzers -->
<g id="edge18" class="edge">
<title>breng_paard_naar_hoefsmid&#45;&gt;geef_paard_nieuwe_hoefijzers</title>
<path fill="none" stroke="#999999" d="M1486.2062,-1678.4551C1485.7303,-1669.7686 1485.1506,-1659.1898 1484.6274,-1649.642"/>
<polygon fill="#999999" stroke="#999999" points="1487.4199,-1649.4251 1484.1863,-1641.5904 1481.8282,-1649.7316 1487.4199,-1649.4251"/>
</g>
<!-- vind_paard_bij_rivier -->
<g id="node19" class="node">
<title>vind_paard_bij_rivier</title>
<path fill="#008800" stroke="#008800" d="M1441.9548,-1751.5C1441.9548,-1751.5 1556.4352,-1751.5 1556.4352,-1751.5 1562.4352,-1751.5 1568.4352,-1757.5 1568.4352,-1763.5 1568.4352,-1763.5 1568.4352,-1775.5 1568.4352,-1775.5 1568.4352,-1781.5 1562.4352,-1787.5 1556.4352,-1787.5 1556.4352,-1787.5 1441.9548,-1787.5 1441.9548,-1787.5 1435.9548,-1787.5 1429.9548,-1781.5 1429.9548,-1775.5 1429.9548,-1775.5 1429.9548,-1763.5 1429.9548,-1763.5 1429.9548,-1757.5 1435.9548,-1751.5 1441.9548,-1751.5"/>
<text text-anchor="middle" x="1499.195" y="-1765.3" font-family="lato, roboto, helvetica" font-size="14.00" fill="#eeeeee">Vind Paard Bij Rivier</text>
</g>
<!-- vind_paard_bij_rivier&#45;&gt;breng_paard_naar_hoefsmid -->
<g id="edge12" class="edge">
<title>vind_paard_bij_rivier&#45;&gt;breng_paard_naar_hoefsmid</title>
<path fill="none" stroke="#999999" d="M1496.2287,-1751.4551C1494.8008,-1742.7686 1493.0618,-1732.1898 1491.4923,-1722.642"/>
<polygon fill="#999999" stroke="#999999" points="1494.2294,-1722.0302 1490.1688,-1714.5904 1488.7036,-1722.9386 1494.2294,-1722.0302"/>
</g>
<!-- ga_naar_hut_in_moeras -->
<g id="node20" class="node">
<title>ga_naar_hut_in_moeras</title>
<path fill="#008800" stroke="#008800" d="M932.1178,-1021.5C932.1178,-1021.5 1056.2722,-1021.5 1056.2722,-1021.5 1062.2722,-1021.5 1068.2722,-1027.5 1068.2722,-1033.5 1068.2722,-1033.5 1068.2722,-1045.5 1068.2722,-1045.5 1068.2722,-1051.5 1062.2722,-1057.5 1056.2722,-1057.5 1056.2722,-1057.5 932.1178,-1057.5 932.1178,-1057.5 926.1178,-1057.5 920.1178,-1051.5 920.1178,-1045.5 920.1178,-1045.5 920.1178,-1033.5 920.1178,-1033.5 920.1178,-1027.5 926.1178,-1021.5 932.1178,-1021.5"/>
<text text-anchor="middle" x="994.195" y="-1035.3" font-family="lato, roboto, helvetica" font-size="14.00" fill="#eeeeee">Ga Naar Hut In Moeras</text>
</g>
<!-- praat_met_heks -->
<g id="node31" class="node">
<title>praat_met_heks</title>
<path fill="#008800" stroke="#008800" d="M885.6557,-875.5C885.6557,-875.5 964.7343,-875.5 964.7343,-875.5 970.7343,-875.5 976.7343,-881.5 976.7343,-887.5 976.7343,-887.5 976.7343,-899.5 976.7343,-899.5 976.7343,-905.5 970.7343,-911.5 964.7343,-911.5 964.7343,-911.5 885.6557,-911.5 885.6557,-911.5 879.6557,-911.5 873.6557,-905.5 873.6557,-899.5 873.6557,-899.5 873.6557,-887.5 873.6557,-887.5 873.6557,-881.5 879.6557,-875.5 885.6557,-875.5"/>
<text text-anchor="middle" x="925.195" y="-889.3" font-family="lato, roboto, helvetica" font-size="14.00" fill="#eeeeee">Praat Met Heks</text>
</g>
<!-- ga_naar_hut_in_moeras&#45;&gt;praat_met_heks -->
<g id="edge77" class="edge">
<title>ga_naar_hut_in_moeras&#45;&gt;praat_met_heks</title>
<path fill="none" stroke="#999999" d="M985.5956,-1021.3042C973.458,-995.6218 951.2412,-948.6122 937.3996,-919.3243"/>
<polygon fill="#999999" stroke="#999999" points="939.8526,-917.9616 933.9028,-911.9251 934.7896,-920.3545 939.8526,-917.9616"/>
</g>
<!-- praat_met_bakker&#45;&gt;koop_zwaard_voor_99_bij_wapensmid -->
<g id="edge34" class="edge">
<title>praat_met_bakker&#45;&gt;koop_zwaard_voor_99_bij_wapensmid</title>
<path fill="none" stroke="#999999" d="M1140.9478,-1167.4551C1140.8288,-1158.7686 1140.6839,-1148.1898 1140.5531,-1138.642"/>
<polygon fill="#999999" stroke="#999999" points="1143.3522,-1138.5512 1140.4428,-1130.5904 1137.7528,-1138.628 1143.3522,-1138.5512"/>
</g>
<!-- praat_met_bakker&#45;&gt;genoeg_info_over_monster -->
<g id="edge22" class="edge">
<title>praat_met_bakker&#45;&gt;genoeg_info_over_monster</title>
<path fill="none" stroke="#999999" d="M1195.0827,-1167.4551C1226.1323,-1157.0577 1265.2788,-1143.949 1297.5505,-1133.1424"/>
<polygon fill="#999999" stroke="#999999" points="1298.4749,-1135.7858 1305.1717,-1130.5904 1296.6966,-1130.4756 1298.4749,-1135.7858"/>
</g>
<!-- praat_met_bakker&#45;&gt;ga_naar_hut_in_moeras -->
<g id="edge13" class="edge">
<title>praat_met_bakker&#45;&gt;ga_naar_hut_in_moeras</title>
<path fill="none" stroke="#999999" d="M1085.7149,-1167.3793C1056.2205,-1156.6779 1024.0495,-1142.9324 1014.195,-1131 999.1554,-1112.7892 994.7437,-1085.7874 993.7414,-1065.8328"/>
<polygon fill="#999999" stroke="#999999" points="996.5379,-1065.671 993.4995,-1057.7585 990.9404,-1065.8388 996.5379,-1065.671"/>
</g>
<!-- geef_appeltaart_aan_draak -->
<g id="node22" class="node">
<title>geef_appeltaart_aan_draak</title>
<path fill="#3333aa" stroke="#3333aa" d="M1054.0466,-291.5C1054.0466,-291.5 1200.3434,-291.5 1200.3434,-291.5 1206.3434,-291.5 1212.3434,-297.5 1212.3434,-303.5 1212.3434,-303.5 1212.3434,-315.5 1212.3434,-315.5 1212.3434,-321.5 1206.3434,-327.5 1200.3434,-327.5 1200.3434,-327.5 1054.0466,-327.5 1054.0466,-327.5 1048.0466,-327.5 1042.0466,-321.5 1042.0466,-315.5 1042.0466,-315.5 1042.0466,-303.5 1042.0466,-303.5 1042.0466,-297.5 1048.0466,-291.5 1054.0466,-291.5"/>
<text text-anchor="middle" x="1127.195" y="-305.3" font-family="lato, roboto, helvetica" font-size="14.00" fill="#eeeeee">Geef Appeltaart Aan Draak</text>
</g>
<!-- geef_appeltaart_aan_draak&#45;&gt;zet_zadel_op_draak -->
<g id="edge101" class="edge">
<title>geef_appeltaart_aan_draak&#45;&gt;zet_zadel_op_draak</title>
<path fill="none" stroke="#999999" d="M1099.1127,-291.3915C1066.2678,-270.9338 1009.6896,-237.9048 957.195,-218 891.876,-193.2325 872.0823,-198.4718 804.195,-182 803.7124,-181.8829 803.2281,-181.7653 802.7421,-181.6471"/>
<polygon fill="#999999" stroke="#999999" points="803.1918,-178.8747 794.7558,-179.6963 801.8629,-184.3148 803.1918,-178.8747"/>
</g>
<!-- krijg_appeltaart_van_bakker&#45;&gt;geef_appeltaart_aan_draak -->
<g id="edge14" class="edge">
<title>krijg_appeltaart_van_bakker&#45;&gt;geef_appeltaart_aan_draak</title>
<path fill="none" stroke="#999999" d="M1127.195,-437.3042C1127.195,-411.8403 1127.195,-365.4108 1127.195,-336.0759"/>
<polygon fill="#999999" stroke="#999999" points="1129.9951,-335.9251 1127.195,-327.9251 1124.3951,-335.9251 1129.9951,-335.9251"/>
</g>
<!-- geef_dwerg_eten -->
<g id="node24" class="node">
<title>geef_dwerg_eten</title>
<path fill="#008800" stroke="#008800" d="M725.2237,-948.5C725.2237,-948.5 815.1663,-948.5 815.1663,-948.5 821.1663,-948.5 827.1663,-954.5 827.1663,-960.5 827.1663,-960.5 827.1663,-972.5 827.1663,-972.5 827.1663,-978.5 821.1663,-984.5 815.1663,-984.5 815.1663,-984.5 725.2237,-984.5 725.2237,-984.5 719.2237,-984.5 713.2237,-978.5 713.2237,-972.5 713.2237,-972.5 713.2237,-960.5 713.2237,-960.5 713.2237,-954.5 719.2237,-948.5 725.2237,-948.5"/>
<text text-anchor="middle" x="770.195" y="-962.3" font-family="lato, roboto, helvetica" font-size="14.00" fill="#eeeeee">Geef Dwerg Eten</text>
</g>
<!-- krijg_edelsteen_van_dwerg -->
<g id="node43" class="node">
<title>krijg_edelsteen_van_dwerg</title>
<path fill="#008800" stroke="#008800" d="M696.2549,-875.5C696.2549,-875.5 844.1351,-875.5 844.1351,-875.5 850.1351,-875.5 856.1351,-881.5 856.1351,-887.5 856.1351,-887.5 856.1351,-899.5 856.1351,-899.5 856.1351,-905.5 850.1351,-911.5 844.1351,-911.5 844.1351,-911.5 696.2549,-911.5 696.2549,-911.5 690.2549,-911.5 684.2549,-905.5 684.2549,-899.5 684.2549,-899.5 684.2549,-887.5 684.2549,-887.5 684.2549,-881.5 690.2549,-875.5 696.2549,-875.5"/>
<text text-anchor="middle" x="770.195" y="-889.3" font-family="lato, roboto, helvetica" font-size="14.00" fill="#eeeeee">Krijg Edelsteen Van Dwerg</text>
</g>
<!-- geef_dwerg_eten&#45;&gt;krijg_edelsteen_van_dwerg -->
<g id="edge37" class="edge">
<title>geef_dwerg_eten&#45;&gt;krijg_edelsteen_van_dwerg</title>
<path fill="none" stroke="#999999" d="M770.195,-948.4551C770.195,-939.7686 770.195,-929.1898 770.195,-919.642"/>
<polygon fill="#999999" stroke="#999999" points="772.9951,-919.5903 770.195,-911.5904 767.3951,-919.5904 772.9951,-919.5903"/>
</g>
<!-- praat_met_dwerg&#45;&gt;geef_dwerg_eten -->
<g id="edge15" class="edge">
<title>praat_met_dwerg&#45;&gt;geef_dwerg_eten</title>
<path fill="none" stroke="#999999" d="M632.6348,-1824.3292C648.9904,-1815.6421 666.1208,-1803.6598 677.195,-1788 701.1762,-1754.0885 696.195,-1738.0342 696.195,-1696.5 696.195,-1696.5 696.195,-1696.5 696.195,-1112.5 696.195,-1070.9658 695.379,-1057.5022 715.195,-1021 721.4556,-1009.4675 730.9388,-998.8057 740.2767,-990.0273"/>
<polygon fill="#999999" stroke="#999999" points="742.2934,-991.9789 746.3566,-984.5405 738.5416,-987.8216 742.2934,-991.9789"/>
</g>
<!-- krijg_kapotte_houweel_van_dwerg -->
<g id="node45" class="node">
<title>krijg_kapotte_houweel_van_dwerg</title>
<path fill="#008800" stroke="#008800" d="M464.291,-1751.5C464.291,-1751.5 656.099,-1751.5 656.099,-1751.5 662.099,-1751.5 668.099,-1757.5 668.099,-1763.5 668.099,-1763.5 668.099,-1775.5 668.099,-1775.5 668.099,-1781.5 662.099,-1787.5 656.099,-1787.5 656.099,-1787.5 464.291,-1787.5 464.291,-1787.5 458.291,-1787.5 452.291,-1781.5 452.291,-1775.5 452.291,-1775.5 452.291,-1763.5 452.291,-1763.5 452.291,-1757.5 458.291,-1751.5 464.291,-1751.5"/>
<text text-anchor="middle" x="560.195" y="-1765.3" font-family="lato, roboto, helvetica" font-size="14.00" fill="#eeeeee">Krijg Kapotte Houweel Van Dwerg</text>
</g>
<!-- praat_met_dwerg&#45;&gt;krijg_kapotte_houweel_van_dwerg -->
<g id="edge41" class="edge">
<title>praat_met_dwerg&#45;&gt;krijg_kapotte_houweel_van_dwerg</title>
<path fill="none" stroke="#999999" d="M580.5208,-1824.4551C577.2756,-1815.6809 573.3162,-1804.9759 569.7571,-1795.353"/>
<polygon fill="#999999" stroke="#999999" points="572.2873,-1794.1223 566.886,-1787.5904 567.0351,-1796.0649 572.2873,-1794.1223"/>
</g>
<!-- koop_eten_bij_bakker -->
<g id="node26" class="node">
<title>koop_eten_bij_bakker</title>
<path fill="#008800" stroke="#008800" d="M735.7907,-1021.5C735.7907,-1021.5 852.5993,-1021.5 852.5993,-1021.5 858.5993,-1021.5 864.5993,-1027.5 864.5993,-1033.5 864.5993,-1033.5 864.5993,-1045.5 864.5993,-1045.5 864.5993,-1051.5 858.5993,-1057.5 852.5993,-1057.5 852.5993,-1057.5 735.7907,-1057.5 735.7907,-1057.5 729.7907,-1057.5 723.7907,-1051.5 723.7907,-1045.5 723.7907,-1045.5 723.7907,-1033.5 723.7907,-1033.5 723.7907,-1027.5 729.7907,-1021.5 735.7907,-1021.5"/>
<text text-anchor="middle" x="794.195" y="-1035.3" font-family="lato, roboto, helvetica" font-size="14.00" fill="#eeeeee">Koop Eten Bij Bakker</text>
</g>
<!-- koop_eten_bij_bakker&#45;&gt;geef_dwerg_eten -->
<g id="edge16" class="edge">
<title>koop_eten_bij_bakker&#45;&gt;geef_dwerg_eten</title>
<path fill="none" stroke="#999999" d="M788.2624,-1021.4551C785.3778,-1012.6809 781.8583,-1001.9759 778.6946,-992.353"/>
<polygon fill="#999999" stroke="#999999" points="781.3011,-991.3157 776.1425,-984.5904 775.9812,-993.0647 781.3011,-991.3157"/>
</g>
<!-- geef_houweel_aan_dwerg -->
<g id="node27" class="node">
<title>geef_houweel_aan_dwerg</title>
<path fill="#008800" stroke="#008800" d="M507.3755,-1532.5C507.3755,-1532.5 649.0145,-1532.5 649.0145,-1532.5 655.0145,-1532.5 661.0145,-1538.5 661.0145,-1544.5 661.0145,-1544.5 661.0145,-1556.5 661.0145,-1556.5 661.0145,-1562.5 655.0145,-1568.5 649.0145,-1568.5 649.0145,-1568.5 507.3755,-1568.5 507.3755,-1568.5 501.3755,-1568.5 495.3755,-1562.5 495.3755,-1556.5 495.3755,-1556.5 495.3755,-1544.5 495.3755,-1544.5 495.3755,-1538.5 501.3755,-1532.5 507.3755,-1532.5"/>
<text text-anchor="middle" x="578.195" y="-1546.3" font-family="lato, roboto, helvetica" font-size="14.00" fill="#eeeeee">Geef Houweel Aan Dwerg</text>
</g>
<!-- geef_houweel_aan_dwerg&#45;&gt;krijg_edelsteen_van_dwerg -->
<g id="edge38" class="edge">
<title>geef_houweel_aan_dwerg&#45;&gt;krijg_edelsteen_van_dwerg</title>
<path fill="none" stroke="#999999" d="M587.1021,-1532.0898C599.4308,-1504.8686 620.195,-1451.9753 620.195,-1404.5 620.195,-1404.5 620.195,-1404.5 620.195,-1039.5 620.195,-981.495 678.5066,-939.0648 722.416,-915.337"/>
<polygon fill="#999999" stroke="#999999" points="723.8315,-917.7561 729.6028,-911.5486 721.2202,-912.8022 723.8315,-917.7561"/>
</g>
<!-- repareer_houweel -->
<g id="node28" class="node">
<title>repareer_houweel</title>
<path fill="#008800" stroke="#008800" d="M511.9204,-1678.5C511.9204,-1678.5 608.4696,-1678.5 608.4696,-1678.5 614.4696,-1678.5 620.4696,-1684.5 620.4696,-1690.5 620.4696,-1690.5 620.4696,-1702.5 620.4696,-1702.5 620.4696,-1708.5 614.4696,-1714.5 608.4696,-1714.5 608.4696,-1714.5 511.9204,-1714.5 511.9204,-1714.5 505.9204,-1714.5 499.9204,-1708.5 499.9204,-1702.5 499.9204,-1702.5 499.9204,-1690.5 499.9204,-1690.5 499.9204,-1684.5 505.9204,-1678.5 511.9204,-1678.5"/>
<text text-anchor="middle" x="560.195" y="-1692.3" font-family="lato, roboto, helvetica" font-size="14.00" fill="#eeeeee">Repareer Houweel</text>
</g>
<!-- repareer_houweel&#45;&gt;geef_houweel_aan_dwerg -->
<g id="edge17" class="edge">
<title>repareer_houweel&#45;&gt;geef_houweel_aan_dwerg</title>
<path fill="none" stroke="#999999" d="M562.4383,-1678.3042C565.5777,-1652.8403 571.3019,-1606.4108 574.9185,-1577.0759"/>
<polygon fill="#999999" stroke="#999999" points="577.7234,-1577.2076 575.9234,-1568.9251 572.1655,-1576.5224 577.7234,-1577.2076"/>
</g>
<!-- haal_wagen_bij_molenaar_met_paard -->
<g id="node34" class="node">
<title>haal_wagen_bij_molenaar_met_paard</title>
<path fill="#008800" stroke="#008800" d="M1337.8201,-1532.5C1337.8201,-1532.5 1538.5699,-1532.5 1538.5699,-1532.5 1544.5699,-1532.5 1550.5699,-1538.5 1550.5699,-1544.5 1550.5699,-1544.5 1550.5699,-1556.5 1550.5699,-1556.5 1550.5699,-1562.5 1544.5699,-1568.5 1538.5699,-1568.5 1538.5699,-1568.5 1337.8201,-1568.5 1337.8201,-1568.5 1331.8201,-1568.5 1325.8201,-1562.5 1325.8201,-1556.5 1325.8201,-1556.5 1325.8201,-1544.5 1325.8201,-1544.5 1325.8201,-1538.5 1331.8201,-1532.5 1337.8201,-1532.5"/>
<text text-anchor="middle" x="1438.195" y="-1546.3" font-family="lato, roboto, helvetica" font-size="14.00" fill="#eeeeee">Haal Wagen Bij Molenaar Met Paard</text>
</g>
<!-- geef_paard_nieuwe_hoefijzers&#45;&gt;haal_wagen_bij_molenaar_met_paard -->
<g id="edge24" class="edge">
<title>geef_paard_nieuwe_hoefijzers&#45;&gt;haal_wagen_bij_molenaar_met_paard</title>
<path fill="none" stroke="#999999" d="M1472.0714,-1605.4551C1466.5004,-1596.4177 1459.6667,-1585.3319 1453.5998,-1575.4899"/>
<polygon fill="#999999" stroke="#999999" points="1455.9281,-1573.9311 1449.3466,-1568.5904 1451.1611,-1576.8697 1455.9281,-1573.9311"/>
</g>
<!-- geef_sieraad_aan_heks -->
<g id="node30" class="node">
<title>geef_sieraad_aan_heks</title>
<path fill="#008800" stroke="#008800" d="M718.3145,-729.5C718.3145,-729.5 842.0755,-729.5 842.0755,-729.5 848.0755,-729.5 854.0755,-735.5 854.0755,-741.5 854.0755,-741.5 854.0755,-753.5 854.0755,-753.5 854.0755,-759.5 848.0755,-765.5 842.0755,-765.5 842.0755,-765.5 718.3145,-765.5 718.3145,-765.5 712.3145,-765.5 706.3145,-759.5 706.3145,-753.5 706.3145,-753.5 706.3145,-741.5 706.3145,-741.5 706.3145,-735.5 712.3145,-729.5 718.3145,-729.5"/>
<text text-anchor="middle" x="780.195" y="-743.3" font-family="lato, roboto, helvetica" font-size="14.00" fill="#eeeeee">Geef Sieraad Aan Heks</text>
</g>
<!-- krijg_ingredientenlijst_van_heks -->
<g id="node44" class="node">
<title>krijg_ingredientenlijst_van_heks</title>
<path fill="#008800" stroke="#008800" d="M692.2507,-583.5C692.2507,-583.5 868.1393,-583.5 868.1393,-583.5 874.1393,-583.5 880.1393,-589.5 880.1393,-595.5 880.1393,-595.5 880.1393,-607.5 880.1393,-607.5 880.1393,-613.5 874.1393,-619.5 868.1393,-619.5 868.1393,-619.5 692.2507,-619.5 692.2507,-619.5 686.2507,-619.5 680.2507,-613.5 680.2507,-607.5 680.2507,-607.5 680.2507,-595.5 680.2507,-595.5 680.2507,-589.5 686.2507,-583.5 692.2507,-583.5"/>
<text text-anchor="middle" x="780.195" y="-597.3" font-family="lato, roboto, helvetica" font-size="14.00" fill="#eeeeee">Krijg Ingredientenlijst Van Heks</text>
</g>
<!-- geef_sieraad_aan_heks&#45;&gt;krijg_ingredientenlijst_van_heks -->
<g id="edge40" class="edge">
<title>geef_sieraad_aan_heks&#45;&gt;krijg_ingredientenlijst_van_heks</title>
<path fill="none" stroke="#999999" d="M780.195,-729.3042C780.195,-703.8403 780.195,-657.4108 780.195,-628.0759"/>
<polygon fill="#999999" stroke="#999999" points="782.9951,-627.9251 780.195,-619.9251 777.3951,-627.9251 782.9951,-627.9251"/>
</g>
<!-- praat_met_heks&#45;&gt;geef_sieraad_aan_heks -->
<g id="edge20" class="edge">
<title>praat_met_heks&#45;&gt;geef_sieraad_aan_heks</title>
<path fill="none" stroke="#999999" d="M912.9331,-875.1533C899.5256,-855.8064 876.7869,-825.0005 853.195,-802 841.5377,-790.6349 827.4522,-779.5979 814.7761,-770.4626"/>
<polygon fill="#999999" stroke="#999999" points="816.0496,-767.9333 807.9032,-765.593 812.8122,-772.5027 816.0496,-767.9333"/>
</g>
<!-- maak_sieraad_bij_smid -->
<g id="node32" class="node">
<title>maak_sieraad_bij_smid</title>
<path fill="#008800" stroke="#008800" d="M708.6785,-802.5C708.6785,-802.5 831.7115,-802.5 831.7115,-802.5 837.7115,-802.5 843.7115,-808.5 843.7115,-814.5 843.7115,-814.5 843.7115,-826.5 843.7115,-826.5 843.7115,-832.5 837.7115,-838.5 831.7115,-838.5 831.7115,-838.5 708.6785,-838.5 708.6785,-838.5 702.6785,-838.5 696.6785,-832.5 696.6785,-826.5 696.6785,-826.5 696.6785,-814.5 696.6785,-814.5 696.6785,-808.5 702.6785,-802.5 708.6785,-802.5"/>
<text text-anchor="middle" x="770.195" y="-816.3" font-family="lato, roboto, helvetica" font-size="14.00" fill="#eeeeee">Maak Sieraad Bij Smid</text>
</g>
<!-- praat_met_heks&#45;&gt;maak_sieraad_bij_smid -->
<g id="edge61" class="edge">
<title>praat_met_heks&#45;&gt;maak_sieraad_bij_smid</title>
<path fill="none" stroke="#999999" d="M886.8804,-875.4551C865.4558,-865.3648 838.6095,-852.721 816.0705,-842.1059"/>
<polygon fill="#999999" stroke="#999999" points="817.0366,-839.4659 808.606,-838.5904 814.6505,-844.5322 817.0366,-839.4659"/>
</g>
<!-- maak_sieraad_bij_smid&#45;&gt;krijg_geldstuk_van_smid -->
<g id="edge39" class="edge">
<title>maak_sieraad_bij_smid&#45;&gt;krijg_geldstuk_van_smid</title>
<path fill="none" stroke="#999999" d="M729.1613,-802.4551C706.0168,-792.277 676.9642,-779.5009 652.6975,-768.8294"/>
<polygon fill="#999999" stroke="#999999" points="653.7823,-766.2477 645.332,-765.5904 651.528,-771.374 653.7823,-766.2477"/>
</g>
<!-- maak_sieraad_bij_smid&#45;&gt;geef_sieraad_aan_heks -->
<g id="edge21" class="edge">
<title>maak_sieraad_bij_smid&#45;&gt;geef_sieraad_aan_heks</title>
<path fill="none" stroke="#999999" d="M772.6669,-802.4551C773.8568,-793.7686 775.306,-783.1898 776.6139,-773.642"/>
<polygon fill="#999999" stroke="#999999" points="779.4051,-773.8964 777.7169,-765.5904 773.8569,-773.1363 779.4051,-773.8964"/>
</g>
<!-- praat_met_boer&#45;&gt;genoeg_info_over_monster -->
<g id="edge23" class="edge">
<title>praat_met_boer&#45;&gt;genoeg_info_over_monster</title>
<path fill="none" stroke="#999999" d="M1572.8443,-1824.4736C1599.6931,-1798.9223 1643.195,-1749.3658 1643.195,-1696.5 1643.195,-1696.5 1643.195,-1696.5 1643.195,-1258.5 1643.195,-1170.555 1534.1453,-1135.5412 1451.1933,-1121.6288"/>
<polygon fill="#999999" stroke="#999999" points="1451.5956,-1118.8576 1443.2516,-1120.3472 1450.7034,-1124.3861 1451.5956,-1118.8576"/>
</g>
<!-- praat_met_boer&#45;&gt;zet_graan_op_wagen -->
<g id="edge99" class="edge">
<title>praat_met_boer&#45;&gt;zet_graan_op_wagen</title>
<path fill="none" stroke="#999999" d="M1563.4349,-1824.3709C1578.9926,-1797.4997 1605.195,-1745.0382 1605.195,-1696.5 1605.195,-1696.5 1605.195,-1696.5 1605.195,-1623.5 1605.195,-1577.9835 1592.0588,-1563.4917 1559.195,-1532 1544.3626,-1517.7869 1525.1838,-1506.8631 1506.4855,-1498.6615"/>
<polygon fill="#999999" stroke="#999999" points="1507.5355,-1496.0655 1499.076,-1495.538 1505.3601,-1501.2258 1507.5355,-1496.0655"/>
</g>
<!-- praat_met_boer&#45;&gt;vind_paard_bij_rivier -->
<g id="edge93" class="edge">
<title>praat_met_boer&#45;&gt;vind_paard_bij_rivier</title>
<path fill="none" stroke="#999999" d="M1539.0939,-1824.4551C1532.4688,-1815.3299 1524.3275,-1804.1165 1517.1305,-1794.2036"/>
<polygon fill="#999999" stroke="#999999" points="1519.295,-1792.4191 1512.3291,-1787.5904 1514.7634,-1795.7091 1519.295,-1792.4191"/>
</g>
<!-- haal_wagen_bij_molenaar_met_paard&#45;&gt;zet_graan_op_wagen -->
<g id="edge98" class="edge">
<title>haal_wagen_bij_molenaar_met_paard&#45;&gt;zet_graan_op_wagen</title>
<path fill="none" stroke="#999999" d="M1438.195,-1532.4551C1438.195,-1523.7686 1438.195,-1513.1898 1438.195,-1503.642"/>
<polygon fill="#999999" stroke="#999999" points="1440.9951,-1503.5903 1438.195,-1495.5904 1435.3951,-1503.5904 1440.9951,-1503.5903"/>
</g>
<!-- repareer_molen_met_onderbroek -->
<g id="node35" class="node">
<title>repareer_molen_met_onderbroek</title>
<path fill="#008800" stroke="#008800" d="M1180.7086,-1605.5C1180.7086,-1605.5 1359.6814,-1605.5 1359.6814,-1605.5 1365.6814,-1605.5 1371.6814,-1611.5 1371.6814,-1617.5 1371.6814,-1617.5 1371.6814,-1629.5 1371.6814,-1629.5 1371.6814,-1635.5 1365.6814,-1641.5 1359.6814,-1641.5 1359.6814,-1641.5 1180.7086,-1641.5 1180.7086,-1641.5 1174.7086,-1641.5 1168.7086,-1635.5 1168.7086,-1629.5 1168.7086,-1629.5 1168.7086,-1617.5 1168.7086,-1617.5 1168.7086,-1611.5 1174.7086,-1605.5 1180.7086,-1605.5"/>
<text text-anchor="middle" x="1270.195" y="-1619.3" font-family="lato, roboto, helvetica" font-size="14.00" fill="#eeeeee">Repareer Molen Met Onderbroek</text>
</g>
<!-- repareer_molen_met_onderbroek&#45;&gt;krijg_meel_bij_molenaar -->
<g id="edge43" class="edge">
<title>repareer_molen_met_onderbroek&#45;&gt;krijg_meel_bij_molenaar</title>
<path fill="none" stroke="#999999" d="M1272.2207,-1605.2556C1277.0204,-1564.9488 1290.6434,-1465.5762 1316.195,-1386 1319.3278,-1376.2435 1323.7477,-1365.932 1328.0018,-1356.9348"/>
<polygon fill="#999999" stroke="#999999" points="1330.526,-1358.1466 1331.5042,-1349.7274 1325.4892,-1355.6989 1330.526,-1358.1466"/>
</g>
<!-- repareer_molen_met_onderbroek&#45;&gt;haal_wagen_bij_molenaar_met_paard -->
<g id="edge25" class="edge">
<title>repareer_molen_met_onderbroek&#45;&gt;haal_wagen_bij_molenaar_met_paard</title>
<path fill="none" stroke="#999999" d="M1311.7231,-1605.4551C1335.1465,-1595.277 1364.549,-1582.5009 1389.1081,-1571.8294"/>
<polygon fill="#999999" stroke="#999999" points="1390.341,-1574.3467 1396.5624,-1568.5904 1388.1092,-1569.2106 1390.341,-1574.3467"/>
</g>
<!-- hijs_lift_met_molensteen -->
<g id="node36" class="node">
<title>hijs_lift_met_molensteen</title>
<path fill="#008800" stroke="#008800" d="M1210.8496,-802.5C1210.8496,-802.5 1345.5404,-802.5 1345.5404,-802.5 1351.5404,-802.5 1357.5404,-808.5 1357.5404,-814.5 1357.5404,-814.5 1357.5404,-826.5 1357.5404,-826.5 1357.5404,-832.5 1351.5404,-838.5 1345.5404,-838.5 1345.5404,-838.5 1210.8496,-838.5 1210.8496,-838.5 1204.8496,-838.5 1198.8496,-832.5 1198.8496,-826.5 1198.8496,-826.5 1198.8496,-814.5 1198.8496,-814.5 1198.8496,-808.5 1204.8496,-802.5 1210.8496,-802.5"/>
<text text-anchor="middle" x="1278.195" y="-816.3" font-family="lato, roboto, helvetica" font-size="14.00" fill="#eeeeee">Hijs Lift Met Molensteen</text>
</g>
<!-- knoop_touw_aan_molensteen -->
<g id="node38" class="node">
<title>knoop_touw_aan_molensteen</title>
<path fill="#008800" stroke="#008800" d="M1076.2444,-729.5C1076.2444,-729.5 1238.1456,-729.5 1238.1456,-729.5 1244.1456,-729.5 1250.1456,-735.5 1250.1456,-741.5 1250.1456,-741.5 1250.1456,-753.5 1250.1456,-753.5 1250.1456,-759.5 1244.1456,-765.5 1238.1456,-765.5 1238.1456,-765.5 1076.2444,-765.5 1076.2444,-765.5 1070.2444,-765.5 1064.2444,-759.5 1064.2444,-753.5 1064.2444,-753.5 1064.2444,-741.5 1064.2444,-741.5 1064.2444,-735.5 1070.2444,-729.5 1076.2444,-729.5"/>
<text text-anchor="middle" x="1157.195" y="-743.3" font-family="lato, roboto, helvetica" font-size="14.00" fill="#eeeeee">Knoop Touw Aan Molensteen</text>
</g>
<!-- hijs_lift_met_molensteen&#45;&gt;knoop_touw_aan_molensteen -->
<g id="edge28" class="edge">
<title>hijs_lift_met_molensteen&#45;&gt;knoop_touw_aan_molensteen</title>
<path fill="none" stroke="#999999" d="M1248.2849,-802.4551C1231.9962,-792.628 1211.693,-780.3789 1194.3912,-769.9407"/>
<polygon fill="#999999" stroke="#999999" points="1195.4768,-767.3255 1187.1804,-765.5904 1192.5839,-772.1205 1195.4768,-767.3255"/>
</g>
<!-- snij_touw_van_lift -->
<g id="node69" class="node">
<title>snij_touw_van_lift</title>
<path fill="#008800" stroke="#008800" d="M1096.1757,-656.5C1096.1757,-656.5 1198.2143,-656.5 1198.2143,-656.5 1204.2143,-656.5 1210.2143,-662.5 1210.2143,-668.5 1210.2143,-668.5 1210.2143,-680.5 1210.2143,-680.5 1210.2143,-686.5 1204.2143,-692.5 1198.2143,-692.5 1198.2143,-692.5 1096.1757,-692.5 1096.1757,-692.5 1090.1757,-692.5 1084.1757,-686.5 1084.1757,-680.5 1084.1757,-680.5 1084.1757,-668.5 1084.1757,-668.5 1084.1757,-662.5 1090.1757,-656.5 1096.1757,-656.5"/>
<text text-anchor="middle" x="1147.195" y="-670.3" font-family="lato, roboto, helvetica" font-size="14.00" fill="#eeeeee">Snij Touw Van Lift</text>
</g>
<!-- hijs_lift_met_molensteen&#45;&gt;snij_touw_van_lift -->
<g id="edge86" class="edge">
<title>hijs_lift_met_molensteen&#45;&gt;snij_touw_van_lift</title>
<path fill="none" stroke="#999999" d="M1278.9344,-802.4054C1278.8143,-782.4176 1275.7359,-750.2543 1259.195,-729 1248.1386,-714.793 1232.429,-704.0627 1216.2617,-696.0502"/>
<polygon fill="#999999" stroke="#999999" points="1217.2483,-693.4202 1208.8164,-692.5573 1214.8698,-698.49 1217.2483,-693.4202"/>
</g>
<!-- leg_molensteen_op_lift -->
<g id="node37" class="node">
<title>leg_molensteen_op_lift</title>
<path fill="#008800" stroke="#008800" d="M1237.3538,-875.5C1237.3538,-875.5 1365.0362,-875.5 1365.0362,-875.5 1371.0362,-875.5 1377.0362,-881.5 1377.0362,-887.5 1377.0362,-887.5 1377.0362,-899.5 1377.0362,-899.5 1377.0362,-905.5 1371.0362,-911.5 1365.0362,-911.5 1365.0362,-911.5 1237.3538,-911.5 1237.3538,-911.5 1231.3538,-911.5 1225.3538,-905.5 1225.3538,-899.5 1225.3538,-899.5 1225.3538,-887.5 1225.3538,-887.5 1225.3538,-881.5 1231.3538,-875.5 1237.3538,-875.5"/>
<text text-anchor="middle" x="1301.195" y="-889.3" font-family="lato, roboto, helvetica" font-size="14.00" fill="#eeeeee">Leg Molensteen Op Lift</text>
</g>
<!-- leg_molensteen_op_lift&#45;&gt;hijs_lift_met_molensteen -->
<g id="edge26" class="edge">
<title>leg_molensteen_op_lift&#45;&gt;hijs_lift_met_molensteen</title>
<path fill="none" stroke="#999999" d="M1295.5096,-875.4551C1292.7451,-866.6809 1289.3724,-855.9759 1286.3405,-846.353"/>
<polygon fill="#999999" stroke="#999999" points="1288.9694,-845.3792 1283.8947,-838.5904 1283.6282,-847.062 1288.9694,-845.3792"/>
</g>
<!-- knoop_touw_aan_molensteen&#45;&gt;snij_touw_van_lift -->
<g id="edge84" class="edge">
<title>knoop_touw_aan_molensteen&#45;&gt;snij_touw_van_lift</title>
<path fill="none" stroke="#999999" d="M1154.7231,-729.4551C1153.5332,-720.7686 1152.084,-710.1898 1150.7761,-700.642"/>
<polygon fill="#999999" stroke="#999999" points="1153.5331,-700.1363 1149.6731,-692.5904 1147.9849,-700.8964 1153.5331,-700.1363"/>
</g>
<!-- pak_touw_op_boerderij&#45;&gt;knoop_touw_aan_molensteen -->
<g id="edge27" class="edge">
<title>pak_touw_op_boerderij&#45;&gt;knoop_touw_aan_molensteen</title>
<path fill="none" stroke="#999999" d="M1042.768,-802.4551C1063.7779,-792.3648 1090.1047,-779.721 1112.2074,-769.1059"/>
<polygon fill="#999999" stroke="#999999" points="1113.5282,-771.5778 1119.5274,-765.5904 1111.1037,-766.5298 1113.5282,-771.5778"/>
</g>
<!-- knoop_touw_aan_tand -->
<g id="node40" class="node">
<title>knoop_touw_aan_tand</title>
<path fill="#008800" stroke="#008800" d="M908.5179,-729.5C908.5179,-729.5 1033.8721,-729.5 1033.8721,-729.5 1039.8721,-729.5 1045.8721,-735.5 1045.8721,-741.5 1045.8721,-741.5 1045.8721,-753.5 1045.8721,-753.5 1045.8721,-759.5 1039.8721,-765.5 1033.8721,-765.5 1033.8721,-765.5 908.5179,-765.5 908.5179,-765.5 902.5179,-765.5 896.5179,-759.5 896.5179,-753.5 896.5179,-753.5 896.5179,-741.5 896.5179,-741.5 896.5179,-735.5 902.5179,-729.5 908.5179,-729.5"/>
<text text-anchor="middle" x="971.195" y="-743.3" font-family="lato, roboto, helvetica" font-size="14.00" fill="#eeeeee">Knoop Touw Aan Tand</text>
</g>
<!-- pak_touw_op_boerderij&#45;&gt;knoop_touw_aan_tand -->
<g id="edge29" class="edge">
<title>pak_touw_op_boerderij&#45;&gt;knoop_touw_aan_tand</title>
<path fill="none" stroke="#999999" d="M996.7905,-802.4551C992.663,-793.5932 987.6182,-782.7616 983.1018,-773.0646"/>
<polygon fill="#999999" stroke="#999999" points="985.5366,-771.6602 979.6206,-765.5904 980.4601,-774.0246 985.5366,-771.6602"/>
</g>
<!-- knoop_touw_aan_tand&#45;&gt;snij_touw_van_lift -->
<g id="edge85" class="edge">
<title>knoop_touw_aan_tand&#45;&gt;snij_touw_van_lift</title>
<path fill="none" stroke="#999999" d="M1014.7006,-729.4551C1039.3452,-719.2332 1070.3078,-706.3907 1096.103,-695.6916"/>
<polygon fill="#999999" stroke="#999999" points="1097.2631,-698.2418 1103.5799,-692.5904 1095.1175,-693.0691 1097.2631,-698.2418"/>
</g>
<!-- _1&#45;&gt;koop_eten_bij_bakker -->
<g id="edge30" class="edge">
<title>_1&#45;&gt;koop_eten_bij_bakker</title>
<path fill="none" stroke="#999999" d="M794.195,-1094.4551C794.195,-1085.7686 794.195,-1075.1898 794.195,-1065.642"/>
<polygon fill="#999999" stroke="#999999" points="796.9951,-1065.5903 794.195,-1057.5904 791.3951,-1065.5904 796.9951,-1065.5903"/>
</g>
<!-- krijg_100_geld_van_meel&#45;&gt;koop_zwaard_voor_99_bij_wapensmid -->
<g id="edge33" class="edge">
<title>krijg_100_geld_van_meel&#45;&gt;koop_zwaard_voor_99_bij_wapensmid</title>
<path fill="none" stroke="#999999" d="M1024.2624,-1167.4551C1045.5487,-1157.3648 1072.2219,-1144.721 1094.6155,-1134.1059"/>
<polygon fill="#999999" stroke="#999999" points="1096.0022,-1136.5473 1102.0318,-1130.5904 1093.6035,-1131.487 1096.0022,-1136.5473"/>
</g>
<!-- krijg_100_geld_van_meel&#45;&gt;_1 -->
<g id="edge32" class="edge">
<title>krijg_100_geld_van_meel&#45;&gt;_1</title>
<path fill="none" stroke="#999999" stroke-dasharray="5,2" d="M938.7343,-1167.4551C901.4247,-1153.2696 850.8413,-1134.0374 820.4705,-1122.4902"/>
<polygon fill="#999999" stroke="#999999" points="821.3095,-1119.8136 812.8366,-1119.5877 819.3193,-1125.0481 821.3095,-1119.8136"/>
</g>
<!-- krijg_edelsteen_van_dwerg&#45;&gt;maak_sieraad_bij_smid -->
<g id="edge59" class="edge">
<title>krijg_edelsteen_van_dwerg&#45;&gt;maak_sieraad_bij_smid</title>
<path fill="none" stroke="#999999" d="M770.195,-875.4551C770.195,-866.7686 770.195,-856.1898 770.195,-846.642"/>
<polygon fill="#999999" stroke="#999999" points="772.9951,-846.5903 770.195,-838.5904 767.3951,-846.5904 772.9951,-846.5903"/>
</g>
<!-- krijg_ingredientenlijst_van_heks&#45;&gt;pak_tand_van_draak -->
<g id="edge66" class="edge">
<title>krijg_ingredientenlijst_van_heks&#45;&gt;pak_tand_van_draak</title>
<path fill="none" stroke="#999999" d="M823.2062,-583.4551C847.5707,-573.2332 878.1815,-560.3907 903.6836,-549.6916"/>
<polygon fill="#999999" stroke="#999999" points="904.7817,-552.2674 911.0755,-546.5904 902.6152,-547.1034 904.7817,-552.2674"/>
</g>
<!-- pluk_kruiden_in_moeras -->
<g id="node53" class="node">
<title>pluk_kruiden_in_moeras</title>
<path fill="#008800" stroke="#008800" d="M533.3524,-510.5C533.3524,-510.5 661.0376,-510.5 661.0376,-510.5 667.0376,-510.5 673.0376,-516.5 673.0376,-522.5 673.0376,-522.5 673.0376,-534.5 673.0376,-534.5 673.0376,-540.5 667.0376,-546.5 661.0376,-546.5 661.0376,-546.5 533.3524,-546.5 533.3524,-546.5 527.3524,-546.5 521.3524,-540.5 521.3524,-534.5 521.3524,-534.5 521.3524,-522.5 521.3524,-522.5 521.3524,-516.5 527.3524,-510.5 533.3524,-510.5"/>
<text text-anchor="middle" x="597.195" y="-524.3" font-family="lato, roboto, helvetica" font-size="14.00" fill="#eeeeee">Pluk Kruiden In Moeras</text>
</g>
<!-- krijg_ingredientenlijst_van_heks&#45;&gt;pluk_kruiden_in_moeras -->
<g id="edge70" class="edge">
<title>krijg_ingredientenlijst_van_heks&#45;&gt;pluk_kruiden_in_moeras</title>
<path fill="none" stroke="#999999" d="M734.959,-583.4551C709.3343,-573.2332 677.1403,-560.3907 650.319,-549.6916"/>
<polygon fill="#999999" stroke="#999999" points="651.0129,-546.9538 642.5448,-546.5904 648.938,-552.1553 651.0129,-546.9538"/>
</g>
<!-- pluk_paddenstoelen_in_woud -->
<g id="node54" class="node">
<title>pluk_paddenstoelen_in_woud</title>
<path fill="#008800" stroke="#008800" d="M702.7374,-510.5C702.7374,-510.5 857.6526,-510.5 857.6526,-510.5 863.6526,-510.5 869.6526,-516.5 869.6526,-522.5 869.6526,-522.5 869.6526,-534.5 869.6526,-534.5 869.6526,-540.5 863.6526,-546.5 857.6526,-546.5 857.6526,-546.5 702.7374,-546.5 702.7374,-546.5 696.7374,-546.5 690.7374,-540.5 690.7374,-534.5 690.7374,-534.5 690.7374,-522.5 690.7374,-522.5 690.7374,-516.5 696.7374,-510.5 702.7374,-510.5"/>
<text text-anchor="middle" x="780.195" y="-524.3" font-family="lato, roboto, helvetica" font-size="14.00" fill="#eeeeee">Pluk Paddenstoelen In Woud</text>
</g>
<!-- krijg_ingredientenlijst_van_heks&#45;&gt;pluk_paddenstoelen_in_woud -->
<g id="edge71" class="edge">
<title>krijg_ingredientenlijst_van_heks&#45;&gt;pluk_paddenstoelen_in_woud</title>
<path fill="none" stroke="#999999" d="M780.195,-583.4551C780.195,-574.7686 780.195,-564.1898 780.195,-554.642"/>
<polygon fill="#999999" stroke="#999999" points="782.9951,-554.5903 780.195,-546.5904 777.3951,-554.5904 782.9951,-554.5903"/>
</g>
<!-- krijg_kapotte_houweel_van_dwerg&#45;&gt;repareer_houweel -->
<g id="edge80" class="edge">
<title>krijg_kapotte_houweel_van_dwerg&#45;&gt;repareer_houweel</title>
<path fill="none" stroke="#999999" d="M560.195,-1751.4551C560.195,-1742.7686 560.195,-1732.1898 560.195,-1722.642"/>
<polygon fill="#999999" stroke="#999999" points="562.9951,-1722.5903 560.195,-1714.5904 557.3951,-1722.5904 562.9951,-1722.5903"/>
</g>
<!-- krijg_plant_hint_van_bakker -->
<g id="node46" class="node">
<title>krijg_plant_hint_van_bakker</title>
<path fill="#008800" stroke="#008800" d="M412.7139,-1094.5C412.7139,-1094.5 565.6761,-1094.5 565.6761,-1094.5 571.6761,-1094.5 577.6761,-1100.5 577.6761,-1106.5 577.6761,-1106.5 577.6761,-1118.5 577.6761,-1118.5 577.6761,-1124.5 571.6761,-1130.5 565.6761,-1130.5 565.6761,-1130.5 412.7139,-1130.5 412.7139,-1130.5 406.7139,-1130.5 400.7139,-1124.5 400.7139,-1118.5 400.7139,-1118.5 400.7139,-1106.5 400.7139,-1106.5 400.7139,-1100.5 406.7139,-1094.5 412.7139,-1094.5"/>
<text text-anchor="middle" x="489.195" y="-1108.3" font-family="lato, roboto, helvetica" font-size="14.00" fill="#eeeeee">Krijg Plant Hint Van Bakker</text>
</g>
<!-- vind_maansteen_in_moeras -->
<g id="node72" class="node">
<title>vind_maansteen_in_moeras</title>
<path fill="#008800" stroke="#008800" d="M412.8075,-1021.5C412.8075,-1021.5 557.5825,-1021.5 557.5825,-1021.5 563.5825,-1021.5 569.5825,-1027.5 569.5825,-1033.5 569.5825,-1033.5 569.5825,-1045.5 569.5825,-1045.5 569.5825,-1051.5 563.5825,-1057.5 557.5825,-1057.5 557.5825,-1057.5 412.8075,-1057.5 412.8075,-1057.5 406.8075,-1057.5 400.8075,-1051.5 400.8075,-1045.5 400.8075,-1045.5 400.8075,-1033.5 400.8075,-1033.5 400.8075,-1027.5 406.8075,-1021.5 412.8075,-1021.5"/>
<text text-anchor="middle" x="485.195" y="-1035.3" font-family="lato, roboto, helvetica" font-size="14.00" fill="#eeeeee">Vind Maansteen In Moeras</text>
</g>
<!-- krijg_plant_hint_van_bakker&#45;&gt;vind_maansteen_in_moeras -->
<g id="edge91" class="edge">
<title>krijg_plant_hint_van_bakker&#45;&gt;vind_maansteen_in_moeras</title>
<path fill="none" stroke="#999999" d="M488.2062,-1094.4551C487.7303,-1085.7686 487.1506,-1075.1898 486.6274,-1065.642"/>
<polygon fill="#999999" stroke="#999999" points="489.4199,-1065.4251 486.1863,-1057.5904 483.8282,-1065.7316 489.4199,-1065.4251"/>
</g>
<!-- krijg_schat_onderwerp -->
<g id="node47" class="node">
<title>krijg_schat_onderwerp</title>
<path fill="#008800" stroke="#008800" d="M236.8878,-1167.5C236.8878,-1167.5 359.5022,-1167.5 359.5022,-1167.5 365.5022,-1167.5 371.5022,-1173.5 371.5022,-1179.5 371.5022,-1179.5 371.5022,-1191.5 371.5022,-1191.5 371.5022,-1197.5 365.5022,-1203.5 359.5022,-1203.5 359.5022,-1203.5 236.8878,-1203.5 236.8878,-1203.5 230.8878,-1203.5 224.8878,-1197.5 224.8878,-1191.5 224.8878,-1191.5 224.8878,-1179.5 224.8878,-1179.5 224.8878,-1173.5 230.8878,-1167.5 236.8878,-1167.5"/>
<text text-anchor="middle" x="298.195" y="-1181.3" font-family="lato, roboto, helvetica" font-size="14.00" fill="#eeeeee">Krijg Schat Onderwerp</text>
</g>
<!-- krijg_schat_onderwerp&#45;&gt;krijg_plant_hint_van_bakker -->
<g id="edge44" class="edge">
<title>krijg_schat_onderwerp&#45;&gt;krijg_plant_hint_van_bakker</title>
<path fill="none" stroke="#999999" d="M345.4085,-1167.4551C372.2682,-1157.1893 406.0434,-1144.2804 434.1087,-1133.5539"/>
<polygon fill="#999999" stroke="#999999" points="435.3895,-1136.062 441.8627,-1130.5904 433.3902,-1130.831 435.3895,-1136.062"/>
</g>
<!-- krijg_rivier_hint_van_molenaar -->
<g id="node48" class="node">
<title>krijg_rivier_hint_van_molenaar</title>
<path fill="#008800" stroke="#008800" d="M12,-1094.5C12,-1094.5 184.39,-1094.5 184.39,-1094.5 190.39,-1094.5 196.39,-1100.5 196.39,-1106.5 196.39,-1106.5 196.39,-1118.5 196.39,-1118.5 196.39,-1124.5 190.39,-1130.5 184.39,-1130.5 184.39,-1130.5 12,-1130.5 12,-1130.5 6,-1130.5 0,-1124.5 0,-1118.5 0,-1118.5 0,-1106.5 0,-1106.5 0,-1100.5 6,-1094.5 12,-1094.5"/>
<text text-anchor="middle" x="98.195" y="-1108.3" font-family="lato, roboto, helvetica" font-size="14.00" fill="#eeeeee">Krijg Rivier Hint Van Molenaar</text>
</g>
<!-- krijg_schat_onderwerp&#45;&gt;krijg_rivier_hint_van_molenaar -->
<g id="edge45" class="edge">
<title>krijg_schat_onderwerp&#45;&gt;krijg_rivier_hint_van_molenaar</title>
<path fill="none" stroke="#999999" d="M248.7568,-1167.4551C220.5112,-1157.1454 184.9623,-1144.1701 155.5005,-1133.4165"/>
<polygon fill="#999999" stroke="#999999" points="156.2328,-1130.7031 147.7576,-1130.5904 154.3126,-1135.9637 156.2328,-1130.7031"/>
</g>
<!-- krijg_route_hint_van_boer -->
<g id="node49" class="node">
<title>krijg_route_hint_van_boer</title>
<path fill="#008800" stroke="#008800" d="M225.9895,-1094.5C225.9895,-1094.5 370.4005,-1094.5 370.4005,-1094.5 376.4005,-1094.5 382.4005,-1100.5 382.4005,-1106.5 382.4005,-1106.5 382.4005,-1118.5 382.4005,-1118.5 382.4005,-1124.5 376.4005,-1130.5 370.4005,-1130.5 370.4005,-1130.5 225.9895,-1130.5 225.9895,-1130.5 219.9895,-1130.5 213.9895,-1124.5 213.9895,-1118.5 213.9895,-1118.5 213.9895,-1106.5 213.9895,-1106.5 213.9895,-1100.5 219.9895,-1094.5 225.9895,-1094.5"/>
<text text-anchor="middle" x="298.195" y="-1108.3" font-family="lato, roboto, helvetica" font-size="14.00" fill="#eeeeee">Krijg Route Hint Van Boer</text>
</g>
<!-- krijg_schat_onderwerp&#45;&gt;krijg_route_hint_van_boer -->
<g id="edge46" class="edge">
<title>krijg_schat_onderwerp&#45;&gt;krijg_route_hint_van_boer</title>
<path fill="none" stroke="#999999" d="M298.195,-1167.4551C298.195,-1158.7686 298.195,-1148.1898 298.195,-1138.642"/>
<polygon fill="#999999" stroke="#999999" points="300.9951,-1138.5903 298.195,-1130.5904 295.3951,-1138.5904 300.9951,-1138.5903"/>
</g>
<!-- schat_route_compleet -->
<g id="node68" class="node">
<title>schat_route_compleet</title>
<path fill="#008800" stroke="#008800" d="M239.2041,-1021.5C239.2041,-1021.5 357.1859,-1021.5 357.1859,-1021.5 363.1859,-1021.5 369.1859,-1027.5 369.1859,-1033.5 369.1859,-1033.5 369.1859,-1045.5 369.1859,-1045.5 369.1859,-1051.5 363.1859,-1057.5 357.1859,-1057.5 357.1859,-1057.5 239.2041,-1057.5 239.2041,-1057.5 233.2041,-1057.5 227.2041,-1051.5 227.2041,-1045.5 227.2041,-1045.5 227.2041,-1033.5 227.2041,-1033.5 227.2041,-1027.5 233.2041,-1021.5 239.2041,-1021.5"/>
<text text-anchor="middle" x="298.195" y="-1035.3" font-family="lato, roboto, helvetica" font-size="14.00" fill="#eeeeee">Schat Route Compleet</text>
</g>
<!-- krijg_rivier_hint_van_molenaar&#45;&gt;schat_route_compleet -->
<g id="edge82" class="edge">
<title>krijg_rivier_hint_van_molenaar&#45;&gt;schat_route_compleet</title>
<path fill="none" stroke="#999999" d="M147.6332,-1094.4551C175.8788,-1084.1454 211.4277,-1071.1701 240.8895,-1060.4165"/>
<polygon fill="#999999" stroke="#999999" points="242.0774,-1062.9637 248.6324,-1057.5904 240.1572,-1057.7031 242.0774,-1062.9637"/>
</g>
<!-- krijg_route_hint_van_boer&#45;&gt;schat_route_compleet -->
<g id="edge83" class="edge">
<title>krijg_route_hint_van_boer&#45;&gt;schat_route_compleet</title>
<path fill="none" stroke="#999999" d="M298.195,-1094.4551C298.195,-1085.7686 298.195,-1075.1898 298.195,-1065.642"/>
<polygon fill="#999999" stroke="#999999" points="300.9951,-1065.5903 298.195,-1057.5904 295.3951,-1065.5904 300.9951,-1065.5903"/>
</g>
<!-- praat_met_smidsen&#45;&gt;krijg_schat_onderwerp -->
<g id="edge47" class="edge">
<title>praat_met_smidsen&#45;&gt;krijg_schat_onderwerp</title>
<path fill="none" stroke="#999999" d="M298.195,-1459.2341C298.195,-1409.3554 298.195,-1270.6631 298.195,-1212.1186"/>
<polygon fill="#999999" stroke="#999999" points="300.9951,-1211.759 298.195,-1203.759 295.3951,-1211.759 300.9951,-1211.759"/>
</g>
<!-- krijg_toegang_tot_hut -->
<g id="node51" class="node">
<title>krijg_toegang_tot_hut</title>
<path fill="#3333aa" stroke="#3333aa" d="M718.4597,-437.5C718.4597,-437.5 839.9303,-437.5 839.9303,-437.5 845.9303,-437.5 851.9303,-443.5 851.9303,-449.5 851.9303,-449.5 851.9303,-461.5 851.9303,-461.5 851.9303,-467.5 845.9303,-473.5 839.9303,-473.5 839.9303,-473.5 718.4597,-473.5 718.4597,-473.5 712.4597,-473.5 706.4597,-467.5 706.4597,-461.5 706.4597,-461.5 706.4597,-449.5 706.4597,-449.5 706.4597,-443.5 712.4597,-437.5 718.4597,-437.5"/>
<text text-anchor="middle" x="779.195" y="-451.3" font-family="lato, roboto, helvetica" font-size="14.00" fill="#eeeeee">Krijg Toegang Tot Hut</text>
</g>
<!-- maak_drank_om_heks_bij_te_brengen -->
<g id="node57" class="node">
<title>maak_drank_om_heks_bij_te_brengen</title>
<path fill="#3333aa" stroke="#3333aa" d="M824.73,-145.5C824.73,-145.5 1033.66,-145.5 1033.66,-145.5 1039.66,-145.5 1045.66,-151.5 1045.66,-157.5 1045.66,-157.5 1045.66,-169.5 1045.66,-169.5 1045.66,-175.5 1039.66,-181.5 1033.66,-181.5 1033.66,-181.5 824.73,-181.5 824.73,-181.5 818.73,-181.5 812.73,-175.5 812.73,-169.5 812.73,-169.5 812.73,-157.5 812.73,-157.5 812.73,-151.5 818.73,-145.5 824.73,-145.5"/>
<text text-anchor="middle" x="929.195" y="-159.3" font-family="lato, roboto, helvetica" font-size="14.00" fill="#eeeeee">Maak Drank Om Heks Bij Te Brengen</text>
</g>
<!-- krijg_toegang_tot_hut&#45;&gt;maak_drank_om_heks_bij_te_brengen -->
<g id="edge53" class="edge">
<title>krijg_toegang_tot_hut&#45;&gt;maak_drank_om_heks_bij_te_brengen</title>
<path fill="none" stroke="#999999" d="M852.1661,-444.7496C880.0532,-437.0313 909.7831,-423.7732 929.195,-401 982.5707,-338.382 976.5371,-297.9741 957.195,-218 954.7725,-207.9837 950.1738,-197.7437 945.3929,-188.8836"/>
<polygon fill="#999999" stroke="#999999" points="947.759,-187.3796 941.3778,-181.8009 942.8873,-190.1413 947.759,-187.3796"/>
</g>
<!-- maak_drank_om_met_draak_te_praten -->
<g id="node59" class="node">
<title>maak_drank_om_met_draak_te_praten</title>
<path fill="#3333aa" stroke="#3333aa" d="M486.1304,-291.5C486.1304,-291.5 694.2596,-291.5 694.2596,-291.5 700.2596,-291.5 706.2596,-297.5 706.2596,-303.5 706.2596,-303.5 706.2596,-315.5 706.2596,-315.5 706.2596,-321.5 700.2596,-327.5 694.2596,-327.5 694.2596,-327.5 486.1304,-327.5 486.1304,-327.5 480.1304,-327.5 474.1304,-321.5 474.1304,-315.5 474.1304,-315.5 474.1304,-303.5 474.1304,-303.5 474.1304,-297.5 480.1304,-291.5 486.1304,-291.5"/>
<text text-anchor="middle" x="590.195" y="-305.3" font-family="lato, roboto, helvetica" font-size="14.00" fill="#eeeeee">Maak Drank Om Met Draak Te Praten</text>
</g>
<!-- krijg_toegang_tot_hut&#45;&gt;maak_drank_om_met_draak_te_praten -->
<g id="edge56" class="edge">
<title>krijg_toegang_tot_hut&#45;&gt;maak_drank_om_met_draak_te_praten</title>
<path fill="none" stroke="#999999" d="M755.6402,-437.3042C721.4517,-410.8941 658.0682,-361.9311 620.4588,-332.8784"/>
<polygon fill="#999999" stroke="#999999" points="621.7919,-330.37 613.7491,-327.6952 618.3684,-334.8018 621.7919,-330.37"/>
</g>
<!-- pak_mos_in_bos -->
<g id="node61" class="node">
<title>pak_mos_in_bos</title>
<path fill="#3333aa" stroke="#3333aa" d="M557.2809,-364.5C557.2809,-364.5 639.1091,-364.5 639.1091,-364.5 645.1091,-364.5 651.1091,-370.5 651.1091,-376.5 651.1091,-376.5 651.1091,-388.5 651.1091,-388.5 651.1091,-394.5 645.1091,-400.5 639.1091,-400.5 639.1091,-400.5 557.2809,-400.5 557.2809,-400.5 551.2809,-400.5 545.2809,-394.5 545.2809,-388.5 545.2809,-388.5 545.2809,-376.5 545.2809,-376.5 545.2809,-370.5 551.2809,-364.5 557.2809,-364.5"/>
<text text-anchor="middle" x="598.195" y="-378.3" font-family="lato, roboto, helvetica" font-size="14.00" fill="#eeeeee">Pak Mos In Bos</text>
</g>
<!-- krijg_toegang_tot_hut&#45;&gt;pak_mos_in_bos -->
<g id="edge64" class="edge">
<title>krijg_toegang_tot_hut&#45;&gt;pak_mos_in_bos</title>
<path fill="none" stroke="#999999" d="M734.4534,-437.4551C709.1087,-427.2332 677.2665,-414.3907 650.7384,-403.6916"/>
<polygon fill="#999999" stroke="#999999" points="651.5158,-400.986 643.0492,-400.5904 649.4212,-406.1795 651.5158,-400.986"/>
</g>
<!-- pak_beker -->
<g id="node63" class="node">
<title>pak_beker</title>
<path fill="#3333aa" stroke="#3333aa" d="M858.2332,-364.5C858.2332,-364.5 908.1568,-364.5 908.1568,-364.5 914.1568,-364.5 920.1568,-370.5 920.1568,-376.5 920.1568,-376.5 920.1568,-388.5 920.1568,-388.5 920.1568,-394.5 914.1568,-400.5 908.1568,-400.5 908.1568,-400.5 858.2332,-400.5 858.2332,-400.5 852.2332,-400.5 846.2332,-394.5 846.2332,-388.5 846.2332,-388.5 846.2332,-376.5 846.2332,-376.5 846.2332,-370.5 852.2332,-364.5 858.2332,-364.5"/>
<text text-anchor="middle" x="883.195" y="-378.3" font-family="lato, roboto, helvetica" font-size="14.00" fill="#eeeeee">Pak Beker</text>
</g>
<!-- krijg_toegang_tot_hut&#45;&gt;pak_beker -->
<g id="edge62" class="edge">
<title>krijg_toegang_tot_hut&#45;&gt;pak_beker</title>
<path fill="none" stroke="#999999" d="M804.9029,-437.4551C818.778,-427.7157 836.0424,-415.5975 850.8258,-405.2207"/>
<polygon fill="#999999" stroke="#999999" points="852.4831,-407.4783 857.4224,-400.5904 849.2658,-402.8948 852.4831,-407.4783"/>
</g>
<!-- oplos_drankje -->
<g id="node70" class="node">
<title>oplos_drankje</title>
<path fill="#3333aa" stroke="#3333aa" d="M742.1806,-364.5C742.1806,-364.5 816.2094,-364.5 816.2094,-364.5 822.2094,-364.5 828.2094,-370.5 828.2094,-376.5 828.2094,-376.5 828.2094,-388.5 828.2094,-388.5 828.2094,-394.5 822.2094,-400.5 816.2094,-400.5 816.2094,-400.5 742.1806,-400.5 742.1806,-400.5 736.1806,-400.5 730.1806,-394.5 730.1806,-388.5 730.1806,-388.5 730.1806,-376.5 730.1806,-376.5 730.1806,-370.5 736.1806,-364.5 742.1806,-364.5"/>
<text text-anchor="middle" x="779.195" y="-378.3" font-family="lato, roboto, helvetica" font-size="14.00" fill="#eeeeee">Oplos Drankje</text>
</g>
<!-- krijg_toegang_tot_hut&#45;&gt;oplos_drankje -->
<g id="edge87" class="edge">
<title>krijg_toegang_tot_hut&#45;&gt;oplos_drankje</title>
<path fill="none" stroke="#999999" d="M779.195,-437.4551C779.195,-428.7686 779.195,-418.1898 779.195,-408.642"/>
<polygon fill="#999999" stroke="#999999" points="781.9951,-408.5903 779.195,-400.5904 776.3951,-408.5904 781.9951,-408.5903"/>
</g>
<!-- pak_tand_van_draak&#45;&gt;krijg_toegang_tot_hut -->
<g id="edge48" class="edge">
<title>pak_tand_van_draak&#45;&gt;krijg_toegang_tot_hut</title>
<path fill="none" stroke="#999999" d="M910.9366,-510.4551C886.432,-500.2332 855.6454,-487.3907 829.9967,-476.6916"/>
<polygon fill="#999999" stroke="#999999" points="831.0237,-474.0862 822.5623,-473.5904 828.8677,-479.2545 831.0237,-474.0862"/>
</g>
<!-- pluk_kruiden_in_moeras&#45;&gt;krijg_toegang_tot_hut -->
<g id="edge49" class="edge">
<title>pluk_kruiden_in_moeras&#45;&gt;krijg_toegang_tot_hut</title>
<path fill="none" stroke="#999999" d="M642.1838,-510.4551C667.6685,-500.2332 699.6866,-487.3907 726.3613,-476.6916"/>
<polygon fill="#999999" stroke="#999999" points="727.7104,-479.1673 734.093,-473.5904 725.6256,-473.9698 727.7104,-479.1673"/>
</g>
<!-- pluk_paddenstoelen_in_woud&#45;&gt;krijg_toegang_tot_hut -->
<g id="edge50" class="edge">
<title>pluk_paddenstoelen_in_woud&#45;&gt;krijg_toegang_tot_hut</title>
<path fill="none" stroke="#999999" d="M779.9478,-510.4551C779.8288,-501.7686 779.6839,-491.1898 779.5531,-481.642"/>
<polygon fill="#999999" stroke="#999999" points="782.3522,-481.5512 779.4428,-473.5904 776.7528,-481.628 782.3522,-481.5512"/>
</g>
<!-- zet_molensteen_op_wagen&#45;&gt;leg_molensteen_op_lift -->
<g id="edge51" class="edge">
<title>zet_molensteen_op_wagen&#45;&gt;leg_molensteen_op_lift</title>
<path fill="none" stroke="#999999" d="M1505.2062,-948.4551C1466.1192,-937.9261 1416.7105,-924.6167 1376.3072,-913.7332"/>
<polygon fill="#999999" stroke="#999999" points="1376.8053,-910.9676 1368.3524,-911.5904 1375.3487,-916.3749 1376.8053,-910.9676"/>
</g>
<!-- praat_met_dochter_van_bakker&#45;&gt;leg_molensteen_op_lift -->
<g id="edge52" class="edge">
<title>praat_met_dochter_van_bakker&#45;&gt;leg_molensteen_op_lift</title>
<path fill="none" stroke="#999999" d="M1301.195,-948.4551C1301.195,-939.7686 1301.195,-929.1898 1301.195,-919.642"/>
<polygon fill="#999999" stroke="#999999" points="1303.9951,-919.5903 1301.195,-911.5904 1298.3951,-919.5904 1303.9951,-919.5903"/>
</g>
<!-- maak_drank_om_heks_bij_te_brengen&#45;&gt;maak_medicijn -->
<g id="edge58" class="edge">
<title>maak_drank_om_heks_bij_te_brengen&#45;&gt;maak_medicijn</title>
<path fill="none" stroke="#999999" d="M921.7793,-145.4551C918.1374,-136.5932 913.6861,-125.7616 909.701,-116.0646"/>
<polygon fill="#999999" stroke="#999999" points="912.2602,-114.9256 906.6294,-108.5904 907.0805,-117.0542 912.2602,-114.9256"/>
</g>
<!-- pak_wijn_uit_kelder -->
<g id="node58" class="node">
<title>pak_wijn_uit_kelder</title>
<path fill="#3333aa" stroke="#3333aa" d="M828.4611,-218.5C828.4611,-218.5 935.9289,-218.5 935.9289,-218.5 941.9289,-218.5 947.9289,-224.5 947.9289,-230.5 947.9289,-230.5 947.9289,-242.5 947.9289,-242.5 947.9289,-248.5 941.9289,-254.5 935.9289,-254.5 935.9289,-254.5 828.4611,-254.5 828.4611,-254.5 822.4611,-254.5 816.4611,-248.5 816.4611,-242.5 816.4611,-242.5 816.4611,-230.5 816.4611,-230.5 816.4611,-224.5 822.4611,-218.5 828.4611,-218.5"/>
<text text-anchor="middle" x="882.195" y="-232.3" font-family="lato, roboto, helvetica" font-size="14.00" fill="#eeeeee">Pak Wijn Uit Kelder</text>
</g>
<!-- pak_wijn_uit_kelder&#45;&gt;maak_drank_om_heks_bij_te_brengen -->
<g id="edge54" class="edge">
<title>pak_wijn_uit_kelder&#45;&gt;maak_drank_om_heks_bij_te_brengen</title>
<path fill="none" stroke="#999999" d="M893.813,-218.4551C899.6316,-209.4177 906.769,-198.3319 913.1056,-188.4899"/>
<polygon fill="#999999" stroke="#999999" points="915.5713,-189.8326 917.5478,-181.5904 910.8628,-186.801 915.5713,-189.8326"/>
</g>
<!-- praat_met_draak -->
<g id="node66" class="node">
<title>praat_met_draak</title>
<path fill="#3333aa" stroke="#3333aa" d="M547.9404,-218.5C547.9404,-218.5 632.4496,-218.5 632.4496,-218.5 638.4496,-218.5 644.4496,-224.5 644.4496,-230.5 644.4496,-230.5 644.4496,-242.5 644.4496,-242.5 644.4496,-248.5 638.4496,-254.5 632.4496,-254.5 632.4496,-254.5 547.9404,-254.5 547.9404,-254.5 541.9404,-254.5 535.9404,-248.5 535.9404,-242.5 535.9404,-242.5 535.9404,-230.5 535.9404,-230.5 535.9404,-224.5 541.9404,-218.5 547.9404,-218.5"/>
<text text-anchor="middle" x="590.195" y="-232.3" font-family="lato, roboto, helvetica" font-size="14.00" fill="#eeeeee">Praat Met Draak</text>
</g>
<!-- maak_drank_om_met_draak_te_praten&#45;&gt;praat_met_draak -->
<g id="edge75" class="edge">
<title>maak_drank_om_met_draak_te_praten&#45;&gt;praat_met_draak</title>
<path fill="none" stroke="#999999" d="M590.195,-291.4551C590.195,-282.7686 590.195,-272.1898 590.195,-262.642"/>
<polygon fill="#999999" stroke="#999999" points="592.9951,-262.5903 590.195,-254.5904 587.3951,-262.5904 592.9951,-262.5903"/>
</g>
<!-- vind_runesteen_in_bos -->
<g id="node60" class="node">
<title>vind_runesteen_in_bos</title>
<path fill="#008800" stroke="#008800" d="M420.0677,-656.5C420.0677,-656.5 542.3223,-656.5 542.3223,-656.5 548.3223,-656.5 554.3223,-662.5 554.3223,-668.5 554.3223,-668.5 554.3223,-680.5 554.3223,-680.5 554.3223,-686.5 548.3223,-692.5 542.3223,-692.5 542.3223,-692.5 420.0677,-692.5 420.0677,-692.5 414.0677,-692.5 408.0677,-686.5 408.0677,-680.5 408.0677,-680.5 408.0677,-668.5 408.0677,-668.5 408.0677,-662.5 414.0677,-656.5 420.0677,-656.5"/>
<text text-anchor="middle" x="481.195" y="-670.3" font-family="lato, roboto, helvetica" font-size="14.00" fill="#eeeeee">Vind Runesteen In Bos</text>
</g>
<!-- vind_runesteen_in_bos&#45;&gt;maak_drank_om_met_draak_te_praten -->
<g id="edge55" class="edge">
<title>vind_runesteen_in_bos&#45;&gt;maak_drank_om_met_draak_te_praten</title>
<path fill="none" stroke="#999999" d="M481.4022,-656.0623C481.6951,-628.367 482.195,-574.3795 482.195,-528.5 482.195,-528.5 482.195,-528.5 482.195,-455.5 482.195,-403.9891 526.1832,-358.7611 558.0131,-332.7768"/>
<polygon fill="#999999" stroke="#999999" points="560.0881,-334.7037 564.6005,-327.5288 556.5987,-330.3237 560.0881,-334.7037"/>
</g>
<!-- pak_mos_in_bos&#45;&gt;maak_drank_om_met_draak_te_praten -->
<g id="edge57" class="edge">
<title>pak_mos_in_bos&#45;&gt;maak_drank_om_met_draak_te_praten</title>
<path fill="none" stroke="#999999" d="M596.2175,-364.4551C595.2655,-355.7686 594.1062,-345.1898 593.0599,-335.642"/>
<polygon fill="#999999" stroke="#999999" points="595.8324,-335.2377 592.1775,-327.5904 590.2658,-335.8478 595.8324,-335.2377"/>
</g>
<!-- vind_goud_in_bos -->
<g id="node62" class="node">
<title>vind_goud_in_bos</title>
<path fill="#008800" stroke="#008800" d="M559.6722,-875.5C559.6722,-875.5 654.7178,-875.5 654.7178,-875.5 660.7178,-875.5 666.7178,-881.5 666.7178,-887.5 666.7178,-887.5 666.7178,-899.5 666.7178,-899.5 666.7178,-905.5 660.7178,-911.5 654.7178,-911.5 654.7178,-911.5 559.6722,-911.5 559.6722,-911.5 553.6722,-911.5 547.6722,-905.5 547.6722,-899.5 547.6722,-899.5 547.6722,-887.5 547.6722,-887.5 547.6722,-881.5 553.6722,-875.5 559.6722,-875.5"/>
<text text-anchor="middle" x="607.195" y="-889.3" font-family="lato, roboto, helvetica" font-size="14.00" fill="#eeeeee">Vind Goud In Bos</text>
</g>
<!-- vind_goud_in_bos&#45;&gt;maak_sieraad_bij_smid -->
<g id="edge60" class="edge">
<title>vind_goud_in_bos&#45;&gt;maak_sieraad_bij_smid</title>
<path fill="none" stroke="#999999" d="M647.4871,-875.4551C670.1154,-865.3209 698.4951,-852.611 722.2606,-841.9675"/>
<polygon fill="#999999" stroke="#999999" points="723.6447,-844.4157 729.8015,-838.5904 721.3557,-839.3049 723.6447,-844.4157"/>
</g>
<!-- pak_beker&#45;&gt;pak_wijn_uit_kelder -->
<g id="edge69" class="edge">
<title>pak_beker&#45;&gt;pak_wijn_uit_kelder</title>
<path fill="none" stroke="#999999" d="M883.0704,-364.3042C882.896,-338.8403 882.578,-292.4108 882.377,-263.0759"/>
<polygon fill="#999999" stroke="#999999" points="885.176,-262.9057 882.3212,-254.9251 879.5762,-262.9441 885.176,-262.9057"/>
</g>
<!-- pak_hout_in_bos&#45;&gt;repareer_houweel -->
<g id="edge79" class="edge">
<title>pak_hout_in_bos&#45;&gt;repareer_houweel</title>
<path fill="none" stroke="#999999" d="M424.6894,-1751.4551C449.894,-1741.2332 481.5603,-1728.3907 507.9419,-1717.6916"/>
<polygon fill="#999999" stroke="#999999" points="509.2274,-1720.1918 515.5886,-1714.5904 507.1228,-1715.0023 509.2274,-1720.1918"/>
</g>
<!-- toegang_tot_kelder -->
<g id="node65" class="node">
<title>toegang_tot_kelder</title>
<path fill="#008800" stroke="#008800" d="M736.439,-291.5C736.439,-291.5 841.951,-291.5 841.951,-291.5 847.951,-291.5 853.951,-297.5 853.951,-303.5 853.951,-303.5 853.951,-315.5 853.951,-315.5 853.951,-321.5 847.951,-327.5 841.951,-327.5 841.951,-327.5 736.439,-327.5 736.439,-327.5 730.439,-327.5 724.439,-321.5 724.439,-315.5 724.439,-315.5 724.439,-303.5 724.439,-303.5 724.439,-297.5 730.439,-291.5 736.439,-291.5"/>
<text text-anchor="middle" x="789.195" y="-305.3" font-family="lato, roboto, helvetica" font-size="14.00" fill="#eeeeee">Toegang Tot Kelder</text>
</g>
<!-- toegang_tot_kelder&#45;&gt;pak_wijn_uit_kelder -->
<g id="edge68" class="edge">
<title>toegang_tot_kelder&#45;&gt;pak_wijn_uit_kelder</title>
<path fill="none" stroke="#999999" d="M812.1838,-291.4551C824.3678,-281.8912 839.4744,-270.0334 852.5327,-259.7833"/>
<polygon fill="#999999" stroke="#999999" points="854.5843,-261.7325 859.1484,-254.5904 851.1266,-257.3275 854.5843,-261.7325"/>
</g>
<!-- vind_zadel_in_kelder -->
<g id="node73" class="node">
<title>vind_zadel_in_kelder</title>
<path fill="#3333aa" stroke="#3333aa" d="M674.1364,-218.5C674.1364,-218.5 786.2536,-218.5 786.2536,-218.5 792.2536,-218.5 798.2536,-224.5 798.2536,-230.5 798.2536,-230.5 798.2536,-242.5 798.2536,-242.5 798.2536,-248.5 792.2536,-254.5 786.2536,-254.5 786.2536,-254.5 674.1364,-254.5 674.1364,-254.5 668.1364,-254.5 662.1364,-248.5 662.1364,-242.5 662.1364,-242.5 662.1364,-230.5 662.1364,-230.5 662.1364,-224.5 668.1364,-218.5 674.1364,-218.5"/>
<text text-anchor="middle" x="730.195" y="-232.3" font-family="lato, roboto, helvetica" font-size="14.00" fill="#eeeeee">Vind Zadel In Kelder</text>
</g>
<!-- toegang_tot_kelder&#45;&gt;vind_zadel_in_kelder -->
<g id="edge95" class="edge">
<title>toegang_tot_kelder&#45;&gt;vind_zadel_in_kelder</title>
<path fill="none" stroke="#999999" d="M774.6107,-291.4551C767.1647,-282.2422 757.9982,-270.9006 749.9301,-260.918"/>
<polygon fill="#999999" stroke="#999999" points="752.0224,-259.0523 744.816,-254.5904 747.667,-262.5724 752.0224,-259.0523"/>
</g>
<!-- praat_met_draak&#45;&gt;zet_zadel_op_draak -->
<g id="edge102" class="edge">
<title>praat_met_draak&#45;&gt;zet_zadel_op_draak</title>
<path fill="none" stroke="#999999" d="M624.8018,-218.4551C643.9847,-208.4525 667.98,-195.9407 688.2271,-185.3833"/>
<polygon fill="#999999" stroke="#999999" points="689.7022,-187.772 695.5012,-181.5904 687.113,-182.8065 689.7022,-187.772"/>
</g>
<!-- vind_onderbroek_bij_rivier&#45;&gt;repareer_molen_met_onderbroek -->
<g id="edge81" class="edge">
<title>vind_onderbroek_bij_rivier&#45;&gt;repareer_molen_met_onderbroek</title>
<path fill="none" stroke="#999999" d="M1271.1115,-1824.2049C1270.9342,-1785.3808 1270.5198,-1694.6319 1270.3146,-1649.6829"/>
<polygon fill="#999999" stroke="#999999" points="1273.1142,-1649.5761 1270.2776,-1641.589 1267.5143,-1649.6018 1273.1142,-1649.5761"/>
</g>
<!-- volg_maansteen_route -->
<g id="node71" class="node">
<title>volg_maansteen_route</title>
<path fill="#008800" stroke="#008800" d="M420.6564,-948.5C420.6564,-948.5 541.7336,-948.5 541.7336,-948.5 547.7336,-948.5 553.7336,-954.5 553.7336,-960.5 553.7336,-960.5 553.7336,-972.5 553.7336,-972.5 553.7336,-978.5 547.7336,-984.5 541.7336,-984.5 541.7336,-984.5 420.6564,-984.5 420.6564,-984.5 414.6564,-984.5 408.6564,-978.5 408.6564,-972.5 408.6564,-972.5 408.6564,-960.5 408.6564,-960.5 408.6564,-954.5 414.6564,-948.5 420.6564,-948.5"/>
<text text-anchor="middle" x="481.195" y="-962.3" font-family="lato, roboto, helvetica" font-size="14.00" fill="#eeeeee">Volg Maansteen Route</text>
</g>
<!-- schat_route_compleet&#45;&gt;volg_maansteen_route -->
<g id="edge97" class="edge">
<title>schat_route_compleet&#45;&gt;volg_maansteen_route</title>
<path fill="none" stroke="#999999" d="M343.431,-1021.4551C369.0557,-1011.2332 401.2497,-998.3907 428.071,-987.6916"/>
<polygon fill="#999999" stroke="#999999" points="429.452,-990.1553 435.8452,-984.5904 427.3771,-984.9538 429.452,-990.1553"/>
</g>
<!-- snij_touw_van_lift&#45;&gt;trek_tand_van_draak -->
<g id="edge89" class="edge">
<title>snij_touw_van_lift&#45;&gt;trek_tand_van_draak</title>
<path fill="none" stroke="#999999" d="M1142.2512,-656.4551C1139.8473,-647.6809 1136.9144,-636.9759 1134.278,-627.353"/>
<polygon fill="#999999" stroke="#999999" points="1136.9657,-626.5661 1132.1513,-619.5904 1131.5647,-628.0459 1136.9657,-626.5661"/>
</g>
<!-- oplos_drankje&#45;&gt;toegang_tot_kelder -->
<g id="edge88" class="edge">
<title>oplos_drankje&#45;&gt;toegang_tot_kelder</title>
<path fill="none" stroke="#999999" d="M781.6669,-364.4551C782.8568,-355.7686 784.306,-345.1898 785.6139,-335.642"/>
<polygon fill="#999999" stroke="#999999" points="788.4051,-335.8964 786.7169,-327.5904 782.8569,-335.1363 788.4051,-335.8964"/>
</g>
<!-- volg_maansteen_route&#45;&gt;vind_runesteen_in_bos -->
<g id="edge94" class="edge">
<title>volg_maansteen_route&#45;&gt;vind_runesteen_in_bos</title>
<path fill="none" stroke="#999999" d="M481.195,-948.2341C481.195,-898.3554 481.195,-759.6631 481.195,-701.1186"/>
<polygon fill="#999999" stroke="#999999" points="483.9951,-700.759 481.195,-692.759 478.3951,-700.759 483.9951,-700.759"/>
</g>
<!-- volg_maansteen_route&#45;&gt;vind_goud_in_bos -->
<g id="edge90" class="edge">
<title>volg_maansteen_route&#45;&gt;vind_goud_in_bos</title>
<path fill="none" stroke="#999999" d="M512.3411,-948.4551C529.4543,-938.5403 550.8229,-926.16 568.9436,-915.6615"/>
<polygon fill="#999999" stroke="#999999" points="570.4521,-918.0236 575.9705,-911.5904 567.6447,-913.1781 570.4521,-918.0236"/>
</g>
<!-- vind_maansteen_in_moeras&#45;&gt;volg_maansteen_route -->
<g id="edge96" class="edge">
<title>vind_maansteen_in_moeras&#45;&gt;volg_maansteen_route</title>
<path fill="none" stroke="#999999" d="M484.2062,-1021.4551C483.7303,-1012.7686 483.1506,-1002.1898 482.6274,-992.642"/>
<polygon fill="#999999" stroke="#999999" points="485.4199,-992.4251 482.1863,-984.5904 479.8282,-992.7316 485.4199,-992.4251"/>
</g>
<!-- vind_zadel_in_kelder&#45;&gt;zet_zadel_op_draak -->
<g id="edge103" class="edge">
<title>vind_zadel_in_kelder&#45;&gt;zet_zadel_op_draak</title>
<path fill="none" stroke="#999999" d="M730.195,-218.4551C730.195,-209.7686 730.195,-199.1898 730.195,-189.642"/>
<polygon fill="#999999" stroke="#999999" points="732.9951,-189.5903 730.195,-181.5904 727.3951,-189.5904 732.9951,-189.5903"/>
</g>
</g>
</svg>
