<?xml version="1.0" encoding="UTF-8" standalone="no"?>
<!DOCTYPE svg PUBLIC "-//W3C//DTD SVG 1.1//EN"
 "http://www.w3.org/Graphics/SVG/1.1/DTD/svg11.dtd">
<!-- Generated by graphviz version 2.40.1 (20161225.0304)
 -->
<!-- Title: G Pages: 1 -->
<svg width="1743pt" height="1681pt"
 viewBox="0.00 0.00 1743.47 1681.00" xmlns="http://www.w3.org/2000/svg" xmlns:xlink="http://www.w3.org/1999/xlink">
<g id="graph0" class="graph" transform="scale(1 1) rotate(0) translate(4 1677)">
<title>G</title>
<polygon fill="#ffffff" stroke="transparent" points="-4,4 -4,-1677 1739.4681,-1677 1739.4681,4 -4,4"/>
<text text-anchor="middle" x="867.7341" y="-1651" font-family="lato, roboto, helvetica" font-size="20.00" fill="#000000">Avontuur</text>
<!-- START -->
<g id="node1" class="node">
<title>START</title>
<polygon fill="#333333" stroke="#333333" points="1386.4681,-1641 1327.7621,-1623 1386.4681,-1605 1445.1741,-1623 1386.4681,-1641"/>
<polyline fill="none" stroke="#333333" points="1339.2349,-1626.5177 1339.2349,-1619.4823 "/>
<polyline fill="none" stroke="#333333" points="1374.9953,-1608.5177 1397.9409,-1608.5177 "/>
<polyline fill="none" stroke="#333333" points="1433.7013,-1619.4823 1433.7013,-1626.5177 "/>
<polyline fill="none" stroke="#333333" points="1397.9409,-1637.4823 1374.9953,-1637.4823 "/>
<text text-anchor="middle" x="1386.4681" y="-1618.8" font-family="lato, roboto, helvetica" font-size="14.00" fill="#dddddd">START</text>
</g>
<!-- betaal_twee_geldstukken -->
<g id="node5" class="node">
<title>betaal_twee_geldstukken</title>
<path fill="#008800" stroke="#008800" d="M790.1623,-1532.5C790.1623,-1532.5 926.7739,-1532.5 926.7739,-1532.5 932.7739,-1532.5 938.7739,-1538.5 938.7739,-1544.5 938.7739,-1544.5 938.7739,-1556.5 938.7739,-1556.5 938.7739,-1562.5 932.7739,-1568.5 926.7739,-1568.5 926.7739,-1568.5 790.1623,-1568.5 790.1623,-1568.5 784.1623,-1568.5 778.1623,-1562.5 778.1623,-1556.5 778.1623,-1556.5 778.1623,-1544.5 778.1623,-1544.5 778.1623,-1538.5 784.1623,-1532.5 790.1623,-1532.5"/>
<text text-anchor="middle" x="858.4681" y="-1546.3" font-family="lato, roboto, helvetica" font-size="14.00" fill="#eeeeee">Betaal Twee Geldstukken</text>
</g>
<!-- START&#45;&gt;betaal_twee_geldstukken -->
<g id="edge3" class="edge">
<title>START&#45;&gt;betaal_twee_geldstukken</title>
<path fill="none" stroke="#999999" d="M1345.9135,-1617.4314C1261.0182,-1605.7744 1062.8871,-1578.5689 947.0525,-1562.6636"/>
<polygon fill="#999999" stroke="#999999" points="947.1639,-1559.8527 938.8573,-1561.5383 946.402,-1565.4006 947.1639,-1559.8527"/>
</g>
<!-- praat_met_bakker -->
<g id="node23" class="node">
<title>praat_met_bakker</title>
<path fill="#008800" stroke="#008800" d="M1333.0985,-948.5C1333.0985,-948.5 1423.8377,-948.5 1423.8377,-948.5 1429.8377,-948.5 1435.8377,-954.5 1435.8377,-960.5 1435.8377,-960.5 1435.8377,-972.5 1435.8377,-972.5 1435.8377,-978.5 1429.8377,-984.5 1423.8377,-984.5 1423.8377,-984.5 1333.0985,-984.5 1333.0985,-984.5 1327.0985,-984.5 1321.0985,-978.5 1321.0985,-972.5 1321.0985,-972.5 1321.0985,-960.5 1321.0985,-960.5 1321.0985,-954.5 1327.0985,-948.5 1333.0985,-948.5"/>
<text text-anchor="middle" x="1378.4681" y="-962.3" font-family="lato, roboto, helvetica" font-size="14.00" fill="#eeeeee">Praat Met Bakker</text>
</g>
<!-- START&#45;&gt;praat_met_bakker -->
<g id="edge64" class="edge">
<title>START&#45;&gt;praat_met_bakker</title>
<path fill="none" stroke="#999999" d="M1424.2763,-1616.5485C1453.2632,-1609.6515 1492.137,-1595.8474 1515.4681,-1569 1543.0456,-1537.2662 1539.4681,-1519.5423 1539.4681,-1477.5 1539.4681,-1477.5 1539.4681,-1477.5 1539.4681,-1112.5 1539.4681,-1070.4577 1543.3273,-1052.4868 1515.4681,-1021 1497.0217,-1000.1517 1469.5247,-987.1813 1443.9953,-979.1579"/>
<polygon fill="#999999" stroke="#999999" points="1444.6141,-976.4207 1436.1478,-976.8234 1443.0173,-981.7883 1444.6141,-976.4207"/>
</g>
<!-- praat_met_dwerg -->
<g id="node25" class="node">
<title>praat_met_dwerg</title>
<path fill="#008800" stroke="#008800" d="M326.2675,-1532.5C326.2675,-1532.5 414.6687,-1532.5 414.6687,-1532.5 420.6687,-1532.5 426.6687,-1538.5 426.6687,-1544.5 426.6687,-1544.5 426.6687,-1556.5 426.6687,-1556.5 426.6687,-1562.5 420.6687,-1568.5 414.6687,-1568.5 414.6687,-1568.5 326.2675,-1568.5 326.2675,-1568.5 320.2675,-1568.5 314.2675,-1562.5 314.2675,-1556.5 314.2675,-1556.5 314.2675,-1544.5 314.2675,-1544.5 314.2675,-1538.5 320.2675,-1532.5 326.2675,-1532.5"/>
<text text-anchor="middle" x="370.4681" y="-1546.3" font-family="lato, roboto, helvetica" font-size="14.00" fill="#eeeeee">Praat Met Dwerg</text>
</g>
<!-- START&#45;&gt;praat_met_dwerg -->
<g id="edge67" class="edge">
<title>START&#45;&gt;praat_met_dwerg</title>
<path fill="none" stroke="#999999" d="M1338.827,-1619.6004C1173.4711,-1607.8009 624.1266,-1568.6006 435.0588,-1555.1091"/>
<polygon fill="#999999" stroke="#999999" points="435.047,-1552.3012 426.8679,-1554.5246 434.6483,-1557.887 435.047,-1552.3012"/>
</g>
<!-- praat_met_smidsen -->
<g id="node33" class="node">
<title>praat_met_smidsen</title>
<path fill="#008800" stroke="#008800" d="M1192.2002,-948.5C1192.2002,-948.5 1290.736,-948.5 1290.736,-948.5 1296.736,-948.5 1302.736,-954.5 1302.736,-960.5 1302.736,-960.5 1302.736,-972.5 1302.736,-972.5 1302.736,-978.5 1296.736,-984.5 1290.736,-984.5 1290.736,-984.5 1192.2002,-984.5 1192.2002,-984.5 1186.2002,-984.5 1180.2002,-978.5 1180.2002,-972.5 1180.2002,-972.5 1180.2002,-960.5 1180.2002,-960.5 1180.2002,-954.5 1186.2002,-948.5 1192.2002,-948.5"/>
<text text-anchor="middle" x="1241.4681" y="-962.3" font-family="lato, roboto, helvetica" font-size="14.00" fill="#eeeeee">Praat Met Smidsen</text>
</g>
<!-- START&#45;&gt;praat_met_smidsen -->
<g id="edge70" class="edge">
<title>START&#45;&gt;praat_met_smidsen</title>
<path fill="none" stroke="#999999" d="M1415.7285,-1613.9692C1437.4732,-1605.7308 1466.0973,-1591.3789 1482.4681,-1569 1506.9905,-1535.4778 1501.4681,-1519.0342 1501.4681,-1477.5 1501.4681,-1477.5 1501.4681,-1477.5 1501.4681,-1112.5 1501.4681,-1067.1423 1379.6477,-1015.4725 1302.779,-987.3837"/>
<polygon fill="#999999" stroke="#999999" points="1303.5004,-984.667 1295.025,-984.5743 1301.5928,-989.9321 1303.5004,-984.667"/>
</g>
<!-- praat_met_boer -->
<g id="node34" class="node">
<title>praat_met_boer</title>
<path fill="#008800" stroke="#008800" d="M1192.7058,-1532.5C1192.7058,-1532.5 1270.2304,-1532.5 1270.2304,-1532.5 1276.2304,-1532.5 1282.2304,-1538.5 1282.2304,-1544.5 1282.2304,-1544.5 1282.2304,-1556.5 1282.2304,-1556.5 1282.2304,-1562.5 1276.2304,-1568.5 1270.2304,-1568.5 1270.2304,-1568.5 1192.7058,-1568.5 1192.7058,-1568.5 1186.7058,-1568.5 1180.7058,-1562.5 1180.7058,-1556.5 1180.7058,-1556.5 1180.7058,-1544.5 1180.7058,-1544.5 1180.7058,-1538.5 1186.7058,-1532.5 1192.7058,-1532.5"/>
<text text-anchor="middle" x="1231.4681" y="-1546.3" font-family="lato, roboto, helvetica" font-size="14.00" fill="#eeeeee">Praat Met Boer</text>
</g>
<!-- START&#45;&gt;praat_met_boer -->
<g id="edge65" class="edge">
<title>START&#45;&gt;praat_met_boer</title>
<path fill="none" stroke="#999999" d="M1362.9269,-1611.9888C1340.3041,-1601.4071 1305.5033,-1585.1294 1277.3901,-1571.9796"/>
<polygon fill="#999999" stroke="#999999" points="1278.4598,-1569.3889 1270.027,-1568.5356 1276.0872,-1574.4614 1278.4598,-1569.3889"/>
</g>
<!-- praat_met_molenaar -->
<g id="node35" class="node">
<title>praat_met_molenaar</title>
<path fill="#008800" stroke="#008800" d="M1579.4919,-1167.5C1579.4919,-1167.5 1683.4443,-1167.5 1683.4443,-1167.5 1689.4443,-1167.5 1695.4443,-1173.5 1695.4443,-1179.5 1695.4443,-1179.5 1695.4443,-1191.5 1695.4443,-1191.5 1695.4443,-1197.5 1689.4443,-1203.5 1683.4443,-1203.5 1683.4443,-1203.5 1579.4919,-1203.5 1579.4919,-1203.5 1573.4919,-1203.5 1567.4919,-1197.5 1567.4919,-1191.5 1567.4919,-1191.5 1567.4919,-1179.5 1567.4919,-1179.5 1567.4919,-1173.5 1573.4919,-1167.5 1579.4919,-1167.5"/>
<text text-anchor="middle" x="1631.4681" y="-1181.3" font-family="lato, roboto, helvetica" font-size="14.00" fill="#eeeeee">Praat Met Molenaar</text>
</g>
<!-- START&#45;&gt;praat_met_molenaar -->
<g id="edge69" class="edge">
<title>START&#45;&gt;praat_met_molenaar</title>
<path fill="none" stroke="#999999" d="M1429.3972,-1617.9971C1465.8545,-1611.8301 1517.7919,-1598.2967 1553.4681,-1569 1589.4483,-1539.4537 1604.4681,-1524.057 1604.4681,-1477.5 1604.4681,-1477.5 1604.4681,-1477.5 1604.4681,-1331.5 1604.4681,-1289.0354 1615.6489,-1240.7643 1623.6206,-1211.7446"/>
<polygon fill="#999999" stroke="#999999" points="1626.402,-1212.197 1625.8737,-1203.7376 1621.0113,-1210.6801 1626.402,-1212.197"/>
</g>
<!-- pak_touw_op_boerderij -->
<g id="node41" class="node">
<title>pak_touw_op_boerderij</title>
<path fill="#008800" stroke="#008800" d="M1591.4025,-510.5C1591.4025,-510.5 1717.5337,-510.5 1717.5337,-510.5 1723.5337,-510.5 1729.5337,-516.5 1729.5337,-522.5 1729.5337,-522.5 1729.5337,-534.5 1729.5337,-534.5 1729.5337,-540.5 1723.5337,-546.5 1717.5337,-546.5 1717.5337,-546.5 1591.4025,-546.5 1591.4025,-546.5 1585.4025,-546.5 1579.4025,-540.5 1579.4025,-534.5 1579.4025,-534.5 1579.4025,-522.5 1579.4025,-522.5 1579.4025,-516.5 1585.4025,-510.5 1591.4025,-510.5"/>
<text text-anchor="middle" x="1654.4681" y="-524.3" font-family="lato, roboto, helvetica" font-size="14.00" fill="#eeeeee">Pak Touw Op Boerderij</text>
</g>
<!-- START&#45;&gt;pak_touw_op_boerderij -->
<g id="edge61" class="edge">
<title>START&#45;&gt;pak_touw_op_boerderij</title>
<path fill="none" stroke="#999999" d="M1422.5027,-1615.9883C1511.6716,-1597.6113 1735.4681,-1544.7862 1735.4681,-1477.5 1735.4681,-1477.5 1735.4681,-1477.5 1735.4681,-674.5 1735.4681,-626.7329 1701.905,-579.9654 1677.9885,-552.7034"/>
<polygon fill="#999999" stroke="#999999" points="1679.8739,-550.6123 1672.4446,-546.5323 1675.708,-554.3548 1679.8739,-550.6123"/>
</g>
<!-- pak_hout_in_bos -->
<g id="node58" class="node">
<title>pak_hout_in_bos</title>
<path fill="#008800" stroke="#008800" d="M12,-1459.5C12,-1459.5 96.9362,-1459.5 96.9362,-1459.5 102.9362,-1459.5 108.9362,-1465.5 108.9362,-1471.5 108.9362,-1471.5 108.9362,-1483.5 108.9362,-1483.5 108.9362,-1489.5 102.9362,-1495.5 96.9362,-1495.5 96.9362,-1495.5 12,-1495.5 12,-1495.5 6,-1495.5 0,-1489.5 0,-1483.5 0,-1483.5 0,-1471.5 0,-1471.5 0,-1465.5 6,-1459.5 12,-1459.5"/>
<text text-anchor="middle" x="54.4681" y="-1473.3" font-family="lato, roboto, helvetica" font-size="14.00" fill="#eeeeee">Pak Hout In Bos</text>
</g>
<!-- START&#45;&gt;pak_hout_in_bos -->
<g id="edge58" class="edge">
<title>START&#45;&gt;pak_hout_in_bos</title>
<path fill="none" stroke="#999999" d="M1329.4374,-1622.3978C1135.7408,-1620.0017 504.1432,-1609.22 305.4681,-1569 231.312,-1553.9878 149.7466,-1520.955 100.3246,-1498.963"/>
<polygon fill="#999999" stroke="#999999" points="101.4184,-1496.3849 92.9729,-1495.6674 99.1276,-1501.4949 101.4184,-1496.3849"/>
</g>
<!-- vind_onderbroek_bij_rivier -->
<g id="node59" class="node">
<title>vind_onderbroek_bij_rivier</title>
<path fill="#008800" stroke="#008800" d="M1311.7356,-1532.5C1311.7356,-1532.5 1461.2006,-1532.5 1461.2006,-1532.5 1467.2006,-1532.5 1473.2006,-1538.5 1473.2006,-1544.5 1473.2006,-1544.5 1473.2006,-1556.5 1473.2006,-1556.5 1473.2006,-1562.5 1467.2006,-1568.5 1461.2006,-1568.5 1461.2006,-1568.5 1311.7356,-1568.5 1311.7356,-1568.5 1305.7356,-1568.5 1299.7356,-1562.5 1299.7356,-1556.5 1299.7356,-1556.5 1299.7356,-1544.5 1299.7356,-1544.5 1299.7356,-1538.5 1305.7356,-1532.5 1311.7356,-1532.5"/>
<text text-anchor="middle" x="1386.4681" y="-1546.3" font-family="lato, roboto, helvetica" font-size="14.00" fill="#eeeeee">Vind Onderbroek Bij Rivier</text>
</g>
<!-- START&#45;&gt;vind_onderbroek_bij_rivier -->
<g id="edge83" class="edge">
<title>START&#45;&gt;vind_onderbroek_bij_rivier</title>
<path fill="none" stroke="#999999" d="M1386.4681,-1604.7052C1386.4681,-1596.2264 1386.4681,-1585.9943 1386.4681,-1576.7146"/>
<polygon fill="#999999" stroke="#999999" points="1389.2682,-1576.5378 1386.4681,-1568.5378 1383.6682,-1576.5378 1389.2682,-1576.5378"/>
</g>
<!-- beklim_toren -->
<g id="node2" class="node">
<title>beklim_toren</title>
<path fill="#3333aa" stroke="#3333aa" d="M1482.3927,-729.5C1482.3927,-729.5 1552.5435,-729.5 1552.5435,-729.5 1558.5435,-729.5 1564.5435,-735.5 1564.5435,-741.5 1564.5435,-741.5 1564.5435,-753.5 1564.5435,-753.5 1564.5435,-759.5 1558.5435,-765.5 1552.5435,-765.5 1552.5435,-765.5 1482.3927,-765.5 1482.3927,-765.5 1476.3927,-765.5 1470.3927,-759.5 1470.3927,-753.5 1470.3927,-753.5 1470.3927,-741.5 1470.3927,-741.5 1470.3927,-735.5 1476.3927,-729.5 1482.3927,-729.5"/>
<text text-anchor="middle" x="1517.4681" y="-743.3" font-family="lato, roboto, helvetica" font-size="14.00" fill="#eeeeee">Beklim Toren</text>
</g>
<!-- praat_met_dochter_van_bakker -->
<g id="node56" class="node">
<title>praat_met_dochter_van_bakker</title>
<path fill="#3333aa" stroke="#3333aa" d="M1529.3944,-656.5C1529.3944,-656.5 1695.5418,-656.5 1695.5418,-656.5 1701.5418,-656.5 1707.5418,-662.5 1707.5418,-668.5 1707.5418,-668.5 1707.5418,-680.5 1707.5418,-680.5 1707.5418,-686.5 1701.5418,-692.5 1695.5418,-692.5 1695.5418,-692.5 1529.3944,-692.5 1529.3944,-692.5 1523.3944,-692.5 1517.3944,-686.5 1517.3944,-680.5 1517.3944,-680.5 1517.3944,-668.5 1517.3944,-668.5 1517.3944,-662.5 1523.3944,-656.5 1529.3944,-656.5"/>
<text text-anchor="middle" x="1612.4681" y="-670.3" font-family="lato, roboto, helvetica" font-size="14.00" fill="#eeeeee">Praat Met Dochter Van Bakker</text>
</g>
<!-- beklim_toren&#45;&gt;praat_met_dochter_van_bakker -->
<g id="edge66" class="edge">
<title>beklim_toren&#45;&gt;praat_met_dochter_van_bakker</title>
<path fill="none" stroke="#999999" d="M1540.9513,-729.4551C1553.5115,-719.8035 1569.1121,-707.8156 1582.5345,-697.5016"/>
<polygon fill="#999999" stroke="#999999" points="1584.2884,-699.6851 1588.9259,-692.5904 1580.8763,-695.2446 1584.2884,-699.6851"/>
</g>
<!-- koop_zwaard_voor_99_bij_wapensmid -->
<g id="node3" class="node">
<title>koop_zwaard_voor_99_bij_wapensmid</title>
<path fill="#008800" stroke="#008800" d="M1267.413,-802.5C1267.413,-802.5 1477.5232,-802.5 1477.5232,-802.5 1483.5232,-802.5 1489.5232,-808.5 1489.5232,-814.5 1489.5232,-814.5 1489.5232,-826.5 1489.5232,-826.5 1489.5232,-832.5 1483.5232,-838.5 1477.5232,-838.5 1477.5232,-838.5 1267.413,-838.5 1267.413,-838.5 1261.413,-838.5 1255.413,-832.5 1255.413,-826.5 1255.413,-826.5 1255.413,-814.5 1255.413,-814.5 1255.413,-808.5 1261.413,-802.5 1267.413,-802.5"/>
<text text-anchor="middle" x="1372.4681" y="-816.3" font-family="lato, roboto, helvetica" font-size="14.00" fill="#eeeeee">Koop Zwaard Voor 99 Bij Wapensmid</text>
</g>
<!-- koop_zwaard_voor_99_bij_wapensmid&#45;&gt;beklim_toren -->
<g id="edge1" class="edge">
<title>koop_zwaard_voor_99_bij_wapensmid&#45;&gt;beklim_toren</title>
<path fill="none" stroke="#999999" d="M1408.3108,-802.4551C1428.266,-792.4087 1453.2492,-779.8309 1474.2771,-769.2445"/>
<polygon fill="#999999" stroke="#999999" points="1475.6488,-771.6888 1481.5352,-765.5904 1473.1305,-766.6869 1475.6488,-771.6888"/>
</g>
<!-- snij_touw_van_lift -->
<g id="node61" class="node">
<title>snij_touw_van_lift</title>
<path fill="#3333aa" stroke="#3333aa" d="M1319.4488,-364.5C1319.4488,-364.5 1421.4874,-364.5 1421.4874,-364.5 1427.4874,-364.5 1433.4874,-370.5 1433.4874,-376.5 1433.4874,-376.5 1433.4874,-388.5 1433.4874,-388.5 1433.4874,-394.5 1427.4874,-400.5 1421.4874,-400.5 1421.4874,-400.5 1319.4488,-400.5 1319.4488,-400.5 1313.4488,-400.5 1307.4488,-394.5 1307.4488,-388.5 1307.4488,-388.5 1307.4488,-376.5 1307.4488,-376.5 1307.4488,-370.5 1313.4488,-364.5 1319.4488,-364.5"/>
<text text-anchor="middle" x="1370.4681" y="-378.3" font-family="lato, roboto, helvetica" font-size="14.00" fill="#eeeeee">Snij Touw Van Lift</text>
</g>
<!-- koop_zwaard_voor_99_bij_wapensmid&#45;&gt;snij_touw_van_lift -->
<g id="edge76" class="edge">
<title>koop_zwaard_voor_99_bij_wapensmid&#45;&gt;snij_touw_van_lift</title>
<path fill="none" stroke="#999999" d="M1352.7265,-802.2908C1327.0578,-776.5275 1285.4681,-726.726 1285.4681,-674.5 1285.4681,-674.5 1285.4681,-674.5 1285.4681,-528.5 1285.4681,-480.4389 1320.294,-434.0861 1345.3623,-406.9462"/>
<polygon fill="#999999" stroke="#999999" points="1347.7152,-408.5335 1351.1803,-400.7983 1343.6477,-404.6843 1347.7152,-408.5335"/>
</g>
<!-- genoeg_info_over_monster -->
<g id="node4" class="node">
<title>genoeg_info_over_monster</title>
<path fill="#3333aa" stroke="#3333aa" d="M1412.4712,-875.5C1412.4712,-875.5 1556.465,-875.5 1556.465,-875.5 1562.465,-875.5 1568.465,-881.5 1568.465,-887.5 1568.465,-887.5 1568.465,-899.5 1568.465,-899.5 1568.465,-905.5 1562.465,-911.5 1556.465,-911.5 1556.465,-911.5 1412.4712,-911.5 1412.4712,-911.5 1406.4712,-911.5 1400.4712,-905.5 1400.4712,-899.5 1400.4712,-899.5 1400.4712,-887.5 1400.4712,-887.5 1400.4712,-881.5 1406.4712,-875.5 1412.4712,-875.5"/>
<text text-anchor="middle" x="1484.4681" y="-889.3" font-family="lato, roboto, helvetica" font-size="14.00" fill="#eeeeee">Genoeg Info Over Monster</text>
</g>
<!-- genoeg_info_over_monster&#45;&gt;beklim_toren -->
<g id="edge2" class="edge">
<title>genoeg_info_over_monster&#45;&gt;beklim_toren</title>
<path fill="none" stroke="#999999" d="M1489.3475,-875.3853C1492.1406,-864.8055 1495.6406,-851.1805 1498.4681,-839 1503.5583,-817.0719 1508.7122,-792.0349 1512.3654,-773.7004"/>
<polygon fill="#999999" stroke="#999999" points="1515.1257,-774.1749 1513.9327,-765.7834 1509.6324,-773.0874 1515.1257,-774.1749"/>
</g>
<!-- _0 -->
<g id="node7" class="node">
<title>_0</title>
<polygon fill="#888888" stroke="#888888" points="858.4681,-1495.5 828.4414,-1477.5 858.4681,-1459.5 888.4948,-1477.5 858.4681,-1495.5"/>
<polyline fill="none" stroke="#888888" points="838.4503,-1483.5 838.4503,-1471.5 "/>
<polyline fill="none" stroke="#888888" points="848.4592,-1465.5 868.477,-1465.5 "/>
<polyline fill="none" stroke="#888888" points="878.4859,-1471.5 878.4859,-1483.5 "/>
<polyline fill="none" stroke="#888888" points="868.477,-1489.5 848.4592,-1489.5 "/>
<text text-anchor="middle" x="858.4681" y="-1473.3" font-family="lato, roboto, helvetica" font-size="14.00" fill="#eeeeee">Or</text>
</g>
<!-- betaal_twee_geldstukken&#45;&gt;_0 -->
<g id="edge5" class="edge">
<title>betaal_twee_geldstukken&#45;&gt;_0</title>
<path fill="none" stroke="#999999" stroke-dasharray="5,2" d="M858.4681,-1532.4551C858.4681,-1523.7686 858.4681,-1513.1898 858.4681,-1503.642"/>
<polygon fill="#999999" stroke="#999999" points="861.2682,-1503.5903 858.4681,-1495.5904 855.6682,-1503.5904 861.2682,-1503.5903"/>
</g>
<!-- _1 -->
<g id="node43" class="node">
<title>_1</title>
<polygon fill="#888888" stroke="#888888" points="428.4681,-838.5 398.4414,-820.5 428.4681,-802.5 458.4948,-820.5 428.4681,-838.5"/>
<polyline fill="none" stroke="#888888" points="408.4503,-826.5 408.4503,-814.5 "/>
<polyline fill="none" stroke="#888888" points="418.4592,-808.5 438.477,-808.5 "/>
<polyline fill="none" stroke="#888888" points="448.4859,-814.5 448.4859,-826.5 "/>
<polyline fill="none" stroke="#888888" points="438.477,-832.5 418.4592,-832.5 "/>
<text text-anchor="middle" x="428.4681" y="-816.3" font-family="lato, roboto, helvetica" font-size="14.00" fill="#eeeeee">Or</text>
</g>
<!-- betaal_twee_geldstukken&#45;&gt;_1 -->
<g id="edge33" class="edge">
<title>betaal_twee_geldstukken&#45;&gt;_1</title>
<path fill="none" stroke="#999999" stroke-dasharray="5,2" d="M778.0498,-1533.116C676.6694,-1508.8323 515.4681,-1461.2907 515.4681,-1404.5 515.4681,-1404.5 515.4681,-1404.5 515.4681,-966.5 515.4681,-913.1859 472.1274,-862.3985 446.6267,-837.1305"/>
<polygon fill="#999999" stroke="#999999" points="448.2629,-834.8177 440.5651,-831.2702 444.3705,-838.8438 448.2629,-834.8177"/>
</g>
<!-- betaal_twee_goudstukken_aan_hoefsmid -->
<g id="node6" class="node">
<title>betaal_twee_goudstukken_aan_hoefsmid</title>
<path fill="#008800" stroke="#008800" d="M821.4505,-1386.5C821.4505,-1386.5 1047.4857,-1386.5 1047.4857,-1386.5 1053.4857,-1386.5 1059.4857,-1392.5 1059.4857,-1398.5 1059.4857,-1398.5 1059.4857,-1410.5 1059.4857,-1410.5 1059.4857,-1416.5 1053.4857,-1422.5 1047.4857,-1422.5 1047.4857,-1422.5 821.4505,-1422.5 821.4505,-1422.5 815.4505,-1422.5 809.4505,-1416.5 809.4505,-1410.5 809.4505,-1410.5 809.4505,-1398.5 809.4505,-1398.5 809.4505,-1392.5 815.4505,-1386.5 821.4505,-1386.5"/>
<text text-anchor="middle" x="934.4681" y="-1400.3" font-family="lato, roboto, helvetica" font-size="14.00" fill="#eeeeee">Betaal Twee Goudstukken Aan Hoefsmid</text>
</g>
<!-- geef_paard_nieuwe_hoefijzers -->
<g id="node29" class="node">
<title>geef_paard_nieuwe_hoefijzers</title>
<path fill="#008800" stroke="#008800" d="M983.7685,-1313.5C983.7685,-1313.5 1147.1677,-1313.5 1147.1677,-1313.5 1153.1677,-1313.5 1159.1677,-1319.5 1159.1677,-1325.5 1159.1677,-1325.5 1159.1677,-1337.5 1159.1677,-1337.5 1159.1677,-1343.5 1153.1677,-1349.5 1147.1677,-1349.5 1147.1677,-1349.5 983.7685,-1349.5 983.7685,-1349.5 977.7685,-1349.5 971.7685,-1343.5 971.7685,-1337.5 971.7685,-1337.5 971.7685,-1325.5 971.7685,-1325.5 971.7685,-1319.5 977.7685,-1313.5 983.7685,-1313.5"/>
<text text-anchor="middle" x="1065.4681" y="-1327.3" font-family="lato, roboto, helvetica" font-size="14.00" fill="#eeeeee">Geef Paard Nieuwe Hoefijzers</text>
</g>
<!-- betaal_twee_goudstukken_aan_hoefsmid&#45;&gt;geef_paard_nieuwe_hoefijzers -->
<g id="edge19" class="edge">
<title>betaal_twee_goudstukken_aan_hoefsmid&#45;&gt;geef_paard_nieuwe_hoefijzers</title>
<path fill="none" stroke="#999999" d="M966.8501,-1386.4551C984.6424,-1376.5403 1006.859,-1364.16 1025.6988,-1353.6615"/>
<polygon fill="#999999" stroke="#999999" points="1027.3793,-1355.9305 1033.0046,-1349.5904 1024.6534,-1351.0387 1027.3793,-1355.9305"/>
</g>
<!-- _0&#45;&gt;betaal_twee_goudstukken_aan_hoefsmid -->
<g id="edge4" class="edge">
<title>_0&#45;&gt;betaal_twee_goudstukken_aan_hoefsmid</title>
<path fill="none" stroke="#999999" d="M870.0109,-1466.4129C880.5258,-1456.313 896.4061,-1441.0596 909.7727,-1428.2205"/>
<polygon fill="#999999" stroke="#999999" points="911.8791,-1430.0798 915.709,-1422.5186 907.9998,-1426.0411 911.8791,-1430.0798"/>
</g>
<!-- krijg_geldstuk_van_smid -->
<g id="node8" class="node">
<title>krijg_geldstuk_van_smid</title>
<path fill="#3333aa" stroke="#3333aa" d="M944.7279,-437.5C944.7279,-437.5 1080.2083,-437.5 1080.2083,-437.5 1086.2083,-437.5 1092.2083,-443.5 1092.2083,-449.5 1092.2083,-449.5 1092.2083,-461.5 1092.2083,-461.5 1092.2083,-467.5 1086.2083,-473.5 1080.2083,-473.5 1080.2083,-473.5 944.7279,-473.5 944.7279,-473.5 938.7279,-473.5 932.7279,-467.5 932.7279,-461.5 932.7279,-461.5 932.7279,-449.5 932.7279,-449.5 932.7279,-443.5 938.7279,-437.5 944.7279,-437.5"/>
<text text-anchor="middle" x="1012.4681" y="-451.3" font-family="lato, roboto, helvetica" font-size="14.00" fill="#eeeeee">Krijg Geldstuk Van Smid</text>
</g>
<!-- krijg_geldstuk_van_smid&#45;&gt;_0 -->
<g id="edge6" class="edge">
<title>krijg_geldstuk_van_smid&#45;&gt;_0</title>
<path fill="none" stroke="#999999" stroke-dasharray="5,2" d="M1027.4401,-473.5597C1047.7335,-499.9312 1081.4681,-551.3167 1081.4681,-601.5 1081.4681,-747.5 1081.4681,-747.5 1081.4681,-747.5 1081.4681,-789.0342 1088.3111,-806.485 1062.4681,-839 1038.7115,-868.8898 1010.2695,-846.8564 984.4681,-875 821.3473,-1052.9288 841.9752,-1148.2097 800.4681,-1386 797.6404,-1402.1995 793.9396,-1407.907 800.4681,-1423 807.8487,-1440.063 823.4924,-1454.2447 836.6748,-1463.8605"/>
<polygon fill="#999999" stroke="#999999" points="835.1217,-1466.1909 843.2871,-1468.4638 838.3213,-1461.5949 835.1217,-1466.1909"/>
</g>
<!-- bezorg_graan_bij_molenaar -->
<g id="node9" class="node">
<title>bezorg_graan_bij_molenaar</title>
<path fill="#008800" stroke="#008800" d="M1090.528,-1094.5C1090.528,-1094.5 1238.4082,-1094.5 1238.4082,-1094.5 1244.4082,-1094.5 1250.4082,-1100.5 1250.4082,-1106.5 1250.4082,-1106.5 1250.4082,-1118.5 1250.4082,-1118.5 1250.4082,-1124.5 1244.4082,-1130.5 1238.4082,-1130.5 1238.4082,-1130.5 1090.528,-1130.5 1090.528,-1130.5 1084.528,-1130.5 1078.528,-1124.5 1078.528,-1118.5 1078.528,-1118.5 1078.528,-1106.5 1078.528,-1106.5 1078.528,-1100.5 1084.528,-1094.5 1090.528,-1094.5"/>
<text text-anchor="middle" x="1164.4681" y="-1108.3" font-family="lato, roboto, helvetica" font-size="14.00" fill="#eeeeee">Bezorg Graan Bij Molenaar</text>
</g>
<!-- krijg_meel_bij_molenaar -->
<g id="node12" class="node">
<title>krijg_meel_bij_molenaar</title>
<path fill="#008800" stroke="#008800" d="M1098.683,-1021.5C1098.683,-1021.5 1230.2532,-1021.5 1230.2532,-1021.5 1236.2532,-1021.5 1242.2532,-1027.5 1242.2532,-1033.5 1242.2532,-1033.5 1242.2532,-1045.5 1242.2532,-1045.5 1242.2532,-1051.5 1236.2532,-1057.5 1230.2532,-1057.5 1230.2532,-1057.5 1098.683,-1057.5 1098.683,-1057.5 1092.683,-1057.5 1086.683,-1051.5 1086.683,-1045.5 1086.683,-1045.5 1086.683,-1033.5 1086.683,-1033.5 1086.683,-1027.5 1092.683,-1021.5 1098.683,-1021.5"/>
<text text-anchor="middle" x="1164.4681" y="-1035.3" font-family="lato, roboto, helvetica" font-size="14.00" fill="#eeeeee">Krijg Meel Bij Molenaar</text>
</g>
<!-- bezorg_graan_bij_molenaar&#45;&gt;krijg_meel_bij_molenaar -->
<g id="edge48" class="edge">
<title>bezorg_graan_bij_molenaar&#45;&gt;krijg_meel_bij_molenaar</title>
<path fill="none" stroke="#999999" d="M1164.4681,-1094.4551C1164.4681,-1085.7686 1164.4681,-1075.1898 1164.4681,-1065.642"/>
<polygon fill="#999999" stroke="#999999" points="1167.2682,-1065.5903 1164.4681,-1057.5904 1161.6682,-1065.5904 1167.2682,-1065.5903"/>
</g>
<!-- zet_graan_op_wagen -->
<g id="node10" class="node">
<title>zet_graan_op_wagen</title>
<path fill="#008800" stroke="#008800" d="M1108.4158,-1167.5C1108.4158,-1167.5 1220.5204,-1167.5 1220.5204,-1167.5 1226.5204,-1167.5 1232.5204,-1173.5 1232.5204,-1179.5 1232.5204,-1179.5 1232.5204,-1191.5 1232.5204,-1191.5 1232.5204,-1197.5 1226.5204,-1203.5 1220.5204,-1203.5 1220.5204,-1203.5 1108.4158,-1203.5 1108.4158,-1203.5 1102.4158,-1203.5 1096.4158,-1197.5 1096.4158,-1191.5 1096.4158,-1191.5 1096.4158,-1179.5 1096.4158,-1179.5 1096.4158,-1173.5 1102.4158,-1167.5 1108.4158,-1167.5"/>
<text text-anchor="middle" x="1164.4681" y="-1181.3" font-family="lato, roboto, helvetica" font-size="14.00" fill="#eeeeee">Zet Graan Op Wagen</text>
</g>
<!-- zet_graan_op_wagen&#45;&gt;bezorg_graan_bij_molenaar -->
<g id="edge7" class="edge">
<title>zet_graan_op_wagen&#45;&gt;bezorg_graan_bij_molenaar</title>
<path fill="none" stroke="#999999" d="M1164.4681,-1167.4551C1164.4681,-1158.7686 1164.4681,-1148.1898 1164.4681,-1138.642"/>
<polygon fill="#999999" stroke="#999999" points="1167.2682,-1138.5903 1164.4681,-1130.5904 1161.6682,-1138.5904 1167.2682,-1138.5903"/>
</g>
<!-- bezorg_meel_bij_bakker -->
<g id="node11" class="node">
<title>bezorg_meel_bij_bakker</title>
<path fill="#008800" stroke="#008800" d="M1012.8506,-948.5C1012.8506,-948.5 1142.0856,-948.5 1142.0856,-948.5 1148.0856,-948.5 1154.0856,-954.5 1154.0856,-960.5 1154.0856,-960.5 1154.0856,-972.5 1154.0856,-972.5 1154.0856,-978.5 1148.0856,-984.5 1142.0856,-984.5 1142.0856,-984.5 1012.8506,-984.5 1012.8506,-984.5 1006.8506,-984.5 1000.8506,-978.5 1000.8506,-972.5 1000.8506,-972.5 1000.8506,-960.5 1000.8506,-960.5 1000.8506,-954.5 1006.8506,-948.5 1012.8506,-948.5"/>
<text text-anchor="middle" x="1077.4681" y="-962.3" font-family="lato, roboto, helvetica" font-size="14.00" fill="#eeeeee">Bezorg Meel Bij Bakker</text>
</g>
<!-- zet_molensteen_op_wagen -->
<g id="node19" class="node">
<title>zet_molensteen_op_wagen</title>
<path fill="#3333aa" stroke="#3333aa" d="M1005.8569,-875.5C1005.8569,-875.5 1149.0793,-875.5 1149.0793,-875.5 1155.0793,-875.5 1161.0793,-881.5 1161.0793,-887.5 1161.0793,-887.5 1161.0793,-899.5 1161.0793,-899.5 1161.0793,-905.5 1155.0793,-911.5 1149.0793,-911.5 1149.0793,-911.5 1005.8569,-911.5 1005.8569,-911.5 999.8569,-911.5 993.8569,-905.5 993.8569,-899.5 993.8569,-899.5 993.8569,-887.5 993.8569,-887.5 993.8569,-881.5 999.8569,-875.5 1005.8569,-875.5"/>
<text text-anchor="middle" x="1077.4681" y="-889.3" font-family="lato, roboto, helvetica" font-size="14.00" fill="#eeeeee">Zet Molensteen Op Wagen</text>
</g>
<!-- bezorg_meel_bij_bakker&#45;&gt;zet_molensteen_op_wagen -->
<g id="edge89" class="edge">
<title>bezorg_meel_bij_bakker&#45;&gt;zet_molensteen_op_wagen</title>
<path fill="none" stroke="#999999" d="M1077.4681,-948.4551C1077.4681,-939.7686 1077.4681,-929.1898 1077.4681,-919.642"/>
<polygon fill="#999999" stroke="#999999" points="1080.2682,-919.5903 1077.4681,-911.5904 1074.6682,-919.5904 1080.2682,-919.5903"/>
</g>
<!-- krijg_100_geld_van_meel -->
<g id="node44" class="node">
<title>krijg_100_geld_van_meel</title>
<path fill="#008800" stroke="#008800" d="M625.5452,-875.5C625.5452,-875.5 761.391,-875.5 761.391,-875.5 767.391,-875.5 773.391,-881.5 773.391,-887.5 773.391,-887.5 773.391,-899.5 773.391,-899.5 773.391,-905.5 767.391,-911.5 761.391,-911.5 761.391,-911.5 625.5452,-911.5 625.5452,-911.5 619.5452,-911.5 613.5452,-905.5 613.5452,-899.5 613.5452,-899.5 613.5452,-887.5 613.5452,-887.5 613.5452,-881.5 619.5452,-875.5 625.5452,-875.5"/>
<text text-anchor="middle" x="693.4681" y="-889.3" font-family="lato, roboto, helvetica" font-size="14.00" fill="#eeeeee">Krijg 100 Geld Van Meel</text>
</g>
<!-- bezorg_meel_bij_bakker&#45;&gt;krijg_100_geld_van_meel -->
<g id="edge37" class="edge">
<title>bezorg_meel_bij_bakker&#45;&gt;krijg_100_geld_van_meel</title>
<path fill="none" stroke="#999999" d="M1000.6675,-952.7948C941.0793,-942.0444 856.4452,-926.5202 782.4681,-912 782.1003,-911.9278 781.7317,-911.8554 781.3622,-911.7827"/>
<polygon fill="#999999" stroke="#999999" points="781.8965,-909.0342 773.5047,-910.2245 780.8072,-914.5272 781.8965,-909.0342"/>
</g>
<!-- krijg_meel_bij_molenaar&#45;&gt;bezorg_meel_bij_bakker -->
<g id="edge8" class="edge">
<title>krijg_meel_bij_molenaar&#45;&gt;bezorg_meel_bij_bakker</title>
<path fill="none" stroke="#999999" d="M1142.9625,-1021.4551C1131.5645,-1011.8912 1117.4326,-1000.0334 1105.2167,-989.7833"/>
<polygon fill="#999999" stroke="#999999" points="1106.9561,-987.5877 1099.0278,-984.5904 1103.3565,-991.8776 1106.9561,-987.5877"/>
</g>
<!-- breng_dochter_naar_bakker -->
<g id="node13" class="node">
<title>breng_dochter_naar_bakker</title>
<path fill="#3333aa" stroke="#3333aa" d="M1414.7573,-218.5C1414.7573,-218.5 1564.1789,-218.5 1564.1789,-218.5 1570.1789,-218.5 1576.1789,-224.5 1576.1789,-230.5 1576.1789,-230.5 1576.1789,-242.5 1576.1789,-242.5 1576.1789,-248.5 1570.1789,-254.5 1564.1789,-254.5 1564.1789,-254.5 1414.7573,-254.5 1414.7573,-254.5 1408.7573,-254.5 1402.7573,-248.5 1402.7573,-242.5 1402.7573,-242.5 1402.7573,-230.5 1402.7573,-230.5 1402.7573,-224.5 1408.7573,-218.5 1414.7573,-218.5"/>
<text text-anchor="middle" x="1489.4681" y="-232.3" font-family="lato, roboto, helvetica" font-size="14.00" fill="#eeeeee">Breng Dochter Naar Bakker</text>
</g>
<!-- krijg_appel_taart_van_bakker -->
<g id="node45" class="node">
<title>krijg_appel_taart_van_bakker</title>
<path fill="#3333aa" stroke="#3333aa" d="M1410.9477,-145.5C1410.9477,-145.5 1573.9885,-145.5 1573.9885,-145.5 1579.9885,-145.5 1585.9885,-151.5 1585.9885,-157.5 1585.9885,-157.5 1585.9885,-169.5 1585.9885,-169.5 1585.9885,-175.5 1579.9885,-181.5 1573.9885,-181.5 1573.9885,-181.5 1410.9477,-181.5 1410.9477,-181.5 1404.9477,-181.5 1398.9477,-175.5 1398.9477,-169.5 1398.9477,-169.5 1398.9477,-157.5 1398.9477,-157.5 1398.9477,-151.5 1404.9477,-145.5 1410.9477,-145.5"/>
<text text-anchor="middle" x="1492.4681" y="-159.3" font-family="lato, roboto, helvetica" font-size="14.00" fill="#eeeeee">Krijg Appel Taart Van Bakker</text>
</g>
<!-- breng_dochter_naar_bakker&#45;&gt;krijg_appel_taart_van_bakker -->
<g id="edge38" class="edge">
<title>breng_dochter_naar_bakker&#45;&gt;krijg_appel_taart_van_bakker</title>
<path fill="none" stroke="#999999" d="M1490.2097,-218.4551C1490.5666,-209.7686 1491.0014,-199.1898 1491.3938,-189.642"/>
<polygon fill="#999999" stroke="#999999" points="1494.1937,-189.6986 1491.7247,-181.5904 1488.5984,-189.4686 1494.1937,-189.6986"/>
</g>
<!-- trek_tand_van_draak -->
<g id="node14" class="node">
<title>trek_tand_van_draak</title>
<path fill="#3333aa" stroke="#3333aa" d="M1312.8618,-291.5C1312.8618,-291.5 1428.0744,-291.5 1428.0744,-291.5 1434.0744,-291.5 1440.0744,-297.5 1440.0744,-303.5 1440.0744,-303.5 1440.0744,-315.5 1440.0744,-315.5 1440.0744,-321.5 1434.0744,-327.5 1428.0744,-327.5 1428.0744,-327.5 1312.8618,-327.5 1312.8618,-327.5 1306.8618,-327.5 1300.8618,-321.5 1300.8618,-315.5 1300.8618,-315.5 1300.8618,-303.5 1300.8618,-303.5 1300.8618,-297.5 1306.8618,-291.5 1312.8618,-291.5"/>
<text text-anchor="middle" x="1370.4681" y="-305.3" font-family="lato, roboto, helvetica" font-size="14.00" fill="#eeeeee">Trek Tand Van Draak</text>
</g>
<!-- trek_tand_van_draak&#45;&gt;breng_dochter_naar_bakker -->
<g id="edge9" class="edge">
<title>trek_tand_van_draak&#45;&gt;breng_dochter_naar_bakker</title>
<path fill="none" stroke="#999999" d="M1399.8838,-291.4551C1415.9033,-281.628 1435.8709,-269.3789 1452.8867,-258.9407"/>
<polygon fill="#999999" stroke="#999999" points="1454.6233,-261.1603 1459.9783,-254.5904 1451.695,-256.3869 1454.6233,-261.1603"/>
</g>
<!-- zet_zadel_op_draak -->
<g id="node16" class="node">
<title>zet_zadel_op_draak</title>
<path fill="#3333aa" stroke="#3333aa" d="M1318.3015,-72.5C1318.3015,-72.5 1422.6347,-72.5 1422.6347,-72.5 1428.6347,-72.5 1434.6347,-78.5 1434.6347,-84.5 1434.6347,-84.5 1434.6347,-96.5 1434.6347,-96.5 1434.6347,-102.5 1428.6347,-108.5 1422.6347,-108.5 1422.6347,-108.5 1318.3015,-108.5 1318.3015,-108.5 1312.3015,-108.5 1306.3015,-102.5 1306.3015,-96.5 1306.3015,-96.5 1306.3015,-84.5 1306.3015,-84.5 1306.3015,-78.5 1312.3015,-72.5 1318.3015,-72.5"/>
<text text-anchor="middle" x="1370.4681" y="-86.3" font-family="lato, roboto, helvetica" font-size="14.00" fill="#eeeeee">Zet Zadel Op Draak</text>
</g>
<!-- trek_tand_van_draak&#45;&gt;zet_zadel_op_draak -->
<g id="edge90" class="edge">
<title>trek_tand_van_draak&#45;&gt;zet_zadel_op_draak</title>
<path fill="none" stroke="#999999" d="M1370.4681,-291.2049C1370.4681,-252.3808 1370.4681,-161.6319 1370.4681,-116.6829"/>
<polygon fill="#999999" stroke="#999999" points="1373.2682,-116.589 1370.4681,-108.589 1367.6682,-116.5891 1373.2682,-116.589"/>
</g>
<!-- pak_tand_van_draak -->
<g id="node49" class="node">
<title>pak_tand_van_draak</title>
<path fill="#3333aa" stroke="#3333aa" d="M1220.5771,-218.5C1220.5771,-218.5 1330.3591,-218.5 1330.3591,-218.5 1336.3591,-218.5 1342.3591,-224.5 1342.3591,-230.5 1342.3591,-230.5 1342.3591,-242.5 1342.3591,-242.5 1342.3591,-248.5 1336.3591,-254.5 1330.3591,-254.5 1330.3591,-254.5 1220.5771,-254.5 1220.5771,-254.5 1214.5771,-254.5 1208.5771,-248.5 1208.5771,-242.5 1208.5771,-242.5 1208.5771,-230.5 1208.5771,-230.5 1208.5771,-224.5 1214.5771,-218.5 1220.5771,-218.5"/>
<text text-anchor="middle" x="1275.4681" y="-232.3" font-family="lato, roboto, helvetica" font-size="14.00" fill="#eeeeee">Pak Tand Van Draak</text>
</g>
<!-- trek_tand_van_draak&#45;&gt;pak_tand_van_draak -->
<g id="edge60" class="edge">
<title>trek_tand_van_draak&#45;&gt;pak_tand_van_draak</title>
<path fill="none" stroke="#999999" d="M1346.9849,-291.4551C1334.4247,-281.8035 1318.8241,-269.8156 1305.4017,-259.5016"/>
<polygon fill="#999999" stroke="#999999" points="1307.0599,-257.2446 1299.0103,-254.5904 1303.6478,-261.6851 1307.0599,-257.2446"/>
</g>
<!-- breng_medicijnen_naar_koning -->
<g id="node15" class="node">
<title>breng_medicijnen_naar_koning</title>
<polygon fill="#333333" stroke="#333333" points="1317.4681,-36 1128.627,-18 1317.4681,0 1506.3092,-18 1317.4681,-36"/>
<polyline fill="none" stroke="#333333" points="1140.5728,-19.1387 1140.5728,-16.8613 "/>
<polyline fill="none" stroke="#333333" points="1305.5222,-1.1387 1329.414,-1.1387 "/>
<polyline fill="none" stroke="#333333" points="1494.3634,-16.8613 1494.3634,-19.1387 "/>
<polyline fill="none" stroke="#333333" points="1329.414,-34.8613 1305.5222,-34.8613 "/>
<text text-anchor="middle" x="1317.4681" y="-13.8" font-family="lato, roboto, helvetica" font-size="14.00" fill="#dddddd">Breng Medicijnen Naar Koning</text>
</g>
<!-- zet_zadel_op_draak&#45;&gt;breng_medicijnen_naar_koning -->
<g id="edge10" class="edge">
<title>zet_zadel_op_draak&#45;&gt;breng_medicijnen_naar_koning</title>
<path fill="none" stroke="#999999" d="M1357.094,-72.2052C1350.3169,-62.9346 1342.0075,-51.568 1334.7512,-41.642"/>
<polygon fill="#999999" stroke="#999999" points="1336.9094,-39.8497 1329.9277,-35.0438 1332.3886,-43.1546 1336.9094,-39.8497"/>
</g>
<!-- krijg_medicijn_van_heks -->
<g id="node17" class="node">
<title>krijg_medicijn_van_heks</title>
<path fill="#3333aa" stroke="#3333aa" d="M1127.1276,-145.5C1127.1276,-145.5 1261.8086,-145.5 1261.8086,-145.5 1267.8086,-145.5 1273.8086,-151.5 1273.8086,-157.5 1273.8086,-157.5 1273.8086,-169.5 1273.8086,-169.5 1273.8086,-175.5 1267.8086,-181.5 1261.8086,-181.5 1261.8086,-181.5 1127.1276,-181.5 1127.1276,-181.5 1121.1276,-181.5 1115.1276,-175.5 1115.1276,-169.5 1115.1276,-169.5 1115.1276,-157.5 1115.1276,-157.5 1115.1276,-151.5 1121.1276,-145.5 1127.1276,-145.5"/>
<text text-anchor="middle" x="1194.4681" y="-159.3" font-family="lato, roboto, helvetica" font-size="14.00" fill="#eeeeee">Krijg Medicijn Van Heks</text>
</g>
<!-- krijg_medicijn_van_heks&#45;&gt;breng_medicijnen_naar_koning -->
<g id="edge11" class="edge">
<title>krijg_medicijn_van_heks&#45;&gt;breng_medicijnen_naar_koning</title>
<path fill="none" stroke="#999999" d="M1209.7974,-145.3665C1232.0694,-119.0204 1273.3797,-70.1533 1297.8464,-41.211"/>
<polygon fill="#999999" stroke="#999999" points="1300.0668,-42.9217 1303.0932,-35.0045 1295.7901,-39.3063 1300.0668,-42.9217"/>
</g>
<!-- breng_molensteen_naar_toren -->
<g id="node18" class="node">
<title>breng_molensteen_naar_toren</title>
<path fill="#3333aa" stroke="#3333aa" d="M1325.143,-656.5C1325.143,-656.5 1487.7932,-656.5 1487.7932,-656.5 1493.7932,-656.5 1499.7932,-662.5 1499.7932,-668.5 1499.7932,-668.5 1499.7932,-680.5 1499.7932,-680.5 1499.7932,-686.5 1493.7932,-692.5 1487.7932,-692.5 1487.7932,-692.5 1325.143,-692.5 1325.143,-692.5 1319.143,-692.5 1313.143,-686.5 1313.143,-680.5 1313.143,-680.5 1313.143,-668.5 1313.143,-668.5 1313.143,-662.5 1319.143,-656.5 1325.143,-656.5"/>
<text text-anchor="middle" x="1406.4681" y="-670.3" font-family="lato, roboto, helvetica" font-size="14.00" fill="#eeeeee">Breng Molensteen Naar Toren</text>
</g>
<!-- leg_molensteen_op_lift -->
<g id="node39" class="node">
<title>leg_molensteen_op_lift</title>
<path fill="#3333aa" stroke="#3333aa" d="M1361.6269,-583.5C1361.6269,-583.5 1489.3093,-583.5 1489.3093,-583.5 1495.3093,-583.5 1501.3093,-589.5 1501.3093,-595.5 1501.3093,-595.5 1501.3093,-607.5 1501.3093,-607.5 1501.3093,-613.5 1495.3093,-619.5 1489.3093,-619.5 1489.3093,-619.5 1361.6269,-619.5 1361.6269,-619.5 1355.6269,-619.5 1349.6269,-613.5 1349.6269,-607.5 1349.6269,-607.5 1349.6269,-595.5 1349.6269,-595.5 1349.6269,-589.5 1355.6269,-583.5 1361.6269,-583.5"/>
<text text-anchor="middle" x="1425.4681" y="-597.3" font-family="lato, roboto, helvetica" font-size="14.00" fill="#eeeeee">Leg Molensteen Op Lift</text>
</g>
<!-- breng_molensteen_naar_toren&#45;&gt;leg_molensteen_op_lift -->
<g id="edge54" class="edge">
<title>breng_molensteen_naar_toren&#45;&gt;leg_molensteen_op_lift</title>
<path fill="none" stroke="#999999" d="M1411.1647,-656.4551C1413.4484,-647.6809 1416.2346,-636.9759 1418.7392,-627.353"/>
<polygon fill="#999999" stroke="#999999" points="1421.4542,-628.0377 1420.7597,-619.5904 1416.0348,-626.6271 1421.4542,-628.0377"/>
</g>
<!-- zet_molensteen_op_wagen&#45;&gt;breng_molensteen_naar_toren -->
<g id="edge12" class="edge">
<title>zet_molensteen_op_wagen&#45;&gt;breng_molensteen_naar_toren</title>
<path fill="none" stroke="#999999" d="M1104.6715,-875.392C1164.385,-835.6435 1306.8233,-740.8289 1372.3807,-697.1904"/>
<polygon fill="#999999" stroke="#999999" points="1374.125,-699.393 1379.233,-692.6292 1371.0219,-694.7313 1374.125,-699.393"/>
</g>
<!-- breng_paard_naar_hoefsmid -->
<g id="node20" class="node">
<title>breng_paard_naar_hoefsmid</title>
<path fill="#008800" stroke="#008800" d="M1089.974,-1386.5C1089.974,-1386.5 1240.9622,-1386.5 1240.9622,-1386.5 1246.9622,-1386.5 1252.9622,-1392.5 1252.9622,-1398.5 1252.9622,-1398.5 1252.9622,-1410.5 1252.9622,-1410.5 1252.9622,-1416.5 1246.9622,-1422.5 1240.9622,-1422.5 1240.9622,-1422.5 1089.974,-1422.5 1089.974,-1422.5 1083.974,-1422.5 1077.974,-1416.5 1077.974,-1410.5 1077.974,-1410.5 1077.974,-1398.5 1077.974,-1398.5 1077.974,-1392.5 1083.974,-1386.5 1089.974,-1386.5"/>
<text text-anchor="middle" x="1165.4681" y="-1400.3" font-family="lato, roboto, helvetica" font-size="14.00" fill="#eeeeee">Breng Paard Naar Hoefsmid</text>
</g>
<!-- breng_paard_naar_hoefsmid&#45;&gt;geef_paard_nieuwe_hoefijzers -->
<g id="edge18" class="edge">
<title>breng_paard_naar_hoefsmid&#45;&gt;geef_paard_nieuwe_hoefijzers</title>
<path fill="none" stroke="#999999" d="M1140.749,-1386.4551C1127.5277,-1376.8035 1111.106,-1364.8156 1096.9771,-1354.5016"/>
<polygon fill="#999999" stroke="#999999" points="1098.3619,-1352.0458 1090.2494,-1349.5904 1095.06,-1356.5688 1098.3619,-1352.0458"/>
</g>
<!-- vind_paard_bij_rivier -->
<g id="node21" class="node">
<title>vind_paard_bij_rivier</title>
<path fill="#008800" stroke="#008800" d="M1117.2279,-1459.5C1117.2279,-1459.5 1231.7083,-1459.5 1231.7083,-1459.5 1237.7083,-1459.5 1243.7083,-1465.5 1243.7083,-1471.5 1243.7083,-1471.5 1243.7083,-1483.5 1243.7083,-1483.5 1243.7083,-1489.5 1237.7083,-1495.5 1231.7083,-1495.5 1231.7083,-1495.5 1117.2279,-1495.5 1117.2279,-1495.5 1111.2279,-1495.5 1105.2279,-1489.5 1105.2279,-1483.5 1105.2279,-1483.5 1105.2279,-1471.5 1105.2279,-1471.5 1105.2279,-1465.5 1111.2279,-1459.5 1117.2279,-1459.5"/>
<text text-anchor="middle" x="1174.4681" y="-1473.3" font-family="lato, roboto, helvetica" font-size="14.00" fill="#eeeeee">Vind Paard Bij Rivier</text>
</g>
<!-- vind_paard_bij_rivier&#45;&gt;breng_paard_naar_hoefsmid -->
<g id="edge13" class="edge">
<title>vind_paard_bij_rivier&#45;&gt;breng_paard_naar_hoefsmid</title>
<path fill="none" stroke="#999999" d="M1172.2434,-1459.4551C1171.1725,-1450.7686 1169.8682,-1440.1898 1168.6911,-1430.642"/>
<polygon fill="#999999" stroke="#999999" points="1171.4564,-1430.1876 1167.6984,-1422.5904 1165.8984,-1430.8729 1171.4564,-1430.1876"/>
</g>
<!-- ga_naar_hut_in_moeras -->
<g id="node22" class="node">
<title>ga_naar_hut_in_moeras</title>
<path fill="#008800" stroke="#008800" d="M1121.3909,-583.5C1121.3909,-583.5 1245.5453,-583.5 1245.5453,-583.5 1251.5453,-583.5 1257.5453,-589.5 1257.5453,-595.5 1257.5453,-595.5 1257.5453,-607.5 1257.5453,-607.5 1257.5453,-613.5 1251.5453,-619.5 1245.5453,-619.5 1245.5453,-619.5 1121.3909,-619.5 1121.3909,-619.5 1115.3909,-619.5 1109.3909,-613.5 1109.3909,-607.5 1109.3909,-607.5 1109.3909,-595.5 1109.3909,-595.5 1109.3909,-589.5 1115.3909,-583.5 1121.3909,-583.5"/>
<text text-anchor="middle" x="1183.4681" y="-597.3" font-family="lato, roboto, helvetica" font-size="14.00" fill="#eeeeee">Ga Naar Hut In Moeras</text>
</g>
<!-- praat_met_heks -->
<g id="node31" class="node">
<title>praat_met_heks</title>
<path fill="#008800" stroke="#008800" d="M1135.9288,-437.5C1135.9288,-437.5 1215.0074,-437.5 1215.0074,-437.5 1221.0074,-437.5 1227.0074,-443.5 1227.0074,-449.5 1227.0074,-449.5 1227.0074,-461.5 1227.0074,-461.5 1227.0074,-467.5 1221.0074,-473.5 1215.0074,-473.5 1215.0074,-473.5 1135.9288,-473.5 1135.9288,-473.5 1129.9288,-473.5 1123.9288,-467.5 1123.9288,-461.5 1123.9288,-461.5 1123.9288,-449.5 1123.9288,-449.5 1123.9288,-443.5 1129.9288,-437.5 1135.9288,-437.5"/>
<text text-anchor="middle" x="1175.4681" y="-451.3" font-family="lato, roboto, helvetica" font-size="14.00" fill="#eeeeee">Praat Met Heks</text>
</g>
<!-- ga_naar_hut_in_moeras&#45;&gt;praat_met_heks -->
<g id="edge68" class="edge">
<title>ga_naar_hut_in_moeras&#45;&gt;praat_met_heks</title>
<path fill="none" stroke="#999999" d="M1182.4711,-583.3042C1181.0758,-557.8403 1178.5317,-511.4108 1176.9243,-482.0759"/>
<polygon fill="#999999" stroke="#999999" points="1179.7113,-481.7599 1176.4777,-473.9251 1174.1197,-482.0664 1179.7113,-481.7599"/>
</g>
<!-- praat_met_bakker&#45;&gt;koop_zwaard_voor_99_bij_wapensmid -->
<g id="edge36" class="edge">
<title>praat_met_bakker&#45;&gt;koop_zwaard_voor_99_bij_wapensmid</title>
<path fill="none" stroke="#999999" d="M1377.7203,-948.3042C1376.6739,-922.8403 1374.7658,-876.4108 1373.5603,-847.0759"/>
<polygon fill="#999999" stroke="#999999" points="1376.3515,-846.8034 1373.2253,-838.9251 1370.7562,-847.0334 1376.3515,-846.8034"/>
</g>
<!-- praat_met_bakker&#45;&gt;genoeg_info_over_monster -->
<g id="edge22" class="edge">
<title>praat_met_bakker&#45;&gt;genoeg_info_over_monster</title>
<path fill="none" stroke="#999999" d="M1404.6704,-948.4551C1418.8124,-938.7157 1436.4087,-926.5975 1451.4764,-916.2207"/>
<polygon fill="#999999" stroke="#999999" points="1453.1993,-918.434 1458.1999,-911.5904 1450.023,-913.8219 1453.1993,-918.434"/>
</g>
<!-- praat_met_bakker&#45;&gt;ga_naar_hut_in_moeras -->
<g id="edge14" class="edge">
<title>praat_met_bakker&#45;&gt;ga_naar_hut_in_moeras</title>
<path fill="none" stroke="#999999" d="M1320.9921,-949.1666C1265.3872,-928.4187 1189.4681,-887.773 1189.4681,-820.5 1189.4681,-820.5 1189.4681,-820.5 1189.4681,-747.5 1189.4681,-705.7082 1186.9835,-657.244 1185.212,-628.0011"/>
<polygon fill="#999999" stroke="#999999" points="1188.0012,-627.7393 1184.7113,-619.928 1182.412,-628.086 1188.0012,-627.7393"/>
</g>
<!-- geef_dwerg_eten -->
<g id="node24" class="node">
<title>geef_dwerg_eten</title>
<path fill="#008800" stroke="#008800" d="M398.4968,-656.5C398.4968,-656.5 488.4394,-656.5 488.4394,-656.5 494.4394,-656.5 500.4394,-662.5 500.4394,-668.5 500.4394,-668.5 500.4394,-680.5 500.4394,-680.5 500.4394,-686.5 494.4394,-692.5 488.4394,-692.5 488.4394,-692.5 398.4968,-692.5 398.4968,-692.5 392.4968,-692.5 386.4968,-686.5 386.4968,-680.5 386.4968,-680.5 386.4968,-668.5 386.4968,-668.5 386.4968,-662.5 392.4968,-656.5 398.4968,-656.5"/>
<text text-anchor="middle" x="443.4681" y="-670.3" font-family="lato, roboto, helvetica" font-size="14.00" fill="#eeeeee">Geef Dwerg Eten</text>
</g>
<!-- krijg_edelsteen_van_dwerg -->
<g id="node46" class="node">
<title>krijg_edelsteen_van_dwerg</title>
<path fill="#008800" stroke="#008800" d="M369.528,-583.5C369.528,-583.5 517.4082,-583.5 517.4082,-583.5 523.4082,-583.5 529.4082,-589.5 529.4082,-595.5 529.4082,-595.5 529.4082,-607.5 529.4082,-607.5 529.4082,-613.5 523.4082,-619.5 517.4082,-619.5 517.4082,-619.5 369.528,-619.5 369.528,-619.5 363.528,-619.5 357.528,-613.5 357.528,-607.5 357.528,-607.5 357.528,-595.5 357.528,-595.5 357.528,-589.5 363.528,-583.5 369.528,-583.5"/>
<text text-anchor="middle" x="443.4681" y="-597.3" font-family="lato, roboto, helvetica" font-size="14.00" fill="#eeeeee">Krijg Edelsteen Van Dwerg</text>
</g>
<!-- geef_dwerg_eten&#45;&gt;krijg_edelsteen_van_dwerg -->
<g id="edge39" class="edge">
<title>geef_dwerg_eten&#45;&gt;krijg_edelsteen_van_dwerg</title>
<path fill="none" stroke="#999999" d="M443.4681,-656.4551C443.4681,-647.7686 443.4681,-637.1898 443.4681,-627.642"/>
<polygon fill="#999999" stroke="#999999" points="446.2682,-627.5903 443.4681,-619.5904 440.6682,-627.5904 446.2682,-627.5903"/>
</g>
<!-- praat_met_dwerg&#45;&gt;geef_dwerg_eten -->
<g id="edge15" class="edge">
<title>praat_met_dwerg&#45;&gt;geef_dwerg_eten</title>
<path fill="none" stroke="#999999" d="M370.4681,-1532.062C370.4681,-1504.3663 370.4681,-1450.3785 370.4681,-1404.5 370.4681,-1404.5 370.4681,-1404.5 370.4681,-820.5 370.4681,-778.9658 369.8198,-765.5928 389.4681,-729 395.6191,-717.5445 404.9308,-706.9009 414.0985,-698.1157"/>
<polygon fill="#999999" stroke="#999999" points="416.078,-700.0993 420.0675,-692.6211 412.2852,-695.9792 416.078,-700.0993"/>
</g>
<!-- krijg_kapotte_houweel_van_dwerg -->
<g id="node48" class="node">
<title>krijg_kapotte_houweel_van_dwerg</title>
<path fill="#008800" stroke="#008800" d="M138.5641,-1459.5C138.5641,-1459.5 330.3721,-1459.5 330.3721,-1459.5 336.3721,-1459.5 342.3721,-1465.5 342.3721,-1471.5 342.3721,-1471.5 342.3721,-1483.5 342.3721,-1483.5 342.3721,-1489.5 336.3721,-1495.5 330.3721,-1495.5 330.3721,-1495.5 138.5641,-1495.5 138.5641,-1495.5 132.5641,-1495.5 126.5641,-1489.5 126.5641,-1483.5 126.5641,-1483.5 126.5641,-1471.5 126.5641,-1471.5 126.5641,-1465.5 132.5641,-1459.5 138.5641,-1459.5"/>
<text text-anchor="middle" x="234.4681" y="-1473.3" font-family="lato, roboto, helvetica" font-size="14.00" fill="#eeeeee">Krijg Kapotte Houweel Van Dwerg</text>
</g>
<!-- praat_met_dwerg&#45;&gt;krijg_kapotte_houweel_van_dwerg -->
<g id="edge44" class="edge">
<title>praat_met_dwerg&#45;&gt;krijg_kapotte_houweel_van_dwerg</title>
<path fill="none" stroke="#999999" d="M336.8501,-1532.4551C318.2153,-1522.4525 294.9056,-1509.9407 275.2369,-1499.3833"/>
<polygon fill="#999999" stroke="#999999" points="276.5437,-1496.9069 268.1707,-1495.5904 273.8952,-1501.841 276.5437,-1496.9069"/>
</g>
<!-- koop_eten_bij_bakker -->
<g id="node26" class="node">
<title>koop_eten_bij_bakker</title>
<path fill="#008800" stroke="#008800" d="M410.0638,-729.5C410.0638,-729.5 526.8724,-729.5 526.8724,-729.5 532.8724,-729.5 538.8724,-735.5 538.8724,-741.5 538.8724,-741.5 538.8724,-753.5 538.8724,-753.5 538.8724,-759.5 532.8724,-765.5 526.8724,-765.5 526.8724,-765.5 410.0638,-765.5 410.0638,-765.5 404.0638,-765.5 398.0638,-759.5 398.0638,-753.5 398.0638,-753.5 398.0638,-741.5 398.0638,-741.5 398.0638,-735.5 404.0638,-729.5 410.0638,-729.5"/>
<text text-anchor="middle" x="468.4681" y="-743.3" font-family="lato, roboto, helvetica" font-size="14.00" fill="#eeeeee">Koop Eten Bij Bakker</text>
</g>
<!-- koop_eten_bij_bakker&#45;&gt;geef_dwerg_eten -->
<g id="edge16" class="edge">
<title>koop_eten_bij_bakker&#45;&gt;geef_dwerg_eten</title>
<path fill="none" stroke="#999999" d="M462.2883,-729.4551C459.2835,-720.6809 455.6174,-709.9759 452.3219,-700.353"/>
<polygon fill="#999999" stroke="#999999" points="454.9044,-699.2516 449.6634,-692.5904 449.6065,-701.066 454.9044,-699.2516"/>
</g>
<!-- geef_houweel_aan_dwerg -->
<g id="node27" class="node">
<title>geef_houweel_aan_dwerg</title>
<path fill="#008800" stroke="#008800" d="M176.6486,-1240.5C176.6486,-1240.5 318.2876,-1240.5 318.2876,-1240.5 324.2876,-1240.5 330.2876,-1246.5 330.2876,-1252.5 330.2876,-1252.5 330.2876,-1264.5 330.2876,-1264.5 330.2876,-1270.5 324.2876,-1276.5 318.2876,-1276.5 318.2876,-1276.5 176.6486,-1276.5 176.6486,-1276.5 170.6486,-1276.5 164.6486,-1270.5 164.6486,-1264.5 164.6486,-1264.5 164.6486,-1252.5 164.6486,-1252.5 164.6486,-1246.5 170.6486,-1240.5 176.6486,-1240.5"/>
<text text-anchor="middle" x="247.4681" y="-1254.3" font-family="lato, roboto, helvetica" font-size="14.00" fill="#eeeeee">Geef Houweel Aan Dwerg</text>
</g>
<!-- geef_houweel_aan_dwerg&#45;&gt;krijg_edelsteen_van_dwerg -->
<g id="edge40" class="edge">
<title>geef_houweel_aan_dwerg&#45;&gt;krijg_edelsteen_van_dwerg</title>
<path fill="none" stroke="#999999" d="M257.8597,-1240.2619C272.2432,-1213.255 296.4681,-1160.626 296.4681,-1112.5 296.4681,-1112.5 296.4681,-1112.5 296.4681,-747.5 296.4681,-689.9174 353.9531,-647.2587 397.0273,-623.3766"/>
<polygon fill="#999999" stroke="#999999" points="398.3713,-625.8331 404.0748,-619.5633 395.7062,-620.9079 398.3713,-625.8331"/>
</g>
<!-- repareer_houweel -->
<g id="node28" class="node">
<title>repareer_houweel</title>
<path fill="#008800" stroke="#008800" d="M186.1935,-1386.5C186.1935,-1386.5 282.7427,-1386.5 282.7427,-1386.5 288.7427,-1386.5 294.7427,-1392.5 294.7427,-1398.5 294.7427,-1398.5 294.7427,-1410.5 294.7427,-1410.5 294.7427,-1416.5 288.7427,-1422.5 282.7427,-1422.5 282.7427,-1422.5 186.1935,-1422.5 186.1935,-1422.5 180.1935,-1422.5 174.1935,-1416.5 174.1935,-1410.5 174.1935,-1410.5 174.1935,-1398.5 174.1935,-1398.5 174.1935,-1392.5 180.1935,-1386.5 186.1935,-1386.5"/>
<text text-anchor="middle" x="234.4681" y="-1400.3" font-family="lato, roboto, helvetica" font-size="14.00" fill="#eeeeee">Repareer Houweel</text>
</g>
<!-- repareer_houweel&#45;&gt;geef_houweel_aan_dwerg -->
<g id="edge17" class="edge">
<title>repareer_houweel&#45;&gt;geef_houweel_aan_dwerg</title>
<path fill="none" stroke="#999999" d="M236.0883,-1386.3042C238.3556,-1360.8403 242.4897,-1314.4108 245.1017,-1285.0759"/>
<polygon fill="#999999" stroke="#999999" points="247.9069,-1285.1419 245.8275,-1276.9251 242.3289,-1284.6452 247.9069,-1285.1419"/>
</g>
<!-- haal_wagen_bij_molenaar_met_paard -->
<g id="node36" class="node">
<title>haal_wagen_bij_molenaar_met_paard</title>
<path fill="#008800" stroke="#008800" d="M965.0932,-1240.5C965.0932,-1240.5 1165.843,-1240.5 1165.843,-1240.5 1171.843,-1240.5 1177.843,-1246.5 1177.843,-1252.5 1177.843,-1252.5 1177.843,-1264.5 1177.843,-1264.5 1177.843,-1270.5 1171.843,-1276.5 1165.843,-1276.5 1165.843,-1276.5 965.0932,-1276.5 965.0932,-1276.5 959.0932,-1276.5 953.0932,-1270.5 953.0932,-1264.5 953.0932,-1264.5 953.0932,-1252.5 953.0932,-1252.5 953.0932,-1246.5 959.0932,-1240.5 965.0932,-1240.5"/>
<text text-anchor="middle" x="1065.4681" y="-1254.3" font-family="lato, roboto, helvetica" font-size="14.00" fill="#eeeeee">Haal Wagen Bij Molenaar Met Paard</text>
</g>
<!-- geef_paard_nieuwe_hoefijzers&#45;&gt;haal_wagen_bij_molenaar_met_paard -->
<g id="edge26" class="edge">
<title>geef_paard_nieuwe_hoefijzers&#45;&gt;haal_wagen_bij_molenaar_met_paard</title>
<path fill="none" stroke="#999999" d="M1065.4681,-1313.4551C1065.4681,-1304.7686 1065.4681,-1294.1898 1065.4681,-1284.642"/>
<polygon fill="#999999" stroke="#999999" points="1068.2682,-1284.5903 1065.4681,-1276.5904 1062.6682,-1284.5904 1068.2682,-1284.5903"/>
</g>
<!-- geef_sieraad_aan_heks -->
<g id="node30" class="node">
<title>geef_sieraad_aan_heks</title>
<path fill="#3333aa" stroke="#3333aa" d="M1011.5876,-364.5C1011.5876,-364.5 1135.3486,-364.5 1135.3486,-364.5 1141.3486,-364.5 1147.3486,-370.5 1147.3486,-376.5 1147.3486,-376.5 1147.3486,-388.5 1147.3486,-388.5 1147.3486,-394.5 1141.3486,-400.5 1135.3486,-400.5 1135.3486,-400.5 1011.5876,-400.5 1011.5876,-400.5 1005.5876,-400.5 999.5876,-394.5 999.5876,-388.5 999.5876,-388.5 999.5876,-376.5 999.5876,-376.5 999.5876,-370.5 1005.5876,-364.5 1011.5876,-364.5"/>
<text text-anchor="middle" x="1073.4681" y="-378.3" font-family="lato, roboto, helvetica" font-size="14.00" fill="#eeeeee">Geef Sieraad Aan Heks</text>
</g>
<!-- krijg_ingredientenlijst_van_heks -->
<g id="node47" class="node">
<title>krijg_ingredientenlijst_van_heks</title>
<path fill="#3333aa" stroke="#3333aa" d="M1036.5238,-291.5C1036.5238,-291.5 1212.4124,-291.5 1212.4124,-291.5 1218.4124,-291.5 1224.4124,-297.5 1224.4124,-303.5 1224.4124,-303.5 1224.4124,-315.5 1224.4124,-315.5 1224.4124,-321.5 1218.4124,-327.5 1212.4124,-327.5 1212.4124,-327.5 1036.5238,-327.5 1036.5238,-327.5 1030.5238,-327.5 1024.5238,-321.5 1024.5238,-315.5 1024.5238,-315.5 1024.5238,-303.5 1024.5238,-303.5 1024.5238,-297.5 1030.5238,-291.5 1036.5238,-291.5"/>
<text text-anchor="middle" x="1124.4681" y="-305.3" font-family="lato, roboto, helvetica" font-size="14.00" fill="#eeeeee">Krijg Ingredientenlijst Van Heks</text>
</g>
<!-- geef_sieraad_aan_heks&#45;&gt;krijg_ingredientenlijst_van_heks -->
<g id="edge43" class="edge">
<title>geef_sieraad_aan_heks&#45;&gt;krijg_ingredientenlijst_van_heks</title>
<path fill="none" stroke="#999999" d="M1086.0748,-364.4551C1092.4499,-355.3299 1100.284,-344.1165 1107.2094,-334.2036"/>
<polygon fill="#999999" stroke="#999999" points="1109.5433,-335.752 1111.8296,-327.5904 1104.9526,-332.5449 1109.5433,-335.752"/>
</g>
<!-- praat_met_heks&#45;&gt;geef_sieraad_aan_heks -->
<g id="edge20" class="edge">
<title>praat_met_heks&#45;&gt;geef_sieraad_aan_heks</title>
<path fill="none" stroke="#999999" d="M1150.2546,-437.4551C1136.7689,-427.8035 1120.0187,-415.8156 1105.6073,-405.5016"/>
<polygon fill="#999999" stroke="#999999" points="1106.8802,-402.9694 1098.745,-400.5904 1103.621,-407.5233 1106.8802,-402.9694"/>
</g>
<!-- praat_met_heks&#45;&gt;krijg_ingredientenlijst_van_heks -->
<g id="edge42" class="edge">
<title>praat_met_heks&#45;&gt;krijg_ingredientenlijst_van_heks</title>
<path fill="none" stroke="#999999" d="M1173.4871,-437.4698C1171.0175,-418.652 1165.9194,-388.5252 1156.4681,-364 1152.6076,-353.9825 1147.0236,-343.6611 1141.5975,-334.7315"/>
<polygon fill="#999999" stroke="#999999" points="1143.9371,-333.192 1137.3156,-327.9009 1139.1923,-336.1664 1143.9371,-333.192"/>
</g>
<!-- maak_sieraad_bij_smid -->
<g id="node32" class="node">
<title>maak_sieraad_bij_smid</title>
<path fill="#3333aa" stroke="#3333aa" d="M758.9516,-510.5C758.9516,-510.5 881.9846,-510.5 881.9846,-510.5 887.9846,-510.5 893.9846,-516.5 893.9846,-522.5 893.9846,-522.5 893.9846,-534.5 893.9846,-534.5 893.9846,-540.5 887.9846,-546.5 881.9846,-546.5 881.9846,-546.5 758.9516,-546.5 758.9516,-546.5 752.9516,-546.5 746.9516,-540.5 746.9516,-534.5 746.9516,-534.5 746.9516,-522.5 746.9516,-522.5 746.9516,-516.5 752.9516,-510.5 758.9516,-510.5"/>
<text text-anchor="middle" x="820.4681" y="-524.3" font-family="lato, roboto, helvetica" font-size="14.00" fill="#eeeeee">Maak Sieraad Bij Smid</text>
</g>
<!-- maak_sieraad_bij_smid&#45;&gt;krijg_geldstuk_van_smid -->
<g id="edge41" class="edge">
<title>maak_sieraad_bij_smid&#45;&gt;krijg_geldstuk_van_smid</title>
<path fill="none" stroke="#999999" d="M867.9288,-510.4551C894.9291,-500.1893 928.8812,-487.2804 957.0934,-476.5539"/>
<polygon fill="#999999" stroke="#999999" points="958.4053,-479.0507 964.888,-473.5904 956.4151,-473.8163 958.4053,-479.0507"/>
</g>
<!-- maak_sieraad_bij_smid&#45;&gt;geef_sieraad_aan_heks -->
<g id="edge21" class="edge">
<title>maak_sieraad_bij_smid&#45;&gt;geef_sieraad_aan_heks</title>
<path fill="none" stroke="#999999" d="M836.7174,-510.4267C855.7776,-490.1561 889.1546,-457.4485 923.4681,-437 946.8716,-423.0531 974.4261,-411.7798 999.4901,-403.1838"/>
<polygon fill="#999999" stroke="#999999" points="1000.4882,-405.8023 1007.1813,-400.602 998.7061,-400.4934 1000.4882,-405.8023"/>
</g>
<!-- praat_met_smidsen&#45;&gt;genoeg_info_over_monster -->
<g id="edge23" class="edge">
<title>praat_met_smidsen&#45;&gt;genoeg_info_over_monster</title>
<path fill="none" stroke="#999999" d="M1301.5355,-948.4551C1336.292,-938.0138 1380.15,-924.8383 1416.2092,-914.0058"/>
<polygon fill="#999999" stroke="#999999" points="1417.3934,-916.5737 1424.2495,-911.5904 1415.7821,-911.2105 1417.3934,-916.5737"/>
</g>
<!-- krijg_schat_onderwerp -->
<g id="node53" class="node">
<title>krijg_schat_onderwerp</title>
<path fill="#008800" stroke="#008800" d="M803.1609,-875.5C803.1609,-875.5 925.7753,-875.5 925.7753,-875.5 931.7753,-875.5 937.7753,-881.5 937.7753,-887.5 937.7753,-887.5 937.7753,-899.5 937.7753,-899.5 937.7753,-905.5 931.7753,-911.5 925.7753,-911.5 925.7753,-911.5 803.1609,-911.5 803.1609,-911.5 797.1609,-911.5 791.1609,-905.5 791.1609,-899.5 791.1609,-899.5 791.1609,-887.5 791.1609,-887.5 791.1609,-881.5 797.1609,-875.5 803.1609,-875.5"/>
<text text-anchor="middle" x="864.4681" y="-889.3" font-family="lato, roboto, helvetica" font-size="14.00" fill="#eeeeee">Krijg Schat Onderwerp</text>
</g>
<!-- praat_met_smidsen&#45;&gt;krijg_schat_onderwerp -->
<g id="edge53" class="edge">
<title>praat_met_smidsen&#45;&gt;krijg_schat_onderwerp</title>
<path fill="none" stroke="#999999" d="M1179.7985,-951.5571C1174.2845,-950.3168 1168.7805,-949.1133 1163.4681,-948 1090.0734,-932.6183 1006.0191,-917.5184 945.7604,-907.1279"/>
<polygon fill="#999999" stroke="#999999" points="946.1498,-904.3539 937.7909,-905.7573 945.2005,-909.8728 946.1498,-904.3539"/>
</g>
<!-- praat_met_boer&#45;&gt;genoeg_info_over_monster -->
<g id="edge24" class="edge">
<title>praat_met_boer&#45;&gt;genoeg_info_over_monster</title>
<path fill="none" stroke="#999999" d="M1277.027,-1532.3934C1344.5916,-1504.093 1463.4681,-1448.1041 1463.4681,-1404.5 1463.4681,-1404.5 1463.4681,-1404.5 1463.4681,-1039.5 1463.4681,-997.3137 1472.1643,-948.9628 1478.3645,-919.8507"/>
<polygon fill="#999999" stroke="#999999" points="1481.1477,-920.2293 1480.1169,-911.8164 1475.6763,-919.0359 1481.1477,-920.2293"/>
</g>
<!-- praat_met_boer&#45;&gt;zet_graan_op_wagen -->
<g id="edge88" class="edge">
<title>praat_met_boer&#45;&gt;zet_graan_op_wagen</title>
<path fill="none" stroke="#999999" d="M1241.1875,-1532.4886C1256.5675,-1501.4261 1282.6985,-1436.2779 1261.4681,-1386 1252.5429,-1364.8633 1236.7692,-1369.3676 1224.4681,-1350 1196.7369,-1306.3384 1204.5991,-1288.442 1186.4681,-1240 1182.9271,-1230.5394 1178.8348,-1220.2454 1175.147,-1211.1775"/>
<polygon fill="#999999" stroke="#999999" points="1177.6572,-1209.9184 1172.0344,-1203.5761 1172.4748,-1212.0405 1177.6572,-1209.9184"/>
</g>
<!-- praat_met_boer&#45;&gt;vind_paard_bij_rivier -->
<g id="edge84" class="edge">
<title>praat_met_boer&#45;&gt;vind_paard_bij_rivier</title>
<path fill="none" stroke="#999999" d="M1217.3782,-1532.4551C1210.1846,-1523.2422 1201.3289,-1511.9006 1193.5342,-1501.918"/>
<polygon fill="#999999" stroke="#999999" points="1195.7239,-1500.1727 1188.5934,-1495.5904 1191.31,-1503.6191 1195.7239,-1500.1727"/>
</g>
<!-- praat_met_molenaar&#45;&gt;genoeg_info_over_monster -->
<g id="edge25" class="edge">
<title>praat_met_molenaar&#45;&gt;genoeg_info_over_monster</title>
<path fill="none" stroke="#999999" d="M1623.1267,-1167.0884C1609.187,-1136.5111 1580.0615,-1073.4301 1553.4681,-1021 1535.3339,-985.2476 1513.0548,-944.628 1498.8085,-919.0377"/>
<polygon fill="#999999" stroke="#999999" points="1501.1791,-917.5399 1494.8361,-911.9179 1496.2888,-920.2684 1501.1791,-917.5399"/>
</g>
<!-- haal_wagen_bij_molenaar_met_paard&#45;&gt;zet_graan_op_wagen -->
<g id="edge87" class="edge">
<title>haal_wagen_bij_molenaar_met_paard&#45;&gt;zet_graan_op_wagen</title>
<path fill="none" stroke="#999999" d="M1089.94,-1240.4551C1103.0291,-1230.8035 1119.2866,-1218.8156 1133.2742,-1208.5016"/>
<polygon fill="#999999" stroke="#999999" points="1135.1575,-1210.5918 1139.9346,-1203.5904 1131.834,-1206.0846 1135.1575,-1210.5918"/>
</g>
<!-- repareer_molen_met_onderbroek -->
<g id="node37" class="node">
<title>repareer_molen_met_onderbroek</title>
<path fill="#008800" stroke="#008800" d="M1244.9817,-1313.5C1244.9817,-1313.5 1423.9545,-1313.5 1423.9545,-1313.5 1429.9545,-1313.5 1435.9545,-1319.5 1435.9545,-1325.5 1435.9545,-1325.5 1435.9545,-1337.5 1435.9545,-1337.5 1435.9545,-1343.5 1429.9545,-1349.5 1423.9545,-1349.5 1423.9545,-1349.5 1244.9817,-1349.5 1244.9817,-1349.5 1238.9817,-1349.5 1232.9817,-1343.5 1232.9817,-1337.5 1232.9817,-1337.5 1232.9817,-1325.5 1232.9817,-1325.5 1232.9817,-1319.5 1238.9817,-1313.5 1244.9817,-1313.5"/>
<text text-anchor="middle" x="1334.4681" y="-1327.3" font-family="lato, roboto, helvetica" font-size="14.00" fill="#eeeeee">Repareer Molen Met Onderbroek</text>
</g>
<!-- repareer_molen_met_onderbroek&#45;&gt;krijg_meel_bij_molenaar -->
<g id="edge49" class="edge">
<title>repareer_molen_met_onderbroek&#45;&gt;krijg_meel_bij_molenaar</title>
<path fill="none" stroke="#999999" d="M1333.1769,-1313.3368C1329.2748,-1270.5727 1314.2478,-1162.0308 1259.4681,-1094 1248.6049,-1080.5091 1233.444,-1069.7185 1218.4194,-1061.4148"/>
<polygon fill="#999999" stroke="#999999" points="1219.4559,-1058.7958 1211.074,-1057.5372 1216.8416,-1063.7481 1219.4559,-1058.7958"/>
</g>
<!-- repareer_molen_met_onderbroek&#45;&gt;haal_wagen_bij_molenaar_met_paard -->
<g id="edge27" class="edge">
<title>repareer_molen_met_onderbroek&#45;&gt;haal_wagen_bij_molenaar_met_paard</title>
<path fill="none" stroke="#999999" d="M1267.9737,-1313.4551C1229.1751,-1302.9261 1180.1311,-1289.6167 1140.026,-1278.7332"/>
<polygon fill="#999999" stroke="#999999" points="1140.5839,-1275.9834 1132.1298,-1276.5904 1139.1172,-1281.3879 1140.5839,-1275.9834"/>
</g>
<!-- hijs_lift_met_molensteen -->
<g id="node38" class="node">
<title>hijs_lift_met_molensteen</title>
<path fill="#3333aa" stroke="#3333aa" d="M1358.1227,-510.5C1358.1227,-510.5 1492.8135,-510.5 1492.8135,-510.5 1498.8135,-510.5 1504.8135,-516.5 1504.8135,-522.5 1504.8135,-522.5 1504.8135,-534.5 1504.8135,-534.5 1504.8135,-540.5 1498.8135,-546.5 1492.8135,-546.5 1492.8135,-546.5 1358.1227,-546.5 1358.1227,-546.5 1352.1227,-546.5 1346.1227,-540.5 1346.1227,-534.5 1346.1227,-534.5 1346.1227,-522.5 1346.1227,-522.5 1346.1227,-516.5 1352.1227,-510.5 1358.1227,-510.5"/>
<text text-anchor="middle" x="1425.4681" y="-524.3" font-family="lato, roboto, helvetica" font-size="14.00" fill="#eeeeee">Hijs Lift Met Molensteen</text>
</g>
<!-- knoop_touw_aan_molensteen -->
<g id="node40" class="node">
<title>knoop_touw_aan_molensteen</title>
<path fill="#3333aa" stroke="#3333aa" d="M1387.5175,-437.5C1387.5175,-437.5 1549.4187,-437.5 1549.4187,-437.5 1555.4187,-437.5 1561.4187,-443.5 1561.4187,-449.5 1561.4187,-449.5 1561.4187,-461.5 1561.4187,-461.5 1561.4187,-467.5 1555.4187,-473.5 1549.4187,-473.5 1549.4187,-473.5 1387.5175,-473.5 1387.5175,-473.5 1381.5175,-473.5 1375.5175,-467.5 1375.5175,-461.5 1375.5175,-461.5 1375.5175,-449.5 1375.5175,-449.5 1375.5175,-443.5 1381.5175,-437.5 1387.5175,-437.5"/>
<text text-anchor="middle" x="1468.4681" y="-451.3" font-family="lato, roboto, helvetica" font-size="14.00" fill="#eeeeee">Knoop Touw Aan Molensteen</text>
</g>
<!-- hijs_lift_met_molensteen&#45;&gt;knoop_touw_aan_molensteen -->
<g id="edge30" class="edge">
<title>hijs_lift_met_molensteen&#45;&gt;knoop_touw_aan_molensteen</title>
<path fill="none" stroke="#999999" d="M1436.0973,-510.4551C1441.4207,-501.4177 1447.9507,-490.3319 1453.748,-480.4899"/>
<polygon fill="#999999" stroke="#999999" points="1456.1644,-481.9045 1457.8121,-473.5904 1451.3392,-479.0623 1456.1644,-481.9045"/>
</g>
<!-- hijs_lift_met_molensteen&#45;&gt;snij_touw_van_lift -->
<g id="edge79" class="edge">
<title>hijs_lift_met_molensteen&#45;&gt;snij_touw_van_lift</title>
<path fill="none" stroke="#999999" d="M1397.3404,-510.4828C1385.4562,-501.1809 1372.8971,-488.6909 1366.4681,-474 1357.4167,-453.3169 1359.6364,-427.4293 1363.4088,-408.4732"/>
<polygon fill="#999999" stroke="#999999" points="1366.167,-408.9675 1365.154,-400.5523 1360.6981,-407.7624 1366.167,-408.9675"/>
</g>
<!-- leg_molensteen_op_lift&#45;&gt;hijs_lift_met_molensteen -->
<g id="edge28" class="edge">
<title>leg_molensteen_op_lift&#45;&gt;hijs_lift_met_molensteen</title>
<path fill="none" stroke="#999999" d="M1425.4681,-583.4551C1425.4681,-574.7686 1425.4681,-564.1898 1425.4681,-554.642"/>
<polygon fill="#999999" stroke="#999999" points="1428.2682,-554.5903 1425.4681,-546.5904 1422.6682,-554.5904 1428.2682,-554.5903"/>
</g>
<!-- knoop_touw_aan_molensteen&#45;&gt;snij_touw_van_lift -->
<g id="edge77" class="edge">
<title>knoop_touw_aan_molensteen&#45;&gt;snij_touw_van_lift</title>
<path fill="none" stroke="#999999" d="M1444.2434,-437.4551C1431.2865,-427.8035 1415.1932,-415.8156 1401.3469,-405.5016"/>
<polygon fill="#999999" stroke="#999999" points="1402.8422,-403.1239 1394.7538,-400.5904 1399.4968,-407.6149 1402.8422,-403.1239"/>
</g>
<!-- pak_touw_op_boerderij&#45;&gt;knoop_touw_aan_molensteen -->
<g id="edge29" class="edge">
<title>pak_touw_op_boerderij&#45;&gt;knoop_touw_aan_molensteen</title>
<path fill="none" stroke="#999999" d="M1608.4906,-510.4551C1582.334,-500.1893 1549.4429,-487.2804 1522.1123,-476.5539"/>
<polygon fill="#999999" stroke="#999999" points="1523.0313,-473.9067 1514.5613,-473.5904 1520.9854,-479.1196 1523.0313,-473.9067"/>
</g>
<!-- knoop_touw_aan_tand -->
<g id="node42" class="node">
<title>knoop_touw_aan_tand</title>
<path fill="#3333aa" stroke="#3333aa" d="M1591.791,-437.5C1591.791,-437.5 1717.1452,-437.5 1717.1452,-437.5 1723.1452,-437.5 1729.1452,-443.5 1729.1452,-449.5 1729.1452,-449.5 1729.1452,-461.5 1729.1452,-461.5 1729.1452,-467.5 1723.1452,-473.5 1717.1452,-473.5 1717.1452,-473.5 1591.791,-473.5 1591.791,-473.5 1585.791,-473.5 1579.791,-467.5 1579.791,-461.5 1579.791,-461.5 1579.791,-449.5 1579.791,-449.5 1579.791,-443.5 1585.791,-437.5 1591.791,-437.5"/>
<text text-anchor="middle" x="1654.4681" y="-451.3" font-family="lato, roboto, helvetica" font-size="14.00" fill="#eeeeee">Knoop Touw Aan Tand</text>
</g>
<!-- pak_touw_op_boerderij&#45;&gt;knoop_touw_aan_tand -->
<g id="edge31" class="edge">
<title>pak_touw_op_boerderij&#45;&gt;knoop_touw_aan_tand</title>
<path fill="none" stroke="#999999" d="M1654.4681,-510.4551C1654.4681,-501.7686 1654.4681,-491.1898 1654.4681,-481.642"/>
<polygon fill="#999999" stroke="#999999" points="1657.2682,-481.5903 1654.4681,-473.5904 1651.6682,-481.5904 1657.2682,-481.5903"/>
</g>
<!-- knoop_touw_aan_tand&#45;&gt;snij_touw_van_lift -->
<g id="edge78" class="edge">
<title>knoop_touw_aan_tand&#45;&gt;snij_touw_van_lift</title>
<path fill="none" stroke="#999999" d="M1584.2658,-437.4551C1540.8136,-426.286 1485.1894,-411.9882 1441.5705,-400.7763"/>
<polygon fill="#999999" stroke="#999999" points="1442.0165,-398 1433.5713,-398.7202 1440.6223,-403.4237 1442.0165,-398"/>
</g>
<!-- _1&#45;&gt;koop_eten_bij_bakker -->
<g id="edge32" class="edge">
<title>_1&#45;&gt;koop_eten_bij_bakker</title>
<path fill="none" stroke="#999999" d="M435.9918,-806.7693C441.227,-797.2151 448.361,-784.1954 454.6094,-772.792"/>
<polygon fill="#999999" stroke="#999999" points="457.17,-773.9458 458.5588,-765.5845 452.2589,-771.2548 457.17,-773.9458"/>
</g>
<!-- krijg_100_geld_van_meel&#45;&gt;koop_zwaard_voor_99_bij_wapensmid -->
<g id="edge35" class="edge">
<title>krijg_100_geld_van_meel&#45;&gt;koop_zwaard_voor_99_bij_wapensmid</title>
<path fill="none" stroke="#999999" d="M773.4452,-876.4315C776.487,-875.9235 779.5026,-875.4437 782.4681,-875 941.9595,-851.1351 1127.3732,-836.0607 1247.1465,-827.9603"/>
<polygon fill="#999999" stroke="#999999" points="1247.5032,-830.7428 1255.2976,-827.413 1247.1279,-825.1553 1247.5032,-830.7428"/>
</g>
<!-- krijg_100_geld_van_meel&#45;&gt;_1 -->
<g id="edge34" class="edge">
<title>krijg_100_geld_van_meel&#45;&gt;_1</title>
<path fill="none" stroke="#999999" stroke-dasharray="5,2" d="M613.3366,-878.3891C569.5924,-869.095 514.8445,-855.747 467.4681,-839 462.3677,-837.1971 457.0426,-834.9399 452.0252,-832.628"/>
<polygon fill="#999999" stroke="#999999" points="452.8949,-829.9399 444.4705,-829.0075 450.4747,-834.99 452.8949,-829.9399"/>
</g>
<!-- krijg_appel_taart_van_bakker&#45;&gt;zet_zadel_op_draak -->
<g id="edge91" class="edge">
<title>krijg_appel_taart_van_bakker&#45;&gt;zet_zadel_op_draak</title>
<path fill="none" stroke="#999999" d="M1462.3108,-145.4551C1445.8875,-135.628 1425.4165,-123.3789 1407.9717,-112.9407"/>
<polygon fill="#999999" stroke="#999999" points="1409.0039,-110.2954 1400.7013,-108.5904 1406.1285,-115.1008 1409.0039,-110.2954"/>
</g>
<!-- krijg_edelsteen_van_dwerg&#45;&gt;maak_sieraad_bij_smid -->
<g id="edge56" class="edge">
<title>krijg_edelsteen_van_dwerg&#45;&gt;maak_sieraad_bij_smid</title>
<path fill="none" stroke="#999999" d="M529.487,-584.8438C592.2975,-572.6816 676.9189,-556.296 738.7115,-544.3309"/>
<polygon fill="#999999" stroke="#999999" points="739.5707,-547.0166 746.8925,-542.7467 738.5061,-541.5187 739.5707,-547.0166"/>
</g>
<!-- krijg_ingredientenlijst_van_heks&#45;&gt;pak_tand_van_draak -->
<g id="edge59" class="edge">
<title>krijg_ingredientenlijst_van_heks&#45;&gt;pak_tand_van_draak</title>
<path fill="none" stroke="#999999" d="M1161.794,-291.4551C1182.6656,-281.3648 1208.8192,-268.721 1230.7765,-258.1059"/>
<polygon fill="#999999" stroke="#999999" points="1232.0645,-260.5933 1238.0483,-254.5904 1229.6271,-255.5515 1232.0645,-260.5933"/>
</g>
<!-- pluk_kruiden_in_bos -->
<g id="node50" class="node">
<title>pluk_kruiden_in_bos</title>
<path fill="#3333aa" stroke="#3333aa" d="M1070.7244,-218.5C1070.7244,-218.5 1178.2118,-218.5 1178.2118,-218.5 1184.2118,-218.5 1190.2118,-224.5 1190.2118,-230.5 1190.2118,-230.5 1190.2118,-242.5 1190.2118,-242.5 1190.2118,-248.5 1184.2118,-254.5 1178.2118,-254.5 1178.2118,-254.5 1070.7244,-254.5 1070.7244,-254.5 1064.7244,-254.5 1058.7244,-248.5 1058.7244,-242.5 1058.7244,-242.5 1058.7244,-230.5 1058.7244,-230.5 1058.7244,-224.5 1064.7244,-218.5 1070.7244,-218.5"/>
<text text-anchor="middle" x="1124.4681" y="-232.3" font-family="lato, roboto, helvetica" font-size="14.00" fill="#eeeeee">Pluk Kruiden In Bos</text>
</g>
<!-- krijg_ingredientenlijst_van_heks&#45;&gt;pluk_kruiden_in_bos -->
<g id="edge62" class="edge">
<title>krijg_ingredientenlijst_van_heks&#45;&gt;pluk_kruiden_in_bos</title>
<path fill="none" stroke="#999999" d="M1124.4681,-291.4551C1124.4681,-282.7686 1124.4681,-272.1898 1124.4681,-262.642"/>
<polygon fill="#999999" stroke="#999999" points="1127.2682,-262.5903 1124.4681,-254.5904 1121.6682,-262.5904 1127.2682,-262.5903"/>
</g>
<!-- pluk_paddenstoelen_in_woud -->
<g id="node51" class="node">
<title>pluk_paddenstoelen_in_woud</title>
<path fill="#3333aa" stroke="#3333aa" d="M874.0105,-218.5C874.0105,-218.5 1028.9257,-218.5 1028.9257,-218.5 1034.9257,-218.5 1040.9257,-224.5 1040.9257,-230.5 1040.9257,-230.5 1040.9257,-242.5 1040.9257,-242.5 1040.9257,-248.5 1034.9257,-254.5 1028.9257,-254.5 1028.9257,-254.5 874.0105,-254.5 874.0105,-254.5 868.0105,-254.5 862.0105,-248.5 862.0105,-242.5 862.0105,-242.5 862.0105,-230.5 862.0105,-230.5 862.0105,-224.5 868.0105,-218.5 874.0105,-218.5"/>
<text text-anchor="middle" x="951.4681" y="-232.3" font-family="lato, roboto, helvetica" font-size="14.00" fill="#eeeeee">Pluk Paddenstoelen In Woud</text>
</g>
<!-- krijg_ingredientenlijst_van_heks&#45;&gt;pluk_paddenstoelen_in_woud -->
<g id="edge63" class="edge">
<title>krijg_ingredientenlijst_van_heks&#45;&gt;pluk_paddenstoelen_in_woud</title>
<path fill="none" stroke="#999999" d="M1081.704,-291.4551C1057.5836,-281.277 1027.3059,-268.5009 1002.0159,-257.8294"/>
<polygon fill="#999999" stroke="#999999" points="1002.799,-255.1208 994.3398,-254.5904 1000.6219,-260.2803 1002.799,-255.1208"/>
</g>
<!-- krijg_kapotte_houweel_van_dwerg&#45;&gt;repareer_houweel -->
<g id="edge72" class="edge">
<title>krijg_kapotte_houweel_van_dwerg&#45;&gt;repareer_houweel</title>
<path fill="none" stroke="#999999" d="M234.4681,-1459.4551C234.4681,-1450.7686 234.4681,-1440.1898 234.4681,-1430.642"/>
<polygon fill="#999999" stroke="#999999" points="237.2682,-1430.5903 234.4681,-1422.5904 231.6682,-1430.5904 237.2682,-1430.5903"/>
</g>
<!-- pak_tand_van_draak&#45;&gt;krijg_medicijn_van_heks -->
<g id="edge45" class="edge">
<title>pak_tand_van_draak&#45;&gt;krijg_medicijn_van_heks</title>
<path fill="none" stroke="#999999" d="M1255.4456,-218.4551C1244.9311,-208.979 1231.9176,-197.2508 1220.6165,-187.0658"/>
<polygon fill="#999999" stroke="#999999" points="1222.3582,-184.8662 1214.541,-181.5904 1218.6092,-189.0261 1222.3582,-184.8662"/>
</g>
<!-- pluk_kruiden_in_bos&#45;&gt;krijg_medicijn_van_heks -->
<g id="edge46" class="edge">
<title>pluk_kruiden_in_bos&#45;&gt;krijg_medicijn_van_heks</title>
<path fill="none" stroke="#999999" d="M1141.7715,-218.4551C1150.6899,-209.1545 1161.6885,-197.6844 1171.3267,-187.6332"/>
<polygon fill="#999999" stroke="#999999" points="1173.6052,-189.3026 1177.1212,-181.5904 1169.5632,-185.4267 1173.6052,-189.3026"/>
</g>
<!-- pluk_paddenstoelen_in_woud&#45;&gt;krijg_medicijn_van_heks -->
<g id="edge47" class="edge">
<title>pluk_paddenstoelen_in_woud&#45;&gt;krijg_medicijn_van_heks</title>
<path fill="none" stroke="#999999" d="M1011.5355,-218.4551C1046.292,-208.0138 1090.15,-194.8383 1126.2092,-184.0058"/>
<polygon fill="#999999" stroke="#999999" points="1127.3934,-186.5737 1134.2495,-181.5904 1125.7821,-181.2105 1127.3934,-186.5737"/>
</g>
<!-- krijg_plant_hint_van_bakker -->
<g id="node52" class="node">
<title>krijg_plant_hint_van_bakker</title>
<path fill="#008800" stroke="#008800" d="M487.987,-802.5C487.987,-802.5 640.9492,-802.5 640.9492,-802.5 646.9492,-802.5 652.9492,-808.5 652.9492,-814.5 652.9492,-814.5 652.9492,-826.5 652.9492,-826.5 652.9492,-832.5 646.9492,-838.5 640.9492,-838.5 640.9492,-838.5 487.987,-838.5 487.987,-838.5 481.987,-838.5 475.987,-832.5 475.987,-826.5 475.987,-826.5 475.987,-814.5 475.987,-814.5 475.987,-808.5 481.987,-802.5 487.987,-802.5"/>
<text text-anchor="middle" x="564.4681" y="-816.3" font-family="lato, roboto, helvetica" font-size="14.00" fill="#eeeeee">Krijg Plant Hint Van Bakker</text>
</g>
<!-- vind_maansteen_in_moeras -->
<g id="node63" class="node">
<title>vind_maansteen_in_moeras</title>
<path fill="#008800" stroke="#008800" d="M572.0806,-729.5C572.0806,-729.5 716.8556,-729.5 716.8556,-729.5 722.8556,-729.5 728.8556,-735.5 728.8556,-741.5 728.8556,-741.5 728.8556,-753.5 728.8556,-753.5 728.8556,-759.5 722.8556,-765.5 716.8556,-765.5 716.8556,-765.5 572.0806,-765.5 572.0806,-765.5 566.0806,-765.5 560.0806,-759.5 560.0806,-753.5 560.0806,-753.5 560.0806,-741.5 560.0806,-741.5 560.0806,-735.5 566.0806,-729.5 572.0806,-729.5"/>
<text text-anchor="middle" x="644.4681" y="-743.3" font-family="lato, roboto, helvetica" font-size="14.00" fill="#eeeeee">Vind Maansteen In Moeras</text>
</g>
<!-- krijg_plant_hint_van_bakker&#45;&gt;vind_maansteen_in_moeras -->
<g id="edge82" class="edge">
<title>krijg_plant_hint_van_bakker&#45;&gt;vind_maansteen_in_moeras</title>
<path fill="none" stroke="#999999" d="M584.2434,-802.4551C594.6281,-792.979 607.4809,-781.2508 618.6426,-771.0658"/>
<polygon fill="#999999" stroke="#999999" points="620.6209,-773.0511 624.643,-765.5904 616.8462,-768.9145 620.6209,-773.0511"/>
</g>
<!-- krijg_schat_onderwerp&#45;&gt;krijg_plant_hint_van_bakker -->
<g id="edge50" class="edge">
<title>krijg_schat_onderwerp&#45;&gt;krijg_plant_hint_van_bakker</title>
<path fill="none" stroke="#999999" d="M791.0798,-875.6422C747.3878,-865.0105 691.8413,-851.4941 646.6779,-840.5044"/>
<polygon fill="#999999" stroke="#999999" points="647.0953,-837.7243 638.66,-838.5534 645.7712,-843.1655 647.0953,-837.7243"/>
</g>
<!-- krijg_rivier_hint_van_molenaar -->
<g id="node54" class="node">
<title>krijg_rivier_hint_van_molenaar</title>
<path fill="#008800" stroke="#008800" d="M869.2731,-802.5C869.2731,-802.5 1041.6631,-802.5 1041.6631,-802.5 1047.6631,-802.5 1053.6631,-808.5 1053.6631,-814.5 1053.6631,-814.5 1053.6631,-826.5 1053.6631,-826.5 1053.6631,-832.5 1047.6631,-838.5 1041.6631,-838.5 1041.6631,-838.5 869.2731,-838.5 869.2731,-838.5 863.2731,-838.5 857.2731,-832.5 857.2731,-826.5 857.2731,-826.5 857.2731,-814.5 857.2731,-814.5 857.2731,-808.5 863.2731,-802.5 869.2731,-802.5"/>
<text text-anchor="middle" x="955.4681" y="-816.3" font-family="lato, roboto, helvetica" font-size="14.00" fill="#eeeeee">Krijg Rivier Hint Van Molenaar</text>
</g>
<!-- krijg_schat_onderwerp&#45;&gt;krijg_rivier_hint_van_molenaar -->
<g id="edge51" class="edge">
<title>krijg_schat_onderwerp&#45;&gt;krijg_rivier_hint_van_molenaar</title>
<path fill="none" stroke="#999999" d="M886.9625,-875.4551C898.8845,-865.8912 913.6662,-854.0334 926.4437,-843.7833"/>
<polygon fill="#999999" stroke="#999999" points="928.4289,-845.7804 932.9171,-838.5904 924.9247,-841.4122 928.4289,-845.7804"/>
</g>
<!-- krijg_route_hint_van_boer -->
<g id="node55" class="node">
<title>krijg_route_hint_van_boer</title>
<path fill="#008800" stroke="#008800" d="M683.2626,-802.5C683.2626,-802.5 827.6736,-802.5 827.6736,-802.5 833.6736,-802.5 839.6736,-808.5 839.6736,-814.5 839.6736,-814.5 839.6736,-826.5 839.6736,-826.5 839.6736,-832.5 833.6736,-838.5 827.6736,-838.5 827.6736,-838.5 683.2626,-838.5 683.2626,-838.5 677.2626,-838.5 671.2626,-832.5 671.2626,-826.5 671.2626,-826.5 671.2626,-814.5 671.2626,-814.5 671.2626,-808.5 677.2626,-802.5 683.2626,-802.5"/>
<text text-anchor="middle" x="755.4681" y="-816.3" font-family="lato, roboto, helvetica" font-size="14.00" fill="#eeeeee">Krijg Route Hint Van Boer</text>
</g>
<!-- krijg_schat_onderwerp&#45;&gt;krijg_route_hint_van_boer -->
<g id="edge52" class="edge">
<title>krijg_schat_onderwerp&#45;&gt;krijg_route_hint_van_boer</title>
<path fill="none" stroke="#999999" d="M837.5243,-875.4551C822.982,-865.7157 804.8876,-853.5975 789.3936,-843.2207"/>
<polygon fill="#999999" stroke="#999999" points="790.6849,-840.7156 782.4797,-838.5904 787.5687,-845.3685 790.6849,-840.7156"/>
</g>
<!-- schat_route_compleet -->
<g id="node60" class="node">
<title>schat_route_compleet</title>
<path fill="#008800" stroke="#008800" d="M760.4772,-729.5C760.4772,-729.5 878.459,-729.5 878.459,-729.5 884.459,-729.5 890.459,-735.5 890.459,-741.5 890.459,-741.5 890.459,-753.5 890.459,-753.5 890.459,-759.5 884.459,-765.5 878.459,-765.5 878.459,-765.5 760.4772,-765.5 760.4772,-765.5 754.4772,-765.5 748.4772,-759.5 748.4772,-753.5 748.4772,-753.5 748.4772,-741.5 748.4772,-741.5 748.4772,-735.5 754.4772,-729.5 760.4772,-729.5"/>
<text text-anchor="middle" x="819.4681" y="-743.3" font-family="lato, roboto, helvetica" font-size="14.00" fill="#eeeeee">Schat Route Compleet</text>
</g>
<!-- krijg_rivier_hint_van_molenaar&#45;&gt;schat_route_compleet -->
<g id="edge74" class="edge">
<title>krijg_rivier_hint_van_molenaar&#45;&gt;schat_route_compleet</title>
<path fill="none" stroke="#999999" d="M921.8501,-802.4551C903.2153,-792.4525 879.9056,-779.9407 860.2369,-769.3833"/>
<polygon fill="#999999" stroke="#999999" points="861.5437,-766.9069 853.1707,-765.5904 858.8952,-771.841 861.5437,-766.9069"/>
</g>
<!-- krijg_route_hint_van_boer&#45;&gt;schat_route_compleet -->
<g id="edge75" class="edge">
<title>krijg_route_hint_van_boer&#45;&gt;schat_route_compleet</title>
<path fill="none" stroke="#999999" d="M771.2883,-802.4551C779.4423,-793.1545 789.4982,-781.6844 798.3102,-771.6332"/>
<polygon fill="#999999" stroke="#999999" points="800.4396,-773.4518 803.6081,-765.5904 796.2287,-769.76 800.4396,-773.4518"/>
</g>
<!-- praat_met_dochter_van_bakker&#45;&gt;leg_molensteen_op_lift -->
<g id="edge55" class="edge">
<title>praat_met_dochter_van_bakker&#45;&gt;leg_molensteen_op_lift</title>
<path fill="none" stroke="#999999" d="M1566.2434,-656.4551C1539.9462,-646.1893 1506.8783,-633.2804 1479.4007,-622.5539"/>
<polygon fill="#999999" stroke="#999999" points="1480.2797,-619.8913 1471.8092,-619.5904 1478.2432,-625.1079 1480.2797,-619.8913"/>
</g>
<!-- vind_goud_in_bos -->
<g id="node57" class="node">
<title>vind_goud_in_bos</title>
<path fill="#3333aa" stroke="#3333aa" d="M771.9453,-583.5C771.9453,-583.5 866.9909,-583.5 866.9909,-583.5 872.9909,-583.5 878.9909,-589.5 878.9909,-595.5 878.9909,-595.5 878.9909,-607.5 878.9909,-607.5 878.9909,-613.5 872.9909,-619.5 866.9909,-619.5 866.9909,-619.5 771.9453,-619.5 771.9453,-619.5 765.9453,-619.5 759.9453,-613.5 759.9453,-607.5 759.9453,-607.5 759.9453,-595.5 759.9453,-595.5 759.9453,-589.5 765.9453,-583.5 771.9453,-583.5"/>
<text text-anchor="middle" x="819.4681" y="-597.3" font-family="lato, roboto, helvetica" font-size="14.00" fill="#eeeeee">Vind Goud In Bos</text>
</g>
<!-- vind_goud_in_bos&#45;&gt;maak_sieraad_bij_smid -->
<g id="edge57" class="edge">
<title>vind_goud_in_bos&#45;&gt;maak_sieraad_bij_smid</title>
<path fill="none" stroke="#999999" d="M819.7153,-583.4551C819.8343,-574.7686 819.9792,-564.1898 820.11,-554.642"/>
<polygon fill="#999999" stroke="#999999" points="822.9103,-554.628 820.2203,-546.5904 817.3109,-554.5512 822.9103,-554.628"/>
</g>
<!-- pak_hout_in_bos&#45;&gt;repareer_houweel -->
<g id="edge71" class="edge">
<title>pak_hout_in_bos&#45;&gt;repareer_houweel</title>
<path fill="none" stroke="#999999" d="M98.9625,-1459.4551C124.1671,-1449.2332 155.8334,-1436.3907 182.215,-1425.6916"/>
<polygon fill="#999999" stroke="#999999" points="183.5005,-1428.1918 189.8617,-1422.5904 181.3959,-1423.0023 183.5005,-1428.1918"/>
</g>
<!-- vind_onderbroek_bij_rivier&#45;&gt;repareer_molen_met_onderbroek -->
<g id="edge73" class="edge">
<title>vind_onderbroek_bij_rivier&#45;&gt;repareer_molen_met_onderbroek</title>
<path fill="none" stroke="#999999" d="M1382.124,-1532.2049C1372.8864,-1493.3001 1351.2682,-1402.2544 1340.6186,-1357.4032"/>
<polygon fill="#999999" stroke="#999999" points="1343.3357,-1356.7258 1338.7632,-1349.589 1337.8872,-1358.0195 1343.3357,-1356.7258"/>
</g>
<!-- volg_maansteen_route -->
<g id="node62" class="node">
<title>volg_maansteen_route</title>
<path fill="#3333aa" stroke="#3333aa" d="M758.9295,-656.5C758.9295,-656.5 880.0067,-656.5 880.0067,-656.5 886.0067,-656.5 892.0067,-662.5 892.0067,-668.5 892.0067,-668.5 892.0067,-680.5 892.0067,-680.5 892.0067,-686.5 886.0067,-692.5 880.0067,-692.5 880.0067,-692.5 758.9295,-692.5 758.9295,-692.5 752.9295,-692.5 746.9295,-686.5 746.9295,-680.5 746.9295,-680.5 746.9295,-668.5 746.9295,-668.5 746.9295,-662.5 752.9295,-656.5 758.9295,-656.5"/>
<text text-anchor="middle" x="819.4681" y="-670.3" font-family="lato, roboto, helvetica" font-size="14.00" fill="#eeeeee">Volg Maansteen Route</text>
</g>
<!-- schat_route_compleet&#45;&gt;volg_maansteen_route -->
<g id="edge86" class="edge">
<title>schat_route_compleet&#45;&gt;volg_maansteen_route</title>
<path fill="none" stroke="#999999" d="M819.4681,-729.4551C819.4681,-720.7686 819.4681,-710.1898 819.4681,-700.642"/>
<polygon fill="#999999" stroke="#999999" points="822.2682,-700.5903 819.4681,-692.5904 816.6682,-700.5904 822.2682,-700.5903"/>
</g>
<!-- snij_touw_van_lift&#45;&gt;trek_tand_van_draak -->
<g id="edge80" class="edge">
<title>snij_touw_van_lift&#45;&gt;trek_tand_van_draak</title>
<path fill="none" stroke="#999999" d="M1370.4681,-364.4551C1370.4681,-355.7686 1370.4681,-345.1898 1370.4681,-335.642"/>
<polygon fill="#999999" stroke="#999999" points="1373.2682,-335.5903 1370.4681,-327.5904 1367.6682,-335.5904 1373.2682,-335.5903"/>
</g>
<!-- volg_maansteen_route&#45;&gt;vind_goud_in_bos -->
<g id="edge81" class="edge">
<title>volg_maansteen_route&#45;&gt;vind_goud_in_bos</title>
<path fill="none" stroke="#999999" d="M819.4681,-656.4551C819.4681,-647.7686 819.4681,-637.1898 819.4681,-627.642"/>
<polygon fill="#999999" stroke="#999999" points="822.2682,-627.5903 819.4681,-619.5904 816.6682,-627.5904 822.2682,-627.5903"/>
</g>
<!-- vind_maansteen_in_moeras&#45;&gt;volg_maansteen_route -->
<g id="edge85" class="edge">
<title>vind_maansteen_in_moeras&#45;&gt;volg_maansteen_route</title>
<path fill="none" stroke="#999999" d="M687.7265,-729.4551C712.2311,-719.2332 743.0177,-706.3907 768.6664,-695.6916"/>
<polygon fill="#999999" stroke="#999999" points="769.7954,-698.2545 776.1008,-692.5904 767.6394,-693.0862 769.7954,-698.2545"/>
</g>
</g>
</svg>
