<?xml version="1.0" encoding="UTF-8" standalone="no"?>
<!DOCTYPE svg PUBLIC "-//W3C//DTD SVG 1.1//EN"
 "http://www.w3.org/Graphics/SVG/1.1/DTD/svg11.dtd">
<!-- Generated by graphviz version 2.40.1 (20161225.0304)
 -->
<!-- Title: G Pages: 1 -->
<svg width="1163pt" height="1316pt"
 viewBox="0.00 0.00 1163.13 1316.00" xmlns="http://www.w3.org/2000/svg" xmlns:xlink="http://www.w3.org/1999/xlink">
<g id="graph0" class="graph" transform="scale(1 1) rotate(0) translate(4 1312)">
<title>G</title>
<polygon fill="#ffffff" stroke="transparent" points="-4,4 -4,-1312 1159.1347,-1312 1159.1347,4 -4,4"/>
<text text-anchor="middle" x="577.5674" y="-1286" font-family="lato, roboto, helvetica" font-size="20.00" fill="#000000">Avontuur</text>
<!-- START -->
<g id="node1" class="node">
<title>START</title>
<polygon fill="#333333" stroke="#333333" points="526.4576,-1276 467.7516,-1258 526.4576,-1240 585.1636,-1258 526.4576,-1276"/>
<polyline fill="none" stroke="#333333" points="479.2244,-1261.5177 479.2244,-1254.4823 "/>
<polyline fill="none" stroke="#333333" points="514.9848,-1243.5177 537.9304,-1243.5177 "/>
<polyline fill="none" stroke="#333333" points="573.6908,-1254.4823 573.6908,-1261.5177 "/>
<polyline fill="none" stroke="#333333" points="537.9304,-1272.4823 514.9848,-1272.4823 "/>
<text text-anchor="middle" x="526.4576" y="-1253.8" font-family="lato, roboto, helvetica" font-size="14.00" fill="#dddddd">START</text>
</g>
<!-- praat_met_boer -->
<g id="node16" class="node">
<title>praat_met_boer</title>
<path fill="#3333aa" stroke="#3333aa" d="M675.6953,-1167.5C675.6953,-1167.5 753.2199,-1167.5 753.2199,-1167.5 759.2199,-1167.5 765.2199,-1173.5 765.2199,-1179.5 765.2199,-1179.5 765.2199,-1191.5 765.2199,-1191.5 765.2199,-1197.5 759.2199,-1203.5 753.2199,-1203.5 753.2199,-1203.5 675.6953,-1203.5 675.6953,-1203.5 669.6953,-1203.5 663.6953,-1197.5 663.6953,-1191.5 663.6953,-1191.5 663.6953,-1179.5 663.6953,-1179.5 663.6953,-1173.5 669.6953,-1167.5 675.6953,-1167.5"/>
<text text-anchor="middle" x="714.4576" y="-1181.3" font-family="lato, roboto, helvetica" font-size="14.00" fill="#eeeeee">Praat Met Boer</text>
</g>
<!-- START&#45;&gt;praat_met_boer -->
<g id="edge49" class="edge">
<title>START&#45;&gt;praat_met_boer</title>
<path fill="none" stroke="#999999" d="M552.5982,-1247.9192C580.1751,-1237.2845 624.4367,-1220.2155 659.7098,-1206.6128"/>
<polygon fill="#999999" stroke="#999999" points="661.0909,-1209.0813 667.5476,-1203.5903 659.0759,-1203.8564 661.0909,-1209.0813"/>
</g>
<!-- praat_met_bakker -->
<g id="node18" class="node">
<title>praat_met_bakker</title>
<path fill="#3333aa" stroke="#3333aa" d="M109.088,-1094.5C109.088,-1094.5 199.8272,-1094.5 199.8272,-1094.5 205.8272,-1094.5 211.8272,-1100.5 211.8272,-1106.5 211.8272,-1106.5 211.8272,-1118.5 211.8272,-1118.5 211.8272,-1124.5 205.8272,-1130.5 199.8272,-1130.5 199.8272,-1130.5 109.088,-1130.5 109.088,-1130.5 103.088,-1130.5 97.088,-1124.5 97.088,-1118.5 97.088,-1118.5 97.088,-1106.5 97.088,-1106.5 97.088,-1100.5 103.088,-1094.5 109.088,-1094.5"/>
<text text-anchor="middle" x="154.4576" y="-1108.3" font-family="lato, roboto, helvetica" font-size="14.00" fill="#eeeeee">Praat Met Bakker</text>
</g>
<!-- START&#45;&gt;praat_met_bakker -->
<g id="edge48" class="edge">
<title>START&#45;&gt;praat_met_bakker</title>
<path fill="none" stroke="#999999" d="M479.9935,-1254.1546C405.171,-1247.2546 262.0588,-1230.9244 219.4576,-1204 194.5184,-1188.2381 176.3425,-1159.1146 165.6533,-1137.9477"/>
<polygon fill="#999999" stroke="#999999" points="168.0719,-1136.5187 162.0552,-1130.5488 163.0359,-1138.9678 168.0719,-1136.5187"/>
</g>
<!-- praat_met_dwerg -->
<g id="node20" class="node">
<title>praat_met_dwerg</title>
<path fill="#3333aa" stroke="#3333aa" d="M418.257,-1167.5C418.257,-1167.5 506.6582,-1167.5 506.6582,-1167.5 512.6582,-1167.5 518.6582,-1173.5 518.6582,-1179.5 518.6582,-1179.5 518.6582,-1191.5 518.6582,-1191.5 518.6582,-1197.5 512.6582,-1203.5 506.6582,-1203.5 506.6582,-1203.5 418.257,-1203.5 418.257,-1203.5 412.257,-1203.5 406.257,-1197.5 406.257,-1191.5 406.257,-1191.5 406.257,-1179.5 406.257,-1179.5 406.257,-1173.5 412.257,-1167.5 418.257,-1167.5"/>
<text text-anchor="middle" x="462.4576" y="-1181.3" font-family="lato, roboto, helvetica" font-size="14.00" fill="#eeeeee">Praat Met Dwerg</text>
</g>
<!-- START&#45;&gt;praat_met_dwerg -->
<g id="edge51" class="edge">
<title>START&#45;&gt;praat_met_dwerg</title>
<path fill="none" stroke="#999999" d="M513.8133,-1243.6763C505.2684,-1233.9966 493.7742,-1220.9758 483.8264,-1209.7068"/>
<polygon fill="#999999" stroke="#999999" points="485.881,-1207.8034 478.4875,-1203.6589 481.6827,-1211.5094 485.881,-1207.8034"/>
</g>
<!-- koop_eten_bij_bakker -->
<g id="node21" class="node">
<title>koop_eten_bij_bakker</title>
<path fill="#3333aa" stroke="#3333aa" d="M240.0533,-1167.5C240.0533,-1167.5 356.8619,-1167.5 356.8619,-1167.5 362.8619,-1167.5 368.8619,-1173.5 368.8619,-1179.5 368.8619,-1179.5 368.8619,-1191.5 368.8619,-1191.5 368.8619,-1197.5 362.8619,-1203.5 356.8619,-1203.5 356.8619,-1203.5 240.0533,-1203.5 240.0533,-1203.5 234.0533,-1203.5 228.0533,-1197.5 228.0533,-1191.5 228.0533,-1191.5 228.0533,-1179.5 228.0533,-1179.5 228.0533,-1173.5 234.0533,-1167.5 240.0533,-1167.5"/>
<text text-anchor="middle" x="298.4576" y="-1181.3" font-family="lato, roboto, helvetica" font-size="14.00" fill="#eeeeee">Koop Eten Bij Bakker</text>
</g>
<!-- START&#45;&gt;koop_eten_bij_bakker -->
<g id="edge22" class="edge">
<title>START&#45;&gt;koop_eten_bij_bakker</title>
<path fill="none" stroke="#999999" d="M497.5812,-1248.8178C464.0083,-1238.1422 407.5511,-1220.1898 363.3086,-1206.1215"/>
<polygon fill="#999999" stroke="#999999" points="363.9516,-1203.3878 355.4792,-1203.6319 362.2545,-1208.7245 363.9516,-1203.3878"/>
</g>
<!-- pak_touw_op_boerderij -->
<g id="node35" class="node">
<title>pak_touw_op_boerderij</title>
<path fill="#3333aa" stroke="#3333aa" d="M834.392,-583.5C834.392,-583.5 960.5232,-583.5 960.5232,-583.5 966.5232,-583.5 972.5232,-589.5 972.5232,-595.5 972.5232,-595.5 972.5232,-607.5 972.5232,-607.5 972.5232,-613.5 966.5232,-619.5 960.5232,-619.5 960.5232,-619.5 834.392,-619.5 834.392,-619.5 828.392,-619.5 822.392,-613.5 822.392,-607.5 822.392,-607.5 822.392,-595.5 822.392,-595.5 822.392,-589.5 828.392,-583.5 834.392,-583.5"/>
<text text-anchor="middle" x="897.4576" y="-597.3" font-family="lato, roboto, helvetica" font-size="14.00" fill="#eeeeee">Pak Touw Op Boerderij</text>
</g>
<!-- START&#45;&gt;pak_touw_op_boerderij -->
<g id="edge45" class="edge">
<title>START&#45;&gt;pak_touw_op_boerderij</title>
<path fill="none" stroke="#999999" d="M572.1742,-1253.9024C623.3671,-1248.005 707.8781,-1234.2926 774.4576,-1204 836.4741,-1175.7834 897.4576,-1180.6339 897.4576,-1112.5 897.4576,-1112.5 897.4576,-1112.5 897.4576,-747.5 897.4576,-705.7434 897.4576,-657.2692 897.4576,-628.0145"/>
<polygon fill="#999999" stroke="#999999" points="900.2577,-627.9379 897.4576,-619.938 894.6577,-627.938 900.2577,-627.9379"/>
</g>
<!-- pak_hout_in_bos -->
<g id="node47" class="node">
<title>pak_hout_in_bos</title>
<path fill="#3333aa" stroke="#3333aa" d="M548.9895,-1167.5C548.9895,-1167.5 633.9257,-1167.5 633.9257,-1167.5 639.9257,-1167.5 645.9257,-1173.5 645.9257,-1179.5 645.9257,-1179.5 645.9257,-1191.5 645.9257,-1191.5 645.9257,-1197.5 639.9257,-1203.5 633.9257,-1203.5 633.9257,-1203.5 548.9895,-1203.5 548.9895,-1203.5 542.9895,-1203.5 536.9895,-1197.5 536.9895,-1191.5 536.9895,-1191.5 536.9895,-1179.5 536.9895,-1179.5 536.9895,-1173.5 542.9895,-1167.5 548.9895,-1167.5"/>
<text text-anchor="middle" x="591.4576" y="-1181.3" font-family="lato, roboto, helvetica" font-size="14.00" fill="#eeeeee">Pak Hout In Bos</text>
</g>
<!-- START&#45;&gt;pak_hout_in_bos -->
<g id="edge41" class="edge">
<title>START&#45;&gt;pak_hout_in_bos</title>
<path fill="none" stroke="#999999" d="M539.2995,-1243.6763C547.9779,-1233.9966 559.6517,-1220.9758 569.7549,-1209.7068"/>
<polygon fill="#999999" stroke="#999999" points="571.9216,-1211.4846 575.1772,-1203.6589 567.752,-1207.7463 571.9216,-1211.4846"/>
</g>
<!-- beklim_toren -->
<g id="node2" class="node">
<title>beklim_toren</title>
<path fill="#3333aa" stroke="#3333aa" d="M656.3822,-437.5C656.3822,-437.5 726.533,-437.5 726.533,-437.5 732.533,-437.5 738.533,-443.5 738.533,-449.5 738.533,-449.5 738.533,-461.5 738.533,-461.5 738.533,-467.5 732.533,-473.5 726.533,-473.5 726.533,-473.5 656.3822,-473.5 656.3822,-473.5 650.3822,-473.5 644.3822,-467.5 644.3822,-461.5 644.3822,-461.5 644.3822,-449.5 644.3822,-449.5 644.3822,-443.5 650.3822,-437.5 656.3822,-437.5"/>
<text text-anchor="middle" x="691.4576" y="-451.3" font-family="lato, roboto, helvetica" font-size="14.00" fill="#eeeeee">Beklim Toren</text>
</g>
<!-- praat_met_dochter_van_bakker -->
<g id="node44" class="node">
<title>praat_met_dochter_van_bakker</title>
<path fill="#3333aa" stroke="#3333aa" d="M589.3839,-364.5C589.3839,-364.5 755.5313,-364.5 755.5313,-364.5 761.5313,-364.5 767.5313,-370.5 767.5313,-376.5 767.5313,-376.5 767.5313,-388.5 767.5313,-388.5 767.5313,-394.5 761.5313,-400.5 755.5313,-400.5 755.5313,-400.5 589.3839,-400.5 589.3839,-400.5 583.3839,-400.5 577.3839,-394.5 577.3839,-388.5 577.3839,-388.5 577.3839,-376.5 577.3839,-376.5 577.3839,-370.5 583.3839,-364.5 589.3839,-364.5"/>
<text text-anchor="middle" x="672.4576" y="-378.3" font-family="lato, roboto, helvetica" font-size="14.00" fill="#eeeeee">Praat Met Dochter Van Bakker</text>
</g>
<!-- beklim_toren&#45;&gt;praat_met_dochter_van_bakker -->
<g id="edge50" class="edge">
<title>beklim_toren&#45;&gt;praat_met_dochter_van_bakker</title>
<path fill="none" stroke="#999999" d="M686.761,-437.4551C684.4773,-428.6809 681.6911,-417.9759 679.1865,-408.353"/>
<polygon fill="#999999" stroke="#999999" points="681.8909,-407.6271 677.166,-400.5904 676.4715,-409.0377 681.8909,-407.6271"/>
</g>
<!-- koop_zwaard_bij_wapensmid -->
<g id="node3" class="node">
<title>koop_zwaard_bij_wapensmid</title>
<path fill="#3333aa" stroke="#3333aa" d="M611.2861,-510.5C611.2861,-510.5 771.6291,-510.5 771.6291,-510.5 777.6291,-510.5 783.6291,-516.5 783.6291,-522.5 783.6291,-522.5 783.6291,-534.5 783.6291,-534.5 783.6291,-540.5 777.6291,-546.5 771.6291,-546.5 771.6291,-546.5 611.2861,-546.5 611.2861,-546.5 605.2861,-546.5 599.2861,-540.5 599.2861,-534.5 599.2861,-534.5 599.2861,-522.5 599.2861,-522.5 599.2861,-516.5 605.2861,-510.5 611.2861,-510.5"/>
<text text-anchor="middle" x="691.4576" y="-524.3" font-family="lato, roboto, helvetica" font-size="14.00" fill="#eeeeee">Koop Zwaard Bij Wapensmid</text>
</g>
<!-- koop_zwaard_bij_wapensmid&#45;&gt;beklim_toren -->
<g id="edge1" class="edge">
<title>koop_zwaard_bij_wapensmid&#45;&gt;beklim_toren</title>
<path fill="none" stroke="#999999" d="M691.4576,-510.4551C691.4576,-501.7686 691.4576,-491.1898 691.4576,-481.642"/>
<polygon fill="#999999" stroke="#999999" points="694.2577,-481.5903 691.4576,-473.5904 688.6577,-481.5904 694.2577,-481.5903"/>
</g>
<!-- snij_touw_van_lift -->
<g id="node48" class="node">
<title>snij_touw_van_lift</title>
<path fill="#3333aa" stroke="#3333aa" d="M843.4383,-437.5C843.4383,-437.5 945.4769,-437.5 945.4769,-437.5 951.4769,-437.5 957.4769,-443.5 957.4769,-449.5 957.4769,-449.5 957.4769,-461.5 957.4769,-461.5 957.4769,-467.5 951.4769,-473.5 945.4769,-473.5 945.4769,-473.5 843.4383,-473.5 843.4383,-473.5 837.4383,-473.5 831.4383,-467.5 831.4383,-461.5 831.4383,-461.5 831.4383,-449.5 831.4383,-449.5 831.4383,-443.5 837.4383,-437.5 843.4383,-437.5"/>
<text text-anchor="middle" x="894.4576" y="-451.3" font-family="lato, roboto, helvetica" font-size="14.00" fill="#eeeeee">Snij Touw Van Lift</text>
</g>
<!-- koop_zwaard_bij_wapensmid&#45;&gt;snij_touw_van_lift -->
<g id="edge55" class="edge">
<title>koop_zwaard_bij_wapensmid&#45;&gt;snij_touw_van_lift</title>
<path fill="none" stroke="#999999" d="M741.6374,-510.4551C770.3066,-500.1454 806.3888,-487.1701 836.2925,-476.4165"/>
<polygon fill="#999999" stroke="#999999" points="837.571,-478.9324 844.1515,-473.5904 835.676,-473.6627 837.571,-478.9324"/>
</g>
<!-- bezorg_graan_bij_molenaar -->
<g id="node4" class="node">
<title>bezorg_graan_bij_molenaar</title>
<path fill="#3333aa" stroke="#3333aa" d="M602.5175,-802.5C602.5175,-802.5 750.3977,-802.5 750.3977,-802.5 756.3977,-802.5 762.3977,-808.5 762.3977,-814.5 762.3977,-814.5 762.3977,-826.5 762.3977,-826.5 762.3977,-832.5 756.3977,-838.5 750.3977,-838.5 750.3977,-838.5 602.5175,-838.5 602.5175,-838.5 596.5175,-838.5 590.5175,-832.5 590.5175,-826.5 590.5175,-826.5 590.5175,-814.5 590.5175,-814.5 590.5175,-808.5 596.5175,-802.5 602.5175,-802.5"/>
<text text-anchor="middle" x="676.4576" y="-816.3" font-family="lato, roboto, helvetica" font-size="14.00" fill="#eeeeee">Bezorg Graan Bij Molenaar</text>
</g>
<!-- krijg_meel_bij_molenaar -->
<g id="node7" class="node">
<title>krijg_meel_bij_molenaar</title>
<path fill="#3333aa" stroke="#3333aa" d="M610.6725,-729.5C610.6725,-729.5 742.2427,-729.5 742.2427,-729.5 748.2427,-729.5 754.2427,-735.5 754.2427,-741.5 754.2427,-741.5 754.2427,-753.5 754.2427,-753.5 754.2427,-759.5 748.2427,-765.5 742.2427,-765.5 742.2427,-765.5 610.6725,-765.5 610.6725,-765.5 604.6725,-765.5 598.6725,-759.5 598.6725,-753.5 598.6725,-753.5 598.6725,-741.5 598.6725,-741.5 598.6725,-735.5 604.6725,-729.5 610.6725,-729.5"/>
<text text-anchor="middle" x="676.4576" y="-743.3" font-family="lato, roboto, helvetica" font-size="14.00" fill="#eeeeee">Krijg Meel Bij Molenaar</text>
</g>
<!-- bezorg_graan_bij_molenaar&#45;&gt;krijg_meel_bij_molenaar -->
<g id="edge34" class="edge">
<title>bezorg_graan_bij_molenaar&#45;&gt;krijg_meel_bij_molenaar</title>
<path fill="none" stroke="#999999" d="M676.4576,-802.4551C676.4576,-793.7686 676.4576,-783.1898 676.4576,-773.642"/>
<polygon fill="#999999" stroke="#999999" points="679.2577,-773.5903 676.4576,-765.5904 673.6577,-773.5904 679.2577,-773.5903"/>
</g>
<!-- zet_graan_op_wagen -->
<g id="node5" class="node">
<title>zet_graan_op_wagen</title>
<path fill="#3333aa" stroke="#3333aa" d="M620.4053,-875.5C620.4053,-875.5 732.5099,-875.5 732.5099,-875.5 738.5099,-875.5 744.5099,-881.5 744.5099,-887.5 744.5099,-887.5 744.5099,-899.5 744.5099,-899.5 744.5099,-905.5 738.5099,-911.5 732.5099,-911.5 732.5099,-911.5 620.4053,-911.5 620.4053,-911.5 614.4053,-911.5 608.4053,-905.5 608.4053,-899.5 608.4053,-899.5 608.4053,-887.5 608.4053,-887.5 608.4053,-881.5 614.4053,-875.5 620.4053,-875.5"/>
<text text-anchor="middle" x="676.4576" y="-889.3" font-family="lato, roboto, helvetica" font-size="14.00" fill="#eeeeee">Zet Graan Op Wagen</text>
</g>
<!-- zet_graan_op_wagen&#45;&gt;bezorg_graan_bij_molenaar -->
<g id="edge2" class="edge">
<title>zet_graan_op_wagen&#45;&gt;bezorg_graan_bij_molenaar</title>
<path fill="none" stroke="#999999" d="M676.4576,-875.4551C676.4576,-866.7686 676.4576,-856.1898 676.4576,-846.642"/>
<polygon fill="#999999" stroke="#999999" points="679.2577,-846.5903 676.4576,-838.5904 673.6577,-846.5904 679.2577,-846.5903"/>
</g>
<!-- bezorg_meel_bij_bakker -->
<g id="node6" class="node">
<title>bezorg_meel_bij_bakker</title>
<path fill="#3333aa" stroke="#3333aa" d="M611.8401,-656.5C611.8401,-656.5 741.0751,-656.5 741.0751,-656.5 747.0751,-656.5 753.0751,-662.5 753.0751,-668.5 753.0751,-668.5 753.0751,-680.5 753.0751,-680.5 753.0751,-686.5 747.0751,-692.5 741.0751,-692.5 741.0751,-692.5 611.8401,-692.5 611.8401,-692.5 605.8401,-692.5 599.8401,-686.5 599.8401,-680.5 599.8401,-680.5 599.8401,-668.5 599.8401,-668.5 599.8401,-662.5 605.8401,-656.5 611.8401,-656.5"/>
<text text-anchor="middle" x="676.4576" y="-670.3" font-family="lato, roboto, helvetica" font-size="14.00" fill="#eeeeee">Bezorg Meel Bij Bakker</text>
</g>
<!-- zet_molensteen_op_wagen -->
<g id="node14" class="node">
<title>zet_molensteen_op_wagen</title>
<path fill="#3333aa" stroke="#3333aa" d="M453.8464,-583.5C453.8464,-583.5 597.0688,-583.5 597.0688,-583.5 603.0688,-583.5 609.0688,-589.5 609.0688,-595.5 609.0688,-595.5 609.0688,-607.5 609.0688,-607.5 609.0688,-613.5 603.0688,-619.5 597.0688,-619.5 597.0688,-619.5 453.8464,-619.5 453.8464,-619.5 447.8464,-619.5 441.8464,-613.5 441.8464,-607.5 441.8464,-607.5 441.8464,-595.5 441.8464,-595.5 441.8464,-589.5 447.8464,-583.5 453.8464,-583.5"/>
<text text-anchor="middle" x="525.4576" y="-597.3" font-family="lato, roboto, helvetica" font-size="14.00" fill="#eeeeee">Zet Molensteen Op Wagen</text>
</g>
<!-- bezorg_meel_bij_bakker&#45;&gt;zet_molensteen_op_wagen -->
<g id="edge62" class="edge">
<title>bezorg_meel_bij_bakker&#45;&gt;zet_molensteen_op_wagen</title>
<path fill="none" stroke="#999999" d="M639.1317,-656.4551C618.2601,-646.3648 592.1065,-633.721 570.1492,-623.1059"/>
<polygon fill="#999999" stroke="#999999" points="571.2986,-620.5515 562.8774,-619.5904 568.8612,-625.5933 571.2986,-620.5515"/>
</g>
<!-- krijg_geld_van_meel -->
<g id="node37" class="node">
<title>krijg_geld_van_meel</title>
<path fill="#3333aa" stroke="#3333aa" d="M638.7847,-583.5C638.7847,-583.5 750.1305,-583.5 750.1305,-583.5 756.1305,-583.5 762.1305,-589.5 762.1305,-595.5 762.1305,-595.5 762.1305,-607.5 762.1305,-607.5 762.1305,-613.5 756.1305,-619.5 750.1305,-619.5 750.1305,-619.5 638.7847,-619.5 638.7847,-619.5 632.7847,-619.5 626.7847,-613.5 626.7847,-607.5 626.7847,-607.5 626.7847,-595.5 626.7847,-595.5 626.7847,-589.5 632.7847,-583.5 638.7847,-583.5"/>
<text text-anchor="middle" x="694.4576" y="-597.3" font-family="lato, roboto, helvetica" font-size="14.00" fill="#eeeeee">Krijg Geld Van Meel</text>
</g>
<!-- bezorg_meel_bij_bakker&#45;&gt;krijg_geld_van_meel -->
<g id="edge26" class="edge">
<title>bezorg_meel_bij_bakker&#45;&gt;krijg_geld_van_meel</title>
<path fill="none" stroke="#999999" d="M680.907,-656.4551C683.0489,-647.7686 685.6574,-637.1898 688.0116,-627.642"/>
<polygon fill="#999999" stroke="#999999" points="690.8002,-628.0281 689.997,-619.5904 685.3631,-626.6874 690.8002,-628.0281"/>
</g>
<!-- krijg_meel_bij_molenaar&#45;&gt;bezorg_meel_bij_bakker -->
<g id="edge3" class="edge">
<title>krijg_meel_bij_molenaar&#45;&gt;bezorg_meel_bij_bakker</title>
<path fill="none" stroke="#999999" d="M676.4576,-729.4551C676.4576,-720.7686 676.4576,-710.1898 676.4576,-700.642"/>
<polygon fill="#999999" stroke="#999999" points="679.2577,-700.5903 676.4576,-692.5904 673.6577,-700.5904 679.2577,-700.5903"/>
</g>
<!-- breng_dochter_naar_bakker -->
<g id="node8" class="node">
<title>breng_dochter_naar_bakker</title>
<path fill="#3333aa" stroke="#3333aa" d="M674.7468,-291.5C674.7468,-291.5 824.1684,-291.5 824.1684,-291.5 830.1684,-291.5 836.1684,-297.5 836.1684,-303.5 836.1684,-303.5 836.1684,-315.5 836.1684,-315.5 836.1684,-321.5 830.1684,-327.5 824.1684,-327.5 824.1684,-327.5 674.7468,-327.5 674.7468,-327.5 668.7468,-327.5 662.7468,-321.5 662.7468,-315.5 662.7468,-315.5 662.7468,-303.5 662.7468,-303.5 662.7468,-297.5 668.7468,-291.5 674.7468,-291.5"/>
<text text-anchor="middle" x="749.4576" y="-305.3" font-family="lato, roboto, helvetica" font-size="14.00" fill="#eeeeee">Breng Dochter Naar Bakker</text>
</g>
<!-- krijg_taart_van_bakker -->
<g id="node43" class="node">
<title>krijg_taart_van_bakker</title>
<path fill="#3333aa" stroke="#3333aa" d="M686.7931,-218.5C686.7931,-218.5 812.1221,-218.5 812.1221,-218.5 818.1221,-218.5 824.1221,-224.5 824.1221,-230.5 824.1221,-230.5 824.1221,-242.5 824.1221,-242.5 824.1221,-248.5 818.1221,-254.5 812.1221,-254.5 812.1221,-254.5 686.7931,-254.5 686.7931,-254.5 680.7931,-254.5 674.7931,-248.5 674.7931,-242.5 674.7931,-242.5 674.7931,-230.5 674.7931,-230.5 674.7931,-224.5 680.7931,-218.5 686.7931,-218.5"/>
<text text-anchor="middle" x="749.4576" y="-232.3" font-family="lato, roboto, helvetica" font-size="14.00" fill="#eeeeee">Krijg Taart Van Bakker</text>
</g>
<!-- breng_dochter_naar_bakker&#45;&gt;krijg_taart_van_bakker -->
<g id="edge36" class="edge">
<title>breng_dochter_naar_bakker&#45;&gt;krijg_taart_van_bakker</title>
<path fill="none" stroke="#999999" d="M749.4576,-291.4551C749.4576,-282.7686 749.4576,-272.1898 749.4576,-262.642"/>
<polygon fill="#999999" stroke="#999999" points="752.2577,-262.5903 749.4576,-254.5904 746.6577,-262.5904 752.2577,-262.5903"/>
</g>
<!-- trek_tand_van_draak -->
<g id="node9" class="node">
<title>trek_tand_van_draak</title>
<path fill="#3333aa" stroke="#3333aa" d="M836.8513,-364.5C836.8513,-364.5 952.0639,-364.5 952.0639,-364.5 958.0639,-364.5 964.0639,-370.5 964.0639,-376.5 964.0639,-376.5 964.0639,-388.5 964.0639,-388.5 964.0639,-394.5 958.0639,-400.5 952.0639,-400.5 952.0639,-400.5 836.8513,-400.5 836.8513,-400.5 830.8513,-400.5 824.8513,-394.5 824.8513,-388.5 824.8513,-388.5 824.8513,-376.5 824.8513,-376.5 824.8513,-370.5 830.8513,-364.5 836.8513,-364.5"/>
<text text-anchor="middle" x="894.4576" y="-378.3" font-family="lato, roboto, helvetica" font-size="14.00" fill="#eeeeee">Trek Tand Van Draak</text>
</g>
<!-- trek_tand_van_draak&#45;&gt;breng_dochter_naar_bakker -->
<g id="edge4" class="edge">
<title>trek_tand_van_draak&#45;&gt;breng_dochter_naar_bakker</title>
<path fill="none" stroke="#999999" d="M858.6149,-364.4551C838.6597,-354.4087 813.6765,-341.8309 792.6486,-331.2445"/>
<polygon fill="#999999" stroke="#999999" points="793.7952,-328.6869 785.3905,-327.5904 791.2769,-333.6888 793.7952,-328.6869"/>
</g>
<!-- zet_zadel_op_draak -->
<g id="node11" class="node">
<title>zet_zadel_op_draak</title>
<path fill="#3333aa" stroke="#3333aa" d="M868.291,-72.5C868.291,-72.5 972.6242,-72.5 972.6242,-72.5 978.6242,-72.5 984.6242,-78.5 984.6242,-84.5 984.6242,-84.5 984.6242,-96.5 984.6242,-96.5 984.6242,-102.5 978.6242,-108.5 972.6242,-108.5 972.6242,-108.5 868.291,-108.5 868.291,-108.5 862.291,-108.5 856.291,-102.5 856.291,-96.5 856.291,-96.5 856.291,-84.5 856.291,-84.5 856.291,-78.5 862.291,-72.5 868.291,-72.5"/>
<text text-anchor="middle" x="920.4576" y="-86.3" font-family="lato, roboto, helvetica" font-size="14.00" fill="#eeeeee">Zet Zadel Op Draak</text>
</g>
<!-- trek_tand_van_draak&#45;&gt;zet_zadel_op_draak -->
<g id="edge64" class="edge">
<title>trek_tand_van_draak&#45;&gt;zet_zadel_op_draak</title>
<path fill="none" stroke="#999999" d="M964.2886,-364.6601C982.3924,-356.529 999.7818,-344.8112 1010.4576,-328 1054.0589,-259.3411 1050.3861,-215.8578 1010.4576,-145 1002.7449,-131.3129 990.0559,-120.6709 976.6049,-112.573"/>
<polygon fill="#999999" stroke="#999999" points="977.8656,-110.0692 969.5238,-108.5675 975.1085,-114.9434 977.8656,-110.0692"/>
</g>
<!-- pak_stuk_leer_in_toren -->
<g id="node28" class="node">
<title>pak_stuk_leer_in_toren</title>
<path fill="#3333aa" stroke="#3333aa" d="M865.757,-291.5C865.757,-291.5 989.1582,-291.5 989.1582,-291.5 995.1582,-291.5 1001.1582,-297.5 1001.1582,-303.5 1001.1582,-303.5 1001.1582,-315.5 1001.1582,-315.5 1001.1582,-321.5 995.1582,-327.5 989.1582,-327.5 989.1582,-327.5 865.757,-327.5 865.757,-327.5 859.757,-327.5 853.757,-321.5 853.757,-315.5 853.757,-315.5 853.757,-303.5 853.757,-303.5 853.757,-297.5 859.757,-291.5 865.757,-291.5"/>
<text text-anchor="middle" x="927.4576" y="-305.3" font-family="lato, roboto, helvetica" font-size="14.00" fill="#eeeeee">Pak Stuk Leer In Toren</text>
</g>
<!-- trek_tand_van_draak&#45;&gt;pak_stuk_leer_in_toren -->
<g id="edge42" class="edge">
<title>trek_tand_van_draak&#45;&gt;pak_stuk_leer_in_toren</title>
<path fill="none" stroke="#999999" d="M902.6149,-364.4551C906.621,-355.5932 911.5174,-344.7616 915.901,-335.0646"/>
<polygon fill="#999999" stroke="#999999" points="918.5358,-336.0335 919.2798,-327.5904 913.4329,-333.7267 918.5358,-336.0335"/>
</g>
<!-- pak_tand_van_draak -->
<g id="node40" class="node">
<title>pak_tand_van_draak</title>
<path fill="#3333aa" stroke="#3333aa" d="M358.5666,-218.5C358.5666,-218.5 468.3486,-218.5 468.3486,-218.5 474.3486,-218.5 480.3486,-224.5 480.3486,-230.5 480.3486,-230.5 480.3486,-242.5 480.3486,-242.5 480.3486,-248.5 474.3486,-254.5 468.3486,-254.5 468.3486,-254.5 358.5666,-254.5 358.5666,-254.5 352.5666,-254.5 346.5666,-248.5 346.5666,-242.5 346.5666,-242.5 346.5666,-230.5 346.5666,-230.5 346.5666,-224.5 352.5666,-218.5 358.5666,-218.5"/>
<text text-anchor="middle" x="413.4576" y="-232.3" font-family="lato, roboto, helvetica" font-size="14.00" fill="#eeeeee">Pak Tand Van Draak</text>
</g>
<!-- trek_tand_van_draak&#45;&gt;pak_tand_van_draak -->
<g id="edge44" class="edge">
<title>trek_tand_van_draak&#45;&gt;pak_tand_van_draak</title>
<path fill="none" stroke="#999999" d="M824.5792,-371.0459C764.3325,-360.3847 682.5826,-343.8066 653.4576,-328 632.7398,-316.7561 635.9399,-302.6675 615.4576,-291 604.0497,-284.5016 541.0989,-267.9604 488.4624,-254.7925"/>
<polygon fill="#999999" stroke="#999999" points="488.8859,-252.0125 480.446,-252.7931 487.5306,-257.446 488.8859,-252.0125"/>
</g>
<!-- breng_medicijnen_naar_koning -->
<g id="node10" class="node">
<title>breng_medicijnen_naar_koning</title>
<polygon fill="#333333" stroke="#333333" points="667.4576,-36 478.6165,-18 667.4576,0 856.2987,-18 667.4576,-36"/>
<polyline fill="none" stroke="#333333" points="490.5623,-19.1387 490.5623,-16.8613 "/>
<polyline fill="none" stroke="#333333" points="655.5117,-1.1387 679.4035,-1.1387 "/>
<polyline fill="none" stroke="#333333" points="844.3529,-16.8613 844.3529,-19.1387 "/>
<polyline fill="none" stroke="#333333" points="679.4035,-34.8613 655.5117,-34.8613 "/>
<text text-anchor="middle" x="667.4576" y="-13.8" font-family="lato, roboto, helvetica" font-size="14.00" fill="#dddddd">Breng Medicijnen Naar Koning</text>
</g>
<!-- zet_zadel_op_draak&#45;&gt;breng_medicijnen_naar_koning -->
<g id="edge5" class="edge">
<title>zet_zadel_op_draak&#45;&gt;breng_medicijnen_naar_koning</title>
<path fill="none" stroke="#999999" d="M857.5932,-72.4855C816.159,-60.6121 762.4086,-45.2093 722.6331,-33.8112"/>
<polygon fill="#999999" stroke="#999999" points="723.334,-31.0994 714.8721,-31.5872 721.7913,-36.4827 723.334,-31.0994"/>
</g>
<!-- krijg_medicijn_van_heks -->
<g id="node12" class="node">
<title>krijg_medicijn_van_heks</title>
<path fill="#3333aa" stroke="#3333aa" d="M346.1171,-145.5C346.1171,-145.5 480.7981,-145.5 480.7981,-145.5 486.7981,-145.5 492.7981,-151.5 492.7981,-157.5 492.7981,-157.5 492.7981,-169.5 492.7981,-169.5 492.7981,-175.5 486.7981,-181.5 480.7981,-181.5 480.7981,-181.5 346.1171,-181.5 346.1171,-181.5 340.1171,-181.5 334.1171,-175.5 334.1171,-169.5 334.1171,-169.5 334.1171,-157.5 334.1171,-157.5 334.1171,-151.5 340.1171,-145.5 346.1171,-145.5"/>
<text text-anchor="middle" x="413.4576" y="-159.3" font-family="lato, roboto, helvetica" font-size="14.00" fill="#eeeeee">Krijg Medicijn Van Heks</text>
</g>
<!-- krijg_medicijn_van_heks&#45;&gt;breng_medicijnen_naar_koning -->
<g id="edge6" class="edge">
<title>krijg_medicijn_van_heks&#45;&gt;breng_medicijnen_naar_koning</title>
<path fill="none" stroke="#999999" d="M445.1133,-145.3665C493.1527,-117.8479 584.0838,-65.7594 633.4702,-37.4691"/>
<polygon fill="#999999" stroke="#999999" points="634.8953,-39.8797 640.4453,-33.4736 632.1117,-35.0205 634.8953,-39.8797"/>
</g>
<!-- breng_molensteen_naar_toren -->
<g id="node13" class="node">
<title>breng_molensteen_naar_toren</title>
<path fill="#3333aa" stroke="#3333aa" d="M450.1325,-437.5C450.1325,-437.5 612.7827,-437.5 612.7827,-437.5 618.7827,-437.5 624.7827,-443.5 624.7827,-449.5 624.7827,-449.5 624.7827,-461.5 624.7827,-461.5 624.7827,-467.5 618.7827,-473.5 612.7827,-473.5 612.7827,-473.5 450.1325,-473.5 450.1325,-473.5 444.1325,-473.5 438.1325,-467.5 438.1325,-461.5 438.1325,-461.5 438.1325,-449.5 438.1325,-449.5 438.1325,-443.5 444.1325,-437.5 450.1325,-437.5"/>
<text text-anchor="middle" x="531.4576" y="-451.3" font-family="lato, roboto, helvetica" font-size="14.00" fill="#eeeeee">Breng Molensteen Naar Toren</text>
</g>
<!-- leg_molensteen_op_lift -->
<g id="node33" class="node">
<title>leg_molensteen_op_lift</title>
<path fill="#3333aa" stroke="#3333aa" d="M466.6164,-291.5C466.6164,-291.5 594.2988,-291.5 594.2988,-291.5 600.2988,-291.5 606.2988,-297.5 606.2988,-303.5 606.2988,-303.5 606.2988,-315.5 606.2988,-315.5 606.2988,-321.5 600.2988,-327.5 594.2988,-327.5 594.2988,-327.5 466.6164,-327.5 466.6164,-327.5 460.6164,-327.5 454.6164,-321.5 454.6164,-315.5 454.6164,-315.5 454.6164,-303.5 454.6164,-303.5 454.6164,-297.5 460.6164,-291.5 466.6164,-291.5"/>
<text text-anchor="middle" x="530.4576" y="-305.3" font-family="lato, roboto, helvetica" font-size="14.00" fill="#eeeeee">Leg Molensteen Op Lift</text>
</g>
<!-- breng_molensteen_naar_toren&#45;&gt;leg_molensteen_op_lift -->
<g id="edge37" class="edge">
<title>breng_molensteen_naar_toren&#45;&gt;leg_molensteen_op_lift</title>
<path fill="none" stroke="#999999" d="M531.333,-437.3042C531.1586,-411.8403 530.8406,-365.4108 530.6396,-336.0759"/>
<polygon fill="#999999" stroke="#999999" points="533.4386,-335.9057 530.5838,-327.9251 527.8388,-335.9441 533.4386,-335.9057"/>
</g>
<!-- zet_molensteen_op_wagen&#45;&gt;breng_molensteen_naar_toren -->
<g id="edge7" class="edge">
<title>zet_molensteen_op_wagen&#45;&gt;breng_molensteen_naar_toren</title>
<path fill="none" stroke="#999999" d="M526.2054,-583.3042C527.2518,-557.8403 529.1599,-511.4108 530.3654,-482.0759"/>
<polygon fill="#999999" stroke="#999999" points="533.1695,-482.0334 530.7004,-473.9251 527.5742,-481.8034 533.1695,-482.0334"/>
</g>
<!-- breng_paard_naar_hoefsmid -->
<g id="node15" class="node">
<title>breng_paard_naar_hoefsmid</title>
<path fill="#3333aa" stroke="#3333aa" d="M690.9635,-1094.5C690.9635,-1094.5 841.9517,-1094.5 841.9517,-1094.5 847.9517,-1094.5 853.9517,-1100.5 853.9517,-1106.5 853.9517,-1106.5 853.9517,-1118.5 853.9517,-1118.5 853.9517,-1124.5 847.9517,-1130.5 841.9517,-1130.5 841.9517,-1130.5 690.9635,-1130.5 690.9635,-1130.5 684.9635,-1130.5 678.9635,-1124.5 678.9635,-1118.5 678.9635,-1118.5 678.9635,-1106.5 678.9635,-1106.5 678.9635,-1100.5 684.9635,-1094.5 690.9635,-1094.5"/>
<text text-anchor="middle" x="766.4576" y="-1108.3" font-family="lato, roboto, helvetica" font-size="14.00" fill="#eeeeee">Breng Paard Naar Hoefsmid</text>
</g>
<!-- geef_paard_nieuwe_hoefijzers -->
<g id="node29" class="node">
<title>geef_paard_nieuwe_hoefijzers</title>
<path fill="#3333aa" stroke="#3333aa" d="M688.758,-1021.5C688.758,-1021.5 852.1572,-1021.5 852.1572,-1021.5 858.1572,-1021.5 864.1572,-1027.5 864.1572,-1033.5 864.1572,-1033.5 864.1572,-1045.5 864.1572,-1045.5 864.1572,-1051.5 858.1572,-1057.5 852.1572,-1057.5 852.1572,-1057.5 688.758,-1057.5 688.758,-1057.5 682.758,-1057.5 676.758,-1051.5 676.758,-1045.5 676.758,-1045.5 676.758,-1033.5 676.758,-1033.5 676.758,-1027.5 682.758,-1021.5 688.758,-1021.5"/>
<text text-anchor="middle" x="770.4576" y="-1035.3" font-family="lato, roboto, helvetica" font-size="14.00" fill="#eeeeee">Geef Paard Nieuwe Hoefijzers</text>
</g>
<!-- breng_paard_naar_hoefsmid&#45;&gt;geef_paard_nieuwe_hoefijzers -->
<g id="edge16" class="edge">
<title>breng_paard_naar_hoefsmid&#45;&gt;geef_paard_nieuwe_hoefijzers</title>
<path fill="none" stroke="#999999" d="M767.4464,-1094.4551C767.9223,-1085.7686 768.502,-1075.1898 769.0252,-1065.642"/>
<polygon fill="#999999" stroke="#999999" points="771.8244,-1065.7316 769.4663,-1057.5904 766.2327,-1065.4251 771.8244,-1065.7316"/>
</g>
<!-- praat_met_boer&#45;&gt;zet_graan_op_wagen -->
<g id="edge60" class="edge">
<title>praat_met_boer&#45;&gt;zet_graan_op_wagen</title>
<path fill="none" stroke="#999999" d="M694.7518,-1167.2613C685.5894,-1157.4851 675.6001,-1144.6565 670.4576,-1131 643.1475,-1058.4745 659.1579,-964.4725 669.6101,-919.5873"/>
<polygon fill="#999999" stroke="#999999" points="672.3972,-919.9731 671.5487,-911.5398 666.953,-918.6615 672.3972,-919.9731"/>
</g>
<!-- praat_met_boer&#45;&gt;breng_paard_naar_hoefsmid -->
<g id="edge8" class="edge">
<title>praat_met_boer&#45;&gt;breng_paard_naar_hoefsmid</title>
<path fill="none" stroke="#999999" d="M727.3115,-1167.4551C733.8116,-1158.3299 741.7993,-1147.1165 748.8605,-1137.2036"/>
<polygon fill="#999999" stroke="#999999" points="751.2104,-1138.7308 753.5713,-1130.5904 746.6492,-1135.4817 751.2104,-1138.7308"/>
</g>
<!-- ga_naar_hut_in_moeras -->
<g id="node17" class="node">
<title>ga_naar_hut_in_moeras</title>
<path fill="#3333aa" stroke="#3333aa" d="M85.3804,-948.5C85.3804,-948.5 209.5348,-948.5 209.5348,-948.5 215.5348,-948.5 221.5348,-954.5 221.5348,-960.5 221.5348,-960.5 221.5348,-972.5 221.5348,-972.5 221.5348,-978.5 215.5348,-984.5 209.5348,-984.5 209.5348,-984.5 85.3804,-984.5 85.3804,-984.5 79.3804,-984.5 73.3804,-978.5 73.3804,-972.5 73.3804,-972.5 73.3804,-960.5 73.3804,-960.5 73.3804,-954.5 79.3804,-948.5 85.3804,-948.5"/>
<text text-anchor="middle" x="147.4576" y="-962.3" font-family="lato, roboto, helvetica" font-size="14.00" fill="#eeeeee">Ga Naar Hut In Moeras</text>
</g>
<!-- praat_met_heks -->
<g id="node23" class="node">
<title>praat_met_heks</title>
<path fill="#3333aa" stroke="#3333aa" d="M107.9183,-875.5C107.9183,-875.5 186.9969,-875.5 186.9969,-875.5 192.9969,-875.5 198.9969,-881.5 198.9969,-887.5 198.9969,-887.5 198.9969,-899.5 198.9969,-899.5 198.9969,-905.5 192.9969,-911.5 186.9969,-911.5 186.9969,-911.5 107.9183,-911.5 107.9183,-911.5 101.9183,-911.5 95.9183,-905.5 95.9183,-899.5 95.9183,-899.5 95.9183,-887.5 95.9183,-887.5 95.9183,-881.5 101.9183,-875.5 107.9183,-875.5"/>
<text text-anchor="middle" x="147.4576" y="-889.3" font-family="lato, roboto, helvetica" font-size="14.00" fill="#eeeeee">Praat Met Heks</text>
</g>
<!-- ga_naar_hut_in_moeras&#45;&gt;praat_met_heks -->
<g id="edge52" class="edge">
<title>ga_naar_hut_in_moeras&#45;&gt;praat_met_heks</title>
<path fill="none" stroke="#999999" d="M147.4576,-948.4551C147.4576,-939.7686 147.4576,-929.1898 147.4576,-919.642"/>
<polygon fill="#999999" stroke="#999999" points="150.2577,-919.5903 147.4576,-911.5904 144.6577,-919.5904 150.2577,-919.5903"/>
</g>
<!-- praat_met_bakker&#45;&gt;ga_naar_hut_in_moeras -->
<g id="edge9" class="edge">
<title>praat_met_bakker&#45;&gt;ga_naar_hut_in_moeras</title>
<path fill="none" stroke="#999999" d="M153.5852,-1094.3042C152.3643,-1068.8403 150.1383,-1022.4108 148.7318,-993.0759"/>
<polygon fill="#999999" stroke="#999999" points="151.521,-992.7818 148.341,-984.9251 145.9274,-993.0501 151.521,-992.7818"/>
</g>
<!-- geef_dwerg_eten -->
<g id="node19" class="node">
<title>geef_dwerg_eten</title>
<path fill="#3333aa" stroke="#3333aa" d="M244.4863,-1094.5C244.4863,-1094.5 334.4289,-1094.5 334.4289,-1094.5 340.4289,-1094.5 346.4289,-1100.5 346.4289,-1106.5 346.4289,-1106.5 346.4289,-1118.5 346.4289,-1118.5 346.4289,-1124.5 340.4289,-1130.5 334.4289,-1130.5 334.4289,-1130.5 244.4863,-1130.5 244.4863,-1130.5 238.4863,-1130.5 232.4863,-1124.5 232.4863,-1118.5 232.4863,-1118.5 232.4863,-1106.5 232.4863,-1106.5 232.4863,-1100.5 238.4863,-1094.5 244.4863,-1094.5"/>
<text text-anchor="middle" x="289.4576" y="-1108.3" font-family="lato, roboto, helvetica" font-size="14.00" fill="#eeeeee">Geef Dwerg Eten</text>
</g>
<!-- krijg_edelsteen_van_dwerg -->
<g id="node24" class="node">
<title>krijg_edelsteen_van_dwerg</title>
<path fill="#3333aa" stroke="#3333aa" d="M228.5175,-875.5C228.5175,-875.5 376.3977,-875.5 376.3977,-875.5 382.3977,-875.5 388.3977,-881.5 388.3977,-887.5 388.3977,-887.5 388.3977,-899.5 388.3977,-899.5 388.3977,-905.5 382.3977,-911.5 376.3977,-911.5 376.3977,-911.5 228.5175,-911.5 228.5175,-911.5 222.5175,-911.5 216.5175,-905.5 216.5175,-899.5 216.5175,-899.5 216.5175,-887.5 216.5175,-887.5 216.5175,-881.5 222.5175,-875.5 228.5175,-875.5"/>
<text text-anchor="middle" x="302.4576" y="-889.3" font-family="lato, roboto, helvetica" font-size="14.00" fill="#eeeeee">Krijg Edelsteen Van Dwerg</text>
</g>
<!-- geef_dwerg_eten&#45;&gt;krijg_edelsteen_van_dwerg -->
<g id="edge25" class="edge">
<title>geef_dwerg_eten&#45;&gt;krijg_edelsteen_van_dwerg</title>
<path fill="none" stroke="#999999" d="M282.4731,-1094.371C271.6734,-1063.6758 253.6365,-999.7586 268.4576,-948 271.413,-937.6792 276.9534,-927.4139 282.7169,-918.6217"/>
<polygon fill="#999999" stroke="#999999" points="285.1061,-920.0892 287.3417,-911.9135 280.4956,-916.9106 285.1061,-920.0892"/>
</g>
<!-- pak_hendel_in_mijn -->
<g id="node46" class="node">
<title>pak_hendel_in_mijn</title>
<path fill="#3333aa" stroke="#3333aa" d="M396.0526,-802.5C396.0526,-802.5 498.8626,-802.5 498.8626,-802.5 504.8626,-802.5 510.8626,-808.5 510.8626,-814.5 510.8626,-814.5 510.8626,-826.5 510.8626,-826.5 510.8626,-832.5 504.8626,-838.5 498.8626,-838.5 498.8626,-838.5 396.0526,-838.5 396.0526,-838.5 390.0526,-838.5 384.0526,-832.5 384.0526,-826.5 384.0526,-826.5 384.0526,-814.5 384.0526,-814.5 384.0526,-808.5 390.0526,-802.5 396.0526,-802.5"/>
<text text-anchor="middle" x="447.4576" y="-816.3" font-family="lato, roboto, helvetica" font-size="14.00" fill="#eeeeee">Pak Hendel In Mijn</text>
</g>
<!-- geef_dwerg_eten&#45;&gt;pak_hendel_in_mijn -->
<g id="edge40" class="edge">
<title>geef_dwerg_eten&#45;&gt;pak_hendel_in_mijn</title>
<path fill="none" stroke="#999999" d="M329.6688,-1094.3385C369.1789,-1074.0204 427.1156,-1036.9965 452.4576,-985 474.1526,-940.4862 464.1809,-880.8487 455.4757,-846.9671"/>
<polygon fill="#999999" stroke="#999999" points="458.0957,-845.9284 453.3099,-838.933 452.6888,-847.3861 458.0957,-845.9284"/>
</g>
<!-- praat_met_dwerg&#45;&gt;geef_dwerg_eten -->
<g id="edge10" class="edge">
<title>praat_met_dwerg&#45;&gt;geef_dwerg_eten</title>
<path fill="none" stroke="#999999" d="M419.6935,-1167.4551C395.5731,-1157.277 365.2954,-1144.5009 340.0054,-1133.8294"/>
<polygon fill="#999999" stroke="#999999" points="340.7885,-1131.1208 332.3293,-1130.5904 338.6114,-1136.2803 340.7885,-1131.1208"/>
</g>
<!-- krijg_kapotte_houweel_van_dwerg -->
<g id="node39" class="node">
<title>krijg_kapotte_houweel_van_dwerg</title>
<path fill="#3333aa" stroke="#3333aa" d="M376.5536,-1094.5C376.5536,-1094.5 568.3616,-1094.5 568.3616,-1094.5 574.3616,-1094.5 580.3616,-1100.5 580.3616,-1106.5 580.3616,-1106.5 580.3616,-1118.5 580.3616,-1118.5 580.3616,-1124.5 574.3616,-1130.5 568.3616,-1130.5 568.3616,-1130.5 376.5536,-1130.5 376.5536,-1130.5 370.5536,-1130.5 364.5536,-1124.5 364.5536,-1118.5 364.5536,-1118.5 364.5536,-1106.5 364.5536,-1106.5 364.5536,-1100.5 370.5536,-1094.5 376.5536,-1094.5"/>
<text text-anchor="middle" x="472.4576" y="-1108.3" font-family="lato, roboto, helvetica" font-size="14.00" fill="#eeeeee">Krijg Kapotte Houweel Van Dwerg</text>
</g>
<!-- praat_met_dwerg&#45;&gt;krijg_kapotte_houweel_van_dwerg -->
<g id="edge29" class="edge">
<title>praat_met_dwerg&#45;&gt;krijg_kapotte_houweel_van_dwerg</title>
<path fill="none" stroke="#999999" d="M464.9295,-1167.4551C466.1194,-1158.7686 467.5686,-1148.1898 468.8765,-1138.642"/>
<polygon fill="#999999" stroke="#999999" points="471.6677,-1138.8964 469.9795,-1130.5904 466.1195,-1138.1363 471.6677,-1138.8964"/>
</g>
<!-- koop_eten_bij_bakker&#45;&gt;geef_dwerg_eten -->
<g id="edge11" class="edge">
<title>koop_eten_bij_bakker&#45;&gt;geef_dwerg_eten</title>
<path fill="none" stroke="#999999" d="M296.2329,-1167.4551C295.162,-1158.7686 293.8577,-1148.1898 292.6806,-1138.642"/>
<polygon fill="#999999" stroke="#999999" points="295.4459,-1138.1876 291.6879,-1130.5904 289.8879,-1138.8729 295.4459,-1138.1876"/>
</g>
<!-- geef_edelsteen_aan_heks -->
<g id="node22" class="node">
<title>geef_edelsteen_aan_heks</title>
<path fill="#3333aa" stroke="#3333aa" d="M194.3548,-802.5C194.3548,-802.5 330.5604,-802.5 330.5604,-802.5 336.5604,-802.5 342.5604,-808.5 342.5604,-814.5 342.5604,-814.5 342.5604,-826.5 342.5604,-826.5 342.5604,-832.5 336.5604,-838.5 330.5604,-838.5 330.5604,-838.5 194.3548,-838.5 194.3548,-838.5 188.3548,-838.5 182.3548,-832.5 182.3548,-826.5 182.3548,-826.5 182.3548,-814.5 182.3548,-814.5 182.3548,-808.5 188.3548,-802.5 194.3548,-802.5"/>
<text text-anchor="middle" x="262.4576" y="-816.3" font-family="lato, roboto, helvetica" font-size="14.00" fill="#eeeeee">Geef Edelsteen Aan Heks</text>
</g>
<!-- krijg_ingredientenlijst_van_heks -->
<g id="node38" class="node">
<title>krijg_ingredientenlijst_van_heks</title>
<path fill="#3333aa" stroke="#3333aa" d="M174.5133,-291.5C174.5133,-291.5 350.4019,-291.5 350.4019,-291.5 356.4019,-291.5 362.4019,-297.5 362.4019,-303.5 362.4019,-303.5 362.4019,-315.5 362.4019,-315.5 362.4019,-321.5 356.4019,-327.5 350.4019,-327.5 350.4019,-327.5 174.5133,-327.5 174.5133,-327.5 168.5133,-327.5 162.5133,-321.5 162.5133,-315.5 162.5133,-315.5 162.5133,-303.5 162.5133,-303.5 162.5133,-297.5 168.5133,-291.5 174.5133,-291.5"/>
<text text-anchor="middle" x="262.4576" y="-305.3" font-family="lato, roboto, helvetica" font-size="14.00" fill="#eeeeee">Krijg Ingredientenlijst Van Heks</text>
</g>
<!-- geef_edelsteen_aan_heks&#45;&gt;krijg_ingredientenlijst_van_heks -->
<g id="edge28" class="edge">
<title>geef_edelsteen_aan_heks&#45;&gt;krijg_ingredientenlijst_van_heks</title>
<path fill="none" stroke="#999999" d="M262.4576,-802.062C262.4576,-774.3663 262.4576,-720.3785 262.4576,-674.5 262.4576,-674.5 262.4576,-674.5 262.4576,-455.5 262.4576,-413.7434 262.4576,-365.2692 262.4576,-336.0145"/>
<polygon fill="#999999" stroke="#999999" points="265.2577,-335.9379 262.4576,-327.938 259.6577,-335.938 265.2577,-335.9379"/>
</g>
<!-- praat_met_heks&#45;&gt;geef_edelsteen_aan_heks -->
<g id="edge12" class="edge">
<title>praat_met_heks&#45;&gt;geef_edelsteen_aan_heks</title>
<path fill="none" stroke="#999999" d="M175.8846,-875.4551C191.3655,-865.628 210.662,-853.3789 227.1058,-842.9407"/>
<polygon fill="#999999" stroke="#999999" points="228.7056,-845.2418 233.9591,-838.5904 225.7043,-840.5139 228.7056,-845.2418"/>
</g>
<!-- praat_met_heks&#45;&gt;krijg_ingredientenlijst_van_heks -->
<g id="edge27" class="edge">
<title>praat_met_heks&#45;&gt;krijg_ingredientenlijst_van_heks</title>
<path fill="none" stroke="#999999" d="M148.7008,-875.072C150.4582,-847.389 153.4576,-793.4172 153.4576,-747.5 153.4576,-747.5 153.4576,-747.5 153.4576,-455.5 153.4576,-403.9676 197.5997,-358.897 229.7021,-332.9331"/>
<polygon fill="#999999" stroke="#999999" points="231.804,-334.8413 236.3494,-327.6873 228.3348,-330.4453 231.804,-334.8413"/>
</g>
<!-- krijg_edelsteen_van_dwerg&#45;&gt;geef_edelsteen_aan_heks -->
<g id="edge13" class="edge">
<title>krijg_edelsteen_van_dwerg&#45;&gt;geef_edelsteen_aan_heks</title>
<path fill="none" stroke="#999999" d="M292.57,-875.4551C287.666,-866.5054 281.6614,-855.547 276.308,-845.7769"/>
<polygon fill="#999999" stroke="#999999" points="278.67,-844.2607 272.3701,-838.5904 273.7589,-846.9517 278.67,-844.2607"/>
</g>
<!-- geef_houweel_aan_dwerg -->
<g id="node25" class="node">
<title>geef_houweel_aan_dwerg</title>
<path fill="#3333aa" stroke="#3333aa" d="M289.6381,-948.5C289.6381,-948.5 431.2771,-948.5 431.2771,-948.5 437.2771,-948.5 443.2771,-954.5 443.2771,-960.5 443.2771,-960.5 443.2771,-972.5 443.2771,-972.5 443.2771,-978.5 437.2771,-984.5 431.2771,-984.5 431.2771,-984.5 289.6381,-984.5 289.6381,-984.5 283.6381,-984.5 277.6381,-978.5 277.6381,-972.5 277.6381,-972.5 277.6381,-960.5 277.6381,-960.5 277.6381,-954.5 283.6381,-948.5 289.6381,-948.5"/>
<text text-anchor="middle" x="360.4576" y="-962.3" font-family="lato, roboto, helvetica" font-size="14.00" fill="#eeeeee">Geef Houweel Aan Dwerg</text>
</g>
<!-- geef_houweel_aan_dwerg&#45;&gt;krijg_edelsteen_van_dwerg -->
<g id="edge24" class="edge">
<title>geef_houweel_aan_dwerg&#45;&gt;krijg_edelsteen_van_dwerg</title>
<path fill="none" stroke="#999999" d="M346.1205,-948.4551C338.8007,-939.2422 329.7896,-927.9006 321.8582,-917.918"/>
<polygon fill="#999999" stroke="#999999" points="323.9997,-916.1122 316.8308,-911.5904 319.6151,-919.5959 323.9997,-916.1122"/>
</g>
<!-- repareer_houweel -->
<g id="node26" class="node">
<title>repareer_houweel</title>
<path fill="#3333aa" stroke="#3333aa" d="M511.183,-1021.5C511.183,-1021.5 607.7322,-1021.5 607.7322,-1021.5 613.7322,-1021.5 619.7322,-1027.5 619.7322,-1033.5 619.7322,-1033.5 619.7322,-1045.5 619.7322,-1045.5 619.7322,-1051.5 613.7322,-1057.5 607.7322,-1057.5 607.7322,-1057.5 511.183,-1057.5 511.183,-1057.5 505.183,-1057.5 499.183,-1051.5 499.183,-1045.5 499.183,-1045.5 499.183,-1033.5 499.183,-1033.5 499.183,-1027.5 505.183,-1021.5 511.183,-1021.5"/>
<text text-anchor="middle" x="559.4576" y="-1035.3" font-family="lato, roboto, helvetica" font-size="14.00" fill="#eeeeee">Repareer Houweel</text>
</g>
<!-- repareer_houweel&#45;&gt;geef_houweel_aan_dwerg -->
<g id="edge14" class="edge">
<title>repareer_houweel&#45;&gt;geef_houweel_aan_dwerg</title>
<path fill="none" stroke="#999999" d="M510.2666,-1021.4551C482.1623,-1011.1454 446.7911,-998.1701 417.4766,-987.4165"/>
<polygon fill="#999999" stroke="#999999" points="418.2473,-984.7169 409.7724,-984.5904 416.3187,-989.9743 418.2473,-984.7169"/>
</g>
<!-- geef_leer_aan_hoefsmid -->
<g id="node27" class="node">
<title>geef_leer_aan_hoefsmid</title>
<path fill="#3333aa" stroke="#3333aa" d="M855.5238,-218.5C855.5238,-218.5 989.3914,-218.5 989.3914,-218.5 995.3914,-218.5 1001.3914,-224.5 1001.3914,-230.5 1001.3914,-230.5 1001.3914,-242.5 1001.3914,-242.5 1001.3914,-248.5 995.3914,-254.5 989.3914,-254.5 989.3914,-254.5 855.5238,-254.5 855.5238,-254.5 849.5238,-254.5 843.5238,-248.5 843.5238,-242.5 843.5238,-242.5 843.5238,-230.5 843.5238,-230.5 843.5238,-224.5 849.5238,-218.5 855.5238,-218.5"/>
<text text-anchor="middle" x="922.4576" y="-232.3" font-family="lato, roboto, helvetica" font-size="14.00" fill="#eeeeee">Geef Leer Aan Hoefsmid</text>
</g>
<!-- maak_zadel_bij_hoefsmid -->
<g id="node45" class="node">
<title>maak_zadel_bij_hoefsmid</title>
<path fill="#3333aa" stroke="#3333aa" d="M851.1718,-145.5C851.1718,-145.5 989.7434,-145.5 989.7434,-145.5 995.7434,-145.5 1001.7434,-151.5 1001.7434,-157.5 1001.7434,-157.5 1001.7434,-169.5 1001.7434,-169.5 1001.7434,-175.5 995.7434,-181.5 989.7434,-181.5 989.7434,-181.5 851.1718,-181.5 851.1718,-181.5 845.1718,-181.5 839.1718,-175.5 839.1718,-169.5 839.1718,-169.5 839.1718,-157.5 839.1718,-157.5 839.1718,-151.5 845.1718,-145.5 851.1718,-145.5"/>
<text text-anchor="middle" x="920.4576" y="-159.3" font-family="lato, roboto, helvetica" font-size="14.00" fill="#eeeeee">Maak Zadel Bij Hoefsmid</text>
</g>
<!-- geef_leer_aan_hoefsmid&#45;&gt;maak_zadel_bij_hoefsmid -->
<g id="edge39" class="edge">
<title>geef_leer_aan_hoefsmid&#45;&gt;maak_zadel_bij_hoefsmid</title>
<path fill="none" stroke="#999999" d="M921.9632,-218.4551C921.7252,-209.7686 921.4354,-199.1898 921.1738,-189.642"/>
<polygon fill="#999999" stroke="#999999" points="923.9714,-189.5106 920.9532,-181.5904 918.3735,-189.6641 923.9714,-189.5106"/>
</g>
<!-- pak_stuk_leer_in_toren&#45;&gt;geef_leer_aan_hoefsmid -->
<g id="edge15" class="edge">
<title>pak_stuk_leer_in_toren&#45;&gt;geef_leer_aan_hoefsmid</title>
<path fill="none" stroke="#999999" d="M926.2216,-291.4551C925.6267,-282.7686 924.9021,-272.1898 924.2481,-262.642"/>
<polygon fill="#999999" stroke="#999999" points="927.0369,-262.3803 923.6967,-254.5904 921.45,-262.763 927.0369,-262.3803"/>
</g>
<!-- haal_wagen_in_dorp_met_paard -->
<g id="node30" class="node">
<title>haal_wagen_in_dorp_met_paard</title>
<path fill="#3333aa" stroke="#3333aa" d="M687.2475,-948.5C687.2475,-948.5 857.6677,-948.5 857.6677,-948.5 863.6677,-948.5 869.6677,-954.5 869.6677,-960.5 869.6677,-960.5 869.6677,-972.5 869.6677,-972.5 869.6677,-978.5 863.6677,-984.5 857.6677,-984.5 857.6677,-984.5 687.2475,-984.5 687.2475,-984.5 681.2475,-984.5 675.2475,-978.5 675.2475,-972.5 675.2475,-972.5 675.2475,-960.5 675.2475,-960.5 675.2475,-954.5 681.2475,-948.5 687.2475,-948.5"/>
<text text-anchor="middle" x="772.4576" y="-962.3" font-family="lato, roboto, helvetica" font-size="14.00" fill="#eeeeee">Haal Wagen In Dorp Met Paard</text>
</g>
<!-- geef_paard_nieuwe_hoefijzers&#45;&gt;haal_wagen_in_dorp_met_paard -->
<g id="edge17" class="edge">
<title>geef_paard_nieuwe_hoefijzers&#45;&gt;haal_wagen_in_dorp_met_paard</title>
<path fill="none" stroke="#999999" d="M770.952,-1021.4551C771.19,-1012.7686 771.4798,-1002.1898 771.7414,-992.642"/>
<polygon fill="#999999" stroke="#999999" points="774.5417,-992.6641 771.962,-984.5904 768.9438,-992.5106 774.5417,-992.6641"/>
</g>
<!-- haal_wagen_in_dorp_met_paard&#45;&gt;zet_graan_op_wagen -->
<g id="edge59" class="edge">
<title>haal_wagen_in_dorp_met_paard&#45;&gt;zet_graan_op_wagen</title>
<path fill="none" stroke="#999999" d="M748.7273,-948.4551C736.0348,-938.8035 720.2699,-926.8156 706.7063,-916.5016"/>
<polygon fill="#999999" stroke="#999999" points="708.3105,-914.2039 700.2477,-911.5904 704.9209,-918.6616 708.3105,-914.2039"/>
</g>
<!-- hijs_lift_met_molensteen -->
<g id="node31" class="node">
<title>hijs_lift_met_molensteen</title>
<path fill="#3333aa" stroke="#3333aa" d="M510.1122,-218.5C510.1122,-218.5 644.803,-218.5 644.803,-218.5 650.803,-218.5 656.803,-224.5 656.803,-230.5 656.803,-230.5 656.803,-242.5 656.803,-242.5 656.803,-248.5 650.803,-254.5 644.803,-254.5 644.803,-254.5 510.1122,-254.5 510.1122,-254.5 504.1122,-254.5 498.1122,-248.5 498.1122,-242.5 498.1122,-242.5 498.1122,-230.5 498.1122,-230.5 498.1122,-224.5 504.1122,-218.5 510.1122,-218.5"/>
<text text-anchor="middle" x="577.4576" y="-232.3" font-family="lato, roboto, helvetica" font-size="14.00" fill="#eeeeee">Hijs Lift Met Molensteen</text>
</g>
<!-- zet_hendel_op_lift -->
<g id="node32" class="node">
<title>zet_hendel_op_lift</title>
<path fill="#3333aa" stroke="#3333aa" d="M378.615,-729.5C378.615,-729.5 478.3002,-729.5 478.3002,-729.5 484.3002,-729.5 490.3002,-735.5 490.3002,-741.5 490.3002,-741.5 490.3002,-753.5 490.3002,-753.5 490.3002,-759.5 484.3002,-765.5 478.3002,-765.5 478.3002,-765.5 378.615,-765.5 378.615,-765.5 372.615,-765.5 366.615,-759.5 366.615,-753.5 366.615,-753.5 366.615,-741.5 366.615,-741.5 366.615,-735.5 372.615,-729.5 378.615,-729.5"/>
<text text-anchor="middle" x="428.4576" y="-743.3" font-family="lato, roboto, helvetica" font-size="14.00" fill="#eeeeee">Zet Hendel Op Lift</text>
</g>
<!-- zet_hendel_op_lift&#45;&gt;hijs_lift_met_molensteen -->
<g id="edge18" class="edge">
<title>zet_hendel_op_lift&#45;&gt;hijs_lift_met_molensteen</title>
<path fill="none" stroke="#999999" d="M424.728,-729.1515C419.4557,-701.5699 410.4576,-647.7258 410.4576,-601.5 410.4576,-601.5 410.4576,-601.5 410.4576,-382.5 410.4576,-338.9598 415.0762,-322.1885 445.4576,-291 459.6612,-276.419 478.3312,-265.585 497.1417,-257.5942"/>
<polygon fill="#999999" stroke="#999999" points="498.2669,-260.1595 504.63,-254.5603 496.164,-254.9693 498.2669,-260.1595"/>
</g>
<!-- leg_molensteen_op_lift&#45;&gt;hijs_lift_met_molensteen -->
<g id="edge19" class="edge">
<title>leg_molensteen_op_lift&#45;&gt;hijs_lift_met_molensteen</title>
<path fill="none" stroke="#999999" d="M542.0756,-291.4551C547.8942,-282.4177 555.0316,-271.3319 561.3682,-261.4899"/>
<polygon fill="#999999" stroke="#999999" points="563.8339,-262.8326 565.8104,-254.5904 559.1254,-259.801 563.8339,-262.8326"/>
</g>
<!-- knoop_touw_aan_molensteen -->
<g id="node34" class="node">
<title>knoop_touw_aan_molensteen</title>
<path fill="#3333aa" stroke="#3333aa" d="M813.507,-510.5C813.507,-510.5 975.4082,-510.5 975.4082,-510.5 981.4082,-510.5 987.4082,-516.5 987.4082,-522.5 987.4082,-522.5 987.4082,-534.5 987.4082,-534.5 987.4082,-540.5 981.4082,-546.5 975.4082,-546.5 975.4082,-546.5 813.507,-546.5 813.507,-546.5 807.507,-546.5 801.507,-540.5 801.507,-534.5 801.507,-534.5 801.507,-522.5 801.507,-522.5 801.507,-516.5 807.507,-510.5 813.507,-510.5"/>
<text text-anchor="middle" x="894.4576" y="-524.3" font-family="lato, roboto, helvetica" font-size="14.00" fill="#eeeeee">Knoop Touw Aan Molensteen</text>
</g>
<!-- knoop_touw_aan_molensteen&#45;&gt;snij_touw_van_lift -->
<g id="edge56" class="edge">
<title>knoop_touw_aan_molensteen&#45;&gt;snij_touw_van_lift</title>
<path fill="none" stroke="#999999" d="M894.4576,-510.4551C894.4576,-501.7686 894.4576,-491.1898 894.4576,-481.642"/>
<polygon fill="#999999" stroke="#999999" points="897.2577,-481.5903 894.4576,-473.5904 891.6577,-481.5904 897.2577,-481.5903"/>
</g>
<!-- pak_touw_op_boerderij&#45;&gt;knoop_touw_aan_molensteen -->
<g id="edge20" class="edge">
<title>pak_touw_op_boerderij&#45;&gt;knoop_touw_aan_molensteen</title>
<path fill="none" stroke="#999999" d="M896.716,-583.4551C896.3591,-574.7686 895.9243,-564.1898 895.5319,-554.642"/>
<polygon fill="#999999" stroke="#999999" points="898.3273,-554.4686 895.201,-546.5904 892.732,-554.6986 898.3273,-554.4686"/>
</g>
<!-- knoop_touw_aan_tand -->
<g id="node36" class="node">
<title>knoop_touw_aan_tand</title>
<path fill="#3333aa" stroke="#3333aa" d="M1017.7805,-510.5C1017.7805,-510.5 1143.1347,-510.5 1143.1347,-510.5 1149.1347,-510.5 1155.1347,-516.5 1155.1347,-522.5 1155.1347,-522.5 1155.1347,-534.5 1155.1347,-534.5 1155.1347,-540.5 1149.1347,-546.5 1143.1347,-546.5 1143.1347,-546.5 1017.7805,-546.5 1017.7805,-546.5 1011.7805,-546.5 1005.7805,-540.5 1005.7805,-534.5 1005.7805,-534.5 1005.7805,-522.5 1005.7805,-522.5 1005.7805,-516.5 1011.7805,-510.5 1017.7805,-510.5"/>
<text text-anchor="middle" x="1080.4576" y="-524.3" font-family="lato, roboto, helvetica" font-size="14.00" fill="#eeeeee">Knoop Touw Aan Tand</text>
</g>
<!-- pak_touw_op_boerderij&#45;&gt;knoop_touw_aan_tand -->
<g id="edge21" class="edge">
<title>pak_touw_op_boerderij&#45;&gt;knoop_touw_aan_tand</title>
<path fill="none" stroke="#999999" d="M942.6936,-583.4551C968.3183,-573.2332 1000.5123,-560.3907 1027.3336,-549.6916"/>
<polygon fill="#999999" stroke="#999999" points="1028.7146,-552.1553 1035.1078,-546.5904 1026.6397,-546.9538 1028.7146,-552.1553"/>
</g>
<!-- knoop_touw_aan_tand&#45;&gt;snij_touw_van_lift -->
<g id="edge57" class="edge">
<title>knoop_touw_aan_tand&#45;&gt;snij_touw_van_lift</title>
<path fill="none" stroke="#999999" d="M1034.4801,-510.4551C1008.3235,-500.1893 975.4324,-487.2804 948.1018,-476.5539"/>
<polygon fill="#999999" stroke="#999999" points="949.0208,-473.9067 940.5508,-473.5904 946.9749,-479.1196 949.0208,-473.9067"/>
</g>
<!-- krijg_geld_van_meel&#45;&gt;koop_zwaard_bij_wapensmid -->
<g id="edge23" class="edge">
<title>krijg_geld_van_meel&#45;&gt;koop_zwaard_bij_wapensmid</title>
<path fill="none" stroke="#999999" d="M693.716,-583.4551C693.3591,-574.7686 692.9243,-564.1898 692.5319,-554.642"/>
<polygon fill="#999999" stroke="#999999" points="695.3273,-554.4686 692.201,-546.5904 689.732,-554.6986 695.3273,-554.4686"/>
</g>
<!-- krijg_ingredientenlijst_van_heks&#45;&gt;pak_tand_van_draak -->
<g id="edge43" class="edge">
<title>krijg_ingredientenlijst_van_heks&#45;&gt;pak_tand_van_draak</title>
<path fill="none" stroke="#999999" d="M299.7835,-291.4551C320.6551,-281.3648 346.8087,-268.721 368.766,-258.1059"/>
<polygon fill="#999999" stroke="#999999" points="370.054,-260.5933 376.0378,-254.5904 367.6166,-255.5515 370.054,-260.5933"/>
</g>
<!-- pluk_kruiden_in_bos -->
<g id="node41" class="node">
<title>pluk_kruiden_in_bos</title>
<path fill="#3333aa" stroke="#3333aa" d="M208.7139,-218.5C208.7139,-218.5 316.2013,-218.5 316.2013,-218.5 322.2013,-218.5 328.2013,-224.5 328.2013,-230.5 328.2013,-230.5 328.2013,-242.5 328.2013,-242.5 328.2013,-248.5 322.2013,-254.5 316.2013,-254.5 316.2013,-254.5 208.7139,-254.5 208.7139,-254.5 202.7139,-254.5 196.7139,-248.5 196.7139,-242.5 196.7139,-242.5 196.7139,-230.5 196.7139,-230.5 196.7139,-224.5 202.7139,-218.5 208.7139,-218.5"/>
<text text-anchor="middle" x="262.4576" y="-232.3" font-family="lato, roboto, helvetica" font-size="14.00" fill="#eeeeee">Pluk Kruiden In Bos</text>
</g>
<!-- krijg_ingredientenlijst_van_heks&#45;&gt;pluk_kruiden_in_bos -->
<g id="edge46" class="edge">
<title>krijg_ingredientenlijst_van_heks&#45;&gt;pluk_kruiden_in_bos</title>
<path fill="none" stroke="#999999" d="M262.4576,-291.4551C262.4576,-282.7686 262.4576,-272.1898 262.4576,-262.642"/>
<polygon fill="#999999" stroke="#999999" points="265.2577,-262.5903 262.4576,-254.5904 259.6577,-262.5904 265.2577,-262.5903"/>
</g>
<!-- pluk_paddenstoelen_in_woud -->
<g id="node42" class="node">
<title>pluk_paddenstoelen_in_woud</title>
<path fill="#3333aa" stroke="#3333aa" d="M12,-218.5C12,-218.5 166.9152,-218.5 166.9152,-218.5 172.9152,-218.5 178.9152,-224.5 178.9152,-230.5 178.9152,-230.5 178.9152,-242.5 178.9152,-242.5 178.9152,-248.5 172.9152,-254.5 166.9152,-254.5 166.9152,-254.5 12,-254.5 12,-254.5 6,-254.5 0,-248.5 0,-242.5 0,-242.5 0,-230.5 0,-230.5 0,-224.5 6,-218.5 12,-218.5"/>
<text text-anchor="middle" x="89.4576" y="-232.3" font-family="lato, roboto, helvetica" font-size="14.00" fill="#eeeeee">Pluk Paddenstoelen In Woud</text>
</g>
<!-- krijg_ingredientenlijst_van_heks&#45;&gt;pluk_paddenstoelen_in_woud -->
<g id="edge47" class="edge">
<title>krijg_ingredientenlijst_van_heks&#45;&gt;pluk_paddenstoelen_in_woud</title>
<path fill="none" stroke="#999999" d="M219.6935,-291.4551C195.5731,-281.277 165.2954,-268.5009 140.0054,-257.8294"/>
<polygon fill="#999999" stroke="#999999" points="140.7885,-255.1208 132.3293,-254.5904 138.6114,-260.2803 140.7885,-255.1208"/>
</g>
<!-- krijg_ingredientenlijst_van_heks&#45;&gt;krijg_taart_van_bakker -->
<g id="edge35" class="edge">
<title>krijg_ingredientenlijst_van_heks&#45;&gt;krijg_taart_van_bakker</title>
<path fill="none" stroke="#999999" d="M362.5965,-298.2821C444.3555,-288.5657 562.747,-273.2235 665.4576,-255 665.7333,-254.9511 666.0094,-254.9019 666.286,-254.8524"/>
<polygon fill="#999999" stroke="#999999" points="667.0559,-257.5576 674.4129,-253.3487 666.037,-252.0511 667.0559,-257.5576"/>
</g>
<!-- krijg_kapotte_houweel_van_dwerg&#45;&gt;repareer_houweel -->
<g id="edge54" class="edge">
<title>krijg_kapotte_houweel_van_dwerg&#45;&gt;repareer_houweel</title>
<path fill="none" stroke="#999999" d="M493.9632,-1094.4551C505.3612,-1084.8912 519.4931,-1073.0334 531.709,-1062.7833"/>
<polygon fill="#999999" stroke="#999999" points="533.5692,-1064.8776 537.8979,-1057.5904 529.9696,-1060.5877 533.5692,-1064.8776"/>
</g>
<!-- pak_tand_van_draak&#45;&gt;krijg_medicijn_van_heks -->
<g id="edge30" class="edge">
<title>pak_tand_van_draak&#45;&gt;krijg_medicijn_van_heks</title>
<path fill="none" stroke="#999999" d="M413.4576,-218.4551C413.4576,-209.7686 413.4576,-199.1898 413.4576,-189.642"/>
<polygon fill="#999999" stroke="#999999" points="416.2577,-189.5903 413.4576,-181.5904 410.6577,-189.5904 416.2577,-189.5903"/>
</g>
<!-- pluk_kruiden_in_bos&#45;&gt;krijg_medicijn_van_heks -->
<g id="edge31" class="edge">
<title>pluk_kruiden_in_bos&#45;&gt;krijg_medicijn_van_heks</title>
<path fill="none" stroke="#999999" d="M299.7835,-218.4551C320.6551,-208.3648 346.8087,-195.721 368.766,-185.1059"/>
<polygon fill="#999999" stroke="#999999" points="370.054,-187.5933 376.0378,-181.5904 367.6166,-182.5515 370.054,-187.5933"/>
</g>
<!-- pluk_paddenstoelen_in_woud&#45;&gt;krijg_medicijn_van_heks -->
<g id="edge32" class="edge">
<title>pluk_paddenstoelen_in_woud&#45;&gt;krijg_medicijn_van_heks</title>
<path fill="none" stroke="#999999" d="M169.5475,-218.4551C217.0319,-207.7564 277.2575,-194.1871 325.9823,-183.2089"/>
<polygon fill="#999999" stroke="#999999" points="326.8198,-185.8905 334.0087,-181.4005 325.5889,-180.4275 326.8198,-185.8905"/>
</g>
<!-- krijg_taart_van_bakker&#45;&gt;krijg_medicijn_van_heks -->
<g id="edge33" class="edge">
<title>krijg_taart_van_bakker&#45;&gt;krijg_medicijn_van_heks</title>
<path fill="none" stroke="#999999" d="M674.3549,-219.9448C671.3501,-219.2871 668.3755,-218.6368 665.4576,-218 610.7755,-206.0655 549.3916,-192.7875 500.8979,-182.3256"/>
<polygon fill="#999999" stroke="#999999" points="501.3328,-179.555 492.9222,-180.6052 500.152,-185.0291 501.3328,-179.555"/>
</g>
<!-- praat_met_dochter_van_bakker&#45;&gt;leg_molensteen_op_lift -->
<g id="edge38" class="edge">
<title>praat_met_dochter_van_bakker&#45;&gt;leg_molensteen_op_lift</title>
<path fill="none" stroke="#999999" d="M637.3565,-364.4551C617.8995,-354.4525 593.5614,-341.9407 573.025,-331.3833"/>
<polygon fill="#999999" stroke="#999999" points="574.0422,-328.7579 565.6471,-327.5904 571.4818,-333.7383 574.0422,-328.7579"/>
</g>
<!-- maak_zadel_bij_hoefsmid&#45;&gt;zet_zadel_op_draak -->
<g id="edge63" class="edge">
<title>maak_zadel_bij_hoefsmid&#45;&gt;zet_zadel_op_draak</title>
<path fill="none" stroke="#999999" d="M920.4576,-145.4551C920.4576,-136.7686 920.4576,-126.1898 920.4576,-116.642"/>
<polygon fill="#999999" stroke="#999999" points="923.2577,-116.5903 920.4576,-108.5904 917.6577,-116.5904 923.2577,-116.5903"/>
</g>
<!-- pak_hendel_in_mijn&#45;&gt;zet_hendel_op_lift -->
<g id="edge61" class="edge">
<title>pak_hendel_in_mijn&#45;&gt;zet_hendel_op_lift</title>
<path fill="none" stroke="#999999" d="M442.761,-802.4551C440.4773,-793.6809 437.6911,-782.9759 435.1865,-773.353"/>
<polygon fill="#999999" stroke="#999999" points="437.8909,-772.6271 433.166,-765.5904 432.4715,-774.0377 437.8909,-772.6271"/>
</g>
<!-- pak_hout_in_bos&#45;&gt;repareer_houweel -->
<g id="edge53" class="edge">
<title>pak_hout_in_bos&#45;&gt;repareer_houweel</title>
<path fill="none" stroke="#999999" d="M593.5785,-1167.2569C595.176,-1148.5262 596.0965,-1118.7051 589.4576,-1094 586.7422,-1083.8954 581.7859,-1073.6339 576.6736,-1064.7813"/>
<polygon fill="#999999" stroke="#999999" points="578.9294,-1063.101 572.3883,-1057.7108 574.1403,-1066.0036 578.9294,-1063.101"/>
</g>
<!-- snij_touw_van_lift&#45;&gt;trek_tand_van_draak -->
<g id="edge58" class="edge">
<title>snij_touw_van_lift&#45;&gt;trek_tand_van_draak</title>
<path fill="none" stroke="#999999" d="M894.4576,-437.4551C894.4576,-428.7686 894.4576,-418.1898 894.4576,-408.642"/>
<polygon fill="#999999" stroke="#999999" points="897.2577,-408.5903 894.4576,-400.5904 891.6577,-408.5904 897.2577,-408.5903"/>
</g>
</g>
</svg>
