<?xml version="1.0" encoding="UTF-8" standalone="no"?>
<!DOCTYPE svg PUBLIC "-//W3C//DTD SVG 1.1//EN"
 "http://www.w3.org/Graphics/SVG/1.1/DTD/svg11.dtd">
<!-- Generated by graphviz version 2.40.1 (20161225.0304)
 -->
<!-- Title: G Pages: 1 -->
<svg width="1711pt" height="1827pt"
 viewBox="0.00 0.00 1710.53 1827.00" xmlns="http://www.w3.org/2000/svg" xmlns:xlink="http://www.w3.org/1999/xlink">
<g id="graph0" class="graph" transform="scale(1 1) rotate(0) translate(4 1823)">
<title>G</title>
<polygon fill="#ffffff" stroke="transparent" points="-4,4 -4,-1823 1706.5337,-1823 1706.5337,4 -4,4"/>
<text text-anchor="middle" x="851.2669" y="-1797" font-family="lato, roboto, helvetica" font-size="20.00" fill="#000000">Avontuur</text>
<!-- START -->
<g id="node1" class="node">
<title>START</title>
<polygon fill="#333333" stroke="#333333" points="903.0656,-1787 844.3596,-1769 903.0656,-1751 961.7716,-1769 903.0656,-1787"/>
<polyline fill="none" stroke="#333333" points="855.8324,-1772.5177 855.8324,-1765.4823 "/>
<polyline fill="none" stroke="#333333" points="891.5928,-1754.5177 914.5384,-1754.5177 "/>
<polyline fill="none" stroke="#333333" points="950.2988,-1765.4823 950.2988,-1772.5177 "/>
<polyline fill="none" stroke="#333333" points="914.5384,-1783.4823 891.5928,-1783.4823 "/>
<text text-anchor="middle" x="903.0656" y="-1764.8" font-family="lato, roboto, helvetica" font-size="14.00" fill="#dddddd">START</text>
</g>
<!-- betaal_twee_geldstukken -->
<g id="node5" class="node">
<title>betaal_twee_geldstukken</title>
<path fill="#008800" stroke="#008800" d="M1108.7598,-1678.5C1108.7598,-1678.5 1245.3714,-1678.5 1245.3714,-1678.5 1251.3714,-1678.5 1257.3714,-1684.5 1257.3714,-1690.5 1257.3714,-1690.5 1257.3714,-1702.5 1257.3714,-1702.5 1257.3714,-1708.5 1251.3714,-1714.5 1245.3714,-1714.5 1245.3714,-1714.5 1108.7598,-1714.5 1108.7598,-1714.5 1102.7598,-1714.5 1096.7598,-1708.5 1096.7598,-1702.5 1096.7598,-1702.5 1096.7598,-1690.5 1096.7598,-1690.5 1096.7598,-1684.5 1102.7598,-1678.5 1108.7598,-1678.5"/>
<text text-anchor="middle" x="1177.0656" y="-1692.3" font-family="lato, roboto, helvetica" font-size="14.00" fill="#eeeeee">Betaal Twee Geldstukken</text>
</g>
<!-- START&#45;&gt;betaal_twee_geldstukken -->
<g id="edge3" class="edge">
<title>START&#45;&gt;betaal_twee_geldstukken</title>
<path fill="none" stroke="#999999" d="M934.7646,-1760.6125C975.1116,-1749.9367 1046.1417,-1731.1423 1100.9007,-1716.6531"/>
<polygon fill="#999999" stroke="#999999" points="1101.8386,-1719.3014 1108.8562,-1714.5481 1100.4061,-1713.8877 1101.8386,-1719.3014"/>
</g>
<!-- praat_met_bakker -->
<g id="node23" class="node">
<title>praat_met_bakker</title>
<path fill="#008800" stroke="#008800" d="M392.696,-1021.5C392.696,-1021.5 483.4352,-1021.5 483.4352,-1021.5 489.4352,-1021.5 495.4352,-1027.5 495.4352,-1033.5 495.4352,-1033.5 495.4352,-1045.5 495.4352,-1045.5 495.4352,-1051.5 489.4352,-1057.5 483.4352,-1057.5 483.4352,-1057.5 392.696,-1057.5 392.696,-1057.5 386.696,-1057.5 380.696,-1051.5 380.696,-1045.5 380.696,-1045.5 380.696,-1033.5 380.696,-1033.5 380.696,-1027.5 386.696,-1021.5 392.696,-1021.5"/>
<text text-anchor="middle" x="438.0656" y="-1035.3" font-family="lato, roboto, helvetica" font-size="14.00" fill="#eeeeee">Praat Met Bakker</text>
</g>
<!-- START&#45;&gt;praat_met_bakker -->
<g id="edge63" class="edge">
<title>START&#45;&gt;praat_met_bakker</title>
<path fill="none" stroke="#999999" d="M894.2617,-1753.4105C880.4045,-1727.3651 855.0656,-1672.9751 855.0656,-1623.5 855.0656,-1623.5 855.0656,-1623.5 855.0656,-1185.5 855.0656,-1167.106 620.8889,-1094.2904 503.5116,-1058.948"/>
<polygon fill="#999999" stroke="#999999" points="504.0773,-1056.1943 495.6099,-1056.5723 502.4649,-1061.5572 504.0773,-1056.1943"/>
</g>
<!-- praat_met_dwerg -->
<g id="node25" class="node">
<title>praat_met_dwerg</title>
<path fill="#008800" stroke="#008800" d="M1287.865,-1678.5C1287.865,-1678.5 1376.2662,-1678.5 1376.2662,-1678.5 1382.2662,-1678.5 1388.2662,-1684.5 1388.2662,-1690.5 1388.2662,-1690.5 1388.2662,-1702.5 1388.2662,-1702.5 1388.2662,-1708.5 1382.2662,-1714.5 1376.2662,-1714.5 1376.2662,-1714.5 1287.865,-1714.5 1287.865,-1714.5 1281.865,-1714.5 1275.865,-1708.5 1275.865,-1702.5 1275.865,-1702.5 1275.865,-1690.5 1275.865,-1690.5 1275.865,-1684.5 1281.865,-1678.5 1287.865,-1678.5"/>
<text text-anchor="middle" x="1332.0656" y="-1692.3" font-family="lato, roboto, helvetica" font-size="14.00" fill="#eeeeee">Praat Met Dwerg</text>
</g>
<!-- START&#45;&gt;praat_met_dwerg -->
<g id="edge70" class="edge">
<title>START&#45;&gt;praat_met_dwerg</title>
<path fill="none" stroke="#999999" d="M946.6868,-1764.3059C1015.1698,-1756.5342 1151.8859,-1739.3943 1266.0656,-1715 1266.6547,-1714.8741 1267.2464,-1714.746 1267.8402,-1714.6158"/>
<polygon fill="#999999" stroke="#999999" points="1268.4891,-1717.3397 1275.656,-1712.8146 1267.2315,-1711.8827 1268.4891,-1717.3397"/>
</g>
<!-- praat_met_boer -->
<g id="node33" class="node">
<title>praat_met_boer</title>
<path fill="#008800" stroke="#008800" d="M603.3033,-1678.5C603.3033,-1678.5 680.8279,-1678.5 680.8279,-1678.5 686.8279,-1678.5 692.8279,-1684.5 692.8279,-1690.5 692.8279,-1690.5 692.8279,-1702.5 692.8279,-1702.5 692.8279,-1708.5 686.8279,-1714.5 680.8279,-1714.5 680.8279,-1714.5 603.3033,-1714.5 603.3033,-1714.5 597.3033,-1714.5 591.3033,-1708.5 591.3033,-1702.5 591.3033,-1702.5 591.3033,-1690.5 591.3033,-1690.5 591.3033,-1684.5 597.3033,-1678.5 603.3033,-1678.5"/>
<text text-anchor="middle" x="642.0656" y="-1692.3" font-family="lato, roboto, helvetica" font-size="14.00" fill="#eeeeee">Praat Met Boer</text>
</g>
<!-- START&#45;&gt;praat_met_boer -->
<g id="edge64" class="edge">
<title>START&#45;&gt;praat_met_boer</title>
<path fill="none" stroke="#999999" d="M872.1005,-1760.3986C830.1012,-1748.7321 754.2378,-1727.659 701.1538,-1712.9134"/>
<polygon fill="#999999" stroke="#999999" points="701.6239,-1710.138 693.1663,-1710.6947 700.1251,-1715.5337 701.6239,-1710.138"/>
</g>
<!-- pak_touw_op_boerderij -->
<g id="node39" class="node">
<title>pak_touw_op_boerderij</title>
<path fill="#008800" stroke="#008800" d="M12,-656.5C12,-656.5 138.1312,-656.5 138.1312,-656.5 144.1312,-656.5 150.1312,-662.5 150.1312,-668.5 150.1312,-668.5 150.1312,-680.5 150.1312,-680.5 150.1312,-686.5 144.1312,-692.5 138.1312,-692.5 138.1312,-692.5 12,-692.5 12,-692.5 6,-692.5 0,-686.5 0,-680.5 0,-680.5 0,-668.5 0,-668.5 0,-662.5 6,-656.5 12,-656.5"/>
<text text-anchor="middle" x="75.0656" y="-670.3" font-family="lato, roboto, helvetica" font-size="14.00" fill="#eeeeee">Pak Touw Op Boerderij</text>
</g>
<!-- START&#45;&gt;pak_touw_op_boerderij -->
<g id="edge60" class="edge">
<title>START&#45;&gt;pak_touw_op_boerderij</title>
<path fill="none" stroke="#999999" d="M853.2297,-1766.2093C729.9142,-1759.0234 413.0612,-1738.7721 310.0656,-1715 198.4293,-1689.2336 69.0656,-1738.0712 69.0656,-1623.5 69.0656,-1623.5 69.0656,-1623.5 69.0656,-820.5 69.0656,-778.7082 71.5502,-730.244 73.3217,-701.0011"/>
<polygon fill="#999999" stroke="#999999" points="76.1217,-701.086 73.8224,-692.928 70.5325,-700.7393 76.1217,-701.086"/>
</g>
<!-- praat_met_smidsen -->
<g id="node51" class="node">
<title>praat_met_smidsen</title>
<path fill="#008800" stroke="#008800" d="M894.7977,-1313.5C894.7977,-1313.5 993.3335,-1313.5 993.3335,-1313.5 999.3335,-1313.5 1005.3335,-1319.5 1005.3335,-1325.5 1005.3335,-1325.5 1005.3335,-1337.5 1005.3335,-1337.5 1005.3335,-1343.5 999.3335,-1349.5 993.3335,-1349.5 993.3335,-1349.5 894.7977,-1349.5 894.7977,-1349.5 888.7977,-1349.5 882.7977,-1343.5 882.7977,-1337.5 882.7977,-1337.5 882.7977,-1325.5 882.7977,-1325.5 882.7977,-1319.5 888.7977,-1313.5 894.7977,-1313.5"/>
<text text-anchor="middle" x="944.0656" y="-1327.3" font-family="lato, roboto, helvetica" font-size="14.00" fill="#eeeeee">Praat Met Smidsen</text>
</g>
<!-- START&#45;&gt;praat_met_smidsen -->
<g id="edge73" class="edge">
<title>START&#45;&gt;praat_met_smidsen</title>
<path fill="none" stroke="#999999" d="M903.0656,-1750.6252C903.0656,-1723.0243 903.0656,-1669.2214 903.0656,-1623.5 903.0656,-1623.5 903.0656,-1623.5 903.0656,-1477.5 903.0656,-1434.1827 920.0012,-1386.2382 932.1034,-1357.5071"/>
<polygon fill="#999999" stroke="#999999" points="934.7729,-1358.3875 935.3706,-1349.9328 929.6309,-1356.1695 934.7729,-1358.3875"/>
</g>
<!-- pak_hout_in_bos -->
<g id="node59" class="node">
<title>pak_hout_in_bos</title>
<path fill="#008800" stroke="#008800" d="M1605.5975,-1605.5C1605.5975,-1605.5 1690.5337,-1605.5 1690.5337,-1605.5 1696.5337,-1605.5 1702.5337,-1611.5 1702.5337,-1617.5 1702.5337,-1617.5 1702.5337,-1629.5 1702.5337,-1629.5 1702.5337,-1635.5 1696.5337,-1641.5 1690.5337,-1641.5 1690.5337,-1641.5 1605.5975,-1641.5 1605.5975,-1641.5 1599.5975,-1641.5 1593.5975,-1635.5 1593.5975,-1629.5 1593.5975,-1629.5 1593.5975,-1617.5 1593.5975,-1617.5 1593.5975,-1611.5 1599.5975,-1605.5 1605.5975,-1605.5"/>
<text text-anchor="middle" x="1648.0656" y="-1619.3" font-family="lato, roboto, helvetica" font-size="14.00" fill="#eeeeee">Pak Hout In Bos</text>
</g>
<!-- START&#45;&gt;pak_hout_in_bos -->
<g id="edge57" class="edge">
<title>START&#45;&gt;pak_hout_in_bos</title>
<path fill="none" stroke="#999999" d="M953.9263,-1766.5304C1095.8534,-1759.3842 1489.3498,-1737.7417 1543.0656,-1715 1577.72,-1700.3284 1609.0468,-1669.6768 1628.2834,-1647.8983"/>
<polygon fill="#999999" stroke="#999999" points="1630.5014,-1649.6141 1633.6183,-1641.7321 1626.2664,-1645.9501 1630.5014,-1649.6141"/>
</g>
<!-- praat_met_molenaar -->
<g id="node63" class="node">
<title>praat_met_molenaar</title>
<path fill="#008800" stroke="#008800" d="M1418.0894,-1678.5C1418.0894,-1678.5 1522.0418,-1678.5 1522.0418,-1678.5 1528.0418,-1678.5 1534.0418,-1684.5 1534.0418,-1690.5 1534.0418,-1690.5 1534.0418,-1702.5 1534.0418,-1702.5 1534.0418,-1708.5 1528.0418,-1714.5 1522.0418,-1714.5 1522.0418,-1714.5 1418.0894,-1714.5 1418.0894,-1714.5 1412.0894,-1714.5 1406.0894,-1708.5 1406.0894,-1702.5 1406.0894,-1702.5 1406.0894,-1690.5 1406.0894,-1690.5 1406.0894,-1684.5 1412.0894,-1678.5 1418.0894,-1678.5"/>
<text text-anchor="middle" x="1470.0656" y="-1692.3" font-family="lato, roboto, helvetica" font-size="14.00" fill="#eeeeee">Praat Met Molenaar</text>
</g>
<!-- START&#45;&gt;praat_met_molenaar -->
<g id="edge72" class="edge">
<title>START&#45;&gt;praat_met_molenaar</title>
<path fill="none" stroke="#999999" d="M952.1209,-1765.912C1041.2602,-1759.7971 1235.537,-1744.1496 1397.0656,-1715 1397.4355,-1714.9332 1397.8063,-1714.8657 1398.178,-1714.7973"/>
<polygon fill="#999999" stroke="#999999" points="1398.7678,-1717.535 1406.0817,-1713.2517 1397.693,-1712.0391 1398.7678,-1717.535"/>
</g>
<!-- vind_onderbroek_bij_rivier -->
<g id="node64" class="node">
<title>vind_onderbroek_bij_rivier</title>
<path fill="#008800" stroke="#008800" d="M331.3331,-1678.5C331.3331,-1678.5 480.7981,-1678.5 480.7981,-1678.5 486.7981,-1678.5 492.7981,-1684.5 492.7981,-1690.5 492.7981,-1690.5 492.7981,-1702.5 492.7981,-1702.5 492.7981,-1708.5 486.7981,-1714.5 480.7981,-1714.5 480.7981,-1714.5 331.3331,-1714.5 331.3331,-1714.5 325.3331,-1714.5 319.3331,-1708.5 319.3331,-1702.5 319.3331,-1702.5 319.3331,-1690.5 319.3331,-1690.5 319.3331,-1684.5 325.3331,-1678.5 331.3331,-1678.5"/>
<text text-anchor="middle" x="406.0656" y="-1692.3" font-family="lato, roboto, helvetica" font-size="14.00" fill="#eeeeee">Vind Onderbroek Bij Rivier</text>
</g>
<!-- START&#45;&gt;vind_onderbroek_bij_rivier -->
<g id="edge87" class="edge">
<title>START&#45;&gt;vind_onderbroek_bij_rivier</title>
<path fill="none" stroke="#999999" d="M863.2341,-1763.1896C785.2561,-1751.8145 610.5341,-1726.3269 501.0897,-1710.3617"/>
<polygon fill="#999999" stroke="#999999" points="501.3188,-1707.5655 492.9984,-1709.1813 500.5104,-1713.1069 501.3188,-1707.5655"/>
</g>
<!-- beklim_toren -->
<g id="node2" class="node">
<title>beklim_toren</title>
<path fill="#008800" stroke="#008800" d="M312.9902,-875.5C312.9902,-875.5 383.141,-875.5 383.141,-875.5 389.141,-875.5 395.141,-881.5 395.141,-887.5 395.141,-887.5 395.141,-899.5 395.141,-899.5 395.141,-905.5 389.141,-911.5 383.141,-911.5 383.141,-911.5 312.9902,-911.5 312.9902,-911.5 306.9902,-911.5 300.9902,-905.5 300.9902,-899.5 300.9902,-899.5 300.9902,-887.5 300.9902,-887.5 300.9902,-881.5 306.9902,-875.5 312.9902,-875.5"/>
<text text-anchor="middle" x="348.0656" y="-889.3" font-family="lato, roboto, helvetica" font-size="14.00" fill="#eeeeee">Beklim Toren</text>
</g>
<!-- praat_met_dochter_van_bakker -->
<g id="node56" class="node">
<title>praat_met_dochter_van_bakker</title>
<path fill="#3333aa" stroke="#3333aa" d="M231.9919,-802.5C231.9919,-802.5 398.1393,-802.5 398.1393,-802.5 404.1393,-802.5 410.1393,-808.5 410.1393,-814.5 410.1393,-814.5 410.1393,-826.5 410.1393,-826.5 410.1393,-832.5 404.1393,-838.5 398.1393,-838.5 398.1393,-838.5 231.9919,-838.5 231.9919,-838.5 225.9919,-838.5 219.9919,-832.5 219.9919,-826.5 219.9919,-826.5 219.9919,-814.5 219.9919,-814.5 219.9919,-808.5 225.9919,-802.5 231.9919,-802.5"/>
<text text-anchor="middle" x="315.0656" y="-816.3" font-family="lato, roboto, helvetica" font-size="14.00" fill="#eeeeee">Praat Met Dochter Van Bakker</text>
</g>
<!-- beklim_toren&#45;&gt;praat_met_dochter_van_bakker -->
<g id="edge67" class="edge">
<title>beklim_toren&#45;&gt;praat_met_dochter_van_bakker</title>
<path fill="none" stroke="#999999" d="M339.9083,-875.4551C335.9022,-866.5932 331.0058,-855.7616 326.6222,-846.0646"/>
<polygon fill="#999999" stroke="#999999" points="329.0903,-844.7267 323.2434,-838.5904 323.9874,-847.0335 329.0903,-844.7267"/>
</g>
<!-- koop_zwaard_voor_99_bij_wapensmid -->
<g id="node3" class="node">
<title>koop_zwaard_voor_99_bij_wapensmid</title>
<path fill="#008800" stroke="#008800" d="M333.0105,-948.5C333.0105,-948.5 543.1207,-948.5 543.1207,-948.5 549.1207,-948.5 555.1207,-954.5 555.1207,-960.5 555.1207,-960.5 555.1207,-972.5 555.1207,-972.5 555.1207,-978.5 549.1207,-984.5 543.1207,-984.5 543.1207,-984.5 333.0105,-984.5 333.0105,-984.5 327.0105,-984.5 321.0105,-978.5 321.0105,-972.5 321.0105,-972.5 321.0105,-960.5 321.0105,-960.5 321.0105,-954.5 327.0105,-948.5 333.0105,-948.5"/>
<text text-anchor="middle" x="438.0656" y="-962.3" font-family="lato, roboto, helvetica" font-size="14.00" fill="#eeeeee">Koop Zwaard Voor 99 Bij Wapensmid</text>
</g>
<!-- koop_zwaard_voor_99_bij_wapensmid&#45;&gt;beklim_toren -->
<g id="edge1" class="edge">
<title>koop_zwaard_voor_99_bij_wapensmid&#45;&gt;beklim_toren</title>
<path fill="none" stroke="#999999" d="M415.8184,-948.4551C404.0274,-938.8912 389.4082,-927.0334 376.771,-916.7833"/>
<polygon fill="#999999" stroke="#999999" points="378.3458,-914.4553 370.3688,-911.5904 374.8181,-918.8045 378.3458,-914.4553"/>
</g>
<!-- snij_touw_van_lift -->
<g id="node66" class="node">
<title>snij_touw_van_lift</title>
<path fill="#3333aa" stroke="#3333aa" d="M291.0463,-510.5C291.0463,-510.5 393.0849,-510.5 393.0849,-510.5 399.0849,-510.5 405.0849,-516.5 405.0849,-522.5 405.0849,-522.5 405.0849,-534.5 405.0849,-534.5 405.0849,-540.5 399.0849,-546.5 393.0849,-546.5 393.0849,-546.5 291.0463,-546.5 291.0463,-546.5 285.0463,-546.5 279.0463,-540.5 279.0463,-534.5 279.0463,-534.5 279.0463,-522.5 279.0463,-522.5 279.0463,-516.5 285.0463,-510.5 291.0463,-510.5"/>
<text text-anchor="middle" x="342.0656" y="-524.3" font-family="lato, roboto, helvetica" font-size="14.00" fill="#eeeeee">Snij Touw Van Lift</text>
</g>
<!-- koop_zwaard_voor_99_bij_wapensmid&#45;&gt;snij_touw_van_lift -->
<g id="edge79" class="edge">
<title>koop_zwaard_voor_99_bij_wapensmid&#45;&gt;snij_touw_van_lift</title>
<path fill="none" stroke="#999999" d="M438.0656,-948.062C438.0656,-920.3663 438.0656,-866.3785 438.0656,-820.5 438.0656,-820.5 438.0656,-820.5 438.0656,-747.5 438.0656,-671.6829 389.2061,-592.5824 361.2008,-553.4706"/>
<polygon fill="#999999" stroke="#999999" points="363.2026,-551.4629 356.2307,-546.6427 358.675,-554.7585 363.2026,-551.4629"/>
</g>
<!-- genoeg_info_over_monster -->
<g id="node4" class="node">
<title>genoeg_info_over_monster</title>
<path fill="#008800" stroke="#008800" d="M147.0687,-948.5C147.0687,-948.5 291.0625,-948.5 291.0625,-948.5 297.0625,-948.5 303.0625,-954.5 303.0625,-960.5 303.0625,-960.5 303.0625,-972.5 303.0625,-972.5 303.0625,-978.5 297.0625,-984.5 291.0625,-984.5 291.0625,-984.5 147.0687,-984.5 147.0687,-984.5 141.0687,-984.5 135.0687,-978.5 135.0687,-972.5 135.0687,-972.5 135.0687,-960.5 135.0687,-960.5 135.0687,-954.5 141.0687,-948.5 147.0687,-948.5"/>
<text text-anchor="middle" x="219.0656" y="-962.3" font-family="lato, roboto, helvetica" font-size="14.00" fill="#eeeeee">Genoeg Info Over Monster</text>
</g>
<!-- genoeg_info_over_monster&#45;&gt;beklim_toren -->
<g id="edge2" class="edge">
<title>genoeg_info_over_monster&#45;&gt;beklim_toren</title>
<path fill="none" stroke="#999999" d="M250.9532,-948.4551C268.4739,-938.5403 290.3513,-926.16 308.9034,-915.6615"/>
<polygon fill="#999999" stroke="#999999" points="310.5142,-917.9673 316.0977,-911.5904 307.7562,-913.0935 310.5142,-917.9673"/>
</g>
<!-- _0 -->
<g id="node7" class="node">
<title>_0</title>
<polygon fill="#888888" stroke="#888888" points="1267.0656,-1641.5 1237.0389,-1623.5 1267.0656,-1605.5 1297.0923,-1623.5 1267.0656,-1641.5"/>
<polyline fill="none" stroke="#888888" points="1247.0478,-1629.5 1247.0478,-1617.5 "/>
<polyline fill="none" stroke="#888888" points="1257.0567,-1611.5 1277.0745,-1611.5 "/>
<polyline fill="none" stroke="#888888" points="1287.0834,-1617.5 1287.0834,-1629.5 "/>
<polyline fill="none" stroke="#888888" points="1277.0745,-1635.5 1257.0567,-1635.5 "/>
<text text-anchor="middle" x="1267.0656" y="-1619.3" font-family="lato, roboto, helvetica" font-size="14.00" fill="#eeeeee">Or</text>
</g>
<!-- betaal_twee_geldstukken&#45;&gt;_0 -->
<g id="edge5" class="edge">
<title>betaal_twee_geldstukken&#45;&gt;_0</title>
<path fill="none" stroke="#999999" stroke-dasharray="5,2" d="M1199.3128,-1678.4551C1214.1644,-1666.4087 1233.5031,-1650.7229 1247.7161,-1639.1946"/>
<polygon fill="#999999" stroke="#999999" points="1249.7902,-1641.1176 1254.2395,-1633.9034 1246.2625,-1636.7683 1249.7902,-1641.1176"/>
</g>
<!-- _1 -->
<g id="node41" class="node">
<title>_1</title>
<polygon fill="#888888" stroke="#888888" points="1236.0656,-984.5 1206.0389,-966.5 1236.0656,-948.5 1266.0923,-966.5 1236.0656,-984.5"/>
<polyline fill="none" stroke="#888888" points="1216.0478,-972.5 1216.0478,-960.5 "/>
<polyline fill="none" stroke="#888888" points="1226.0567,-954.5 1246.0745,-954.5 "/>
<polyline fill="none" stroke="#888888" points="1256.0834,-960.5 1256.0834,-972.5 "/>
<polyline fill="none" stroke="#888888" points="1246.0745,-978.5 1226.0567,-978.5 "/>
<text text-anchor="middle" x="1236.0656" y="-962.3" font-family="lato, roboto, helvetica" font-size="14.00" fill="#eeeeee">Or</text>
</g>
<!-- betaal_twee_geldstukken&#45;&gt;_1 -->
<g id="edge31" class="edge">
<title>betaal_twee_geldstukken&#45;&gt;_1</title>
<path fill="none" stroke="#999999" stroke-dasharray="5,2" d="M1183.696,-1678.3425C1193.069,-1651.0044 1209.0656,-1597.4675 1209.0656,-1550.5 1209.0656,-1550.5 1209.0656,-1550.5 1209.0656,-1112.5 1209.0656,-1068.6277 1221,-1018.5577 1228.9998,-989.923"/>
<polygon fill="#999999" stroke="#999999" points="1231.7304,-990.558 1231.2385,-982.0964 1226.3463,-989.0179 1231.7304,-990.558"/>
</g>
<!-- betaal_twee_goudstukken_aan_hoefsmid -->
<g id="node6" class="node">
<title>betaal_twee_goudstukken_aan_hoefsmid</title>
<path fill="#008800" stroke="#008800" d="M943.048,-1532.5C943.048,-1532.5 1169.0832,-1532.5 1169.0832,-1532.5 1175.0832,-1532.5 1181.0832,-1538.5 1181.0832,-1544.5 1181.0832,-1544.5 1181.0832,-1556.5 1181.0832,-1556.5 1181.0832,-1562.5 1175.0832,-1568.5 1169.0832,-1568.5 1169.0832,-1568.5 943.048,-1568.5 943.048,-1568.5 937.048,-1568.5 931.048,-1562.5 931.048,-1556.5 931.048,-1556.5 931.048,-1544.5 931.048,-1544.5 931.048,-1538.5 937.048,-1532.5 943.048,-1532.5"/>
<text text-anchor="middle" x="1056.0656" y="-1546.3" font-family="lato, roboto, helvetica" font-size="14.00" fill="#eeeeee">Betaal Twee Goudstukken Aan Hoefsmid</text>
</g>
<!-- geef_paard_nieuwe_hoefijzers -->
<g id="node29" class="node">
<title>geef_paard_nieuwe_hoefijzers</title>
<path fill="#008800" stroke="#008800" d="M633.366,-1459.5C633.366,-1459.5 796.7652,-1459.5 796.7652,-1459.5 802.7652,-1459.5 808.7652,-1465.5 808.7652,-1471.5 808.7652,-1471.5 808.7652,-1483.5 808.7652,-1483.5 808.7652,-1489.5 802.7652,-1495.5 796.7652,-1495.5 796.7652,-1495.5 633.366,-1495.5 633.366,-1495.5 627.366,-1495.5 621.366,-1489.5 621.366,-1483.5 621.366,-1483.5 621.366,-1471.5 621.366,-1471.5 621.366,-1465.5 627.366,-1459.5 633.366,-1459.5"/>
<text text-anchor="middle" x="715.0656" y="-1473.3" font-family="lato, roboto, helvetica" font-size="14.00" fill="#eeeeee">Geef Paard Nieuwe Hoefijzers</text>
</g>
<!-- betaal_twee_goudstukken_aan_hoefsmid&#45;&gt;geef_paard_nieuwe_hoefijzers -->
<g id="edge19" class="edge">
<title>betaal_twee_goudstukken_aan_hoefsmid&#45;&gt;geef_paard_nieuwe_hoefijzers</title>
<path fill="none" stroke="#999999" d="M971.7734,-1532.4551C921.8817,-1521.7744 858.6254,-1508.2327 807.3899,-1497.2644"/>
<polygon fill="#999999" stroke="#999999" points="807.6829,-1494.4638 799.274,-1495.527 806.5106,-1499.9397 807.6829,-1494.4638"/>
</g>
<!-- _0&#45;&gt;betaal_twee_goudstukken_aan_hoefsmid -->
<g id="edge4" class="edge">
<title>_0&#45;&gt;betaal_twee_goudstukken_aan_hoefsmid</title>
<path fill="none" stroke="#999999" d="M1247.9686,-1616.893C1218.4324,-1606.6743 1160.4311,-1586.6075 1115.8903,-1571.1976"/>
<polygon fill="#999999" stroke="#999999" points="1116.7792,-1568.5424 1108.3034,-1568.5728 1114.9482,-1573.8346 1116.7792,-1568.5424"/>
</g>
<!-- krijg_geldstuk_van_smid -->
<g id="node8" class="node">
<title>krijg_geldstuk_van_smid</title>
<path fill="#008800" stroke="#008800" d="M1109.3254,-583.5C1109.3254,-583.5 1244.8058,-583.5 1244.8058,-583.5 1250.8058,-583.5 1256.8058,-589.5 1256.8058,-595.5 1256.8058,-595.5 1256.8058,-607.5 1256.8058,-607.5 1256.8058,-613.5 1250.8058,-619.5 1244.8058,-619.5 1244.8058,-619.5 1109.3254,-619.5 1109.3254,-619.5 1103.3254,-619.5 1097.3254,-613.5 1097.3254,-607.5 1097.3254,-607.5 1097.3254,-595.5 1097.3254,-595.5 1097.3254,-589.5 1103.3254,-583.5 1109.3254,-583.5"/>
<text text-anchor="middle" x="1177.0656" y="-597.3" font-family="lato, roboto, helvetica" font-size="14.00" fill="#eeeeee">Krijg Geldstuk Van Smid</text>
</g>
<!-- krijg_geldstuk_van_smid&#45;&gt;_0 -->
<g id="edge6" class="edge">
<title>krijg_geldstuk_van_smid&#45;&gt;_0</title>
<path fill="none" stroke="#999999" stroke-dasharray="5,2" d="M1197.7459,-619.8377C1221.9051,-642.6874 1260.7683,-684.2182 1278.0656,-729 1316.1849,-827.6887 1294.0656,-860.7052 1294.0656,-966.5 1294.0656,-1477.5 1294.0656,-1477.5 1294.0656,-1477.5 1294.0656,-1521.3723 1282.1312,-1571.4423 1274.1314,-1600.077"/>
<polygon fill="#999999" stroke="#999999" points="1271.4008,-1599.442 1271.8927,-1607.9036 1276.7849,-1600.9821 1271.4008,-1599.442"/>
</g>
<!-- bezorg_graan_bij_molenaar -->
<g id="node9" class="node">
<title>bezorg_graan_bij_molenaar</title>
<path fill="#008800" stroke="#008800" d="M499.1255,-1240.5C499.1255,-1240.5 647.0057,-1240.5 647.0057,-1240.5 653.0057,-1240.5 659.0057,-1246.5 659.0057,-1252.5 659.0057,-1252.5 659.0057,-1264.5 659.0057,-1264.5 659.0057,-1270.5 653.0057,-1276.5 647.0057,-1276.5 647.0057,-1276.5 499.1255,-1276.5 499.1255,-1276.5 493.1255,-1276.5 487.1255,-1270.5 487.1255,-1264.5 487.1255,-1264.5 487.1255,-1252.5 487.1255,-1252.5 487.1255,-1246.5 493.1255,-1240.5 499.1255,-1240.5"/>
<text text-anchor="middle" x="573.0656" y="-1254.3" font-family="lato, roboto, helvetica" font-size="14.00" fill="#eeeeee">Bezorg Graan Bij Molenaar</text>
</g>
<!-- krijg_meel_bij_molenaar -->
<g id="node12" class="node">
<title>krijg_meel_bij_molenaar</title>
<path fill="#008800" stroke="#008800" d="M446.2805,-1167.5C446.2805,-1167.5 577.8507,-1167.5 577.8507,-1167.5 583.8507,-1167.5 589.8507,-1173.5 589.8507,-1179.5 589.8507,-1179.5 589.8507,-1191.5 589.8507,-1191.5 589.8507,-1197.5 583.8507,-1203.5 577.8507,-1203.5 577.8507,-1203.5 446.2805,-1203.5 446.2805,-1203.5 440.2805,-1203.5 434.2805,-1197.5 434.2805,-1191.5 434.2805,-1191.5 434.2805,-1179.5 434.2805,-1179.5 434.2805,-1173.5 440.2805,-1167.5 446.2805,-1167.5"/>
<text text-anchor="middle" x="512.0656" y="-1181.3" font-family="lato, roboto, helvetica" font-size="14.00" fill="#eeeeee">Krijg Meel Bij Molenaar</text>
</g>
<!-- bezorg_graan_bij_molenaar&#45;&gt;krijg_meel_bij_molenaar -->
<g id="edge42" class="edge">
<title>bezorg_graan_bij_molenaar&#45;&gt;krijg_meel_bij_molenaar</title>
<path fill="none" stroke="#999999" d="M557.9869,-1240.4551C550.2885,-1231.2422 540.8113,-1219.9006 532.4697,-1209.918"/>
<polygon fill="#999999" stroke="#999999" points="534.4606,-1207.9338 527.1822,-1203.5904 530.1634,-1211.5247 534.4606,-1207.9338"/>
</g>
<!-- zet_graan_op_wagen -->
<g id="node10" class="node">
<title>zet_graan_op_wagen</title>
<path fill="#008800" stroke="#008800" d="M519.0133,-1313.5C519.0133,-1313.5 631.1179,-1313.5 631.1179,-1313.5 637.1179,-1313.5 643.1179,-1319.5 643.1179,-1325.5 643.1179,-1325.5 643.1179,-1337.5 643.1179,-1337.5 643.1179,-1343.5 637.1179,-1349.5 631.1179,-1349.5 631.1179,-1349.5 519.0133,-1349.5 519.0133,-1349.5 513.0133,-1349.5 507.0133,-1343.5 507.0133,-1337.5 507.0133,-1337.5 507.0133,-1325.5 507.0133,-1325.5 507.0133,-1319.5 513.0133,-1313.5 519.0133,-1313.5"/>
<text text-anchor="middle" x="575.0656" y="-1327.3" font-family="lato, roboto, helvetica" font-size="14.00" fill="#eeeeee">Zet Graan Op Wagen</text>
</g>
<!-- zet_graan_op_wagen&#45;&gt;bezorg_graan_bij_molenaar -->
<g id="edge7" class="edge">
<title>zet_graan_op_wagen&#45;&gt;bezorg_graan_bij_molenaar</title>
<path fill="none" stroke="#999999" d="M574.5712,-1313.4551C574.3332,-1304.7686 574.0434,-1294.1898 573.7818,-1284.642"/>
<polygon fill="#999999" stroke="#999999" points="576.5794,-1284.5106 573.5612,-1276.5904 570.9815,-1284.6641 576.5794,-1284.5106"/>
</g>
<!-- bezorg_meel_bij_bakker -->
<g id="node11" class="node">
<title>bezorg_meel_bij_bakker</title>
<path fill="#008800" stroke="#008800" d="M447.4481,-1094.5C447.4481,-1094.5 576.6831,-1094.5 576.6831,-1094.5 582.6831,-1094.5 588.6831,-1100.5 588.6831,-1106.5 588.6831,-1106.5 588.6831,-1118.5 588.6831,-1118.5 588.6831,-1124.5 582.6831,-1130.5 576.6831,-1130.5 576.6831,-1130.5 447.4481,-1130.5 447.4481,-1130.5 441.4481,-1130.5 435.4481,-1124.5 435.4481,-1118.5 435.4481,-1118.5 435.4481,-1106.5 435.4481,-1106.5 435.4481,-1100.5 441.4481,-1094.5 447.4481,-1094.5"/>
<text text-anchor="middle" x="512.0656" y="-1108.3" font-family="lato, roboto, helvetica" font-size="14.00" fill="#eeeeee">Bezorg Meel Bij Bakker</text>
</g>
<!-- zet_molensteen_op_wagen -->
<g id="node19" class="node">
<title>zet_molensteen_op_wagen</title>
<path fill="#3333aa" stroke="#3333aa" d="M117.4544,-1021.5C117.4544,-1021.5 260.6768,-1021.5 260.6768,-1021.5 266.6768,-1021.5 272.6768,-1027.5 272.6768,-1033.5 272.6768,-1033.5 272.6768,-1045.5 272.6768,-1045.5 272.6768,-1051.5 266.6768,-1057.5 260.6768,-1057.5 260.6768,-1057.5 117.4544,-1057.5 117.4544,-1057.5 111.4544,-1057.5 105.4544,-1051.5 105.4544,-1045.5 105.4544,-1045.5 105.4544,-1033.5 105.4544,-1033.5 105.4544,-1027.5 111.4544,-1021.5 117.4544,-1021.5"/>
<text text-anchor="middle" x="189.0656" y="-1035.3" font-family="lato, roboto, helvetica" font-size="14.00" fill="#eeeeee">Zet Molensteen Op Wagen</text>
</g>
<!-- bezorg_meel_bij_bakker&#45;&gt;zet_molensteen_op_wagen -->
<g id="edge94" class="edge">
<title>bezorg_meel_bij_bakker&#45;&gt;zet_molensteen_op_wagen</title>
<path fill="none" stroke="#999999" d="M435.1094,-1095.1074C387.4642,-1084.3393 326.1472,-1070.4813 276.6449,-1059.2935"/>
<polygon fill="#999999" stroke="#999999" points="277.226,-1056.5542 268.8055,-1057.5217 275.9914,-1062.0165 277.226,-1056.5542"/>
</g>
<!-- krijg_100_geld_van_meel -->
<g id="node42" class="node">
<title>krijg_100_geld_van_meel</title>
<path fill="#008800" stroke="#008800" d="M525.1427,-1021.5C525.1427,-1021.5 660.9885,-1021.5 660.9885,-1021.5 666.9885,-1021.5 672.9885,-1027.5 672.9885,-1033.5 672.9885,-1033.5 672.9885,-1045.5 672.9885,-1045.5 672.9885,-1051.5 666.9885,-1057.5 660.9885,-1057.5 660.9885,-1057.5 525.1427,-1057.5 525.1427,-1057.5 519.1427,-1057.5 513.1427,-1051.5 513.1427,-1045.5 513.1427,-1045.5 513.1427,-1033.5 513.1427,-1033.5 513.1427,-1027.5 519.1427,-1021.5 525.1427,-1021.5"/>
<text text-anchor="middle" x="593.0656" y="-1035.3" font-family="lato, roboto, helvetica" font-size="14.00" fill="#eeeeee">Krijg 100 Geld Van Meel</text>
</g>
<!-- bezorg_meel_bij_bakker&#45;&gt;krijg_100_geld_van_meel -->
<g id="edge35" class="edge">
<title>bezorg_meel_bij_bakker&#45;&gt;krijg_100_geld_van_meel</title>
<path fill="none" stroke="#999999" d="M532.0881,-1094.4551C542.6026,-1084.979 555.6161,-1073.2508 566.9172,-1063.0658"/>
<polygon fill="#999999" stroke="#999999" points="568.9245,-1065.0261 572.9927,-1057.5904 565.1755,-1060.8662 568.9245,-1065.0261"/>
</g>
<!-- krijg_meel_bij_molenaar&#45;&gt;bezorg_meel_bij_bakker -->
<g id="edge8" class="edge">
<title>krijg_meel_bij_molenaar&#45;&gt;bezorg_meel_bij_bakker</title>
<path fill="none" stroke="#999999" d="M512.0656,-1167.4551C512.0656,-1158.7686 512.0656,-1148.1898 512.0656,-1138.642"/>
<polygon fill="#999999" stroke="#999999" points="514.8657,-1138.5903 512.0656,-1130.5904 509.2657,-1138.5904 514.8657,-1138.5903"/>
</g>
<!-- breng_dochter_naar_bakker -->
<g id="node13" class="node">
<title>breng_dochter_naar_bakker</title>
<path fill="#3333aa" stroke="#3333aa" d="M267.3548,-364.5C267.3548,-364.5 416.7764,-364.5 416.7764,-364.5 422.7764,-364.5 428.7764,-370.5 428.7764,-376.5 428.7764,-376.5 428.7764,-388.5 428.7764,-388.5 428.7764,-394.5 422.7764,-400.5 416.7764,-400.5 416.7764,-400.5 267.3548,-400.5 267.3548,-400.5 261.3548,-400.5 255.3548,-394.5 255.3548,-388.5 255.3548,-388.5 255.3548,-376.5 255.3548,-376.5 255.3548,-370.5 261.3548,-364.5 267.3548,-364.5"/>
<text text-anchor="middle" x="342.0656" y="-378.3" font-family="lato, roboto, helvetica" font-size="14.00" fill="#eeeeee">Breng Dochter Naar Bakker</text>
</g>
<!-- krijg_appel_taart_van_bakker -->
<g id="node43" class="node">
<title>krijg_appel_taart_van_bakker</title>
<path fill="#3333aa" stroke="#3333aa" d="M260.5452,-291.5C260.5452,-291.5 423.586,-291.5 423.586,-291.5 429.586,-291.5 435.586,-297.5 435.586,-303.5 435.586,-303.5 435.586,-315.5 435.586,-315.5 435.586,-321.5 429.586,-327.5 423.586,-327.5 423.586,-327.5 260.5452,-327.5 260.5452,-327.5 254.5452,-327.5 248.5452,-321.5 248.5452,-315.5 248.5452,-315.5 248.5452,-303.5 248.5452,-303.5 248.5452,-297.5 254.5452,-291.5 260.5452,-291.5"/>
<text text-anchor="middle" x="342.0656" y="-305.3" font-family="lato, roboto, helvetica" font-size="14.00" fill="#eeeeee">Krijg Appel Taart Van Bakker</text>
</g>
<!-- breng_dochter_naar_bakker&#45;&gt;krijg_appel_taart_van_bakker -->
<g id="edge36" class="edge">
<title>breng_dochter_naar_bakker&#45;&gt;krijg_appel_taart_van_bakker</title>
<path fill="none" stroke="#999999" d="M342.0656,-364.4551C342.0656,-355.7686 342.0656,-345.1898 342.0656,-335.642"/>
<polygon fill="#999999" stroke="#999999" points="344.8657,-335.5903 342.0656,-327.5904 339.2657,-335.5904 344.8657,-335.5903"/>
</g>
<!-- trek_tand_van_draak -->
<g id="node14" class="node">
<title>trek_tand_van_draak</title>
<path fill="#3333aa" stroke="#3333aa" d="M284.4593,-437.5C284.4593,-437.5 399.6719,-437.5 399.6719,-437.5 405.6719,-437.5 411.6719,-443.5 411.6719,-449.5 411.6719,-449.5 411.6719,-461.5 411.6719,-461.5 411.6719,-467.5 405.6719,-473.5 399.6719,-473.5 399.6719,-473.5 284.4593,-473.5 284.4593,-473.5 278.4593,-473.5 272.4593,-467.5 272.4593,-461.5 272.4593,-461.5 272.4593,-449.5 272.4593,-449.5 272.4593,-443.5 278.4593,-437.5 284.4593,-437.5"/>
<text text-anchor="middle" x="342.0656" y="-451.3" font-family="lato, roboto, helvetica" font-size="14.00" fill="#eeeeee">Trek Tand Van Draak</text>
</g>
<!-- trek_tand_van_draak&#45;&gt;breng_dochter_naar_bakker -->
<g id="edge9" class="edge">
<title>trek_tand_van_draak&#45;&gt;breng_dochter_naar_bakker</title>
<path fill="none" stroke="#999999" d="M342.0656,-437.4551C342.0656,-428.7686 342.0656,-418.1898 342.0656,-408.642"/>
<polygon fill="#999999" stroke="#999999" points="344.8657,-408.5903 342.0656,-400.5904 339.2657,-408.5904 344.8657,-408.5903"/>
</g>
<!-- zet_zadel_op_draak -->
<g id="node16" class="node">
<title>zet_zadel_op_draak</title>
<path fill="#3333aa" stroke="#3333aa" d="M370.899,-72.5C370.899,-72.5 475.2322,-72.5 475.2322,-72.5 481.2322,-72.5 487.2322,-78.5 487.2322,-84.5 487.2322,-84.5 487.2322,-96.5 487.2322,-96.5 487.2322,-102.5 481.2322,-108.5 475.2322,-108.5 475.2322,-108.5 370.899,-108.5 370.899,-108.5 364.899,-108.5 358.899,-102.5 358.899,-96.5 358.899,-96.5 358.899,-84.5 358.899,-84.5 358.899,-78.5 364.899,-72.5 370.899,-72.5"/>
<text text-anchor="middle" x="423.0656" y="-86.3" font-family="lato, roboto, helvetica" font-size="14.00" fill="#eeeeee">Zet Zadel Op Draak</text>
</g>
<!-- trek_tand_van_draak&#45;&gt;zet_zadel_op_draak -->
<g id="edge95" class="edge">
<title>trek_tand_van_draak&#45;&gt;zet_zadel_op_draak</title>
<path fill="none" stroke="#999999" d="M293.7424,-437.2555C276.5268,-428.6105 258.375,-416.6766 246.0656,-401 219.9566,-367.749 220.0656,-351.7766 220.0656,-309.5 220.0656,-309.5 220.0656,-309.5 220.0656,-236.5 220.0656,-170.0262 292.6943,-130.8389 351.0668,-110.0783"/>
<polygon fill="#999999" stroke="#999999" points="352.1891,-112.6529 358.8351,-107.3926 350.3593,-107.3603 352.1891,-112.6529"/>
</g>
<!-- pak_tand_van_draak -->
<g id="node53" class="node">
<title>pak_tand_van_draak</title>
<path fill="#3333aa" stroke="#3333aa" d="M620.1746,-364.5C620.1746,-364.5 729.9566,-364.5 729.9566,-364.5 735.9566,-364.5 741.9566,-370.5 741.9566,-376.5 741.9566,-376.5 741.9566,-388.5 741.9566,-388.5 741.9566,-394.5 735.9566,-400.5 729.9566,-400.5 729.9566,-400.5 620.1746,-400.5 620.1746,-400.5 614.1746,-400.5 608.1746,-394.5 608.1746,-388.5 608.1746,-388.5 608.1746,-376.5 608.1746,-376.5 608.1746,-370.5 614.1746,-364.5 620.1746,-364.5"/>
<text text-anchor="middle" x="675.0656" y="-378.3" font-family="lato, roboto, helvetica" font-size="14.00" fill="#eeeeee">Pak Tand Van Draak</text>
</g>
<!-- trek_tand_van_draak&#45;&gt;pak_tand_van_draak -->
<g id="edge59" class="edge">
<title>trek_tand_van_draak&#45;&gt;pak_tand_van_draak</title>
<path fill="none" stroke="#999999" d="M411.8733,-440.1968C466.9731,-428.1179 543.693,-411.2994 600.0889,-398.9363"/>
<polygon fill="#999999" stroke="#999999" points="600.6926,-401.6706 607.9074,-397.2224 599.4934,-396.2005 600.6926,-401.6706"/>
</g>
<!-- breng_medicijnen_naar_koning -->
<g id="node15" class="node">
<title>breng_medicijnen_naar_koning</title>
<polygon fill="#333333" stroke="#333333" points="489.0656,-36 300.2245,-18 489.0656,0 677.9067,-18 489.0656,-36"/>
<polyline fill="none" stroke="#333333" points="312.1703,-19.1387 312.1703,-16.8613 "/>
<polyline fill="none" stroke="#333333" points="477.1197,-1.1387 501.0115,-1.1387 "/>
<polyline fill="none" stroke="#333333" points="665.9609,-16.8613 665.9609,-19.1387 "/>
<polyline fill="none" stroke="#333333" points="501.0115,-34.8613 477.1197,-34.8613 "/>
<text text-anchor="middle" x="489.0656" y="-13.8" font-family="lato, roboto, helvetica" font-size="14.00" fill="#dddddd">Breng Medicijnen Naar Koning</text>
</g>
<!-- zet_zadel_op_draak&#45;&gt;breng_medicijnen_naar_koning -->
<g id="edge10" class="edge">
<title>zet_zadel_op_draak&#45;&gt;breng_medicijnen_naar_koning</title>
<path fill="none" stroke="#999999" d="M439.7202,-72.2052C448.3219,-62.7563 458.9058,-51.13 468.063,-41.071"/>
<polygon fill="#999999" stroke="#999999" points="470.2349,-42.8446 473.5498,-35.0438 466.0938,-39.0748 470.2349,-42.8446"/>
</g>
<!-- maak_medicijn -->
<g id="node17" class="node">
<title>maak_medicijn</title>
<path fill="#3333aa" stroke="#3333aa" d="M575.1059,-72.5C575.1059,-72.5 653.0253,-72.5 653.0253,-72.5 659.0253,-72.5 665.0253,-78.5 665.0253,-84.5 665.0253,-84.5 665.0253,-96.5 665.0253,-96.5 665.0253,-102.5 659.0253,-108.5 653.0253,-108.5 653.0253,-108.5 575.1059,-108.5 575.1059,-108.5 569.1059,-108.5 563.1059,-102.5 563.1059,-96.5 563.1059,-96.5 563.1059,-84.5 563.1059,-84.5 563.1059,-78.5 569.1059,-72.5 575.1059,-72.5"/>
<text text-anchor="middle" x="614.0656" y="-86.3" font-family="lato, roboto, helvetica" font-size="14.00" fill="#eeeeee">Maak Medicijn</text>
</g>
<!-- maak_medicijn&#45;&gt;breng_medicijnen_naar_koning -->
<g id="edge11" class="edge">
<title>maak_medicijn&#45;&gt;breng_medicijnen_naar_koning</title>
<path fill="none" stroke="#999999" d="M582.8453,-72.3922C564.7151,-61.8767 541.8535,-48.617 523.2418,-37.8222"/>
<polygon fill="#999999" stroke="#999999" points="524.4008,-35.2576 516.0757,-33.6659 521.5911,-40.1017 524.4008,-35.2576"/>
</g>
<!-- breng_molensteen_naar_toren -->
<g id="node18" class="node">
<title>breng_molensteen_naar_toren</title>
<path fill="#3333aa" stroke="#3333aa" d="M108.7405,-875.5C108.7405,-875.5 271.3907,-875.5 271.3907,-875.5 277.3907,-875.5 283.3907,-881.5 283.3907,-887.5 283.3907,-887.5 283.3907,-899.5 283.3907,-899.5 283.3907,-905.5 277.3907,-911.5 271.3907,-911.5 271.3907,-911.5 108.7405,-911.5 108.7405,-911.5 102.7405,-911.5 96.7405,-905.5 96.7405,-899.5 96.7405,-899.5 96.7405,-887.5 96.7405,-887.5 96.7405,-881.5 102.7405,-875.5 108.7405,-875.5"/>
<text text-anchor="middle" x="190.0656" y="-889.3" font-family="lato, roboto, helvetica" font-size="14.00" fill="#eeeeee">Breng Molensteen Naar Toren</text>
</g>
<!-- leg_molensteen_op_lift -->
<g id="node37" class="node">
<title>leg_molensteen_op_lift</title>
<path fill="#3333aa" stroke="#3333aa" d="M213.2244,-729.5C213.2244,-729.5 340.9068,-729.5 340.9068,-729.5 346.9068,-729.5 352.9068,-735.5 352.9068,-741.5 352.9068,-741.5 352.9068,-753.5 352.9068,-753.5 352.9068,-759.5 346.9068,-765.5 340.9068,-765.5 340.9068,-765.5 213.2244,-765.5 213.2244,-765.5 207.2244,-765.5 201.2244,-759.5 201.2244,-753.5 201.2244,-753.5 201.2244,-741.5 201.2244,-741.5 201.2244,-735.5 207.2244,-729.5 213.2244,-729.5"/>
<text text-anchor="middle" x="277.0656" y="-743.3" font-family="lato, roboto, helvetica" font-size="14.00" fill="#eeeeee">Leg Molensteen Op Lift</text>
</g>
<!-- breng_molensteen_naar_toren&#45;&gt;leg_molensteen_op_lift -->
<g id="edge51" class="edge">
<title>breng_molensteen_naar_toren&#45;&gt;leg_molensteen_op_lift</title>
<path fill="none" stroke="#999999" d="M190.8125,-875.3542C192.3552,-855.8992 197.0245,-824.7444 211.0656,-802 218.5698,-789.8444 229.745,-779.1329 240.7759,-770.4949"/>
<polygon fill="#999999" stroke="#999999" points="242.5084,-772.6955 247.2253,-765.6534 239.1464,-768.217 242.5084,-772.6955"/>
</g>
<!-- zet_molensteen_op_wagen&#45;&gt;breng_molensteen_naar_toren -->
<g id="edge12" class="edge">
<title>zet_molensteen_op_wagen&#45;&gt;breng_molensteen_naar_toren</title>
<path fill="none" stroke="#999999" d="M158.4144,-1021.3946C145.9316,-1012.2232 132.8605,-999.8627 126.0656,-985 119.2282,-970.0444 119.1701,-962.9289 126.0656,-948 131.7922,-935.6019 141.8838,-924.9856 152.3841,-916.505"/>
<polygon fill="#999999" stroke="#999999" points="154.2774,-918.5824 158.9394,-911.5038 150.8807,-914.1301 154.2774,-918.5824"/>
</g>
<!-- breng_paard_naar_hoefsmid -->
<g id="node20" class="node">
<title>breng_paard_naar_hoefsmid</title>
<path fill="#008800" stroke="#008800" d="M627.5715,-1532.5C627.5715,-1532.5 778.5597,-1532.5 778.5597,-1532.5 784.5597,-1532.5 790.5597,-1538.5 790.5597,-1544.5 790.5597,-1544.5 790.5597,-1556.5 790.5597,-1556.5 790.5597,-1562.5 784.5597,-1568.5 778.5597,-1568.5 778.5597,-1568.5 627.5715,-1568.5 627.5715,-1568.5 621.5715,-1568.5 615.5715,-1562.5 615.5715,-1556.5 615.5715,-1556.5 615.5715,-1544.5 615.5715,-1544.5 615.5715,-1538.5 621.5715,-1532.5 627.5715,-1532.5"/>
<text text-anchor="middle" x="703.0656" y="-1546.3" font-family="lato, roboto, helvetica" font-size="14.00" fill="#eeeeee">Breng Paard Naar Hoefsmid</text>
</g>
<!-- breng_paard_naar_hoefsmid&#45;&gt;geef_paard_nieuwe_hoefijzers -->
<g id="edge18" class="edge">
<title>breng_paard_naar_hoefsmid&#45;&gt;geef_paard_nieuwe_hoefijzers</title>
<path fill="none" stroke="#999999" d="M706.0319,-1532.4551C707.4598,-1523.7686 709.1988,-1513.1898 710.7683,-1503.642"/>
<polygon fill="#999999" stroke="#999999" points="713.557,-1503.9386 712.0918,-1495.5904 708.0312,-1503.0302 713.557,-1503.9386"/>
</g>
<!-- vind_paard_bij_rivier -->
<g id="node21" class="node">
<title>vind_paard_bij_rivier</title>
<path fill="#008800" stroke="#008800" d="M631.8254,-1605.5C631.8254,-1605.5 746.3058,-1605.5 746.3058,-1605.5 752.3058,-1605.5 758.3058,-1611.5 758.3058,-1617.5 758.3058,-1617.5 758.3058,-1629.5 758.3058,-1629.5 758.3058,-1635.5 752.3058,-1641.5 746.3058,-1641.5 746.3058,-1641.5 631.8254,-1641.5 631.8254,-1641.5 625.8254,-1641.5 619.8254,-1635.5 619.8254,-1629.5 619.8254,-1629.5 619.8254,-1617.5 619.8254,-1617.5 619.8254,-1611.5 625.8254,-1605.5 631.8254,-1605.5"/>
<text text-anchor="middle" x="689.0656" y="-1619.3" font-family="lato, roboto, helvetica" font-size="14.00" fill="#eeeeee">Vind Paard Bij Rivier</text>
</g>
<!-- vind_paard_bij_rivier&#45;&gt;breng_paard_naar_hoefsmid -->
<g id="edge13" class="edge">
<title>vind_paard_bij_rivier&#45;&gt;breng_paard_naar_hoefsmid</title>
<path fill="none" stroke="#999999" d="M692.5263,-1605.4551C694.1922,-1596.7686 696.221,-1586.1898 698.0521,-1576.642"/>
<polygon fill="#999999" stroke="#999999" points="700.8392,-1576.9746 699.5962,-1568.5904 695.3395,-1575.9198 700.8392,-1576.9746"/>
</g>
<!-- ga_naar_hut_in_moeras -->
<g id="node22" class="node">
<title>ga_naar_hut_in_moeras</title>
<path fill="#008800" stroke="#008800" d="M548.9884,-802.5C548.9884,-802.5 673.1428,-802.5 673.1428,-802.5 679.1428,-802.5 685.1428,-808.5 685.1428,-814.5 685.1428,-814.5 685.1428,-826.5 685.1428,-826.5 685.1428,-832.5 679.1428,-838.5 673.1428,-838.5 673.1428,-838.5 548.9884,-838.5 548.9884,-838.5 542.9884,-838.5 536.9884,-832.5 536.9884,-826.5 536.9884,-826.5 536.9884,-814.5 536.9884,-814.5 536.9884,-808.5 542.9884,-802.5 548.9884,-802.5"/>
<text text-anchor="middle" x="611.0656" y="-816.3" font-family="lato, roboto, helvetica" font-size="14.00" fill="#eeeeee">Ga Naar Hut In Moeras</text>
</g>
<!-- praat_met_heks -->
<g id="node31" class="node">
<title>praat_met_heks</title>
<path fill="#008800" stroke="#008800" d="M780.5263,-729.5C780.5263,-729.5 859.6049,-729.5 859.6049,-729.5 865.6049,-729.5 871.6049,-735.5 871.6049,-741.5 871.6049,-741.5 871.6049,-753.5 871.6049,-753.5 871.6049,-759.5 865.6049,-765.5 859.6049,-765.5 859.6049,-765.5 780.5263,-765.5 780.5263,-765.5 774.5263,-765.5 768.5263,-759.5 768.5263,-753.5 768.5263,-753.5 768.5263,-741.5 768.5263,-741.5 768.5263,-735.5 774.5263,-729.5 780.5263,-729.5"/>
<text text-anchor="middle" x="820.0656" y="-743.3" font-family="lato, roboto, helvetica" font-size="14.00" fill="#eeeeee">Praat Met Heks</text>
</g>
<!-- ga_naar_hut_in_moeras&#45;&gt;praat_met_heks -->
<g id="edge71" class="edge">
<title>ga_naar_hut_in_moeras&#45;&gt;praat_met_heks</title>
<path fill="none" stroke="#999999" d="M662.7285,-802.4551C692.3707,-792.1016 729.7101,-779.0596 760.574,-768.2794"/>
<polygon fill="#999999" stroke="#999999" points="761.6434,-770.8718 768.2727,-765.5904 759.7968,-765.585 761.6434,-770.8718"/>
</g>
<!-- praat_met_bakker&#45;&gt;koop_zwaard_voor_99_bij_wapensmid -->
<g id="edge34" class="edge">
<title>praat_met_bakker&#45;&gt;koop_zwaard_voor_99_bij_wapensmid</title>
<path fill="none" stroke="#999999" d="M438.0656,-1021.4551C438.0656,-1012.7686 438.0656,-1002.1898 438.0656,-992.642"/>
<polygon fill="#999999" stroke="#999999" points="440.8657,-992.5903 438.0656,-984.5904 435.2657,-992.5904 440.8657,-992.5903"/>
</g>
<!-- praat_met_bakker&#45;&gt;genoeg_info_over_monster -->
<g id="edge22" class="edge">
<title>praat_met_bakker&#45;&gt;genoeg_info_over_monster</title>
<path fill="none" stroke="#999999" d="M383.9308,-1021.4551C352.7387,-1011.0577 313.4127,-997.949 280.9929,-987.1424"/>
<polygon fill="#999999" stroke="#999999" points="281.8116,-984.4639 273.3367,-984.5904 280.0407,-989.7766 281.8116,-984.4639"/>
</g>
<!-- praat_met_bakker&#45;&gt;ga_naar_hut_in_moeras -->
<g id="edge14" class="edge">
<title>praat_met_bakker&#45;&gt;ga_naar_hut_in_moeras</title>
<path fill="none" stroke="#999999" d="M491.8232,-1021.4746C521.2641,-1010.6214 553.8062,-996.6873 564.0656,-985 598.5672,-945.6965 607.8426,-882.6383 610.2714,-847.0962"/>
<polygon fill="#999999" stroke="#999999" points="613.091,-846.8309 610.7525,-838.6841 607.5002,-846.5111 613.091,-846.8309"/>
</g>
<!-- geef_dwerg_eten -->
<g id="node24" class="node">
<title>geef_dwerg_eten</title>
<path fill="#008800" stroke="#008800" d="M1138.0943,-802.5C1138.0943,-802.5 1228.0369,-802.5 1228.0369,-802.5 1234.0369,-802.5 1240.0369,-808.5 1240.0369,-814.5 1240.0369,-814.5 1240.0369,-826.5 1240.0369,-826.5 1240.0369,-832.5 1234.0369,-838.5 1228.0369,-838.5 1228.0369,-838.5 1138.0943,-838.5 1138.0943,-838.5 1132.0943,-838.5 1126.0943,-832.5 1126.0943,-826.5 1126.0943,-826.5 1126.0943,-814.5 1126.0943,-814.5 1126.0943,-808.5 1132.0943,-802.5 1138.0943,-802.5"/>
<text text-anchor="middle" x="1183.0656" y="-816.3" font-family="lato, roboto, helvetica" font-size="14.00" fill="#eeeeee">Geef Dwerg Eten</text>
</g>
<!-- krijg_edelsteen_van_dwerg -->
<g id="node44" class="node">
<title>krijg_edelsteen_van_dwerg</title>
<path fill="#008800" stroke="#008800" d="M1109.1255,-729.5C1109.1255,-729.5 1257.0057,-729.5 1257.0057,-729.5 1263.0057,-729.5 1269.0057,-735.5 1269.0057,-741.5 1269.0057,-741.5 1269.0057,-753.5 1269.0057,-753.5 1269.0057,-759.5 1263.0057,-765.5 1257.0057,-765.5 1257.0057,-765.5 1109.1255,-765.5 1109.1255,-765.5 1103.1255,-765.5 1097.1255,-759.5 1097.1255,-753.5 1097.1255,-753.5 1097.1255,-741.5 1097.1255,-741.5 1097.1255,-735.5 1103.1255,-729.5 1109.1255,-729.5"/>
<text text-anchor="middle" x="1183.0656" y="-743.3" font-family="lato, roboto, helvetica" font-size="14.00" fill="#eeeeee">Krijg Edelsteen Van Dwerg</text>
</g>
<!-- geef_dwerg_eten&#45;&gt;krijg_edelsteen_van_dwerg -->
<g id="edge37" class="edge">
<title>geef_dwerg_eten&#45;&gt;krijg_edelsteen_van_dwerg</title>
<path fill="none" stroke="#999999" d="M1183.0656,-802.4551C1183.0656,-793.7686 1183.0656,-783.1898 1183.0656,-773.642"/>
<polygon fill="#999999" stroke="#999999" points="1185.8657,-773.5903 1183.0656,-765.5904 1180.2657,-773.5904 1185.8657,-773.5903"/>
</g>
<!-- praat_met_dwerg&#45;&gt;geef_dwerg_eten -->
<g id="edge15" class="edge">
<title>praat_met_dwerg&#45;&gt;geef_dwerg_eten</title>
<path fill="none" stroke="#999999" d="M1332.0656,-1678.062C1332.0656,-1650.3663 1332.0656,-1596.3785 1332.0656,-1550.5 1332.0656,-1550.5 1332.0656,-1550.5 1332.0656,-966.5 1332.0656,-908.6932 1274.1428,-866.2141 1230.5261,-842.4213"/>
<polygon fill="#999999" stroke="#999999" points="1231.7648,-839.9087 1223.3871,-838.622 1229.1338,-844.8523 1231.7648,-839.9087"/>
</g>
<!-- krijg_kapotte_houweel_van_dwerg -->
<g id="node46" class="node">
<title>krijg_kapotte_houweel_van_dwerg</title>
<path fill="#008800" stroke="#008800" d="M1372.1616,-1605.5C1372.1616,-1605.5 1563.9696,-1605.5 1563.9696,-1605.5 1569.9696,-1605.5 1575.9696,-1611.5 1575.9696,-1617.5 1575.9696,-1617.5 1575.9696,-1629.5 1575.9696,-1629.5 1575.9696,-1635.5 1569.9696,-1641.5 1563.9696,-1641.5 1563.9696,-1641.5 1372.1616,-1641.5 1372.1616,-1641.5 1366.1616,-1641.5 1360.1616,-1635.5 1360.1616,-1629.5 1360.1616,-1629.5 1360.1616,-1617.5 1360.1616,-1617.5 1360.1616,-1611.5 1366.1616,-1605.5 1372.1616,-1605.5"/>
<text text-anchor="middle" x="1468.0656" y="-1619.3" font-family="lato, roboto, helvetica" font-size="14.00" fill="#eeeeee">Krijg Kapotte Houweel Van Dwerg</text>
</g>
<!-- praat_met_dwerg&#45;&gt;krijg_kapotte_houweel_van_dwerg -->
<g id="edge41" class="edge">
<title>praat_met_dwerg&#45;&gt;krijg_kapotte_houweel_van_dwerg</title>
<path fill="none" stroke="#999999" d="M1365.6836,-1678.4551C1384.3184,-1668.4525 1407.6281,-1655.9407 1427.2968,-1645.3833"/>
<polygon fill="#999999" stroke="#999999" points="1428.6385,-1647.841 1434.363,-1641.5904 1425.99,-1642.9069 1428.6385,-1647.841"/>
</g>
<!-- koop_eten_bij_bakker -->
<g id="node26" class="node">
<title>koop_eten_bij_bakker</title>
<path fill="#008800" stroke="#008800" d="M1137.6613,-875.5C1137.6613,-875.5 1254.4699,-875.5 1254.4699,-875.5 1260.4699,-875.5 1266.4699,-881.5 1266.4699,-887.5 1266.4699,-887.5 1266.4699,-899.5 1266.4699,-899.5 1266.4699,-905.5 1260.4699,-911.5 1254.4699,-911.5 1254.4699,-911.5 1137.6613,-911.5 1137.6613,-911.5 1131.6613,-911.5 1125.6613,-905.5 1125.6613,-899.5 1125.6613,-899.5 1125.6613,-887.5 1125.6613,-887.5 1125.6613,-881.5 1131.6613,-875.5 1137.6613,-875.5"/>
<text text-anchor="middle" x="1196.0656" y="-889.3" font-family="lato, roboto, helvetica" font-size="14.00" fill="#eeeeee">Koop Eten Bij Bakker</text>
</g>
<!-- koop_eten_bij_bakker&#45;&gt;geef_dwerg_eten -->
<g id="edge16" class="edge">
<title>koop_eten_bij_bakker&#45;&gt;geef_dwerg_eten</title>
<path fill="none" stroke="#999999" d="M1192.8521,-875.4551C1191.3052,-866.7686 1189.4213,-856.1898 1187.721,-846.642"/>
<polygon fill="#999999" stroke="#999999" points="1190.4465,-845.9755 1186.2872,-838.5904 1184.9332,-846.9574 1190.4465,-845.9755"/>
</g>
<!-- geef_houweel_aan_dwerg -->
<g id="node27" class="node">
<title>geef_houweel_aan_dwerg</title>
<path fill="#008800" stroke="#008800" d="M1384.2461,-1386.5C1384.2461,-1386.5 1525.8851,-1386.5 1525.8851,-1386.5 1531.8851,-1386.5 1537.8851,-1392.5 1537.8851,-1398.5 1537.8851,-1398.5 1537.8851,-1410.5 1537.8851,-1410.5 1537.8851,-1416.5 1531.8851,-1422.5 1525.8851,-1422.5 1525.8851,-1422.5 1384.2461,-1422.5 1384.2461,-1422.5 1378.2461,-1422.5 1372.2461,-1416.5 1372.2461,-1410.5 1372.2461,-1410.5 1372.2461,-1398.5 1372.2461,-1398.5 1372.2461,-1392.5 1378.2461,-1386.5 1384.2461,-1386.5"/>
<text text-anchor="middle" x="1455.0656" y="-1400.3" font-family="lato, roboto, helvetica" font-size="14.00" fill="#eeeeee">Geef Houweel Aan Dwerg</text>
</g>
<!-- geef_houweel_aan_dwerg&#45;&gt;krijg_edelsteen_van_dwerg -->
<g id="edge38" class="edge">
<title>geef_houweel_aan_dwerg&#45;&gt;krijg_edelsteen_van_dwerg</title>
<path fill="none" stroke="#999999" d="M1435.7778,-1386.2017C1410.6992,-1360.335 1370.0656,-1310.4141 1370.0656,-1258.5 1370.0656,-1258.5 1370.0656,-1258.5 1370.0656,-966.5 1370.0656,-924.4577 1369.1676,-910.1263 1346.0656,-875 1315.5273,-828.5668 1262.3806,-791.6957 1225.0976,-769.7844"/>
<polygon fill="#999999" stroke="#999999" points="1226.1914,-767.1826 1217.8639,-765.6032 1223.3889,-772.0309 1226.1914,-767.1826"/>
</g>
<!-- repareer_houweel -->
<g id="node28" class="node">
<title>repareer_houweel</title>
<path fill="#008800" stroke="#008800" d="M1419.791,-1532.5C1419.791,-1532.5 1516.3402,-1532.5 1516.3402,-1532.5 1522.3402,-1532.5 1528.3402,-1538.5 1528.3402,-1544.5 1528.3402,-1544.5 1528.3402,-1556.5 1528.3402,-1556.5 1528.3402,-1562.5 1522.3402,-1568.5 1516.3402,-1568.5 1516.3402,-1568.5 1419.791,-1568.5 1419.791,-1568.5 1413.791,-1568.5 1407.791,-1562.5 1407.791,-1556.5 1407.791,-1556.5 1407.791,-1544.5 1407.791,-1544.5 1407.791,-1538.5 1413.791,-1532.5 1419.791,-1532.5"/>
<text text-anchor="middle" x="1468.0656" y="-1546.3" font-family="lato, roboto, helvetica" font-size="14.00" fill="#eeeeee">Repareer Houweel</text>
</g>
<!-- repareer_houweel&#45;&gt;geef_houweel_aan_dwerg -->
<g id="edge17" class="edge">
<title>repareer_houweel&#45;&gt;geef_houweel_aan_dwerg</title>
<path fill="none" stroke="#999999" d="M1466.4454,-1532.3042C1464.1781,-1506.8403 1460.044,-1460.4108 1457.432,-1431.0759"/>
<polygon fill="#999999" stroke="#999999" points="1460.2048,-1430.6452 1456.7062,-1422.9251 1454.6268,-1431.1419 1460.2048,-1430.6452"/>
</g>
<!-- haal_wagen_bij_molenaar_met_paard -->
<g id="node34" class="node">
<title>haal_wagen_bij_molenaar_met_paard</title>
<path fill="#008800" stroke="#008800" d="M614.6907,-1386.5C614.6907,-1386.5 815.4405,-1386.5 815.4405,-1386.5 821.4405,-1386.5 827.4405,-1392.5 827.4405,-1398.5 827.4405,-1398.5 827.4405,-1410.5 827.4405,-1410.5 827.4405,-1416.5 821.4405,-1422.5 815.4405,-1422.5 815.4405,-1422.5 614.6907,-1422.5 614.6907,-1422.5 608.6907,-1422.5 602.6907,-1416.5 602.6907,-1410.5 602.6907,-1410.5 602.6907,-1398.5 602.6907,-1398.5 602.6907,-1392.5 608.6907,-1386.5 614.6907,-1386.5"/>
<text text-anchor="middle" x="715.0656" y="-1400.3" font-family="lato, roboto, helvetica" font-size="14.00" fill="#eeeeee">Haal Wagen Bij Molenaar Met Paard</text>
</g>
<!-- geef_paard_nieuwe_hoefijzers&#45;&gt;haal_wagen_bij_molenaar_met_paard -->
<g id="edge24" class="edge">
<title>geef_paard_nieuwe_hoefijzers&#45;&gt;haal_wagen_bij_molenaar_met_paard</title>
<path fill="none" stroke="#999999" d="M715.0656,-1459.4551C715.0656,-1450.7686 715.0656,-1440.1898 715.0656,-1430.642"/>
<polygon fill="#999999" stroke="#999999" points="717.8657,-1430.5903 715.0656,-1422.5904 712.2657,-1430.5904 717.8657,-1430.5903"/>
</g>
<!-- geef_sieraad_aan_heks -->
<g id="node30" class="node">
<title>geef_sieraad_aan_heks</title>
<path fill="#008800" stroke="#008800" d="M774.1851,-583.5C774.1851,-583.5 897.9461,-583.5 897.9461,-583.5 903.9461,-583.5 909.9461,-589.5 909.9461,-595.5 909.9461,-595.5 909.9461,-607.5 909.9461,-607.5 909.9461,-613.5 903.9461,-619.5 897.9461,-619.5 897.9461,-619.5 774.1851,-619.5 774.1851,-619.5 768.1851,-619.5 762.1851,-613.5 762.1851,-607.5 762.1851,-607.5 762.1851,-595.5 762.1851,-595.5 762.1851,-589.5 768.1851,-583.5 774.1851,-583.5"/>
<text text-anchor="middle" x="836.0656" y="-597.3" font-family="lato, roboto, helvetica" font-size="14.00" fill="#eeeeee">Geef Sieraad Aan Heks</text>
</g>
<!-- krijg_ingredientenlijst_van_heks -->
<g id="node45" class="node">
<title>krijg_ingredientenlijst_van_heks</title>
<path fill="#008800" stroke="#008800" d="M748.1213,-437.5C748.1213,-437.5 924.0099,-437.5 924.0099,-437.5 930.0099,-437.5 936.0099,-443.5 936.0099,-449.5 936.0099,-449.5 936.0099,-461.5 936.0099,-461.5 936.0099,-467.5 930.0099,-473.5 924.0099,-473.5 924.0099,-473.5 748.1213,-473.5 748.1213,-473.5 742.1213,-473.5 736.1213,-467.5 736.1213,-461.5 736.1213,-461.5 736.1213,-449.5 736.1213,-449.5 736.1213,-443.5 742.1213,-437.5 748.1213,-437.5"/>
<text text-anchor="middle" x="836.0656" y="-451.3" font-family="lato, roboto, helvetica" font-size="14.00" fill="#eeeeee">Krijg Ingredientenlijst Van Heks</text>
</g>
<!-- geef_sieraad_aan_heks&#45;&gt;krijg_ingredientenlijst_van_heks -->
<g id="edge40" class="edge">
<title>geef_sieraad_aan_heks&#45;&gt;krijg_ingredientenlijst_van_heks</title>
<path fill="none" stroke="#999999" d="M836.0656,-583.3042C836.0656,-557.8403 836.0656,-511.4108 836.0656,-482.0759"/>
<polygon fill="#999999" stroke="#999999" points="838.8657,-481.9251 836.0656,-473.9251 833.2657,-481.9251 838.8657,-481.9251"/>
</g>
<!-- praat_met_heks&#45;&gt;geef_sieraad_aan_heks -->
<g id="edge20" class="edge">
<title>praat_met_heks&#45;&gt;geef_sieraad_aan_heks</title>
<path fill="none" stroke="#999999" d="M822.0597,-729.3042C824.8502,-703.8403 829.9384,-657.4108 833.1532,-628.0759"/>
<polygon fill="#999999" stroke="#999999" points="835.9582,-628.1826 834.0464,-619.9251 830.3915,-627.5724 835.9582,-628.1826"/>
</g>
<!-- maak_sieraad_bij_smid -->
<g id="node32" class="node">
<title>maak_sieraad_bij_smid</title>
<path fill="#008800" stroke="#008800" d="M887.5491,-656.5C887.5491,-656.5 1010.5821,-656.5 1010.5821,-656.5 1016.5821,-656.5 1022.5821,-662.5 1022.5821,-668.5 1022.5821,-668.5 1022.5821,-680.5 1022.5821,-680.5 1022.5821,-686.5 1016.5821,-692.5 1010.5821,-692.5 1010.5821,-692.5 887.5491,-692.5 887.5491,-692.5 881.5491,-692.5 875.5491,-686.5 875.5491,-680.5 875.5491,-680.5 875.5491,-668.5 875.5491,-668.5 875.5491,-662.5 881.5491,-656.5 887.5491,-656.5"/>
<text text-anchor="middle" x="949.0656" y="-670.3" font-family="lato, roboto, helvetica" font-size="14.00" fill="#eeeeee">Maak Sieraad Bij Smid</text>
</g>
<!-- praat_met_heks&#45;&gt;maak_sieraad_bij_smid -->
<g id="edge56" class="edge">
<title>praat_met_heks&#45;&gt;maak_sieraad_bij_smid</title>
<path fill="none" stroke="#999999" d="M851.9532,-729.4551C869.4739,-719.5403 891.3513,-707.16 909.9034,-696.6615"/>
<polygon fill="#999999" stroke="#999999" points="911.5142,-698.9673 917.0977,-692.5904 908.7562,-694.0935 911.5142,-698.9673"/>
</g>
<!-- maak_sieraad_bij_smid&#45;&gt;krijg_geldstuk_van_smid -->
<g id="edge39" class="edge">
<title>maak_sieraad_bij_smid&#45;&gt;krijg_geldstuk_van_smid</title>
<path fill="none" stroke="#999999" d="M1005.4252,-656.4551C1037.8991,-646.0577 1078.8413,-632.949 1112.5933,-622.1424"/>
<polygon fill="#999999" stroke="#999999" points="1113.799,-624.6965 1120.5642,-619.5904 1112.0914,-619.3632 1113.799,-624.6965"/>
</g>
<!-- maak_sieraad_bij_smid&#45;&gt;geef_sieraad_aan_heks -->
<g id="edge21" class="edge">
<title>maak_sieraad_bij_smid&#45;&gt;geef_sieraad_aan_heks</title>
<path fill="none" stroke="#999999" d="M921.133,-656.4551C905.9213,-646.628 886.9604,-634.3789 870.8026,-623.9407"/>
<polygon fill="#999999" stroke="#999999" points="872.3076,-621.5796 864.0685,-619.5904 869.2689,-626.2834 872.3076,-621.5796"/>
</g>
<!-- praat_met_boer&#45;&gt;genoeg_info_over_monster -->
<g id="edge23" class="edge">
<title>praat_met_boer&#45;&gt;genoeg_info_over_monster</title>
<path fill="none" stroke="#999999" d="M591.2022,-1686.4024C500.6889,-1665.1477 321.0656,-1606.6926 321.0656,-1477.5 321.0656,-1477.5 321.0656,-1477.5 321.0656,-1112.5 321.0656,-1068.2934 308.119,-1056.7133 282.0656,-1021 273.6661,-1009.4862 262.3976,-998.7607 251.7137,-989.9228"/>
<polygon fill="#999999" stroke="#999999" points="253.1608,-987.4941 245.1679,-984.6737 249.6574,-991.863 253.1608,-987.4941"/>
</g>
<!-- praat_met_boer&#45;&gt;zet_graan_op_wagen -->
<g id="edge93" class="edge">
<title>praat_met_boer&#45;&gt;zet_graan_op_wagen</title>
<path fill="none" stroke="#999999" d="M629.188,-1678.205C622.6685,-1668.0159 615.2641,-1654.8283 611.0656,-1642 577.8987,-1540.6605 574.4373,-1411.9663 574.6204,-1357.6083"/>
<polygon fill="#999999" stroke="#999999" points="577.4207,-1357.5575 574.6771,-1349.538 571.8209,-1357.5181 577.4207,-1357.5575"/>
</g>
<!-- praat_met_boer&#45;&gt;vind_paard_bij_rivier -->
<g id="edge88" class="edge">
<title>praat_met_boer&#45;&gt;vind_paard_bij_rivier</title>
<path fill="none" stroke="#999999" d="M653.6836,-1678.4551C659.5022,-1669.4177 666.6396,-1658.3319 672.9762,-1648.4899"/>
<polygon fill="#999999" stroke="#999999" points="675.4419,-1649.8326 677.4184,-1641.5904 670.7334,-1646.801 675.4419,-1649.8326"/>
</g>
<!-- haal_wagen_bij_molenaar_met_paard&#45;&gt;zet_graan_op_wagen -->
<g id="edge92" class="edge">
<title>haal_wagen_bij_molenaar_met_paard&#45;&gt;zet_graan_op_wagen</title>
<path fill="none" stroke="#999999" d="M680.4588,-1386.4551C661.2759,-1376.4525 637.2806,-1363.9407 617.0335,-1353.3833"/>
<polygon fill="#999999" stroke="#999999" points="618.1476,-1350.8065 609.7594,-1349.5904 615.5584,-1355.772 618.1476,-1350.8065"/>
</g>
<!-- repareer_molen_met_onderbroek -->
<g id="node35" class="node">
<title>repareer_molen_met_onderbroek</title>
<path fill="#008800" stroke="#008800" d="M360.5792,-1459.5C360.5792,-1459.5 539.552,-1459.5 539.552,-1459.5 545.552,-1459.5 551.552,-1465.5 551.552,-1471.5 551.552,-1471.5 551.552,-1483.5 551.552,-1483.5 551.552,-1489.5 545.552,-1495.5 539.552,-1495.5 539.552,-1495.5 360.5792,-1495.5 360.5792,-1495.5 354.5792,-1495.5 348.5792,-1489.5 348.5792,-1483.5 348.5792,-1483.5 348.5792,-1471.5 348.5792,-1471.5 348.5792,-1465.5 354.5792,-1459.5 360.5792,-1459.5"/>
<text text-anchor="middle" x="450.0656" y="-1473.3" font-family="lato, roboto, helvetica" font-size="14.00" fill="#eeeeee">Repareer Molen Met Onderbroek</text>
</g>
<!-- repareer_molen_met_onderbroek&#45;&gt;krijg_meel_bij_molenaar -->
<g id="edge43" class="edge">
<title>repareer_molen_met_onderbroek&#45;&gt;krijg_meel_bij_molenaar</title>
<path fill="none" stroke="#999999" d="M449.5466,-1459.3213C448.9524,-1418.7324 450.6336,-1318.1543 478.0656,-1240 481.6794,-1229.7042 487.4975,-1219.3173 493.3069,-1210.4129"/>
<polygon fill="#999999" stroke="#999999" points="495.7425,-1211.8105 497.9219,-1203.6196 491.1103,-1208.6636 495.7425,-1211.8105"/>
</g>
<!-- repareer_molen_met_onderbroek&#45;&gt;haal_wagen_bij_molenaar_met_paard -->
<g id="edge25" class="edge">
<title>repareer_molen_met_onderbroek&#45;&gt;haal_wagen_bij_molenaar_met_paard</title>
<path fill="none" stroke="#999999" d="M515.5712,-1459.4551C553.7929,-1448.9261 602.1076,-1435.6167 641.6164,-1424.7332"/>
<polygon fill="#999999" stroke="#999999" points="642.426,-1427.4145 649.3951,-1422.5904 640.9388,-1422.0156 642.426,-1427.4145"/>
</g>
<!-- hijs_lift_met_molensteen -->
<g id="node36" class="node">
<title>hijs_lift_met_molensteen</title>
<path fill="#3333aa" stroke="#3333aa" d="M209.7202,-656.5C209.7202,-656.5 344.411,-656.5 344.411,-656.5 350.411,-656.5 356.411,-662.5 356.411,-668.5 356.411,-668.5 356.411,-680.5 356.411,-680.5 356.411,-686.5 350.411,-692.5 344.411,-692.5 344.411,-692.5 209.7202,-692.5 209.7202,-692.5 203.7202,-692.5 197.7202,-686.5 197.7202,-680.5 197.7202,-680.5 197.7202,-668.5 197.7202,-668.5 197.7202,-662.5 203.7202,-656.5 209.7202,-656.5"/>
<text text-anchor="middle" x="277.0656" y="-670.3" font-family="lato, roboto, helvetica" font-size="14.00" fill="#eeeeee">Hijs Lift Met Molensteen</text>
</g>
<!-- knoop_touw_aan_molensteen -->
<g id="node38" class="node">
<title>knoop_touw_aan_molensteen</title>
<path fill="#3333aa" stroke="#3333aa" d="M180.115,-583.5C180.115,-583.5 342.0162,-583.5 342.0162,-583.5 348.0162,-583.5 354.0162,-589.5 354.0162,-595.5 354.0162,-595.5 354.0162,-607.5 354.0162,-607.5 354.0162,-613.5 348.0162,-619.5 342.0162,-619.5 342.0162,-619.5 180.115,-619.5 180.115,-619.5 174.115,-619.5 168.115,-613.5 168.115,-607.5 168.115,-607.5 168.115,-595.5 168.115,-595.5 168.115,-589.5 174.115,-583.5 180.115,-583.5"/>
<text text-anchor="middle" x="261.0656" y="-597.3" font-family="lato, roboto, helvetica" font-size="14.00" fill="#eeeeee">Knoop Touw Aan Molensteen</text>
</g>
<!-- hijs_lift_met_molensteen&#45;&gt;knoop_touw_aan_molensteen -->
<g id="edge28" class="edge">
<title>hijs_lift_met_molensteen&#45;&gt;knoop_touw_aan_molensteen</title>
<path fill="none" stroke="#999999" d="M273.1105,-656.4551C271.2067,-647.7686 268.888,-637.1898 266.7954,-627.642"/>
<polygon fill="#999999" stroke="#999999" points="269.4785,-626.8054 265.0306,-619.5904 264.0084,-628.0044 269.4785,-626.8054"/>
</g>
<!-- hijs_lift_met_molensteen&#45;&gt;snij_touw_van_lift -->
<g id="edge82" class="edge">
<title>hijs_lift_met_molensteen&#45;&gt;snij_touw_van_lift</title>
<path fill="none" stroke="#999999" d="M323.0987,-656.4616C338.6536,-647.8897 354.2895,-635.9516 363.0656,-620 374.3708,-599.4514 366.3315,-573.0934 357.1229,-553.9494"/>
<polygon fill="#999999" stroke="#999999" points="359.5708,-552.5864 353.4364,-546.7375 354.5845,-555.1353 359.5708,-552.5864"/>
</g>
<!-- leg_molensteen_op_lift&#45;&gt;hijs_lift_met_molensteen -->
<g id="edge26" class="edge">
<title>leg_molensteen_op_lift&#45;&gt;hijs_lift_met_molensteen</title>
<path fill="none" stroke="#999999" d="M277.0656,-729.4551C277.0656,-720.7686 277.0656,-710.1898 277.0656,-700.642"/>
<polygon fill="#999999" stroke="#999999" points="279.8657,-700.5903 277.0656,-692.5904 274.2657,-700.5904 279.8657,-700.5903"/>
</g>
<!-- knoop_touw_aan_molensteen&#45;&gt;snij_touw_van_lift -->
<g id="edge80" class="edge">
<title>knoop_touw_aan_molensteen&#45;&gt;snij_touw_van_lift</title>
<path fill="none" stroke="#999999" d="M281.0881,-583.4551C291.6026,-573.979 304.6161,-562.2508 315.9172,-552.0658"/>
<polygon fill="#999999" stroke="#999999" points="317.9245,-554.0261 321.9927,-546.5904 314.1755,-549.8662 317.9245,-554.0261"/>
</g>
<!-- pak_touw_op_boerderij&#45;&gt;knoop_touw_aan_molensteen -->
<g id="edge27" class="edge">
<title>pak_touw_op_boerderij&#45;&gt;knoop_touw_aan_molensteen</title>
<path fill="none" stroke="#999999" d="M121.0431,-656.4551C147.1997,-646.1893 180.0908,-633.2804 207.4214,-622.5539"/>
<polygon fill="#999999" stroke="#999999" points="208.5483,-625.1196 214.9724,-619.5904 206.5024,-619.9067 208.5483,-625.1196"/>
</g>
<!-- knoop_touw_aan_tand -->
<g id="node40" class="node">
<title>knoop_touw_aan_tand</title>
<path fill="#3333aa" stroke="#3333aa" d="M12.3885,-583.5C12.3885,-583.5 137.7427,-583.5 137.7427,-583.5 143.7427,-583.5 149.7427,-589.5 149.7427,-595.5 149.7427,-595.5 149.7427,-607.5 149.7427,-607.5 149.7427,-613.5 143.7427,-619.5 137.7427,-619.5 137.7427,-619.5 12.3885,-619.5 12.3885,-619.5 6.3885,-619.5 .3885,-613.5 .3885,-607.5 .3885,-607.5 .3885,-595.5 .3885,-595.5 .3885,-589.5 6.3885,-583.5 12.3885,-583.5"/>
<text text-anchor="middle" x="75.0656" y="-597.3" font-family="lato, roboto, helvetica" font-size="14.00" fill="#eeeeee">Knoop Touw Aan Tand</text>
</g>
<!-- pak_touw_op_boerderij&#45;&gt;knoop_touw_aan_tand -->
<g id="edge29" class="edge">
<title>pak_touw_op_boerderij&#45;&gt;knoop_touw_aan_tand</title>
<path fill="none" stroke="#999999" d="M75.0656,-656.4551C75.0656,-647.7686 75.0656,-637.1898 75.0656,-627.642"/>
<polygon fill="#999999" stroke="#999999" points="77.8657,-627.5903 75.0656,-619.5904 72.2657,-627.5904 77.8657,-627.5903"/>
</g>
<!-- knoop_touw_aan_tand&#45;&gt;snij_touw_van_lift -->
<g id="edge81" class="edge">
<title>knoop_touw_aan_tand&#45;&gt;snij_touw_van_lift</title>
<path fill="none" stroke="#999999" d="M141.0656,-583.4551C180.4444,-572.6886 230.4564,-559.0149 270.742,-548.0005"/>
<polygon fill="#999999" stroke="#999999" points="271.6851,-550.6455 278.6634,-545.8347 270.2082,-545.2437 271.6851,-550.6455"/>
</g>
<!-- _1&#45;&gt;koop_eten_bij_bakker -->
<g id="edge30" class="edge">
<title>_1&#45;&gt;koop_eten_bij_bakker</title>
<path fill="none" stroke="#999999" d="M1228.5419,-952.7693C1223.3067,-943.2151 1216.1727,-930.1954 1209.9243,-918.792"/>
<polygon fill="#999999" stroke="#999999" points="1212.2748,-917.2548 1205.9749,-911.5845 1207.3637,-919.9458 1212.2748,-917.2548"/>
</g>
<!-- krijg_100_geld_van_meel&#45;&gt;koop_zwaard_voor_99_bij_wapensmid -->
<g id="edge33" class="edge">
<title>krijg_100_geld_van_meel&#45;&gt;koop_zwaard_voor_99_bij_wapensmid</title>
<path fill="none" stroke="#999999" d="M554.751,-1021.4551C533.3264,-1011.3648 506.4801,-998.721 483.9411,-988.1059"/>
<polygon fill="#999999" stroke="#999999" points="484.9072,-985.4659 476.4766,-984.5904 482.5211,-990.5322 484.9072,-985.4659"/>
</g>
<!-- krijg_100_geld_van_meel&#45;&gt;_1 -->
<g id="edge32" class="edge">
<title>krijg_100_geld_van_meel&#45;&gt;_1</title>
<path fill="none" stroke="#999999" stroke-dasharray="5,2" d="M673.2516,-1033.0166C831.7816,-1020.0947 1172.1964,-991.788 1197.0656,-985 1202.5058,-983.5151 1208.1175,-981.3047 1213.3299,-978.9236"/>
<polygon fill="#999999" stroke="#999999" points="1214.6469,-981.3967 1220.6143,-975.3775 1212.1957,-976.3616 1214.6469,-981.3967"/>
</g>
<!-- krijg_appel_taart_van_bakker&#45;&gt;zet_zadel_op_draak -->
<g id="edge96" class="edge">
<title>krijg_appel_taart_van_bakker&#45;&gt;zet_zadel_op_draak</title>
<path fill="none" stroke="#999999" d="M348.3804,-291.1569C358.9321,-260.678 380.9736,-197.7352 401.0656,-145 404.6621,-135.5603 408.7671,-125.2711 412.4494,-116.2011"/>
<polygon fill="#999999" stroke="#999999" points="415.1225,-117.0613 415.5531,-108.5964 409.9377,-114.9452 415.1225,-117.0613"/>
</g>
<!-- krijg_edelsteen_van_dwerg&#45;&gt;maak_sieraad_bij_smid -->
<g id="edge54" class="edge">
<title>krijg_edelsteen_van_dwerg&#45;&gt;maak_sieraad_bij_smid</title>
<path fill="none" stroke="#999999" d="M1125.2229,-729.4551C1091.7537,-719.0138 1049.52,-705.8383 1014.7964,-695.0058"/>
<polygon fill="#999999" stroke="#999999" points="1015.5248,-692.3 1007.0539,-692.5904 1013.857,-697.6459 1015.5248,-692.3"/>
</g>
<!-- krijg_ingredientenlijst_van_heks&#45;&gt;pak_tand_van_draak -->
<g id="edge58" class="edge">
<title>krijg_ingredientenlijst_van_heks&#45;&gt;pak_tand_van_draak</title>
<path fill="none" stroke="#999999" d="M796.2678,-437.4551C773.9172,-427.3209 745.8858,-414.611 722.4118,-403.9675"/>
<polygon fill="#999999" stroke="#999999" points="723.4058,-401.3439 714.9635,-400.5904 721.0933,-406.4441 723.4058,-401.3439"/>
</g>
<!-- pluk_kruiden_in_moeras -->
<g id="node54" class="node">
<title>pluk_kruiden_in_moeras</title>
<path fill="#008800" stroke="#008800" d="M772.223,-364.5C772.223,-364.5 899.9082,-364.5 899.9082,-364.5 905.9082,-364.5 911.9082,-370.5 911.9082,-376.5 911.9082,-376.5 911.9082,-388.5 911.9082,-388.5 911.9082,-394.5 905.9082,-400.5 899.9082,-400.5 899.9082,-400.5 772.223,-400.5 772.223,-400.5 766.223,-400.5 760.223,-394.5 760.223,-388.5 760.223,-388.5 760.223,-376.5 760.223,-376.5 760.223,-370.5 766.223,-364.5 772.223,-364.5"/>
<text text-anchor="middle" x="836.0656" y="-378.3" font-family="lato, roboto, helvetica" font-size="14.00" fill="#eeeeee">Pluk Kruiden In Moeras</text>
</g>
<!-- krijg_ingredientenlijst_van_heks&#45;&gt;pluk_kruiden_in_moeras -->
<g id="edge61" class="edge">
<title>krijg_ingredientenlijst_van_heks&#45;&gt;pluk_kruiden_in_moeras</title>
<path fill="none" stroke="#999999" d="M836.0656,-437.4551C836.0656,-428.7686 836.0656,-418.1898 836.0656,-408.642"/>
<polygon fill="#999999" stroke="#999999" points="838.8657,-408.5903 836.0656,-400.5904 833.2657,-408.5904 838.8657,-408.5903"/>
</g>
<!-- pluk_paddenstoelen_in_woud -->
<g id="node55" class="node">
<title>pluk_paddenstoelen_in_woud</title>
<path fill="#008800" stroke="#008800" d="M941.608,-364.5C941.608,-364.5 1096.5232,-364.5 1096.5232,-364.5 1102.5232,-364.5 1108.5232,-370.5 1108.5232,-376.5 1108.5232,-376.5 1108.5232,-388.5 1108.5232,-388.5 1108.5232,-394.5 1102.5232,-400.5 1096.5232,-400.5 1096.5232,-400.5 941.608,-400.5 941.608,-400.5 935.608,-400.5 929.608,-394.5 929.608,-388.5 929.608,-388.5 929.608,-376.5 929.608,-376.5 929.608,-370.5 935.608,-364.5 941.608,-364.5"/>
<text text-anchor="middle" x="1019.0656" y="-378.3" font-family="lato, roboto, helvetica" font-size="14.00" fill="#eeeeee">Pluk Paddenstoelen In Woud</text>
</g>
<!-- krijg_ingredientenlijst_van_heks&#45;&gt;pluk_paddenstoelen_in_woud -->
<g id="edge62" class="edge">
<title>krijg_ingredientenlijst_van_heks&#45;&gt;pluk_paddenstoelen_in_woud</title>
<path fill="none" stroke="#999999" d="M881.3016,-437.4551C906.9263,-427.2332 939.1203,-414.3907 965.9416,-403.6916"/>
<polygon fill="#999999" stroke="#999999" points="967.3226,-406.1553 973.7158,-400.5904 965.2477,-400.9538 967.3226,-406.1553"/>
</g>
<!-- krijg_kapotte_houweel_van_dwerg&#45;&gt;repareer_houweel -->
<g id="edge75" class="edge">
<title>krijg_kapotte_houweel_van_dwerg&#45;&gt;repareer_houweel</title>
<path fill="none" stroke="#999999" d="M1468.0656,-1605.4551C1468.0656,-1596.7686 1468.0656,-1586.1898 1468.0656,-1576.642"/>
<polygon fill="#999999" stroke="#999999" points="1470.8657,-1576.5903 1468.0656,-1568.5904 1465.2657,-1576.5904 1470.8657,-1576.5903"/>
</g>
<!-- krijg_plant_hint_van_bakker -->
<g id="node47" class="node">
<title>krijg_plant_hint_van_bakker</title>
<path fill="#008800" stroke="#008800" d="M1023.5845,-948.5C1023.5845,-948.5 1176.5467,-948.5 1176.5467,-948.5 1182.5467,-948.5 1188.5467,-954.5 1188.5467,-960.5 1188.5467,-960.5 1188.5467,-972.5 1188.5467,-972.5 1188.5467,-978.5 1182.5467,-984.5 1176.5467,-984.5 1176.5467,-984.5 1023.5845,-984.5 1023.5845,-984.5 1017.5845,-984.5 1011.5845,-978.5 1011.5845,-972.5 1011.5845,-972.5 1011.5845,-960.5 1011.5845,-960.5 1011.5845,-954.5 1017.5845,-948.5 1023.5845,-948.5"/>
<text text-anchor="middle" x="1100.0656" y="-962.3" font-family="lato, roboto, helvetica" font-size="14.00" fill="#eeeeee">Krijg Plant Hint Van Bakker</text>
</g>
<!-- vind_maansteen_in_moeras -->
<g id="node68" class="node">
<title>vind_maansteen_in_moeras</title>
<path fill="#008800" stroke="#008800" d="M950.6781,-875.5C950.6781,-875.5 1095.4531,-875.5 1095.4531,-875.5 1101.4531,-875.5 1107.4531,-881.5 1107.4531,-887.5 1107.4531,-887.5 1107.4531,-899.5 1107.4531,-899.5 1107.4531,-905.5 1101.4531,-911.5 1095.4531,-911.5 1095.4531,-911.5 950.6781,-911.5 950.6781,-911.5 944.6781,-911.5 938.6781,-905.5 938.6781,-899.5 938.6781,-899.5 938.6781,-887.5 938.6781,-887.5 938.6781,-881.5 944.6781,-875.5 950.6781,-875.5"/>
<text text-anchor="middle" x="1023.0656" y="-889.3" font-family="lato, roboto, helvetica" font-size="14.00" fill="#eeeeee">Vind Maansteen In Moeras</text>
</g>
<!-- krijg_plant_hint_van_bakker&#45;&gt;vind_maansteen_in_moeras -->
<g id="edge85" class="edge">
<title>krijg_plant_hint_van_bakker&#45;&gt;vind_maansteen_in_moeras</title>
<path fill="none" stroke="#999999" d="M1081.0319,-948.4551C1071.1291,-939.0667 1058.8946,-927.4678 1048.2215,-917.3491"/>
<polygon fill="#999999" stroke="#999999" points="1049.8793,-915.0625 1042.1472,-911.5904 1046.0265,-919.1264 1049.8793,-915.0625"/>
</g>
<!-- krijg_schat_onderwerp -->
<g id="node48" class="node">
<title>krijg_schat_onderwerp</title>
<path fill="#008800" stroke="#008800" d="M856.7584,-1021.5C856.7584,-1021.5 979.3728,-1021.5 979.3728,-1021.5 985.3728,-1021.5 991.3728,-1027.5 991.3728,-1033.5 991.3728,-1033.5 991.3728,-1045.5 991.3728,-1045.5 991.3728,-1051.5 985.3728,-1057.5 979.3728,-1057.5 979.3728,-1057.5 856.7584,-1057.5 856.7584,-1057.5 850.7584,-1057.5 844.7584,-1051.5 844.7584,-1045.5 844.7584,-1045.5 844.7584,-1033.5 844.7584,-1033.5 844.7584,-1027.5 850.7584,-1021.5 856.7584,-1021.5"/>
<text text-anchor="middle" x="918.0656" y="-1035.3" font-family="lato, roboto, helvetica" font-size="14.00" fill="#eeeeee">Krijg Schat Onderwerp</text>
</g>
<!-- krijg_schat_onderwerp&#45;&gt;krijg_plant_hint_van_bakker -->
<g id="edge44" class="edge">
<title>krijg_schat_onderwerp&#45;&gt;krijg_plant_hint_van_bakker</title>
<path fill="none" stroke="#999999" d="M963.0544,-1021.4551C988.5391,-1011.2332 1020.5572,-998.3907 1047.2319,-987.6916"/>
<polygon fill="#999999" stroke="#999999" points="1048.581,-990.1673 1054.9636,-984.5904 1046.4962,-984.9698 1048.581,-990.1673"/>
</g>
<!-- krijg_rivier_hint_van_molenaar -->
<g id="node49" class="node">
<title>krijg_rivier_hint_van_molenaar</title>
<path fill="#008800" stroke="#008800" d="M622.8706,-948.5C622.8706,-948.5 795.2606,-948.5 795.2606,-948.5 801.2606,-948.5 807.2606,-954.5 807.2606,-960.5 807.2606,-960.5 807.2606,-972.5 807.2606,-972.5 807.2606,-978.5 801.2606,-984.5 795.2606,-984.5 795.2606,-984.5 622.8706,-984.5 622.8706,-984.5 616.8706,-984.5 610.8706,-978.5 610.8706,-972.5 610.8706,-972.5 610.8706,-960.5 610.8706,-960.5 610.8706,-954.5 616.8706,-948.5 622.8706,-948.5"/>
<text text-anchor="middle" x="709.0656" y="-962.3" font-family="lato, roboto, helvetica" font-size="14.00" fill="#eeeeee">Krijg Rivier Hint Van Molenaar</text>
</g>
<!-- krijg_schat_onderwerp&#45;&gt;krijg_rivier_hint_van_molenaar -->
<g id="edge45" class="edge">
<title>krijg_schat_onderwerp&#45;&gt;krijg_rivier_hint_van_molenaar</title>
<path fill="none" stroke="#999999" d="M866.4027,-1021.4551C836.7605,-1011.1016 799.4211,-998.0596 768.5572,-987.2794"/>
<polygon fill="#999999" stroke="#999999" points="769.3344,-984.585 760.8585,-984.5904 767.4878,-989.8718 769.3344,-984.585"/>
</g>
<!-- krijg_route_hint_van_boer -->
<g id="node50" class="node">
<title>krijg_route_hint_van_boer</title>
<path fill="#008800" stroke="#008800" d="M836.8601,-948.5C836.8601,-948.5 981.2711,-948.5 981.2711,-948.5 987.2711,-948.5 993.2711,-954.5 993.2711,-960.5 993.2711,-960.5 993.2711,-972.5 993.2711,-972.5 993.2711,-978.5 987.2711,-984.5 981.2711,-984.5 981.2711,-984.5 836.8601,-984.5 836.8601,-984.5 830.8601,-984.5 824.8601,-978.5 824.8601,-972.5 824.8601,-972.5 824.8601,-960.5 824.8601,-960.5 824.8601,-954.5 830.8601,-948.5 836.8601,-948.5"/>
<text text-anchor="middle" x="909.0656" y="-962.3" font-family="lato, roboto, helvetica" font-size="14.00" fill="#eeeeee">Krijg Route Hint Van Boer</text>
</g>
<!-- krijg_schat_onderwerp&#45;&gt;krijg_route_hint_van_boer -->
<g id="edge46" class="edge">
<title>krijg_schat_onderwerp&#45;&gt;krijg_route_hint_van_boer</title>
<path fill="none" stroke="#999999" d="M915.8409,-1021.4551C914.77,-1012.7686 913.4657,-1002.1898 912.2886,-992.642"/>
<polygon fill="#999999" stroke="#999999" points="915.0539,-992.1876 911.2959,-984.5904 909.4959,-992.8729 915.0539,-992.1876"/>
</g>
<!-- schat_route_compleet -->
<g id="node65" class="node">
<title>schat_route_compleet</title>
<path fill="#008800" stroke="#008800" d="M791.0747,-875.5C791.0747,-875.5 909.0565,-875.5 909.0565,-875.5 915.0565,-875.5 921.0565,-881.5 921.0565,-887.5 921.0565,-887.5 921.0565,-899.5 921.0565,-899.5 921.0565,-905.5 915.0565,-911.5 909.0565,-911.5 909.0565,-911.5 791.0747,-911.5 791.0747,-911.5 785.0747,-911.5 779.0747,-905.5 779.0747,-899.5 779.0747,-899.5 779.0747,-887.5 779.0747,-887.5 779.0747,-881.5 785.0747,-875.5 791.0747,-875.5"/>
<text text-anchor="middle" x="850.0656" y="-889.3" font-family="lato, roboto, helvetica" font-size="14.00" fill="#eeeeee">Schat Route Compleet</text>
</g>
<!-- krijg_rivier_hint_van_molenaar&#45;&gt;schat_route_compleet -->
<g id="edge77" class="edge">
<title>krijg_rivier_hint_van_molenaar&#45;&gt;schat_route_compleet</title>
<path fill="none" stroke="#999999" d="M743.9195,-948.4551C763.2395,-938.4525 787.4062,-925.9407 807.7979,-915.3833"/>
<polygon fill="#999999" stroke="#999999" points="809.307,-917.7551 815.1239,-911.5904 806.7323,-912.782 809.307,-917.7551"/>
</g>
<!-- krijg_route_hint_van_boer&#45;&gt;schat_route_compleet -->
<g id="edge78" class="edge">
<title>krijg_route_hint_van_boer&#45;&gt;schat_route_compleet</title>
<path fill="none" stroke="#999999" d="M894.4813,-948.4551C887.0353,-939.2422 877.8688,-927.9006 869.8007,-917.918"/>
<polygon fill="#999999" stroke="#999999" points="871.893,-916.0523 864.6866,-911.5904 867.5376,-919.5724 871.893,-916.0523"/>
</g>
<!-- praat_met_smidsen&#45;&gt;krijg_schat_onderwerp -->
<g id="edge47" class="edge">
<title>praat_met_smidsen&#45;&gt;krijg_schat_onderwerp</title>
<path fill="none" stroke="#999999" d="M942.4392,-1313.2341C937.9888,-1263.2529 925.5979,-1124.0932 920.4037,-1065.759"/>
<polygon fill="#999999" stroke="#999999" points="923.19,-1065.4791 919.6914,-1057.759 917.612,-1065.9758 923.19,-1065.4791"/>
</g>
<!-- krijg_toegang_tot_hut -->
<g id="node52" class="node">
<title>krijg_toegang_tot_hut</title>
<path fill="#3333aa" stroke="#3333aa" d="M691.3303,-291.5C691.3303,-291.5 812.8009,-291.5 812.8009,-291.5 818.8009,-291.5 824.8009,-297.5 824.8009,-303.5 824.8009,-303.5 824.8009,-315.5 824.8009,-315.5 824.8009,-321.5 818.8009,-327.5 812.8009,-327.5 812.8009,-327.5 691.3303,-327.5 691.3303,-327.5 685.3303,-327.5 679.3303,-321.5 679.3303,-315.5 679.3303,-315.5 679.3303,-303.5 679.3303,-303.5 679.3303,-297.5 685.3303,-291.5 691.3303,-291.5"/>
<text text-anchor="middle" x="752.0656" y="-305.3" font-family="lato, roboto, helvetica" font-size="14.00" fill="#eeeeee">Krijg Toegang Tot Hut</text>
</g>
<!-- maak_drank_om_heks_bij_te_brengen -->
<g id="node57" class="node">
<title>maak_drank_om_heks_bij_te_brengen</title>
<path fill="#3333aa" stroke="#3333aa" d="M597.6006,-145.5C597.6006,-145.5 806.5306,-145.5 806.5306,-145.5 812.5306,-145.5 818.5306,-151.5 818.5306,-157.5 818.5306,-157.5 818.5306,-169.5 818.5306,-169.5 818.5306,-175.5 812.5306,-181.5 806.5306,-181.5 806.5306,-181.5 597.6006,-181.5 597.6006,-181.5 591.6006,-181.5 585.6006,-175.5 585.6006,-169.5 585.6006,-169.5 585.6006,-157.5 585.6006,-157.5 585.6006,-151.5 591.6006,-145.5 597.6006,-145.5"/>
<text text-anchor="middle" x="702.0656" y="-159.3" font-family="lato, roboto, helvetica" font-size="14.00" fill="#eeeeee">Maak Drank Om Heks Bij Te Brengen</text>
</g>
<!-- krijg_toegang_tot_hut&#45;&gt;maak_drank_om_heks_bij_te_brengen -->
<g id="edge86" class="edge">
<title>krijg_toegang_tot_hut&#45;&gt;maak_drank_om_heks_bij_te_brengen</title>
<path fill="none" stroke="#999999" d="M750.0163,-291.4958C747.491,-272.6993 742.348,-242.5896 733.0656,-218 729.3414,-208.1343 723.9966,-197.931 718.791,-189.0582"/>
<polygon fill="#999999" stroke="#999999" points="721.0286,-187.3476 714.4897,-181.9547 716.2383,-190.2483 721.0286,-187.3476"/>
</g>
<!-- maak_drank_om_met_draak_te_praten -->
<g id="node60" class="node">
<title>maak_drank_om_met_draak_te_praten</title>
<path fill="#3333aa" stroke="#3333aa" d="M504.001,-218.5C504.001,-218.5 712.1302,-218.5 712.1302,-218.5 718.1302,-218.5 724.1302,-224.5 724.1302,-230.5 724.1302,-230.5 724.1302,-242.5 724.1302,-242.5 724.1302,-248.5 718.1302,-254.5 712.1302,-254.5 712.1302,-254.5 504.001,-254.5 504.001,-254.5 498.001,-254.5 492.001,-248.5 492.001,-242.5 492.001,-242.5 492.001,-230.5 492.001,-230.5 492.001,-224.5 498.001,-218.5 504.001,-218.5"/>
<text text-anchor="middle" x="608.0656" y="-232.3" font-family="lato, roboto, helvetica" font-size="14.00" fill="#eeeeee">Maak Drank Om Met Draak Te Praten</text>
</g>
<!-- krijg_toegang_tot_hut&#45;&gt;maak_drank_om_met_draak_te_praten -->
<g id="edge66" class="edge">
<title>krijg_toegang_tot_hut&#45;&gt;maak_drank_om_met_draak_te_praten</title>
<path fill="none" stroke="#999999" d="M716.4701,-291.4551C696.6525,-281.4087 671.8416,-268.8309 650.9588,-258.2445"/>
<polygon fill="#999999" stroke="#999999" points="652.1523,-255.7103 643.7507,-254.5904 649.6201,-260.7051 652.1523,-255.7103"/>
</g>
<!-- pak_tand_van_draak&#45;&gt;krijg_toegang_tot_hut -->
<g id="edge48" class="edge">
<title>pak_tand_van_draak&#45;&gt;krijg_toegang_tot_hut</title>
<path fill="none" stroke="#999999" d="M694.0993,-364.4551C704.0021,-355.0667 716.2366,-343.4678 726.9097,-333.3491"/>
<polygon fill="#999999" stroke="#999999" points="729.1047,-335.1264 732.984,-327.5904 725.2519,-331.0625 729.1047,-335.1264"/>
</g>
<!-- pluk_kruiden_in_moeras&#45;&gt;krijg_toegang_tot_hut -->
<g id="edge49" class="edge">
<title>pluk_kruiden_in_moeras&#45;&gt;krijg_toegang_tot_hut</title>
<path fill="none" stroke="#999999" d="M815.3015,-364.4551C804.3976,-354.979 790.9021,-343.2508 779.1824,-333.0658"/>
<polygon fill="#999999" stroke="#999999" points="780.757,-330.7246 772.8819,-327.5904 777.0836,-334.9515 780.757,-330.7246"/>
</g>
<!-- pluk_paddenstoelen_in_woud&#45;&gt;krijg_toegang_tot_hut -->
<g id="edge50" class="edge">
<title>pluk_paddenstoelen_in_woud&#45;&gt;krijg_toegang_tot_hut</title>
<path fill="none" stroke="#999999" d="M953.0656,-364.4551C914.5555,-353.9261 865.8761,-340.6167 826.0692,-329.7332"/>
<polygon fill="#999999" stroke="#999999" points="826.687,-326.9994 818.2317,-327.5904 825.21,-332.4011 826.687,-326.9994"/>
</g>
<!-- praat_met_dochter_van_bakker&#45;&gt;leg_molensteen_op_lift -->
<g id="edge52" class="edge">
<title>praat_met_dochter_van_bakker&#45;&gt;leg_molensteen_op_lift</title>
<path fill="none" stroke="#999999" d="M305.6723,-802.4551C301.0136,-793.5054 295.3092,-782.547 290.2235,-772.7769"/>
<polygon fill="#999999" stroke="#999999" points="292.6601,-771.3936 286.4825,-765.5904 287.6928,-773.9794 292.6601,-771.3936"/>
</g>
<!-- praat_met_draak -->
<g id="node62" class="node">
<title>praat_met_draak</title>
<path fill="#3333aa" stroke="#3333aa" d="M421.811,-145.5C421.811,-145.5 506.3202,-145.5 506.3202,-145.5 512.3202,-145.5 518.3202,-151.5 518.3202,-157.5 518.3202,-157.5 518.3202,-169.5 518.3202,-169.5 518.3202,-175.5 512.3202,-181.5 506.3202,-181.5 506.3202,-181.5 421.811,-181.5 421.811,-181.5 415.811,-181.5 409.811,-175.5 409.811,-169.5 409.811,-169.5 409.811,-157.5 409.811,-157.5 409.811,-151.5 415.811,-145.5 421.811,-145.5"/>
<text text-anchor="middle" x="464.0656" y="-159.3" font-family="lato, roboto, helvetica" font-size="14.00" fill="#eeeeee">Praat Met Draak</text>
</g>
<!-- praat_met_dochter_van_bakker&#45;&gt;praat_met_draak -->
<g id="edge69" class="edge">
<title>praat_met_dochter_van_bakker&#45;&gt;praat_met_draak</title>
<path fill="none" stroke="#999999" d="M332.1578,-802.3497C371.2953,-758.8054 464.0656,-643.4641 464.0656,-528.5 464.0656,-528.5 464.0656,-528.5 464.0656,-309.5 464.0656,-267.7434 464.0656,-219.2692 464.0656,-190.0145"/>
<polygon fill="#999999" stroke="#999999" points="466.8657,-189.9379 464.0656,-181.938 461.2657,-189.938 466.8657,-189.9379"/>
</g>
<!-- maak_drank_om_heks_bij_te_brengen&#45;&gt;maak_medicijn -->
<g id="edge53" class="edge">
<title>maak_drank_om_heks_bij_te_brengen&#45;&gt;maak_medicijn</title>
<path fill="none" stroke="#999999" d="M680.3128,-145.4551C668.7838,-135.8912 654.4894,-124.0334 642.1331,-113.7833"/>
<polygon fill="#999999" stroke="#999999" points="643.8181,-111.5431 635.8732,-108.5904 640.2427,-115.8531 643.8181,-111.5431"/>
</g>
<!-- vind_goud_in_bos -->
<g id="node58" class="node">
<title>vind_goud_in_bos</title>
<path fill="#008800" stroke="#008800" d="M901.5428,-729.5C901.5428,-729.5 996.5884,-729.5 996.5884,-729.5 1002.5884,-729.5 1008.5884,-735.5 1008.5884,-741.5 1008.5884,-741.5 1008.5884,-753.5 1008.5884,-753.5 1008.5884,-759.5 1002.5884,-765.5 996.5884,-765.5 996.5884,-765.5 901.5428,-765.5 901.5428,-765.5 895.5428,-765.5 889.5428,-759.5 889.5428,-753.5 889.5428,-753.5 889.5428,-741.5 889.5428,-741.5 889.5428,-735.5 895.5428,-729.5 901.5428,-729.5"/>
<text text-anchor="middle" x="949.0656" y="-743.3" font-family="lato, roboto, helvetica" font-size="14.00" fill="#eeeeee">Vind Goud In Bos</text>
</g>
<!-- vind_goud_in_bos&#45;&gt;maak_sieraad_bij_smid -->
<g id="edge55" class="edge">
<title>vind_goud_in_bos&#45;&gt;maak_sieraad_bij_smid</title>
<path fill="none" stroke="#999999" d="M949.0656,-729.4551C949.0656,-720.7686 949.0656,-710.1898 949.0656,-700.642"/>
<polygon fill="#999999" stroke="#999999" points="951.8657,-700.5903 949.0656,-692.5904 946.2657,-700.5904 951.8657,-700.5903"/>
</g>
<!-- pak_hout_in_bos&#45;&gt;repareer_houweel -->
<g id="edge74" class="edge">
<title>pak_hout_in_bos&#45;&gt;repareer_houweel</title>
<path fill="none" stroke="#999999" d="M1603.5712,-1605.4551C1578.3666,-1595.2332 1546.7003,-1582.3907 1520.3187,-1571.6916"/>
<polygon fill="#999999" stroke="#999999" points="1521.1378,-1569.0023 1512.672,-1568.5904 1519.0332,-1574.1918 1521.1378,-1569.0023"/>
</g>
<!-- maak_drank_om_met_draak_te_praten&#45;&gt;praat_met_draak -->
<g id="edge68" class="edge">
<title>maak_drank_om_met_draak_te_praten&#45;&gt;praat_met_draak</title>
<path fill="none" stroke="#999999" d="M572.4701,-218.4551C552.6525,-208.4087 527.8416,-195.8309 506.9588,-185.2445"/>
<polygon fill="#999999" stroke="#999999" points="508.1523,-182.7103 499.7507,-181.5904 505.6201,-187.7051 508.1523,-182.7103"/>
</g>
<!-- vind_runesteen_in_bos -->
<g id="node61" class="node">
<title>vind_runesteen_in_bos</title>
<path fill="#008800" stroke="#008800" d="M557.9383,-510.5C557.9383,-510.5 680.1929,-510.5 680.1929,-510.5 686.1929,-510.5 692.1929,-516.5 692.1929,-522.5 692.1929,-522.5 692.1929,-534.5 692.1929,-534.5 692.1929,-540.5 686.1929,-546.5 680.1929,-546.5 680.1929,-546.5 557.9383,-546.5 557.9383,-546.5 551.9383,-546.5 545.9383,-540.5 545.9383,-534.5 545.9383,-534.5 545.9383,-522.5 545.9383,-522.5 545.9383,-516.5 551.9383,-510.5 557.9383,-510.5"/>
<text text-anchor="middle" x="619.0656" y="-524.3" font-family="lato, roboto, helvetica" font-size="14.00" fill="#eeeeee">Vind Runesteen In Bos</text>
</g>
<!-- vind_runesteen_in_bos&#45;&gt;maak_drank_om_met_draak_te_praten -->
<g id="edge65" class="edge">
<title>vind_runesteen_in_bos&#45;&gt;maak_drank_om_met_draak_te_praten</title>
<path fill="none" stroke="#999999" d="M615.3248,-510.4467C610.4342,-485.8358 602.1304,-440.3154 599.0656,-401 595.2702,-352.3125 600.5411,-295.3945 604.4729,-262.883"/>
<polygon fill="#999999" stroke="#999999" points="607.2724,-263.0609 605.4875,-254.7751 601.7157,-262.3655 607.2724,-263.0609"/>
</g>
<!-- praat_met_draak&#45;&gt;zet_zadel_op_draak -->
<g id="edge97" class="edge">
<title>praat_met_draak&#45;&gt;zet_zadel_op_draak</title>
<path fill="none" stroke="#999999" d="M453.9308,-145.4551C448.9043,-136.5054 442.7495,-125.547 437.2622,-115.7769"/>
<polygon fill="#999999" stroke="#999999" points="439.5848,-114.1944 433.2259,-108.5904 434.7022,-116.9367 439.5848,-114.1944"/>
</g>
<!-- vind_onderbroek_bij_rivier&#45;&gt;repareer_molen_met_onderbroek -->
<g id="edge76" class="edge">
<title>vind_onderbroek_bij_rivier&#45;&gt;repareer_molen_met_onderbroek</title>
<path fill="none" stroke="#999999" d="M409.7413,-1678.2049C417.5416,-1639.3808 435.7743,-1548.6319 444.8051,-1503.6829"/>
<polygon fill="#999999" stroke="#999999" points="447.6005,-1503.9839 446.4313,-1495.589 442.1102,-1502.8808 447.6005,-1503.9839"/>
</g>
<!-- volg_maansteen_route -->
<g id="node67" class="node">
<title>volg_maansteen_route</title>
<path fill="#008800" stroke="#008800" d="M832.527,-802.5C832.527,-802.5 953.6042,-802.5 953.6042,-802.5 959.6042,-802.5 965.6042,-808.5 965.6042,-814.5 965.6042,-814.5 965.6042,-826.5 965.6042,-826.5 965.6042,-832.5 959.6042,-838.5 953.6042,-838.5 953.6042,-838.5 832.527,-838.5 832.527,-838.5 826.527,-838.5 820.527,-832.5 820.527,-826.5 820.527,-826.5 820.527,-814.5 820.527,-814.5 820.527,-808.5 826.527,-802.5 832.527,-802.5"/>
<text text-anchor="middle" x="893.0656" y="-816.3" font-family="lato, roboto, helvetica" font-size="14.00" fill="#eeeeee">Volg Maansteen Route</text>
</g>
<!-- schat_route_compleet&#45;&gt;volg_maansteen_route -->
<g id="edge91" class="edge">
<title>schat_route_compleet&#45;&gt;volg_maansteen_route</title>
<path fill="none" stroke="#999999" d="M860.6948,-875.4551C866.0182,-866.4177 872.5482,-855.3319 878.3455,-845.4899"/>
<polygon fill="#999999" stroke="#999999" points="880.7619,-846.9045 882.4096,-838.5904 875.9367,-844.0623 880.7619,-846.9045"/>
</g>
<!-- snij_touw_van_lift&#45;&gt;trek_tand_van_draak -->
<g id="edge83" class="edge">
<title>snij_touw_van_lift&#45;&gt;trek_tand_van_draak</title>
<path fill="none" stroke="#999999" d="M342.0656,-510.4551C342.0656,-501.7686 342.0656,-491.1898 342.0656,-481.642"/>
<polygon fill="#999999" stroke="#999999" points="344.8657,-481.5903 342.0656,-473.5904 339.2657,-481.5904 344.8657,-481.5903"/>
</g>
<!-- volg_maansteen_route&#45;&gt;vind_goud_in_bos -->
<g id="edge84" class="edge">
<title>volg_maansteen_route&#45;&gt;vind_goud_in_bos</title>
<path fill="none" stroke="#999999" d="M906.9083,-802.4551C913.9084,-793.3299 922.5105,-782.1165 930.1149,-772.2036"/>
<polygon fill="#999999" stroke="#999999" points="932.5404,-773.6421 935.1881,-765.5904 928.0971,-770.2336 932.5404,-773.6421"/>
</g>
<!-- volg_maansteen_route&#45;&gt;vind_runesteen_in_bos -->
<g id="edge89" class="edge">
<title>volg_maansteen_route&#45;&gt;vind_runesteen_in_bos</title>
<path fill="none" stroke="#999999" d="M824.9203,-802.4816C802.1886,-794.0804 777.885,-782.2485 759.0656,-766 689.5439,-705.9755 645.5829,-602.4877 627.9264,-554.4251"/>
<polygon fill="#999999" stroke="#999999" points="630.4739,-553.2353 625.1263,-546.6593 625.2059,-555.1348 630.4739,-553.2353"/>
</g>
<!-- vind_maansteen_in_moeras&#45;&gt;volg_maansteen_route -->
<g id="edge90" class="edge">
<title>vind_maansteen_in_moeras&#45;&gt;volg_maansteen_route</title>
<path fill="none" stroke="#999999" d="M990.9308,-875.4551C973.2743,-865.5403 951.2273,-853.16 932.5313,-842.6615"/>
<polygon fill="#999999" stroke="#999999" points="933.6278,-840.066 925.2813,-838.5904 930.8858,-844.9488 933.6278,-840.066"/>
</g>
</g>
</svg>
