<?xml version="1.0" encoding="UTF-8" standalone="no"?>
<!DOCTYPE svg PUBLIC "-//W3C//DTD SVG 1.1//EN"
 "http://www.w3.org/Graphics/SVG/1.1/DTD/svg11.dtd">
<!-- Generated by graphviz version 2.40.1 (20161225.0304)
 -->
<!-- Title: G Pages: 1 -->
<svg width="1597pt" height="1681pt"
 viewBox="0.00 0.00 1597.16 1681.00" xmlns="http://www.w3.org/2000/svg" xmlns:xlink="http://www.w3.org/1999/xlink">
<g id="graph0" class="graph" transform="scale(1 1) rotate(0) translate(4 1677)">
<title>G</title>
<polygon fill="#ffffff" stroke="transparent" points="-4,4 -4,-1677 1593.1582,-1677 1593.1582,4 -4,4"/>
<text text-anchor="middle" x="794.5791" y="-1651" font-family="lato, roboto, helvetica" font-size="20.00" fill="#000000">Avontuur</text>
<!-- START -->
<g id="node1" class="node">
<title>START</title>
<polygon fill="#333333" stroke="#333333" points="813.6771,-1641 754.9711,-1623 813.6771,-1605 872.3831,-1623 813.6771,-1641"/>
<polyline fill="none" stroke="#333333" points="766.4439,-1626.5177 766.4439,-1619.4823 "/>
<polyline fill="none" stroke="#333333" points="802.2043,-1608.5177 825.1499,-1608.5177 "/>
<polyline fill="none" stroke="#333333" points="860.9103,-1619.4823 860.9103,-1626.5177 "/>
<polyline fill="none" stroke="#333333" points="825.1499,-1637.4823 802.2043,-1637.4823 "/>
<text text-anchor="middle" x="813.6771" y="-1618.8" font-family="lato, roboto, helvetica" font-size="14.00" fill="#dddddd">START</text>
</g>
<!-- betaal_twee_geldstukken -->
<g id="node5" class="node">
<title>betaal_twee_geldstukken</title>
<path fill="#008800" stroke="#008800" d="M326.3713,-1532.5C326.3713,-1532.5 462.9829,-1532.5 462.9829,-1532.5 468.9829,-1532.5 474.9829,-1538.5 474.9829,-1544.5 474.9829,-1544.5 474.9829,-1556.5 474.9829,-1556.5 474.9829,-1562.5 468.9829,-1568.5 462.9829,-1568.5 462.9829,-1568.5 326.3713,-1568.5 326.3713,-1568.5 320.3713,-1568.5 314.3713,-1562.5 314.3713,-1556.5 314.3713,-1556.5 314.3713,-1544.5 314.3713,-1544.5 314.3713,-1538.5 320.3713,-1532.5 326.3713,-1532.5"/>
<text text-anchor="middle" x="394.6771" y="-1546.3" font-family="lato, roboto, helvetica" font-size="14.00" fill="#eeeeee">Betaal Twee Geldstukken</text>
</g>
<!-- START&#45;&gt;betaal_twee_geldstukken -->
<g id="edge3" class="edge">
<title>START&#45;&gt;betaal_twee_geldstukken</title>
<path fill="none" stroke="#999999" d="M773.9603,-1617.0621C711.8786,-1607.6542 588.1302,-1588.3931 483.6771,-1569 483.5025,-1568.9676 483.3278,-1568.9351 483.1529,-1568.9026"/>
<polygon fill="#999999" stroke="#999999" points="483.558,-1566.1296 475.1769,-1567.3939 482.5171,-1571.632 483.558,-1566.1296"/>
</g>
<!-- praat_met_bakker -->
<g id="node23" class="node">
<title>praat_met_bakker</title>
<path fill="#008800" stroke="#008800" d="M768.3075,-875.5C768.3075,-875.5 859.0467,-875.5 859.0467,-875.5 865.0467,-875.5 871.0467,-881.5 871.0467,-887.5 871.0467,-887.5 871.0467,-899.5 871.0467,-899.5 871.0467,-905.5 865.0467,-911.5 859.0467,-911.5 859.0467,-911.5 768.3075,-911.5 768.3075,-911.5 762.3075,-911.5 756.3075,-905.5 756.3075,-899.5 756.3075,-899.5 756.3075,-887.5 756.3075,-887.5 756.3075,-881.5 762.3075,-875.5 768.3075,-875.5"/>
<text text-anchor="middle" x="813.6771" y="-889.3" font-family="lato, roboto, helvetica" font-size="14.00" fill="#eeeeee">Praat Met Bakker</text>
</g>
<!-- START&#45;&gt;praat_met_bakker -->
<g id="edge64" class="edge">
<title>START&#45;&gt;praat_met_bakker</title>
<path fill="none" stroke="#999999" d="M813.6771,-1604.6252C813.6771,-1577.0243 813.6771,-1523.2214 813.6771,-1477.5 813.6771,-1477.5 813.6771,-1477.5 813.6771,-1039.5 813.6771,-997.7434 813.6771,-949.2692 813.6771,-920.0145"/>
<polygon fill="#999999" stroke="#999999" points="816.4772,-919.9379 813.6771,-911.938 810.8772,-919.938 816.4772,-919.9379"/>
</g>
<!-- praat_met_dwerg -->
<g id="node25" class="node">
<title>praat_met_dwerg</title>
<path fill="#008800" stroke="#008800" d="M853.4765,-1532.5C853.4765,-1532.5 941.8777,-1532.5 941.8777,-1532.5 947.8777,-1532.5 953.8777,-1538.5 953.8777,-1544.5 953.8777,-1544.5 953.8777,-1556.5 953.8777,-1556.5 953.8777,-1562.5 947.8777,-1568.5 941.8777,-1568.5 941.8777,-1568.5 853.4765,-1568.5 853.4765,-1568.5 847.4765,-1568.5 841.4765,-1562.5 841.4765,-1556.5 841.4765,-1556.5 841.4765,-1544.5 841.4765,-1544.5 841.4765,-1538.5 847.4765,-1532.5 853.4765,-1532.5"/>
<text text-anchor="middle" x="897.6771" y="-1546.3" font-family="lato, roboto, helvetica" font-size="14.00" fill="#eeeeee">Praat Met Dwerg</text>
</g>
<!-- START&#45;&gt;praat_met_dwerg -->
<g id="edge69" class="edge">
<title>START&#45;&gt;praat_met_dwerg</title>
<path fill="none" stroke="#999999" d="M829.084,-1609.7024C840.6666,-1599.7055 856.833,-1585.7524 870.5621,-1573.9028"/>
<polygon fill="#999999" stroke="#999999" points="872.4466,-1575.975 876.6734,-1568.6282 868.7876,-1571.7357 872.4466,-1575.975"/>
</g>
<!-- praat_met_boer -->
<g id="node33" class="node">
<title>praat_met_boer</title>
<path fill="#008800" stroke="#008800" d="M695.9148,-1532.5C695.9148,-1532.5 773.4394,-1532.5 773.4394,-1532.5 779.4394,-1532.5 785.4394,-1538.5 785.4394,-1544.5 785.4394,-1544.5 785.4394,-1556.5 785.4394,-1556.5 785.4394,-1562.5 779.4394,-1568.5 773.4394,-1568.5 773.4394,-1568.5 695.9148,-1568.5 695.9148,-1568.5 689.9148,-1568.5 683.9148,-1562.5 683.9148,-1556.5 683.9148,-1556.5 683.9148,-1544.5 683.9148,-1544.5 683.9148,-1538.5 689.9148,-1532.5 695.9148,-1532.5"/>
<text text-anchor="middle" x="734.6771" y="-1546.3" font-family="lato, roboto, helvetica" font-size="14.00" fill="#eeeeee">Praat Met Boer</text>
</g>
<!-- START&#45;&gt;praat_met_boer -->
<g id="edge65" class="edge">
<title>START&#45;&gt;praat_met_boer</title>
<path fill="none" stroke="#999999" d="M798.8178,-1609.3633C788.0628,-1599.4932 773.25,-1585.8992 760.5689,-1574.2615"/>
<polygon fill="#999999" stroke="#999999" points="762.3294,-1572.0767 754.542,-1568.7305 758.543,-1576.2026 762.3294,-1572.0767"/>
</g>
<!-- pak_touw_op_boerderij -->
<g id="node39" class="node">
<title>pak_touw_op_boerderij</title>
<path fill="#008800" stroke="#008800" d="M18.6115,-510.5C18.6115,-510.5 144.7427,-510.5 144.7427,-510.5 150.7427,-510.5 156.7427,-516.5 156.7427,-522.5 156.7427,-522.5 156.7427,-534.5 156.7427,-534.5 156.7427,-540.5 150.7427,-546.5 144.7427,-546.5 144.7427,-546.5 18.6115,-546.5 18.6115,-546.5 12.6115,-546.5 6.6115,-540.5 6.6115,-534.5 6.6115,-534.5 6.6115,-522.5 6.6115,-522.5 6.6115,-516.5 12.6115,-510.5 18.6115,-510.5"/>
<text text-anchor="middle" x="81.6771" y="-524.3" font-family="lato, roboto, helvetica" font-size="14.00" fill="#eeeeee">Pak Touw Op Boerderij</text>
</g>
<!-- START&#45;&gt;pak_touw_op_boerderij -->
<g id="edge61" class="edge">
<title>START&#45;&gt;pak_touw_op_boerderij</title>
<path fill="none" stroke="#999999" d="M765.7745,-1619.6767C656.61,-1611.8174 392.1478,-1591.0818 305.6771,-1569 203.0724,-1542.7981 85.6771,-1583.3975 85.6771,-1477.5 85.6771,-1477.5 85.6771,-1477.5 85.6771,-674.5 85.6771,-632.7278 84.0207,-584.258 82.8397,-555.0086"/>
<polygon fill="#999999" stroke="#999999" points="85.634,-554.811 82.5059,-546.9335 80.0388,-555.0424 85.634,-554.811"/>
</g>
<!-- praat_met_smidsen -->
<g id="node51" class="node">
<title>praat_met_smidsen</title>
<path fill="#008800" stroke="#008800" d="M1246.4092,-1167.5C1246.4092,-1167.5 1344.945,-1167.5 1344.945,-1167.5 1350.945,-1167.5 1356.945,-1173.5 1356.945,-1179.5 1356.945,-1179.5 1356.945,-1191.5 1356.945,-1191.5 1356.945,-1197.5 1350.945,-1203.5 1344.945,-1203.5 1344.945,-1203.5 1246.4092,-1203.5 1246.4092,-1203.5 1240.4092,-1203.5 1234.4092,-1197.5 1234.4092,-1191.5 1234.4092,-1191.5 1234.4092,-1179.5 1234.4092,-1179.5 1234.4092,-1173.5 1240.4092,-1167.5 1246.4092,-1167.5"/>
<text text-anchor="middle" x="1295.6771" y="-1181.3" font-family="lato, roboto, helvetica" font-size="14.00" fill="#eeeeee">Praat Met Smidsen</text>
</g>
<!-- START&#45;&gt;praat_met_smidsen -->
<g id="edge72" class="edge">
<title>START&#45;&gt;praat_met_smidsen</title>
<path fill="none" stroke="#999999" d="M859.457,-1619.0346C979.7723,-1607.359 1295.6771,-1568.0787 1295.6771,-1477.5 1295.6771,-1477.5 1295.6771,-1477.5 1295.6771,-1331.5 1295.6771,-1289.7434 1295.6771,-1241.2692 1295.6771,-1212.0145"/>
<polygon fill="#999999" stroke="#999999" points="1298.4772,-1211.9379 1295.6771,-1203.938 1292.8772,-1211.938 1298.4772,-1211.9379"/>
</g>
<!-- pak_hout_in_bos -->
<g id="node58" class="node">
<title>pak_hout_in_bos</title>
<path fill="#008800" stroke="#008800" d="M1171.209,-1459.5C1171.209,-1459.5 1256.1452,-1459.5 1256.1452,-1459.5 1262.1452,-1459.5 1268.1452,-1465.5 1268.1452,-1471.5 1268.1452,-1471.5 1268.1452,-1483.5 1268.1452,-1483.5 1268.1452,-1489.5 1262.1452,-1495.5 1256.1452,-1495.5 1256.1452,-1495.5 1171.209,-1495.5 1171.209,-1495.5 1165.209,-1495.5 1159.209,-1489.5 1159.209,-1483.5 1159.209,-1483.5 1159.209,-1471.5 1159.209,-1471.5 1159.209,-1465.5 1165.209,-1459.5 1171.209,-1459.5"/>
<text text-anchor="middle" x="1213.6771" y="-1473.3" font-family="lato, roboto, helvetica" font-size="14.00" fill="#eeeeee">Pak Hout In Bos</text>
</g>
<!-- START&#45;&gt;pak_hout_in_bos -->
<g id="edge58" class="edge">
<title>START&#45;&gt;pak_hout_in_bos</title>
<path fill="none" stroke="#999999" d="M847.1712,-1615.2325C878.6306,-1606.9577 926.1914,-1591.8686 962.6771,-1569 982.6504,-1556.4811 980.0336,-1543.3798 1000.6771,-1532 1060.7185,-1498.902 1084.4319,-1513.664 1150.6771,-1496 1150.8492,-1495.9541 1151.0215,-1495.9081 1151.1941,-1495.8619"/>
<polygon fill="#999999" stroke="#999999" points="1152.1055,-1498.5158 1159.0884,-1493.7117 1150.6337,-1493.1126 1152.1055,-1498.5158"/>
</g>
<!-- praat_met_molenaar -->
<g id="node61" class="node">
<title>praat_met_molenaar</title>
<path fill="#008800" stroke="#008800" d="M1021.7009,-1532.5C1021.7009,-1532.5 1125.6533,-1532.5 1125.6533,-1532.5 1131.6533,-1532.5 1137.6533,-1538.5 1137.6533,-1544.5 1137.6533,-1544.5 1137.6533,-1556.5 1137.6533,-1556.5 1137.6533,-1562.5 1131.6533,-1568.5 1125.6533,-1568.5 1125.6533,-1568.5 1021.7009,-1568.5 1021.7009,-1568.5 1015.7009,-1568.5 1009.7009,-1562.5 1009.7009,-1556.5 1009.7009,-1556.5 1009.7009,-1544.5 1009.7009,-1544.5 1009.7009,-1538.5 1015.7009,-1532.5 1021.7009,-1532.5"/>
<text text-anchor="middle" x="1073.6771" y="-1546.3" font-family="lato, roboto, helvetica" font-size="14.00" fill="#eeeeee">Praat Met Molenaar</text>
</g>
<!-- START&#45;&gt;praat_met_molenaar -->
<g id="edge71" class="edge">
<title>START&#45;&gt;praat_met_molenaar</title>
<path fill="none" stroke="#999999" d="M844.5235,-1614.3986C883.0353,-1603.6597 950.1302,-1584.9506 1001.7996,-1570.5428"/>
<polygon fill="#999999" stroke="#999999" points="1002.675,-1573.2055 1009.629,-1568.3596 1001.1708,-1567.8113 1002.675,-1573.2055"/>
</g>
<!-- vind_onderbroek_bij_rivier -->
<g id="node62" class="node">
<title>vind_onderbroek_bij_rivier</title>
<path fill="#008800" stroke="#008800" d="M504.9446,-1532.5C504.9446,-1532.5 654.4096,-1532.5 654.4096,-1532.5 660.4096,-1532.5 666.4096,-1538.5 666.4096,-1544.5 666.4096,-1544.5 666.4096,-1556.5 666.4096,-1556.5 666.4096,-1562.5 660.4096,-1568.5 654.4096,-1568.5 654.4096,-1568.5 504.9446,-1568.5 504.9446,-1568.5 498.9446,-1568.5 492.9446,-1562.5 492.9446,-1556.5 492.9446,-1556.5 492.9446,-1544.5 492.9446,-1544.5 492.9446,-1538.5 498.9446,-1532.5 504.9446,-1532.5"/>
<text text-anchor="middle" x="579.6771" y="-1546.3" font-family="lato, roboto, helvetica" font-size="14.00" fill="#eeeeee">Vind Onderbroek Bij Rivier</text>
</g>
<!-- START&#45;&gt;vind_onderbroek_bij_rivier -->
<g id="edge86" class="edge">
<title>START&#45;&gt;vind_onderbroek_bij_rivier</title>
<path fill="none" stroke="#999999" d="M784.0408,-1613.8178C749.513,-1603.1201 691.4014,-1585.1154 645.9529,-1571.0342"/>
<polygon fill="#999999" stroke="#999999" points="646.6696,-1568.325 638.1993,-1568.6319 645.0122,-1573.6741 646.6696,-1568.325"/>
</g>
<!-- beklim_toren -->
<g id="node2" class="node">
<title>beklim_toren</title>
<path fill="#3333aa" stroke="#3333aa" d="M619.6017,-729.5C619.6017,-729.5 689.7525,-729.5 689.7525,-729.5 695.7525,-729.5 701.7525,-735.5 701.7525,-741.5 701.7525,-741.5 701.7525,-753.5 701.7525,-753.5 701.7525,-759.5 695.7525,-765.5 689.7525,-765.5 689.7525,-765.5 619.6017,-765.5 619.6017,-765.5 613.6017,-765.5 607.6017,-759.5 607.6017,-753.5 607.6017,-753.5 607.6017,-741.5 607.6017,-741.5 607.6017,-735.5 613.6017,-729.5 619.6017,-729.5"/>
<text text-anchor="middle" x="654.6771" y="-743.3" font-family="lato, roboto, helvetica" font-size="14.00" fill="#eeeeee">Beklim Toren</text>
</g>
<!-- praat_met_dochter_van_bakker -->
<g id="node56" class="node">
<title>praat_met_dochter_van_bakker</title>
<path fill="#3333aa" stroke="#3333aa" d="M571.6034,-656.5C571.6034,-656.5 737.7508,-656.5 737.7508,-656.5 743.7508,-656.5 749.7508,-662.5 749.7508,-668.5 749.7508,-668.5 749.7508,-680.5 749.7508,-680.5 749.7508,-686.5 743.7508,-692.5 737.7508,-692.5 737.7508,-692.5 571.6034,-692.5 571.6034,-692.5 565.6034,-692.5 559.6034,-686.5 559.6034,-680.5 559.6034,-680.5 559.6034,-668.5 559.6034,-668.5 559.6034,-662.5 565.6034,-656.5 571.6034,-656.5"/>
<text text-anchor="middle" x="654.6771" y="-670.3" font-family="lato, roboto, helvetica" font-size="14.00" fill="#eeeeee">Praat Met Dochter Van Bakker</text>
</g>
<!-- beklim_toren&#45;&gt;praat_met_dochter_van_bakker -->
<g id="edge66" class="edge">
<title>beklim_toren&#45;&gt;praat_met_dochter_van_bakker</title>
<path fill="none" stroke="#999999" d="M654.6771,-729.4551C654.6771,-720.7686 654.6771,-710.1898 654.6771,-700.642"/>
<polygon fill="#999999" stroke="#999999" points="657.4772,-700.5903 654.6771,-692.5904 651.8772,-700.5904 657.4772,-700.5903"/>
</g>
<!-- koop_zwaard_voor_99_bij_wapensmid -->
<g id="node3" class="node">
<title>koop_zwaard_voor_99_bij_wapensmid</title>
<path fill="#008800" stroke="#008800" d="M424.622,-802.5C424.622,-802.5 634.7322,-802.5 634.7322,-802.5 640.7322,-802.5 646.7322,-808.5 646.7322,-814.5 646.7322,-814.5 646.7322,-826.5 646.7322,-826.5 646.7322,-832.5 640.7322,-838.5 634.7322,-838.5 634.7322,-838.5 424.622,-838.5 424.622,-838.5 418.622,-838.5 412.622,-832.5 412.622,-826.5 412.622,-826.5 412.622,-814.5 412.622,-814.5 412.622,-808.5 418.622,-802.5 424.622,-802.5"/>
<text text-anchor="middle" x="529.6771" y="-816.3" font-family="lato, roboto, helvetica" font-size="14.00" fill="#eeeeee">Koop Zwaard Voor 99 Bij Wapensmid</text>
</g>
<!-- koop_zwaard_voor_99_bij_wapensmid&#45;&gt;beklim_toren -->
<g id="edge1" class="edge">
<title>koop_zwaard_voor_99_bij_wapensmid&#45;&gt;beklim_toren</title>
<path fill="none" stroke="#999999" d="M560.576,-802.4551C577.5534,-792.5403 598.7524,-780.16 616.7293,-769.6615"/>
<polygon fill="#999999" stroke="#999999" points="618.2043,-772.0427 623.7005,-765.5904 615.3802,-767.2069 618.2043,-772.0427"/>
</g>
<!-- snij_touw_van_lift -->
<g id="node64" class="node">
<title>snij_touw_van_lift</title>
<path fill="#3333aa" stroke="#3333aa" d="M330.6578,-364.5C330.6578,-364.5 432.6964,-364.5 432.6964,-364.5 438.6964,-364.5 444.6964,-370.5 444.6964,-376.5 444.6964,-376.5 444.6964,-388.5 444.6964,-388.5 444.6964,-394.5 438.6964,-400.5 432.6964,-400.5 432.6964,-400.5 330.6578,-400.5 330.6578,-400.5 324.6578,-400.5 318.6578,-394.5 318.6578,-388.5 318.6578,-388.5 318.6578,-376.5 318.6578,-376.5 318.6578,-370.5 324.6578,-364.5 330.6578,-364.5"/>
<text text-anchor="middle" x="381.6771" y="-378.3" font-family="lato, roboto, helvetica" font-size="14.00" fill="#eeeeee">Snij Touw Van Lift</text>
</g>
<!-- koop_zwaard_voor_99_bij_wapensmid&#45;&gt;snij_touw_van_lift -->
<g id="edge78" class="edge">
<title>koop_zwaard_voor_99_bij_wapensmid&#45;&gt;snij_touw_van_lift</title>
<path fill="none" stroke="#999999" d="M529.6771,-802.062C529.6771,-774.3663 529.6771,-720.3785 529.6771,-674.5 529.6771,-674.5 529.6771,-674.5 529.6771,-528.5 529.6771,-470.8908 472.143,-428.3629 428.8191,-404.5054"/>
<polygon fill="#999999" stroke="#999999" points="430.1005,-402.0153 421.728,-400.6951 427.4498,-406.9483 430.1005,-402.0153"/>
</g>
<!-- genoeg_info_over_monster -->
<g id="node4" class="node">
<title>genoeg_info_over_monster</title>
<path fill="#008800" stroke="#008800" d="M676.6802,-802.5C676.6802,-802.5 820.674,-802.5 820.674,-802.5 826.674,-802.5 832.674,-808.5 832.674,-814.5 832.674,-814.5 832.674,-826.5 832.674,-826.5 832.674,-832.5 826.674,-838.5 820.674,-838.5 820.674,-838.5 676.6802,-838.5 676.6802,-838.5 670.6802,-838.5 664.6802,-832.5 664.6802,-826.5 664.6802,-826.5 664.6802,-814.5 664.6802,-814.5 664.6802,-808.5 670.6802,-802.5 676.6802,-802.5"/>
<text text-anchor="middle" x="748.6771" y="-816.3" font-family="lato, roboto, helvetica" font-size="14.00" fill="#eeeeee">Genoeg Info Over Monster</text>
</g>
<!-- genoeg_info_over_monster&#45;&gt;beklim_toren -->
<g id="edge2" class="edge">
<title>genoeg_info_over_monster&#45;&gt;beklim_toren</title>
<path fill="none" stroke="#999999" d="M725.4411,-802.4551C713.0131,-792.8035 697.5767,-780.8156 684.2956,-770.5016"/>
<polygon fill="#999999" stroke="#999999" points="686.0074,-768.2858 677.9715,-765.5904 682.5726,-772.7087 686.0074,-768.2858"/>
</g>
<!-- _0 -->
<g id="node7" class="node">
<title>_0</title>
<polygon fill="#888888" stroke="#888888" points="278.6771,-1495.5 248.6504,-1477.5 278.6771,-1459.5 308.7038,-1477.5 278.6771,-1495.5"/>
<polyline fill="none" stroke="#888888" points="258.6593,-1483.5 258.6593,-1471.5 "/>
<polyline fill="none" stroke="#888888" points="268.6682,-1465.5 288.686,-1465.5 "/>
<polyline fill="none" stroke="#888888" points="298.6949,-1471.5 298.6949,-1483.5 "/>
<polyline fill="none" stroke="#888888" points="288.686,-1489.5 268.6682,-1489.5 "/>
<text text-anchor="middle" x="278.6771" y="-1473.3" font-family="lato, roboto, helvetica" font-size="14.00" fill="#eeeeee">Or</text>
</g>
<!-- betaal_twee_geldstukken&#45;&gt;_0 -->
<g id="edge5" class="edge">
<title>betaal_twee_geldstukken&#45;&gt;_0</title>
<path fill="none" stroke="#999999" stroke-dasharray="5,2" d="M366.0029,-1532.4551C345.7465,-1519.7075 319.0138,-1502.8843 300.4868,-1491.2251"/>
<polygon fill="#999999" stroke="#999999" points="301.8391,-1488.7678 293.5769,-1486.8766 298.8564,-1493.5074 301.8391,-1488.7678"/>
</g>
<!-- _1 -->
<g id="node41" class="node">
<title>_1</title>
<polygon fill="#888888" stroke="#888888" points="364.6771,-838.5 334.6504,-820.5 364.6771,-802.5 394.7038,-820.5 364.6771,-838.5"/>
<polyline fill="none" stroke="#888888" points="344.6593,-826.5 344.6593,-814.5 "/>
<polyline fill="none" stroke="#888888" points="354.6682,-808.5 374.686,-808.5 "/>
<polyline fill="none" stroke="#888888" points="384.6949,-814.5 384.6949,-826.5 "/>
<polyline fill="none" stroke="#888888" points="374.686,-832.5 354.6682,-832.5 "/>
<text text-anchor="middle" x="364.6771" y="-816.3" font-family="lato, roboto, helvetica" font-size="14.00" fill="#eeeeee">Or</text>
</g>
<!-- betaal_twee_geldstukken&#45;&gt;_1 -->
<g id="edge31" class="edge">
<title>betaal_twee_geldstukken&#45;&gt;_1</title>
<path fill="none" stroke="#999999" stroke-dasharray="5,2" d="M404.1876,-1532.3664C420.0352,-1499.3526 446.8981,-1428.8953 412.6771,-1386 367.7616,-1329.6994 305.1109,-1401.4158 254.6771,-1350 225.5925,-1320.3491 235.6771,-1300.0342 235.6771,-1258.5 235.6771,-1258.5 235.6771,-1258.5 235.6771,-966.5 235.6771,-924.9658 229.2852,-907.8685 254.6771,-875 274.429,-849.4322 309.3605,-835.0342 334.5679,-827.5429"/>
<polygon fill="#999999" stroke="#999999" points="335.4346,-830.2078 342.3788,-825.3479 333.9196,-824.8166 335.4346,-830.2078"/>
</g>
<!-- betaal_twee_goudstukken_aan_hoefsmid -->
<g id="node6" class="node">
<title>betaal_twee_goudstukken_aan_hoefsmid</title>
<path fill="#008800" stroke="#008800" d="M165.6595,-1386.5C165.6595,-1386.5 391.6947,-1386.5 391.6947,-1386.5 397.6947,-1386.5 403.6947,-1392.5 403.6947,-1398.5 403.6947,-1398.5 403.6947,-1410.5 403.6947,-1410.5 403.6947,-1416.5 397.6947,-1422.5 391.6947,-1422.5 391.6947,-1422.5 165.6595,-1422.5 165.6595,-1422.5 159.6595,-1422.5 153.6595,-1416.5 153.6595,-1410.5 153.6595,-1410.5 153.6595,-1398.5 153.6595,-1398.5 153.6595,-1392.5 159.6595,-1386.5 165.6595,-1386.5"/>
<text text-anchor="middle" x="278.6771" y="-1400.3" font-family="lato, roboto, helvetica" font-size="14.00" fill="#eeeeee">Betaal Twee Goudstukken Aan Hoefsmid</text>
</g>
<!-- geef_paard_nieuwe_hoefijzers -->
<g id="node29" class="node">
<title>geef_paard_nieuwe_hoefijzers</title>
<path fill="#008800" stroke="#008800" d="M275.9775,-1313.5C275.9775,-1313.5 439.3767,-1313.5 439.3767,-1313.5 445.3767,-1313.5 451.3767,-1319.5 451.3767,-1325.5 451.3767,-1325.5 451.3767,-1337.5 451.3767,-1337.5 451.3767,-1343.5 445.3767,-1349.5 439.3767,-1349.5 439.3767,-1349.5 275.9775,-1349.5 275.9775,-1349.5 269.9775,-1349.5 263.9775,-1343.5 263.9775,-1337.5 263.9775,-1337.5 263.9775,-1325.5 263.9775,-1325.5 263.9775,-1319.5 269.9775,-1313.5 275.9775,-1313.5"/>
<text text-anchor="middle" x="357.6771" y="-1327.3" font-family="lato, roboto, helvetica" font-size="14.00" fill="#eeeeee">Geef Paard Nieuwe Hoefijzers</text>
</g>
<!-- betaal_twee_goudstukken_aan_hoefsmid&#45;&gt;geef_paard_nieuwe_hoefijzers -->
<g id="edge19" class="edge">
<title>betaal_twee_goudstukken_aan_hoefsmid&#45;&gt;geef_paard_nieuwe_hoefijzers</title>
<path fill="none" stroke="#999999" d="M298.2052,-1386.4551C308.4601,-1376.979 321.1523,-1365.2508 332.1744,-1355.0658"/>
<polygon fill="#999999" stroke="#999999" points="334.1245,-1357.0762 338.0999,-1349.5904 330.324,-1352.9633 334.1245,-1357.0762"/>
</g>
<!-- _0&#45;&gt;betaal_twee_goudstukken_aan_hoefsmid -->
<g id="edge4" class="edge">
<title>_0&#45;&gt;betaal_twee_goudstukken_aan_hoefsmid</title>
<path fill="none" stroke="#999999" d="M278.6771,-1459.4551C278.6771,-1450.7686 278.6771,-1440.1898 278.6771,-1430.642"/>
<polygon fill="#999999" stroke="#999999" points="281.4772,-1430.5903 278.6771,-1422.5904 275.8772,-1430.5904 281.4772,-1430.5903"/>
</g>
<!-- krijg_geldstuk_van_smid -->
<g id="node8" class="node">
<title>krijg_geldstuk_van_smid</title>
<path fill="#008800" stroke="#008800" d="M569.9369,-437.5C569.9369,-437.5 705.4173,-437.5 705.4173,-437.5 711.4173,-437.5 717.4173,-443.5 717.4173,-449.5 717.4173,-449.5 717.4173,-461.5 717.4173,-461.5 717.4173,-467.5 711.4173,-473.5 705.4173,-473.5 705.4173,-473.5 569.9369,-473.5 569.9369,-473.5 563.9369,-473.5 557.9369,-467.5 557.9369,-461.5 557.9369,-461.5 557.9369,-449.5 557.9369,-449.5 557.9369,-443.5 563.9369,-437.5 569.9369,-437.5"/>
<text text-anchor="middle" x="637.6771" y="-451.3" font-family="lato, roboto, helvetica" font-size="14.00" fill="#eeeeee">Krijg Geldstuk Van Smid</text>
</g>
<!-- krijg_geldstuk_van_smid&#45;&gt;_0 -->
<g id="edge6" class="edge">
<title>krijg_geldstuk_van_smid&#45;&gt;_0</title>
<path fill="none" stroke="#999999" stroke-dasharray="5,2" d="M584.638,-473.5612C525.7371,-493.227 427.6137,-524.8292 341.6771,-547 265.6311,-566.6191 222.4537,-525.7638 168.6771,-583 73.3227,-684.4889 126.6771,-754.2432 126.6771,-893.5 126.6771,-1258.5 126.6771,-1258.5 126.6771,-1258.5 126.6771,-1332.0475 100.3576,-1364.3057 144.6771,-1423 168.5026,-1454.5532 213.7011,-1467.9091 244.9747,-1473.5162"/>
<polygon fill="#999999" stroke="#999999" points="244.6506,-1476.3006 252.9999,-1474.8413 245.5629,-1470.7754 244.6506,-1476.3006"/>
</g>
<!-- bezorg_graan_bij_molenaar -->
<g id="node9" class="node">
<title>bezorg_graan_bij_molenaar</title>
<path fill="#008800" stroke="#008800" d="M418.737,-1094.5C418.737,-1094.5 566.6172,-1094.5 566.6172,-1094.5 572.6172,-1094.5 578.6172,-1100.5 578.6172,-1106.5 578.6172,-1106.5 578.6172,-1118.5 578.6172,-1118.5 578.6172,-1124.5 572.6172,-1130.5 566.6172,-1130.5 566.6172,-1130.5 418.737,-1130.5 418.737,-1130.5 412.737,-1130.5 406.737,-1124.5 406.737,-1118.5 406.737,-1118.5 406.737,-1106.5 406.737,-1106.5 406.737,-1100.5 412.737,-1094.5 418.737,-1094.5"/>
<text text-anchor="middle" x="492.6771" y="-1108.3" font-family="lato, roboto, helvetica" font-size="14.00" fill="#eeeeee">Bezorg Graan Bij Molenaar</text>
</g>
<!-- krijg_meel_bij_molenaar -->
<g id="node12" class="node">
<title>krijg_meel_bij_molenaar</title>
<path fill="#008800" stroke="#008800" d="M445.892,-1021.5C445.892,-1021.5 577.4622,-1021.5 577.4622,-1021.5 583.4622,-1021.5 589.4622,-1027.5 589.4622,-1033.5 589.4622,-1033.5 589.4622,-1045.5 589.4622,-1045.5 589.4622,-1051.5 583.4622,-1057.5 577.4622,-1057.5 577.4622,-1057.5 445.892,-1057.5 445.892,-1057.5 439.892,-1057.5 433.892,-1051.5 433.892,-1045.5 433.892,-1045.5 433.892,-1033.5 433.892,-1033.5 433.892,-1027.5 439.892,-1021.5 445.892,-1021.5"/>
<text text-anchor="middle" x="511.6771" y="-1035.3" font-family="lato, roboto, helvetica" font-size="14.00" fill="#eeeeee">Krijg Meel Bij Molenaar</text>
</g>
<!-- bezorg_graan_bij_molenaar&#45;&gt;krijg_meel_bij_molenaar -->
<g id="edge43" class="edge">
<title>bezorg_graan_bij_molenaar&#45;&gt;krijg_meel_bij_molenaar</title>
<path fill="none" stroke="#999999" d="M497.3737,-1094.4551C499.6574,-1085.6809 502.4436,-1074.9759 504.9482,-1065.353"/>
<polygon fill="#999999" stroke="#999999" points="507.6632,-1066.0377 506.9687,-1057.5904 502.2438,-1064.6271 507.6632,-1066.0377"/>
</g>
<!-- zet_graan_op_wagen -->
<g id="node10" class="node">
<title>zet_graan_op_wagen</title>
<path fill="#008800" stroke="#008800" d="M436.6248,-1167.5C436.6248,-1167.5 548.7294,-1167.5 548.7294,-1167.5 554.7294,-1167.5 560.7294,-1173.5 560.7294,-1179.5 560.7294,-1179.5 560.7294,-1191.5 560.7294,-1191.5 560.7294,-1197.5 554.7294,-1203.5 548.7294,-1203.5 548.7294,-1203.5 436.6248,-1203.5 436.6248,-1203.5 430.6248,-1203.5 424.6248,-1197.5 424.6248,-1191.5 424.6248,-1191.5 424.6248,-1179.5 424.6248,-1179.5 424.6248,-1173.5 430.6248,-1167.5 436.6248,-1167.5"/>
<text text-anchor="middle" x="492.6771" y="-1181.3" font-family="lato, roboto, helvetica" font-size="14.00" fill="#eeeeee">Zet Graan Op Wagen</text>
</g>
<!-- zet_graan_op_wagen&#45;&gt;bezorg_graan_bij_molenaar -->
<g id="edge7" class="edge">
<title>zet_graan_op_wagen&#45;&gt;bezorg_graan_bij_molenaar</title>
<path fill="none" stroke="#999999" d="M492.6771,-1167.4551C492.6771,-1158.7686 492.6771,-1148.1898 492.6771,-1138.642"/>
<polygon fill="#999999" stroke="#999999" points="495.4772,-1138.5903 492.6771,-1130.5904 489.8772,-1138.5904 495.4772,-1138.5903"/>
</g>
<!-- bezorg_meel_bij_bakker -->
<g id="node11" class="node">
<title>bezorg_meel_bij_bakker</title>
<path fill="#008800" stroke="#008800" d="M447.0596,-948.5C447.0596,-948.5 576.2946,-948.5 576.2946,-948.5 582.2946,-948.5 588.2946,-954.5 588.2946,-960.5 588.2946,-960.5 588.2946,-972.5 588.2946,-972.5 588.2946,-978.5 582.2946,-984.5 576.2946,-984.5 576.2946,-984.5 447.0596,-984.5 447.0596,-984.5 441.0596,-984.5 435.0596,-978.5 435.0596,-972.5 435.0596,-972.5 435.0596,-960.5 435.0596,-960.5 435.0596,-954.5 441.0596,-948.5 447.0596,-948.5"/>
<text text-anchor="middle" x="511.6771" y="-962.3" font-family="lato, roboto, helvetica" font-size="14.00" fill="#eeeeee">Bezorg Meel Bij Bakker</text>
</g>
<!-- zet_molensteen_op_wagen -->
<g id="node19" class="node">
<title>zet_molensteen_op_wagen</title>
<path fill="#3333aa" stroke="#3333aa" d="M276.0659,-875.5C276.0659,-875.5 419.2883,-875.5 419.2883,-875.5 425.2883,-875.5 431.2883,-881.5 431.2883,-887.5 431.2883,-887.5 431.2883,-899.5 431.2883,-899.5 431.2883,-905.5 425.2883,-911.5 419.2883,-911.5 419.2883,-911.5 276.0659,-911.5 276.0659,-911.5 270.0659,-911.5 264.0659,-905.5 264.0659,-899.5 264.0659,-899.5 264.0659,-887.5 264.0659,-887.5 264.0659,-881.5 270.0659,-875.5 276.0659,-875.5"/>
<text text-anchor="middle" x="347.6771" y="-889.3" font-family="lato, roboto, helvetica" font-size="14.00" fill="#eeeeee">Zet Molensteen Op Wagen</text>
</g>
<!-- bezorg_meel_bij_bakker&#45;&gt;zet_molensteen_op_wagen -->
<g id="edge93" class="edge">
<title>bezorg_meel_bij_bakker&#45;&gt;zet_molensteen_op_wagen</title>
<path fill="none" stroke="#999999" d="M471.1378,-948.4551C448.3707,-938.3209 419.8169,-925.611 395.9055,-914.9675"/>
<polygon fill="#999999" stroke="#999999" points="396.7658,-912.2856 388.3185,-911.5904 394.4885,-917.4017 396.7658,-912.2856"/>
</g>
<!-- krijg_100_geld_van_meel -->
<g id="node42" class="node">
<title>krijg_100_geld_van_meel</title>
<path fill="#008800" stroke="#008800" d="M461.7542,-875.5C461.7542,-875.5 597.6,-875.5 597.6,-875.5 603.6,-875.5 609.6,-881.5 609.6,-887.5 609.6,-887.5 609.6,-899.5 609.6,-899.5 609.6,-905.5 603.6,-911.5 597.6,-911.5 597.6,-911.5 461.7542,-911.5 461.7542,-911.5 455.7542,-911.5 449.7542,-905.5 449.7542,-899.5 449.7542,-899.5 449.7542,-887.5 449.7542,-887.5 449.7542,-881.5 455.7542,-875.5 461.7542,-875.5"/>
<text text-anchor="middle" x="529.6771" y="-889.3" font-family="lato, roboto, helvetica" font-size="14.00" fill="#eeeeee">Krijg 100 Geld Van Meel</text>
</g>
<!-- bezorg_meel_bij_bakker&#45;&gt;krijg_100_geld_van_meel -->
<g id="edge35" class="edge">
<title>bezorg_meel_bij_bakker&#45;&gt;krijg_100_geld_van_meel</title>
<path fill="none" stroke="#999999" d="M516.1265,-948.4551C518.2684,-939.7686 520.8769,-929.1898 523.2311,-919.642"/>
<polygon fill="#999999" stroke="#999999" points="526.0197,-920.0281 525.2165,-911.5904 520.5826,-918.6874 526.0197,-920.0281"/>
</g>
<!-- krijg_meel_bij_molenaar&#45;&gt;bezorg_meel_bij_bakker -->
<g id="edge8" class="edge">
<title>krijg_meel_bij_molenaar&#45;&gt;bezorg_meel_bij_bakker</title>
<path fill="none" stroke="#999999" d="M511.6771,-1021.4551C511.6771,-1012.7686 511.6771,-1002.1898 511.6771,-992.642"/>
<polygon fill="#999999" stroke="#999999" points="514.4772,-992.5903 511.6771,-984.5904 508.8772,-992.5904 514.4772,-992.5903"/>
</g>
<!-- breng_dochter_naar_bakker -->
<g id="node13" class="node">
<title>breng_dochter_naar_bakker</title>
<path fill="#3333aa" stroke="#3333aa" d="M359.9663,-218.5C359.9663,-218.5 509.3879,-218.5 509.3879,-218.5 515.3879,-218.5 521.3879,-224.5 521.3879,-230.5 521.3879,-230.5 521.3879,-242.5 521.3879,-242.5 521.3879,-248.5 515.3879,-254.5 509.3879,-254.5 509.3879,-254.5 359.9663,-254.5 359.9663,-254.5 353.9663,-254.5 347.9663,-248.5 347.9663,-242.5 347.9663,-242.5 347.9663,-230.5 347.9663,-230.5 347.9663,-224.5 353.9663,-218.5 359.9663,-218.5"/>
<text text-anchor="middle" x="434.6771" y="-232.3" font-family="lato, roboto, helvetica" font-size="14.00" fill="#eeeeee">Breng Dochter Naar Bakker</text>
</g>
<!-- krijg_appel_taart_van_bakker -->
<g id="node43" class="node">
<title>krijg_appel_taart_van_bakker</title>
<path fill="#3333aa" stroke="#3333aa" d="M360.1567,-145.5C360.1567,-145.5 523.1975,-145.5 523.1975,-145.5 529.1975,-145.5 535.1975,-151.5 535.1975,-157.5 535.1975,-157.5 535.1975,-169.5 535.1975,-169.5 535.1975,-175.5 529.1975,-181.5 523.1975,-181.5 523.1975,-181.5 360.1567,-181.5 360.1567,-181.5 354.1567,-181.5 348.1567,-175.5 348.1567,-169.5 348.1567,-169.5 348.1567,-157.5 348.1567,-157.5 348.1567,-151.5 354.1567,-145.5 360.1567,-145.5"/>
<text text-anchor="middle" x="441.6771" y="-159.3" font-family="lato, roboto, helvetica" font-size="14.00" fill="#eeeeee">Krijg Appel Taart Van Bakker</text>
</g>
<!-- breng_dochter_naar_bakker&#45;&gt;krijg_appel_taart_van_bakker -->
<g id="edge36" class="edge">
<title>breng_dochter_naar_bakker&#45;&gt;krijg_appel_taart_van_bakker</title>
<path fill="none" stroke="#999999" d="M436.4074,-218.4551C437.2404,-209.7686 438.2548,-199.1898 439.1703,-189.642"/>
<polygon fill="#999999" stroke="#999999" points="441.9659,-189.8211 439.9424,-181.5904 436.3915,-189.2865 441.9659,-189.8211"/>
</g>
<!-- trek_tand_van_draak -->
<g id="node14" class="node">
<title>trek_tand_van_draak</title>
<path fill="#3333aa" stroke="#3333aa" d="M377.0708,-291.5C377.0708,-291.5 492.2834,-291.5 492.2834,-291.5 498.2834,-291.5 504.2834,-297.5 504.2834,-303.5 504.2834,-303.5 504.2834,-315.5 504.2834,-315.5 504.2834,-321.5 498.2834,-327.5 492.2834,-327.5 492.2834,-327.5 377.0708,-327.5 377.0708,-327.5 371.0708,-327.5 365.0708,-321.5 365.0708,-315.5 365.0708,-315.5 365.0708,-303.5 365.0708,-303.5 365.0708,-297.5 371.0708,-291.5 377.0708,-291.5"/>
<text text-anchor="middle" x="434.6771" y="-305.3" font-family="lato, roboto, helvetica" font-size="14.00" fill="#eeeeee">Trek Tand Van Draak</text>
</g>
<!-- trek_tand_van_draak&#45;&gt;breng_dochter_naar_bakker -->
<g id="edge9" class="edge">
<title>trek_tand_van_draak&#45;&gt;breng_dochter_naar_bakker</title>
<path fill="none" stroke="#999999" d="M434.6771,-291.4551C434.6771,-282.7686 434.6771,-272.1898 434.6771,-262.642"/>
<polygon fill="#999999" stroke="#999999" points="437.4772,-262.5903 434.6771,-254.5904 431.8772,-262.5904 437.4772,-262.5903"/>
</g>
<!-- zet_zadel_op_draak -->
<g id="node16" class="node">
<title>zet_zadel_op_draak</title>
<path fill="#3333aa" stroke="#3333aa" d="M389.5105,-72.5C389.5105,-72.5 493.8437,-72.5 493.8437,-72.5 499.8437,-72.5 505.8437,-78.5 505.8437,-84.5 505.8437,-84.5 505.8437,-96.5 505.8437,-96.5 505.8437,-102.5 499.8437,-108.5 493.8437,-108.5 493.8437,-108.5 389.5105,-108.5 389.5105,-108.5 383.5105,-108.5 377.5105,-102.5 377.5105,-96.5 377.5105,-96.5 377.5105,-84.5 377.5105,-84.5 377.5105,-78.5 383.5105,-72.5 389.5105,-72.5"/>
<text text-anchor="middle" x="441.6771" y="-86.3" font-family="lato, roboto, helvetica" font-size="14.00" fill="#eeeeee">Zet Zadel Op Draak</text>
</g>
<!-- trek_tand_van_draak&#45;&gt;zet_zadel_op_draak -->
<g id="edge94" class="edge">
<title>trek_tand_van_draak&#45;&gt;zet_zadel_op_draak</title>
<path fill="none" stroke="#999999" d="M380.9101,-291.3939C364.4102,-283.0223 348.127,-271.2314 338.6771,-255 314.0791,-212.75 313.4552,-186.8806 338.6771,-145 347.1981,-130.8511 360.7596,-120.1838 375.2801,-112.2164"/>
<polygon fill="#999999" stroke="#999999" points="376.6348,-114.6684 382.4675,-108.5187 374.0728,-109.6888 376.6348,-114.6684"/>
</g>
<!-- pak_tand_van_draak -->
<g id="node53" class="node">
<title>pak_tand_van_draak</title>
<path fill="#3333aa" stroke="#3333aa" d="M551.7861,-218.5C551.7861,-218.5 661.5681,-218.5 661.5681,-218.5 667.5681,-218.5 673.5681,-224.5 673.5681,-230.5 673.5681,-230.5 673.5681,-242.5 673.5681,-242.5 673.5681,-248.5 667.5681,-254.5 661.5681,-254.5 661.5681,-254.5 551.7861,-254.5 551.7861,-254.5 545.7861,-254.5 539.7861,-248.5 539.7861,-242.5 539.7861,-242.5 539.7861,-230.5 539.7861,-230.5 539.7861,-224.5 545.7861,-218.5 551.7861,-218.5"/>
<text text-anchor="middle" x="606.6771" y="-232.3" font-family="lato, roboto, helvetica" font-size="14.00" fill="#eeeeee">Pak Tand Van Draak</text>
</g>
<!-- trek_tand_van_draak&#45;&gt;pak_tand_van_draak -->
<g id="edge60" class="edge">
<title>trek_tand_van_draak&#45;&gt;pak_tand_van_draak</title>
<path fill="none" stroke="#999999" d="M477.194,-291.4551C501.175,-281.277 531.2777,-268.5009 556.4215,-257.8294"/>
<polygon fill="#999999" stroke="#999999" points="557.783,-260.2934 564.0532,-254.5904 555.5951,-255.1384 557.783,-260.2934"/>
</g>
<!-- breng_medicijnen_naar_koning -->
<g id="node15" class="node">
<title>breng_medicijnen_naar_koning</title>
<polygon fill="#333333" stroke="#333333" points="507.6771,-36 318.836,-18 507.6771,0 696.5182,-18 507.6771,-36"/>
<polyline fill="none" stroke="#333333" points="330.7818,-19.1387 330.7818,-16.8613 "/>
<polyline fill="none" stroke="#333333" points="495.7312,-1.1387 519.623,-1.1387 "/>
<polyline fill="none" stroke="#333333" points="684.5724,-16.8613 684.5724,-19.1387 "/>
<polyline fill="none" stroke="#333333" points="519.623,-34.8613 495.7312,-34.8613 "/>
<text text-anchor="middle" x="507.6771" y="-13.8" font-family="lato, roboto, helvetica" font-size="14.00" fill="#dddddd">Breng Medicijnen Naar Koning</text>
</g>
<!-- zet_zadel_op_draak&#45;&gt;breng_medicijnen_naar_koning -->
<g id="edge10" class="edge">
<title>zet_zadel_op_draak&#45;&gt;breng_medicijnen_naar_koning</title>
<path fill="none" stroke="#999999" d="M458.3317,-72.2052C466.9334,-62.7563 477.5173,-51.13 486.6745,-41.071"/>
<polygon fill="#999999" stroke="#999999" points="488.8464,-42.8446 492.1613,-35.0438 484.7053,-39.0748 488.8464,-42.8446"/>
</g>
<!-- maak_medicijn -->
<g id="node17" class="node">
<title>maak_medicijn</title>
<path fill="#3333aa" stroke="#3333aa" d="M560.7174,-72.5C560.7174,-72.5 638.6368,-72.5 638.6368,-72.5 644.6368,-72.5 650.6368,-78.5 650.6368,-84.5 650.6368,-84.5 650.6368,-96.5 650.6368,-96.5 650.6368,-102.5 644.6368,-108.5 638.6368,-108.5 638.6368,-108.5 560.7174,-108.5 560.7174,-108.5 554.7174,-108.5 548.7174,-102.5 548.7174,-96.5 548.7174,-96.5 548.7174,-84.5 548.7174,-84.5 548.7174,-78.5 554.7174,-72.5 560.7174,-72.5"/>
<text text-anchor="middle" x="599.6771" y="-86.3" font-family="lato, roboto, helvetica" font-size="14.00" fill="#eeeeee">Maak Medicijn</text>
</g>
<!-- maak_medicijn&#45;&gt;breng_medicijnen_naar_koning -->
<g id="edge11" class="edge">
<title>maak_medicijn&#45;&gt;breng_medicijnen_naar_koning</title>
<path fill="none" stroke="#999999" d="M576.4616,-72.2052C563.6529,-62.1114 547.691,-49.5327 534.3689,-39.0343"/>
<polygon fill="#999999" stroke="#999999" points="536.0829,-36.8201 528.0663,-34.0676 532.6167,-41.2185 536.0829,-36.8201"/>
</g>
<!-- breng_molensteen_naar_toren -->
<g id="node18" class="node">
<title>breng_molensteen_naar_toren</title>
<path fill="#3333aa" stroke="#3333aa" d="M168.352,-729.5C168.352,-729.5 331.0022,-729.5 331.0022,-729.5 337.0022,-729.5 343.0022,-735.5 343.0022,-741.5 343.0022,-741.5 343.0022,-753.5 343.0022,-753.5 343.0022,-759.5 337.0022,-765.5 331.0022,-765.5 331.0022,-765.5 168.352,-765.5 168.352,-765.5 162.352,-765.5 156.352,-759.5 156.352,-753.5 156.352,-753.5 156.352,-741.5 156.352,-741.5 156.352,-735.5 162.352,-729.5 168.352,-729.5"/>
<text text-anchor="middle" x="249.6771" y="-743.3" font-family="lato, roboto, helvetica" font-size="14.00" fill="#eeeeee">Breng Molensteen Naar Toren</text>
</g>
<!-- leg_molensteen_op_lift -->
<g id="node37" class="node">
<title>leg_molensteen_op_lift</title>
<path fill="#3333aa" stroke="#3333aa" d="M189.8359,-583.5C189.8359,-583.5 317.5183,-583.5 317.5183,-583.5 323.5183,-583.5 329.5183,-589.5 329.5183,-595.5 329.5183,-595.5 329.5183,-607.5 329.5183,-607.5 329.5183,-613.5 323.5183,-619.5 317.5183,-619.5 317.5183,-619.5 189.8359,-619.5 189.8359,-619.5 183.8359,-619.5 177.8359,-613.5 177.8359,-607.5 177.8359,-607.5 177.8359,-595.5 177.8359,-595.5 177.8359,-589.5 183.8359,-583.5 189.8359,-583.5"/>
<text text-anchor="middle" x="253.6771" y="-597.3" font-family="lato, roboto, helvetica" font-size="14.00" fill="#eeeeee">Leg Molensteen Op Lift</text>
</g>
<!-- breng_molensteen_naar_toren&#45;&gt;leg_molensteen_op_lift -->
<g id="edge52" class="edge">
<title>breng_molensteen_naar_toren&#45;&gt;leg_molensteen_op_lift</title>
<path fill="none" stroke="#999999" d="M250.1756,-729.3042C250.8733,-703.8403 252.1453,-657.4108 252.949,-628.0759"/>
<polygon fill="#999999" stroke="#999999" points="255.7521,-627.9988 253.1723,-619.9251 250.1542,-627.8454 255.7521,-627.9988"/>
</g>
<!-- zet_molensteen_op_wagen&#45;&gt;breng_molensteen_naar_toren -->
<g id="edge12" class="edge">
<title>zet_molensteen_op_wagen&#45;&gt;breng_molensteen_naar_toren</title>
<path fill="none" stroke="#999999" d="M335.4635,-875.3042C318.0779,-849.4032 286.1321,-801.8105 266.5119,-772.5804"/>
<polygon fill="#999999" stroke="#999999" points="268.8281,-771.007 262.0446,-765.9251 264.1784,-774.128 268.8281,-771.007"/>
</g>
<!-- breng_paard_naar_hoefsmid -->
<g id="node20" class="node">
<title>breng_paard_naar_hoefsmid</title>
<path fill="#008800" stroke="#008800" d="M509.183,-1386.5C509.183,-1386.5 660.1712,-1386.5 660.1712,-1386.5 666.1712,-1386.5 672.1712,-1392.5 672.1712,-1398.5 672.1712,-1398.5 672.1712,-1410.5 672.1712,-1410.5 672.1712,-1416.5 666.1712,-1422.5 660.1712,-1422.5 660.1712,-1422.5 509.183,-1422.5 509.183,-1422.5 503.183,-1422.5 497.183,-1416.5 497.183,-1410.5 497.183,-1410.5 497.183,-1398.5 497.183,-1398.5 497.183,-1392.5 503.183,-1386.5 509.183,-1386.5"/>
<text text-anchor="middle" x="584.6771" y="-1400.3" font-family="lato, roboto, helvetica" font-size="14.00" fill="#eeeeee">Breng Paard Naar Hoefsmid</text>
</g>
<!-- breng_paard_naar_hoefsmid&#45;&gt;geef_paard_nieuwe_hoefijzers -->
<g id="edge18" class="edge">
<title>breng_paard_naar_hoefsmid&#45;&gt;geef_paard_nieuwe_hoefijzers</title>
<path fill="none" stroke="#999999" d="M528.5647,-1386.4551C496.2332,-1376.0577 455.4706,-1362.949 421.8666,-1352.1424"/>
<polygon fill="#999999" stroke="#999999" points="422.4038,-1349.374 413.9307,-1349.5904 420.6893,-1354.7051 422.4038,-1349.374"/>
</g>
<!-- vind_paard_bij_rivier -->
<g id="node21" class="node">
<title>vind_paard_bij_rivier</title>
<path fill="#008800" stroke="#008800" d="M536.4369,-1459.5C536.4369,-1459.5 650.9173,-1459.5 650.9173,-1459.5 656.9173,-1459.5 662.9173,-1465.5 662.9173,-1471.5 662.9173,-1471.5 662.9173,-1483.5 662.9173,-1483.5 662.9173,-1489.5 656.9173,-1495.5 650.9173,-1495.5 650.9173,-1495.5 536.4369,-1495.5 536.4369,-1495.5 530.4369,-1495.5 524.4369,-1489.5 524.4369,-1483.5 524.4369,-1483.5 524.4369,-1471.5 524.4369,-1471.5 524.4369,-1465.5 530.4369,-1459.5 536.4369,-1459.5"/>
<text text-anchor="middle" x="593.6771" y="-1473.3" font-family="lato, roboto, helvetica" font-size="14.00" fill="#eeeeee">Vind Paard Bij Rivier</text>
</g>
<!-- vind_paard_bij_rivier&#45;&gt;breng_paard_naar_hoefsmid -->
<g id="edge13" class="edge">
<title>vind_paard_bij_rivier&#45;&gt;breng_paard_naar_hoefsmid</title>
<path fill="none" stroke="#999999" d="M591.4524,-1459.4551C590.3815,-1450.7686 589.0772,-1440.1898 587.9001,-1430.642"/>
<polygon fill="#999999" stroke="#999999" points="590.6654,-1430.1876 586.9074,-1422.5904 585.1074,-1430.8729 590.6654,-1430.1876"/>
</g>
<!-- ga_naar_hut_in_moeras -->
<g id="node22" class="node">
<title>ga_naar_hut_in_moeras</title>
<path fill="#008800" stroke="#008800" d="M733.5999,-729.5C733.5999,-729.5 857.7543,-729.5 857.7543,-729.5 863.7543,-729.5 869.7543,-735.5 869.7543,-741.5 869.7543,-741.5 869.7543,-753.5 869.7543,-753.5 869.7543,-759.5 863.7543,-765.5 857.7543,-765.5 857.7543,-765.5 733.5999,-765.5 733.5999,-765.5 727.5999,-765.5 721.5999,-759.5 721.5999,-753.5 721.5999,-753.5 721.5999,-741.5 721.5999,-741.5 721.5999,-735.5 727.5999,-729.5 733.5999,-729.5"/>
<text text-anchor="middle" x="795.6771" y="-743.3" font-family="lato, roboto, helvetica" font-size="14.00" fill="#eeeeee">Ga Naar Hut In Moeras</text>
</g>
<!-- praat_met_heks -->
<g id="node31" class="node">
<title>praat_met_heks</title>
<path fill="#008800" stroke="#008800" d="M706.1378,-583.5C706.1378,-583.5 785.2164,-583.5 785.2164,-583.5 791.2164,-583.5 797.2164,-589.5 797.2164,-595.5 797.2164,-595.5 797.2164,-607.5 797.2164,-607.5 797.2164,-613.5 791.2164,-619.5 785.2164,-619.5 785.2164,-619.5 706.1378,-619.5 706.1378,-619.5 700.1378,-619.5 694.1378,-613.5 694.1378,-607.5 694.1378,-607.5 694.1378,-595.5 694.1378,-595.5 694.1378,-589.5 700.1378,-583.5 706.1378,-583.5"/>
<text text-anchor="middle" x="745.6771" y="-597.3" font-family="lato, roboto, helvetica" font-size="14.00" fill="#eeeeee">Praat Met Heks</text>
</g>
<!-- ga_naar_hut_in_moeras&#45;&gt;praat_met_heks -->
<g id="edge70" class="edge">
<title>ga_naar_hut_in_moeras&#45;&gt;praat_met_heks</title>
<path fill="none" stroke="#999999" d="M789.4457,-729.3042C780.6877,-703.7311 764.688,-657.0119 754.6494,-627.6992"/>
<polygon fill="#999999" stroke="#999999" points="757.228,-626.5864 751.9871,-619.9251 751.9301,-628.4008 757.228,-626.5864"/>
</g>
<!-- praat_met_bakker&#45;&gt;koop_zwaard_voor_99_bij_wapensmid -->
<g id="edge34" class="edge">
<title>praat_met_bakker&#45;&gt;koop_zwaard_voor_99_bij_wapensmid</title>
<path fill="none" stroke="#999999" d="M756.2055,-878.7274C713.5344,-867.7591 654.852,-852.6752 607.9066,-840.6083"/>
<polygon fill="#999999" stroke="#999999" points="608.3274,-837.8255 599.8822,-838.5457 606.9333,-843.2492 608.3274,-837.8255"/>
</g>
<!-- praat_met_bakker&#45;&gt;genoeg_info_over_monster -->
<g id="edge22" class="edge">
<title>praat_met_bakker&#45;&gt;genoeg_info_over_monster</title>
<path fill="none" stroke="#999999" d="M797.6097,-875.4551C789.3283,-866.1545 779.1153,-854.6844 770.1656,-844.6332"/>
<polygon fill="#999999" stroke="#999999" points="772.1962,-842.7031 764.785,-838.5904 768.0138,-846.4271 772.1962,-842.7031"/>
</g>
<!-- praat_met_bakker&#45;&gt;ga_naar_hut_in_moeras -->
<g id="edge14" class="edge">
<title>praat_met_bakker&#45;&gt;ga_naar_hut_in_moeras</title>
<path fill="none" stroke="#999999" d="M826.1772,-875.4283C837.4187,-856.8341 850.8612,-827.12 841.6771,-802 837.6401,-790.9581 830.2694,-780.6095 822.5934,-771.959"/>
<polygon fill="#999999" stroke="#999999" points="824.504,-769.9028 816.9934,-765.9746 820.4151,-773.7291 824.504,-769.9028"/>
</g>
<!-- geef_dwerg_eten -->
<g id="node24" class="node">
<title>geef_dwerg_eten</title>
<path fill="#008800" stroke="#008800" d="M853.7058,-656.5C853.7058,-656.5 943.6484,-656.5 943.6484,-656.5 949.6484,-656.5 955.6484,-662.5 955.6484,-668.5 955.6484,-668.5 955.6484,-680.5 955.6484,-680.5 955.6484,-686.5 949.6484,-692.5 943.6484,-692.5 943.6484,-692.5 853.7058,-692.5 853.7058,-692.5 847.7058,-692.5 841.7058,-686.5 841.7058,-680.5 841.7058,-680.5 841.7058,-668.5 841.7058,-668.5 841.7058,-662.5 847.7058,-656.5 853.7058,-656.5"/>
<text text-anchor="middle" x="898.6771" y="-670.3" font-family="lato, roboto, helvetica" font-size="14.00" fill="#eeeeee">Geef Dwerg Eten</text>
</g>
<!-- krijg_edelsteen_van_dwerg -->
<g id="node44" class="node">
<title>krijg_edelsteen_van_dwerg</title>
<path fill="#008800" stroke="#008800" d="M826.737,-583.5C826.737,-583.5 974.6172,-583.5 974.6172,-583.5 980.6172,-583.5 986.6172,-589.5 986.6172,-595.5 986.6172,-595.5 986.6172,-607.5 986.6172,-607.5 986.6172,-613.5 980.6172,-619.5 974.6172,-619.5 974.6172,-619.5 826.737,-619.5 826.737,-619.5 820.737,-619.5 814.737,-613.5 814.737,-607.5 814.737,-607.5 814.737,-595.5 814.737,-595.5 814.737,-589.5 820.737,-583.5 826.737,-583.5"/>
<text text-anchor="middle" x="900.6771" y="-597.3" font-family="lato, roboto, helvetica" font-size="14.00" fill="#eeeeee">Krijg Edelsteen Van Dwerg</text>
</g>
<!-- geef_dwerg_eten&#45;&gt;krijg_edelsteen_van_dwerg -->
<g id="edge37" class="edge">
<title>geef_dwerg_eten&#45;&gt;krijg_edelsteen_van_dwerg</title>
<path fill="none" stroke="#999999" d="M899.1715,-656.4551C899.4095,-647.7686 899.6993,-637.1898 899.9609,-627.642"/>
<polygon fill="#999999" stroke="#999999" points="902.7612,-627.6641 900.1815,-619.5904 897.1633,-627.5106 902.7612,-627.6641"/>
</g>
<!-- praat_met_dwerg&#45;&gt;geef_dwerg_eten -->
<g id="edge15" class="edge">
<title>praat_met_dwerg&#45;&gt;geef_dwerg_eten</title>
<path fill="none" stroke="#999999" d="M897.6771,-1532.062C897.6771,-1504.3663 897.6771,-1450.3785 897.6771,-1404.5 897.6771,-1404.5 897.6771,-1404.5 897.6771,-1039.5 897.6771,-912.6644 898.2884,-761.0377 898.5551,-700.9216"/>
<polygon fill="#999999" stroke="#999999" points="901.3558,-700.7423 898.5918,-692.7298 895.7559,-700.7172 901.3558,-700.7423"/>
</g>
<!-- krijg_kapotte_houweel_van_dwerg -->
<g id="node46" class="node">
<title>krijg_kapotte_houweel_van_dwerg</title>
<path fill="#008800" stroke="#008800" d="M937.7731,-1459.5C937.7731,-1459.5 1129.5811,-1459.5 1129.5811,-1459.5 1135.5811,-1459.5 1141.5811,-1465.5 1141.5811,-1471.5 1141.5811,-1471.5 1141.5811,-1483.5 1141.5811,-1483.5 1141.5811,-1489.5 1135.5811,-1495.5 1129.5811,-1495.5 1129.5811,-1495.5 937.7731,-1495.5 937.7731,-1495.5 931.7731,-1495.5 925.7731,-1489.5 925.7731,-1483.5 925.7731,-1483.5 925.7731,-1471.5 925.7731,-1471.5 925.7731,-1465.5 931.7731,-1459.5 937.7731,-1459.5"/>
<text text-anchor="middle" x="1033.6771" y="-1473.3" font-family="lato, roboto, helvetica" font-size="14.00" fill="#eeeeee">Krijg Kapotte Houweel Van Dwerg</text>
</g>
<!-- praat_met_dwerg&#45;&gt;krijg_kapotte_houweel_van_dwerg -->
<g id="edge42" class="edge">
<title>praat_met_dwerg&#45;&gt;krijg_kapotte_houweel_van_dwerg</title>
<path fill="none" stroke="#999999" d="M931.2951,-1532.4551C949.9299,-1522.4525 973.2396,-1509.9407 992.9083,-1499.3833"/>
<polygon fill="#999999" stroke="#999999" points="994.25,-1501.841 999.9745,-1495.5904 991.6015,-1496.9069 994.25,-1501.841"/>
</g>
<!-- koop_eten_bij_bakker -->
<g id="node26" class="node">
<title>koop_eten_bij_bakker</title>
<path fill="#008800" stroke="#008800" d="M373.2728,-729.5C373.2728,-729.5 490.0814,-729.5 490.0814,-729.5 496.0814,-729.5 502.0814,-735.5 502.0814,-741.5 502.0814,-741.5 502.0814,-753.5 502.0814,-753.5 502.0814,-759.5 496.0814,-765.5 490.0814,-765.5 490.0814,-765.5 373.2728,-765.5 373.2728,-765.5 367.2728,-765.5 361.2728,-759.5 361.2728,-753.5 361.2728,-753.5 361.2728,-741.5 361.2728,-741.5 361.2728,-735.5 367.2728,-729.5 373.2728,-729.5"/>
<text text-anchor="middle" x="431.6771" y="-743.3" font-family="lato, roboto, helvetica" font-size="14.00" fill="#eeeeee">Koop Eten Bij Bakker</text>
</g>
<!-- koop_eten_bij_bakker&#45;&gt;geef_dwerg_eten -->
<g id="edge16" class="edge">
<title>koop_eten_bij_bakker&#45;&gt;geef_dwerg_eten</title>
<path fill="none" stroke="#999999" d="M502.0974,-736.4921C592.0389,-722.4327 746.4579,-698.2944 833.7024,-684.6566"/>
<polygon fill="#999999" stroke="#999999" points="834.2013,-687.4127 841.6729,-683.4107 833.3364,-681.8799 834.2013,-687.4127"/>
</g>
<!-- geef_houweel_aan_dwerg -->
<g id="node27" class="node">
<title>geef_houweel_aan_dwerg</title>
<path fill="#008800" stroke="#008800" d="M949.8576,-1240.5C949.8576,-1240.5 1091.4966,-1240.5 1091.4966,-1240.5 1097.4966,-1240.5 1103.4966,-1246.5 1103.4966,-1252.5 1103.4966,-1252.5 1103.4966,-1264.5 1103.4966,-1264.5 1103.4966,-1270.5 1097.4966,-1276.5 1091.4966,-1276.5 1091.4966,-1276.5 949.8576,-1276.5 949.8576,-1276.5 943.8576,-1276.5 937.8576,-1270.5 937.8576,-1264.5 937.8576,-1264.5 937.8576,-1252.5 937.8576,-1252.5 937.8576,-1246.5 943.8576,-1240.5 949.8576,-1240.5"/>
<text text-anchor="middle" x="1020.6771" y="-1254.3" font-family="lato, roboto, helvetica" font-size="14.00" fill="#eeeeee">Geef Houweel Aan Dwerg</text>
</g>
<!-- geef_houweel_aan_dwerg&#45;&gt;krijg_edelsteen_van_dwerg -->
<g id="edge38" class="edge">
<title>geef_houweel_aan_dwerg&#45;&gt;krijg_edelsteen_van_dwerg</title>
<path fill="none" stroke="#999999" d="M1013.0107,-1240.4355C1002.1731,-1213.2161 983.6771,-1159.8288 983.6771,-1112.5 983.6771,-1112.5 983.6771,-1112.5 983.6771,-747.5 983.6771,-705.9658 985.8554,-691.7291 964.6771,-656 957.5287,-643.9401 946.7333,-633.257 936.0346,-624.6155"/>
<polygon fill="#999999" stroke="#999999" points="937.4618,-622.1798 929.4191,-619.5048 934.0381,-626.6115 937.4618,-622.1798"/>
</g>
<!-- repareer_houweel -->
<g id="node28" class="node">
<title>repareer_houweel</title>
<path fill="#008800" stroke="#008800" d="M985.4025,-1386.5C985.4025,-1386.5 1081.9517,-1386.5 1081.9517,-1386.5 1087.9517,-1386.5 1093.9517,-1392.5 1093.9517,-1398.5 1093.9517,-1398.5 1093.9517,-1410.5 1093.9517,-1410.5 1093.9517,-1416.5 1087.9517,-1422.5 1081.9517,-1422.5 1081.9517,-1422.5 985.4025,-1422.5 985.4025,-1422.5 979.4025,-1422.5 973.4025,-1416.5 973.4025,-1410.5 973.4025,-1410.5 973.4025,-1398.5 973.4025,-1398.5 973.4025,-1392.5 979.4025,-1386.5 985.4025,-1386.5"/>
<text text-anchor="middle" x="1033.6771" y="-1400.3" font-family="lato, roboto, helvetica" font-size="14.00" fill="#eeeeee">Repareer Houweel</text>
</g>
<!-- repareer_houweel&#45;&gt;geef_houweel_aan_dwerg -->
<g id="edge17" class="edge">
<title>repareer_houweel&#45;&gt;geef_houweel_aan_dwerg</title>
<path fill="none" stroke="#999999" d="M1032.0569,-1386.3042C1029.7896,-1360.8403 1025.6555,-1314.4108 1023.0435,-1285.0759"/>
<polygon fill="#999999" stroke="#999999" points="1025.8163,-1284.6452 1022.3177,-1276.9251 1020.2383,-1285.1419 1025.8163,-1284.6452"/>
</g>
<!-- haal_wagen_bij_molenaar_met_paard -->
<g id="node34" class="node">
<title>haal_wagen_bij_molenaar_met_paard</title>
<path fill="#008800" stroke="#008800" d="M366.3022,-1240.5C366.3022,-1240.5 567.052,-1240.5 567.052,-1240.5 573.052,-1240.5 579.052,-1246.5 579.052,-1252.5 579.052,-1252.5 579.052,-1264.5 579.052,-1264.5 579.052,-1270.5 573.052,-1276.5 567.052,-1276.5 567.052,-1276.5 366.3022,-1276.5 366.3022,-1276.5 360.3022,-1276.5 354.3022,-1270.5 354.3022,-1264.5 354.3022,-1264.5 354.3022,-1252.5 354.3022,-1252.5 354.3022,-1246.5 360.3022,-1240.5 366.3022,-1240.5"/>
<text text-anchor="middle" x="466.6771" y="-1254.3" font-family="lato, roboto, helvetica" font-size="14.00" fill="#eeeeee">Haal Wagen Bij Molenaar Met Paard</text>
</g>
<!-- geef_paard_nieuwe_hoefijzers&#45;&gt;haal_wagen_bij_molenaar_met_paard -->
<g id="edge24" class="edge">
<title>geef_paard_nieuwe_hoefijzers&#45;&gt;haal_wagen_bij_molenaar_met_paard</title>
<path fill="none" stroke="#999999" d="M384.6209,-1313.4551C399.1632,-1303.7157 417.2576,-1291.5975 432.7516,-1281.2207"/>
<polygon fill="#999999" stroke="#999999" points="434.5765,-1283.3685 439.6655,-1276.5904 431.4603,-1278.7156 434.5765,-1283.3685"/>
</g>
<!-- geef_sieraad_aan_heks -->
<g id="node30" class="node">
<title>geef_sieraad_aan_heks</title>
<path fill="#3333aa" stroke="#3333aa" d="M785.7966,-437.5C785.7966,-437.5 909.5576,-437.5 909.5576,-437.5 915.5576,-437.5 921.5576,-443.5 921.5576,-449.5 921.5576,-449.5 921.5576,-461.5 921.5576,-461.5 921.5576,-467.5 915.5576,-473.5 909.5576,-473.5 909.5576,-473.5 785.7966,-473.5 785.7966,-473.5 779.7966,-473.5 773.7966,-467.5 773.7966,-461.5 773.7966,-461.5 773.7966,-449.5 773.7966,-449.5 773.7966,-443.5 779.7966,-437.5 785.7966,-437.5"/>
<text text-anchor="middle" x="847.6771" y="-451.3" font-family="lato, roboto, helvetica" font-size="14.00" fill="#eeeeee">Geef Sieraad Aan Heks</text>
</g>
<!-- krijg_ingredientenlijst_van_heks -->
<g id="node45" class="node">
<title>krijg_ingredientenlijst_van_heks</title>
<path fill="#3333aa" stroke="#3333aa" d="M692.7328,-291.5C692.7328,-291.5 868.6214,-291.5 868.6214,-291.5 874.6214,-291.5 880.6214,-297.5 880.6214,-303.5 880.6214,-303.5 880.6214,-315.5 880.6214,-315.5 880.6214,-321.5 874.6214,-327.5 868.6214,-327.5 868.6214,-327.5 692.7328,-327.5 692.7328,-327.5 686.7328,-327.5 680.7328,-321.5 680.7328,-315.5 680.7328,-315.5 680.7328,-303.5 680.7328,-303.5 680.7328,-297.5 686.7328,-291.5 692.7328,-291.5"/>
<text text-anchor="middle" x="780.6771" y="-305.3" font-family="lato, roboto, helvetica" font-size="14.00" fill="#eeeeee">Krijg Ingredientenlijst Van Heks</text>
</g>
<!-- geef_sieraad_aan_heks&#45;&gt;krijg_ingredientenlijst_van_heks -->
<g id="edge41" class="edge">
<title>geef_sieraad_aan_heks&#45;&gt;krijg_ingredientenlijst_van_heks</title>
<path fill="none" stroke="#999999" d="M839.327,-437.3042C827.5412,-411.6218 805.9683,-364.6122 792.528,-335.3243"/>
<polygon fill="#999999" stroke="#999999" points="795.014,-334.0282 789.1325,-327.9251 789.9243,-336.3639 795.014,-334.0282"/>
</g>
<!-- praat_met_heks&#45;&gt;geef_sieraad_aan_heks -->
<g id="edge20" class="edge">
<title>praat_met_heks&#45;&gt;geef_sieraad_aan_heks</title>
<path fill="none" stroke="#999999" d="M756.1297,-583.1554C767.0715,-564.3439 785.0795,-534.4595 802.6771,-510 810.0134,-499.8031 818.6785,-489.046 826.4365,-479.8074"/>
<polygon fill="#999999" stroke="#999999" points="828.5948,-481.5915 831.635,-473.6797 824.3245,-477.9688 828.5948,-481.5915"/>
</g>
<!-- maak_sieraad_bij_smid -->
<g id="node32" class="node">
<title>maak_sieraad_bij_smid</title>
<path fill="#008800" stroke="#008800" d="M824.1606,-510.5C824.1606,-510.5 947.1936,-510.5 947.1936,-510.5 953.1936,-510.5 959.1936,-516.5 959.1936,-522.5 959.1936,-522.5 959.1936,-534.5 959.1936,-534.5 959.1936,-540.5 953.1936,-546.5 947.1936,-546.5 947.1936,-546.5 824.1606,-546.5 824.1606,-546.5 818.1606,-546.5 812.1606,-540.5 812.1606,-534.5 812.1606,-534.5 812.1606,-522.5 812.1606,-522.5 812.1606,-516.5 818.1606,-510.5 824.1606,-510.5"/>
<text text-anchor="middle" x="885.6771" y="-524.3" font-family="lato, roboto, helvetica" font-size="14.00" fill="#eeeeee">Maak Sieraad Bij Smid</text>
</g>
<!-- praat_met_heks&#45;&gt;maak_sieraad_bij_smid -->
<g id="edge57" class="edge">
<title>praat_met_heks&#45;&gt;maak_sieraad_bij_smid</title>
<path fill="none" stroke="#999999" d="M780.2839,-583.4551C799.4668,-573.4525 823.4621,-560.9407 843.7092,-550.3833"/>
<polygon fill="#999999" stroke="#999999" points="845.1843,-552.772 850.9833,-546.5904 842.5951,-547.8065 845.1843,-552.772"/>
</g>
<!-- praat_met_heks&#45;&gt;krijg_ingredientenlijst_van_heks -->
<g id="edge40" class="edge">
<title>praat_met_heks&#45;&gt;krijg_ingredientenlijst_van_heks</title>
<path fill="none" stroke="#999999" d="M747.7272,-583.2362C751.1489,-552.8714 758.2803,-490.0889 764.6771,-437 768.8971,-401.9772 774.0083,-361.5756 777.2997,-335.802"/>
<polygon fill="#999999" stroke="#999999" points="780.1046,-335.9417 778.3423,-327.651 774.5498,-335.2311 780.1046,-335.9417"/>
</g>
<!-- maak_sieraad_bij_smid&#45;&gt;krijg_geldstuk_van_smid -->
<g id="edge39" class="edge">
<title>maak_sieraad_bij_smid&#45;&gt;krijg_geldstuk_van_smid</title>
<path fill="none" stroke="#999999" d="M824.3737,-510.4551C788.7531,-499.9699 743.7653,-486.7276 706.8771,-475.8694"/>
<polygon fill="#999999" stroke="#999999" points="707.5999,-473.1634 699.1348,-473.5904 706.0185,-478.5355 707.5999,-473.1634"/>
</g>
<!-- maak_sieraad_bij_smid&#45;&gt;geef_sieraad_aan_heks -->
<g id="edge21" class="edge">
<title>maak_sieraad_bij_smid&#45;&gt;geef_sieraad_aan_heks</title>
<path fill="none" stroke="#999999" d="M876.2838,-510.4551C871.6251,-501.5054 865.9207,-490.547 860.835,-480.7769"/>
<polygon fill="#999999" stroke="#999999" points="863.2716,-479.3936 857.094,-473.5904 858.3043,-481.9794 863.2716,-479.3936"/>
</g>
<!-- praat_met_boer&#45;&gt;genoeg_info_over_monster -->
<g id="edge23" class="edge">
<title>praat_met_boer&#45;&gt;genoeg_info_over_monster</title>
<path fill="none" stroke="#999999" d="M735.2987,-1532.0645C736.1774,-1504.372 737.6771,-1450.3882 737.6771,-1404.5 737.6771,-1404.5 737.6771,-1404.5 737.6771,-1331.5 737.6771,-1145.6617 745.0389,-921.8949 747.7174,-846.6303"/>
<polygon fill="#999999" stroke="#999999" points="750.5168,-846.6959 748.0056,-838.6006 744.9204,-846.4951 750.5168,-846.6959"/>
</g>
<!-- praat_met_boer&#45;&gt;zet_graan_op_wagen -->
<g id="edge92" class="edge">
<title>praat_met_boer&#45;&gt;zet_graan_op_wagen</title>
<path fill="none" stroke="#999999" d="M727.4251,-1532.3968C717.1734,-1505.128 699.6771,-1451.6783 699.6771,-1404.5 699.6771,-1404.5 699.6771,-1404.5 699.6771,-1331.5 699.6771,-1265.107 627.6856,-1226.2457 568.6141,-1205.5338"/>
<polygon fill="#999999" stroke="#999999" points="569.2189,-1202.7819 560.7433,-1202.853 567.4133,-1208.0829 569.2189,-1202.7819"/>
</g>
<!-- praat_met_boer&#45;&gt;vind_paard_bij_rivier -->
<g id="edge87" class="edge">
<title>praat_met_boer&#45;&gt;vind_paard_bij_rivier</title>
<path fill="none" stroke="#999999" d="M699.8232,-1532.4551C680.5032,-1522.4525 656.3365,-1509.9407 635.9448,-1499.3833"/>
<polygon fill="#999999" stroke="#999999" points="637.0104,-1496.782 628.6188,-1495.5904 634.4357,-1501.7551 637.0104,-1496.782"/>
</g>
<!-- haal_wagen_bij_molenaar_met_paard&#45;&gt;zet_graan_op_wagen -->
<g id="edge91" class="edge">
<title>haal_wagen_bij_molenaar_met_paard&#45;&gt;zet_graan_op_wagen</title>
<path fill="none" stroke="#999999" d="M473.1041,-1240.4551C476.2291,-1231.6809 480.0418,-1220.9759 483.4692,-1211.353"/>
<polygon fill="#999999" stroke="#999999" points="486.1874,-1212.0661 486.234,-1203.5904 480.912,-1210.1872 486.1874,-1212.0661"/>
</g>
<!-- repareer_molen_met_onderbroek -->
<g id="node35" class="node">
<title>repareer_molen_met_onderbroek</title>
<path fill="#008800" stroke="#008800" d="M481.1907,-1313.5C481.1907,-1313.5 660.1635,-1313.5 660.1635,-1313.5 666.1635,-1313.5 672.1635,-1319.5 672.1635,-1325.5 672.1635,-1325.5 672.1635,-1337.5 672.1635,-1337.5 672.1635,-1343.5 666.1635,-1349.5 660.1635,-1349.5 660.1635,-1349.5 481.1907,-1349.5 481.1907,-1349.5 475.1907,-1349.5 469.1907,-1343.5 469.1907,-1337.5 469.1907,-1337.5 469.1907,-1325.5 469.1907,-1325.5 469.1907,-1319.5 475.1907,-1313.5 481.1907,-1313.5"/>
<text text-anchor="middle" x="570.6771" y="-1327.3" font-family="lato, roboto, helvetica" font-size="14.00" fill="#eeeeee">Repareer Molen Met Onderbroek</text>
</g>
<!-- repareer_molen_met_onderbroek&#45;&gt;krijg_meel_bij_molenaar -->
<g id="edge44" class="edge">
<title>repareer_molen_met_onderbroek&#45;&gt;krijg_meel_bij_molenaar</title>
<path fill="none" stroke="#999999" d="M578.0656,-1313.2484C593.6637,-1271.654 625.5341,-1167.7322 587.6771,-1094 581.0438,-1081.0807 569.768,-1070.5361 557.9035,-1062.2839"/>
<polygon fill="#999999" stroke="#999999" points="559.108,-1059.726 550.8805,-1057.6894 556.0422,-1064.4123 559.108,-1059.726"/>
</g>
<!-- repareer_molen_met_onderbroek&#45;&gt;haal_wagen_bij_molenaar_met_paard -->
<g id="edge25" class="edge">
<title>repareer_molen_met_onderbroek&#45;&gt;haal_wagen_bij_molenaar_met_paard</title>
<path fill="none" stroke="#999999" d="M544.9692,-1313.4551C531.0941,-1303.7157 513.8297,-1291.5975 499.0463,-1281.2207"/>
<polygon fill="#999999" stroke="#999999" points="500.6063,-1278.8948 492.4497,-1276.5904 497.389,-1283.4783 500.6063,-1278.8948"/>
</g>
<!-- hijs_lift_met_molensteen -->
<g id="node36" class="node">
<title>hijs_lift_met_molensteen</title>
<path fill="#3333aa" stroke="#3333aa" d="M186.3317,-510.5C186.3317,-510.5 321.0225,-510.5 321.0225,-510.5 327.0225,-510.5 333.0225,-516.5 333.0225,-522.5 333.0225,-522.5 333.0225,-534.5 333.0225,-534.5 333.0225,-540.5 327.0225,-546.5 321.0225,-546.5 321.0225,-546.5 186.3317,-546.5 186.3317,-546.5 180.3317,-546.5 174.3317,-540.5 174.3317,-534.5 174.3317,-534.5 174.3317,-522.5 174.3317,-522.5 174.3317,-516.5 180.3317,-510.5 186.3317,-510.5"/>
<text text-anchor="middle" x="253.6771" y="-524.3" font-family="lato, roboto, helvetica" font-size="14.00" fill="#eeeeee">Hijs Lift Met Molensteen</text>
</g>
<!-- knoop_touw_aan_molensteen -->
<g id="node38" class="node">
<title>knoop_touw_aan_molensteen</title>
<path fill="#3333aa" stroke="#3333aa" d="M179.7265,-437.5C179.7265,-437.5 341.6277,-437.5 341.6277,-437.5 347.6277,-437.5 353.6277,-443.5 353.6277,-449.5 353.6277,-449.5 353.6277,-461.5 353.6277,-461.5 353.6277,-467.5 347.6277,-473.5 341.6277,-473.5 341.6277,-473.5 179.7265,-473.5 179.7265,-473.5 173.7265,-473.5 167.7265,-467.5 167.7265,-461.5 167.7265,-461.5 167.7265,-449.5 167.7265,-449.5 167.7265,-443.5 173.7265,-437.5 179.7265,-437.5"/>
<text text-anchor="middle" x="260.6771" y="-451.3" font-family="lato, roboto, helvetica" font-size="14.00" fill="#eeeeee">Knoop Touw Aan Molensteen</text>
</g>
<!-- hijs_lift_met_molensteen&#45;&gt;knoop_touw_aan_molensteen -->
<g id="edge28" class="edge">
<title>hijs_lift_met_molensteen&#45;&gt;knoop_touw_aan_molensteen</title>
<path fill="none" stroke="#999999" d="M255.4074,-510.4551C256.2404,-501.7686 257.2548,-491.1898 258.1703,-481.642"/>
<polygon fill="#999999" stroke="#999999" points="260.9659,-481.8211 258.9424,-473.5904 255.3915,-481.2865 260.9659,-481.8211"/>
</g>
<!-- hijs_lift_met_molensteen&#45;&gt;snij_touw_van_lift -->
<g id="edge81" class="edge">
<title>hijs_lift_met_molensteen&#45;&gt;snij_touw_van_lift</title>
<path fill="none" stroke="#999999" d="M312.8193,-510.4941C331.2869,-502.1481 350.0957,-490.3474 362.6771,-474 377.0501,-455.3248 381.2296,-428.3856 382.1559,-408.5721"/>
<polygon fill="#999999" stroke="#999999" points="384.9551,-408.635 382.3739,-400.5617 379.3572,-408.4825 384.9551,-408.635"/>
</g>
<!-- leg_molensteen_op_lift&#45;&gt;hijs_lift_met_molensteen -->
<g id="edge26" class="edge">
<title>leg_molensteen_op_lift&#45;&gt;hijs_lift_met_molensteen</title>
<path fill="none" stroke="#999999" d="M253.6771,-583.4551C253.6771,-574.7686 253.6771,-564.1898 253.6771,-554.642"/>
<polygon fill="#999999" stroke="#999999" points="256.4772,-554.5903 253.6771,-546.5904 250.8772,-554.5904 256.4772,-554.5903"/>
</g>
<!-- knoop_touw_aan_molensteen&#45;&gt;snij_touw_van_lift -->
<g id="edge79" class="edge">
<title>knoop_touw_aan_molensteen&#45;&gt;snij_touw_van_lift</title>
<path fill="none" stroke="#999999" d="M290.5872,-437.4551C306.8759,-427.628 327.1791,-415.3789 344.4809,-404.9407"/>
<polygon fill="#999999" stroke="#999999" points="346.2882,-407.1205 351.6917,-400.5904 343.3953,-402.3255 346.2882,-407.1205"/>
</g>
<!-- pak_touw_op_boerderij&#45;&gt;knoop_touw_aan_molensteen -->
<g id="edge27" class="edge">
<title>pak_touw_op_boerderij&#45;&gt;knoop_touw_aan_molensteen</title>
<path fill="none" stroke="#999999" d="M125.9243,-510.4551C150.9889,-500.2332 182.4793,-487.3907 208.7143,-476.6916"/>
<polygon fill="#999999" stroke="#999999" points="209.9682,-479.2041 216.3185,-473.5904 207.8535,-474.0187 209.9682,-479.2041"/>
</g>
<!-- knoop_touw_aan_tand -->
<g id="node40" class="node">
<title>knoop_touw_aan_tand</title>
<path fill="#3333aa" stroke="#3333aa" d="M12,-437.5C12,-437.5 137.3542,-437.5 137.3542,-437.5 143.3542,-437.5 149.3542,-443.5 149.3542,-449.5 149.3542,-449.5 149.3542,-461.5 149.3542,-461.5 149.3542,-467.5 143.3542,-473.5 137.3542,-473.5 137.3542,-473.5 12,-473.5 12,-473.5 6,-473.5 0,-467.5 0,-461.5 0,-461.5 0,-449.5 0,-449.5 0,-443.5 6,-437.5 12,-437.5"/>
<text text-anchor="middle" x="74.6771" y="-451.3" font-family="lato, roboto, helvetica" font-size="14.00" fill="#eeeeee">Knoop Touw Aan Tand</text>
</g>
<!-- pak_touw_op_boerderij&#45;&gt;knoop_touw_aan_tand -->
<g id="edge29" class="edge">
<title>pak_touw_op_boerderij&#45;&gt;knoop_touw_aan_tand</title>
<path fill="none" stroke="#999999" d="M79.9468,-510.4551C79.1138,-501.7686 78.0994,-491.1898 77.1839,-481.642"/>
<polygon fill="#999999" stroke="#999999" points="79.9627,-481.2865 76.4118,-473.5904 74.3883,-481.8211 79.9627,-481.2865"/>
</g>
<!-- knoop_touw_aan_tand&#45;&gt;snij_touw_van_lift -->
<g id="edge80" class="edge">
<title>knoop_touw_aan_tand&#45;&gt;snij_touw_van_lift</title>
<path fill="none" stroke="#999999" d="M149.3852,-437.7355C198.4781,-426.062 262.3232,-410.8806 310.6531,-399.3884"/>
<polygon fill="#999999" stroke="#999999" points="311.44,-402.0795 318.5752,-397.5047 310.1445,-396.6314 311.44,-402.0795"/>
</g>
<!-- _1&#45;&gt;koop_eten_bij_bakker -->
<g id="edge30" class="edge">
<title>_1&#45;&gt;koop_eten_bij_bakker</title>
<path fill="none" stroke="#999999" d="M375.4418,-808.7713C384.5971,-798.7962 398.0418,-784.1474 409.4896,-771.6745"/>
<polygon fill="#999999" stroke="#999999" points="411.5748,-773.5434 414.9214,-765.7562 407.4491,-769.7568 411.5748,-773.5434"/>
</g>
<!-- krijg_100_geld_van_meel&#45;&gt;koop_zwaard_voor_99_bij_wapensmid -->
<g id="edge33" class="edge">
<title>krijg_100_geld_van_meel&#45;&gt;koop_zwaard_voor_99_bij_wapensmid</title>
<path fill="none" stroke="#999999" d="M529.6771,-875.4551C529.6771,-866.7686 529.6771,-856.1898 529.6771,-846.642"/>
<polygon fill="#999999" stroke="#999999" points="532.4772,-846.5903 529.6771,-838.5904 526.8772,-846.5904 532.4772,-846.5903"/>
</g>
<!-- krijg_100_geld_van_meel&#45;&gt;_1 -->
<g id="edge32" class="edge">
<title>krijg_100_geld_van_meel&#45;&gt;_1</title>
<path fill="none" stroke="#999999" stroke-dasharray="5,2" d="M486.9397,-875.45C462.4709,-865.007 431.2458,-851.4965 403.6771,-839 398.8395,-836.8072 393.6912,-834.4106 388.7751,-832.091"/>
<polygon fill="#999999" stroke="#999999" points="389.7465,-829.4527 381.3189,-828.5499 387.3441,-834.5112 389.7465,-829.4527"/>
</g>
<!-- krijg_appel_taart_van_bakker&#45;&gt;zet_zadel_op_draak -->
<g id="edge95" class="edge">
<title>krijg_appel_taart_van_bakker&#45;&gt;zet_zadel_op_draak</title>
<path fill="none" stroke="#999999" d="M441.6771,-145.4551C441.6771,-136.7686 441.6771,-126.1898 441.6771,-116.642"/>
<polygon fill="#999999" stroke="#999999" points="444.4772,-116.5903 441.6771,-108.5904 438.8772,-116.5904 444.4772,-116.5903"/>
</g>
<!-- krijg_edelsteen_van_dwerg&#45;&gt;maak_sieraad_bij_smid -->
<g id="edge55" class="edge">
<title>krijg_edelsteen_van_dwerg&#45;&gt;maak_sieraad_bij_smid</title>
<path fill="none" stroke="#999999" d="M896.9692,-583.4551C895.1844,-574.7686 893.0106,-564.1898 891.0487,-554.642"/>
<polygon fill="#999999" stroke="#999999" points="893.7473,-553.863 889.3943,-546.5904 888.2619,-554.9902 893.7473,-553.863"/>
</g>
<!-- krijg_ingredientenlijst_van_heks&#45;&gt;pak_tand_van_draak -->
<g id="edge59" class="edge">
<title>krijg_ingredientenlijst_van_heks&#45;&gt;pak_tand_van_draak</title>
<path fill="none" stroke="#999999" d="M737.6659,-291.4551C713.3014,-281.2332 682.6906,-268.3907 657.1885,-257.6916"/>
<polygon fill="#999999" stroke="#999999" points="658.2569,-255.1034 649.7966,-254.5904 656.0904,-260.2674 658.2569,-255.1034"/>
</g>
<!-- pluk_kruiden_in_bos -->
<g id="node54" class="node">
<title>pluk_kruiden_in_bos</title>
<path fill="#3333aa" stroke="#3333aa" d="M899.9334,-218.5C899.9334,-218.5 1007.4208,-218.5 1007.4208,-218.5 1013.4208,-218.5 1019.4208,-224.5 1019.4208,-230.5 1019.4208,-230.5 1019.4208,-242.5 1019.4208,-242.5 1019.4208,-248.5 1013.4208,-254.5 1007.4208,-254.5 1007.4208,-254.5 899.9334,-254.5 899.9334,-254.5 893.9334,-254.5 887.9334,-248.5 887.9334,-242.5 887.9334,-242.5 887.9334,-230.5 887.9334,-230.5 887.9334,-224.5 893.9334,-218.5 899.9334,-218.5"/>
<text text-anchor="middle" x="953.6771" y="-232.3" font-family="lato, roboto, helvetica" font-size="14.00" fill="#eeeeee">Pluk Kruiden In Bos</text>
</g>
<!-- krijg_ingredientenlijst_van_heks&#45;&gt;pluk_kruiden_in_bos -->
<g id="edge62" class="edge">
<title>krijg_ingredientenlijst_van_heks&#45;&gt;pluk_kruiden_in_bos</title>
<path fill="none" stroke="#999999" d="M823.4412,-291.4551C847.5616,-281.277 877.8393,-268.5009 903.1293,-257.8294"/>
<polygon fill="#999999" stroke="#999999" points="904.5233,-260.2803 910.8054,-254.5904 902.3462,-255.1208 904.5233,-260.2803"/>
</g>
<!-- pluk_paddenstoelen_in_woud -->
<g id="node55" class="node">
<title>pluk_paddenstoelen_in_woud</title>
<path fill="#3333aa" stroke="#3333aa" d="M703.2195,-218.5C703.2195,-218.5 858.1347,-218.5 858.1347,-218.5 864.1347,-218.5 870.1347,-224.5 870.1347,-230.5 870.1347,-230.5 870.1347,-242.5 870.1347,-242.5 870.1347,-248.5 864.1347,-254.5 858.1347,-254.5 858.1347,-254.5 703.2195,-254.5 703.2195,-254.5 697.2195,-254.5 691.2195,-248.5 691.2195,-242.5 691.2195,-242.5 691.2195,-230.5 691.2195,-230.5 691.2195,-224.5 697.2195,-218.5 703.2195,-218.5"/>
<text text-anchor="middle" x="780.6771" y="-232.3" font-family="lato, roboto, helvetica" font-size="14.00" fill="#eeeeee">Pluk Paddenstoelen In Woud</text>
</g>
<!-- krijg_ingredientenlijst_van_heks&#45;&gt;pluk_paddenstoelen_in_woud -->
<g id="edge63" class="edge">
<title>krijg_ingredientenlijst_van_heks&#45;&gt;pluk_paddenstoelen_in_woud</title>
<path fill="none" stroke="#999999" d="M780.6771,-291.4551C780.6771,-282.7686 780.6771,-272.1898 780.6771,-262.642"/>
<polygon fill="#999999" stroke="#999999" points="783.4772,-262.5903 780.6771,-254.5904 777.8772,-262.5904 783.4772,-262.5903"/>
</g>
<!-- krijg_kapotte_houweel_van_dwerg&#45;&gt;repareer_houweel -->
<g id="edge74" class="edge">
<title>krijg_kapotte_houweel_van_dwerg&#45;&gt;repareer_houweel</title>
<path fill="none" stroke="#999999" d="M1033.6771,-1459.4551C1033.6771,-1450.7686 1033.6771,-1440.1898 1033.6771,-1430.642"/>
<polygon fill="#999999" stroke="#999999" points="1036.4772,-1430.5903 1033.6771,-1422.5904 1030.8772,-1430.5904 1036.4772,-1430.5903"/>
</g>
<!-- krijg_plant_hint_van_bakker -->
<g id="node47" class="node">
<title>krijg_plant_hint_van_bakker</title>
<path fill="#008800" stroke="#008800" d="M1424.196,-875.5C1424.196,-875.5 1577.1582,-875.5 1577.1582,-875.5 1583.1582,-875.5 1589.1582,-881.5 1589.1582,-887.5 1589.1582,-887.5 1589.1582,-899.5 1589.1582,-899.5 1589.1582,-905.5 1583.1582,-911.5 1577.1582,-911.5 1577.1582,-911.5 1424.196,-911.5 1424.196,-911.5 1418.196,-911.5 1412.196,-905.5 1412.196,-899.5 1412.196,-899.5 1412.196,-887.5 1412.196,-887.5 1412.196,-881.5 1418.196,-875.5 1424.196,-875.5"/>
<text text-anchor="middle" x="1500.6771" y="-889.3" font-family="lato, roboto, helvetica" font-size="14.00" fill="#eeeeee">Krijg Plant Hint Van Bakker</text>
</g>
<!-- vind_maansteen_in_moeras -->
<g id="node66" class="node">
<title>vind_maansteen_in_moeras</title>
<path fill="#008800" stroke="#008800" d="M1359.2896,-802.5C1359.2896,-802.5 1504.0646,-802.5 1504.0646,-802.5 1510.0646,-802.5 1516.0646,-808.5 1516.0646,-814.5 1516.0646,-814.5 1516.0646,-826.5 1516.0646,-826.5 1516.0646,-832.5 1510.0646,-838.5 1504.0646,-838.5 1504.0646,-838.5 1359.2896,-838.5 1359.2896,-838.5 1353.2896,-838.5 1347.2896,-832.5 1347.2896,-826.5 1347.2896,-826.5 1347.2896,-814.5 1347.2896,-814.5 1347.2896,-808.5 1353.2896,-802.5 1359.2896,-802.5"/>
<text text-anchor="middle" x="1431.6771" y="-816.3" font-family="lato, roboto, helvetica" font-size="14.00" fill="#eeeeee">Vind Maansteen In Moeras</text>
</g>
<!-- krijg_plant_hint_van_bakker&#45;&gt;vind_maansteen_in_moeras -->
<g id="edge85" class="edge">
<title>krijg_plant_hint_van_bakker&#45;&gt;vind_maansteen_in_moeras</title>
<path fill="none" stroke="#999999" d="M1483.6209,-875.4551C1474.8299,-866.1545 1463.9884,-854.6844 1454.4879,-844.6332"/>
<polygon fill="#999999" stroke="#999999" points="1456.3064,-842.4809 1448.7762,-838.5904 1452.2367,-846.3277 1456.3064,-842.4809"/>
</g>
<!-- krijg_schat_onderwerp -->
<g id="node48" class="node">
<title>krijg_schat_onderwerp</title>
<path fill="#008800" stroke="#008800" d="M1234.3699,-948.5C1234.3699,-948.5 1356.9843,-948.5 1356.9843,-948.5 1362.9843,-948.5 1368.9843,-954.5 1368.9843,-960.5 1368.9843,-960.5 1368.9843,-972.5 1368.9843,-972.5 1368.9843,-978.5 1362.9843,-984.5 1356.9843,-984.5 1356.9843,-984.5 1234.3699,-984.5 1234.3699,-984.5 1228.3699,-984.5 1222.3699,-978.5 1222.3699,-972.5 1222.3699,-972.5 1222.3699,-960.5 1222.3699,-960.5 1222.3699,-954.5 1228.3699,-948.5 1234.3699,-948.5"/>
<text text-anchor="middle" x="1295.6771" y="-962.3" font-family="lato, roboto, helvetica" font-size="14.00" fill="#eeeeee">Krijg Schat Onderwerp</text>
</g>
<!-- krijg_schat_onderwerp&#45;&gt;krijg_plant_hint_van_bakker -->
<g id="edge45" class="edge">
<title>krijg_schat_onderwerp&#45;&gt;krijg_plant_hint_van_bakker</title>
<path fill="none" stroke="#999999" d="M1346.3513,-948.4551C1375.4262,-938.1016 1412.0508,-925.0596 1442.3241,-914.2794"/>
<polygon fill="#999999" stroke="#999999" points="1443.2783,-916.9119 1449.8754,-911.5904 1441.3997,-911.6364 1443.2783,-916.9119"/>
</g>
<!-- krijg_rivier_hint_van_molenaar -->
<g id="node49" class="node">
<title>krijg_rivier_hint_van_molenaar</title>
<path fill="#008800" stroke="#008800" d="M1209.4821,-875.5C1209.4821,-875.5 1381.8721,-875.5 1381.8721,-875.5 1387.8721,-875.5 1393.8721,-881.5 1393.8721,-887.5 1393.8721,-887.5 1393.8721,-899.5 1393.8721,-899.5 1393.8721,-905.5 1387.8721,-911.5 1381.8721,-911.5 1381.8721,-911.5 1209.4821,-911.5 1209.4821,-911.5 1203.4821,-911.5 1197.4821,-905.5 1197.4821,-899.5 1197.4821,-899.5 1197.4821,-887.5 1197.4821,-887.5 1197.4821,-881.5 1203.4821,-875.5 1209.4821,-875.5"/>
<text text-anchor="middle" x="1295.6771" y="-889.3" font-family="lato, roboto, helvetica" font-size="14.00" fill="#eeeeee">Krijg Rivier Hint Van Molenaar</text>
</g>
<!-- krijg_schat_onderwerp&#45;&gt;krijg_rivier_hint_van_molenaar -->
<g id="edge46" class="edge">
<title>krijg_schat_onderwerp&#45;&gt;krijg_rivier_hint_van_molenaar</title>
<path fill="none" stroke="#999999" d="M1295.6771,-948.4551C1295.6771,-939.7686 1295.6771,-929.1898 1295.6771,-919.642"/>
<polygon fill="#999999" stroke="#999999" points="1298.4772,-919.5903 1295.6771,-911.5904 1292.8772,-919.5904 1298.4772,-919.5903"/>
</g>
<!-- krijg_route_hint_van_boer -->
<g id="node50" class="node">
<title>krijg_route_hint_van_boer</title>
<path fill="#008800" stroke="#008800" d="M1023.4716,-875.5C1023.4716,-875.5 1167.8826,-875.5 1167.8826,-875.5 1173.8826,-875.5 1179.8826,-881.5 1179.8826,-887.5 1179.8826,-887.5 1179.8826,-899.5 1179.8826,-899.5 1179.8826,-905.5 1173.8826,-911.5 1167.8826,-911.5 1167.8826,-911.5 1023.4716,-911.5 1023.4716,-911.5 1017.4716,-911.5 1011.4716,-905.5 1011.4716,-899.5 1011.4716,-899.5 1011.4716,-887.5 1011.4716,-887.5 1011.4716,-881.5 1017.4716,-875.5 1023.4716,-875.5"/>
<text text-anchor="middle" x="1095.6771" y="-889.3" font-family="lato, roboto, helvetica" font-size="14.00" fill="#eeeeee">Krijg Route Hint Van Boer</text>
</g>
<!-- krijg_schat_onderwerp&#45;&gt;krijg_route_hint_van_boer -->
<g id="edge47" class="edge">
<title>krijg_schat_onderwerp&#45;&gt;krijg_route_hint_van_boer</title>
<path fill="none" stroke="#999999" d="M1246.2389,-948.4551C1217.9933,-938.1454 1182.4444,-925.1701 1152.9826,-914.4165"/>
<polygon fill="#999999" stroke="#999999" points="1153.7149,-911.7031 1145.2397,-911.5904 1151.7947,-916.9637 1153.7149,-911.7031"/>
</g>
<!-- schat_route_compleet -->
<g id="node63" class="node">
<title>schat_route_compleet</title>
<path fill="#008800" stroke="#008800" d="M1131.6862,-802.5C1131.6862,-802.5 1249.668,-802.5 1249.668,-802.5 1255.668,-802.5 1261.668,-808.5 1261.668,-814.5 1261.668,-814.5 1261.668,-826.5 1261.668,-826.5 1261.668,-832.5 1255.668,-838.5 1249.668,-838.5 1249.668,-838.5 1131.6862,-838.5 1131.6862,-838.5 1125.6862,-838.5 1119.6862,-832.5 1119.6862,-826.5 1119.6862,-826.5 1119.6862,-814.5 1119.6862,-814.5 1119.6862,-808.5 1125.6862,-802.5 1131.6862,-802.5"/>
<text text-anchor="middle" x="1190.6771" y="-816.3" font-family="lato, roboto, helvetica" font-size="14.00" fill="#eeeeee">Schat Route Compleet</text>
</g>
<!-- krijg_rivier_hint_van_molenaar&#45;&gt;schat_route_compleet -->
<g id="edge76" class="edge">
<title>krijg_rivier_hint_van_molenaar&#45;&gt;schat_route_compleet</title>
<path fill="none" stroke="#999999" d="M1269.722,-875.4551C1255.7134,-865.7157 1238.2831,-853.5975 1223.3576,-843.2207"/>
<polygon fill="#999999" stroke="#999999" points="1224.8644,-840.8581 1216.6975,-838.5904 1221.6677,-845.4561 1224.8644,-840.8581"/>
</g>
<!-- krijg_route_hint_van_boer&#45;&gt;schat_route_compleet -->
<g id="edge77" class="edge">
<title>krijg_route_hint_van_boer&#45;&gt;schat_route_compleet</title>
<path fill="none" stroke="#999999" d="M1119.1603,-875.4551C1131.7205,-865.8035 1147.3211,-853.8156 1160.7435,-843.5016"/>
<polygon fill="#999999" stroke="#999999" points="1162.4974,-845.6851 1167.1349,-838.5904 1159.0853,-841.2446 1162.4974,-845.6851"/>
</g>
<!-- praat_met_smidsen&#45;&gt;krijg_schat_onderwerp -->
<g id="edge48" class="edge">
<title>praat_met_smidsen&#45;&gt;krijg_schat_onderwerp</title>
<path fill="none" stroke="#999999" d="M1295.6771,-1167.2049C1295.6771,-1128.3808 1295.6771,-1037.6319 1295.6771,-992.6829"/>
<polygon fill="#999999" stroke="#999999" points="1298.4772,-992.589 1295.6771,-984.589 1292.8772,-992.5891 1298.4772,-992.589"/>
</g>
<!-- krijg_toegang_tot_hut -->
<g id="node52" class="node">
<title>krijg_toegang_tot_hut</title>
<path fill="#3333aa" stroke="#3333aa" d="M641.9418,-145.5C641.9418,-145.5 763.4124,-145.5 763.4124,-145.5 769.4124,-145.5 775.4124,-151.5 775.4124,-157.5 775.4124,-157.5 775.4124,-169.5 775.4124,-169.5 775.4124,-175.5 769.4124,-181.5 763.4124,-181.5 763.4124,-181.5 641.9418,-181.5 641.9418,-181.5 635.9418,-181.5 629.9418,-175.5 629.9418,-169.5 629.9418,-169.5 629.9418,-157.5 629.9418,-157.5 629.9418,-151.5 635.9418,-145.5 641.9418,-145.5"/>
<text text-anchor="middle" x="702.6771" y="-159.3" font-family="lato, roboto, helvetica" font-size="14.00" fill="#eeeeee">Krijg Toegang Tot Hut</text>
</g>
<!-- krijg_toegang_tot_hut&#45;&gt;maak_medicijn -->
<g id="edge54" class="edge">
<title>krijg_toegang_tot_hut&#45;&gt;maak_medicijn</title>
<path fill="none" stroke="#999999" d="M677.2164,-145.4551C663.4747,-135.7157 646.3763,-123.5975 631.7351,-113.2207"/>
<polygon fill="#999999" stroke="#999999" points="633.3479,-110.9319 625.2019,-108.5904 630.1097,-115.5007 633.3479,-110.9319"/>
</g>
<!-- pak_tand_van_draak&#45;&gt;krijg_toegang_tot_hut -->
<g id="edge49" class="edge">
<title>pak_tand_van_draak&#45;&gt;krijg_toegang_tot_hut</title>
<path fill="none" stroke="#999999" d="M630.4074,-218.4551C643.0999,-208.8035 658.8648,-196.8156 672.4284,-186.5016"/>
<polygon fill="#999999" stroke="#999999" points="674.2138,-188.6616 678.887,-181.5904 670.8242,-184.2039 674.2138,-188.6616"/>
</g>
<!-- pluk_kruiden_in_bos&#45;&gt;krijg_toegang_tot_hut -->
<g id="edge50" class="edge">
<title>pluk_kruiden_in_bos&#45;&gt;krijg_toegang_tot_hut</title>
<path fill="none" stroke="#999999" d="M891.6321,-218.4551C855.5806,-207.9699 810.0487,-194.7276 772.7142,-183.8694"/>
<polygon fill="#999999" stroke="#999999" points="773.3419,-181.136 764.8782,-181.5904 771.7779,-186.5132 773.3419,-181.136"/>
</g>
<!-- pluk_paddenstoelen_in_woud&#45;&gt;krijg_toegang_tot_hut -->
<g id="edge51" class="edge">
<title>pluk_paddenstoelen_in_woud&#45;&gt;krijg_toegang_tot_hut</title>
<path fill="none" stroke="#999999" d="M761.3962,-218.4551C751.2711,-208.979 738.7396,-197.2508 727.857,-187.0658"/>
<polygon fill="#999999" stroke="#999999" points="729.7608,-185.0126 722.0065,-181.5904 725.9342,-189.1013 729.7608,-185.0126"/>
</g>
<!-- praat_met_dochter_van_bakker&#45;&gt;leg_molensteen_op_lift -->
<g id="edge53" class="edge">
<title>praat_met_dochter_van_bakker&#45;&gt;leg_molensteen_op_lift</title>
<path fill="none" stroke="#999999" d="M559.3915,-657.1537C492.0863,-644.9012 402.7101,-628.6307 337.9926,-616.8492"/>
<polygon fill="#999999" stroke="#999999" points="338.1998,-614.041 329.8277,-615.3628 337.1968,-619.5504 338.1998,-614.041"/>
</g>
<!-- praat_met_draak -->
<g id="node59" class="node">
<title>praat_met_draak</title>
<path fill="#3333aa" stroke="#3333aa" d="M1016.4225,-583.5C1016.4225,-583.5 1100.9317,-583.5 1100.9317,-583.5 1106.9317,-583.5 1112.9317,-589.5 1112.9317,-595.5 1112.9317,-595.5 1112.9317,-607.5 1112.9317,-607.5 1112.9317,-613.5 1106.9317,-619.5 1100.9317,-619.5 1100.9317,-619.5 1016.4225,-619.5 1016.4225,-619.5 1010.4225,-619.5 1004.4225,-613.5 1004.4225,-607.5 1004.4225,-607.5 1004.4225,-595.5 1004.4225,-595.5 1004.4225,-589.5 1010.4225,-583.5 1016.4225,-583.5"/>
<text text-anchor="middle" x="1058.6771" y="-597.3" font-family="lato, roboto, helvetica" font-size="14.00" fill="#eeeeee">Praat Met Draak</text>
</g>
<!-- praat_met_dochter_van_bakker&#45;&gt;praat_met_draak -->
<g id="edge68" class="edge">
<title>praat_met_dochter_van_bakker&#45;&gt;praat_met_draak</title>
<path fill="none" stroke="#999999" d="M750.1051,-662.5575C818.8222,-653.1554 913.5117,-638.551 995.6771,-620 995.8508,-619.9608 996.0248,-619.9213 996.199,-619.8817"/>
<polygon fill="#999999" stroke="#999999" points="997.0273,-622.5625 1004.1525,-617.9721 995.7198,-617.1172 997.0273,-622.5625"/>
</g>
<!-- vind_goud_in_bos -->
<g id="node57" class="node">
<title>vind_goud_in_bos</title>
<path fill="#008800" stroke="#008800" d="M1143.1543,-583.5C1143.1543,-583.5 1238.1999,-583.5 1238.1999,-583.5 1244.1999,-583.5 1250.1999,-589.5 1250.1999,-595.5 1250.1999,-595.5 1250.1999,-607.5 1250.1999,-607.5 1250.1999,-613.5 1244.1999,-619.5 1238.1999,-619.5 1238.1999,-619.5 1143.1543,-619.5 1143.1543,-619.5 1137.1543,-619.5 1131.1543,-613.5 1131.1543,-607.5 1131.1543,-607.5 1131.1543,-595.5 1131.1543,-595.5 1131.1543,-589.5 1137.1543,-583.5 1143.1543,-583.5"/>
<text text-anchor="middle" x="1190.6771" y="-597.3" font-family="lato, roboto, helvetica" font-size="14.00" fill="#eeeeee">Vind Goud In Bos</text>
</g>
<!-- vind_goud_in_bos&#45;&gt;maak_sieraad_bij_smid -->
<g id="edge56" class="edge">
<title>vind_goud_in_bos&#45;&gt;maak_sieraad_bij_smid</title>
<path fill="none" stroke="#999999" d="M1130.8712,-585.3279C1127.7643,-584.5307 1124.6855,-583.7504 1121.6771,-583 1070.5824,-570.2548 1013.0022,-556.9372 967.5086,-546.6572"/>
<polygon fill="#999999" stroke="#999999" points="967.8689,-543.8682 959.4489,-544.8391 966.6366,-549.3309 967.8689,-543.8682"/>
</g>
<!-- pak_hout_in_bos&#45;&gt;repareer_houweel -->
<g id="edge73" class="edge">
<title>pak_hout_in_bos&#45;&gt;repareer_houweel</title>
<path fill="none" stroke="#999999" d="M1169.1827,-1459.4551C1143.9781,-1449.2332 1112.3118,-1436.3907 1085.9302,-1425.6916"/>
<polygon fill="#999999" stroke="#999999" points="1086.7493,-1423.0023 1078.2835,-1422.5904 1084.6447,-1428.1918 1086.7493,-1423.0023"/>
</g>
<!-- praat_met_draak&#45;&gt;trek_tand_van_draak -->
<g id="edge83" class="edge">
<title>praat_met_draak&#45;&gt;trek_tand_van_draak</title>
<path fill="none" stroke="#999999" d="M1049.8464,-583.4759C1032.1709,-549.352 989.0732,-475.3073 930.6771,-437 800.3892,-351.5322 616.0337,-323.3306 512.6987,-314.0431"/>
<polygon fill="#999999" stroke="#999999" points="512.6967,-311.2325 504.4844,-313.3294 512.2119,-316.8115 512.6967,-311.2325"/>
</g>
<!-- vind_runesteen_in_bos -->
<g id="node60" class="node">
<title>vind_runesteen_in_bos</title>
<path fill="#008800" stroke="#008800" d="M1026.5498,-656.5C1026.5498,-656.5 1148.8044,-656.5 1148.8044,-656.5 1154.8044,-656.5 1160.8044,-662.5 1160.8044,-668.5 1160.8044,-668.5 1160.8044,-680.5 1160.8044,-680.5 1160.8044,-686.5 1154.8044,-692.5 1148.8044,-692.5 1148.8044,-692.5 1026.5498,-692.5 1026.5498,-692.5 1020.5498,-692.5 1014.5498,-686.5 1014.5498,-680.5 1014.5498,-680.5 1014.5498,-668.5 1014.5498,-668.5 1014.5498,-662.5 1020.5498,-656.5 1026.5498,-656.5"/>
<text text-anchor="middle" x="1087.6771" y="-670.3" font-family="lato, roboto, helvetica" font-size="14.00" fill="#eeeeee">Vind Runesteen In Bos</text>
</g>
<!-- vind_runesteen_in_bos&#45;&gt;praat_met_draak -->
<g id="edge67" class="edge">
<title>vind_runesteen_in_bos&#45;&gt;praat_met_draak</title>
<path fill="none" stroke="#999999" d="M1080.5086,-656.4551C1076.9881,-647.5932 1072.6852,-636.7616 1068.8329,-627.0646"/>
<polygon fill="#999999" stroke="#999999" points="1071.4195,-625.9914 1065.8637,-619.5904 1066.2151,-628.059 1071.4195,-625.9914"/>
</g>
<!-- vind_onderbroek_bij_rivier&#45;&gt;repareer_molen_met_onderbroek -->
<g id="edge75" class="edge">
<title>vind_onderbroek_bij_rivier&#45;&gt;repareer_molen_met_onderbroek</title>
<path fill="none" stroke="#999999" d="M552.5328,-1532.3696C539.9081,-1522.7988 525.5399,-1510.1167 515.6771,-1496 495.8651,-1467.6429 494.7725,-1457.0513 488.6771,-1423 485.7795,-1406.8129 480.9075,-1400.4932 488.6771,-1386 495.8323,-1372.653 507.8557,-1362.0169 520.521,-1353.8138"/>
<polygon fill="#999999" stroke="#999999" points="522.22,-1356.0575 527.5964,-1349.505 519.3073,-1351.2746 522.22,-1356.0575"/>
</g>
<!-- volg_maansteen_route -->
<g id="node65" class="node">
<title>volg_maansteen_route</title>
<path fill="#008800" stroke="#008800" d="M1130.1385,-729.5C1130.1385,-729.5 1251.2157,-729.5 1251.2157,-729.5 1257.2157,-729.5 1263.2157,-735.5 1263.2157,-741.5 1263.2157,-741.5 1263.2157,-753.5 1263.2157,-753.5 1263.2157,-759.5 1257.2157,-765.5 1251.2157,-765.5 1251.2157,-765.5 1130.1385,-765.5 1130.1385,-765.5 1124.1385,-765.5 1118.1385,-759.5 1118.1385,-753.5 1118.1385,-753.5 1118.1385,-741.5 1118.1385,-741.5 1118.1385,-735.5 1124.1385,-729.5 1130.1385,-729.5"/>
<text text-anchor="middle" x="1190.6771" y="-743.3" font-family="lato, roboto, helvetica" font-size="14.00" fill="#eeeeee">Volg Maansteen Route</text>
</g>
<!-- schat_route_compleet&#45;&gt;volg_maansteen_route -->
<g id="edge90" class="edge">
<title>schat_route_compleet&#45;&gt;volg_maansteen_route</title>
<path fill="none" stroke="#999999" d="M1190.6771,-802.4551C1190.6771,-793.7686 1190.6771,-783.1898 1190.6771,-773.642"/>
<polygon fill="#999999" stroke="#999999" points="1193.4772,-773.5903 1190.6771,-765.5904 1187.8772,-773.5904 1193.4772,-773.5903"/>
</g>
<!-- snij_touw_van_lift&#45;&gt;trek_tand_van_draak -->
<g id="edge82" class="edge">
<title>snij_touw_van_lift&#45;&gt;trek_tand_van_draak</title>
<path fill="none" stroke="#999999" d="M394.7782,-364.4551C401.4033,-355.3299 409.5446,-344.1165 416.7416,-334.2036"/>
<polygon fill="#999999" stroke="#999999" points="419.1087,-335.7091 421.543,-327.5904 414.5771,-332.4191 419.1087,-335.7091"/>
</g>
<!-- volg_maansteen_route&#45;&gt;vind_goud_in_bos -->
<g id="edge84" class="edge">
<title>volg_maansteen_route&#45;&gt;vind_goud_in_bos</title>
<path fill="none" stroke="#999999" d="M1190.6771,-729.3042C1190.6771,-703.8403 1190.6771,-657.4108 1190.6771,-628.0759"/>
<polygon fill="#999999" stroke="#999999" points="1193.4772,-627.9251 1190.6771,-619.9251 1187.8772,-627.9251 1193.4772,-627.9251"/>
</g>
<!-- volg_maansteen_route&#45;&gt;vind_runesteen_in_bos -->
<g id="edge88" class="edge">
<title>volg_maansteen_route&#45;&gt;vind_runesteen_in_bos</title>
<path fill="none" stroke="#999999" d="M1165.2164,-729.4551C1151.4747,-719.7157 1134.3763,-707.5975 1119.7351,-697.2207"/>
<polygon fill="#999999" stroke="#999999" points="1121.3479,-694.9319 1113.2019,-692.5904 1118.1097,-699.5007 1121.3479,-694.9319"/>
</g>
<!-- vind_maansteen_in_moeras&#45;&gt;volg_maansteen_route -->
<g id="edge89" class="edge">
<title>vind_maansteen_in_moeras&#45;&gt;volg_maansteen_route</title>
<path fill="none" stroke="#999999" d="M1372.1041,-802.4551C1337.6337,-792.0138 1294.1366,-778.8383 1258.3742,-768.0058"/>
<polygon fill="#999999" stroke="#999999" points="1258.8683,-765.2298 1250.4001,-765.5904 1257.2448,-770.5894 1258.8683,-765.2298"/>
</g>
</g>
</svg>
